<svg xmlns="http://www.w3.org/2000/svg" viewBox="0 0 378.43 81.71"><defs><style>.cls-1{fill:#5187f1;}.cls-2{fill:#fff;}</style></defs><g id="图层_2" data-name="图层 2"><g id="图层_1-2" data-name="图层 1"><rect class="cls-1" width="378.43" height="81.71" rx="40.85"/><path class="cls-2" d="M77.2,32v2.55H50.35V32h7.5q-1.08-2.19-1.53-3L59,28.1a12.85,12.85,0,0,1,.8,1.48c.33.69.54,1.15.64,1.37l.48,1h5.58q1-1.62,2.19-3.84l2.76.9Q70.21,31.1,69.64,32ZM52.33,55.7V36.86H63.55V52.25a3.85,3.85,0,0,1-.7,2.64,3.45,3.45,0,0,1-2.45.81,16.35,16.35,0,0,1-2.61-.09L57.25,53a13.86,13.86,0,0,0,2.28.18,1.41,1.41,0,0,0,1.1-.32,2,2,0,0,0,.25-1.18V49.46H55V55.7ZM60.88,42V39.41H55V42ZM55,44.39v2.67h5.85V44.39Zm11.4-6.9H69V50.33H66.43Zm5.82-1.17H75V51.86a6.43,6.43,0,0,1-.31,2.25,2.11,2.11,0,0,1-1.13,1.18,5.74,5.74,0,0,1-2.34.38q-1.77,0-3.66-.18L67,52.85a29.73,29.73,0,0,0,3.33.27,2.1,2.1,0,0,0,1.55-.42,2.34,2.34,0,0,0,.37-1.53Z"/><path class="cls-2" d="M89.32,37.67a45.27,45.27,0,0,1-2.7,4.11V55.85h-2.7V45.11a33.19,33.19,0,0,1-3,3l-1.17-2.85A36.37,36.37,0,0,0,83.67,41,37.1,37.1,0,0,0,87,36.17Zm.21-7.47a38.82,38.82,0,0,1-3.48,4.12,59,59,0,0,1-4.26,4.13L80.35,36a32.87,32.87,0,0,0,3.74-3.65,34.38,34.38,0,0,0,3.1-3.91Zm9.75,22.08h8.22V55H88.24v-2.7h8.25V44.93h-6.6V42.14h6.6V36.08H89.41v-2.7h8.07q-.81-1.83-2.22-4.44l2.49-1.14q1.59,2.82,2.49,4.56l-2.34,1h8.88v2.7h-7.5v6.06h6.6v2.79h-6.6Z"/><path class="cls-2" d="M122.52,38.58a7,7,0,0,1,2.53,2.82,10.34,10.34,0,0,1,0,8.7,6.94,6.94,0,0,1-2.53,2.81,6.39,6.39,0,0,1-3.38,1,6.27,6.27,0,0,1-2.94-.72A5.48,5.48,0,0,1,114,51q-.12,1.17-.18,2.55h-2.73V30.71h3.09v9.54a5.43,5.43,0,0,1,2.15-2,6.17,6.17,0,0,1,2.83-.66A6.31,6.31,0,0,1,122.52,38.58Zm-.87,11.1a6.08,6.08,0,0,0,1.15-3.94,6,6,0,0,0-1.14-3.89,3.74,3.74,0,0,0-3.06-1.39,4.29,4.29,0,0,0-3.13,1.29,5.4,5.4,0,0,0-1.31,4,5.56,5.56,0,0,0,1.31,4,4.24,4.24,0,0,0,3.13,1.32A3.74,3.74,0,0,0,121.65,49.68Z"/><path class="cls-2" d="M129.67,34.85a2,2,0,0,1-.57-1.41,1.94,1.94,0,0,1,.57-1.4,1.82,1.82,0,0,1,1.35-.58,1.89,1.89,0,0,1,1.41.58,2,2,0,0,1,0,2.81,1.89,1.89,0,0,1-1.4.6A1.8,1.8,0,0,1,129.67,34.85Zm2.91,18.69h-3.09V38h3.09Z"/><path class="cls-2" d="M140.08,53.54H137V30.71h3.09Z"/><path class="cls-2" d="M147.55,53.54h-3.09V30.71h3.09Z"/><path class="cls-2" d="M163.38,38.58a7,7,0,0,1,2.53,2.82,10.34,10.34,0,0,1,0,8.7,6.94,6.94,0,0,1-2.53,2.81,6.39,6.39,0,0,1-3.38,1,6.27,6.27,0,0,1-2.94-.72A5.48,5.48,0,0,1,154.84,51q-.12,1.17-.18,2.55h-2.73V30.71H155v9.54a5.43,5.43,0,0,1,2.15-2,6.17,6.17,0,0,1,2.83-.66A6.31,6.31,0,0,1,163.38,38.58Zm-.87,11.1a6.08,6.08,0,0,0,1.15-3.94,6,6,0,0,0-1.14-3.89,3.74,3.74,0,0,0-3.06-1.39,4.29,4.29,0,0,0-3.13,1.29,5.4,5.4,0,0,0-1.31,4,5.56,5.56,0,0,0,1.31,4,4.24,4.24,0,0,0,3.13,1.32A3.74,3.74,0,0,0,162.51,49.68Z"/><path class="cls-2" d="M170.53,34.85a2,2,0,0,1-.57-1.41,1.94,1.94,0,0,1,.57-1.4,1.82,1.82,0,0,1,1.35-.58,1.89,1.89,0,0,1,1.41.58,2,2,0,0,1,0,2.81,1.89,1.89,0,0,1-1.4.6A1.8,1.8,0,0,1,170.53,34.85Zm2.91,18.69h-3.09V38h3.09Z"/><path class="cls-2" d="M180.94,53.54h-3.09V30.71h3.09Z"/><path class="cls-2" d="M188.41,53.54h-3.09V30.71h3.09Z"/><path class="cls-2" d="M200.35,51.74q-.93-1.89-2.28-4.5A46.39,46.39,0,0,1,193.39,55l-2.1-2a37.73,37.73,0,0,0,5.16-8.7q-2.22-4.08-4.35-7.56l2.16-1.29Q196,38.27,197.59,41A51.88,51.88,0,0,0,199,33.74H192.1V31h9.69v2.73a50.85,50.85,0,0,1-2.43,10.38q1.59,2.91,3.3,6.21Zm19-2.79q0,1.41-.09,2.94a6,6,0,0,1-.39,2,1.79,1.79,0,0,1-1,1,6.45,6.45,0,0,1-2,.38q-1,.06-1.5.06t-1.53-.06a4.38,4.38,0,0,1-1.68-.36,1.78,1.78,0,0,1-.87-1,5.55,5.55,0,0,1-.27-2V48a15.41,15.41,0,0,1-3,4.29,29.11,29.11,0,0,1-5,4L200.2,54a24.48,24.48,0,0,0,5.31-4,10.94,10.94,0,0,0,2.55-4.29,22.88,22.88,0,0,0,.84-5.85q0-1.2.06-2.91T209,34h2.76l-.09,6.18a25.42,25.42,0,0,1-.51,4.59h1.53v6.12a2.14,2.14,0,0,0,.24,1.23,1.54,1.54,0,0,0,1.08.36q.66,0,1.32,0a1.85,1.85,0,0,0,1.17-.35,2,2,0,0,0,.3-1.21l.06-2.7Zm-4.5-16.59h-8.79V46.94h-2.67V29.66h14.1V46.88h-2.64Z"/><path class="cls-2" d="M248.77,40.37H232.24q-.54.9-1.17,1.8h14.46V55.94h-2.64V54.71H230.11V56h-2.64V46.22A47,47,0,0,1,223,49.91l-1.5-2.46A29.52,29.52,0,0,0,229,40.37h-6.78V38.12h8.16a16.12,16.12,0,0,0,.9-1.86h-6.9V34.13h7.71q.42-1.32.6-2-5.64.27-9.09.3l-.18-2.34q5.37-.06,12-.44t11.38-.88l.27,2.46q-4.44.36-11.55.78-.36,1.44-.57,2.13h11.67v2.13H234.22q-.3.84-.78,1.86h15.33Zm-18.66,5.4h12.78V44.24H230.11Zm12.78,1.92H230.11v1.53h12.78Zm-12.78,3.42v1.53h12.78V51.11Z"/><path class="cls-2" d="M267.1,47.57v4.71h11.19V55H252.94V52.28H264.1V47.57h-8.52V44.9h8.52v-4h-7.41V38.63q-2,1.17-3.72,2L251.59,38a49.08,49.08,0,0,0,7.83-4.58,21.45,21.45,0,0,0,5-5.14h2.43a21.17,21.17,0,0,0,5.07,5.26,45.44,45.44,0,0,0,7.68,4.49l-1.44,2.58q-1.77-.87-3.54-1.89v2.1h-7.5v4h8.52v2.67Zm-4.93-12.68a40.75,40.75,0,0,1-4.79,3.32H273.7a30.16,30.16,0,0,1-8.07-6.78A23.56,23.56,0,0,1,262.17,34.89Z"/><path class="cls-2" d="M307.93,38.69H289.27q0,1.83-.12,4.59h14.31V55.79h-2.79V46H288.91a24.52,24.52,0,0,1-1.2,5.43,20.9,20.9,0,0,1-2.46,4.71l-2.76-1.65A18.94,18.94,0,0,0,285,50a21.2,21.2,0,0,0,1.17-5,64.07,64.07,0,0,0,.33-7.2V29h2.82V36h9.54V28.55h2.79V36h6.33Z"/></g></g></svg>