<svg xmlns="http://www.w3.org/2000/svg" viewBox="0 0 1679.31 475.74"><defs><style>.cls-1{fill:#5187f1;}.cls-2{fill:#fff;}.cls-3{opacity:0.4;}</style></defs><g id="图层_2" data-name="图层 2"><g id="图层_1-2" data-name="图层 1"><rect class="cls-1" x="829.32" y="25.17" width="161.87" height="46.47" rx="4.07"/><path d="M188.5,203.32h7.86v2.1H169.45v-2.1h8q-1-1.77-2-3.39l2.34-.84q1.11,1.89,2.37,4.23h5.58a44.94,44.94,0,0,0,2.7-4.26l2.28.93Q189.94,201.19,188.5,203.32Zm-7.89,17.1H174v6.45h-2.31V208.09H183v15.15a4,4,0,0,1-.69,2.55,3.5,3.5,0,0,1-2.34.81,28.52,28.52,0,0,1-2.94-.09l-.42-2.22q1.5.15,2.61.15a1.41,1.41,0,0,0,1.11-.33,2.15,2.15,0,0,0,.3-1.29Zm0-7v-3.24H174v3.24Zm0,5.16v-3.27H174v3.27Zm5.58-9.6h2.19v12.33h-2.19Zm5.67-1.5h2.28v15.33a4,4,0,0,1-.81,2.85,4.12,4.12,0,0,1-2.67,1,24.66,24.66,0,0,1-3.21,0l-.45-2.37q1.47.12,2.88.12a2.32,2.32,0,0,0,1.53-.45,2.17,2.17,0,0,0,.45-1.56Z"/><path d="M211.87,217.69h2.31v2H199.27v-2h2.88v-13H199.9v-2h2.25v-3.21h2.22v3.21h5.28v-3.18h2.22v3.18h2.07v2h-2.07Zm-7.71,2.55,1.86,1.23a32.71,32.71,0,0,1-4.74,5.16l-1.77-1.5A31.48,31.48,0,0,0,204.16,220.24Zm5.49-12.51v-3h-5.28v3Zm0,4.92v-3h-5.28v3Zm0,5v-3.12h-5.28v3.12Zm-1.92,3.84,1.59-1.29a45.33,45.33,0,0,1,3.54,3.51l-1.56,1.59Q210.1,223.9,207.73,221.53Zm15.21-4.23h-5.4a22.47,22.47,0,0,1-1.11,5.43,18.61,18.61,0,0,1-2.4,4.32l-2-1.41a15.26,15.26,0,0,0,2.76-5.28,34.69,34.69,0,0,0,.69-8V200.62h9.75V223a3.78,3.78,0,0,1-.75,2.49,3.34,3.34,0,0,1-2.28,1,23.54,23.54,0,0,1-2.91,0l-.48-2.31a23.7,23.7,0,0,0,2.49.09,1.49,1.49,0,0,0,1.68-1.71Zm0-2.16v-5h-5.22v2.37q0,1.35,0,2.67Zm0-7.14v-5.22h-5.22V208Z"/><path d="M244.12,214.69v1.71a20.75,20.75,0,0,0,5.43,4.56,27.89,27.89,0,0,0,7.14,2.85l-1.26,2.31A25.43,25.43,0,0,1,244.12,219v8h-2.4V219.1a21.83,21.83,0,0,1-3.75,3.36,33.15,33.15,0,0,1-7.5,4l-1.32-2.22a33.15,33.15,0,0,0,7.47-3.45,25.27,25.27,0,0,0,5.1-4.38v-1.68h-6.9v5h-2.34v-6.9h9.24v-2.46H230.29v-1.92h11.43v-1.74h2.4v1.74h11.52v1.92H244.12v2.46h9.48v4a3.08,3.08,0,0,1-.69,2.16,3.38,3.38,0,0,1-2.25.78q-1.32,0-2.13,0l-.54-1.83q1.08.09,1.89.09a1.79,1.79,0,0,0,1.11-.3,1.41,1.41,0,0,0,.3-1v-1.92Zm-6.21-11.1a27.59,27.59,0,0,1,1.68,2.85l-1.83.9a38.19,38.19,0,0,0-2.07-3.75h-1.17a24,24,0,0,1-3.57,3.78l-1.71-1.5a21.8,21.8,0,0,0,3.21-3.15,19.31,19.31,0,0,0,2.25-3.63l2.25.48q-.54,1.05-1.11,2.07h7.35v2Zm12.24,0q1.29,1.71,1.92,2.7l-1.74,1.05a38.72,38.72,0,0,0-2.49-3.75h-1.38a25.65,25.65,0,0,1-2.34,3l-1.86-1.2a19.47,19.47,0,0,0,4-6.21l2.28.45q-.48,1.11-1,2h8.52v2Z"/><path d="M268.21,218.86a20.09,20.09,0,0,0,1.26,2.82,7.38,7.38,0,0,0,1.26,1.77,1.65,1.65,0,0,0,1,.51q.81,0,1.26-1.41.48-1.59.87-3.57l2.07.93a31.54,31.54,0,0,1-1.08,4q-1,2.64-3,2.64-2.37,0-4.26-3.36a21.82,21.82,0,0,1-1.32-2.85,45.45,45.45,0,0,1-5.7,3.45l-1.44-2.1a34.43,34.43,0,0,0,6.36-3.72,40.7,40.7,0,0,1-1.32-8.25l-4.44.63-.33-2.19,4.59-.63a4.76,4.76,0,0,1,0-.66q-.09-1.5-.3-7.5h2.37q0,3.12.24,7.35a3.87,3.87,0,0,1,0,.48l8.16-1.11.36,2.16-8.37,1.17a43.64,43.64,0,0,0,1,6.9,28.17,28.17,0,0,0,4.65-5.64l2,1.32a35.08,35.08,0,0,1-5.79,6.75A.2.2,0,0,1,268.21,218.86Zm-.42-17.13,1.59-1.35a44.31,44.31,0,0,1,3.75,3.45l-1.5,1.59A41.57,41.57,0,0,0,267.79,201.73Zm8.94.81H279v16.89h-2.25Zm5.82-3.06h2.37v23.1a4.3,4.3,0,0,1-.84,2.94,4.08,4.08,0,0,1-2.88,1q-1.41.06-3.36,0l-.51-2.52a30.86,30.86,0,0,0,3.18.15,2.21,2.21,0,0,0,1.59-.51,2.34,2.34,0,0,0,.45-1.62Z"/><path class="cls-1" d="M148.23,299.51h-7.16v2.55h3.64v-2.35h.64v2.35H149v.61h-3.64v2.54h2.81v5.55h-.65v-1.17H142.6v1.26H142v-5.64h2.76v-2.54h-3.66a23.13,23.13,0,0,1-.38,4,16.37,16.37,0,0,1-1.49,4.06l-.56-.4a15.93,15.93,0,0,0,1.41-3.85,26.54,26.54,0,0,0,.37-5v-5.81h7.83Zm-.66-.6v-2.68h-6.5v2.68ZM147.51,309v-3.15H142.6V309ZM150,296.61h.66v10.31H150Zm3.27-1.91h.67v13.86a2.55,2.55,0,0,1-.47,1.71,2.35,2.35,0,0,1-1.6.52,10.9,10.9,0,0,1-1.67-.09l-.08-.7a14,14,0,0,0,1.61.09,1.29,1.29,0,0,0,1.54-1.6Z"/><path class="cls-1" d="M165.78,298.52a22.07,22.07,0,0,0,2.83,4.69,20.82,20.82,0,0,0,4.46,4.09l-.43.69a22.25,22.25,0,0,1-4.57-4.32,21.28,21.28,0,0,1-2.81-4.92v8.07h4.18v.66h-4.18v3.64h-.72v-3.64h-4.17v-.66h4.17v-8a21.31,21.31,0,0,1-2.84,4.89,26.65,26.65,0,0,1-4.5,4.43l-.45-.61a25.23,25.23,0,0,0,4.44-4.29,21.66,21.66,0,0,0,2.83-4.71h-6.64v-.69h7.16V294.5h.72v3.33h7.22v.69Z"/><path class="cls-1" d="M177.25,307.25c.44.39.9.83,1.37,1.31s.81.9,1.31,1.51l-.47.4a20.33,20.33,0,0,0-2.62-2.83Z"/><path class="cls-1" d="M203.57,297h4.48v.63h-6.79v2.16h5.92v.62h-5.92v2.28h7.56v.63H193v-.63h7.54v-2.28h-5.7v-.62h5.7v-2.16h-6.71V297h4.32q-.78-1.28-1.44-2.16l.65-.3c.58.85,1.12,1.67,1.6,2.46h3.8c.55-.71,1.12-1.54,1.72-2.46l.65.29C204.51,295.76,204,296.49,203.57,297Zm-2.22,9.33a6.19,6.19,0,0,0,2.47,2.39,16,16,0,0,0,5.11,1.61l-.25.7a16.71,16.71,0,0,1-5.29-1.75,6.86,6.86,0,0,1-2.51-2.48,5,5,0,0,1-1.8,2.14,15.94,15.94,0,0,1-5.83,2.19l-.25-.68a17.29,17.29,0,0,0,5.31-1.83,4.65,4.65,0,0,0,2-2.29h-6.79v-.63h6.91c0-.45.09-1,.11-1.71l.72,0c0,.77-.09,1.33-.12,1.69h7.2v.63Z"/><path class="cls-1" d="M219.59,299.72a19.46,19.46,0,0,0,2.88,4.59A20.73,20.73,0,0,0,227,308.2l-.45.68a22,22,0,0,1-4.63-4.08,22.26,22.26,0,0,1-2.7-4.47v10.75h-.72V300.46a20.88,20.88,0,0,1-2.62,4.3,24.23,24.23,0,0,1-4.67,4.36l-.45-.67a24.07,24.07,0,0,0,4.6-4.19,19.91,19.91,0,0,0,2.84-4.54h-6.88V299h7.18V294.5h.72V299h7.26v.7Zm1.78-4.05.47-.43c1,.9,2,1.72,2.73,2.45l-.47.48C223.6,297.68,222.69,296.85,221.37,295.67Z"/><path class="cls-1" d="M228.71,300.5h3.1v8.35a27.4,27.4,0,0,0,2.28-2.29l.36.63a35.58,35.58,0,0,1-3.22,3.05l-.43-.54a1.41,1.41,0,0,0,.23-.44,2.43,2.43,0,0,0,.08-.54v-7.54h-2.4Zm1.19-5,.58-.43c.81.85,1.68,1.81,2.61,2.86l-.56.49C231.6,297.33,230.73,296.36,229.9,295.49Zm9.85,12.35a19.21,19.21,0,0,0,5.27,2.5l-.36.69a20,20,0,0,1-5.51-2.72,21.47,21.47,0,0,1-5.7,2.86l-.38-.65a22.45,22.45,0,0,0,5.51-2.68,13,13,0,0,1-3.17-4.28l.61-.33a12,12,0,0,0,3.15,4.16,11.44,11.44,0,0,0,3.21-4.35h-8.16v-.65h8.95v.66a12.19,12.19,0,0,1-3.41,4.77Zm-3.55-12.29h6l0,3.31a1.24,1.24,0,0,0,.27.93,1.35,1.35,0,0,0,.92.31c.55,0,1.11,0,1.67,0l-.14.7c-.47,0-1,0-1.71,0a2.05,2.05,0,0,1-1.37-.46,1.71,1.71,0,0,1-.36-1.27l0-2.85H236.9v1.59a4.18,4.18,0,0,1-.59,2.1,5.6,5.6,0,0,1-1.93,1.59l-.48-.53a5.36,5.36,0,0,0,1.78-1.42,3.26,3.26,0,0,0,.52-1.89Z"/><path class="cls-1" d="M250.53,305.46a6,6,0,0,0,1.47,2.63,4.92,4.92,0,0,0,2.9,1.41v-8.08h-6.71v-.65h13.55v.65h-6.12v3.5h5.87v.64h-5.87v4l.92,0q2.81.06,6.5,0l-.15.74c-1.71,0-3.93,0-6.64-.09a6.93,6.93,0,0,1-4.1-1.19,5.56,5.56,0,0,1-1.93-2.65c-.13.39-.29.78-.47,1.19a12.64,12.64,0,0,1-2.5,3.4l-.5-.5a12.5,12.5,0,0,0,2.39-3.24,12.16,12.16,0,0,0,1.05-4l.72.1A15.55,15.55,0,0,1,250.53,305.46Zm5.2-8.62H262v3.08h-.7v-2.43H248.48v2.45h-.71v-3.1h7.15c-.18-.46-.52-1.23-1-2.28l.78-.13C255.09,295.28,255.44,296.09,255.73,296.84Z"/><path class="cls-1" d="M267.25,307.25c.44.39.9.83,1.37,1.31s.81.9,1.31,1.51l-.47.4a20.33,20.33,0,0,0-2.62-2.83Z"/><path class="cls-1" d="M288.72,294.84l.67.33a18.34,18.34,0,0,1-2.56,4.16,18,18,0,0,1-3.63,3.31l-.42-.63A16.37,16.37,0,0,0,288.72,294.84Zm.49,7.82c0,.33-.09.86-.16,1.58a8.31,8.31,0,0,1-1.5,3.93,11.52,11.52,0,0,1-3.72,2.89l-.51-.56a11.29,11.29,0,0,0,3.55-2.69,7.64,7.64,0,0,0,1.44-3.62q.07-.56.18-1.53h-3V302h10.2q-.17,3.4-.27,6.1a2.49,2.49,0,0,1-.72,1.84,2.85,2.85,0,0,1-2,.61c-.8,0-1.48,0-2.05-.07l-.14-.72c.75.06,1.46.09,2.12.09a2.36,2.36,0,0,0,1.53-.45,1.91,1.91,0,0,0,.54-1.4c.13-2.56.22-4.34.25-5.33Zm3.26-7.76.66-.27a14.59,14.59,0,0,0,2.42,4.16,12.88,12.88,0,0,0,3.56,3l-.45.68a15.05,15.05,0,0,1-3.71-3.21A15.8,15.8,0,0,1,292.47,294.9Z"/><path class="cls-1" d="M303.05,297.22H306v.63h-3.24a17.74,17.74,0,0,1-1.61,2.83l-.48-.49a21.24,21.24,0,0,0,1.51-2.68,21.7,21.7,0,0,0,1.08-3l.67.16A23.16,23.16,0,0,1,303.05,297.22Zm.79,7.16V309c.68-.53,1.34-1.09,2-1.69l.33.59a38.26,38.26,0,0,1-3,2.49l-.38-.58a1.92,1.92,0,0,0,.31-.41,1.47,1.47,0,0,0,.09-.53v-4.5h-2.32v-.63h2.32V301h-1.52v-.61h3.87V301h-1.71v2.77H306v.63Zm11.54,2.35h-2.52v2.08a1.26,1.26,0,0,0,.27.92,1.75,1.75,0,0,0,.83.29,4.87,4.87,0,0,0,1.08,0,2.29,2.29,0,0,0,.88-.32,1.61,1.61,0,0,0,.38-.72,11,11,0,0,0,.14-1.21l.6.16c-.05.47-.1.89-.16,1.26a1.9,1.9,0,0,1-.54,1,2.29,2.29,0,0,1-1.26.41h-1.21a2.12,2.12,0,0,1-1.26-.47,1.69,1.69,0,0,1-.41-1.29v-2.14h-2.15a4.18,4.18,0,0,1-1.29,2.84,7.64,7.64,0,0,1-3.13,1.55l-.31-.6a8,8,0,0,0,2.83-1.31,3.53,3.53,0,0,0,1.22-2.48h-2.18v-5.21h8.19Zm-2.07-7.35h3.6v.6H306v-.6h3.39c-.21-.43-.56-1.07-1.05-1.91l.65-.19c.28.47.65,1.18,1.12,2.1h2.43a23,23,0,0,0,1.2-2.18l.67.18C314.1,298,313.73,298.67,313.31,299.38Zm-1.35-3h4.32v.57h-9.56v-.57h4.54c-.2-.52-.44-1.09-.7-1.71l.68-.13C311.63,295.48,311.87,296.09,312,296.36Zm2.77,7.52V302.1h-6.87v1.78Zm0,2.29v-1.75h-6.87v1.75Z"/><path class="cls-1" d="M808.66,130.68h7v.59l-2.2,2.38h4.38v9.59a2.06,2.06,0,0,1-.47,1.5,2.38,2.38,0,0,1-1.57.52c-.49,0-1.08,0-1.76,0l-.16-.7c.34,0,.93,0,1.74,0a1.88,1.88,0,0,0,1.17-.35,1.43,1.43,0,0,0,.33-1.06v-2h-5v3.58h-.72v-3.58h-5.09a9.71,9.71,0,0,1-.29,1.31,8.92,8.92,0,0,1-1.8,3.08l-.61-.45a8.66,8.66,0,0,0,1.73-2.86,14.47,14.47,0,0,0,.43-4v-4.52c-.48.42-1.08.88-1.78,1.39l-.53-.51a20.27,20.27,0,0,0,3.19-2.64,19.34,19.34,0,0,0,2.39-3.06l.74.14A16.28,16.28,0,0,1,808.66,130.68Zm-.48.61c-.41.48-.73.84-1,1.06-.41.42-.87.86-1.38,1.3h6.67l2.13-2.36Zm-1.73,6.39v.6a21.31,21.31,0,0,1-.11,2.23h5v-2.83Zm0-.61h4.91v-2.79h-4.91Zm10.64,0v-2.79h-5v2.79Zm0,3.44v-2.83h-5v2.83Z"/><path class="cls-1" d="M835.28,139.52H824.11v2.66a1.67,1.67,0,0,0,1.89,2c2.61.06,5.22.06,7.81,0a3.37,3.37,0,0,0,1.69-.36,1.72,1.72,0,0,0,.65-1.06c.11-.52.2-1.07.27-1.67l.68.19c-.08.54-.18,1.13-.3,1.75a2.12,2.12,0,0,1-.9,1.4,4.62,4.62,0,0,1-2,.44q-4,.06-8,0a2.6,2.6,0,0,1-1.89-.67,2.65,2.65,0,0,1-.63-1.94v-7.89h6.35l2.84-2.9H826a22,22,0,0,1-4.32,3.84l-.45-.54a19.28,19.28,0,0,0,5.83-5.92l.68.21a17.55,17.55,0,0,1-1.2,1.75h7v.63l-2.89,2.93h4.6ZM829,135h-4.91v3.85H829Zm5.56,3.85V135H829.7v3.85Z"/><path class="cls-1" d="M839.08,134.89h3.1v8.35a27.24,27.24,0,0,0,2.28-2.28l.36.63a35.55,35.55,0,0,1-3.22,3l-.43-.54a1.36,1.36,0,0,0,.23-.43,2.6,2.6,0,0,0,.08-.54v-7.54h-2.4Zm1.19-5,.58-.43c.81.85,1.68,1.8,2.61,2.86l-.56.48C842,131.72,841.1,130.75,840.27,129.89Zm9.85,12.35a19.5,19.5,0,0,0,5.27,2.5l-.36.68a19.77,19.77,0,0,1-5.51-2.72,21.47,21.47,0,0,1-5.7,2.87l-.38-.65a23.19,23.19,0,0,0,5.51-2.68,13.17,13.17,0,0,1-3.17-4.29l.61-.32a12.12,12.12,0,0,0,3.15,4.16,11.27,11.27,0,0,0,3.2-4.36h-8.15v-.65h8.95v.67a12.33,12.33,0,0,1-3.41,4.77Zm-3.55-12.3h6l0,3.31a1.25,1.25,0,0,0,.27.94,1.41,1.41,0,0,0,.92.31c.55,0,1.11,0,1.67,0l-.14.7a15.53,15.53,0,0,1-1.71,0,2.11,2.11,0,0,1-1.37-.45,1.74,1.74,0,0,1-.36-1.28l0-2.84h-4.56v1.58a4.22,4.22,0,0,1-.59,2.11,5.7,5.7,0,0,1-1.93,1.58l-.48-.52a5.49,5.49,0,0,0,1.78-1.42,3.3,3.3,0,0,0,.52-1.89Z"/><path class="cls-1" d="M857.12,134.87h3.49v8.39c.85-.65,1.81-1.44,2.86-2.37l.34.64Q862,143.2,860,144.74l-.49-.61a1.09,1.09,0,0,0,.33-.44,1.86,1.86,0,0,0,.07-.59v-7.54h-2.77Zm1.42-5,.54-.49c1.15,1.08,2.13,2,2.93,2.88l-.52.51C860.45,131.74,859.46,130.78,858.54,129.89Zm9.92,6.17v9.4h-.74v-9.4h-4.93v-.7h4.93v-6.44h.74v6.44h5v.7Z"/><path class="cls-1" d="M877.62,141.64c.44.4.9.84,1.37,1.32s.81.9,1.31,1.51l-.47.39a20.87,20.87,0,0,0-2.62-2.82Z"/><path class="cls-1" d="M898.75,133.9c-1.44.33-3.21.68-5.33,1.06l-.16-.64q2.34-.4,5.49-1v-1.83h-5v-.6h5V129h.69v6.39h-.69Zm-3,2.43h11v6.88a2.07,2.07,0,0,1-.58,1.6,2.69,2.69,0,0,1-1.71.45c-.86,0-1.6,0-2.21,0l-.15-.69q1.16.07,2.22.09a2.12,2.12,0,0,0,1.33-.32,1.46,1.46,0,0,0,.38-1.14v-1.06h-9.6v3.31h-.72Zm10.32,2.59v-2h-9.6v2Zm0,2.6v-2h-9.6v2Zm-2.87-9.18v.72a1.23,1.23,0,0,0,.33,1,1.79,1.79,0,0,0,1.1.32,10.48,10.48,0,0,0,1.94,0,2.68,2.68,0,0,0,1.21-.31,1,1,0,0,0,.46-.72c.1-.44.17-.85.22-1.24l.63.22a12.89,12.89,0,0,1-.23,1.28,1.75,1.75,0,0,1-.71,1,4,4,0,0,1-1.49.38,11.55,11.55,0,0,1-2.2,0,2.49,2.49,0,0,1-1.49-.51,1.73,1.73,0,0,1-.47-1.36V129h.7v2.7a39.73,39.73,0,0,0,5.21-1.73l.3.59A44.89,44.89,0,0,1,903.23,132.34Z"/><path class="cls-1" d="M919.9,136.21h7.4v.55h-16v-.55h7.85a13.77,13.77,0,0,0-.65-1.34l.7-.19C919.42,135.19,919.66,135.7,919.9,136.21Zm-3.72,5.86.41.47a26.85,26.85,0,0,1-4.82,2.61l-.38-.56A29,29,0,0,0,916.18,142.07Zm9-7.56H913.3V129.8h11.91Zm-.29,6.75h-5.07v2.16a2.09,2.09,0,0,1-.42,1.46,2.17,2.17,0,0,1-1.45.49c-.53,0-1.08,0-1.66-.07l-.14-.69c.51,0,1.06.07,1.63.07a1.6,1.6,0,0,0,1.05-.3,1.64,1.64,0,0,0,.29-1.06v-2.06h-5.51V138.2h11.28Zm-.41-9.39v-1.51H914v1.51Zm0,2.09v-1.53H914V134Zm-.29,6.76v-2h-9.9v2ZM922,142.61l.4-.52c1.48.7,3,1.5,4.73,2.4l-.36.57C925.43,144.35,923.84,143.54,922,142.61Z"/><path class="cls-1" d="M939.94,131.4h4.48V132h-6.79v2.16h5.92v.61h-5.92v2.29h7.56v.63H929.37v-.63h7.54V134.8h-5.7v-.61h5.7V132H930.2v-.63h4.32q-.78-1.28-1.44-2.16l.65-.31c.58.86,1.12,1.68,1.6,2.47h3.8c.55-.72,1.12-1.54,1.72-2.47l.65.29C940.88,130.16,940.36,130.88,939.94,131.4Zm-2.22,9.32a6.28,6.28,0,0,0,2.47,2.4,16,16,0,0,0,5.11,1.6l-.25.7a16.72,16.72,0,0,1-5.29-1.74,6.88,6.88,0,0,1-2.51-2.49,5,5,0,0,1-1.8,2.14,15.75,15.75,0,0,1-5.83,2.2l-.25-.68a17,17,0,0,0,5.31-1.84,4.56,4.56,0,0,0,2-2.29h-6.79v-.63h6.91c.05-.44.09-1,.11-1.71l.72,0c0,.77-.09,1.33-.12,1.69h7.2v.63Z"/><path class="cls-1" d="M956,134.12a19.46,19.46,0,0,0,2.88,4.59,21,21,0,0,0,4.55,3.89l-.45.68a18.88,18.88,0,0,1-7.33-8.55v10.75h-.72V134.86a21.42,21.42,0,0,1-2.62,4.3,24.19,24.19,0,0,1-4.67,4.35l-.45-.66a24.06,24.06,0,0,0,4.59-4.2,19.76,19.76,0,0,0,2.85-4.53h-6.88v-.7h7.18V128.9h.72v4.52h7.26v.7Zm1.78-4.05.47-.43c1,.9,2,1.71,2.73,2.44l-.47.49C960,132.08,959.06,131.24,957.74,130.07Z"/><path class="cls-1" d="M967.62,141.64c.44.4.9.84,1.37,1.32s.81.9,1.31,1.51l-.47.39a20.87,20.87,0,0,0-2.62-2.82Z"/><path class="cls-1" d="M986.27,138.11v5.42a1.92,1.92,0,0,1-.34,1.23,1.69,1.69,0,0,1-1.19.41,12.16,12.16,0,0,1-1.23,0l-.1-.72a11.66,11.66,0,0,0,1.18.06,1.26,1.26,0,0,0,.8-.2,1.33,1.33,0,0,0,.19-.83v-5c-.61.25-1.38.55-2.32.9l-.2-.68c.52-.18,1.36-.49,2.52-.94v-4.41h-2.23v-.66h2.23V129h.69v3.66h1.78v.66h-1.78v4.12c.66-.28,1.24-.54,1.74-.77l.18.63Zm3.53,6.2v1.22h-.67v-8.77a13.61,13.61,0,0,0,3.2-.86l.27.61a15.79,15.79,0,0,1-2.8.78v2.79h2.59v.61H989.8v3h3.69v-9.52h-5v-.61h5v-2.65c-1.88.09-3.31.14-4.31.15l-.1-.65c3.51-.06,6.64-.23,9.37-.5l.13.63c-1.12.1-2.59.22-4.41.34v2.68h5.29v.61h-5.29v9.52h3.69v-3H995.2v-.61h2.66V137.2h-2.74v-.6h3.41v8.93h-.67v-1.22Z"/><path class="cls-1" d="M1001.62,130.23h15.3v.65h-15.3Zm13.81,14.13h-13V133.43h.69v10.28h12.33V133.43h.7v12.06h-.7Zm-2.29-3.06h-7.76V133h7.76Zm-4.19-4.43v-3.33h-2.9v3.33Zm0,3.82v-3.24h-2.9v3.24Zm3.53-3.82v-3.33h-2.88v3.33Zm0,3.82v-3.24h-2.88v3.24Z"/><path class="cls-1" d="M848,463.36h5.61v6.37h-4.3v3.87a2,2,0,0,1-.45,1.44,2.1,2.1,0,0,1-1.47.47c-.53,0-1.1,0-1.7,0l-.16-.68c.64,0,1.2,0,1.68,0a2,2,0,0,0,1.11-.3,1.45,1.45,0,0,0,.31-1.05v-3.76h-4.61v-6.37h3.24c.36-.76.71-1.6,1.06-2.52H841.8v5.27a27,27,0,0,1-.45,5.49,13.68,13.68,0,0,1-1.73,4.07l-.57-.45a12.29,12.29,0,0,0,1.62-3.83,26.51,26.51,0,0,0,.43-5.35v-5.81h14v.61h-5.94C848.79,461.73,848.42,462.57,848,463.36Zm-2.45,7.56.54.43a26.68,26.68,0,0,1-3.62,3.58l-.48-.5A20.1,20.1,0,0,0,845.58,470.92Zm7.38-4.65V464h-8.23v2.3Zm0,2.87v-2.31h-8.23v2.31Zm-1.62,2.28.49-.45q1.77,1.62,3.51,3.35l-.51.5C854,473.89,852.8,472.75,851.34,471.42Z"/><path class="cls-1" d="M857.62,460.44h15.3v.65h-15.3Zm13.81,14.13h-13V463.65h.69v10.27h12.33V463.65h.7v12.06h-.7Zm-2.29-3.06h-7.76v-8.35h7.76ZM865,467.08v-3.33h-2.9v3.33Zm0,3.82v-3.24h-2.9v3.24Zm3.53-3.82v-3.33H865.6v3.33Zm0,3.82v-3.24H865.6v3.24Z"/><path class="cls-1" d="M877.62,471.85c.44.4.9.84,1.37,1.32s.81.9,1.31,1.51l-.47.4a20.33,20.33,0,0,0-2.62-2.83Z"/><path class="cls-1" d="M899.92,472.74c-2.06.3-4.1.52-6.1.68l-.2-.59a3.08,3.08,0,0,0,.51-.51,43.87,43.87,0,0,0,2.44-6.14h-3.36v-.68h7.88v.68h-3.78a55.61,55.61,0,0,1-2.61,6.49c1.55-.11,3.21-.3,5-.56-.52-1.24-1-2.48-1.55-3.73l.61-.21q.86,1.93,2.14,5.12l-.63.29C900.12,473.2,900,472.92,899.92,472.74Zm-5.74-11.86h6.19v.64h-6.19Zm10.06,2.1h4.25q-.19,7.39-.31,10a2.35,2.35,0,0,1-.54,1.6,2.14,2.14,0,0,1-1.56.52,9.64,9.64,0,0,1-1.78-.07l-.13-.74a11.37,11.37,0,0,0,1.75.11,1.7,1.7,0,0,0,1.18-.36,1.88,1.88,0,0,0,.4-1.19q.18-4.74.25-9.17h-3.53c0,.17,0,.35,0,.52a26,26,0,0,1-.87,6.67,13.89,13.89,0,0,1-2.72,4.88l-.61-.43a12.84,12.84,0,0,0,2.67-4.68,25.79,25.79,0,0,0,.82-6.52,3.17,3.17,0,0,0,0-.44h-2.43V463h2.45v-.07c0-.89,0-2.15,0-3.78h.7c0,.49,0,1.76,0,3.8Z"/><path class="cls-1" d="M911.62,460.44h15.3v.65h-15.3Zm13.81,14.13h-13V463.65h.69v10.27h12.33V463.65h.7v12.06h-.7Zm-2.29-3.06h-7.76v-8.35h7.76ZM919,467.08v-3.33h-2.9v3.33Zm0,3.82v-3.24h-2.9v3.24Zm3.53-3.82v-3.33H919.6v3.33Zm0,3.82v-3.24H919.6v3.24Z"/><path class="cls-1" d="M931.62,471.85c.44.4.9.84,1.37,1.32s.81.9,1.31,1.51l-.47.4a20.33,20.33,0,0,0-2.62-2.83Z"/><path class="cls-1" d="M951.17,469.17v6.55h-.7v-6.26c-.89.38-1.94.79-3.14,1.21l-.21-.69c1.23-.42,2.35-.84,3.35-1.26v-4.57h-1.93c-.22,1-.45,1.91-.7,2.75l-.61-.21a25.73,25.73,0,0,0,1.15-5.74l.61.09c-.07.58-.19,1.41-.34,2.48h1.82V459.2h.7v4.32h2v.63h-2v4.27c.51-.21,1.16-.5,1.94-.89l.15.65C952.7,468.47,952,468.8,951.17,469.17Zm7.4-3.87h4.84V466H953.24v-.65h4.62v-2.91H954v-.65h3.87v-2.57h.71v2.57h3.92v.65h-3.92Zm2.21,4v4.05a2.21,2.21,0,0,1-.49,1.59,2.29,2.29,0,0,1-1.53.54c-.61,0-1.17,0-1.69-.07l-.11-.72a13.38,13.38,0,0,0,1.64.09,1.7,1.7,0,0,0,1.15-.38,1.63,1.63,0,0,0,.33-1.15v-3.95h-6.61v-.64h6.61v-1.93h.7v1.93h2.47v.64Zm-6.52,1.52.49-.47c.78.6,1.63,1.29,2.54,2.07l-.45.52C956,472.23,955.14,471.52,954.26,470.85Z"/><path class="cls-1" d="M970.19,470.74c.7.75,1.58,1.72,2.63,2.88l-.48.54c-.78-.89-1.63-1.83-2.54-2.83a17.3,17.3,0,0,1-4.25,4.13l-.41-.62a15.89,15.89,0,0,0,4.19-4l-2.5-2.64.48-.47q1.13,1.14,2.4,2.52a15.25,15.25,0,0,0,1.42-3.21l.63.29A14.81,14.81,0,0,1,970.19,470.74ZM968,463.81l.57.34a23.56,23.56,0,0,1-2.9,3.78l-.46-.45A25.18,25.18,0,0,0,968,463.81Zm2.1-1.78h3.46v.64h-8.14V462h4c-.32-1.1-.59-2-.81-2.72l.68-.14C969.61,460.14,969.88,461.09,970.12,462Zm7.4,9.12a16.11,16.11,0,0,0,3.94,3.8l-.43.65a17.73,17.73,0,0,1-3.92-3.85,19.54,19.54,0,0,1-4.23,4l-.49-.56a18.23,18.23,0,0,0,4.28-4.05,2.82,2.82,0,0,1-.19-.32,15,15,0,0,1-1.89-5.4c-.3.61-.61,1.16-.92,1.66l-.22-.27-.47.45c-.61-.77-1.45-1.79-2.53-3.06l.5-.38c.9,1,1.66,1.91,2.29,2.68a20.49,20.49,0,0,0,1.67-3.49,27.08,27.08,0,0,0,1.12-3.89l.68.14a32.32,32.32,0,0,1-.92,3.28h5.46v.67h-1.48a18.15,18.15,0,0,1-1.8,7.2Q977.69,470.9,977.52,471.15Zm-.43-.65.27-.45a16.37,16.37,0,0,0,1.73-6.85h-3.53q-.27.71-.51,1.2a15.67,15.67,0,0,0,2,6Z"/><path class="cls-1" d="M1466.85,296.39h5.33v.6h-16v-.6h5.28l-1.17-1.76.72-.23c.43.58.88,1.25,1.35,2H1466c.46-.6.91-1.26,1.37-2l.72.23C1467.62,295.3,1467.21,295.89,1466.85,296.39Zm-3.76,10.35a4.56,4.56,0,0,1-1.78,2.7,13,13,0,0,1-4.66,1.69l-.29-.63a13,13,0,0,0,4.43-1.52,3.88,3.88,0,0,0,1.56-2.24h-5.58v-.61h13.77q-.13,1.67-.21,2.52a2.11,2.11,0,0,1-.69,1.51,3.74,3.74,0,0,1-2,.43c-.77,0-1.56,0-2.39,0l-.09-.65c.5,0,1.3.05,2.39.07a2.9,2.9,0,0,0,1.53-.32,1.57,1.57,0,0,0,.49-1.08c.05-.52.1-1.12.16-1.82Zm.49-4h-5.11v2.08h-.69v-6.42h6.48v5a1.34,1.34,0,0,1-.39,1.06,2,2,0,0,1-1.28.36c-.34,0-.85,0-1.55,0l0-.59c.32,0,.81.05,1.45.07a1.64,1.64,0,0,0,.89-.19.85.85,0,0,0,.25-.62Zm0-2.49V299h-5.11v1.29Zm0,1.93V300.8h-5.11v1.39Zm3-3.44h.65v4h-.65Zm3.26-.59h.69v5a1.72,1.72,0,0,1-.45,1.3,2.13,2.13,0,0,1-1.44.41c-.52,0-1.07,0-1.64-.05l-.06-.61c.65.05,1.16.07,1.53.07a1.59,1.59,0,0,0,1.1-.31,1.17,1.17,0,0,0,.27-.86Z"/><path class="cls-1" d="M1478.32,303.27v3.06l2.34-.4,0,.63-2.39.45v4.09h-.65v-4q-2.45.35-3.54.45l-.11-.68c.87-.09,2.09-.24,3.65-.45v-3.17h-3v-.65c.54-1.31,1.11-2.9,1.69-4.77h-2.21v-.61h2.39c.26-.89.5-1.78.74-2.68l.63.18c-.23.84-.45,1.67-.68,2.5h3.35v.61H1477q-.82,2.63-1.67,4.79h2.3v-3.3h.65v3.3h2v.63Zm10.35,5.56v2.25H1488v-2.21c-2.68.14-5.34.27-8,.38l0-.63c.37,0,1-.05,1.75-.08v-7.36h-1.32v-.59h9.67v.59h-1.44v7c.34,0,.86-.05,1.58-.07l0,.61C1489.74,308.78,1489.21,308.81,1488.67,308.83Zm.16-9.86h-7.18v-3.48h7.18Zm-.66-.6v-2.3h-5.85v2.3Zm-.17,4.83v-2h-5.58v2Zm0,2.61v-2h-5.58v2Zm0,2.43v-1.86h-5.58v2.13C1483.83,308.44,1485.69,308.34,1488,308.24Z"/><path class="cls-1" d="M1494.52,307.25c.44.39.9.83,1.37,1.31s.81.9,1.31,1.51l-.47.4a20.33,20.33,0,0,0-2.62-2.83Z"/><path class="cls-1" d="M1518.59,295.24a19.8,19.8,0,0,0,7.83,5.85l-.38.7a21.36,21.36,0,0,1-7.83-6,20,20,0,0,1-3.4,3.42,27.82,27.82,0,0,1-4.47,2.84l-.38-.62a25.46,25.46,0,0,0,4.92-3.21,16.37,16.37,0,0,0,3.36-3.76l.72.22C1518.88,294.79,1518.75,295,1518.59,295.24ZM1523,309.8h-9.54v1.26h-.72v-7h11v7.05h-.7Zm0-.66v-4.43h-9.54v4.43Zm-9.09-8.55h8.66v.66h-8.66Z"/><path class="cls-1" d="M1539.54,306.74a1.71,1.71,0,0,1,.07.18,9.3,9.3,0,0,0,1,2.07c.52.75,1,1.11,1.49,1.08a1.09,1.09,0,0,0,.49-.19,1.83,1.83,0,0,0,.43-.76,17.4,17.4,0,0,0,.57-2.41l.65.23a19.49,19.49,0,0,1-.61,2.45c-.32,1-.83,1.46-1.51,1.46a2.25,2.25,0,0,1-1.73-1,7.05,7.05,0,0,1-1.24-2.12c0-.12-.1-.25-.16-.38a22.49,22.49,0,0,1-3.69,3.35l-.45-.54a21.63,21.63,0,0,0,3.87-3.55,17.19,17.19,0,0,1-.72-2.93,42.34,42.34,0,0,1-.6-5h-6.84v3.17h4.66q0,2.25-.12,4.5a2.68,2.68,0,0,1-.54,1.73,2.45,2.45,0,0,1-1.62.52,12.87,12.87,0,0,1-1.46-.07l-.07-.7a8.4,8.4,0,0,0,1.42.09,2.06,2.06,0,0,0,1.21-.35,2,2,0,0,0,.36-1.29c0-1.26.09-2.52.12-3.78h-4v.34a18.53,18.53,0,0,1-.43,4.41,14.34,14.34,0,0,1-1.64,3.71l-.63-.42a12,12,0,0,0,1.57-3.47,18.87,18.87,0,0,0,.41-4.27v-4.79h7.53c-.05-.77-.1-2-.15-3.56h.72l.15,3.48v.08h5.81v.67h-5.78a38,38,0,0,0,.51,4.54,24.05,24.05,0,0,0,.63,2.68,25.16,25.16,0,0,0,2.86-5.31l.63.27a26.21,26.21,0,0,1-3.06,5.6A1.44,1.44,0,0,1,1539.54,306.74Zm.07-11.32.43-.52c.58.44,1.4,1.13,2.47,2.07l-.42.52A27.44,27.44,0,0,0,1539.61,295.42Z"/><path class="cls-1" d="M1548.52,307.25c.44.39.9.83,1.37,1.31s.81.9,1.31,1.51l-.47.4a20.33,20.33,0,0,0-2.62-2.83Z"/><path class="cls-1" d="M1567.13,299v-2.7h-3v-.61h8.41v.61h-2.74V299h2.29V311h-.63v-1.37h-5.94V311h-.63V299Zm.6.59a10,10,0,0,1-.42,3,6.1,6.1,0,0,1-1.42,2.21l-.36-.28V306h5.94v-2h-1a1.14,1.14,0,0,1-.91-.31,1.36,1.36,0,0,1-.29-1v-3.06Zm-.6,0h-1.6v4.68a5.09,5.09,0,0,0,1.19-1.8A9.17,9.17,0,0,0,1567.13,299.63Zm-1.6,9.35h5.94V306.6h-5.94Zm2.2-9.94h1.51v-2.7h-1.51Zm3.74,4.41v-3.82h-1.66v2.95a1,1,0,0,0,.18.67.72.72,0,0,0,.58.2Zm7-1.8v-5.17h-4.81v-.65h5.49v6.47h-4.61v5.87a1.57,1.57,0,0,0,.31,1.11,2,2,0,0,0,1.19.42,14.59,14.59,0,0,0,1.62,0,2.5,2.5,0,0,0,1.28-.42,2.3,2.3,0,0,0,.48-1.17c.09-.67.15-1.29.2-1.87l.65.16a14.41,14.41,0,0,1-.24,2,2.23,2.23,0,0,1-.68,1.46,3.13,3.13,0,0,1-1.67.54,12.78,12.78,0,0,1-1.75,0,2.53,2.53,0,0,1-1.58-.54,2.05,2.05,0,0,1-.49-1.53v-6.64Z"/><path class="cls-1" d="M1586.27,304.85l.63.38a27.1,27.1,0,0,1-4.22,4.72l-.55-.49A26.89,26.89,0,0,0,1586.27,304.85Zm4.66-1.73v5.6a2.12,2.12,0,0,1-.49,1.61,2.62,2.62,0,0,1-1.65.5,17.09,17.09,0,0,1-1.91-.09l-.16-.76a16.28,16.28,0,0,0,1.9.11,2.09,2.09,0,0,0,1.25-.3,1.69,1.69,0,0,0,.32-1.17v-5.5h-6.73v-.64c.41-2.79.72-4.87.93-6.27a96.62,96.62,0,0,0,11.85-.81l.27.71a111.63,111.63,0,0,1-11.47.79c-.33,2.3-.6,4.15-.79,5.54h5.94v-4.19h.74v4.19h6.37v.68Zm2.61,2.18.56-.39q2.31,2.41,4.1,4.39l-.59.47Q1595.81,307.69,1593.54,305.3Z"/><path class="cls-2" d="M872.42,53.63a8.39,8.39,0,0,0,3,2.32,23.29,23.29,0,0,0,7.4,1.68l-1.1,2.5a23.49,23.49,0,0,1-7.75-2.26,10.35,10.35,0,0,1-3.13-2.74,7.68,7.68,0,0,1-2.53,2.47,22.9,22.9,0,0,1-8.4,2.77L858.78,58a22.71,22.71,0,0,0,7.63-2,5.93,5.93,0,0,0,2.32-2.32h-9V51.57h9.51c.1-.72.16-1.32.18-1.81l2.63.08c-.05.61-.1,1.19-.15,1.73h9.87v2.06Zm3.68-14.77h5.45v2.08h-9.5V43h8.06v2h-8.06V47.1H882.5v2H859v-2h10.45V45h-8V43h8V40.94H860V38.86h5.29c-.58-1.06-1-1.88-1.37-2.48l2.5-.71c.51.95,1,2,1.63,3.19h5.22c.59-1.07,1.18-2.15,1.76-3.24l2.53.68C876.66,37.88,876.17,38.73,876.1,38.86Z"/><path class="cls-2" d="M899.35,44.33a23.87,23.87,0,0,0,3.53,5.38,24.92,24.92,0,0,0,6.37,5l-1.6,2.55a27.73,27.73,0,0,1-6.51-5.92,30.42,30.42,0,0,1-2.79-4.63V60.24h-2.58V47a28.31,28.31,0,0,1-2.71,4.5,29.31,29.31,0,0,1-6.53,6.14l-1.61-2.4a27.25,27.25,0,0,0,6.4-5.42,26.33,26.33,0,0,0,3.53-5.51H886V41.91h9.79V35.83h2.58v6.08h9.9v2.42Zm.95-6.53,1.76-1.37A37.3,37.3,0,0,1,905.94,40l-1.72,1.64C903.28,40.59,902,39.33,900.3,37.8Z"/><path class="cls-2" d="M920.47,51.47v8.77h-2.34V51.47h-2.87v7H913V49.36h5.14V46.7h-6.64V44.57h6.64v-3H915c-.34.79-.7,1.57-1.08,2.36l-2.11-.81a22.22,22.22,0,0,0,2.34-6.43l2.19.45c-.28,1-.5,1.79-.66,2.32h2.48V35.91h2.34v3.58h4.87V41.6h-4.87v3h5.71V46.7h-5.71v2.66h5.08V55.6a2.75,2.75,0,0,1-.55,1.87,3.1,3.1,0,0,1-1.71.79,13.59,13.59,0,0,1-1.79.06l-.45-2.11c.3,0,.74,0,1.32,0a1,1,0,0,0,.73-.24,1.22,1.22,0,0,0,.21-.79V51.47Zm7-12.88h2.18V54h-2.18Zm4.39-2.66h2.35V56.21A4.36,4.36,0,0,1,933.5,59a3.64,3.64,0,0,1-2.45.94,19.6,19.6,0,0,1-2.92,0l-.5-2.45c1.34.07,2.2.11,2.61.11a2,2,0,0,0,1.26-.42,2.07,2.07,0,0,0,.34-1.32Z"/><path class="cls-2" d="M943.72,41.62V60.16h-2.5V46.33a40.59,40.59,0,0,1-2.58,3.77l-1.24-2.63a36.78,36.78,0,0,0,5.77-11.72l2.47.84A49.37,49.37,0,0,1,943.72,41.62Zm7.53-1.79h10.61v2.32h-8.32v4h6.85v2.32h-6.85v4h7.58v2.34h-7.58v5.37H951v-18h-.79a31.3,31.3,0,0,1-3.72,5.92l-1.87-1.76A31,31,0,0,0,950,35.75l2.52.63Q951.91,38.22,951.25,39.83Z"/><path d="M862.4,386.77q-5.19.81-9.72,1.23l-.66-2.07a4.09,4.09,0,0,0,1.35-1.65,53.53,53.53,0,0,0,3.18-8.16h-4.89V373.9H865v2.22h-6a84.14,84.14,0,0,1-3.75,9.33q3.69-.36,6.33-.78-1-2.46-2.22-5.37l2-.6q1.62,3.6,3.51,8.28l-2.07,1Q862.55,387.19,862.4,386.77Zm-9.15-20.43h10.53v2.16H853.25Zm17.55,3.51h6.93q-.18,8.37-.39,16.71a4.83,4.83,0,0,1-1,3.12,4.28,4.28,0,0,1-2.82,1.11,20.1,20.1,0,0,1-3.3-.09l-.45-2.52a25.42,25.42,0,0,0,3,.18,2.25,2.25,0,0,0,1.65-.54,3,3,0,0,0,.57-1.83q.3-5.34.39-13.95h-4.59q0,.45,0,.87a43.89,43.89,0,0,1-1.35,10.53,21.07,21.07,0,0,1-4.65,8.25l-2.16-1.38a17.81,17.81,0,0,0,4.56-7.56,40.27,40.27,0,0,0,1.26-10q0-.36,0-.72h-3.3v-2.19h3.36v-.09q0-3.09.09-5.82h2.34q-.06,2-.09,5.82Z"/><path d="M882.32,365.65h25.89v2.19H882.32ZM904.79,390H883.43V371.29h2.28v16.53h19.08V371.29h2.31v20.28h-2.31Zm-2.88-5.16H888.59V370.48h13.32Zm-7.68-8.1v-4.38h-3.48v4.38Zm0,6.12v-4.26h-3.48v4.26Zm5.55-6.12v-4.38h-3.51v4.38Zm0,6.12v-4.26h-3.51v4.26Z"/><path d="M921.77,381.37v10.2h-2.28v-10.2h-3.63v8.13h-2.22V379.33h5.85v-3.27h-7.71v-2h7.71V370.3h-3.9q-.66,1.53-1.35,2.82l-2-.81A24,24,0,0,0,915,365l2.13.48q-.36,1.44-.81,2.79h3.15V364h2.28v4.26h5.7v2h-5.7V374h6.69v2h-6.69v3.27h5.82v7a3,3,0,0,1-.6,2,3.44,3.44,0,0,1-1.92.87,14.89,14.89,0,0,1-2,.06l-.45-2.07q.57.06,1.62.06a1.47,1.47,0,0,0,.9-.3,1.4,1.4,0,0,0,.27-1v-4.59Zm8.28-14.25h2.13V384.4h-2.13Zm5-3.06h2.28v23.07a4.65,4.65,0,0,1-.78,3,4,4,0,0,1-2.7,1,21.88,21.88,0,0,1-3.18-.06l-.51-2.4q2.28.12,2.94.12a2.34,2.34,0,0,0,1.53-.48,2.4,2.4,0,0,0,.42-1.59Z"/><path d="M948.11,370.45v21h-2.4V375.1a40.72,40.72,0,0,1-3.12,4.65l-1.29-2.4a43,43,0,0,0,6.66-13.5l2.37.78A47.84,47.84,0,0,1,948.11,370.45Zm8.4-1.86H968.9v2.22h-9.63v4.92h8V378h-8v4.95H968v2.25h-8.76v6.36h-2.46v-20.7h-1.29a35.94,35.94,0,0,1-4.23,6.72l-1.89-1.59a34.79,34.79,0,0,0,6.24-12.12l2.43.63Q957.29,366.76,956.51,368.59Z"/><path d="M1412.32,207.82h21V210h-21v1.08a35.31,35.31,0,0,1-.87,8.67,27,27,0,0,1-3.21,7l-2.07-1.62a21.51,21.51,0,0,0,2.91-6,31.73,31.73,0,0,0,.84-7.95v-9.42a161.27,161.27,0,0,0,20.43-1.44l1.2,2.25q-9.27,1.17-19.23,1.44ZM1428.4,225H1417v1.92h-2.4V214.21h16.17V226.9h-2.4Zm0-2.22V216.4H1417v6.36Z"/><path d="M1448.92,217.69h2.31v2h-14.91v-2h2.88v-13H1437v-2h2.25v-3.21h2.22v3.21h5.28v-3.18h2.22v3.18H1451v2h-2.07Zm-7.71,2.55,1.86,1.23a32.71,32.71,0,0,1-4.74,5.16l-1.77-1.5A31.48,31.48,0,0,0,1441.21,220.24Zm5.49-12.51v-3h-5.28v3Zm0,4.92v-3h-5.28v3Zm0,5v-3.12h-5.28v3.12Zm-1.92,3.84,1.59-1.29a45.33,45.33,0,0,1,3.54,3.51l-1.56,1.59Q1447.15,223.9,1444.78,221.53ZM1460,217.3h-5.4a22.47,22.47,0,0,1-1.11,5.43,18.61,18.61,0,0,1-2.4,4.32l-2-1.41a15.26,15.26,0,0,0,2.76-5.28,34.69,34.69,0,0,0,.69-8V200.62h9.75V223a3.78,3.78,0,0,1-.75,2.49,3.34,3.34,0,0,1-2.28,1,23.54,23.54,0,0,1-2.91,0l-.48-2.31a23.7,23.7,0,0,0,2.49.09,1.49,1.49,0,0,0,1.68-1.71Zm0-2.16v-5h-5.22v2.37q0,1.35,0,2.67Zm0-7.14v-5.22h-5.22V208Z"/><path d="M1475.83,219.19a12.3,12.3,0,0,0,7.62,3.78,61.32,61.32,0,0,0,10.35.48l-.6,2.52a75.32,75.32,0,0,1-9.81-.54,15.77,15.77,0,0,1-5-1.44,13.1,13.1,0,0,1-3.9-2.91l0,0a32.21,32.21,0,0,1-6.6,5.94l-1.62-2a28,28,0,0,0,6.66-5.94,23.84,23.84,0,0,1-3.06-7.35q-1.14,2.16-2.43,4.14l-1.38-2.16a44.43,44.43,0,0,0,5.67-14.22l2.43.42q-.54,2.43-1.26,4.68h6.93v2.19a28.36,28.36,0,0,1-3.33,11.37Q1476.16,218.68,1475.83,219.19Zm-1.56-2.07a.7.7,0,0,0,.12-.18,25,25,0,0,0,3-10.14h-5.34q-.42,1-.75,1.83a31.79,31.79,0,0,0,1.59,5.67A18.58,18.58,0,0,0,1474.27,217.12Zm9-17.7h2.49v22.44h-2.49Zm2.76,8.76,1.86-1.26a77.39,77.39,0,0,1,5.49,6.18l-1.83,1.68A81.41,81.41,0,0,0,1486,208.18Z"/><path d="M1502.29,220.6q1.8-.51,3.33-.87l.27,2.19q-5.1,1.5-9.15,2.37l-.63-2.34,3.93-.84v-8H1497V211H1500v-7.23h-3.48v-2.19h9v2.19h-3.3V211h3v2.1h-3Zm11.13-6h-6.36V200.8h14.88v13.83h-6.24v3.3h6.6v2h-6.6v3.75h8v2.07h-18.54v-2.07h8.31V220h-6.72v-2h6.72Zm0-7.92v-3.87h-4.11v3.87Zm0,5.85v-3.9h-4.11v3.9Zm6.24-5.85v-3.87h-4v3.87Zm0,5.85v-3.9h-4v3.9Z"/><path d="M1540.33,224.65a9.74,9.74,0,0,1-3.84-.75,6.31,6.31,0,0,1-2.7-2.16,5.73,5.73,0,0,1-1-3.33,5.56,5.56,0,0,1,1.32-3.81,9.82,9.82,0,0,1,3.6-2.52,15,15,0,0,1-2-2.64,5.11,5.11,0,0,1-.6-2.52,4.66,4.66,0,0,1,.78-2.7,5.3,5.3,0,0,1,2.19-1.89,6.4,6.4,0,0,1,3.06-.69,7.15,7.15,0,0,1,3.06.63,5.12,5.12,0,0,1,2.1,1.8,4.93,4.93,0,0,1,.75,2.61,5,5,0,0,1-1.29,3.39,12.37,12.37,0,0,1-3.81,2.7l5.25,5.46a14.89,14.89,0,0,0,2.07-4.32l2.4.66a16.92,16.92,0,0,1-2.7,5.52l3.9,4.08h-3.75l-2-2.13A11.06,11.06,0,0,1,1544,224,10.07,10.07,0,0,1,1540.33,224.65Zm-4.74-6.45a3.56,3.56,0,0,0,1.41,2.94,5.9,5.9,0,0,0,3.66,1.11,7.15,7.15,0,0,0,4.77-2l-6.06-6.42a7.61,7.61,0,0,0-2.88,1.86A3.82,3.82,0,0,0,1535.59,218.2Zm2.31-11.31a3.43,3.43,0,0,0,.57,1.92,16.79,16.79,0,0,0,1.83,2.19,11.8,11.8,0,0,0,3.15-1.92,3.17,3.17,0,0,0,.87-2.25,2.5,2.5,0,0,0-.9-2.07,3.49,3.49,0,0,0-2.25-.72,3.61,3.61,0,0,0-2.34.75A2.49,2.49,0,0,0,1537.9,206.89Z"/><path d="M1568.74,220.54V227h-2.13v-6l-4.8.75-.39-2.25q2.28-.27,5.19-.72v-4.38h-4.5v-2.07q1-2.58,2.19-6.84h-2.67v-2.07h3.21q.75-3.15,1-4.08l2.07.27q-.54,2.4-.93,3.81h4.29v2.07h-4.86q-1.08,3.69-2.16,6.84h2.4v-4.59h2.13v4.59h2.1v2.07h-2.1v4l2.31-.39.18,2.07ZM1584,206.59v1.68h-8.52v-1.59a29.38,29.38,0,0,1-3.87,2.73l-1.32-1.89a25.72,25.72,0,0,0,5.31-3.84,20.6,20.6,0,0,0,3.48-4.59l2.22.48q-.24.45-.51.87a21.8,21.8,0,0,0,8.37,6.57l-1.2,2A30.59,30.59,0,0,1,1584,206.59ZM1577.47,221H1574v5.88h-2V210.43h7.38V224a3,3,0,0,1-.6,2,2.83,2.83,0,0,1-1.86.72,10,10,0,0,1-1.77,0l-.39-2.07,1.53.15a1.65,1.65,0,0,0,.9-.3,1.72,1.72,0,0,0,.24-1.05Zm0-6.12v-2.67H1574v2.67Zm0,4.38v-2.67H1574v2.67Zm6.24-12.9q-.24-.18-.48-.39a19.41,19.41,0,0,1-3.57-3.87,23.13,23.13,0,0,1-3.84,4.26Zm-2.28,5.16h1.71v10.23h-1.71Zm3.87-1.32h2v13.14a2.74,2.74,0,0,1-3,3.3,17,17,0,0,1-2.22,0l-.48-2.16q1.32.12,2.19.12a1.66,1.66,0,0,0,1.2-.36,2.06,2.06,0,0,0,.33-1.32Z"/><path d="M1614.28,225.46h-20.64V215.35h2.49v7.77h7.77V212.41h-9.33v-10.2h2.49v7.86h6.84V199.42h2.55v10.65h6.9v-7.86h2.49v10.2h-9.39v10.71h7.83v-7.74h2.49v11.37h-2.49Z"/><g class="cls-3"><path class="cls-1" d="M1679.31,256.61h-1.48v-1h1.48Zm-9.48,0h-8v-1h8Zm-16,0h-8v-1h8Zm-16,0h-8v-1h8Zm-16,0h-8v-1h8Zm-16,0h-8v-1h8Zm-16,0h-8v-1h8Zm-16,0h-8v-1h8Zm-16,0h-8v-1h8Zm-16,0h-8v-1h8Zm-16,0h-8v-1h8Zm-16,0h-8v-1h8Zm-16,0h-8v-1h8Zm-16,0h-8v-1h8Zm-16,0h-8v-1h8Zm-16,0h-8v-1h8Zm-16,0h-8v-1h8Zm-16,0h-8v-1h8Zm-16,0h-8v-1h8Zm-16,0h-8v-1h8Zm-16,0h-8v-1h8Zm-16,0h-8v-1h8Zm-16,0h-8v-1h8Zm-16,0h-8v-1h8Zm-16,0h-8v-1h8Zm-16,0h-8v-1h8Zm-786.11,0H496v-1h3.72a23.26,23.26,0,0,0,4.17-.37l.17,1A25.1,25.1,0,0,1,499.72,256.61Zm-11.72,0h-8v-1h8Zm-16,0h-8v-1h8Zm-16,0h-8v-1h8Zm-16,0h-8v-1h8Zm-16,0h-8v-1h8Zm-16,0h-8v-1h8Zm-16,0h-8v-1h8Zm-16,0h-8v-1h8Zm-16,0h-8v-1h8Zm-16,0h-8v-1h8Zm-16,0h-8v-1h8Zm-16,0h-8v-1h8Zm-16,0h-8v-1h8Zm-16,0h-8v-1h8Zm-16,0h-8v-1h8Zm-16,0h-8v-1h8Zm-16,0h-8v-1h8Zm-16,0h-8v-1h8Zm-16,0h-8v-1h8Zm-16,0h-8v-1h8Zm-16,0h-8v-1h8Zm-16,0h-8v-1h8Zm-16,0h-8v-1h8Zm-16,0h-8v-1h8Zm-16,0H96v-1h8Zm-16,0H80v-1h8Zm-16,0H64v-1h8Zm-16,0H48v-1h8Zm-16,0H32v-1h8Zm-16,0H16v-1h8Zm-16,0H0v-1H8Zm1261.77-.48a24.42,24.42,0,0,1-7.59-2.91l.51-.86a23.07,23.07,0,0,0,7.27,2.79Zm-758.06-2.65-.49-.88a23.27,23.27,0,0,0,6.06-4.9l.75.66A24.39,24.39,0,0,1,511.71,253.48ZM1256,248a24.61,24.61,0,0,1-4.16-7l.93-.37a23.47,23.47,0,0,0,4,6.7Zm-733.64-6.51-.92-.38a23.54,23.54,0,0,0,1.72-7.6l1,.06A24.48,24.48,0,0,1,522.33,241.47ZM1250.19,233c0-.28,0-.57,0-.86V225h1v7.16c0,.28,0,.55,0,.83Zm-726-7.51h-1v-8h1Zm727-8.51h-1v-8h1Zm-727-7.49h-1v-8h1Zm727-8.51h-1v-8h1Zm-727-7.49h-1v-8h1Zm727-8.51h-1v-8h1Zm-727-7.49h-1v-8h1Zm727-8.51h-1v-8h1Zm-727-7.49h-1v-8h1Zm727-8.51h-1v-8h1Zm-727-7.49h-1v-8h1Zm727-8.51h-1v-8h1Zm-727-7.49h-1v-8h1Zm727-8.51h-1v-6.56c0-.47,0-.94,0-1.41l1-.05c0,.48,0,1,0,1.46Zm-727-7.47-1,0a24.59,24.59,0,0,1,1.66-8l.93.37A23.36,23.36,0,0,0,524.18,113.54Zm724.2-8.09a23.19,23.19,0,0,0-4.15-6.6l.75-.66a24.19,24.19,0,0,1,4.32,6.88Zm-718.6-6.23-.76-.65a24.77,24.77,0,0,1,6.23-5.22l.51.87A23.53,23.53,0,0,0,529.78,99.22ZM1238.15,94a23.17,23.17,0,0,0-7.34-2.61l.17-1a24.11,24.11,0,0,1,7.66,2.72ZM543,91.45l-.19-1a24.46,24.46,0,0,1,4.76-.46h3.31v1h-3.31A24.08,24.08,0,0,0,543,91.45ZM1222.92,91h-8V90h8Zm-16,0h-8V90h8Zm-16,0h-8V90h8Zm-16,0h-8V90h8Zm-16,0h-8V90h8Zm-16,0h-8V90h8Zm-16,0h-8V90h8Zm-16,0h-8V90h8Zm-16,0h-8V90h8Zm-16,0h-8V90h8Zm-16,0h-8V90h8Zm-16,0h-8V90h8Zm-16,0h-8V90h8Zm-16,0h-8V90h8Zm-16,0h-8V90h8Zm-16,0h-8V90h8Zm-16,0h-8V90h8Zm-16,0h-8V90h8Zm-16,0h-8V90h8Zm-16,0h-8V90h8Zm-16,0h-8V90h8Zm-16,0h-8V90h8Zm-16,0h-8V90h8Zm-16,0h-8V90h8Zm-16,0h-8V90h8Zm-16,0h-8V90h8Zm-16,0h-8V90h8Zm-16,0h-8V90h8Zm-16,0h-8V90h8Zm-16,0h-8V90h8Zm-16,0h-8V90h8Zm-16,0h-8V90h8Zm-16,0h-8V90h8Zm-16,0h-8V90h8Zm-16,0h-8V90h8Zm-16,0h-8V90h8Zm-16,0h-8V90h8Zm-16,0h-8V90h8Zm-16,0h-8V90h8Zm-16,0h-8V90h8Zm-16,0h-8V90h8Zm-16,0h-8V90h8Z"/></g><g class="cls-3"><path class="cls-1" d="M1232.52,422.22h-7.39v-1h8l0,1Zm-15.39,0h-8v-1h8Zm-16,0h-8v-1h8Zm-16,0h-8v-1h8Zm-16,0h-8v-1h8Zm-16,0h-8v-1h8Zm-16,0h-8v-1h8Zm-16,0h-8v-1h8Zm-16,0h-8v-1h8Zm-16,0h-8v-1h8Zm-16,0h-8v-1h8Zm-16,0h-8v-1h8Zm-16,0h-8v-1h8Zm-16,0h-8v-1h8Zm-16,0h-8v-1h8Zm-16,0h-8v-1h8Zm-16,0h-8v-1h8Zm-16,0h-8v-1h8Zm-16,0h-8v-1h8Zm-16,0h-8v-1h8Zm-16,0h-8v-1h8Zm-16,0h-8v-1h8Zm-16,0h-8v-1h8Zm-16,0h-8v-1h8Zm-16,0h-8v-1h8Zm-16,0h-8v-1h8Zm-16,0h-8v-1h8Zm-16,0h-8v-1h8Zm-16,0h-8v-1h8Zm-16,0h-8v-1h8Zm-16,0h-8v-1h8Zm-16,0h-8v-1h8Zm-16,0h-8v-1h8Zm-16,0h-8v-1h8Zm-16,0h-8v-1h8Zm-16,0h-8v-1h8Zm-16,0h-8v-1h8Zm-16,0h-8v-1h8Zm-16,0h-8v-1h8Zm-16,0h-8v-1h8Zm-16,0h-8v-1h8Zm-16,0h-8v-1h8Zm-16,0h-8v-1h8Zm-16,0h-3.31a18.94,18.94,0,0,1-4.76-.61l.25-1a17.94,17.94,0,0,0,4.51.58h3.31ZM1241,420.16l-.46-.89a17.79,17.79,0,0,0,5.93-4.94l.79.61A18.78,18.78,0,0,1,1241,420.16Zm-711.22-2.31a18.94,18.94,0,0,1-5-6.48l.91-.41a17.66,17.66,0,0,0,4.69,6.12Zm720.92-10.3-1-.21a18.3,18.3,0,0,0,.4-3.78v-4.09h1v4.09A18.33,18.33,0,0,1,1250.74,407.55Zm-726.57-4.14h-1v-8h1Zm727-11.94h-1v-8h1Zm-727-4.06h-1v-8h1Zm727-11.94h-1v-8h1Zm-727-4.06h-1v-8h1Zm727-11.94h-1v-8h1Zm-727-4.06h-1v-8h1Zm727-11.94h-1v-8h1Zm-727-4.06h-1v-8h1Zm727-11.94h-1v-8h1Zm-727-4.06h-1v-8h1Zm727-11.94h-1v-8h1Zm-727-4.06h-1v-8h1Zm727-11.94h-1v-8h1Zm-727-4.06h-1v-8h1Zm727-11.94h-1v-8h1Zm-727-4.06h-1v-8h1Zm727-11.94h-1v-8h1Zm-727-4.06h-1v-8h1Zm727-11.94h-1v-8h1Zm-727-4.06h-1v-8h1Zm727-11.94h-1v-8h1Zm-727-4.06h-1v-8h1Zm727-11.94h-1v-8h1Zm-727-4.06h-1v-8h1Z"/></g><circle class="cls-1" cx="227.88" cy="256.11" r="8.37"/><circle class="cls-1" cx="910.25" cy="90.51" r="4.77"/><circle class="cls-1" cx="910.25" cy="420.72" r="8.37"/><circle class="cls-1" cx="1512.58" cy="256.11" r="8.37"/><polygon class="cls-1" points="910.25 84.82 918.25 70.97 902.26 70.97 910.25 84.82"/><path d="M852.31,12.35c.1.26.18.46.24.59a6.3,6.3,0,0,0,.82,1.43,1.18,1.18,0,0,0,.87.46.67.67,0,0,0,.47-.21,1.59,1.59,0,0,0,.36-.69c.16-.67.31-1.38.43-2.14l1.47.74a17.72,17.72,0,0,1-.64,2.63,2.12,2.12,0,0,1-2,1.56,2.76,2.76,0,0,1-1.65-.54,4.52,4.52,0,0,1-1.37-1.71c-.19-.41-.34-.72-.43-1a24.31,24.31,0,0,1-3.42,2.12l-1.08-1.45a22.46,22.46,0,0,0,4-2.34,24.14,24.14,0,0,1-.72-4.31c0-.15-.05-.43-.08-.83h-3.76V9.38l2.72-.59.16,1.56-2.88.69v3.29a2.38,2.38,0,0,1-.48,1.62,2,2,0,0,1-1.48.59,17.87,17.87,0,0,1-2.07,0l-.38-1.73a13.5,13.5,0,0,0,1.66.09,1.09,1.09,0,0,0,.75-.23,1.19,1.19,0,0,0,.24-.81V11.39l-3.17.56-.4-1.67L844,9.7v-3h-3.46V5.13H844V3c-.52.06-1.4.15-2.65.25l-.27-1.54a47,47,0,0,0,6.79-.89l.36,1.51c-.71.15-1.53.29-2.47.44V5.13h3.66c-.1-1.5-.15-3.17-.15-5H851c0,1.62,0,3.28.12,5h5.65V6.71h-5.54a2.82,2.82,0,0,0,0,.42,22.38,22.38,0,0,0,.5,3.45,16.34,16.34,0,0,0,2.66-3.2l1.37,1.06A23.65,23.65,0,0,1,852.31,12.35ZM851.9,1.71l1.22-.95c.79.68,1.7,1.55,2.72,2.61l-1.22,1.11C853.64,3.4,852.74,2.48,851.9,1.71Z"/><path d="M866,2.34h8.84v1.6h-9.56A21.67,21.67,0,0,1,863,7.6v9.19h-1.73V9.58c-.53.54-1.22,1.18-2.09,1.92l-.93-1.58a23.22,23.22,0,0,0,2.91-2.86,21.34,21.34,0,0,0,2.15-3.12H859.1V2.34h4.95q.41-1,.81-2.34l1.85.31C866.44,1.15,866.19,1.82,866,2.34Zm4,11.9h4.88V15.8H863.56V14.24h4.61V9.78h-4V8.21h4V5h1.76V8.21H874V9.78h-4.09Z"/><path d="M880.27,11.48l2-.57.25,1.6a44.49,44.49,0,0,1-5.8,1.77l-.47-1.81c.76-.15,1.55-.33,2.38-.53V3.24h-2V1.64h5.59v1.6h-1.9Zm7.81.38c2.11,1.42,3.76,2.58,4.95,3.5l-1,1.38q-2-1.62-4.54-3.45a6.44,6.44,0,0,1-1.83,2,14.53,14.53,0,0,1-3.28,1.6l-.92-1.5a10.22,10.22,0,0,0,4.14-2.21,5,5,0,0,0,1.1-3.33c0-.62,0-1.56.07-2.81h1.6c0,1.22,0,2.16,0,2.81A11,11,0,0,1,888.08,11.86Zm.25-9.39c-.12.44-.29,1.12-.5,2H892v8.12h-1.64V6H884.8v6.73h-1.64V4.5h2.92c.13-.49.3-1.17.5-2h-3.87V1h10.07v1.5Z"/><path d="M907.18,15.45h-9v1.31h-1.82V1.1H909V16.76h-1.81Zm0-10.1V2.7h-9V5.35Zm0,4.23V6.88h-9v2.7Zm0,4.28V11.11h-9v2.75Z"/><path d="M926.06,11h-4.48v5.85h-1.86V11h-4.48v1.15h-1.8V3.44h6.28V.11h1.86V3.44h6.3v8.71h-1.82Zm-6.34-1.68V5.11h-4.48V9.34Zm6.34,0V5.11h-4.48V9.34Z"/><path d="M937.87,3V16.4h-1.7V15.07H933V16.6H931.3V3h1.9q.54-1.5.9-2.85l1.79.35c-.17.5-.47,1.33-.89,2.5ZM933,8.23h3.2V4.57H933Zm0,5.25h3.2V9.81H933Zm4.9-7.09a24.06,24.06,0,0,0,2.77-6.3l1.67.43c-.25.83-.53,1.65-.84,2.45h4.84c-.07,3.46-.15,6.91-.24,10.37a3.7,3.7,0,0,1-.72,2.36,3,3,0,0,1-2.19.81c-.82,0-1.63,0-2.43,0l-.34-1.78c.81,0,1.56.08,2.23.1a1.76,1.76,0,0,0,1.31-.41,2,2,0,0,0,.43-1.4l.18-8.43h-3.76a22.17,22.17,0,0,1-1.4,2.63Zm1.27,1.66,1.35-.8c.69.92,1.53,2.07,2.54,3.46l-1.42,1C940.78,10.39,940,9.16,939.14,8.05Z"/><path d="M952.37,4.23v12.6h-1.69V7.42A28.83,28.83,0,0,1,949,9.83l-.77-1.91A24.93,24.93,0,0,0,952.07.09l1.69.6A33.11,33.11,0,0,1,952.37,4.23Zm8.39,10.19h4.16V16H953.24V14.42H959c1-2.9,1.82-5.73,2.5-8.48l1.82.51Q962,10.83,960.76,14.42Zm-.45-11h4.12V5H953.76V3.38h4.66a31.08,31.08,0,0,0-1.1-2.91l1.84-.34C959.41.81,959.8,1.9,960.31,3.38Zm-5.67,3.16,1.68-.38q.82,2.61,1.9,6.58l-1.74.53C955.88,10.69,955.27,8.44,954.64,6.54Z"/><path d="M981.57,4.43h-6l0,.9h6.85V6.54h-6.93l0,.9h5.08V15h2.48V16.2H966.41V15h2.43V7.44h4.79l.07-.9H967V5.33h6.77l0-.9h-6V.85h13.79ZM971.87,2h-2.41V3.28h2.41Zm6.84,7.41V8.57h-8.12v.86Zm0,1.86v-.87h-8.12v.87Zm0,1.83v-.86h-8.12v.86Zm0,1.86v-.87h-8.12V15ZM975.88,2h-2.45V3.28h2.45Zm4,1.26V2h-2.44V3.28Z"/><path d="M839.66,17v-.9h144V17Z"/></g></g></svg>