<svg xmlns="http://www.w3.org/2000/svg" viewBox="0 0 205.75 78.9"><defs><style>.cls-1{fill:#5187f1;}.cls-2{fill:#b7b7b7;}.cls-3{fill:#353535;}</style></defs><g id="图层_2" data-name="图层 2"><g id="图层_1-2" data-name="图层 1"><rect class="cls-1" y="72.34" width="205.75" height="6.56"/><path class="cls-2" d="M1.91.26h9.88V1.94H3.87V7.21H11V8.9H3.87v7h-2Z"/><path class="cls-2" d="M18.66.26l6.46,15.61H23l-1.79-4.48H14.5l-1.7,4.48h-2L17,.26Zm1.82,9.43-2.73-6.9-2.59,6.9Z"/><path class="cls-2" d="M28.29.26l9,12.22V.26h1.84V15.87H37.44L28.49,3.63V15.87H26.64V.26Z"/><path class="cls-2" d="M49.72,15.87h-2V.26h2Z"/><path class="cls-2" d="M53,.26h2V14.17H62.9v1.7H53Z"/><path class="cls-2" d="M64.9.26h2V14.17H74.8v1.7H64.9Z"/><path class="cls-2" d="M86.28.26h2v9.3a7.64,7.64,0,0,1-.75,3.49,5.27,5.27,0,0,1-2.16,2.27,6.84,6.84,0,0,1-3.38.79,6,6,0,0,1-4.61-1.75,6.69,6.69,0,0,1-1.66-4.8V.26h2v9a5.73,5.73,0,0,0,1.1,3.79,4.6,4.6,0,0,0,6.43,0,5.73,5.73,0,0,0,1.11-3.79Z"/><path class="cls-2" d="M100.85,13.92A4.24,4.24,0,0,1,99,15.53a6.78,6.78,0,0,1-2.93.58A7.31,7.31,0,0,1,92,15a5,5,0,0,1-2.21-2.84l1.59-.89a4.79,4.79,0,0,0,1.76,2.26,5,5,0,0,0,2.9.79,4,4,0,0,0,2.47-.68,2.3,2.3,0,0,0,.88-1.9,2.29,2.29,0,0,0-.55-1.59,3.79,3.79,0,0,0-1.36-.95,19,19,0,0,0-2.21-.75,23.45,23.45,0,0,1-2.52-.85,4.18,4.18,0,0,1-1.61-1.22,3.27,3.27,0,0,1-.66-2.13A3.84,3.84,0,0,1,91.21,2a4.36,4.36,0,0,1,2-1.47A7.44,7.44,0,0,1,95.94,0a6,6,0,0,1,3.49.92,4.45,4.45,0,0,1,1.79,2.32l-1.58.9a4.24,4.24,0,0,0-1.4-1.77,3.94,3.94,0,0,0-2.37-.64,4,4,0,0,0-2.39.65,2,2,0,0,0-.91,1.74,1.82,1.82,0,0,0,.5,1.32,3.51,3.51,0,0,0,1.24.81,20.21,20.21,0,0,0,2,.66A21.47,21.47,0,0,1,99,7.83a4.64,4.64,0,0,1,1.74,1.34,3.68,3.68,0,0,1,.72,2.37A4.48,4.48,0,0,1,100.85,13.92Z"/><path class="cls-2" d="M101.77.26h12V1.94h-5V15.87h-2V1.94h-5Z"/><path class="cls-2" d="M127.58,15.87h-2.4l-4.67-6.4h-3.19v6.4h-1.95V.26h4.95a7.12,7.12,0,0,1,2.93.57,4.74,4.74,0,0,1,2,1.63A4.31,4.31,0,0,1,126,4.89a4.11,4.11,0,0,1-.9,2.65,4.91,4.91,0,0,1-2.49,1.61ZM117.32,1.92V7.81h2.75a4.42,4.42,0,0,0,2.85-.8,2.58,2.58,0,0,0,1-2.12,2.65,2.65,0,0,0-1-2.15,4.31,4.31,0,0,0-2.85-.82Z"/><path class="cls-2" d="M135,.26l6.47,15.61H139.3l-1.78-4.48h-6.67l-1.69,4.48h-2L133.36.26Zm1.83,9.43-2.73-6.9-2.6,6.9Z"/><path class="cls-2" d="M139.59.26h12V1.94h-5V15.87h-2V1.94h-5Z"/><path class="cls-2" d="M155.14,15.87h-2V.26h2Z"/><path class="cls-2" d="M158.55,3.8A6.79,6.79,0,0,1,161.16,1a7.24,7.24,0,0,1,3.73-1,7.15,7.15,0,0,1,3.73,1,6.9,6.9,0,0,1,2.6,2.82A9.06,9.06,0,0,1,172.17,8a9,9,0,0,1-1,4.26,7,7,0,0,1-2.6,2.82,7.09,7.09,0,0,1-3.72,1,7.24,7.24,0,0,1-3.73-1,6.85,6.85,0,0,1-2.61-2.82A9.17,9.17,0,0,1,157.61,8,9.13,9.13,0,0,1,158.55,3.8Zm1.75,7.53a5,5,0,0,0,1.82,2.23,5.18,5.18,0,0,0,5.53,0,5.15,5.15,0,0,0,1.81-2.23A7.92,7.92,0,0,0,170.1,8a7.93,7.93,0,0,0-.64-3.3,5,5,0,0,0-1.81-2.22,5.22,5.22,0,0,0-5.52,0,5,5,0,0,0-1.82,2.22,8.09,8.09,0,0,0-.64,3.3A8.08,8.08,0,0,0,160.3,11.33Z"/><path class="cls-2" d="M176.31.26l8.95,12.22V.26h1.85V15.87h-1.65l-9-12.24V15.87h-1.84V.26Z"/><path class="cls-3" d="M47.06,69.22a13.52,13.52,0,0,1-.55,4.39,3.7,3.7,0,0,1-1.84,2.18A8.86,8.86,0,0,1,41,76.5a61.37,61.37,0,0,1-6.45-.26l-1.2-5.72a35.09,35.09,0,0,0,5.2.36,1.94,1.94,0,0,0,1.8-.73,5.3,5.3,0,0,0,.44-2.55v-31H10.56V76.34H4.32V30.74H47.06ZM13,40.51H38.38v5.57H13Zm1.82,9.21H36.56v18H14.82Zm5.67,5.46v7.17h10.4V55.18Z"/><path class="cls-3" d="M86.35,57.31A54.39,54.39,0,0,0,100.88,71.4l-4.52,5.72A76.15,76.15,0,0,1,84.19,65.26,48.37,48.37,0,0,1,76.8,52.63a43.61,43.61,0,0,1-7.25,12.56A67.27,67.27,0,0,1,57.36,76.55l-4.68-5.36a59.38,59.38,0,0,0,12-10.63,33.77,33.77,0,0,0,6.35-11.68,53,53,0,0,0,2-14.87c.07-1.25.11-2.87.11-4.89h6.5l-.06,7.39c0,.69,0,1.66-.1,2.91A41.71,41.71,0,0,0,86.35,57.31Z"/><path class="cls-3" d="M118,53.15l-3.69,1.66v15.4a9.19,9.19,0,0,1-.52,3.45A3.2,3.2,0,0,1,112,75.41a10.27,10.27,0,0,1-3.49.57,31,31,0,0,1-3.84-.21l-1.15-6.09a16.51,16.51,0,0,0,3.28.32,1.75,1.75,0,0,0,1.32-.37,2.08,2.08,0,0,0,.34-1.4v-11q-3.63,1.5-4.52,1.82l-.68-6.4c2.08-.76,3.82-1.42,5.2-2V42.59h-4.63V36.46h4.63v-7.7h5.83v7.7h3.53v6.13H114.3v5.67l1.09-.47,2.23-1Zm19.39,15.44h6.24V64.33h-4.57V58.92h4.57V54.34h-4.78V48.78H149.4V76.45h-5.78V74.21H125V76.5h-5.57V49.77a55.57,55.57,0,0,0,9.16-2.65l1.71,5.35a22,22,0,0,1-5.3,2v4.42h4.83v5.41H125v4.26h6.39V45.5H119.13V40.1H131.4V36.2q-6.65.46-10.92.57L120,31.21q5.82-.21,14.24-.86c5.62-.44,10.37-.89,14.25-1.38l.94,5.61q-4.42.59-12.07,1.2V40.1h13.37v5.4H137.38Z"/><path class="cls-3" d="M156.26,76.76V30.32h43.63V76.76h-5.83V74.68H162.14v2.08Zm5.88-7.49h31.92V35.78H162.14Zm31.4-17.47-2.08,5A73.16,73.16,0,0,1,178,52.11a52,52,0,0,1-5.41,2.29L180,55.91q3,.51,5.88,1.14l-.73,4.52q-2.24-.51-13.26-2.65l-1.61-.31.62-3.54q-3.54,1.26-6.39,2.14l-2.08-4.89A90.31,90.31,0,0,0,173,49a33.66,33.66,0,0,1-3.69-3.23A49.06,49.06,0,0,1,165.46,49l-3-3.69a38.71,38.71,0,0,0,8.73-9.21l4.94,1.09c-.27.42-.52.78-.72,1.1s-.4.59-.58.83h16v4.11a60,60,0,0,1-7.64,5.92A90.05,90.05,0,0,0,193.54,51.8Zm-26.72,8.63,3.9.73q13.16,2.55,17.57,3.48l-.83,4.63q-5.72-1.2-21.32-4.21Zm6.29-17.21a25.46,25.46,0,0,0,4.83,3.58,26.46,26.46,0,0,0,5.46-3.58Z"/></g></g></svg>