<svg xmlns="http://www.w3.org/2000/svg" viewBox="0 0 226.84 79.23"><defs><style>.cls-1{fill:#5187f1;}.cls-2{fill:#353535;}.cls-3{fill:#b7b7b7;}</style></defs><g id="图层_2" data-name="图层 2"><g id="图层_1-2" data-name="图层 1"><rect class="cls-1" y="72.67" width="224.2" height="6.56"/><path class="cls-2" d="M18.72,66.27c-2,.52-4.8,1.25-8.48,2.19S4,70,2.6,70.33l-1.09-6.4q1.24-.2,6-1.4V38.35H2.7V32.27H18.62v6.08H13.78V61.07l4.94-1.24ZM46.44,76.88q-4.74-4-12.07-9.57a20.12,20.12,0,0,1-5.54,5.15,55,55,0,0,1-9.49,4.79l-3.48-5.46A48,48,0,0,0,26,67.18a10.65,10.65,0,0,0,4.24-4.7,19.5,19.5,0,0,0,1-7V49.17h6v7.59a23.4,23.4,0,0,1-.52,5.2q6.09,4.16,13.47,9.67ZM29.59,41.37l1-4.48H20.18V31.12H49.66v5.77H37.28c.07-.24-.07.39-.41,1.88-.11.55-.3,1.42-.57,2.6H47.68V64.66h-6V46.93H26.83V64.61H20.9V41.37Z"/><path class="cls-2" d="M58.19,77.09V31H95.32v46h-6.4V74.07H64.69v3Zm30.73-33.7V37.21H64.69v6.18Zm0,12.12V49.37H64.69v6.14Zm-24.23,6v6.29H88.92V61.54Z"/><path class="cls-2" d="M115.28,42.51h5.83v6h-5.83V50c.56.62,1,1.12,1.41,1.51,1.63,1.73,2.93,3.19,3.9,4.36l-2.13,6c-.7-1-1.75-2.49-3.18-4.36V77h-5.46V60.29a50.86,50.86,0,0,1-4.36,8.17l-2.66-6.61a32.92,32.92,0,0,0,3.41-5.72,73.36,73.36,0,0,0,3.15-7.64h-5.1v-6h5.56V37.78l-4.78.73-.78-5.78c2.15-.27,4.68-.7,7.59-1.27s5.44-1.15,7.59-1.74l1.3,5.72q-2.53.68-5.46,1.3Zm35.36-9.67v4.89H121.52V32.84h10.92c-.31-.8-.78-1.93-1.4-3.38l6.24-1.3q.53,1,2,4.68Zm-29,43.83V53.22h28.44v16.9q0,3.59-1.17,5.1c-.78,1-2.1,1.51-4,1.51q-1.29,0-3.69-.21l-1-5.2a13.72,13.72,0,0,0,2.81.36,1.34,1.34,0,0,0,1.3-.67,4.9,4.9,0,0,0,.37-2.19V58.21H126.78V76.67Zm2.6-25.74V40.12h23.24V50.93Zm5-4h13.21v-2.7H129.22Zm.1,13.37h12.85v11H129.32Zm4.32,7.17h4.16V64.25h-4.16Z"/><path class="cls-2" d="M169.94,30.65a84.09,84.09,0,0,1-4,11.44V76.93h-6.19V53.64c-1.14,1.73-2.49,3.59-4.05,5.56L153.24,51a55.51,55.51,0,0,0,5.85-10,77.71,77.71,0,0,0,4.5-12Zm32.29,24.91v6H190v15.5H183.3V61.59h-15v-6h15V45.42h-6.76c-.9,2.78-1.84,5.32-2.81,7.65l-6.34-2.24A96.91,96.91,0,0,0,171,41.5a96.63,96.63,0,0,0,2.73-9.75l6.09,1.4q-.52,2.49-1.46,6.14h4.94V28.68H190V39.29h10.92v6.13H190V55.56Z"/><path class="cls-3" d="M6.86.26A6.56,6.56,0,0,1,9.78.89a4.89,4.89,0,0,1,2,1.74,4.53,4.53,0,0,1,.73,2.55,4.57,4.57,0,0,1-.72,2.54,4.73,4.73,0,0,1-2,1.74,6.75,6.75,0,0,1-2.94.61h-3v6.05h-2V.26ZM6.62,8.38a4.13,4.13,0,0,0,2.84-.89,3,3,0,0,0,1-2.31,3,3,0,0,0-1-2.32A4,4,0,0,0,6.62,2H3.87V8.38Z"/><path class="cls-3" d="M26.64,16.12h-2.4l-4.66-6.5H16.39v6.5h-2V.26h4.95a7.21,7.21,0,0,1,2.94.58,4.69,4.69,0,0,1,2,1.66A4.33,4.33,0,0,1,25,5a4.18,4.18,0,0,1-.91,2.7,5,5,0,0,1-2.48,1.63ZM16.39,2v6h2.75A4.36,4.36,0,0,0,22,7.12,2.67,2.67,0,0,0,23,5a2.75,2.75,0,0,0-1-2.18A4.31,4.31,0,0,0,19.14,2Z"/><path class="cls-3" d="M27.92,3.86A6.78,6.78,0,0,1,30.53,1,7.41,7.41,0,0,1,38,1a6.9,6.9,0,0,1,2.61,2.86,9.33,9.33,0,0,1,.95,4.3,9.29,9.29,0,0,1-1,4.32A7.1,7.1,0,0,1,38,15.35a7.39,7.39,0,0,1-7.44,0,6.84,6.84,0,0,1-2.61-2.86,9.46,9.46,0,0,1-1-4.33A9.4,9.4,0,0,1,27.92,3.86Zm1.75,7.64a5.14,5.14,0,0,0,1.81,2.27,5.14,5.14,0,0,0,5.54,0,5.28,5.28,0,0,0,1.81-2.27,8.11,8.11,0,0,0,.64-3.33,8.22,8.22,0,0,0-.64-3.36A5.17,5.17,0,0,0,37,2.56a5.12,5.12,0,0,0-5.53,0,5.1,5.1,0,0,0-1.81,2.25A8.22,8.22,0,0,0,29,8.17,8.28,8.28,0,0,0,29.67,11.5Z"/><path class="cls-3" d="M42.7,15.66a3.37,3.37,0,0,1-1.43-2.12l1.54-.89a2.35,2.35,0,0,0,2.42,1.93,2,2,0,0,0,1.82-.87,4.7,4.7,0,0,0,.56-2.53V.26h2V11.37a5.21,5.21,0,0,1-1.21,3.79,4.26,4.26,0,0,1-3.13,1.2A4.51,4.51,0,0,1,42.7,15.66Z"/><path class="cls-3" d="M61.73,8.77H54.65v5.64h8.16v1.71H52.69V.24h9.88V2H54.65V7.06h7.08Z"/><path class="cls-3" d="M75.37,12.18l1.59.91a5.26,5.26,0,0,1-2.12,2.4,6.21,6.21,0,0,1-3.3.87,6.9,6.9,0,0,1-3.71-1,7.23,7.23,0,0,1-2.64-2.91,9,9,0,0,1-1-4.24,9,9,0,0,1,1-4.25A7.11,7.11,0,0,1,67.83,1a6.89,6.89,0,0,1,3.71-1,6.21,6.21,0,0,1,3.3.87A5.21,5.21,0,0,1,77,3.27l-1.59.91a4.07,4.07,0,0,0-3.87-2.4,4.71,4.71,0,0,0-2.73.8,5.22,5.22,0,0,0-1.84,2.25,8.16,8.16,0,0,0-.64,3.34,8.27,8.27,0,0,0,.64,3.35,5.25,5.25,0,0,0,1.84,2.26,4.79,4.79,0,0,0,2.73.8A4.07,4.07,0,0,0,75.37,12.18Z"/><path class="cls-3" d="M77.26.26h12V2h-5V16.12H82.26V2h-5Z"/><path class="cls-3" d="M109.16.26h1.61V16.12h-1.92V4l-5.08,8h-1.16L97.48,4V16.12H95.59V.26H97.3l5.94,9.42Z"/><path class="cls-3" d="M120.12.26l6.47,15.86h-2.18l-1.78-4.55H116l-1.69,4.55h-2L118.47.26Zm1.82,9.58-2.72-7-2.6,7Z"/><path class="cls-3" d="M129.75.26l9,12.41V.26h1.85V16.12h-1.65L130,3.68V16.12H128.1V.26Z"/><path class="cls-3" d="M154.28.26h2V9.71a7.86,7.86,0,0,1-.75,3.54,5.31,5.31,0,0,1-2.16,2.31,6.81,6.81,0,0,1-3.38.8,6,6,0,0,1-4.61-1.78,6.83,6.83,0,0,1-1.66-4.87V.26h2V9.4a5.87,5.87,0,0,0,1.1,3.85,4.55,4.55,0,0,0,6.43,0,5.87,5.87,0,0,0,1.11-3.85Z"/><path class="cls-3" d="M168.85,14.14A4.28,4.28,0,0,1,167,15.77a6.78,6.78,0,0,1-2.93.59,7.15,7.15,0,0,1-4-1.09,5,5,0,0,1-2.2-2.88l1.58-.91a4.86,4.86,0,0,0,1.76,2.3,5.05,5.05,0,0,0,2.9.8,3.92,3.92,0,0,0,2.47-.69,2.34,2.34,0,0,0,.88-1.93,2.39,2.39,0,0,0-.55-1.62,3.81,3.81,0,0,0-1.36-1,20.82,20.82,0,0,0-2.21-.76,23.18,23.18,0,0,1-2.52-.86,4.24,4.24,0,0,1-1.61-1.24,3.36,3.36,0,0,1-.66-2.17,3.93,3.93,0,0,1,.7-2.35A4.4,4.4,0,0,1,161.16.51,7.28,7.28,0,0,1,163.94,0a6,6,0,0,1,3.49.93,4.54,4.54,0,0,1,1.79,2.36l-1.58.91a4.47,4.47,0,0,0-1.4-1.8,3.93,3.93,0,0,0-2.36-.65,4,4,0,0,0-2.4.67,2.07,2.07,0,0,0-.9,1.76,1.84,1.84,0,0,0,.49,1.34,3.51,3.51,0,0,0,1.24.83c.5.2,1.18.42,2.05.67A21.28,21.28,0,0,1,167,8a4.52,4.52,0,0,1,1.74,1.37,3.73,3.73,0,0,1,.73,2.4A4.63,4.63,0,0,1,168.85,14.14Z"/><path class="cls-3" d="M181.76,12.18l1.59.91a5.26,5.26,0,0,1-2.12,2.4,6.21,6.21,0,0,1-3.3.87,6.9,6.9,0,0,1-3.71-1,7.23,7.23,0,0,1-2.64-2.91,9,9,0,0,1-1-4.24,9,9,0,0,1,1-4.25A7.11,7.11,0,0,1,174.22,1a6.89,6.89,0,0,1,3.71-1,6.21,6.21,0,0,1,3.3.87,5.21,5.21,0,0,1,2.12,2.4l-1.59.91a4.07,4.07,0,0,0-3.87-2.4,4.71,4.71,0,0,0-2.73.8,5.22,5.22,0,0,0-1.84,2.25,8.16,8.16,0,0,0-.64,3.34,8.27,8.27,0,0,0,.64,3.35,5.25,5.25,0,0,0,1.84,2.26,4.79,4.79,0,0,0,2.73.8A4.07,4.07,0,0,0,181.76,12.18Z"/><path class="cls-3" d="M197.4,16.12H195l-4.67-6.5h-3.19v6.5h-2V.26h4.95a7.21,7.21,0,0,1,2.94.58,4.64,4.64,0,0,1,2,1.66A4.33,4.33,0,0,1,195.8,5a4.23,4.23,0,0,1-.9,2.7,5,5,0,0,1-2.49,1.63ZM187.15,2v6h2.75a4.36,4.36,0,0,0,2.85-.81,2.67,2.67,0,0,0,1-2.16,2.75,2.75,0,0,0-1-2.18A4.31,4.31,0,0,0,189.9,2Z"/><path class="cls-3" d="M200.73,16.12h-2V.26h2Z"/><path class="cls-3" d="M209,.26a6.56,6.56,0,0,1,2.92.63,4.89,4.89,0,0,1,2,1.74,4.61,4.61,0,0,1,.73,2.55,4.57,4.57,0,0,1-.72,2.54,4.73,4.73,0,0,1-2,1.74,6.75,6.75,0,0,1-2.94.61h-3v6.05h-2V.26Zm-.24,8.12a4.13,4.13,0,0,0,2.84-.89,3,3,0,0,0,1-2.31,3,3,0,0,0-1-2.32A4,4,0,0,0,208.71,2H206V8.38Z"/><path class="cls-3" d="M214.87.26h12V2h-5V16.12h-2V2h-5Z"/></g></g></svg>