<svg xmlns="http://www.w3.org/2000/svg" viewBox="0 0 828.39 194.22"><defs><style>.cls-1{fill:#353535;}.cls-2{fill:#686868;}</style></defs><g id="图层_2" data-name="图层 2"><g id="图层_1-2" data-name="图层 1"><path class="cls-1" d="M25,16.93v5.53H38.74v7.42H25v5H37.86V52.81a8,8,0,0,1-1.34,5.06,5.3,5.3,0,0,1-4.39,1.68c-1.39,0-3.17-.11-5.33-.33l-1.48-7.15a16.24,16.24,0,0,0,3.58.47A1.7,1.7,0,0,0,30.31,52a2.78,2.78,0,0,0,.41-1.72V42.15H25V63.73H17.43V42.15h-5.6V59.49H4.75V34.87H17.43v-5H2.25V22.46H17.43V16.93H10.69L8.86,21.18l-7.08-2.3C3,16.1,4.06,13.53,4.85,11.2a61.12,61.12,0,0,0,2-7.56l7.35,1.15c-.31,1.53-.7,3.15-1.14,4.85h4.38v-8H25v8H37.73v7.29ZM41.91,8h7.55V48.42H41.91ZM53.65,2.56h7.62V54.49q0,4.86-1.86,7C58.18,63,56,63.73,52.84,63.73a80.19,80.19,0,0,1-9.11-.54l-1.35-7.68a67.84,67.84,0,0,0,7.89.67,3,3,0,0,0,2.6-1,5.47,5.47,0,0,0,.78-3.27Z"/><path class="cls-1" d="M88.72,3a130.44,130.44,0,0,1-5.53,13.89V63.06h-8.3V31.23Q72,35.4,69.23,38.85L66.06,28.73A84,84,0,0,0,74,16.09,100.17,100.17,0,0,0,80.42.74Zm39.59,15H108.68v8.16H125v8H108.68v8.09h17.8v8h-17.8V63.4h-8.16V18H98.63a89.5,89.5,0,0,1-9.58,14.9l-5.86-6.54A71.1,71.1,0,0,0,91,14.74,90.81,90.81,0,0,0,97.08.81l8.09,1.89q-1.35,4-2.69,7.08h25.83Z"/><path class="cls-1" d="M148.47,18.61H156v7.76h-7.56v2c.72.81,1.33,1.46,1.82,2,2.12,2.25,3.8,4.14,5.06,5.67l-2.76,7.75c-.9-1.35-2.28-3.23-4.12-5.66V63.4h-7.08V41.68a66,66,0,0,1-5.66,10.59l-3.44-8.57a43.35,43.35,0,0,0,4.41-7.41,94.54,94.54,0,0,0,4.08-9.92h-6.61V18.61h7.22V12.48l-6.2.94-1-7.48q4.19-.54,9.85-1.66T153.87,2l1.68,7.42q-3.3.88-7.08,1.69ZM194.33,6.07v6.34H156.56V6.07h14.17c-.41-1-1-2.49-1.82-4.38L177,0q.67,1.35,2.56,6.07ZM156.7,62.92V32.51h36.89V54.43c0,3.1-.5,5.3-1.52,6.61s-2.73,2-5.16,2c-1.12,0-2.72-.09-4.78-.27L180.84,56a17.93,17.93,0,0,0,3.65.47,1.72,1.72,0,0,0,1.68-.88,6.2,6.2,0,0,0,.47-2.83V39H163.38V62.92Zm3.37-33.38v-14h30.15v14Zm6.48-5.12h17.13V20.91H166.55Zm.13,17.33h16.66V56H166.68Zm5.6,9.3h5.39V46.81h-5.39Z"/><path class="cls-1" d="M256.25,42h-15V54.83q0,4.65-1.85,6.54c-1.24,1.26-3.36,1.89-6.38,1.89q-4.11,0-8.16-.4l-1.61-7.62a46.39,46.39,0,0,0,6.74.6,2.74,2.74,0,0,0,2.46-1,5.73,5.73,0,0,0,.64-3.07V42H216.86V15.31h12.68q1.28-3.3,1.62-4.38H212.41V26.78a153.59,153.59,0,0,1-.68,15.84A57.58,57.58,0,0,1,209.47,54,55.13,55.13,0,0,1,205,64.14l-7.42-5.46a64.66,64.66,0,0,0,4.28-9.31,40.7,40.7,0,0,0,1.92-9A131,131,0,0,0,204.31,27V3.24h55.78v7.69H239.72c-.45,1.61-.9,3.08-1.35,4.38h17.88Zm-28,5.46a83.16,83.16,0,0,1-5.6,7.22q-3.51,4.11-7.15,7.76l-5.6-6A76.25,76.25,0,0,0,221.85,43ZM248.69,25.7V22H224.55V25.7Zm0,5.86H224.55v3.65h24.14Zm.61,11.94q4.24,4.19,12.34,12.55l-5.73,5.53q-6.27-7.09-12.14-13.22Z"/><path class="cls-1" d="M324.36,25.29H282.41c0,3.19-.06,6.14-.2,8.84h32.24V63.06h-8V42H281.54a51,51,0,0,1-2.67,11.53,51.07,51.07,0,0,1-5.36,10.32L265.62,59a42.55,42.55,0,0,0,5.23-9.48,44.68,44.68,0,0,0,2.49-10.76,139.62,139.62,0,0,0,.71-15.58V2.43h8.36v15h20V1.35h7.95V17.47h14Z"/><path class="cls-1" d="M390.12,25.29H348.17q0,4.79-.2,8.84h32.24V63.06h-8V42H347.29a51,51,0,0,1-2.66,11.53,52.12,52.12,0,0,1-5.36,10.32L331.38,59a42.09,42.09,0,0,0,5.22-9.48,44.67,44.67,0,0,0,2.5-10.76,139.62,139.62,0,0,0,.71-15.58V2.43h8.36v15h20V1.35h8V17.47h14Z"/><path class="cls-1" d="M424,50,408.6,52V63.4h-7.42V53l-4.85.68-.61-8,5.46-.61V4.52c3.42-.23,7.17-.66,11.26-1.32A86,86,0,0,0,422.76,1l2,7.49q-3,.81-7.79,1.65c-3.22.56-6,1-8.4,1.18v5.4h13.49v7.42H408.6V30h13.49v7.41H408.6v6.88q7.89-.95,15.38-2.09ZM455.54,63.6a59.56,59.56,0,0,1-15.71-9A74,74,0,0,1,423,63.67l-4-7.49A78.42,78.42,0,0,0,434.16,49a49.82,49.82,0,0,1-8.36-13.82h-1.22V28h30.29v7.42a45.43,45.43,0,0,1-9.38,14.23,50.44,50.44,0,0,0,13.69,6.27ZM422.7,22.32a19.43,19.43,0,0,0,3.74-3.27,7.7,7.7,0,0,0,1.58-3.2,22.25,22.25,0,0,0,.41-4.79V3.24h22.66V15.65a2.71,2.71,0,0,0,.54,2,3.46,3.46,0,0,0,2.09.54l2.29.07,2.3-.07L457,25.29l-3,.07-3-.07q-3.64-.13-5.33-1.55t-1.69-4.92V10.39h-8.22v3A15.27,15.27,0,0,1,434,20.64a23.52,23.52,0,0,1-5.87,6.54Zm11.12,12.82a36.1,36.1,0,0,0,5.87,9.51,32.06,32.06,0,0,0,6.95-9.51Z"/><path class="cls-2" d="M20.91,140.61q3.6,0,6.78-.21l-.27,1.5q-3,.21-6.39.21t-6.42-.21a20.94,20.94,0,0,1-4.17-.6A8.36,8.36,0,0,1,7.59,140a11.32,11.32,0,0,1-2.34-2.49L1,142.2l-.84-1.44,4.38-4.68V128h-4v-1.56H6v9.63a11,11,0,0,0,2.19,2.43,7.71,7.71,0,0,0,2.66,1.32,18.65,18.65,0,0,0,4,.6Q17.91,140.61,20.91,140.61ZM5.79,123.15c-.44-.73-1.09-1.74-1.95-3s-1.55-2.22-2.07-2.88l1.29-.87c.52.66,1.2,1.6,2.06,2.82s1.52,2.24,2,3Zm3,13.17a30.91,30.91,0,0,0,8-5.58q-4.14-3.54-6.57-5.52l1-1.14q2.61,2.07,6.63,5.52a19,19,0,0,0,2.3-3.54,23.79,23.79,0,0,0,1.6-4.26H9.06v-1.53h8.16q-1-2.67-1.77-4.41l1.44-.51c.68,1.46,1.34,3.11,2,4.92H27v1.53H23.34a28.82,28.82,0,0,1-1.78,4.88,19.83,19.83,0,0,1-2.51,3.94q4.5,3.84,6.87,6l-1.05,1.29c-1.36-1.27-3.65-3.33-6.87-6.15a32.38,32.38,0,0,1-8.31,5.94Z"/><path class="cls-2" d="M30.3,119v-1.53h8.22v8H32.94l-.42,5h5.73q-.06,1.89-.21,4.41t-.33,4.26a6,6,0,0,1-.43,1.92,1.77,1.77,0,0,1-1,.92,5.6,5.6,0,0,1-1.92.25,28.25,28.25,0,0,1-3.18-.18l-.24-1.5a29.8,29.8,0,0,0,3.21.21,2,2,0,0,0,1.47-.43,3.05,3.05,0,0,0,.57-1.7c.12-.91.21-2,.29-3.28s.11-2.41.13-3.41H30.9l.63-8H37v-5Zm18.51,10.23a20.35,20.35,0,0,0,3,6.71,17,17,0,0,0,5.25,4.57L56,141.72a18,18,0,0,1-5.5-5.05,23.8,23.8,0,0,1-3.2-7.46H44.07v11.1l5-2.46.24,1.65q-3.63,1.62-5.43,2.52a10.5,10.5,0,0,0-1.38.87l-.78-1.47a2.55,2.55,0,0,0,.64-.55.74.74,0,0,0,.17-.47V129.21H39.36v-1.56h3.15V115.74h1.56v11.91H56.46v1.56Zm6.3-10.68c-1.3,1.16-2.82,2.37-4.54,3.63a44,44,0,0,1-4.7,3l-.81-1.29a40.29,40.29,0,0,0,4.65-3,49.47,49.47,0,0,0,4.41-3.6Z"/><path class="cls-2" d="M64.17,115.44v5.31h3v1.59h-3v5.73l2.76-1.26.18,1.62c-1.12.53-2.1,1-2.94,1.32v9.81a2.55,2.55,0,0,1-.59,1.95,3,3,0,0,1-2,.54,18.58,18.58,0,0,1-2.22-.12l-.27-1.56a13.12,13.12,0,0,0,2.16.18,1.57,1.57,0,0,0,1.14-.31,1.65,1.65,0,0,0,.3-1.13v-8.7q-2.79,1.17-3.87,1.59l-.21-1.59q1.59-.63,4.08-1.68v-6.39H59v-1.59h3.66v-5.31Zm13.14,23.79h5.76v-4.41H78.93v-1.38h4.14v-4.2H78.78V127.8h5.76v14.76H83.07v-1.92h-13v2H68.64V128.31a25.13,25.13,0,0,0,2.64-.76,24.66,24.66,0,0,0,2.46-1l.48,1.38a24.84,24.84,0,0,1-4.11,1.56v3.93h4v1.38h-4v4.41h5.7v-15H67.92v-1.47h7.89v-4.14q-4.74.45-7.29.54l-.12-1.44q3.12-.15,8.1-.61t8.19-1L85,117.6q-3.09.48-7.65.9v4.29H86v1.47H77.31Z"/><path class="cls-2" d="M89.94,143.1V117.18h23.49V143.1H112v-1.86H91.44v1.86Zm1.5-24.48v21.24H112V118.62ZM111,130.26l-.51,1.32a41.36,41.36,0,0,1-8.79-3.18,49.18,49.18,0,0,1-8.82,3.48l-.54-1.26a48.73,48.73,0,0,0,8-3,19.23,19.23,0,0,1-3.87-3.3,26.91,26.91,0,0,1-3,2.88l-.78-1A27,27,0,0,0,96,122.84a23.64,23.64,0,0,0,2.52-3.65l1.23.48A20,20,0,0,1,98.31,122h10v1.2a25.08,25.08,0,0,1-5.37,4.44A38.12,38.12,0,0,0,111,130.26Zm-15.75,4.41q7.77,1.53,12.06,2.46l-.24,1.2q-8.7-1.8-12-2.43Zm6.42-7.71a18.76,18.76,0,0,0,4.8-3.72H97.41l-.09.12A15.45,15.45,0,0,0,101.67,127Zm-3.81,4.11,8.1,1.71-.18,1.26q-2.34-.54-8.13-1.74Z"/><path class="cls-2" d="M143.94,119.49V121H127.62a42.69,42.69,0,0,1-4.14,7.17v14.67h-1.59v-12.6a37.88,37.88,0,0,1-4.2,4.41l-1-1.38a35.36,35.36,0,0,0,5-5.52,41.77,41.77,0,0,0,4.08-6.75h-8.34v-1.53h9.06a39.07,39.07,0,0,0,1.59-4.23l1.56.39q-.54,1.68-1.41,3.84Zm-1.17,11.16h-7.68v9.12h8.85v1.5h-19v-1.5h8.61v-9.12h-7.14v-1.53h7.14v-5.64h1.59v5.64h7.68Z"/><path class="cls-2" d="M151.65,137.37a29.32,29.32,0,0,1-4.14,4.86l-1-1c.74-.7,1.46-1.45,2.18-2.28a24.17,24.17,0,0,0,1.81-2.37Zm12.06-10.32v1.23H146.58v-1.23h8.16l-.45-2h-5.67v-8.13h13.17V125h-6q.21.84.48,2Zm-2.46,8.37h-5.13v4.44a3.65,3.65,0,0,1-.29,1.67,1.33,1.33,0,0,1-.87.72,6.57,6.57,0,0,1-1.69.16,16.08,16.08,0,0,1-1.62-.12l-.3-1.38a16.38,16.38,0,0,0,2.13.15,1.14,1.14,0,0,0,.93-.33,1.83,1.83,0,0,0,.27-1.14v-4.17h-5.55v-5.25h12.12Zm-.87-15.09v-2.22H150.06v2.22Zm0,1.17H150.06v2.31h10.32Zm-.57,9.84h-9.24v2.91h9.24Zm-.54,5a33,33,0,0,1,2.58,3.93l-1.08.78a37.68,37.68,0,0,0-2.58-4Zm14.58-4.14a26.22,26.22,0,0,1-4.48,5.75,35.55,35.55,0,0,1-6.5,4.84l-.87-1.32a29.41,29.41,0,0,0,6.23-4.48,27.56,27.56,0,0,0,4.45-5.63ZM163.05,131a28.82,28.82,0,0,0,4.76-3.15,32.5,32.5,0,0,0,4.12-4l1.11,1a33.88,33.88,0,0,1-9.12,7.5Zm9.45-13.86a34.79,34.79,0,0,1-8.4,6.54l-.78-1.32a30.42,30.42,0,0,0,4.2-2.73,31.19,31.19,0,0,0,3.87-3.48Z"/><path class="cls-2" d="M201.72,125.25H182.49q0,3.66-.15,5.73h14.31v11.94h-1.59V132.48H182.22a22.66,22.66,0,0,1-1.24,5.75,19.5,19.5,0,0,1-2.81,4.84l-1.5-.93a18.63,18.63,0,0,0,2.7-4.5,19.42,19.42,0,0,0,1.23-5.07,68.36,68.36,0,0,0,.33-7.53v-8.85h1.56v7.53h10.68v-8h1.59v8h7Z"/><path class="cls-2" d="M212.91,115.71q-.54,2.52-1.29,5h4.62v20.76h-9.57V120.66h3.21q.39-1.11.78-2.61t.6-2.64Zm-4.71,13.35h6.48v-6.87H208.2Zm0,1.53v9.27h6.48v-9.27Zm22.65-10.11v1.68c0,2.66-.06,5.51-.18,8.52s-.28,5.63-.48,7.83a6.28,6.28,0,0,1-.49,2.18,2.15,2.15,0,0,1-1.14,1.08,5.89,5.89,0,0,1-2.15.31,22.06,22.06,0,0,1-3.06-.12l-.84-.06-.27-1.62a35.91,35.91,0,0,0,3.93.27,3.29,3.29,0,0,0,1.4-.24,1.55,1.55,0,0,0,.75-.82,6.13,6.13,0,0,0,.37-1.7q.54-5.73.54-13.62V122H221a46.28,46.28,0,0,1-2.16,4.74l-1.38-.93a39.12,39.12,0,0,0,2.33-5.1,54.4,54.4,0,0,0,1.75-5.46l1.56.33q-.78,2.88-1.53,4.89Zm-6.15,14.25q-.93-1.41-2.4-3.39t-2.46-3.15l1.2-.93c.66.78,1.47,1.81,2.45,3.09s1.78,2.4,2.44,3.36Z"/><path class="cls-2" d="M239,119.7a32,32,0,0,1-3.27,4.14l-1.29-.9a31,31,0,0,0,3-3.78,25.78,25.78,0,0,0,2.27-3.87l1.53.45q-.57,1.17-1.41,2.58h8v1.38h-5.34l1.83,2.43-1.2.75-1.23-1.74-1-1.44ZM248.73,130v3.3H260q-.27,2.67-.6,4.59a3.89,3.89,0,0,1-1,2.1,3,3,0,0,1-2.06.63,42,42,0,0,1-4.35-.21l-.24-1.38a39.85,39.85,0,0,0,4.17.27,1.85,1.85,0,0,0,1.32-.4,2.69,2.69,0,0,0,.63-1.37q.24-1.17.42-2.88h-9.54V143h-1.59v-8a23.3,23.3,0,0,1-4.81,3.9,50.71,50.71,0,0,1-7.07,3.48l-.78-1.5A45.67,45.67,0,0,0,241,138a22.33,22.33,0,0,0,4.56-3.33H236.7l1-6h9.48v-3.42h-9.45v-1.44h20.37V130Zm-1.59,0H239l-.51,3.3h8.64Zm14.07-11.7v1.38h-6.66l1.95,2.37-1.14.78-1.14-1.41-1.38-1.74h-2.1a23.41,23.41,0,0,1-2.34,3.42l-1.35-.75a26.55,26.55,0,0,0,4.14-7.05l1.5.42c-.42,1-.82,1.86-1.2,2.58Zm-4.65,6.93h-7.83v3.42h7.83Z"/><path class="cls-2" d="M263.55,127.56h27.3v1.71h-27.3Z"/><path class="cls-2" d="M297,122a33.6,33.6,0,0,1-3.66,4l-.81-1.38a26.8,26.8,0,0,0,3.79-4.14,28,28,0,0,0,3.14-5l1.47.51a31.91,31.91,0,0,1-1.77,3.06h8.16l-1.53-3.18,1.47-.51L309,119h9.15v1.23h-9.45v2.52h8.73v1.17h-8.73v2.46h8.73v1.2h-8.73V130h9.93v1.26H297Zm22.47,20.25a45.62,45.62,0,0,1-6.94-2.86,28,28,0,0,1-5.3-3.62V143h-1.53v-7.26a31.5,31.5,0,0,1-5.33,3.69,46.32,46.32,0,0,1-6.85,3l-.63-1.47a46.21,46.21,0,0,0,6.41-2.55,26.67,26.67,0,0,0,4.81-3H293.49V134.1h12.18V132h1.53v2.13h12.24v1.32H308.73a26.82,26.82,0,0,0,4.83,2.93,47,47,0,0,0,6.45,2.44ZM298.5,122.7h8.64v-2.52H298.5Zm0,3.63h8.64v-2.46H298.5Zm0,3.69h8.64v-2.49H298.5Z"/><path class="cls-2" d="M326.22,133.14a35.39,35.39,0,0,1-1.3,4c-.55,1.4-1.11,2.66-1.67,3.75l-1.38-.63c.54-1,1.09-2.23,1.67-3.64a38.59,38.59,0,0,0,1.36-3.92Zm10.14-13.92v1.47H322.41v-1.47h7q-1.14-2.37-1.83-3.57l1.47-.36q.84,1.62,2,3.93Zm-2,11.88h-4.14v8a4,4,0,0,1-.57,2.45,2.42,2.42,0,0,1-2,.7,22.67,22.67,0,0,1-2.49-.15l-.27-1.5a11.77,11.77,0,0,0,2.25.21,1.5,1.5,0,0,0,1.26-.46,2.78,2.78,0,0,0,.36-1.64V131.1h-4.53v-7.2h10.11Zm-1.44-5.88h-7.2v4.56h7.2Zm1,12.93q-1.38-3.78-1.83-4.83l1.23-.54q1.38,3.48,1.86,4.83Zm15.21-15.24v1.47h-8.76a47.82,47.82,0,0,1-.72,7.79,19.59,19.59,0,0,1-1.87,5.44,29,29,0,0,1-3.71,5.19l-1.29-1a27.49,27.49,0,0,0,3.64-4.92,17.59,17.59,0,0,0,1.81-5.1,50.07,50.07,0,0,0,.7-7.44H335.7v-1.47H339v-.51l.09-6.93h1.44l-.12,6.93v.51Zm-1.41,13.67c0-1,0-1.72,0-2.3l1.29.27q0,1.14-.12,4.74a3.06,3.06,0,0,1-.67,2.1,2.9,2.9,0,0,1-2.06.6h-1.29a2.37,2.37,0,0,1-1.86-.64,3.18,3.18,0,0,1-.57-2.12v-13H344v12.66a1.86,1.86,0,0,0,.31,1.26,1.4,1.4,0,0,0,1.07.33h.78a1.6,1.6,0,0,0,1.19-.33,2,2,0,0,0,.37-1.23C347.72,138.32,347.74,137.53,347.76,136.58Zm-.9-15.08q-1.2-1.35-4-4.32l1-1c.2.2,1.1,1.16,2.7,2.85q.72.81,1.35,1.44Z"/><path class="cls-2" d="M374.58,139.74V131h1.62V142.8h-1.62v-1.5H353.73V131.13h1.62v8.61h8.79V128.46H354.6V118.29h1.59v8.64h7.95V115.41h1.62v11.52h8v-8.64h1.56v10.17h-9.54v11.28Z"/><path class="cls-2" d="M390.75,136.35q-2.43.84-10.2,3.09l-.3-1.5,4.47-1.26v-8.37h-4v-1.44h4v-7.26h-4.14v-1.5h9.75v1.5h-4.08v7.26h4.08v1.44h-4.08v7.92l4.35-1.38Zm8.73-15.66q0,1.44-.12,6.72a20.68,20.68,0,0,1-1.14,6.53,13.7,13.7,0,0,1-3.14,4.9,25,25,0,0,1-5.71,4.17l-1-1.35a24.32,24.32,0,0,0,5.52-3.84,11.41,11.41,0,0,0,2.82-4.41,21.71,21.71,0,0,0,1-6.21c0-.91.07-2,.09-3.27s0-2.34,0-3.24Zm4.35-2H393.66v15.15h-1.53V117.21h13.23v16.65h-1.53Zm4,17.22c0,.35,0,1.47-.09,3.39a4.76,4.76,0,0,1-.33,1.71,1.62,1.62,0,0,1-.86.83,6,6,0,0,1-1.69.37,13.89,13.89,0,0,1-1.53.09q-.84,0-1.92-.09a2.59,2.59,0,0,1-1.89-.76,3.48,3.48,0,0,1-.57-2.24v-6.9h1.53v6.39a4.36,4.36,0,0,0,.14,1.26,1,1,0,0,0,.47.59,3.38,3.38,0,0,0,1.1.22q.72.06,1.11.06t1.08-.06a4.62,4.62,0,0,0,1.23-.21,1,1,0,0,0,.56-.54,4,4,0,0,0,.19-1.23q.06-1,.06-3.15Z"/><path class="cls-2" d="M435,118v1.65l-10.59,7.23v11.79a6.43,6.43,0,0,1-.3,2.22A2,2,0,0,1,423,142a6.29,6.29,0,0,1-2.31.37,26,26,0,0,1-4-.3l-.33-1.62a22.62,22.62,0,0,0,3.87.42,4.09,4.09,0,0,0,1.56-.22,1.25,1.25,0,0,0,.7-.8,5.68,5.68,0,0,0,.2-1.74V126l9.51-6.36H411.09V118Z"/><path class="cls-2" d="M445,139a2.61,2.61,0,0,1,.4,1.59,4.76,4.76,0,0,1-.82,2.82,3.73,3.73,0,0,1-2.3,1.5v-1a2.83,2.83,0,0,0,1.95-2.91,1.05,1.05,0,0,1-.3,0,1.12,1.12,0,0,1-.87-.36,1.28,1.28,0,0,1-.33-.9,1.25,1.25,0,0,1,.35-.91,1.13,1.13,0,0,1,.88-.38A1.29,1.29,0,0,1,445,139Z"/><path class="cls-2" d="M477.24,131.55q-.15,1.62-.21,2a11.29,11.29,0,0,1-.15,1.14h13.26a27,27,0,0,1-.57,4.44,7.5,7.5,0,0,1-.74,2,2.24,2.24,0,0,1-1.15,1,5.84,5.84,0,0,1-2.1.3,40.18,40.18,0,0,1-4.23-.21l-.21-1.41a39.86,39.86,0,0,0,4,.27,5.08,5.08,0,0,0,1.49-.16,1.36,1.36,0,0,0,.77-.65,5.8,5.8,0,0,0,.56-1.53,14.69,14.69,0,0,0,.42-2.67H476.61a7.89,7.89,0,0,1-1.28,2.76,9.21,9.21,0,0,1-2.27,2.15,31.39,31.39,0,0,1-3.74,2.11l-1-1.35a23,23,0,0,0,4.14-2.31,6.81,6.81,0,0,0,2.1-2.43,10.28,10.28,0,0,0,.87-3.48q.12-.93.18-2h-7v-1.44h12.54l-1-2.61,1.59-.33.3.81.84,2.13h11.43v1.44Zm-1.05-6.87q-.78-3.24-1.08-4.32h-5.94v-1.44h12l-1.29-3.27,1.56-.33q.42,1,1,2.43l.45,1.17h10.92v1.44H488q-.51,1.86-1.44,4.32h6.78v4.17h-1.56v-2.73H471.21v2.73h-1.53v-4.17Zm8.79,0q.9-2.43,1.41-4.32h-9.78l1.14,4.32Z"/><path class="cls-2" d="M518.52,140.64q3.24,0,6.45-.27l-.33,1.59q-3.15.27-6.33.27t-6.39-.27a31.65,31.65,0,0,1-4.34-.64,9,9,0,0,1-3-1.26,8.37,8.37,0,0,1-2.3-2.39q-.75.81-2.85,3.3l-1.23,1.44-.93-1.5,4.26-4.77V127.8h-3.84v-1.59h5.46v9.9a7.26,7.26,0,0,0,2,2.39,8,8,0,0,0,2.76,1.27,22.91,22.91,0,0,0,4.06.6Q515.31,140.64,518.52,140.64ZM503.4,122.76q-.93-1.23-4.17-5.31l1.26-1,4.17,5.22Zm2.46,13.86a20.44,20.44,0,0,0,3.52-3.76,12.4,12.4,0,0,0,1.82-4.14,34.27,34.27,0,0,0,.81-6.29h-5.22v-1.56h5.31q.15-3.9.18-5.31h1.59q-.15,3.84-.24,5.31h8.91q0,2.58-.29,6.35t-.55,5.95a9.47,9.47,0,0,1-.64,2.6,2.34,2.34,0,0,1-1.29,1.2,7.82,7.82,0,0,1-2.66.34,29.34,29.34,0,0,1-3.63-.21l-.33-1.62a33.49,33.49,0,0,0,3.72.3,6.06,6.06,0,0,0,1.86-.21,1.52,1.52,0,0,0,.89-.85,8.53,8.53,0,0,0,.46-2.06c.2-1.38.37-3,.5-4.9s.21-3.67.25-5.33h-7.26a39.27,39.27,0,0,1-.93,6.83,15,15,0,0,1-1.93,4.56,21.51,21.51,0,0,1-3.62,4Z"/><path class="cls-2" d="M548.13,140.85q2.73,0,5.55-.18l-.27,1.41q-2.73.18-5.4.18t-5.76-.18a25.91,25.91,0,0,1-4.46-.63,9.09,9.09,0,0,1-5.62-4,14.92,14.92,0,0,1-1.81,3,16.49,16.49,0,0,1-2.51,2.5l-1.17-1.17a14.39,14.39,0,0,0,3.48-3.81,16.45,16.45,0,0,0,1.92-5.16l1.56.3a23.62,23.62,0,0,1-.78,2.76,9.18,9.18,0,0,0,2.77,3.09,10.41,10.41,0,0,0,3.92,1.44v-8.88H527v-1.35H553.2v1.35H541.14v3.66h9.72v1.35h-9.72v4.05l1.08.09Q545.25,140.85,548.13,140.85ZM531.06,117h18v10.35h-18Zm16.41,4.5v-3.15H532.68v3.15Zm-14.79,1.32V126h14.79v-3.18Z"/><path class="cls-2" d="M558.69,117.3h22v17H570.48v8.58h-1.65v-8.58H558.69ZM568.83,125v-6.06h-8.55V125Zm-8.55,1.59v6.15h8.55v-6.15Zm10.2-1.59H579v-6.06h-8.55Zm0,1.59v6.15H579v-6.15Z"/><path class="cls-2" d="M595.59,121.59c-.08,1.91-.16,3.42-.24,4.56l-.06.81h13q-.06,2.73-.27,5.73t-.51,4.74a9.26,9.26,0,0,1-.87,2.93,2.82,2.82,0,0,1-1.65,1.3,11.38,11.38,0,0,1-3.3.36q-1.92,0-3.87-.18l-.3-1.56a36.74,36.74,0,0,0,4.44.27,6.63,6.63,0,0,0,2.21-.31,2,2,0,0,0,1.09-1,9.81,9.81,0,0,0,.66-2.3q.27-1.62.45-3.9t.21-4.44H595.14a25.36,25.36,0,0,1-1.26,5.6,16.94,16.94,0,0,1-2.5,4.5A25,25,0,0,1,587,143l-1.17-1.35a24.21,24.21,0,0,0,4.56-4.44,14.39,14.39,0,0,0,2.36-4.75,33.32,33.32,0,0,0,1-6.47q.15-2,.21-4.35h-8.28V120h13.41l-.6-1.38-1.2-2.82,1.56-.54q1.29,2.82,2,4.74h11.46v1.56Z"/><path class="cls-2" d="M635.34,140.4q3.33,0,6.6-.18l-.3,1.59q-3.45.15-6.18.15-3.27,0-6.51-.18a18.64,18.64,0,0,1-3.88-.54,8.56,8.56,0,0,1-2.78-1.3,13.86,13.86,0,0,1-2.55-2.51l-4.17,4.68-1-1.35L618.9,136v-8.46h-4.26V126h5.79v9.84a12.2,12.2,0,0,0,2.39,2.52,7.92,7.92,0,0,0,2.6,1.29,17.18,17.18,0,0,0,3.74.54Q632.28,140.4,635.34,140.4Zm-14.67-17.46c-.5-.76-1.2-1.73-2.09-2.91S617,118,616.5,117.39l1.17-1c.52.6,1.23,1.48,2.12,2.64s1.58,2.11,2.08,2.85Zm6.15,2.25a44,44,0,0,1-.28,5,14.65,14.65,0,0,1-.92,3.62,19,19,0,0,1-1.92,3.49l-1.29-1a17.21,17.21,0,0,0,1.83-3.3,13.39,13.39,0,0,0,.83-3.42,48.63,48.63,0,0,0,.22-5.1V118a105.63,105.63,0,0,0,14.85-1.59l.27,1.56q-2.91.6-6.46,1t-7.13.55v4.11h12.81v1.53a20.17,20.17,0,0,1-4.53,7.5c1.74,1.4,3.44,2.81,5.1,4.2l-1,1.23Q637,136.2,634,133.74a26.15,26.15,0,0,1-6.75,4.5l-.87-1.38a25.29,25.29,0,0,0,6.36-4.14q-3.12-2.58-4.83-4l1-1.11,5,4a17.87,17.87,0,0,0,4.08-6.48Z"/><path class="cls-2" d="M669.72,125.25H650.49q0,3.66-.15,5.73h14.31v11.94h-1.59V132.48H650.22a22.66,22.66,0,0,1-1.24,5.75,19.5,19.5,0,0,1-2.81,4.84l-1.5-.93a18.63,18.63,0,0,0,2.7-4.5,19.42,19.42,0,0,0,1.23-5.07,68.36,68.36,0,0,0,.33-7.53v-8.85h1.56v7.53h10.68v-8h1.59v8h7Z"/><path class="cls-2" d="M680.91,115.71q-.54,2.52-1.29,5h4.62v20.76h-9.57V120.66h3.21q.39-1.11.78-2.61t.6-2.64Zm-4.71,13.35h6.48v-6.87H676.2Zm0,1.53v9.27h6.48v-9.27Zm22.65-10.11v1.68c0,2.66-.06,5.51-.18,8.52s-.28,5.63-.48,7.83a6.28,6.28,0,0,1-.49,2.18,2.15,2.15,0,0,1-1.14,1.08,5.89,5.89,0,0,1-2.15.31,22.06,22.06,0,0,1-3.06-.12l-.84-.06-.27-1.62a35.91,35.91,0,0,0,3.93.27,3.29,3.29,0,0,0,1.4-.24,1.55,1.55,0,0,0,.75-.82,6.13,6.13,0,0,0,.37-1.7q.54-5.73.54-13.62V122H689a46.28,46.28,0,0,1-2.16,4.74l-1.38-.93a39.12,39.12,0,0,0,2.33-5.1,54.4,54.4,0,0,0,1.75-5.46l1.56.33q-.78,2.88-1.53,4.89Zm-6.15,14.25q-.93-1.41-2.4-3.39t-2.46-3.15l1.2-.93c.66.78,1.47,1.81,2.45,3.09s1.78,2.4,2.44,3.36Z"/><path class="cls-2" d="M726.72,132.69h-6.9v6.63a3.62,3.62,0,0,1-.67,2.46,3.16,3.16,0,0,1-2.36.72q-1.8,0-3.6-.18l-.3-1.5a26.85,26.85,0,0,0,3.42.27,1.87,1.87,0,0,0,1.55-.55,2.94,2.94,0,0,0,.43-1.76v-6.09h-7.44V122.22h5.55q.78-2.16,1.14-3.48H707.1v8a65,65,0,0,1-.3,6.93,21.81,21.81,0,0,1-1,4.83,24.1,24.1,0,0,1-2.22,4.53l-1.44-1a25.41,25.41,0,0,0,2.18-4.33,19.35,19.35,0,0,0,1-4.38,55.87,55.87,0,0,0,.29-6.47v-9.63h23.85v1.53H719.1q-.45,1.65-1.11,3.48h8.73ZM714.15,135a30.51,30.51,0,0,1-2.49,3.57q-1.59,2-3.15,3.66l-1.17-1.14a38.61,38.61,0,0,0,3.08-3.42,30.57,30.57,0,0,0,2.44-3.48Zm11.1-8.22v-3.21H712.32v3.21Zm0,1.32H712.32v3.27h12.93Zm-1.59,6.27,5.76,6.36-1.2,1q-1.59-1.89-5.67-6.45Z"/><path class="cls-2" d="M757.47,125.25H738.24q0,3.66-.15,5.73H752.4v11.94h-1.59V132.48H738a22.66,22.66,0,0,1-1.24,5.75,19.5,19.5,0,0,1-2.81,4.84l-1.5-.93a18.63,18.63,0,0,0,2.7-4.5,19.42,19.42,0,0,0,1.23-5.07,68.36,68.36,0,0,0,.33-7.53v-8.85h1.56v7.53h10.68v-8h1.59v8h7Z"/><path class="cls-2" d="M786.72,125.25H767.49q0,3.66-.15,5.73h14.31v11.94h-1.59V132.48H767.22a22.66,22.66,0,0,1-1.24,5.75,19.5,19.5,0,0,1-2.81,4.84l-1.5-.93a18.63,18.63,0,0,0,2.7-4.5,19.42,19.42,0,0,0,1.23-5.07,68.36,68.36,0,0,0,.33-7.53v-8.85h1.56v7.53h10.68v-8h1.59v8h7Z"/><path class="cls-2" d="M802.23,136.32l-7.77,1.08v5.49H793v-5.31l-2.94.42v-1.56l2.94-.36V117.69c1.38-.12,3-.32,4.73-.61a31.73,31.73,0,0,0,4.27-1l.45,1.5a32.79,32.79,0,0,1-3.8.83c-1.57.27-3,.46-4.21.58v4.23h6.93v1.47h-6.93v4.5h6.93v1.47h-6.93v5.16q4.11-.54,7.77-1.08Zm14.64,6.57a27.63,27.63,0,0,1-8-4.65A35.36,35.36,0,0,1,800.4,143l-.78-1.5a35,35,0,0,0,8.1-4.32,20,20,0,0,1-4.44-7.5h-1v-1.38H815v1.44a21.83,21.83,0,0,1-2.07,4.13,17.78,17.78,0,0,1-2.94,3.43,25.73,25.73,0,0,0,7.62,4.08Zm-15-16.59a11.26,11.26,0,0,0,1.87-1.83,4.73,4.73,0,0,0,.85-1.71,10,10,0,0,0,.22-2.34v-3.24h8.55v5.67a2,2,0,0,0,.33,1.35,2.1,2.1,0,0,0,1.32.39l1.23,0,1.2,0-.27,1.47-1.29,0-1.32,0a3.12,3.12,0,0,1-2-.63,2.71,2.71,0,0,1-.6-2v-4.74h-5.64v2.19a8.38,8.38,0,0,1-.29,2.4,6,6,0,0,1-1,1.94,13.71,13.71,0,0,1-2.06,2.08Zm3,3.36a20.91,20.91,0,0,0,1.67,3.65,14.7,14.7,0,0,0,2.29,2.95,15.45,15.45,0,0,0,2.64-3,20.38,20.38,0,0,0,1.89-3.6Z"/><path class="cls-2" d="M822.44,137.15a3.34,3.34,0,0,1,2.5-1,3.27,3.27,0,0,1,2.44,1,3.65,3.65,0,0,1,0,5,3.29,3.29,0,0,1-2.46,1,3.36,3.36,0,0,1-2.52-1,3.48,3.48,0,0,1-1-2.52A3.42,3.42,0,0,1,822.44,137.15Zm.82,4.21a2.22,2.22,0,0,0,1.68.69,2.08,2.08,0,0,0,1.6-.69,2.41,2.41,0,0,0,.65-1.71,2.38,2.38,0,0,0-.66-1.69,2.11,2.11,0,0,0-1.59-.71,2.21,2.21,0,0,0-1.66.71,2.49,2.49,0,0,0,0,3.4Z"/><path class="cls-2" d="M8.07,167.28Q7,170.61,5.7,173.58v20.19H4.17v-17a42.87,42.87,0,0,1-3.24,5.13L0,180.54a39.19,39.19,0,0,0,3.58-6.18,50.71,50.71,0,0,0,2.9-7.5Zm5.4,12.81a57.88,57.88,0,0,1-1.93,5.67A54.78,54.78,0,0,1,9.15,191l-1.47-.57A44.44,44.44,0,0,0,10,185.4c.8-2,1.46-3.91,2-5.67ZM8,177.93a38.59,38.59,0,0,0,3.37-5.44,37.07,37.07,0,0,0,2.48-5.87l1.59.33c-.46,1.36-1,2.72-1.59,4.05H26.73v1.5L24,177.6,22.56,177,25,172.5H13.14a49.51,49.51,0,0,1-3.78,6.3Zm9.15-2.73h1.56v15.27a3.34,3.34,0,0,1-.66,2.34,3.13,3.13,0,0,1-2.31.69,22.07,22.07,0,0,1-3.12-.21l-.3-1.56a20.42,20.42,0,0,0,3,.27,1.81,1.81,0,0,0,1.44-.46,2.43,2.43,0,0,0,.39-1.55ZM23,179.52c1.32,3.12,2.82,6.77,4.5,10.92L26,191q-2.25-5.67-4.44-10.95Z"/><path class="cls-2" d="M56.37,185.67c0,1.06-.12,2.33-.24,3.78a6,6,0,0,1-.45,2.18,2.14,2.14,0,0,1-1.2,1.06,9,9,0,0,1-2.49.45q-3.54.24-6.69.24t-6.69-.24a7.74,7.74,0,0,1-2.69-.57,2.6,2.6,0,0,1-1.34-1.44,7.71,7.71,0,0,1-.41-2.82v-10l-4.32,1.14-.33-1.56,4.65-1.23v-6.39h1.59v6l6.72-1.77v-7.95h1.59v7.53l9.54-2.49q0,2.13-.21,5T53,181.47a7.86,7.86,0,0,1-.57,2.24,2,2,0,0,1-1.08,1,6.37,6.37,0,0,1-2.1.31,17.63,17.63,0,0,1-3-.21l-.3-1.56a15.92,15.92,0,0,0,2.94.27,3.59,3.59,0,0,0,1.42-.21,1.35,1.35,0,0,0,.7-.76,9.2,9.2,0,0,0,.4-1.76,59.86,59.86,0,0,0,.54-7.17l-7.86,2.07v12.66H42.48V176.13l-6.72,1.8v9.93a7.11,7.11,0,0,0,.26,2.25,1.72,1.72,0,0,0,1,1.08,6.42,6.42,0,0,0,2.17.45q3.27.24,6.12.24t6.09-.24a8.15,8.15,0,0,0,2.09-.37,1.46,1.46,0,0,0,.87-.83,6.48,6.48,0,0,0,.28-1.8q.12-1.92.12-3.36Z"/><path class="cls-2" d="M86.1,168.63v1.53H81.78v19.23a7,7,0,0,1-.33,2.45A2,2,0,0,1,80.28,193a7.12,7.12,0,0,1-2.55.34,35.85,35.85,0,0,1-3.93-.18l-.3-1.53a36.55,36.55,0,0,0,4,.24,4.63,4.63,0,0,0,1.71-.24,1.33,1.33,0,0,0,.78-.84,5.79,5.79,0,0,0,.21-1.8V170.16H58.89v-1.53Zm-23.49,6.72H74.16v11.43H62.61Zm1.53,9.93h8.52v-8.4H64.14Z"/><path class="cls-2" d="M101.73,183.06q-5.34,4-9.3,7.08-1,.81-1.62,1.47l-1.08-1.29a5.58,5.58,0,0,0,.65-.79,1.42,1.42,0,0,0,.19-.71V168.33h1.59v20l8.61-6.6Zm0-7.2q-3.18-5.88-4.62-8.37l1.29-.81q1.35,2.28,4.71,8.37Zm12.6,17-6.12-6.9a16.18,16.18,0,0,1-3.73,4,44.8,44.8,0,0,1-6.35,4l-1-1.44a33.92,33.92,0,0,0,7.43-4.92,12.87,12.87,0,0,0,3.46-5.26,31.1,31.1,0,0,0,1.29-7.82q.18-3,.18-7h1.59v1.59q0,3-.15,5.55a45.58,45.58,0,0,1-.6,5.6,17.31,17.31,0,0,1-1.26,4.12l6.54,7.26Z"/><path class="cls-2" d="M117.6,193.23a34.76,34.76,0,0,0,2.07-3.46,28.76,28.76,0,0,0,1.56-3.41l1.44.6a32.82,32.82,0,0,1-1.63,3.57c-.7,1.32-1.37,2.49-2,3.51ZM131,175.65h9.93v9.27H121v-9.27h8.31v-9H131v3.45h12.24v1.59H131Zm-8.37,7.74h16.74v-6.18H122.58Zm4.71,3.48q.33,1.17.75,3t.66,3.21l-1.59.3c-.12-.88-.31-1.91-.55-3.09s-.5-2.22-.74-3.12Zm6.63-.3c.38.84.8,1.87,1.26,3.08s.82,2.23,1.08,3.07l-1.5.42a55.48,55.48,0,0,0-2.25-6.06Zm6.36-.36c.6.94,1.26,2.06,2,3.35s1.32,2.39,1.78,3.31l-1.38.78c-.42-.86-1-1.93-1.72-3.22s-1.43-2.47-2.09-3.53Z"/><path class="cls-2" d="M173.61,180.3H161v10.35h7.92v-7.77h1.59v11H168.9v-1.71h-19V183h1.56v7.68h7.92V180.3H146.79v-1.56h12.63v-5.82H148.74v-1.56h10.68v-5H161v5h10.71v1.56H161v5.82h12.63Z"/><path class="cls-2" d="M202.8,170.55H189.66v5.28q8.7,5,11,6.51l-.9,1.53q-1.47-1-4.43-2.8c-2-1.19-3.86-2.31-5.68-3.35v16.05H188V170.55H176.16v-1.62H202.8Z"/><path class="cls-2" d="M231.72,169.77H219.36a23.81,23.81,0,0,1-1.5,4h12v19.92h-1.56v-2H208.8v2h-1.53V173.79H216a23.25,23.25,0,0,0,1.56-4h-12V168.3h26.16Zm-18.06,5.49H208.8v15.06h4.86Zm1.53,4.05H222v-4.05h-6.78Zm0,5.52H222v-4.11h-6.78Zm6.78,1.41h-6.78v4.08H222Zm1.53,4.08h4.83V175.26H223.5Z"/><path class="cls-2" d="M242.16,166.71q-.54,2.52-1.29,4.95h4.62v20.76h-9.57V171.66h3.21q.39-1.11.78-2.61t.6-2.64Zm-4.71,13.35h6.48v-6.87h-6.48Zm0,1.53v9.27h6.48v-9.27Zm22.65-10.11v1.68c0,2.66-.06,5.51-.18,8.52s-.28,5.63-.48,7.83a6.28,6.28,0,0,1-.49,2.18,2.15,2.15,0,0,1-1.14,1.08,5.89,5.89,0,0,1-2.15.31,22.06,22.06,0,0,1-3.06-.12l-.84-.06-.27-1.62a35.91,35.91,0,0,0,3.93.27,3.29,3.29,0,0,0,1.4-.24,1.55,1.55,0,0,0,.75-.82,6.13,6.13,0,0,0,.37-1.7q.54-5.73.54-13.62V173h-8.19a46.28,46.28,0,0,1-2.16,4.74l-1.38-.93a39.12,39.12,0,0,0,2.33-5.1,54.4,54.4,0,0,0,1.75-5.46l1.56.33q-.78,2.88-1.53,4.89ZM254,185.73q-.93-1.41-2.4-3.39t-2.46-3.15l1.2-.93c.66.78,1.47,1.81,2.45,3.09s1.78,2.4,2.44,3.36Z"/><path class="cls-2" d="M272.22,180.21l-2.94,1.17v9.18a3.25,3.25,0,0,1-.61,2.31,3.11,3.11,0,0,1-2.12.63,15.5,15.5,0,0,1-2.61-.21l-.3-1.53a14.55,14.55,0,0,0,2.49.27,3.54,3.54,0,0,0,1-.16.79.79,0,0,0,.46-.54,4.62,4.62,0,0,0,.12-1.22V182l-3.09,1.23a7.45,7.45,0,0,0-.93.36l-.42-1.5q2-.69,4.44-1.68V174h-3.87v-1.53h3.87v-5.55h1.53v5.55h3V174h-3v5.85l2.67-1.11Zm18.6.06h-3.66a22,22,0,0,1-1.45,4.4A13.56,13.56,0,0,1,283.5,188q2.76,1.68,7.08,4.35l-1,1.38q-.78-.48-1.17-.75l-6.15-3.84a18.75,18.75,0,0,1-4.06,2.57,47.57,47.57,0,0,1-5.9,2.26l-.66-1.59a39.94,39.94,0,0,0,5.34-1.9,19,19,0,0,0,3.81-2.24Q277,186,275.13,185q.93-1.92,2-4.77h-3.84v-1.5h4.38q1-2.64,1.68-5.16L281,174q-.87,2.82-1.59,4.77h11.46ZM275.43,172v3.84H274v-5.31h7.32l-1.62-3.72,1.59-.45q.45,1,1.5,3.6l.24.57h6.66v5.34h-1.5V172Zm8.73,12.18a18.5,18.5,0,0,0,1.38-3.9h-6.72a44.85,44.85,0,0,1-1.74,4.14q1.86.93,5,2.73A11.54,11.54,0,0,0,284.16,184.17Z"/><path class="cls-2" d="M296.49,172.26a39.63,39.63,0,0,1-2.79,5.31l-1.08-1a37.58,37.58,0,0,0,2.43-4.62,43.6,43.6,0,0,0,2-5.25l1.41.36a37,37,0,0,1-1.32,3.75h6.24v1.47Zm6.6,17.1c-1.26.76-2.46,1.52-3.6,2.25l-.84.54a17,17,0,0,0-1.5,1l-.81-1.23a3.48,3.48,0,0,0,.66-.7,1.21,1.21,0,0,0,.15-.62V183.3h-3.93v-1.47h3.93v-4.17h-2.49v-1.5h8.1v1.5h-4.14v4.17h4.44v1.47h-4.44v7.11l4.08-2.64Zm14.73-20.82-.93,22.5h3.27v1.47H302.64V191h3.93l.69-10.41H304v-1.56h3.39l.57-9h-3.3v-1.53Zm-2,12.09h-7L308.1,191h7.23Zm.48-10.56h-6.84l-.57,9h7Z"/><path class="cls-2" d="M332.13,189.66q-5.16,1.23-10.2,2.25l-.15-1.44,1.65-.36v-11h1.32v10.74l2.82-.63V176.88H323.7v-8.49h7.53v8.49H329v4.2h2.76v1.5H329v6.3l3.09-.72Zm-2.28-19.86h-4.74v5.64h4.74Zm7.26-3h1.44v12.63a32.25,32.25,0,0,1-.52,6.48,11.31,11.31,0,0,1-1.86,4.28,17.46,17.46,0,0,1-4,3.7l-1.08-1.17a19.25,19.25,0,0,0,3.53-3.09,9.25,9.25,0,0,0,1.8-3.34,20.12,20.12,0,0,0,.67-4.76q-2.46,2.28-4.56,4l-.75-1.35q3-2.28,5.34-4.41V166.83Zm-1.86,11.1c-.28-.82-.71-1.93-1.29-3.36s-1-2.53-1.41-3.33l1.14-.45c.36.74.83,1.82,1.41,3.23s1,2.53,1.32,3.37Zm14,9.54-.12,2.58a5.81,5.81,0,0,1-.3,1.77,1.5,1.5,0,0,1-.69.83,3.54,3.54,0,0,1-1.29.28,15.9,15.9,0,0,1-2.76,0,3.92,3.92,0,0,1-1.42-.3,1.51,1.51,0,0,1-.74-.84,4.89,4.89,0,0,1-.24-1.74V166.71h1.41v12.54c1.88,1.38,3.85,3,5.91,4.71l-.87,1.2c-1.38-1.3-3.06-2.74-5-4.35v8.94a2.45,2.45,0,0,0,.25,1.34,1.42,1.42,0,0,0,1,.37q.39,0,1.11,0t1.08,0a1.35,1.35,0,0,0,1-.42,2.67,2.67,0,0,0,.3-1.41l.06-1.32q.06-.72.06-1.11Zm-.87-16.35c-.44,1-1,2.17-1.66,3.45s-1.3,2.4-1.88,3.36l-1.17-.69A36.61,36.61,0,0,0,345.5,174c.64-1.27,1.19-2.43,1.63-3.47Z"/><path class="cls-2" d="M363,187.35q-1.32.21-3.9.57V194h-1.5v-5.91q-2.55.36-6.27.84l-.18-1.56q2-.24,6.45-.87v-5.07h-5.25V180q1.2-2.85,2.64-7.41H351.6v-1.47h3.87q.81-2.88,1.29-4.71l1.47.3q-.42,1.77-1.2,4.41h5.67v1.47h-6.12q-1.59,5-2.64,7.41h3.69v-5.49h1.5V180h3.54v1.5h-3.54v4.86c.5-.06,1.27-.16,2.31-.33l1.47-.21Zm15.42-9.09H368.28c-.52,2-.89,3.37-1.11,4.05h9.12v1.5c-1,1.73-2.4,3.88-4.2,6.48q1.26.72,3.81,2.31l-.78,1.35q-2.16-1.35-5.34-3.22t-5.07-2.93l.72-1.32q2.64,1.44,5.34,3c1.12-1.51,2.36-3.42,3.72-5.7h-8.91v-1.5q.57-1.89,1.14-4.05H363v-1.44h4.08q.51-1.95,1-4.26h-3.69v-1.44h4q.45-2.28.81-4.56l1.59.18q-.27,1.68-.84,4.38h7.62v1.44H369.6q-.48,2.22-1,4.26h9.81Z"/><path class="cls-2" d="M381,170.31v-1.56h15.27v1.56h-7.56c-.78,1.36-1.63,2.76-2.53,4.19s-1.7,2.57-2.36,3.43q1.44-.21,3.48-.42l5.85-.72q-1.23-2.37-2.07-3.81l1.26-.66c.5.82,1.14,2,1.9,3.44s1.41,2.73,1.91,3.79l-1.32.69q-.57-1.23-1-2.07-1.86.15-4.56.48v4.74h6.24v1.5h-6.24v5.28l6.72-1,.15,1.56q-3.3.45-7.66,1.08c-2.92.42-5.46.8-7.64,1.14l-.24-1.53,7.11-1v-5.52h-6.27v-1.5h6.27v-4.56l-4.17.48-2,.21-.33-1.38a1.76,1.76,0,0,0,.93-.45c.64-.8,1.43-1.93,2.39-3.39s1.76-2.79,2.44-4Zm17.58-.72h1.5v17.76h-1.5Zm5.73-2.55h1.53v23.13a4.34,4.34,0,0,1-.61,2.63,2.73,2.73,0,0,1-2.12.82,31.9,31.9,0,0,1-3.75-.18l-.3-1.53a34.34,34.34,0,0,0,3.51.21,1.64,1.64,0,0,0,1.37-.55,3.35,3.35,0,0,0,.37-1.85Z"/><path class="cls-2" d="M424.86,182.13a5.26,5.26,0,0,1,1.2,3.57,5.43,5.43,0,0,1-1.95,4.43q-2,1.6-5.79,1.6h-7.08v-22h6.33a9.44,9.44,0,0,1,3.87.74,5.74,5.74,0,0,1,2.52,2,5.29,5.29,0,0,1,.87,3,4.77,4.77,0,0,1-.87,2.88,5.2,5.2,0,0,1-2.52,1.8A6.22,6.22,0,0,1,424.86,182.13ZM413,171.36v8.31h4.26a6.74,6.74,0,0,0,4.17-1.12,3.58,3.58,0,0,0,1.47-3,3.65,3.65,0,0,0-1.5-3,6.74,6.74,0,0,0-4.2-1.16ZM418,190.17a7.57,7.57,0,0,0,4.7-1.21,4.24,4.24,0,0,0,0-6.57,7.23,7.23,0,0,0-4.51-1.22H413v9Z"/><path class="cls-2" d="M431.16,191.73h-1.8v-22h1.8Z"/><path class="cls-2" d="M436,169.77h1.8v20.34h10.89v1.62H436Z"/><path class="cls-2" d="M453.57,191.73h-1.8v-22h1.8Z"/><path class="cls-2" d="M472,182.13a5.26,5.26,0,0,1,1.2,3.57,5.43,5.43,0,0,1-2,4.43q-1.95,1.6-5.79,1.6H458.4v-22h6.33a9.44,9.44,0,0,1,3.87.74,5.74,5.74,0,0,1,2.52,2,5.29,5.29,0,0,1,.87,3,4.77,4.77,0,0,1-.87,2.88,5.2,5.2,0,0,1-2.52,1.8A6.22,6.22,0,0,1,472,182.13ZM460.2,171.36v8.31h4.26a6.74,6.74,0,0,0,4.17-1.12,3.58,3.58,0,0,0,1.47-3,3.65,3.65,0,0,0-1.5-3,6.74,6.74,0,0,0-4.2-1.16Zm4.92,18.81a7.52,7.52,0,0,0,4.69-1.21,4.23,4.23,0,0,0,0-6.57,7.25,7.25,0,0,0-4.51-1.22H460.2v9Z"/><path class="cls-2" d="M478.32,191.73h-1.8v-22h1.8Z"/><path class="cls-2" d="M483.15,169.77H485v20.34h10.89v1.62H483.15Z"/><path class="cls-2" d="M500.73,191.73h-1.8v-22h1.8Z"/><path class="cls-2" d="M512,166.71q-.54,2.52-1.29,4.95h4.62v20.76h-9.57V171.66H509q.39-1.11.78-2.61t.6-2.64Zm-4.71,13.35h6.48v-6.87h-6.48Zm0,1.53v9.27h6.48v-9.27Zm22.65-10.11v1.68c0,2.66-.06,5.51-.18,8.52s-.28,5.63-.48,7.83a6.26,6.26,0,0,1-.5,2.18,2.15,2.15,0,0,1-1.14,1.08,5.8,5.8,0,0,1-2.14.31,22.06,22.06,0,0,1-3.06-.12l-.84-.06-.27-1.62a35.91,35.91,0,0,0,3.93.27,3.24,3.24,0,0,0,1.39-.24,1.55,1.55,0,0,0,.75-.82,6.07,6.07,0,0,0,.38-1.7q.54-5.73.54-13.62V173h-8.19a46.28,46.28,0,0,1-2.16,4.74l-1.38-.93a39.13,39.13,0,0,0,2.32-5.1,54.54,54.54,0,0,0,1.76-5.46l1.56.33q-.78,2.88-1.53,4.89Zm-6.15,14.25q-.93-1.41-2.4-3.39t-2.46-3.15l1.2-.93c.66.78,1.47,1.81,2.44,3.09s1.79,2.4,2.45,3.36Z"/><path class="cls-2" d="M537.42,179.64v1.62h5.31v12.33h-1.47V182.76h-3.87a34.42,34.42,0,0,1-.75,6.48,17.69,17.69,0,0,1-2.07,5l-1.38-.93a15.75,15.75,0,0,0,1.74-3.69,20.08,20.08,0,0,0,.78-4.18q.21-2.35.21-6.23v-12h1.5v8.19h3.84v-8.73h1.47v8.73h2.13v1.5h-7.44Zm23.49,12.84-.81,1.41a29.72,29.72,0,0,1-6.12-5.46,30.12,30.12,0,0,1-6.69,5.61l-1-1.29a28.14,28.14,0,0,0,6.69-5.58,21.55,21.55,0,0,1-2.48-4.65,29.65,29.65,0,0,1-1.51-5.64h-1v.69a50.16,50.16,0,0,1-.32,6.08,24,24,0,0,1-1,4.68,33.72,33.72,0,0,1-2,4.6l-1.26-.87a26,26,0,0,0,2.44-6.52,39.6,39.6,0,0,0,.68-8.09v-7.92c2-.15,4.1-.42,6.37-.79s4.48-.81,6.62-1.31l.3,1.59q-2.76.66-5.93,1.19T548,171v4.35h11.19v1.59a37.35,37.35,0,0,1-1.77,5.84,20.06,20.06,0,0,1-2.52,4.51A26.24,26.24,0,0,0,560.91,192.48Zm-10.5-15.6a23.83,23.83,0,0,0,3.51,9.12,19.1,19.1,0,0,0,2.22-4,29.4,29.4,0,0,0,1.5-5.09Z"/><path class="cls-2" d="M578.46,173.52a34.81,34.81,0,0,0,4.8,8,38,38,0,0,0,7,6.64l-1.11,1.35a38.78,38.78,0,0,1-7.14-7.23,36,36,0,0,1-4.89-8.79h0V187h6.84v1.5h-6.84v5.61h-1.65v-5.61h-6.81V187h6.81V173.58a37.79,37.79,0,0,1-4.71,8.39,54.68,54.68,0,0,1-7.35,7.81l-1.08-1.23a49.39,49.39,0,0,0,7-7.14,36.84,36.84,0,0,0,4.7-7.89H563.64V172h11.79v-5.4h1.65V172H588.9v1.53Z"/><path class="cls-2" d="M595,188.15a3.36,3.36,0,0,1,2.51-1,3.27,3.27,0,0,1,2.44,1,3.65,3.65,0,0,1,0,5,3.29,3.29,0,0,1-2.46,1,3.36,3.36,0,0,1-2.52-1,3.66,3.66,0,0,1,0-5Zm.83,4.21a2.22,2.22,0,0,0,1.68.69,2.1,2.1,0,0,0,1.6-.69,2.41,2.41,0,0,0,.65-1.71,2.38,2.38,0,0,0-.66-1.69,2.11,2.11,0,0,0-1.59-.71,2.23,2.23,0,0,0-1.67.71,2.35,2.35,0,0,0-.67,1.69A2.38,2.38,0,0,0,595.83,192.36Z"/></g></g></svg>