<svg xmlns="http://www.w3.org/2000/svg" viewBox="0 0 1139.05 185.05"><defs><style>.cls-3{fill:#4c4c4c}.cls-4{fill:#fff}.cls-6{opacity:.6}</style></defs><g id="图层_2" data-name="图层 2"><g id="图层_1-2" data-name="图层 1" style="opacity:.3"><rect width="38.89" height="20.23" x="624.74" y="64.85" rx="5.18" style="fill:#1776ff"/><path d="M529.34 27.76q-1.32-1.23-3.48-3t-3.59-2.86l2.82-3.61q4.8 3.74 7.14 5.72Zm2.14 3.45q-.48 1.35-2.26 6.93t-2 6.65l-4.56-1.35q.51-1.2 2.3-6.73T527 29.9Zm1.39-16.47-2.74 3.61c-.87-.77-2-1.74-3.43-2.92s-2.54-2.07-3.36-2.68l2.78-3.65q2.63 1.83 6.75 5.2v-4h25v8.1h-4.41v-3.66h-16.22v3.65h-4.37Zm17.54 16.31a27.6 27.6 0 0 0 4 4.19 37 37 0 0 0 5.22 3.59L557 43.24a38.5 38.5 0 0 1-9.56-9.93v11.87h-4.53V33.79a37.4 37.4 0 0 1-9.56 9.45l-2.66-4.05a43 43 0 0 0 5.18-3.73 31 31 0 0 0 4.22-4.41h-7v-4.37h9.84v-4h4.53v4h10.44v4.37Zm-17.5-8.89a36.4 36.4 0 0 0 4.5-2.8 34 34 0 0 0 4.07-3.36l2.9 3.29a78 78 0 0 1-9 6.63Zm15.72-6.23q2 1.28 4.9 3.19t4.35 3l-2.62 3.65q-1.56-1.23-4.27-3.09c-1.81-1.25-3.41-2.32-4.78-3.22ZM573.63 36.73q-1.54.44-5.45 1.68c-2.61.84-4.69 1.52-6.26 2.05l-1.07-4.88c.82-.19 2.32-.62 4.49-1.31V22.48h-3.57v-4.73h3.57v-9h4.72v9h3.1v4.73h-3.1V32.8q1.71-.48 3.06-1Zm1.63-27.59h4.57v13.38a83 83 0 0 1-.48 9.88 28.2 28.2 0 0 1-1.63 6.83 26.6 26.6 0 0 1-3.29 5.91l-4.17-3a29.3 29.3 0 0 0 3.35-5.42 17.3 17.3 0 0 0 1.33-5.24 87 87 0 0 0 .32-8.83Zm12.66 33.26h-4.6V10.93h4.6Zm3.74 2.23V9.1h4.52v35.53ZM635.75 17.32h-15.16v3.93h12.66v14.21a8 8 0 0 1-.61 3.49 3.37 3.37 0 0 1-1.95 1.71 11.8 11.8 0 0 1-3.75.47 24 24 0 0 1-3.25-.23l-1-4.89a30 30 0 0 0 3.77.28 3.1 3.1 0 0 0 1.27-.2 1 1 0 0 0 .51-.67 7 7 0 0 0 .12-1.55v-8h-7.78v19.19h-4.8V25.89H608V41h-4.8V21.25h12.62v-3.93h-15.19v-4.57h15c-.42-1.21-.93-2.54-1.51-4l5.12-.95a22 22 0 0 1 .86 2.16q.52 1.53.93 2.76h14.68ZM665.13 40.22q4.25 0 10.2-.28l-.67 4.29c-3.13.18-6.47.28-10 .28s-6.93-.1-10.08-.28a18.35 18.35 0 0 1-7.18-1.57 10.7 10.7 0 0 1-4.53-4.19 43 43 0 0 1-1.75 6.39l-3.33-2.22a41 41 0 0 0 1.89-6.94 51 51 0 0 0 .65-8.22h3.41c-.05 2.17-.1 3.78-.15 4.84a11.7 11.7 0 0 0 1.7 3.57V25.38h-6.19v-4.29h4.76v-3.61h-4v-4.25h4V8.5H648v4.73h3.34v4.25H648v3.61h4v4.29h-2.94v3.85h2.62v4.08h-2.62v5.52a18 18 0 0 0 5.88 1.11q5.98.29 10.19.28m-11.87-26.75H652V9.38h12.46v4.09h-1V30l1-.32.6 3.49-1.59.48v5.56h-3.73V34.9q-4.72 1.47-7.22 2.38l-.76-3.93c.29-.05.77-.17 1.43-.35Zm3.74 3.65h2.82v-3.65H657Zm0 7.1h2.82v-3.41H657Zm0 3.78v4l2.82-.83V28Zm13.74-11.87H665V12h9.57v3.93c-.48 2.88-.9 5.26-1.27 7.12a51 51 0 0 1-1.35 5.3c1.48 3.63 2.56 6.35 3.25 8.18l-3.13 2.14-2-5.36a52 52 0 0 1-3.15 5.69l-3-2.62a36 36 0 0 0 4.08-8.23q-2.31-5.79-4.13-9.76l3.28-1.39q1.51 3.38 2.42 5.68.67-2.98 1.16-6.55ZM700.34 27.56a43.4 43.4 0 0 0 13.89 11.11l-2.94 4.41a45.5 45.5 0 0 1-13.41-12.43v14.41h-4.49V30.77a37.2 37.2 0 0 1-5.6 6.55 46 46 0 0 1-7.86 5.68l-3-4.33a47 47 0 0 0 8.12-5.14 36 36 0 0 0 5.85-6h-12.2V23h14.69v-5h-12.15v-4.6h12.15V8.5h4.49v4.93H710V18h-12.1v5h14.64v4.57ZM750.71 45.26a81 81 0 0 1-9.29-4 44.7 44.7 0 0 1-7.07-4.5 42 42 0 0 1-7 4.56 88 88 0 0 1-9.23 4.13l-2.3-5a77 77 0 0 0 8.55-3.4 38.3 38.3 0 0 0 6.33-3.71 30 30 0 0 1-4.62-6.53 46.7 46.7 0 0 1-3.36-8.35h-5.67v-4.68H732c-.53-2.09-1-3.62-1.31-4.6l5.64-.95q.63 1.9 1.55 5.55h13.61v4.69h-5.75a44 44 0 0 1-3.2 8.33 29.8 29.8 0 0 1-4.58 6.59q5.4 3.93 14.84 6.75Zm-22.83-26.79a27.15 27.15 0 0 0 6.36 11.75 22.7 22.7 0 0 0 3.67-5.22 33 33 0 0 0 2.48-6.57ZM768.45 10.05a57 57 0 0 1-3.73 9.17v25.64h-4.92V27.2q-1.44 2-3.61 4.57l-1.91-5.28a53 53 0 0 0 5.5-8.52 53.3 53.3 0 0 0 4-9.43Zm22.67 22c0 1 0 2.19-.1 3.62s-.14 2.52-.22 3.29a6.27 6.27 0 0 1-1.49 4.11 6.56 6.56 0 0 1-4.31 1.48c-1.13.08-2.3.12-3.49.12s-2.34 0-3.53-.12a9.1 9.1 0 0 1-3.3-.78 3.65 3.65 0 0 1-1.78-2 9.8 9.8 0 0 1-.56-3.65v-5.48q-1.71 1.19-4.6 2.94l-2.54-4.53q3.76-2.22 7.14-4.68V8.78h5V22.4a94 94 0 0 0 9.37-9.33l3.61 3.69a108.6 108.6 0 0 1-13 12.23v8a3.76 3.76 0 0 0 .38 2 1.9 1.9 0 0 0 1.41.68c.84.07 1.67.11 2.46.11s1.67 0 2.46-.11a2.37 2.37 0 0 0 1.61-.68 3.23 3.23 0 0 0 .53-1.83l.12-4.2v-2ZM806 9.34a81 81 0 0 1-3.45 8.85v26.87H798V26.41c-1 1.53-2.13 3.11-3.37 4.72l-1.83-5.71a56 56 0 0 0 4.61-7.69 74 74 0 0 0 3.93-9.3Zm24.06 15.8H814.3c-.21.79-.51 1.68-.88 2.66h13.86v4.28q-.64.91-3.81 5-.36.53-.84 1.14l-.71.93q4.13 1.74 5.4 2.3l-2 4.21q-3.5-1.71-8.71-3.95t-9.39-4l1.75-4 8.65 3.57q3-3.69 4-5.2h-13.4v-4c.24-.58.59-1.57 1-3h-5v-4.39h6.31l.83-3.17h-5.12v-4.41h6.11c.37-1.61.69-3.24 1-4.88l4.84.39c-.43 2.25-.73 3.75-.91 4.49h11.31v4.41h-12.27l-.79 3.17h14.53ZM860.78 34a25 25 0 0 0 3.69 3 46 46 0 0 0 4.84 2.75L867.25 44a35.4 35.4 0 0 1-8.61-7v8.17h-4.37V37a44.9 44.9 0 0 1-9 7.51l-2.46-4.09a40 40 0 0 0 9.36-6.42h-7.31v-3.94h9.41v-2.38H848V15.73h-2.74v3.65a82 82 0 0 1-1 8.38 33 33 0 0 1-1.79 6.35q1.71 1.5 3.18 3l-3 3.46-2.34-2.34A42.8 42.8 0 0 1 834.5 45l-3.29-3.49a39.5 39.5 0 0 0 5.71-6.39c-1.5-1.32-3-2.55-4.44-3.69q1.15-5.2 2-12.07h-2.54v-4.15h3q.36-3.65.48-6.86l4.28.35c-.1 1.86-.29 4-.55 6.51h5.75v-3.49h3.1V8.58h4.33v3.14h8.49V8.58h4.29v3.14h3.21v4h-3.21v12h-6.43v2.38h9.56V34ZM839 31.25a23.8 23.8 0 0 0 1.41-5.1c.3-1.87.53-4.12.69-6.77h-2.5q-.79 6.2-1.63 10.28c.83.58 1.5 1.11 2.03 1.59m21.75-13.14v-2.38h-8.49v2.38Zm0 3.49h-8.49v2.31h8.49ZM906.94 16.72H886.1c-.63 1.14-1.2 2.09-1.7 2.86h18.81v20.36a5.92 5.92 0 0 1-1.05 3.91 4.49 4.49 0 0 1-3.55 1.21c-1.83 0-3.64-.08-5.44-.23l-.87-4.37a35 35 0 0 0 4.52.32 1.59 1.59 0 0 0 1.33-.46 3 3 0 0 0 .34-1.69v-1h-16.4V45h-4.68V28.19a56 56 0 0 1-4.76 4.17l-2.27-4.8a45.2 45.2 0 0 0 10.13-10.84h-8.42v-4.48H883a40 40 0 0 0 1.62-4l5.13.59c-.48 1.22-1 2.36-1.43 3.42h18.61Zm-24.85 9.93h16.4v-2.82h-16.4Zm0 4v2.9h16.4v-2.9ZM922.86 13.86l-2.58 8.34a17.9 17.9 0 0 1 2.72 9.41c0 2.41-.4 4.07-1.21 5A4.92 4.92 0 0 1 917.9 38a11.5 11.5 0 0 1-1.63-.12l-.87-4.33a7.2 7.2 0 0 0 1.78.2 1.28 1.28 0 0 0 1.23-.65 5.55 5.55 0 0 0 .36-2.41 11.3 11.3 0 0 0-.67-3.55 16.7 16.7 0 0 0-2-4l2.38-9.21H915v31h-4.25V9.7h12.07Zm23.66 26.4-2.66 4.05a24.9 24.9 0 0 1-8-6.41 28.1 28.1 0 0 1-4.55-9.51h-2.58V39l5-2.18.67 4.48q-4.49 1.71-7.26 3l-1 .52a5.4 5.4 0 0 0-.92.43l-2-4.09a2 2 0 0 0 1-.75 3.15 3.15 0 0 0 .2-1.31V9.82h19v18.57h-7.78a28 28 0 0 0 2 4.41 54 54 0 0 0 5.32-4l2.46 3.41a73 73 0 0 1-5.48 3.65 19.8 19.8 0 0 0 6.58 4.4M939 17v-3.1h-10.27V17Zm0 4.21h-10.27v3H939ZM964.46 10.49a48.3 48.3 0 0 1-13.14 19.09L948 25.81A38.13 38.13 0 0 0 959.89 9Zm8.37 18.1q2 2.86 4.65 7c1.75 2.73 3.25 5.19 4.52 7.36l-4.2 2.5-2.07-3.65-6.23.63-5.66.56q-2.83.27-5.69.59l-5.2.52-1.43-4.88a5.5 5.5 0 0 0 1.63-.56 4.6 4.6 0 0 0 1.23-1.07 62 62 0 0 0 4.58-7q2.56-4.45 4.63-9l4.72 1.86q-1.95 4.21-4.33 8.38c-1.58 2.77-3.11 5.2-4.56 7.26l13.73-1.51c-1.74-2.8-3.16-4.95-4.24-6.43Zm-.19-20a39.2 39.2 0 0 0 5 9.71 29.9 29.9 0 0 0 7.5 6.85l-3.1 4.05a39.6 39.6 0 0 1-8.29-8.12 40.8 40.8 0 0 1-5.52-11ZM988 17.4h26.16V22H988Zm33.34 22.15a6.36 6.36 0 0 1-1.11 4.18 4.67 4.67 0 0 1-3.65 1.33q-3.42 0-6.35-.27l-1-4.73c1.67.21 3.43.35 5.28.4a1.51 1.51 0 0 0 1.43-.68 4.54 4.54 0 0 0 .4-2.22v-23h-26.72V9.82h31.68Zm-10.4.07h-20.36V24.7h20.32Zm-15.36-10.28V35h10.32v-5.66Z"/><path d="M531 75.21v6.43h-1.19v-6.43h-7.9V74.1h7.9v-7.65h-6.65v-1.1h14.45v1.1H531v7.65h7.9v1.11Zm-6.84-6.82 1-.49q1.59 2.5 2.57 4.33l-1 .58c-.73-1.47-1.61-2.94-2.56-4.42Zm11.56-.49 1 .49q-1.38 2.52-2.68 4.46l-1-.55a41 41 0 0 0 2.69-4.4ZM554.79 80.31h-11.94v1.27h-1.13V69.06h5.18c.42-1 .78-1.87 1.05-2.65h-7.55v-1h16.87v1h-8.07c-.35 1-.71 1.83-1.08 2.65h7.82v12.52h-1.15Zm-9-1V70h-2.91v9.27Zm5-6.82V70h-4v2.45Zm0 3.39V73.4h-4v2.48Zm0 3.43v-2.53h-4v2.53Zm4 0V70h-2.91v9.27ZM558.64 70.34h3.46v8.1c.79-.69 1.52-1.39 2.19-2.09l.51 1a40 40 0 0 1-3.59 3.23l-.68-.87a1.7 1.7 0 0 0 .34-.61 2.7 2.7 0 0 0 .1-.72v-7h-2.33Zm1.18-5 .9-.67q1.28 1.3 2.76 3l-.89.77c-.98-1.17-1.91-2.22-2.77-3.12Zm10.69 12.76a19 19 0 0 0 5.29 2.33l-.57 1.09a21.8 21.8 0 0 1-5.67-2.68 22 22 0 0 1-5.8 2.83l-.6-1a23 23 0 0 0 5.5-2.57 14.5 14.5 0 0 1-3.12-4.1l.92-.57a13.5 13.5 0 0 0 3.12 4 11.6 11.6 0 0 0 3.14-4.15h-8.3v-1H574v1.06a13.6 13.6 0 0 1-3.49 4.76m-4.2-12.93h6.63v3.32a1.16 1.16 0 0 0 .24.93 1.35 1.35 0 0 0 .91.28h1.76l-.21 1.06h-1.85a2.26 2.26 0 0 1-1.53-.46 1.77 1.77 0 0 1-.46-1.43V66.2h-4.38v1.33a4.6 4.6 0 0 1-.64 2.24 6.8 6.8 0 0 1-2.06 1.72l-.78-.83a5.7 5.7 0 0 0 1.86-1.47 3.4 3.4 0 0 0 .52-1.93c.02-.68.02-1.38-.01-2.09M577.1 70.38h3.83v8.42c1-.74 1.89-1.52 2.8-2.34l.51 1.06Q581.78 79.65 580 81l-.78-1a2.2 2.2 0 0 0 .44-.51 2.1 2.1 0 0 0 .11-.74v-7.28h-2.67Zm1.45-5 .89-.71q1.47 1.35 3.06 3l-.85.81q-1.73-1.85-3.1-3.15Zm10.64 6.48v9.77H588v-9.82h-5v-1.13h5v-6.46h1.19v6.46h5.1v1.13ZM599.78 64.28h1.1v7.31a20.1 20.1 0 0 1-.64 5.83 8.5 8.5 0 0 1-1 2.16 14.4 14.4 0 0 1-1.78 2.07l-.94-.68a9.4 9.4 0 0 0 2.81-4.25 11 11 0 0 0 .36-1.92 32 32 0 0 0 .13-3.21ZM596.55 66h1v10.46h-1Zm11.24 4.46v11.12h-1.07V70.49h-2.82v8.44h-1v-9.44h3.86v-3H602v-1h10.52v1h-4.76v3h3.93v7.44a2.05 2.05 0 0 1-.41 1.4 2.1 2.1 0 0 1-1.34.45h-1.38l-.19-1a10 10 0 0 0 1.23.07 1.4 1.4 0 0 0 .81-.21 1.1 1.1 0 0 0 .23-.79v-6.36Z" class="cls-3"/><path d="M643.67 76.76v.94h-5.26a23.8 23.8 0 0 1 4.88 3.07l-.72.81a24.6 24.6 0 0 0-5.18-3.37 6.82 6.82 0 0 1-4 3 14 14 0 0 1-1.41.39 2.9 2.9 0 0 0-.61-.94c2.29-.48 3.86-1.3 4.73-2.43a5 5 0 0 0 .32-.5h-5.22v-.94h5.63a16.6 16.6 0 0 0 .59-4.5v-.54h1.13a22.7 22.7 0 0 1-.57 5ZM632.54 71v1.9h-1.07V70h5.32v-1.69h1.15V70h5.4v2.9h-1.11V71Zm-.34 3.67.62-.72a9.9 9.9 0 0 1 2.28 1.61l-.66.81a9.3 9.3 0 0 0-2.24-1.72Zm4.24-1.33-.69.76a8.5 8.5 0 0 0-2-1.6l-.1-.06.66-.68a8.7 8.7 0 0 1 2.13 1.56ZM654.54 75.65l.2 1q-2.82 1-8.49 3l-.39-1.1q3.21-.99 8.68-2.9m2.66-6.28V70c-.06 5.18-.19 8.36-.37 9.53a3.1 3.1 0 0 1-.38 1.25 1.49 1.49 0 0 1-1.1.68h-.11a17 17 0 0 1-2.33 0 1.9 1.9 0 0 0-.35-1c.7 0 1.46.07 2.29.07a.77.77 0 0 0 .59-.23c.27-.3.46-1.69.55-4.16 0-1.26.09-3.15.12-5.69h-10v-1Zm-9.47 2.95.72-.71a34 34 0 0 1 3.86 2.91l-.77.84a36 36 0 0 0-3.81-3.04" class="cls-4"/><path d="M527.2 118.84v3.35h-.6V119c-1.56.37-3.12.7-4.69 1l-.15-.62 1.31-.23v-10.29h-1.13v-.58h6.36v.58h-1.1v9.38l1.25-.31.08.59c-.59.15-1.03.26-1.33.32m-.6-7.12v-2.86h-2.94v2.86Zm0 3.4v-2.85h-2.94v2.85Zm0 3.26v-2.72h-2.94V119Zm4.18-1.19.59.26a25.6 25.6 0 0 1-2.78 4.74l-.54-.37a23.3 23.3 0 0 0 2.73-4.63m4.64-1.58h-6.06v-7.21h6.06Zm-.62-.61v-6H530v6Zm-1.47 2.47.56-.29q1.43 2.2 2.68 4.56l-.56.32q-1.15-2.16-2.68-4.59M545.66 113.07h7v.56h-14.55v-.56H545v-1.61h-5.23v-.54H545v-1.62h-6v-.54h6v-1.62h.65v1.62h6.07v.54h-6.07v1.62h5.27v.54h-5.27Zm-.27 5.71q2.8 1.13 6.71 2.84l-.26.57q-3.89-1.69-6.75-2.87c-.82 1.3-3 2.27-6.55 2.89l-.25-.59a16.3 16.3 0 0 0 4.91-1.45 3.38 3.38 0 0 0 1.78-2.29c0-.35.06-.77.1-1.26h.65l-.12 1.31a5 5 0 0 1-.22.85m-5.1-3.5h10.11v4.2h-.63v-3.65h-8.85v3.7h-.63ZM556.18 112.76a.57.57 0 0 1 .42.17.62.62 0 0 1 .17.4.65.65 0 0 1-.17.43.57.57 0 0 1-.42.16.51.51 0 0 1-.39-.16.58.58 0 0 1-.18-.43.54.54 0 0 1 .16-.4.52.52 0 0 1 .41-.17m0 6.85a.6.6 0 0 1 .42.16.6.6 0 0 1 .17.43.64.64 0 0 1-.17.41.57.57 0 0 1-.42.16.51.51 0 0 1-.39-.16.57.57 0 0 1-.18-.41.6.6 0 0 1 .16-.43.52.52 0 0 1 .41-.16M568.33 108.81H575v.59l-2.76 2.69h4v6.64h-.66v-6h-9.09v6h-.65v-6.64h5.56c1.22-1.22 2.12-2.11 2.71-2.68h-6.24a20.6 20.6 0 0 1-3.81 3.43l-.43-.5a18.7 18.7 0 0 0 2.91-2.42 18 18 0 0 0 2.26-2.85l.65.22c-.4.55-.76 1.06-1.12 1.52m2.56 9c2 1 4.26 2.29 6.84 3.76l-.3.6q-4.26-2.44-6.8-3.79-1.27 2.54-6.57 3.88l-.28-.63a12 12 0 0 0 5.43-2.5 4.5 4.5 0 0 0 1.06-1.55 6 6 0 0 0 .38-1.8q0-.61.06-1.86h.64c0 .51 0 1.16-.08 1.94a6.3 6.3 0 0 1-.38 1.92ZM587.06 113.07h7v.56h-14.55v-.56h6.9v-1.61h-5.23v-.54h5.23v-1.62h-6v-.54h6v-1.62h.65v1.62h6.07v.54h-6.07v1.62h5.27v.54h-5.27Zm-.27 5.71q2.81 1.13 6.71 2.84l-.26.57q-3.88-1.69-6.75-2.87c-.82 1.3-3 2.27-6.55 2.89l-.25-.59a16.3 16.3 0 0 0 4.91-1.45 3.38 3.38 0 0 0 1.78-2.29c0-.35.06-.77.1-1.26h.65c0 .11 0 .55-.11 1.31a5 5 0 0 1-.23.85m-5.1-3.5h10.11v4.2h-.63v-3.65h-8.85v3.7h-.63ZM604.66 116.16v3.52a1.38 1.38 0 0 0 .31 1 1.65 1.65 0 0 0 1.06.36 10 10 0 0 0 1.37 0 2.8 2.8 0 0 0 1.21-.33 1.37 1.37 0 0 0 .51-.91c0-.3.1-.76.16-1.37l.61.18c-.07.61-.13 1.1-.2 1.47a1.65 1.65 0 0 1-.67 1.14 3.55 3.55 0 0 1-1.54.41 14 14 0 0 1-1.58 0 2.3 2.3 0 0 1-1.46-.49 2 2 0 0 1-.44-1.42v-3.6h-3.09v1a5.2 5.2 0 0 1-1.39 3.16 8.3 8.3 0 0 1-3.62 1.86l-.31-.59a8.4 8.4 0 0 0 3.31-1.55 4.32 4.32 0 0 0 1.29-2.76c0-.2 0-.55.07-1h-4.49v-.6h13.74v.6Zm-1.49-7h6V112h-.65v-2.29h-11.7v2.35h-.64v-3h6.31c-.27-.7-.54-1.33-.8-1.88l.67-.14c.3.8.58 1.47.81 2.09Zm-5.33 3.19h9.58v.61h-9.58ZM621.64 118.24a1.4 1.4 0 0 1 .06.16 8.5 8.5 0 0 0 .93 1.88c.48.68.93 1 1.36 1a.93.93 0 0 0 .44-.18 1.6 1.6 0 0 0 .39-.68 16 16 0 0 0 .53-2.19l.58.21a18 18 0 0 1-.55 2.22c-.3.88-.75 1.32-1.37 1.32a2 2 0 0 1-1.57-.86 6.5 6.5 0 0 1-1.13-1.93c0-.11-.09-.22-.15-.34a20 20 0 0 1-3.35 3l-.41-.49a19.8 19.8 0 0 0 3.52-3.22 17.4 17.4 0 0 1-.66-2.67 40 40 0 0 1-.54-4.51h-6.21v2.88h4.24l-.12 4.08a2.34 2.34 0 0 1-.49 1.57 2.2 2.2 0 0 1-1.47.48 13 13 0 0 1-1.32-.07l-.07-.64a7 7 0 0 0 1.29.09 1.83 1.83 0 0 0 1.1-.32 1.72 1.72 0 0 0 .32-1.17c0-1.15.09-2.29.12-3.43h-3.6v.31a17 17 0 0 1-.39 4 12.7 12.7 0 0 1-1.49 3.37l-.57-.38a10.9 10.9 0 0 0 1.42-3.15 17 17 0 0 0 .38-3.88v-4.34h6.83c0-.71-.09-1.79-.13-3.24h.65c0 1.06.09 2.11.13 3.15v.09h5.28v.6h-5.24a34 34 0 0 0 .45 4.12 24 24 0 0 0 .58 2.44 23 23 0 0 0 2.6-4.83l.57.25a23.3 23.3 0 0 1-2.78 5.06Zm.06-10.24.39-.48c.53.41 1.27 1 2.24 1.88l-.37.48a25 25 0 0 0-2.26-1.88M626.81 112.57h2.81v7.58a26 26 0 0 0 2.08-2.08l.33.58a35 35 0 0 1-2.93 2.76l-.39-.49a1.5 1.5 0 0 0 .21-.39 2.7 2.7 0 0 0 .08-.53v-6.85h-2.18Zm1.08-4.55.52-.39c.74.77 1.53 1.64 2.37 2.6l-.5.44c-.84-.98-1.64-1.86-2.39-2.67Zm8.94 11.22a18.2 18.2 0 0 0 4.79 2.27l-.33.62a18 18 0 0 1-5-2.47 19.7 19.7 0 0 1-5.18 2.6l-.34-.59a20.8 20.8 0 0 0 5-2.43 12 12 0 0 1-2.88-3.9l.56-.29a11.1 11.1 0 0 0 2.86 3.78 10.4 10.4 0 0 0 2.91-4h-7.41v-.59h8.13v.61a11.2 11.2 0 0 1-3.09 4.33Zm-3.22-11.17h5.44v3a1.1 1.1 0 0 0 .25.85 1.33 1.33 0 0 0 .83.28h1.52l-.13.64a15 15 0 0 1-1.55 0 1.94 1.94 0 0 1-1.25-.41 1.57 1.57 0 0 1-.32-1.16v-2.58h-4.13v1.43a3.83 3.83 0 0 1-.54 1.92 5.2 5.2 0 0 1-1.75 1.44l-.44-.48a4.9 4.9 0 0 0 1.62-1.29 3 3 0 0 0 .47-1.72ZM643.17 112.55h3.17v7.62c.78-.59 1.64-1.31 2.6-2.16l.31.59q-1.68 1.5-3.48 2.91l-.44-.56a1 1 0 0 0 .29-.39 1.6 1.6 0 0 0 .07-.54v-6.85h-2.52Zm1.29-4.53.5-.44c1 1 1.93 1.85 2.66 2.62l-.48.45c-.94-.94-1.84-1.82-2.68-2.65Zm9 5.61v8.53h-.67v-8.53h-4.48V113h4.48v-5.85h.67V113H658v.64ZM662.85 107.21h.64v6.16a18.8 18.8 0 0 1-.48 4.95 7 7 0 0 1-.91 2 14.6 14.6 0 0 1-1.62 1.89l-.54-.4a8.43 8.43 0 0 0 2.45-3.6 10 10 0 0 0 .34-1.93 29 29 0 0 0 .12-2.89Zm-2.85 1.55h.58v8.94H660Zm9.41 3.63v9.77h-.62v-9.77H666v7.43h-.61v-8h3.4v-2.86h-4.2v-.59h9.14v.59h-4.32v2.86h3.48v6.39a1.57 1.57 0 0 1-.34 1.14 1.8 1.8 0 0 1-1.14.38h-1.2l-.11-.61c.44 0 .82.05 1.13.05a1.65 1.65 0 0 0 .83-.21 1.22 1.22 0 0 0 .21-.79v-5.73ZM676.54 116.78l.57.26a23 23 0 0 1-2 3.91l-.55-.31a21.2 21.2 0 0 0 1.98-3.86m10.67-1.61h-10.66v-5.33h3.27a28 28 0 0 0-1.63-2.46l.6-.22a31 31 0 0 1 1.8 2.68h2.65a30 30 0 0 0 1.78-2.7l.64.21q-.88 1.45-1.65 2.49h3.2Zm-10-.61h9.35v-4.1h-9.35Zm1.32 2.21h.64v2.78a1.6 1.6 0 0 0 .34 1.14 1.54 1.54 0 0 0 1.08.36 30 30 0 0 0 3 0 2 2 0 0 0 1.07-.26 1.11 1.11 0 0 0 .49-.82c.1-.49.18-1 .23-1.45l.62.18a13 13 0 0 1-.27 1.56 1.76 1.76 0 0 1-.67 1 2.8 2.8 0 0 1-1.39.36q-1.62.06-3.21 0a1.75 1.75 0 0 1-1.91-2Zm2.39-.57.49-.32c.68.81 1.37 1.62 2 2.44l-.52.39Zm5.23.83.52-.3a42 42 0 0 1 2.47 3.42l-.54.34c-.87-1.34-1.69-2.49-2.45-3.49ZM703.34 120.92h1.94v.57h-14.79v-.57h2V116h10.89ZM692 108.09h.62v6.34H692Zm3.88 12.83v-4.37h-2.8v4.37Zm-.59-13.73h.62V115h-.62Zm4 13.73v-4.37h-2.78v4.37Zm.24-11.13h5.57v.57h-5.83a20.5 20.5 0 0 1-2 3.45l-.5-.39a20.4 20.4 0 0 0 3-6.26l.64.13a22 22 0 0 1-.88 2.5m3.19 11.13v-4.37h-2.83v4.37ZM700 112l.43-.42c.86.73 1.81 1.61 2.86 2.65l-.42.45c-.99-.99-1.94-1.88-2.87-2.68M713.62 109.2v13h-.7v-13h-6.34v-.64h14.56v.64Zm.79 4.13.39-.52c1.89 1.14 3.58 2.23 5.08 3.29l-.4.57q-2.38-1.67-5.07-3.34M731.23 119l.18.11a19.8 19.8 0 0 0 5.28 2.24l-.33.67a20.5 20.5 0 0 1-5.67-2.63 14.4 14.4 0 0 1-2.24 1.31 34 34 0 0 1-3.83 1.49l-.29-.63a21.6 21.6 0 0 0 5.84-2.56 10.2 10.2 0 0 1-3.27-4.33 22 22 0 0 1-4.56 6.47l-.41-.59a20.1 20.1 0 0 0 3.28-4.12 19.3 19.3 0 0 0 2.08-4.8h-4.42V111a32 32 0 0 0 1.31-3.18l.62.19c-.33.92-.73 1.91-1.21 3h3.88c.31-1.2.57-2.48.78-3.83l.67.07c-.21 1.3-.46 2.55-.77 3.76h8.3v.62H728c-.23.79-.49 1.55-.78 2.31h7.34v.57a10.9 10.9 0 0 1-3.3 4.49Zm-.54-.38a9.67 9.67 0 0 0 3.12-4.12h-6.36a10.6 10.6 0 0 0 1.49 2.47 9 9 0 0 0 1.75 1.69Zm1-10.69.44-.39c1.11.91 2 1.63 2.59 2.17l-.44.45c-.97-.86-1.83-1.6-2.58-2.16ZM739.46 120.33v1.6h-.64V110h1.65a25 25 0 0 0 1.1-2.81l.65.15c-.27.8-.62 1.68-1 2.66h2.94v11.79h-.64v-1.44Zm0-5.46h4v-4.26h-4Zm0 4.84h4v-4.22h-4Zm7.5-9.78h4.74l-.21 9.22a2.92 2.92 0 0 1-.62 2 2.47 2.47 0 0 1-1.85.67c-.73 0-1.44 0-2.12-.09l-.08-.69c.88.07 1.57.11 2.07.11a2 2 0 0 0 1.47-.49 2.4 2.4 0 0 0 .49-1.6c.07-2.9.13-5.74.2-8.51h-4.36a23 23 0 0 1-1.54 2.74l-.56-.33a20.5 20.5 0 0 0 2.7-5.81l.62.18a48 48 0 0 1-.91 2.6Zm-1.14 4 .51-.33c.62.82 1.4 1.88 2.35 3.19l-.54.39c-.63-.92-1.41-2-2.32-3.18ZM753.63 112.57h2.81v7.58a26 26 0 0 0 2.08-2.08l.32.58a34 34 0 0 1-2.92 2.76l-.4-.49a1.5 1.5 0 0 0 .22-.39 2.6 2.6 0 0 0 .06-.49v-6.85h-2.17Zm1.08-4.55.52-.39c.74.77 1.53 1.64 2.37 2.6l-.51.44c-.84-.98-1.63-1.86-2.38-2.67Zm8.94 11.22a18.2 18.2 0 0 0 4.79 2.27l-.33.62a18 18 0 0 1-5-2.47 19.7 19.7 0 0 1-5.18 2.6l-.35-.59a21 21 0 0 0 5-2.43 11.9 11.9 0 0 1-2.88-3.9l.55-.29a11.2 11.2 0 0 0 2.86 3.78 10.2 10.2 0 0 0 2.91-4h-7.4v-.59h8.12v.61a11 11 0 0 1-3.09 4.33Zm-3.22-11.17h5.44v3a1.15 1.15 0 0 0 .24.85 1.34 1.34 0 0 0 .84.28h1.52l-.13.64a15 15 0 0 1-1.56 0 1.93 1.93 0 0 1-1.24-.41 1.57 1.57 0 0 1-.33-1.16v-2.58h-4.13v1.43a4 4 0 0 1-.54 1.92 5.3 5.3 0 0 1-1.75 1.44l-.44-.48a4.76 4.76 0 0 0 1.65-1.3 3 3 0 0 0 .48-1.72ZM770 112.55h3.17v7.62c.77-.59 1.64-1.31 2.6-2.16l.31.59q-1.68 1.5-3.48 2.91l-.44-.56a1 1 0 0 0 .29-.39 1.9 1.9 0 0 0 .07-.54v-6.85H770Zm1.29-4.53.49-.44c1.05 1 1.94 1.85 2.67 2.62l-.48.45c-.97-.94-1.85-1.82-2.69-2.65Zm9 5.61v8.53h-.67v-8.53h-4.48V113h4.48v-5.85h.67V113h4.56v.64ZM789.25 110.72v11.47h-.66V112a23 23 0 0 1-2.28 3.47l-.36-.58a25.6 25.6 0 0 0 4-7.71l.63.21a34 34 0 0 1-1.33 3.33m6.88 9.86h4.25v.65h-9.12v-.65h4.22V115h-4.76v-.63h4.76v-4.94c-1.28.12-2.59.21-3.93.26l-.11-.65a65 65 0 0 0 8.38-.77l.18.62c-1.14.19-2.43.35-3.87.49v5h4.67v.62h-4.67ZM810.72 112.66a23.4 23.4 0 0 0 6.52 1.69l-.2.64a25 25 0 0 1-6.73-1.83L810 113a29.1 29.1 0 0 1-7.39 2.27l-.22-.6a29 29 0 0 0 7-2.06A13.6 13.6 0 0 1 806 110a21 21 0 0 1-2.47 2.12l-.44-.47a16.2 16.2 0 0 0 4.43-4.58l.63.21a10 10 0 0 1-1 1.47H815v.56a16.2 16.2 0 0 1-4.28 3.35m-1.72 3.67h6.06c-.08 1.12-.15 2.24-.23 3.36a2.25 2.25 0 0 1-.69 1.64 3.75 3.75 0 0 1-2 .5c-.5 0-1.22 0-2.16-.08v-.64c.9.07 1.62.1 2.15.09a2.67 2.67 0 0 0 1.52-.35 1.75 1.75 0 0 0 .54-1.22c.07-.67.13-1.57.2-2.72h-5.51a6.27 6.27 0 0 1-1.9 3.35 10.5 10.5 0 0 1-3.85 1.94l-.31-.6a10.3 10.3 0 0 0 3.59-1.73 5.63 5.63 0 0 0 1.82-3h-4.66v-.58h4.77a13 13 0 0 0 .16-1.77h.66a16 16 0 0 1-.16 1.81m1-4a16.4 16.4 0 0 0 4.12-3h-7.47l-.22.24a13 13 0 0 0 3.57 2.75ZM818.86 122.29a1.82 1.82 0 0 0 .85-1.54h-.08a.55.55 0 0 1-.4-.18.53.53 0 0 1-.16-.39.56.56 0 0 1 .15-.41.51.51 0 0 1 .41-.16.49.49 0 0 1 .42.18 1 1 0 0 1 .18.6 3 3 0 0 1-.24 1.23 2.45 2.45 0 0 1-.85.93ZM836.41 110.28h4.25v.64h-3.24v4.44h4v.64h-4v6.15h-.65V116h-5a7.8 7.8 0 0 1-1 3.53 10.4 10.4 0 0 1-2.9 2.78l-.49-.49a10.1 10.1 0 0 0 2.77-2.56 7.05 7.05 0 0 0 .94-3.26h-4.26v-.62h4.3v-4.4399999999999995h-3.5v-.64H832c-.6-1-1.2-2-1.8-2.8l.59-.24c.72 1 1.37 2 2 3h3a27 27 0 0 0 1.85-3.11l.62.25a25 25 0 0 1-1.85 2.88m.36 5.08v-4.44h-4.95v4.44ZM853.81 120.74h2.67v.6h-14.81v-.6h2.66V108.1h9.48Zm-.68-8.3v-3.73H845v3.73Zm0 4.16V113H845v3.58Zm0 4.14v-3.55H845v3.55ZM862.33 115.92q1.63 2.44 2.53 3.87l-.52.41q-.78-1.28-2.34-3.63a19 19 0 0 1-3.53 4.79l-.42-.52a17 17 0 0 0 3.53-4.86q-1.73-2.53-2.8-4l.51-.36c.7.94 1.56 2.16 2.6 3.67a23 23 0 0 0 1.55-5.74h-4.82v-.62h5.49v.62a24.8 24.8 0 0 1-1.78 6.37m8.35-4.6v8.45a2.3 2.3 0 0 1-.44 1.59 2.26 2.26 0 0 1-1.52.49c-.65 0-1.3 0-1.93-.08l-.1-.67c.66.06 1.28.1 1.88.1a1.72 1.72 0 0 0 1.15-.35 1.85 1.85 0 0 0 .31-1.19v-8.34h-5.4v-.62H870v-3.36h.65v3.36h2.18v.62Zm-5.57 2.05.54-.28q1.27 1.88 2.3 3.71l-.57.33c-.68-1.2-1.38-2.46-2.27-3.76M877.25 115.57v4.78a1.7 1.7 0 0 1-.33 1.14 1.62 1.62 0 0 1-1.16.39h-1.16l-.11-.64h1.13a1.1 1.1 0 0 0 .78-.22 1.17 1.17 0 0 0 .21-.78v-4.43l-2.17.77-.18-.64 2.35-.8v-3.92h-2.07v-.61h2.07v-3.48h.64v3.48H879v.61h-1.78v3.69l1.83-.72.13.59c-.62.29-1.28.55-1.93.79m9.68 1a7.36 7.36 0 0 1-2.1 3.17c1.46.63 2.75 1.22 3.85 1.75l-.28.59q-1.49-.75-4.11-1.91a14.9 14.9 0 0 1-5.49 2.07l-.27-.59a15.3 15.3 0 0 0 5.08-1.78c-1.4-.58-2.53-1-3.42-1.39a19 19 0 0 0 1.31-1.91h-2.63V116h3c.24-.41.58-1 1-1.86l.61.21c-.09.16-.39.71-.92 1.65h6.52v.57Zm-1.31-3.61h3.27v.6h-9.83v-.6h3.09c-.45-1-.86-1.79-1.22-2.42l.57-.2c.38.69.82 1.56 1.31 2.62h2.12c.54-1 1-1.86 1.34-2.66l.59.22c-.41.85-.86 1.66-1.24 2.39Zm-1.16-3.71h3.95v.57h-8.94v-.57h4.32c-.27-.8-.52-1.46-.74-2l.62-.15c.25.58.52 1.29.79 2.1Zm1.78 7.32h-4a14 14 0 0 1-1.13 1.65c1.15.44 2.18.85 3.09 1.25a6.8 6.8 0 0 0 2.04-2.95ZM898.81 114.74l.21.08a24.4 24.4 0 0 0 6.41 1.36l-.16.62a27.3 27.3 0 0 1-6.59-1.47l-.61-.25a34.6 34.6 0 0 1-7.18 2l-.2-.6a33.4 33.4 0 0 0 6.69-1.77 12.5 12.5 0 0 1-3-2.07 17 17 0 0 1-2.16 1.65l-.36-.47a14.1 14.1 0 0 0 4-3.78l.61.24c-.18.27-.48.65-.9 1.15h7.35v.57a15.1 15.1 0 0 1-4.11 2.74m0-5.82h5.81v2.71H904v-2.12h-11.8v2.11h-.64v-2.7h6.55c-.21-.46-.5-1-.86-1.68l.6-.2c.26.53.58 1.15.94 1.88Zm3.37 12.34h-8.22v1h-.64v-4.94h9.5v4.94h-.64Zm0-.57v-2.83h-8.22v2.83Zm-4.09-6.26A16 16 0 0 0 902 112h-7l-.25.23a14.2 14.2 0 0 0 3.32 2.2ZM918.71 115.21h-9.92a14.6 14.6 0 0 1-.56 3.71 10 10 0 0 1-1.75 3.27l-.54-.42a11.6 11.6 0 0 0 1.74-3.34 16.5 16.5 0 0 0 .44-4.25v-4.47h5.62c-.36-.89-.72-1.72-1.08-2.5l.64-.2c.41.87.8 1.77 1.16 2.7h4.92v6.73h-.67Zm0-.63v-4.25h-9.92v4.25ZM925.68 114.85v7.34h-.6v-8.48a18.2 18.2 0 0 1-3.22 5.33l-.4-.52a17 17 0 0 0 3.44-5.86h-3.16v-.6h3.34V109l-2.83.23-.12-.59a53 53 0 0 0 6-.65l.16.59c-.56.09-1.44.21-2.65.36v3.17h3v.6h-3v1.84l.25-.22c1.13 1.18 2 2.06 2.51 2.65l-.42.47q-1.41-1.66-2.3-2.6m3.94-5.93h5.62v12.64h-.63v-1.49h-4.37v1.58h-.62Zm5 10.53v-9.91h-4.37v9.91ZM945 115.21v1.17a13.8 13.8 0 0 0 3 2.71 18.5 18.5 0 0 0 4 1.94l-.29.61a16.25 16.25 0 0 1-6.8-4.46v5h-.64v-5a15 15 0 0 1-2.53 2.32 25.3 25.3 0 0 1-4.19 2.34l-.32-.6a24 24 0 0 0 4.15-2.23 15 15 0 0 0 2.89-2.64v-1.17h-4.59v3h-.64v-3.58h5.23v-1.71h-6.6v-.56h6.6v-1.08h.73v1.08h6.65v.56H945v1.71h5.31v2.08a1.37 1.37 0 0 1-.38 1.06 1.75 1.75 0 0 1-1.19.36h-1.14l-.14-.54h1.13a1.33 1.33 0 0 0 .85-.23.83.83 0 0 0 .25-.68v-1.48Zm-3.63-6a21 21 0 0 1 1.21 2l-.51.3a26 26 0 0 0-1.37-2.26h-.7a13.4 13.4 0 0 1-2.07 2.3l-.44-.44a12.3 12.3 0 0 0 1.78-1.88 13 13 0 0 0 1.26-2.06l.6.18c-.2.41-.46.86-.77 1.36h4.56v.54Zm6.81 0q.53.77 1.2 1.86l-.51.33a23 23 0 0 0-1.37-2.19h-1a13.6 13.6 0 0 1-1.26 1.73l-.49-.34a13.4 13.4 0 0 0 2.11-3.47l.6.16c-.15.34-.37.79-.65 1.36h5.1v.56ZM958 117.55a14.6 14.6 0 0 0 .92 2.19 3.8 3.8 0 0 0 .78 1.06 1.54 1.54 0 0 0 .77.35c.37 0 .65-.29.85-.87a15.5 15.5 0 0 0 .47-2.14l.61.18a19 19 0 0 1-.51 2.19c-.29.88-.76 1.32-1.4 1.32s-1.43-.55-2.08-1.66a12.6 12.6 0 0 1-1-2.18 21.3 21.3 0 0 1-3.71 2.21l-.34-.57a20 20 0 0 0 3.84-2.31 24 24 0 0 1-.82-4.77l-2.76.38-.08-.63 2.79-.37v-.38c-.07-1-.13-2.48-.2-4.34h.64c0 1.44.1 2.89.18 4.34v.3l4.66-.64.1.6-4.71.66a26 26 0 0 0 .76 4.41 15.2 15.2 0 0 0 2.86-3.41l.54.34a17.2 17.2 0 0 1-3.11 3.66Zm.18-9.2.43-.41c.94.84 1.66 1.52 2.15 2l-.4.44c-.72-.67-1.45-1.38-2.21-2.03Zm5 .59h.62v9.22h-.62Zm3.17-1.65h.65v12.57a2.3 2.3 0 0 1-.43 1.53 2 2 0 0 1-1.44.49c-.62 0-1.16 0-1.63-.06l-.1-.67c.68 0 1.22.08 1.62.08a1.37 1.37 0 0 0 1-.34 1.74 1.74 0 0 0 .31-1.15ZM970.84 108.84v13.27h-.65v-13.87h12.34v11.57a1.81 1.81 0 0 1-2.1 2.14c-.71 0-1.34 0-1.86-.08l-.08-.66a16 16 0 0 0 1.8.08 1.74 1.74 0 0 0 1.24-.34 1.7 1.7 0 0 0 .34-1.22v-10.89Zm1.42 2.35h8.17v.58h-8.17Zm7.08 7.6h-6v-4.72h6Zm-.64-.57v-3.58H974v3.58ZM997.81 117.16V120h-.62v-.75h-4.74v.8a2 2 0 0 1-.42 1.42 2.2 2.2 0 0 1-1.57.51 13 13 0 0 1-1.7 0l-.07-.62q.93.09 1.62.09a2 2 0 0 0 1.21-.32 1.6 1.6 0 0 0 .28-1.08v-.75h-5.87v-.53h5.87v-1.58h-7.1v-.51h7.1v-1.57h-5.69v-.52h5.69v-1.37h-5.09v-2.65h5.09v-1.37h-6.92v-.54h6.92v-1.49h.65v1.49h6.8v.54h-6.8v1.37h5v2.65h-5v1.37h5.36v2.09h1.72v.51Zm-6-4.46V111h-4.46v1.67Zm5.08 0V111h-4.43v1.67Zm.31 4v-1.57h-4.74v1.57Zm0 2.09v-1.58h-4.74v1.58ZM1001.39 122.29a1.8 1.8 0 0 0 .85-1.54h-.08a.54.54 0 0 1-.39-.18.53.53 0 0 1-.16-.39.55.55 0 0 1 .14-.41.53.53 0 0 1 .41-.16.5.5 0 0 1 .43.18 1.2 1.2 0 0 1 .18.6 3 3 0 0 1-.25 1.23 2.45 2.45 0 0 1-.85.93ZM1013.32 119.76h-2.06v1.31h-.59v-6.87a16 16 0 0 1-1.34 2.27l-.33-.47a18 18 0 0 0 2.76-6.76h-2.29v-.56h5.2v.56h-2.29a18.8 18.8 0 0 1-1.18 3.9h2.75v7.44h-.59Zm0-.57v-5.48h-2.06v5.48Zm9.07-1h-2.78v3.22h-.6v-3.22h-2.88a7.44 7.44 0 0 1-1.49 4.07l-.55-.36a7.1 7.1 0 0 0 1.24-2.48 17.7 17.7 0 0 0 .28-3.6v-4.23c-.26.3-.6.65-1 1l-.41-.41a16.9 16.9 0 0 0 3.65-5.07l.62.18a15 15 0 0 1-.79 1.47h4.32v.54l-1.64 2.13h2.64v9a1.73 1.73 0 0 1-.36 1.21 1.47 1.47 0 0 1-1.08.34h-1l-.09-.61h1a1.24 1.24 0 0 0 .74-.22 1.27 1.27 0 0 0 .21-.81Zm-5-8.84a19 19 0 0 1-1.62 2.11h3.92l1.59-2.11Zm1.67 8.28v-2.51h-2.8v2.51Zm0-5.59h-2.8v2.52h2.8Zm3.38 2.52V112h-2.78v2.52Zm0 3.07v-2.51h-2.78v2.51ZM1027.88 111.06v11.1h-.62v-9.74a19.7 19.7 0 0 1-2 3.19l-.26-.61a21.6 21.6 0 0 0 2.14-3.74 31 31 0 0 0 1.53-4.13l.6.19a38 38 0 0 1-1.39 3.74m7.17 4.84a12 12 0 0 0 1.84 2.32 14.7 14.7 0 0 0 3 2.19l-.38.57a14 14 0 0 1-3.09-2.35 11 11 0 0 1-1.76-2.37v5.92h-.66v-5.87a13 13 0 0 1-1.82 2.37 16.7 16.7 0 0 1-3.14 2.43l-.36-.55a16.6 16.6 0 0 0 3.09-2.32 13 13 0 0 0 1.88-2.34h-4.46v-.6h4.81v-2.37h-3.54v-4.79h7.78v4.79h-3.59v2.37h5v.6Zm2.6-3.58v-3.58h-6.52v3.58ZM1044.16 118.11q1.47-.48 2.19-.69l.13.62q-2.57.92-5.22 1.57l-.18-.67c1.06-.27 1.87-.49 2.44-.65v-8.88h-2.17v-.62h4.87v.62h-2.06Zm7-.35c1.93 1.49 3.54 2.74 4.84 3.78l-.39.52c-1.79-1.46-3.35-2.69-4.68-3.71a5.65 5.65 0 0 1-1.58 2.09 13 13 0 0 1-3.08 1.79l-.32-.58a9.4 9.4 0 0 0 3.8-2.51 5.6 5.6 0 0 0 1.07-3.37v-2.42h.6v2.44a8 8 0 0 1-.3 1.97Zm.28-8.94q-.39 1.58-.69 2.55h4v7.13h-.64V112h-6v6.54h-.62v-7.15h2.51a25 25 0 0 0 .71-2.55h-3.94v-.6h9.07v.6ZM1068.5 120.72h-9.27v1.42h-.65v-13.89h10.59v13.89h-.67Zm0-8.6v-3.25h-9.27v3.25Zm0 3.93v-3.32h-9.27v3.32Zm0 4v-3.45h-9.27v3.45ZM1080.11 120.54h6.42v.64h-14.76v-.64h2.65V112h.69v8.53h4.33v-11.4h-6.88v-.63h13.25v.63h-5.7v5h5.11v.62h-5.11ZM1097.72 110.07h3.51v2.79h-.63v-2.24h-12v2.24h-.66v-2.79h3.48c-.56-.83-1.09-1.55-1.56-2.15l.55-.24a33 33 0 0 1 1.68 2.39h2.18v-2.91h.65v2.91h2.16a25 25 0 0 0 1.83-2.46l.54.3c-.58.75-1.14 1.47-1.73 2.16m-3.47 5.34h-3.92v-3.14h8.5v3.14h-3.92v1.72h5.31v2.32a1.52 1.52 0 0 1-.39 1.16 2.24 2.24 0 0 1-1.29.39h-1.46l-.11-.6c.48 0 1 .06 1.42.06a1.6 1.6 0 0 0 .91-.24 1 1 0 0 0 .28-.79v-1.7h-4.67v4.5h-.66v-4.5h-4.62V121h-.63v-3.9h5.26Zm3.94-.54v-2.06H1091v2.06ZM1103.19 114.12c.83.34 1.79.74 2.88 1.21l-.25.59c-1-.47-2-.89-2.91-1.25Zm10-4.79v1.42h-.63v-1.42H1108v1.46h-.62v-1.46H1103v-.56h4.34v-1.61h.62v1.61h4.56v-1.63h.63v1.63h4.32v.56Zm-7.55 7.89.56.25q-.95 2.4-2 4.58l-.59-.28q1.04-2.02 2.03-4.55m-1.34-6.3c1.32.59 2.27 1 2.86 1.34l-.26.58c-.78-.42-1.75-.89-2.89-1.4Zm8.55 4.07a18.2 18.2 0 0 0 4.85 1.3l-.18.61a19 19 0 0 1-5.1-1.47l-.19-.1a23.4 23.4 0 0 1-5.35 1.8l-.19-.58a21.7 21.7 0 0 0 4.9-1.56 10.8 10.8 0 0 1-2.35-1.85 16 16 0 0 1-1.64 1.47l-.4-.47a11.5 11.5 0 0 0 3.26-3.67l.61.17a12 12 0 0 1-.7 1.13h5.63v.55a12 12 0 0 1-3.15 2.68Zm2.39 6.24h-6.17v1h-.62v-4.77h7.41v4.77h-.62Zm0-.54V118h-6.17v2.71Zm-3-6a11.3 11.3 0 0 0 3-2.37H1110c-.11.14-.22.27-.34.4a9.6 9.6 0 0 0 2.55 1.95ZM1121.32 118.78l2.09-.79.16.59q-2.6 1-5.11 1.8l-.2-.64c1-.3 1.85-.56 2.44-.77v-6.81h-2v-.59h2v-4.36h.62v4.36h1.94v.59h-1.94Zm7.29-6.61v6.77h-.61v-6.57l-2.88.93v5.7a2 2 0 0 0 .43 1.53 2.7 2.7 0 0 0 1.56.43q1.62.07 3.24 0a3.3 3.3 0 0 0 1.49-.39 1.8 1.8 0 0 0 .57-1.13c.1-.54.17-1 .23-1.49l.6.16c-.06.57-.14 1.1-.24 1.61a2.1 2.1 0 0 1-.77 1.4 3.3 3.3 0 0 1-1.76.44 34 34 0 0 1-3.49 0 3.26 3.26 0 0 1-1.98-.56 2.64 2.64 0 0 1-.55-1.92v-5.6l-1.45.52-.17-.6 1.64-.53v-4.1h.62v3.91l2.88-.92v-4.52h.62v4.33l3.69-1.18c0 2.21-.11 3.91-.16 5.08a2.3 2.3 0 0 1-.41 1.41 1.62 1.62 0 0 1-1.16.44h-1.19l-.09-.62h1.12a1.13 1.13 0 0 0 .8-.25 1.84 1.84 0 0 0 .32-1.08c0-.89.09-2.28.13-4.17ZM1137.35 122a1.63 1.63 0 0 1-1.2-.49 1.67 1.67 0 0 1-.49-1.2 1.63 1.63 0 0 1 .49-1.19 1.68 1.68 0 0 1 2.41 0 1.63 1.63 0 0 1 .49 1.19 1.67 1.67 0 0 1-.49 1.2 1.64 1.64 0 0 1-1.21.49m0-.48a1.23 1.23 0 0 0 .86-.32 1.2 1.2 0 0 0 .35-.89 1.15 1.15 0 0 0-1.21-1.21 1.13 1.13 0 0 0-.85.33 1.21 1.21 0 0 0 .85 2.09M532.21 150.93a1.4 1.4 0 0 1 .06.16 8.5 8.5 0 0 0 .93 1.88c.48.68.93 1 1.36 1a.93.93 0 0 0 .44-.18 1.5 1.5 0 0 0 .39-.68 15 15 0 0 0 .53-2.19l.58.21a18 18 0 0 1-.55 2.22c-.3.89-.75 1.33-1.37 1.33a2 2 0 0 1-1.57-.87 6.5 6.5 0 0 1-1.13-1.93c0-.11-.09-.22-.15-.34a20 20 0 0 1-3.35 3l-.41-.49a19.5 19.5 0 0 0 3.52-3.22 16.3 16.3 0 0 1-.66-2.67 40 40 0 0 1-.54-4.51h-6.21v2.88h4.24l-.12 4.09a2.4 2.4 0 0 1-.49 1.57 2.2 2.2 0 0 1-1.47.47 11 11 0 0 1-1.32-.07l-.07-.63a8 8 0 0 0 1.29.08 1.84 1.84 0 0 0 1.1-.31 1.77 1.77 0 0 0 .32-1.18c.05-1.14.08-2.29.12-3.43h-3.6v.31a17 17 0 0 1-.39 4 13 13 0 0 1-1.49 3.37l-.57-.38a10.8 10.8 0 0 0 1.42-3.15 17 17 0 0 0 .38-3.87v-4.35h6.83c0-.71-.09-1.79-.13-3.24h.65c.05 1.06.09 2.11.13 3.16v.08h5.28v.6H531a34 34 0 0 0 .45 4.12 24 24 0 0 0 .58 2.44 23.2 23.2 0 0 0 2.6-4.82l.57.24a23.3 23.3 0 0 1-2.78 5.08Zm.06-10.28.39-.47c.53.4 1.27 1 2.24 1.88l-.37.47a27 27 0 0 0-2.26-1.88M539.8 149.75l.54.18a16.4 16.4 0 0 1-1.89 3.32l-.54-.29a16 16 0 0 0 1.89-3.21m2.77-7.6h3.13v.58h-7.65v-.58h3.85c-.27-.73-.54-1.47-.84-2.22l.62-.13c.19.46.48 1.2.89 2.35m2 6.36h-2.35v4.33a1.82 1.82 0 0 1-.36 1.26 1.6 1.6 0 0 1-1.19.41h-1.1l-.06-.6a8 8 0 0 0 1 .06 1.18 1.18 0 0 0 .82-.23 1.3 1.3 0 0 0 .24-.91v-4.27h-2.5v-3.94h5.47Zm-.6-.57v-2.8h-4.27v2.8Zm-.73 2 .49-.23c.44.64.92 1.36 1.42 2.14l-.49.28c-.45-.83-.93-1.56-1.37-2.23Zm4.72-5.56h4.4v.59H548c0 .85-.08 1.33-.08 1.44a6 6 0 0 0 0 .65 15.5 15.5 0 0 1-1 4.35 13.8 13.8 0 0 1-2.29 3.53l-.5-.41a12.3 12.3 0 0 0 2.48-4 19.5 19.5 0 0 0 .8-5.53h-1.86v-.59h1.88v-4.52h.63c0 1.16 0 2.43-.05 3.79-.01.18-.01.42-.01.66Zm.91 1.1h.61v7.11a1.6 1.6 0 0 0 .24 1 1 1 0 0 0 .76.24h.52a1.07 1.07 0 0 0 .77-.26 1.75 1.75 0 0 0 .34-1c.05-.57.09-1.13.13-1.7l.57.15c0 .27-.08.85-.16 1.73a2.2 2.2 0 0 1-.46 1.31 1.55 1.55 0 0 1-1.17.41h-.53a1.5 1.5 0 0 1-1.16-.41 2 2 0 0 1-.36-1.34Zm.38-4.46.49-.31c.73.9 1.32 1.68 1.78 2.33l-.51.33a15.3 15.3 0 0 0-1.71-2.37ZM556.16 145.46a.57.57 0 0 1 .42.16.62.62 0 0 1 0 .83.57.57 0 0 1-.42.17.54.54 0 0 1-.4-.17.58.58 0 0 1-.18-.42.55.55 0 0 1 .17-.41.5.5 0 0 1 .41-.16m0 6.84a.57.57 0 0 1 .42.17.57.57 0 0 1 .16.42.63.63 0 0 1-.16.41.57.57 0 0 1-.42.16.54.54 0 0 1-.4-.16.58.58 0 0 1 0-.83.48.48 0 0 1 .4-.17M572.31 148.85v3.52a1.46 1.46 0 0 0 .31 1 1.77 1.77 0 0 0 1.07.35 8 8 0 0 0 1.37 0 3 3 0 0 0 1.21-.32 1.42 1.42 0 0 0 .51-.92c0-.3.1-.76.16-1.37l.6.18c-.06.61-.13 1.1-.19 1.47a1.62 1.62 0 0 1-.67 1.14 3.4 3.4 0 0 1-1.54.41 10.4 10.4 0 0 1-1.58 0 2.24 2.24 0 0 1-1.46-.49 2 2 0 0 1-.44-1.42v-3.6h-3.09a9 9 0 0 1-.05 1 5.1 5.1 0 0 1-1.39 3.16 8.2 8.2 0 0 1-3.61 1.86l-.31-.59a8.4 8.4 0 0 0 3.35-1.66 4.37 4.37 0 0 0 1.29-2.77c0-.2 0-.55.07-1h-4.5v-.6h13.75v.6Zm-1.48-7h6v2.89h-.65v-2.29h-11.7v2.36h-.64v-3h6.31c-.27-.71-.54-1.34-.8-1.88l.67-.15c.3.75.58 1.43.81 2.05ZM565.5 145h9.58v.61h-9.58ZM589.29 150.93a.6.6 0 0 1 .07.16 8.5 8.5 0 0 0 .93 1.88c.48.68.93 1 1.36 1a.93.93 0 0 0 .44-.18 1.5 1.5 0 0 0 .39-.68 14 14 0 0 0 .52-2.19l.59.21a18 18 0 0 1-.55 2.22c-.3.89-.75 1.33-1.38 1.33a2.06 2.06 0 0 1-1.57-.87 6.5 6.5 0 0 1-1.12-1.93l-.15-.34a20.5 20.5 0 0 1-3.35 3l-.41-.49a19 19 0 0 0 3.51-3.22 17.4 17.4 0 0 1-.65-2.67 40 40 0 0 1-.54-4.51h-6.21v2.88h4.23c0 1.36-.07 2.72-.11 4.09a2.4 2.4 0 0 1-.49 1.57 2.2 2.2 0 0 1-1.47.47 11 11 0 0 1-1.33-.07l-.06-.63a8 8 0 0 0 1.29.08 1.87 1.87 0 0 0 1.1-.31 1.77 1.77 0 0 0 .32-1.18c.05-1.14.08-2.29.12-3.43h-3.6v.31a17 17 0 0 1-.39 4 13 13 0 0 1-1.49 3.37l-.57-.38a10.8 10.8 0 0 0 1.42-3.15 17 17 0 0 0 .38-3.87v-4.35h6.83c-.05-.71-.09-1.79-.13-3.24h.65c0 1.06.09 2.11.13 3.16v.08h5.28v.6H588a32 32 0 0 0 .45 4.12 24 24 0 0 0 .58 2.44 22.7 22.7 0 0 0 2.59-4.82l.58.24a23.3 23.3 0 0 1-2.78 5.08 1.3 1.3 0 0 1-.13.22m.07-10.28.39-.47c.52.4 1.27 1 2.24 1.88l-.37.47a27 27 0 0 0-2.26-1.88M594.45 145.23l.31-.56c1.24.62 2.21 1.14 2.91 1.55l-.32.57c-1.03-.61-1.99-1.13-2.9-1.56m.61 9.17q1.13-2.67 2-5.61l.59.21c-.63 2-1.31 3.87-2 5.66Zm.23-13.37.34-.53c.94.5 1.87 1.06 2.8 1.67l-.33.56a48 48 0 0 0-2.81-1.73Zm9.18 7.19a10.4 10.4 0 0 0 1.8 2.42 13.1 13.1 0 0 0 3.11 2.25l-.38.57a13.6 13.6 0 0 1-3.2-2.46 11.3 11.3 0 0 1-1.62-2.26v6.13h-.62v-6.2a12.8 12.8 0 0 1-1.8 2.46 17.5 17.5 0 0 1-3.19 2.53l-.37-.56a18.2 18.2 0 0 0 3.14-2.37 13 13 0 0 0 1.91-2.51h-4.32v-.57h4.63v-2.23h.62v2.23h4.64v.57Zm-2-5.14.43.4a35 35 0 0 1-3.18 2.91l-.4-.48a26 26 0 0 0 3.11-2.83Zm-3.09-2.14h9.12v2.57h-.62v-2H600v2h-.62Zm5.48 2.57.39-.44c1.3 1.09 2.36 2 3.2 2.78l-.39.47c-.94-.85-2.01-1.79-3.24-2.81ZM613.52 150.24c.54-.19 1.29-.48 2.25-.86l.15.62q-2.73 1.09-5.23 1.88l-.21-.64c.63-.18 1.44-.45 2.43-.78v-6h-2.25v-.62h2.25v-4h.61v4h2.07v.62h-2.07ZM616.7 140h.64v5.24a22.6 22.6 0 0 1-.52 5.66 10.2 10.2 0 0 1-2.19 3.9l-.54-.4a9.4 9.4 0 0 0 2.16-3.86 23.5 23.5 0 0 0 .45-5.3Zm3.4.7h.62v12.81h-.62Zm3.45-.72h.62v14.71h-.62ZM634 141.78h7v.6h-7l-.05 2.19h5.93v8.16a2.1 2.1 0 0 1-.42 1.42 2 2 0 0 1-1.46.49 14.5 14.5 0 0 1-1.86 0L636 154c.49.05 1.08.07 1.75.07a1.44 1.44 0 0 0 1.11-.33 1.52 1.52 0 0 0 .3-1.08v-7.47h-11v9.61h-.65v-10.23h5.72l.06-2.19h-7v-.6h7v-2h.65Zm1.23 6.37h2.42v.56H634v2.07h4.1v.56H634v3.1h-.64v-3.1h-4.09v-.56h4.09v-2.07h-3.68v-.56h2.45c-.4-.69-.85-1.41-1.34-2.19l.56-.24 1.44 2.43h1.78c.53-.82 1-1.63 1.49-2.43l.54.26c-.44.67-.88 1.4-1.37 2.17M650.63 142.58h6.54v.62h-9.35c-.05 1.21-.08 2.12-.12 2.73v.52h7.3c-.14 2.93-.23 4.75-.28 5.44a2.66 2.66 0 0 1-.8 1.92 3.14 3.14 0 0 1-2 .55c-1 0-1.71 0-2.25-.08l-.08-.67c.8.08 1.54.12 2.2.12a2.68 2.68 0 0 0 1.62-.41 2.16 2.16 0 0 0 .62-1.56c.08-1.23.16-2.79.25-4.69h-6.7a12 12 0 0 1-1.28 4.47 12.1 12.1 0 0 1-3.19 3.44l-.49-.52a11 11 0 0 0 3.22-3.53 12.6 12.6 0 0 0 1.13-4.77c.07-.87.12-1.86.15-3h-4.46v-.62h7.24q-.66-1.72-1-2.55l.66-.16c.44 1.04.77 1.94 1.07 2.75M661.41 146.44a19 19 0 0 1-2.87 5.19l-.38-.54a17.3 17.3 0 0 0 3.09-5.83h-2.83v-.59h3v-3l-2.5.18-.15-.59a47 47 0 0 0 5.64-.61l.18.59q-.81.15-2.55.36v3.09h2.6v.59H662v1.8l.25-.25c1 .95 1.74 1.77 2.38 2.47l-.42.46a46 46 0 0 0-2.21-2.36v7.46h-.62Zm9.17 3.66v4.77h-.65v-4.69l-5.59.78-.1-.62 5.69-.78v-9.69h.65v9.59l2.37-.33.07.64Zm-5.47-4.37.37-.45c1 .74 2 1.44 2.81 2.1l-.36.49c-.93-.77-1.93-1.48-2.82-2.14m.58-3.66.38-.44c.82.58 1.75 1.28 2.81 2.11l-.36.47c-.58-.46-1.52-1.21-2.83-2.14M677.66 148.32V153a1.68 1.68 0 0 1-.31 1.13 1.56 1.56 0 0 1-1.1.43c-.44 0-.85 0-1.21-.05v-.66a7 7 0 0 0 1.12.07 1 1 0 0 0 .71-.21 1.26 1.26 0 0 0 .21-.79v-4.41l-2.32.78-.18-.64 2.5-.81v-4.04h-2.21v-.6H677v-3.33h.62v3.33h2v.6h-2v3.86l1.93-.72.14.59Zm7.3 3.18a15 15 0 0 0 4.42 2.6l-.31.62a16.8 16.8 0 0 1-4.58-2.78 20 20 0 0 1-5.11 3l-.33-.59a19.9 19.9 0 0 0 5-2.83 12.1 12.1 0 0 1-2.84-4.61l.59-.16a11.34 11.34 0 0 0 2.74 4.35 11 11 0 0 0 2.86-4.55h-7V146h3.79v-2.83H680v-.58h4.18v-2.72h.64v2.72h4.4v.58h-4.4V146h3.28v.59a11.84 11.84 0 0 1-3.1 4.91ZM698.55 145a11 11 0 0 0 2 5 14.2 14.2 0 0 0 5 4.06l-.43.64a14.85 14.85 0 0 1-5.1-4.25 10.6 10.6 0 0 1-1.81-4 10.6 10.6 0 0 1-1.8 4.22 16.1 16.1 0 0 1-5 4.18l-.44-.59a15.6 15.6 0 0 0 4.94-4 9.9 9.9 0 0 0 1.89-5.26h-6.34v-.64h6.37c0-1.52.07-3 .07-4.49h.69v4.49H705v.64ZM714.61 150.36v2.43a2 2 0 0 1-.4 1.39 1.9 1.9 0 0 1-1.35.44h-1.85l-.08-.67c.55 0 1.15.06 1.78.06a1.6 1.6 0 0 0 1-.26 1.4 1.4 0 0 0 .28-1v-2.34h-7.34v-.59H714v-1.14c.84-.51 2-1.23 3.48-2.18h-7.89v-.59h9v.61c-1.14.73-2.43 1.54-3.89 2.43v.87h6.63v.59Zm2.69-7.21h3.27v3h-.65v-2.43h-12v2.56h-.64v-3.15h9.22a30.5 30.5 0 0 0 2.14-3.17l.64.26q-.91 1.5-1.98 2.93m-8.86-2.78.59-.26c.54.69 1.1 1.47 1.7 2.35l-.57.31c-.69-1.01-1.26-1.77-1.72-2.4m4.34-.42.63-.18c.54 1 1 1.88 1.31 2.56l-.6.23c-.32-.66-.77-1.56-1.34-2.56ZM722.65 152.78l4.2-5a14.7 14.7 0 0 0 1.39-1.89 3.6 3.6 0 0 0 .46-1.77 2.18 2.18 0 0 0-.7-1.73 2.6 2.6 0 0 0-1.74-.59 2.83 2.83 0 0 0-1.92.66 3.17 3.17 0 0 0-1.05 1.74h-.72a3.75 3.75 0 0 1 1.31-2.19 3.62 3.62 0 0 1 2.37-.83 3.34 3.34 0 0 1 2.29.77 2.74 2.74 0 0 1 .88 2.17 3.7 3.7 0 0 1-.28 1.42 6.4 6.4 0 0 1-.67 1.23c-.26.36-.62.82-1.08 1.37-.11.13-.22.26-.32.4l-3.54 4.24h6.07v.6h-7ZM738.16 149.83a4.2 4.2 0 0 1-.95 2.73 3.48 3.48 0 0 1-5 0 4.22 4.22 0 0 1-1-2.74v-4.890000000000001a4.17 4.17 0 0 1 1-2.74 3.47 3.47 0 0 1 5 0 4.24 4.24 0 0 1 .95 2.76v2.43c.03.9.02 1.71 0 2.45m-6.21-.21a4.4 4.4 0 0 0 .7 2.44 2.39 2.39 0 0 0 2.08.93 2.35 2.35 0 0 0 2.06-.93 4.4 4.4 0 0 0 .7-2.44v-4.49a4.4 4.4 0 0 0-.7-2.44 2.35 2.35 0 0 0-2.06-.93 2.39 2.39 0 0 0-2.08.93 4.4 4.4 0 0 0-.7 2.44v2.24c0 .83-.02 1.63.05 2.25ZM740 152.78l4.2-5a14.7 14.7 0 0 0 1.39-1.89 3.7 3.7 0 0 0 .46-1.77 2.15 2.15 0 0 0-.71-1.73 2.56 2.56 0 0 0-1.73-.59 2.86 2.86 0 0 0-1.93.66 3.2 3.2 0 0 0-1 1.74h-.72a3.74 3.74 0 0 1 1.3-2.19 3.66 3.66 0 0 1 2.37-.83 3.34 3.34 0 0 1 2.29.77 2.71 2.71 0 0 1 .89 2.17 3.9 3.9 0 0 1-.28 1.42 6.4 6.4 0 0 1-.67 1.23c-.26.36-.62.82-1.08 1.37l-.33.4-3.53 4.24h6.07v.6h-7ZM748.71 152.78l4.21-5a14.5 14.5 0 0 0 1.38-1.89 3.6 3.6 0 0 0 .46-1.77 2.15 2.15 0 0 0-.7-1.73 2.6 2.6 0 0 0-1.73-.59 2.84 2.84 0 0 0-1.93.66 3.3 3.3 0 0 0-1 1.74h-.72a3.75 3.75 0 0 1 1.31-2.19 3.66 3.66 0 0 1 2.37-.83 3.34 3.34 0 0 1 2.29.77 2.71 2.71 0 0 1 .88 2.17 3.7 3.7 0 0 1-.28 1.42 5.9 5.9 0 0 1-.67 1.23c-.26.36-.62.82-1.08 1.37l-.32.4-3.53 4.24h6.06v.6h-6.95ZM761 141.79h10v.63h-5.39v3.36h5v.62h-5v4h6.14v.6h-6.14v4H765v-4h-8v-.62h2.83v-4.58H765v-3.36h-4.4c-.26.41-.41.64-.46.7a22.3 22.3 0 0 1-2.3 2.78l-.44-.53a18 18 0 0 0 3.82-5.57l.66.18a20 20 0 0 1-.88 1.79m4 8.57v-4h-4.56v4ZM776.62 146.58v8.34H776v-9.3a19.2 19.2 0 0 1-2.34 5.13l-.39-.57a19 19 0 0 0 1.67-3.09 18.7 18.7 0 0 0 1-3.14h-2.37v-.59H776v-3.51h.62v3.51h2.12v.64h-2.12v2.24l.21-.2c.51.58 1.2 1.39 2.06 2.44l-.41.44c-.55-.76-1.17-1.52-1.86-2.34m7.14 4.78a13.1 13.1 0 0 0 4.41 2.77l-.35.64a14.3 14.3 0 0 1-4.48-2.94 15.4 15.4 0 0 1-4.76 3.06l-.33-.58a14.3 14.3 0 0 0 4.66-2.94 11.9 11.9 0 0 1-2.2-4.13l.57-.27a10.5 10.5 0 0 0 2.06 3.93 11 11 0 0 0 2-4l.59.21a11.8 11.8 0 0 1-2.17 4.25m-2.09-7.23.49.36c-.51.72-1 1.32-1.36 1.8s-1 1.17-1.52 1.65l-.4-.44a20.2 20.2 0 0 0 2.79-3.37m2.42-1.62h3.84v.59h-8.71v-.59h4.18c-.29-1-.57-1.88-.83-2.6l.65-.11c.34.95.63 1.85.87 2.71m.52 2 .43-.39c.93 1 1.94 2.05 3 3.27l-.42.46a190 190 0 0 0-3.01-3.33ZM789 145.11h2.74V152a26 26 0 0 0 1.83-2l.39.48c-.87 1-1.77 1.93-2.69 2.84l-.43-.45a1.3 1.3 0 0 0 .2-.36 2 2 0 0 0 .06-.43v-6.37H789Zm1.27-4.51.51-.38c.75.82 1.52 1.69 2.3 2.6l-.5.4c-.86-.98-1.58-1.86-2.35-2.62Zm4.87-.59h.65v5.92c0 1.32 0 2.47-.13 3.46a9.4 9.4 0 0 1-.55 2.59 12.8 12.8 0 0 1-1.7 2.89l-.57-.39a9.7 9.7 0 0 0 1.88-3.39A12 12 0 0 0 795 149c.05-.92.08-1.93.08-3Zm3.47.7h.63v12.84h-.63Zm3.48-.71h.63v14.71h-.63ZM818.32 144h-11v2.17c0 .93 0 1.83-.08 2.7h3.48v-2.17h-2.67v-.54h2.67v-2h.64v2h3.74v-1.96h.63v1.91h2.9v.54h-2.9v2.17h3.68v.57H813a7.6 7.6 0 0 0 1.9 2.36 31 31 0 0 0 2.91-1.7l.39.47a27 27 0 0 1-2.81 1.59 12.5 12.5 0 0 0 4.22 1.83l-.28.6a13.2 13.2 0 0 1-4.45-2 8.5 8.5 0 0 1-2.53-3.13h-2.15V154c.89-.34 2-.81 3.22-1.41l.19.53c-1.25.62-2.61 1.21-4.07 1.76l-.27-.5a.8.8 0 0 0 .24-.3c0-.08 0-.19.07-.34v-4.37h-2.36a12.5 12.5 0 0 1-.62 2.93 12.7 12.7 0 0 1-1.29 2.5l-.52-.41a10.9 10.9 0 0 0 1.5-3.33 23.7 23.7 0 0 0 .41-5v-5.36h11.62Zm-.62-.55v-2.1h-10.36v2.1Zm-2.58 5.42v-2.17h-3.74v2.17ZM820.6 145.26h2.82v7.58a29 29 0 0 0 2.07-2.07l.33.57a35 35 0 0 1-2.93 2.76l-.39-.49a1.2 1.2 0 0 0 .21-.39 2 2 0 0 0 .07-.49v-6.85h-2.18Zm1.08-4.55.53-.39c.74.78 1.53 1.64 2.37 2.6l-.51.44c-.84-.98-1.64-1.86-2.39-2.65m8.94 11.22a17.7 17.7 0 0 0 4.79 2.27l-.32.62a18.1 18.1 0 0 1-5-2.47 19.5 19.5 0 0 1-5.18 2.6l-.34-.59a20.6 20.6 0 0 0 5-2.43 12.1 12.1 0 0 1-2.88-3.89l.56-.3a11.1 11.1 0 0 0 2.86 3.78 10.2 10.2 0 0 0 2.91-4h-7.4V147h8.12v.61a11.1 11.1 0 0 1-3.09 4.33Zm-3.22-11.17h5.45v3a1.1 1.1 0 0 0 .25.85 1.27 1.27 0 0 0 .83.28h1.52l-.13.63a13 13 0 0 1-1.55 0 1.86 1.86 0 0 1-1.24-.41 1.55 1.55 0 0 1-.33-1.16v-2.58H828v1.44a3.8 3.8 0 0 1-.54 1.91 5.2 5.2 0 0 1-1.75 1.44l-.44-.48a4.9 4.9 0 0 0 1.62-1.29 3 3 0 0 0 .47-1.71ZM837 145.24h3.17v7.62c.77-.59 1.64-1.31 2.6-2.16l.31.59q-1.69 1.5-3.48 2.91l-.45-.56a1 1 0 0 0 .3-.39 2 2 0 0 0 .06-.54v-6.85H837Zm1.29-4.53.49-.44c1 1 1.93 1.86 2.66 2.62l-.47.46c-.97-.95-1.87-1.83-2.71-2.64Zm9 5.61v8.53h-.67v-8.53h-4.48v-.64h4.48v-5.85h.67v5.85h4.56v.64ZM852.38 151.39c.4.36.82.76 1.24 1.19s.74.82 1.2 1.37l-.43.36a18.5 18.5 0 0 0-2.39-2.56ZM872.73 149.23h-5.31v5.7h-.69v-5.7h-5.31v1.18h-.65v-7.24h6v-3.35h.69v3.35h6v7.22h-.67Zm-6-.64v-4.8h-5.31v4.8Zm6 0v-4.8h-5.31v4.8ZM878.85 141.91h5c-.26-.56-.62-1.23-1.08-2l.61-.15c.48.87.86 1.59 1.16 2.18h4.74v.51h-5.33V144h4.77v.51h-4.77V146h4.77v.53h-4.77v1.57h5.62v.54h-11v.6h-.64v-6a18.7 18.7 0 0 1-2.12 2.31l-.35-.56a17.2 17.2 0 0 0 3.88-5.11l.6.19c-.38.67-.74 1.3-1.09 1.84m4.92 8.94a11.6 11.6 0 0 0 2.3 1.49 24 24 0 0 0 4.22 1.45l-.26.56a24 24 0 0 1-4.3-1.57 12 12 0 0 1-2.5-1.74v3.85h-.62v-3.83a12.8 12.8 0 0 1-2.59 1.77 22.6 22.6 0 0 1-4.2 1.61l-.29-.57a22.3 22.3 0 0 0 4.15-1.49 12 12 0 0 0 2.4-1.53h-6.22v-.56h6.75v-1.14h.62v1.14H890v.56Zm-5.2-6.9h4.74v-1.53h-4.74Zm0 2h4.74v-1.53h-4.74Zm0 2.1h4.74v-1.57h-4.74ZM900.38 146.09q2.1 1.07 4.6 2.49l-.35.6c-1.29-.76-2.94-1.68-5-2.74a24 24 0 0 0 .25 2.43 7.9 7.9 0 0 0 1.12 3.14 5.7 5.7 0 0 0 1.07 1.27 2.1 2.1 0 0 0 1.4.59 1.5 1.5 0 0 0 .79-.21 1.7 1.7 0 0 0 .47-.72 10.7 10.7 0 0 0 .52-2.14l.64.28a13.6 13.6 0 0 1-.54 2.16 2 2 0 0 1-.72 1 1.82 1.82 0 0 1-1.14.35 2.76 2.76 0 0 1-1.72-.66 5.4 5.4 0 0 1-1.29-1.48 9.3 9.3 0 0 1-1.16-3.06 20.3 20.3 0 0 1-.39-4v-3.83h-7.67V141h8.39c-.06 1.34-.08 2.51-.08 3.53v1.21l.12.06a56 56 0 0 0 4.49-3.92l.51.44c-1.57 1.52-3.03 2.78-4.31 3.77M910.49 146.68a18.3 18.3 0 0 1-2.62 4.94l-.36-.59a16.8 16.8 0 0 0 2.89-5.79h-2.66v-.59h2.75v-3l-2.39.2-.15-.61a47 47 0 0 0 5.26-.6l.23.59c-.71.13-1.48.24-2.32.34v3.07h2.39v.59h-2.39v1.85l.23-.18c.64.72 1.35 1.57 2.11 2.55l-.44.44c-.73-.94-1.36-1.73-1.9-2.39v7.36h-.63Zm10 .77.52.36a17.9 17.9 0 0 1-3.27 4.28 17 17 0 0 1-4.77 2.84l-.39-.57a16.3 16.3 0 0 0 4.72-2.73 16 16 0 0 0 3.24-4.18Zm-5.17-4.95.57.21a32.4 32.4 0 0 1-2.09 5.43l-.59-.27a27.5 27.5 0 0 0 2.16-5.37Zm2-2.62h.68v9.58h-.66Zm1.9 2.73.56-.26c1 1.67 1.87 3.21 2.61 4.64l-.52.33c-.72-1.41-1.61-2.98-2.64-4.71ZM923.49 145.19l.34-.54c1 .57 2 1.13 2.85 1.69l-.34.55c-1.09-.69-2.04-1.26-2.85-1.7m.39 9.19q1.25-2.77 2.28-5.57l.58.26c-.68 1.89-1.43 3.76-2.25 5.59Zm.38-13.37.33-.52c.78.44 1.69 1 2.71 1.7l-.31.54c-.88-.58-1.79-1.15-2.73-1.73Zm12.32 7h1.82v.58h-1.83s0 1.15-.12 3.39H938v.59h-1.57v.08a2.8 2.8 0 0 1-.51 1.63 2 2 0 0 1-1.54.51c-.53 0-1.14 0-1.81-.07l-.12-.57c.66 0 1.26.07 1.82.07a1.6 1.6 0 0 0 1.16-.36 2 2 0 0 0 .38-1.23v-.06h-7.43l.48-4h-1.75V148h1.81l.48-4h7.3c-.03 1.3-.07 2.63-.12 4Zm-6.44-6.43H938v.57h-8.14a22 22 0 0 1-2.19 3l-.47-.42a18.4 18.4 0 0 0 3.12-4.86l.62.17a14 14 0 0 1-.8 1.49Zm5.81 7h-6.46l-.41 3.39h6.75c.03-.82.07-1.97.17-3.43Zm0-.58c0-1.14.08-2.28.12-3.42H930l-.4 3.42Zm-4.56 1.66.38-.39 2.06 1.6-.39.44c-.75-.68-1.44-1.23-2.04-1.69Zm.28-4 .38-.39c.54.43 1.21 1 2 1.63l-.38.4ZM943.27 148.15V153a1.8 1.8 0 0 1-.31 1.19 1.65 1.65 0 0 1-1.11.38 6 6 0 0 1-1.28-.07l-.08-.64a8 8 0 0 0 1.21.1 1.23 1.23 0 0 0 .74-.24 1.33 1.33 0 0 0 .21-.84v-4.48l-2.54.85-.18-.62 2.72-.87v-3.91h-2.4v-.6h2.4v-3.38h.62v3.38h2v.6h-2v3.68l1.93-.78.16.57c-.6.25-1.3.53-2.09.83m3.6-1.22v8h-.63v-14.12h7.21c-.06 1.43-.1 2.2-.11 2.32a1.92 1.92 0 0 1-.56 1.33 2.85 2.85 0 0 1-1.6.42 16 16 0 0 1-1.83-.09l-.1-.58c.72.07 1.33.1 1.82.1a2.4 2.4 0 0 0 1.25-.29 1.28 1.28 0 0 0 .41-1c0-.74.08-1.3.1-1.69h-6v5h6.78v.59a11.3 11.3 0 0 1-2.4 4.7 14.2 14.2 0 0 0 3.53 2.39l-.33.59a14.1 14.1 0 0 1-3.63-2.5 15.5 15.5 0 0 1-3.35 2.51l-.38-.54a15.4 15.4 0 0 0 3.29-2.41 10.9 10.9 0 0 1-2.35-4.34l.53-.22a11 11 0 0 0 2.26 4.08 10.2 10.2 0 0 0 2.19-4.26ZM958.59 147.5v7.37H958v-7.39a18.3 18.3 0 0 1-2.32 2.35l-.26-.63a16.8 16.8 0 0 0 2.43-2.5 14.2 14.2 0 0 0 1.67-2.91h-3.76v-.57h2.47c-.26-1.25-.53-2.31-.79-3.21l.62-.14c.32 1.24.59 2.35.82 3.35h1.33v.55a15.5 15.5 0 0 1-1.61 2.93v.65l.36-.26c.7.63 1.36 1.27 2 1.93l-.46.41a43 43 0 0 0-1.91-1.93m6.51-4.5h.62c0 .95 0 1.89-.07 2.83a10.7 10.7 0 0 1-1.24 5.2 12 12 0 0 1-4.08 3.84l-.43-.49a11.8 11.8 0 0 0 3.94-3.63 9.83 9.83 0 0 0 1.16-4.95c.05-.55.08-1.49.1-2.8m-3.14-2.1h6.88v8.94h-.64v-8.34h-5.62v8.32H962Zm3.63 7.68h.6v4.05a1.17 1.17 0 0 0 .3.84 1.28 1.28 0 0 0 .88.35 3 3 0 0 0 .85 0 2.3 2.3 0 0 0 1-.27 1.32 1.32 0 0 0 .4-.8c.11-.84.17-1.34.18-1.51l.57.23c0 .45-.11.94-.2 1.47a1.63 1.63 0 0 1-.54 1.11 2.75 2.75 0 0 1-1.32.36 4.4 4.4 0 0 1-.9 0 2 2 0 0 1-1.29-.47 1.78 1.78 0 0 1-.49-1.28ZM978.39 147.78h.61a12 12 0 0 1-.26 2.15 5 5 0 0 1-2 3 13.9 13.9 0 0 1-4.86 2l-.31-.59a14.6 14.6 0 0 0 4.66-1.79 4.55 4.55 0 0 0 1.92-2.67 12.3 12.3 0 0 0 .24-2.1m3.47-4.71h3.57v3h-.63v-2.42h-12.1v2.4h-.65v-3h9a33 33 0 0 0 2.47-3l.64.26c-.73.92-1.49 1.84-2.3 2.76m-8.54-2.7.62-.26c.69.83 1.27 1.54 1.75 2.14l-.55.31c-.57-.72-1.14-1.45-1.82-2.19m.87 5.54h9.15v5.43h-.63v-4.86h-7.87v4.89h-.65Zm3.48-5.9.61-.18q1 1.59 1.35 2.31l-.6.26c-.35-.68-.8-1.47-1.36-2.4Zm1.44 9.87h.62v2.47a1.5 1.5 0 0 0 .31 1.08 1.6 1.6 0 0 0 1.06.36h2.32a2.5 2.5 0 0 0 1.23-.31 1.72 1.72 0 0 0 .51-1c.07-.45.13-.92.18-1.39l.6.22c-.05.49-.12 1-.19 1.4a2.12 2.12 0 0 1-.66 1.24 3.15 3.15 0 0 1-1.58.43h-2.54a2.27 2.27 0 0 1-1.42-.49 2.05 2.05 0 0 1-.44-1.44ZM987.33 145.26h2.81v7.58a25 25 0 0 0 2.07-2.07l.33.57a34 34 0 0 1-2.92 2.76l-.4-.49a1.5 1.5 0 0 0 .22-.39 2.6 2.6 0 0 0 .06-.49v-6.85h-2.17Zm1.08-4.55.52-.39c.74.78 1.53 1.64 2.37 2.6l-.51.44c-.79-.98-1.63-1.86-2.38-2.65m8.94 11.22a17.4 17.4 0 0 0 4.79 2.27l-.33.62a18 18 0 0 1-5-2.47 19.7 19.7 0 0 1-5.18 2.6l-.35-.59a21 21 0 0 0 5-2.43 11.8 11.8 0 0 1-2.88-3.89l.55-.3a11.2 11.2 0 0 0 2.86 3.78 10.2 10.2 0 0 0 2.91-4h-7.4V147h8.12v.61a11 11 0 0 1-3.09 4.33Zm-3.22-11.17h5.44v3a1.14 1.14 0 0 0 .24.85 1.28 1.28 0 0 0 .84.28h1.52l-.14.63a13 13 0 0 1-1.55 0 1.86 1.86 0 0 1-1.24-.41 1.55 1.55 0 0 1-.33-1.16v-2.58h-4.14v1.44a3.9 3.9 0 0 1-.53 1.91 5.3 5.3 0 0 1-1.75 1.44l-.44-.48a4.8 4.8 0 0 0 1.61-1.29 3 3 0 0 0 .48-1.71ZM1003.69 145.24h3.17v7.62c.77-.59 1.64-1.31 2.6-2.16l.31.59q-1.68 1.5-3.48 2.91l-.44-.56a.93.93 0 0 0 .29-.39 1.9 1.9 0 0 0 .07-.54v-6.85h-2.52Zm1.29-4.53.49-.44c1 1 1.93 1.86 2.66 2.62l-.47.46c-.95-.95-1.84-1.83-2.66-2.64Zm9 5.61v8.53h-.67v-8.53h-4.48v-.64h4.48v-5.85h.67v5.85h4.56v.64ZM1027.16 147.69h7.06v.56h-14.72v-.56h7v-1.89h-5.46v-.56h5.46V144h.63v1.21h5.53v.56h-5.53Zm-3.25-5.78c.25.52.52 1.14.8 1.84l-.55.22c-.22-.61-.51-1.3-.87-2.06h-1a16 16 0 0 1-2.24 2.56l-.45-.4a15 15 0 0 0 3.22-4.27l.6.18c-.26.51-.52 1-.78 1.4h4.36v.53Zm6.65 8.78v2.05a2.13 2.13 0 0 1-.45 1.48 2.44 2.44 0 0 1-1.56.52 13 13 0 0 1-1.73 0l-.07-.63c.79 0 1.33.07 1.62.07a1.9 1.9 0 0 0 1.21-.36 1.56 1.56 0 0 0 .33-1.13v-2h-9.81v-.56h9.81v-1.28h.65v1.28h3.09v.56Zm-8.18 1 .39-.48 2.91 1.8-.4.51c-1.02-.73-1.99-1.34-2.9-1.85Zm8.41-9.75c.33.64.62 1.24.88 1.82l-.55.21c-.39-.89-.71-1.57-1-2h-1.53a15.4 15.4 0 0 1-1.33 1.74l-.5-.35a13.4 13.4 0 0 0 2.25-3.48l.61.15c-.18.36-.42.83-.72 1.4h5.18v.54ZM1037.4 154.64a1.6 1.6 0 0 1-1.19-.49 1.7 1.7 0 0 1 1.19-2.89 1.69 1.69 0 1 1 0 3.38m0-.47a1.22 1.22 0 0 0 .86-.33 1.2 1.2 0 0 0 .35-.88 1.22 1.22 0 0 0-.35-.9 1.16 1.16 0 0 0-.86-.31 1.18 1.18 0 0 0-.85.32 1.2 1.2 0 0 0-.34.89 1.18 1.18 0 0 0 .34.88 1.2 1.2 0 0 0 .85.33"/><path d="M371.9.48H8.26A7.78 7.78 0 0 0 .48 8.26v106.1a7.78 7.78 0 0 0 7.78 7.78h161.81l20 34.67 20-34.67H371.9a7.78 7.78 0 0 0 7.78-7.78V8.26A7.78 7.78 0 0 0 371.9.48" class="cls-4"/><path d="m190.08 157.76-20.29-35.14H8.26A8.27 8.27 0 0 1 0 114.36V8.26A8.28 8.28 0 0 1 8.26 0H371.9a8.28 8.28 0 0 1 8.26 8.26v106.1a8.27 8.27 0 0 1-8.26 8.26H210.37ZM8.26 1A7.32 7.32 0 0 0 1 8.26v106.1a7.32 7.32 0 0 0 7.31 7.31h162.03l19.74 34.18 19.74-34.18H371.9a7.32 7.32 0 0 0 7.31-7.31V8.26A7.32 7.32 0 0 0 371.9 1Z" style="fill:#dee7ff"/><g class="cls-6"><path d="m106 184.06 5-6a17 17 0 0 0 1.66-2.27 4.2 4.2 0 0 0 .55-2.1 2.58 2.58 0 0 0-.84-2.07 3.07 3.07 0 0 0-2.07-.7 3.43 3.43 0 0 0-2.3.78 3.9 3.9 0 0 0-1.25 2.08h-.86a4.5 4.5 0 0 1 1.56-2.61 4.35 4.35 0 0 1 2.83-1 4 4 0 0 1 2.73.92 3.24 3.24 0 0 1 1.06 2.6 4.6 4.6 0 0 1-.33 1.69 7.6 7.6 0 0 1-.8 1.47c-.32.43-.75 1-1.29 1.64l-.39.47-4.21 5.04h7.24v.72H106ZM123.11 185.05a6.55 6.55 0 0 1-3.49-.93 6.3 6.3 0 0 1-2.38-2.64 9.33 9.33 0 0 1 0-7.74 6.17 6.17 0 0 1 2.38-2.64 7 7 0 0 1 7 0 6.1 6.1 0 0 1 2.38 2.64 9.14 9.14 0 0 1 0 7.74 6.2 6.2 0 0 1-2.38 2.64 6.57 6.57 0 0 1-3.51.93m-5.83-7.43a7.8 7.8 0 0 0 .72 3.43 5.55 5.55 0 0 0 5.11 3.22 5.5 5.5 0 0 0 5.15-3.24 8.4 8.4 0 0 0 0-6.89 5.77 5.77 0 0 0-2.08-2.36 5.63 5.63 0 0 0-3.07-.84 5.5 5.5 0 0 0-3 .84 5.6 5.6 0 0 0-2.07 2.38 8 8 0 0 0-.76 3.46M132.05 184.06l5-6a17 17 0 0 0 1.66-2.27 4.2 4.2 0 0 0 .55-2.1 2.58 2.58 0 0 0-.84-2.07 3.07 3.07 0 0 0-2.07-.7 3.43 3.43 0 0 0-2.3.78 3.9 3.9 0 0 0-1.25 2.08h-.8a4.5 4.5 0 0 1 1.56-2.61 4.35 4.35 0 0 1 2.83-1 4 4 0 0 1 2.73.92 3.24 3.24 0 0 1 1.06 2.6 4.6 4.6 0 0 1-.33 1.69 7.6 7.6 0 0 1-.8 1.47c-.32.43-.75 1-1.29 1.64l-.39.47-4.27 5.04h7.24v.72h-8.29ZM142.7 184.06l5-6a19 19 0 0 0 1.66-2.27 4.3 4.3 0 0 0 .54-2.1 2.58 2.58 0 0 0-.84-2.07 3 3 0 0 0-2.06-.7 3.44 3.44 0 0 0-2.31.78 4 4 0 0 0-1.25 2.08h-.85a4.4 4.4 0 0 1 1.56-2.61 4.33 4.33 0 0 1 2.83-1 4 4 0 0 1 2.73.92 3.27 3.27 0 0 1 1.05 2.6 4.6 4.6 0 0 1-.33 1.69 7 7 0 0 1-.8 1.47c-.31.43-.74 1-1.29 1.64l-.34.51-4.24 5H151v.72h-8.3ZM154.33 183.47a.66.66 0 0 1 .49.2.61.61 0 0 1 .22.5.68.68 0 0 1-.22.49.66.66 0 0 1-.49.22.67.67 0 0 1-.49-.22.66.66 0 0 1-.19-.49.62.62 0 0 1 .19-.5.68.68 0 0 1 .49-.2M164.21 185.05a6.6 6.6 0 0 1-3.5-.93 6.35 6.35 0 0 1-2.38-2.64 9.33 9.33 0 0 1 0-7.74 6.23 6.23 0 0 1 2.38-2.64 7 7 0 0 1 7 0 6.17 6.17 0 0 1 2.38 2.64 9.14 9.14 0 0 1 0 7.74 6.3 6.3 0 0 1-2.38 2.64 6.6 6.6 0 0 1-3.5.93m-5.84-7.43a7.8 7.8 0 0 0 .72 3.43 5.55 5.55 0 0 0 5.12 3.22 5.53 5.53 0 0 0 5.15-3.24 8.4 8.4 0 0 0 0-6.89 5.86 5.86 0 0 0-2.09-2.36 5.6 5.6 0 0 0-3.06-.84 5.5 5.5 0 0 0-3.05.84 5.74 5.74 0 0 0-2.07 2.38 8 8 0 0 0-.72 3.46M181.55 171.14l-6.4 13.64h-.89l6.44-13.62h-7.62v-.72h8.47ZM182.49 178.83v-.69h15.18v.69ZM198.78 184.06l5-6a19 19 0 0 0 1.66-2.27 4.3 4.3 0 0 0 .54-2.1 2.58 2.58 0 0 0-.84-2.07 3 3 0 0 0-2.06-.7 3.44 3.44 0 0 0-2.31.78 4 4 0 0 0-1.25 2.08h-.85a4.4 4.4 0 0 1 1.56-2.61 4.33 4.33 0 0 1 2.83-1 4 4 0 0 1 2.73.92 3.27 3.27 0 0 1 1.05 2.6 4.6 4.6 0 0 1-.33 1.69 7 7 0 0 1-.8 1.47c-.31.43-.74 1-1.29 1.64l-.39.47-4.19 5.04h7.24v.72h-8.3ZM215.9 185.05a6.6 6.6 0 0 1-3.5-.93 6.35 6.35 0 0 1-2.38-2.64 9.33 9.33 0 0 1 0-7.74 6.23 6.23 0 0 1 2.38-2.64 7 7 0 0 1 7 0 6.17 6.17 0 0 1 2.38 2.64 9.14 9.14 0 0 1 0 7.74 6.3 6.3 0 0 1-2.38 2.64 6.6 6.6 0 0 1-3.5.93m-5.84-7.43a7.8 7.8 0 0 0 .72 3.43 5.55 5.55 0 0 0 5.12 3.22 5.53 5.53 0 0 0 5.15-3.24 8.4 8.4 0 0 0 0-6.89 5.86 5.86 0 0 0-2.09-2.36 5.6 5.6 0 0 0-3.06-.84 5.5 5.5 0 0 0-3.05.84 5.74 5.74 0 0 0-2.07 2.38 8 8 0 0 0-.72 3.46M224.83 184.06l5-6a19 19 0 0 0 1.66-2.27 4.3 4.3 0 0 0 .54-2.1 2.58 2.58 0 0 0-.84-2.07 3 3 0 0 0-2.06-.7 3.45 3.45 0 0 0-2.31.78 4 4 0 0 0-1.25 2.08h-.85a4.4 4.4 0 0 1 1.56-2.61 4.33 4.33 0 0 1 2.83-1 4 4 0 0 1 2.73.92 3.27 3.27 0 0 1 1 2.6 4.6 4.6 0 0 1-.33 1.69 7 7 0 0 1-.8 1.47c-.31.43-.74 1-1.29 1.64l-.39.47-4.14 5.04h7.24v.72h-8.3ZM235.49 184.06l5-6a17 17 0 0 0 1.66-2.27 4.3 4.3 0 0 0 .55-2.1 2.58 2.58 0 0 0-.84-2.07 3.07 3.07 0 0 0-2.07-.7 3.43 3.43 0 0 0-2.3.78 3.9 3.9 0 0 0-1.25 2.08h-.86a4.4 4.4 0 0 1 1.56-2.61 4.35 4.35 0 0 1 2.83-1 4 4 0 0 1 2.73.92 3.27 3.27 0 0 1 1.06 2.6 4.4 4.4 0 0 1-.34 1.69 6.7 6.7 0 0 1-.8 1.47c-.31.43-.74 1-1.28 1.64l-.39.47-4.21 5.04h7.24v.72h-8.29ZM247.12 183.47a.66.66 0 0 1 .48.2.58.58 0 0 1 .22.5.69.69 0 0 1-1.19.49.66.66 0 0 1-.2-.49.63.63 0 0 1 .2-.5.66.66 0 0 1 .49-.2M257 185.05a6.55 6.55 0 0 1-3.49-.93 6.3 6.3 0 0 1-2.38-2.64 9.33 9.33 0 0 1 0-7.74 6.17 6.17 0 0 1 2.38-2.64 7 7 0 0 1 7 0 6.17 6.17 0 0 1 2.38 2.64 9.14 9.14 0 0 1 0 7.74 6.3 6.3 0 0 1-2.38 2.64 6.57 6.57 0 0 1-3.51.93m-5.83-7.43a7.8 7.8 0 0 0 .72 3.43 5.55 5.55 0 0 0 5.11 3.22 5.6 5.6 0 0 0 3.08-.86 5.65 5.65 0 0 0 2.07-2.38 8.4 8.4 0 0 0 0-6.89 5.8 5.8 0 0 0-2.09-2.36 5.6 5.6 0 0 0-3.06-.84 5.5 5.5 0 0 0-3 .84 5.6 5.6 0 0 0-2.07 2.38 8 8 0 0 0-.77 3.46ZM269 184.78l3.9-6.77a3.9 3.9 0 0 1-1.32.76 5 5 0 0 1-1.7.31 4.24 4.24 0 0 1-2.13-.56 4.14 4.14 0 0 1-1.52-1.56 4.6 4.6 0 0 1-.56-2.33 4.67 4.67 0 0 1 .58-2.34 4.1 4.1 0 0 1 1.62-1.58 4.8 4.8 0 0 1 2.28-.55 4.4 4.4 0 0 1 2.29.57 4 4 0 0 1 1.56 1.58 4.84 4.84 0 0 1 .56 2.38 6.3 6.3 0 0 1-.39 2.3 22 22 0 0 1-1.19 2.42l-.23.41-2.81 5Zm-2.52-10.23a4.2 4.2 0 0 0 .45 2 3.36 3.36 0 0 0 3.05 1.78 4 4 0 0 0 1.87-.45 3.3 3.3 0 0 0 1.35-1.27 3.7 3.7 0 0 0 .51-2 4.15 4.15 0 0 0-.47-2 3.27 3.27 0 0 0-1.29-1.29 3.6 3.6 0 0 0-1.84-.44 3.9 3.9 0 0 0-1.83.42 3.33 3.33 0 0 0-1.31 1.27 3.76 3.76 0 0 0-.54 1.98Z"/></g><g class="cls-6"><path d="M131.33 86.79q-9-.06-14.28-5.91l3.95-5.34q4.44 4.27 9.5 4.33 5.23 0 6.75-3.43a6.2 6.2 0 0 0 .51-2.48 5.67 5.67 0 0 0-4.28-5.85 23.8 23.8 0 0 0-7.48-1v-6.03q10.35 0 10.41-6.52c0-2.81-1.32-4.52-3.94-5.12a7.4 7.4 0 0 0-1.8-.22c-2.66.07-5.34 1.33-8 3.76l-4.33-5.17q6.06-5.23 12.76-5.23 8.32 0 11.93 5a10.84 10.84 0 0 1 1.91 6.41q-.06 6.91-7.14 9.73V64q5.85 1.64 7.81 6.41a11.55 11.55 0 0 1-4.89 14 17.35 17.35 0 0 1-9.39 2.38M178 44.49q-5.11 7.82-15.08 15.36a78 78 0 0 1-8.21 5.4 20 20 0 0 0-4.22-5.4l-.28-.29a63.1 63.1 0 0 0 18.06-14.39 46 46 0 0 0 5.73-7.82h7.32a60.8 60.8 0 0 0 17.85 17.55 57 57 0 0 0 7.31 3.93 33.5 33.5 0 0 0-4.73 6.25 75.7 75.7 0 0 1-18.22-13.95 50.4 50.4 0 0 1-5.53-6.64m-3.6 12.26h7.2V91h-7.2ZM255.35 39.94v42.29c0 3.23-.75 5.4-2.25 6.53a12 12 0 0 1-1.35.73q-2.92 1.29-11.24 1.35H239a25.6 25.6 0 0 0-2.87-7.2l2.42.11q1.29.06 2.58.06h5.12c1.09 0 1.69-.4 1.8-1.19a2.3 2.3 0 0 0 .06-.5v-8.33h-24.65Q220.76 85 213.73 91a20.4 20.4 0 0 0-4.44-4.34c-.34-.26-.62-.46-.84-.61q8.33-7.09 9.33-21.26c.12-1.73.17-3.7.17-5.91v-19Zm-30.76 27.22h23.51v-7H225c-.09 2.55-.22 4.9-.41 7m23.51-20.53H225v7h23.1Z"/></g></g></g></svg>