<svg xmlns="http://www.w3.org/2000/svg" viewBox="0 0 1145.05 185.25"><defs><style>.cls-3{fill:#4c4c4c}.cls-4{fill:#fff}</style></defs><g id="图层_2" data-name="图层 2"><g id="图层_1-2" data-name="图层 1" style="opacity:.3"><rect width="38.89" height="20.23" x="739.41" y="62.27" rx="5.18" style="fill:#ff6d00"/><path d="M529.34 20q-1.32-1.23-3.48-3t-3.59-2.86l2.82-3.61q4.8 3.73 7.14 5.71Zm2.14 3.45q-.48 1.35-2.26 6.93c-1.19 3.71-1.87 5.93-2 6.64l-4.56-1.35q.51-1.18 2.3-6.72c1.19-3.7 1.88-6 2.06-6.81ZM532.87 7l-2.74 3.61c-.87-.77-2-1.74-3.43-2.92s-2.54-2.08-3.36-2.69l2.78-3.65q2.63 1.83 6.75 5.2v-4h25v8.1h-4.41V7h-16.22v3.65h-4.37Zm17.54 16.3a27.6 27.6 0 0 0 4 4.19 37 37 0 0 0 5.22 3.59L557 35.49a38.5 38.5 0 0 1-9.56-9.93v11.87h-4.53V26a37.5 37.5 0 0 1-9.56 9.45l-2.66-4.05a43 43 0 0 0 5.18-3.73 31 31 0 0 0 4.22-4.41h-7v-4.33h9.84V15h4.53v4h10.44v4.3Zm-17.5-8.89a36.4 36.4 0 0 0 4.5-2.8 34 34 0 0 0 4.07-3.35l2.9 3.29a78 78 0 0 1-9 6.63Zm15.72-6.23c1.35.84 3 1.91 4.9 3.19s3.37 2.28 4.35 3L555.26 18q-1.56-1.23-4.27-3.1c-1.81-1.24-3.41-2.31-4.78-3.21ZM573.63 29q-1.54.43-5.45 1.68c-2.61.84-4.69 1.52-6.26 2.05l-1.07-4.88c.82-.19 2.32-.63 4.49-1.31V14.73h-3.57V10h3.57V1h4.72v9h3.1v4.73h-3.1v10.32q1.71-.48 3.06-1Zm1.63-27.59h4.57v13.36a83 83 0 0 1-.48 9.88 28.2 28.2 0 0 1-1.63 6.83 26.6 26.6 0 0 1-3.29 5.91l-4.17-3a29.3 29.3 0 0 0 3.35-5.39 17.4 17.4 0 0 0 1.33-5.24 87 87 0 0 0 .32-8.84Zm12.66 33.26h-4.6V3.18h4.6Zm3.74 2.23V1.35h4.52v35.53ZM635.75 9.57h-15.16v3.93h12.66v14.21a8 8 0 0 1-.61 3.49 3.37 3.37 0 0 1-1.95 1.71 11.8 11.8 0 0 1-3.75.47 23 23 0 0 1-3.25-.24l-1-4.88a30 30 0 0 0 3.77.28 3.1 3.1 0 0 0 1.27-.2 1 1 0 0 0 .51-.67 7 7 0 0 0 .12-1.55v-8h-7.78v19.19h-4.8V18.14H608v15.08h-4.8V13.5h12.62V9.57h-15.19V5h15c-.42-1.22-.93-2.54-1.51-4l5.12-.95a21 21 0 0 1 .86 2.16q.52 1.53.93 2.76h14.68ZM674.54 20.12H668a34 34 0 0 1-2.33 4.55 20 20 0 0 1-2.67 3.55l1.66.72q6.7 2.9 9.34 4.06l-2.7 4.48q-7.26-3.49-12.7-5.83a38.7 38.7 0 0 1-7.4 3.27 95 95 0 0 1-10.62 2.76l-1.43-5A64 64 0 0 0 653 29.25q-5.4-2.25-9.72-3.89c1.16-1.64 2.33-3.38 3.49-5.24h-7.5v-4.56h10.2a50 50 0 0 0 2.7-5.44l5.16 1.23q-1 2-2.1 4.21h19.29Zm-29.22-11v3.89h-4.8V4.56h14.17c-.16-.47-.32-.89-.48-1.27s-.29-.68-.39-1l-.44-1.07 5.08-.91c.4.87.95 2.27 1.67 4.2h13.41v8.5h-4.72V9.17Zm17.19 11h-9.84a33 33 0 0 1-2.11 3.18c2.67 1 5.19 2 7.54 2.94a17 17 0 0 0 4.41-6.12M689.66 31.44q-2.34.63-7.22 1.82l-4.37 1.12-1-4.61c.68-.1 2.21-.44 4.56-1v-9.44h-3.33v-4.48h3.33v-7h-3.77V3.37h12.04v4.49h-3.61v7h3.29v4.48h-3.29v8.3c1.66-.4 2.79-.69 3.37-.88Zm16.39-3.26q6.15 3.74 8.54 5.28l-2.5 3.93q-3.06-2.18-8.82-5.75l2.19-3.46h-7.62l2.38 3.54q-4.61 3.21-9.41 6l-2.34-4.21a61 61 0 0 0 8.77-5.32h-6.67v-4.25h2.62V8.77h-1.94V4.53h1.94V.91H698v3.62h7.5V.91h4.68v3.62h2.54v4.24h-2.54v15.17h3.38v4.24Zm-.59-17V8.77H698v2.42Zm0 3.89H698v2.5h7.5Zm0 6.31H698v2.55h7.5ZM749.48 28.82c-2.49.87-4.41 1.51-5.76 1.9l7.7 2.78-1.7 4q-2.67-1.11-7.63-3t-9-3.33l.2 3.33c-3.09.69-5.61 1.33-7.54 1.91-.79.21-2.21.65-4.25 1.31l-1.7-4.13a4.5 4.5 0 0 0 1-1.09 2.1 2.1 0 0 0 .26-1.05V13.77c-.82.45-2.11 1.08-3.85 1.87l-2-4.45q11.37-4.37 17-11.19h3.73q5.47 6.56 16.67 11l-1.74 4.44q-2.24-.92-4.57-2.14V26l1.59-.64ZM730.27 8a60 60 0 0 1-5.2 3.55h7.34c-.29-.9-.68-2-1.15-3.17l4.36-.88a37 37 0 0 1 1.27 4.05h6.36a51 51 0 0 1-5.2-3.49 33.4 33.4 0 0 1-3.93-3.46 35 35 0 0 1-3.85 3.4m11.31 9.5v-2.34h-15.8v2.34Zm0 3.18h-15.8v2.26h15.8Zm-15.8 11.43 5.64-1.63c-.59-.21-1.17-.4-1.75-.59l-.75-.28 1.31-3h-4.45Zm18.93-5.52H732l1.87.64q5.24 1.86 4.52 1.59 3.24-1.04 6.32-2.23M760.63 36.88h-4.52V19.05h15v17.83h-4.41v-1.83h-6.07Zm-1-35h26.63V16H759.6Zm7.1 28.73V23.5h-6.07v7.1Zm-2.22-19.13h16.95V6.35h-16.98Zm9.81 25.41V19.05h15.48v17.83h-4.45v-1.83h-6.47v1.83Zm4.56-13.38v7.1h6.47V23.5ZM827.91 37.59a50.5 50.5 0 0 1-13.1-5.91 46 46 0 0 1-5.73 2.87q-3.24 1.38-7.8 2.92l-2-4.48q-.94 1.11-3 3.21l-3.18-4.6a38.4 38.4 0 0 0 7.15-8.54 43.4 43.4 0 0 0 4.56-10.64h-9.09V8.3a31 31 0 0 0 1-3.32c.39-1.41.67-2.6.86-3.55l4.72.83c-.24.93-.5 1.93-.77 3s-.54 2-.78 2.7h5.08c.45-2.15.82-4.54 1.11-7.19l4.89.36c-.27 2.09-.61 4.37-1 6.83h11.24c-2-1.43-4-2.85-6.08-4.25l2.83-3.47c2.33 1.53 4.61 3.11 6.83 4.72l-2.34 3h6.07v4.44h-19.45l-.83 3.18h16.75V20a34.4 34.4 0 0 1-6.75 8.53 45 45 0 0 0 10.84 4.13Zm-17.14-9.13a30.4 30.4 0 0 1-4.53-5.6 48.8 48.8 0 0 1-6.83 10 65 65 0 0 0 11.36-4.4m9.6-8.38H810a26 26 0 0 0 5.08 5.72 21.4 21.4 0 0 0 5.29-5.72M847.16 25.29v7.14l6-2 .43 4q-5.55 1.71-8 2.58a14.6 14.6 0 0 0-2.11.88l-1.66-3.65a2.35 2.35 0 0 0 .71-.72 1.6 1.6 0 0 0 .16-.75v-7.48h-2.94a28.8 28.8 0 0 1-1.25 5.95 45.5 45.5 0 0 1-2.6 6.11l-4.21-2.14a33 33 0 0 0 2.56-5.8 27 27 0 0 0 1.1-5.87c.18-2.2.27-5.29.27-9.29V1.87h30.89v10.32h-26.4v4.44c0 1.27 0 2.89-.08 4.84h6.31v-2.42h-5.12V15.4h5.12V13h4.29v2.4h5.83V13h4.33v2.4h5.79v3.65h-5.79v2.42h7.3v3.82H864l2.3 2.42c-1.25.92-2.78 2-4.61 3.17a34.7 34.7 0 0 0 7.11 2l-1.87 4.16a32.1 32.1 0 0 1-10.48-4.38 21.6 21.6 0 0 1-6.74-7.4Zm14.93-16.72V5.76h-22v2.81Zm-5.6 10.48h-5.83v2.42h5.83Zm6.67 6.24h-8.65a16.3 16.3 0 0 0 3.57 3.57q2.58-1.63 5.08-3.57M906.94 9H886.1c-.63 1.14-1.2 2.09-1.7 2.86h18.81v20.33a5.92 5.92 0 0 1-1.05 3.91 4.49 4.49 0 0 1-3.55 1.21c-1.83 0-3.64-.08-5.44-.24l-.87-4.36a35 35 0 0 0 4.52.32 1.59 1.59 0 0 0 1.33-.46 3 3 0 0 0 .34-1.69v-.95h-16.4v7.3h-4.68V20.44a56 56 0 0 1-4.76 4.17l-2.27-4.8A45.2 45.2 0 0 0 880.51 9h-8.42V4.49H883a40 40 0 0 0 1.62-4l5.13.59c-.48 1.22-1 2.36-1.43 3.42h18.61Zm-24.85 9.92h16.4v-2.84h-16.4Zm0 4v2.9h16.4V22.9ZM922.86 6.11l-2.58 8.34a17.86 17.86 0 0 1 2.72 9.41q0 3.6-1.21 5a5 5 0 0 1-3.91 1.39 11.5 11.5 0 0 1-1.63-.12l-.87-4.33a7.2 7.2 0 0 0 1.78.2 1.27 1.27 0 0 0 1.23-.66 5.5 5.5 0 0 0 .36-2.4 11.3 11.3 0 0 0-.67-3.55 16.4 16.4 0 0 0-2-4l2.38-9.21H915v31h-4.25V2h12.07Zm23.66 26.4-2.66 4.05a24.9 24.9 0 0 1-8-6.41 28.1 28.1 0 0 1-4.55-9.51h-2.58V31.2l5-2.18.67 4.48q-4.49 1.71-7.26 3l-1 .51a6.4 6.4 0 0 0-.92.44l-2-4.09a2 2 0 0 0 1-.75 3.2 3.2 0 0 0 .2-1.31V2.06h19v18.58h-7.78a28 28 0 0 0 2 4.41 54 54 0 0 0 5.32-4l2.46 3.41a73 73 0 0 1-5.48 3.65 19.8 19.8 0 0 0 6.58 4.4M939 9.29v-3.1h-10.27v3.1Zm0 4.21h-10.27v3H939ZM964.46 2.74a48.3 48.3 0 0 1-13.14 19.09L948 18.06a38.13 38.13 0 0 0 11.9-16.79Zm8.37 18.1c1.35 1.9 2.9 4.23 4.65 7s3.25 5.16 4.52 7.33l-4.2 2.5-2.07-3.67-6.23.63-5.66.56q-2.83.27-5.69.59l-5.2.52-1.43-4.88a5.5 5.5 0 0 0 1.63-.56 4.6 4.6 0 0 0 1.23-1.07 61 61 0 0 0 4.58-7 100 100 0 0 0 4.63-9l4.72 1.87Q966.36 19.82 964 24c-1.58 2.78-3.11 5.2-4.56 7.27l13.73-1.51c-1.74-2.8-3.16-4.95-4.24-6.43Zm-.19-20a39.4 39.4 0 0 0 5 9.71 29.9 29.9 0 0 0 7.5 6.85l-3.1 4a39.5 39.5 0 0 1-8.29-8.11 40.8 40.8 0 0 1-5.52-11ZM988 9.65h26.16v4.6H988Zm33.34 22.14a6.37 6.37 0 0 1-1.11 4.19 4.67 4.67 0 0 1-3.65 1.33q-3.42 0-6.35-.28l-1-4.72c1.67.21 3.43.35 5.28.4a1.51 1.51 0 0 0 1.43-.68 4.54 4.54 0 0 0 .4-2.22v-23h-26.72V2.06h31.68Zm-10.4.08h-20.36V17h20.32Zm-15.36-10.28v5.64h10.32v-5.64Z"/><path d="M531 72.64v6.42h-1.19v-6.42h-7.9v-1.12h7.9v-7.65h-6.65v-1.09h14.45v1.09H531v7.65h7.9v1.12Zm-6.84-6.82 1-.49q1.59 2.49 2.57 4.32l-1 .59c-.73-1.47-1.61-2.95-2.56-4.42Zm11.56-.49 1 .49q-1.38 2.5-2.68 4.46l-1-.55a43 43 0 0 0 2.69-4.4ZM554.79 77.74h-11.94V79h-1.13V66.48h5.18c.42-1 .78-1.86 1.05-2.64h-7.55v-1h16.87v1h-8.07q-.53 1.41-1.08 2.64h7.82V79h-1.15Zm-9-1v-9.28h-2.91v9.28Zm5-6.82v-2.46h-4v2.46Zm0 3.38v-2.47h-4v2.47Zm0 3.44v-2.53h-4v2.53Zm4 0v-9.28h-2.91v9.28ZM558.64 67.76h3.46v8.11q1.18-1 2.19-2.1l.51 1a39 39 0 0 1-3.59 3.23l-.68-.87a1.7 1.7 0 0 0 .34-.6 2.7 2.7 0 0 0 .1-.72v-7h-2.33Zm1.18-5 .9-.66c.85.87 1.77 1.88 2.76 3l-.89.78c-.98-1.19-1.91-2.23-2.77-3.14Zm10.69 12.79a19.3 19.3 0 0 0 5.29 2.32l-.57 1.1a21.8 21.8 0 0 1-5.67-2.69 22 22 0 0 1-5.8 2.84l-.6-1a23.3 23.3 0 0 0 5.5-2.57 14.4 14.4 0 0 1-3.12-4.12l.92-.57a13.6 13.6 0 0 0 3.12 4 11.6 11.6 0 0 0 3.14-4.16h-8.3v-1H574v1.06a13.6 13.6 0 0 1-3.49 4.77Zm-4.2-12.94h6.63v3.32a1.16 1.16 0 0 0 .24.93 1.3 1.3 0 0 0 .91.28h1.76l-.21 1.06h-1.85a2.22 2.22 0 0 1-1.53-.45 1.79 1.79 0 0 1-.46-1.44v-2.66h-4.38v1.32a4.6 4.6 0 0 1-.64 2.25 7 7 0 0 1-2.06 1.72l-.78-.83a5.8 5.8 0 0 0 1.86-1.48 3.4 3.4 0 0 0 .52-1.92q.04-1.04-.01-2.12ZM577.1 67.8h3.83v8.43c1-.75 1.89-1.53 2.8-2.35l.51 1.06c-1.64 1.43-3 2.58-4.23 3.48l-.78-1a2.5 2.5 0 0 0 .44-.51 2.2 2.2 0 0 0 .11-.74V68.9h-2.68Zm1.45-5 .89-.72q1.47 1.37 3.06 3l-.85.81q-1.73-1.82-3.1-3.13Zm10.64 6.48V79H588v-9.76h-5v-1.13h5v-6.47h1.19v6.47h5.1v1.13ZM599.78 61.7h1.1V69a20.2 20.2 0 0 1-.64 5.84 8.6 8.6 0 0 1-1 2.15 14 14 0 0 1-1.78 2.08l-.94-.68a9.47 9.47 0 0 0 2.81-4.25 10.8 10.8 0 0 0 .36-1.93 31 31 0 0 0 .13-3.21Zm-3.23 1.76h1v10.42h-1Zm11.24 4.46V79h-1.07V67.92h-2.82v8.44h-1v-9.44h3.86v-3H602v-1h10.52v1h-4.76v3h3.93v7.44a2 2 0 0 1-.41 1.39 2.1 2.1 0 0 1-1.34.46h-1.38l-.19-1a10 10 0 0 0 1.23.08 1.4 1.4 0 0 0 .81-.21 1.1 1.1 0 0 0 .23-.79v-6.37ZM621.94 79.08V61.59H623v17.49ZM636.22 70.67V79h-1.06v-8a20 20 0 0 1-2.43 2.42l-.49-1.06a20 20 0 0 0 2.76-2.78 15.7 15.7 0 0 0 1.85-3.12h-4.08v-1h2.7q-.48-2.22-.87-3.57l1.06-.21c.31 1.07.62 2.33.92 3.78H638v1a17 17 0 0 1-1.78 3.21v.87l.64-.49c.76.72 1.48 1.46 2.16 2.21l-.78.7c-.56-.74-1.24-1.49-2.02-2.29m7.12-5.36h1.1c0 1.12-.05 2.24-.08 3.36a12.7 12.7 0 0 1-1.45 5.93 13.74 13.74 0 0 1-4.72 4.4l-.76-.89a13 13 0 0 0 4.5-4 10.84 10.84 0 0 0 1.34-5.46c.05-1.72.07-2.85.07-3.34m-3.57-2.64H648v10.4h-1.12v-9.33h-6v9.39h-1.08Zm4.23 9.12h1v4.46a1.16 1.16 0 0 0 .32.88 1.76 1.76 0 0 0 1 .34 2 2 0 0 0 .61 0 1.83 1.83 0 0 0 1-.3 1.32 1.32 0 0 0 .44-.83c.13-.87.22-1.48.24-1.83l1 .43c-.11.87-.19 1.48-.24 1.82a2.05 2.05 0 0 1-.68 1.28 3.14 3.14 0 0 1-1.63.45h-.73a2.67 2.67 0 0 1-1.7-.53 1.94 1.94 0 0 1-.63-1.58ZM658.74 70.79h1.11a13.5 13.5 0 0 1-.36 2.62 5.9 5.9 0 0 1-2.34 3.46 16.8 16.8 0 0 1-5.65 2.19L651 78a16.9 16.9 0 0 0 5.31-1.89 4.9 4.9 0 0 0 2.16-2.93 13 13 0 0 0 .27-2.39m4.55-5.54h3.85v3.69H666v-2.7h-13.33v2.68h-1.13v-3.67h10.35a29 29 0 0 0 2.65-3.45l1.13.39c-.79 1.12-1.59 2.14-2.38 3.06m-10.37-2.94 1.1-.38c.75.92 1.39 1.74 1.9 2.47l-1 .49q-.84-1.19-2-2.58m1 6.25h10.82v6.36h-1.11V69.5h-8.58V75h-1.13Zm4-6.67 1.09-.3c.75 1.27 1.26 2.16 1.55 2.68l-1.06.45c-.5-1.08-1.08-2.02-1.59-2.83Zm1.7 11.35h1.09v2.82a1.5 1.5 0 0 0 .32 1.07 1.67 1.67 0 0 0 1.08.34 16.5 16.5 0 0 0 2.63 0 2.6 2.6 0 0 0 1.24-.3 1.66 1.66 0 0 0 .53-1c.08-.42.15-1 .23-1.66l1 .38c-.09.59-.19 1.18-.29 1.76a2.3 2.3 0 0 1-.79 1.41 3.24 3.24 0 0 1-1.78.45 23 23 0 0 1-3.09 0 2.45 2.45 0 0 1-1.68-.56 2.18 2.18 0 0 1-.53-1.65ZM669.14 67.76h3.46v8.11q1.18-1 2.19-2.1l.51 1a39 39 0 0 1-3.59 3.23l-.68-.87a1.7 1.7 0 0 0 .34-.6 2.7 2.7 0 0 0 .1-.72v-7h-2.33Zm1.18-5 .9-.66c.85.87 1.77 1.88 2.76 3l-.89.78c-.98-1.19-1.91-2.23-2.77-3.14ZM681 75.53a19.3 19.3 0 0 0 5.29 2.32l-.57 1.1a21.8 21.8 0 0 1-5.67-2.69 22 22 0 0 1-5.8 2.84l-.6-1a23.3 23.3 0 0 0 5.5-2.57 14.4 14.4 0 0 1-3.15-4.12l.92-.57a13.6 13.6 0 0 0 3.12 4 11.6 11.6 0 0 0 3.14-4.16h-8.3v-1h9.54v1.06a13.6 13.6 0 0 1-3.42 4.79m-4.2-12.94h6.63v3.32a1.16 1.16 0 0 0 .24.93 1.3 1.3 0 0 0 .91.28h1.76l-.21 1.06h-1.85a2.22 2.22 0 0 1-1.53-.45 1.79 1.79 0 0 1-.46-1.44v-2.66h-4.38v1.32a4.6 4.6 0 0 1-.64 2.25 7 7 0 0 1-2.06 1.72l-.78-.83a5.8 5.8 0 0 0 1.86-1.48 3.4 3.4 0 0 0 .52-1.92q.05-1.02 0-2.1ZM687.6 67.8h3.83v8.43c1-.75 1.89-1.53 2.8-2.35l.51 1.06c-1.64 1.43-3 2.58-4.23 3.48l-.78-1a2.5 2.5 0 0 0 .44-.51 2.2 2.2 0 0 0 .11-.74V68.9h-2.68Zm1.45-5 .89-.72q1.47 1.37 3.06 3l-.85.81c-1.15-1.24-2.15-2.26-3.1-3.13Zm10.64 6.48V79h-1.19v-9.76h-5v-1.13h5v-6.47h1.19v6.47h5.1v1.13ZM710.29 61.7h1.09V69a20.2 20.2 0 0 1-.64 5.84 8.6 8.6 0 0 1-1 2.15 13.3 13.3 0 0 1-1.78 2.08l-.96-.67a9.47 9.47 0 0 0 2.81-4.25 10.8 10.8 0 0 0 .36-1.93 31 31 0 0 0 .14-3.21Zm-3.23 1.76h1v10.42h-1Zm11.23 4.46V79h-1.07V67.92h-2.82v8.44h-1v-9.44h3.86v-3h-4.69v-1h10.52v1h-4.76v3h3.93v7.44a2 2 0 0 1-.41 1.39 2.1 2.1 0 0 1-1.34.46h-1.38l-.19-1a10 10 0 0 0 1.23.08 1.4 1.4 0 0 0 .81-.21 1.1 1.1 0 0 0 .23-.79v-6.37Z" class="cls-3"/><path d="M755.71 65.75v6.69a12.7 12.7 0 0 0 3.37 2.3 4 4 0 0 0-.79.91 12.6 12.6 0 0 1-2.58-1.81V79h-1.11v-6.21a16.2 16.2 0 0 1-2.17-2.86q-1.51 6.52-6 9a3.2 3.2 0 0 0-.81-.79s-.05 0-.05 0a10.53 10.53 0 0 0 4.31-4.29 16.6 16.6 0 0 0-2.78-2.06 10.4 10.4 0 0 1-1 1.12 5 5 0 0 0-.89-.69 12.6 12.6 0 0 0 3.25-5.68c.08-.28.16-.55.23-.83l1.06.22c-.19.68-.41 1.35-.65 2h2.74l.2-.07.7.27c0 .09-.08.5-.21 1.22l.57-.21a12 12 0 0 0 1.48 2.12v-5.51ZM751.55 69h-2.84a19 19 0 0 1-1.07 2 16 16 0 0 1 2.72 1.91 17.7 17.7 0 0 0 1.19-3.91M770.55 68.72H763a13.7 13.7 0 0 1-2.54 2.76 5.4 5.4 0 0 0-.89-.78 11.8 11.8 0 0 0 3.37-4c.18-.35.35-.7.5-1l1.09.32a13 13 0 0 1-.88 1.7h8v.52a43 43 0 0 1-.47 6.51 1.5 1.5 0 0 1-.24.54 1.3 1.3 0 0 1-.92.49 12 12 0 0 1-1.7 0 2.6 2.6 0 0 0-.27-1 10 10 0 0 0 1.45.06.6.6 0 0 0 .49-.2c.26-.35.45-2.26.55-5.74Zm-5.79 9h5.54a1.51 1.51 0 0 0 1.23-.38 3.6 3.6 0 0 0 .36-1.44 2.8 2.8 0 0 0 1 .39 3.37 3.37 0 0 1-.67 2 2.92 2.92 0 0 1-2 .49h-5.49a4.12 4.12 0 0 1-2.46-.49 2 2 0 0 1-.49-1.51v-6.5h5.91v4.29h-4.84v2.21c0 .43.13.7.38.82a3.9 3.9 0 0 0 1.53.11Zm2-6.51h-3.78v2.34h3.78Z" class="cls-4"/><path d="M527.2 116.27v3.35h-.6v-3.2c-1.56.37-3.12.69-4.69 1l-.15-.63 1.31-.23v-10.28h-1.13v-.57h6.36v.57h-1.1v9.38l1.25-.31.08.59Zm-.6-7.13v-2.86h-2.94v2.86Zm0 3.4v-2.84h-2.94v2.84Zm0 3.27v-2.73h-2.94v3.35c.54-.11 1.52-.31 2.94-.62m4.18-1.19.59.26a26.2 26.2 0 0 1-2.78 4.74l-.54-.38a23.5 23.5 0 0 0 2.73-4.62m4.64-1.59h-6.06v-7.21h6.06Zm-.62-.6v-6H530v6Zm-1.47 2.46.56-.29q1.43 2.2 2.68 4.56l-.56.33q-1.15-2.16-2.68-4.6M545.66 110.5h7v.55h-14.55v-.55H545v-1.62h-5.23v-.54H545v-1.62h-6v-.54h6v-1.62h.65v1.62h6.07v.54h-6.07v1.62h5.27v.54h-5.27Zm-.27 5.7q2.8 1.13 6.71 2.85l-.26.57c-2.59-1.14-4.84-2.09-6.75-2.88q-1.23 2-6.55 2.89l-.25-.58a16.3 16.3 0 0 0 4.91-1.46 3.36 3.36 0 0 0 1.8-2.29c0-.35.06-.76.1-1.26h.65l-.12 1.31a5 5 0 0 1-.24.85m-5.1-3.5h10.11v4.21h-.63v-3.65h-8.85V117h-.63ZM556.18 110.19a.57.57 0 0 1 .42.16.59.59 0 0 1 0 .83.57.57 0 0 1-.42.17.52.52 0 0 1-.39-.17.58.58 0 0 1-.18-.42.56.56 0 0 1 .16-.41.51.51 0 0 1 .41-.16m0 6.85a.57.57 0 0 1 .42.16.57.57 0 0 1 .17.42.62.62 0 0 1-.17.41.57.57 0 0 1-.42.17.52.52 0 0 1-.39-.17.55.55 0 0 1-.18-.41.57.57 0 0 1 .16-.42.49.49 0 0 1 .41-.2ZM568.33 106.23H575v.59l-2.76 2.7h4v6.63h-.66v-6h-9.09v6h-.65v-6.63h5.56c1.22-1.22 2.12-2.12 2.71-2.68h-6.24a21 21 0 0 1-3.81 3.43l-.43-.51a18 18 0 0 0 2.91-2.42 18.5 18.5 0 0 0 2.26-2.84l.65.21c-.4.56-.76 1.06-1.12 1.52m2.56 9c2 1 4.26 2.28 6.84 3.75l-.3.61q-4.26-2.46-6.8-3.79-1.27 2.53-6.57 3.87l-.28-.62a12.16 12.16 0 0 0 5.43-2.5 4.7 4.7 0 0 0 1.06-1.55 6.2 6.2 0 0 0 .38-1.8q0-.63.06-1.86h.64c0 .51 0 1.16-.08 1.94a6.3 6.3 0 0 1-.38 1.93ZM587.06 110.5h7v.55h-14.55v-.55h6.9v-1.62h-5.23v-.54h5.23v-1.62h-6v-.54h6v-1.62h.65v1.62h6.07v.54h-6.07v1.62h5.27v.54h-5.27Zm-.27 5.7q2.81 1.13 6.71 2.85l-.26.57c-2.59-1.14-4.84-2.09-6.75-2.88q-1.23 2-6.55 2.89l-.25-.58a16.3 16.3 0 0 0 4.91-1.46 3.36 3.36 0 0 0 1.78-2.29c0-.35.06-.76.1-1.26h.65c0 .11 0 .55-.11 1.31a5 5 0 0 1-.23.85m-5.1-3.5h10.11v4.21h-.63v-3.65h-8.85V117h-.63ZM595.64 110h2.81v7.59a29 29 0 0 0 2.07-2.08l.33.57a30 30 0 0 1-2.93 2.76l-.39-.49a1.2 1.2 0 0 0 .21-.39 2 2 0 0 0 .07-.49v-6.85h-2.17Zm1.07-4.54.53-.4c.74.78 1.53 1.65 2.37 2.6l-.51.45c-.84-1-1.63-1.88-2.39-2.66Zm8.95 11.21a17.5 17.5 0 0 0 4.78 2.27l-.32.62a18 18 0 0 1-5-2.47 19.3 19.3 0 0 1-5.19 2.6l-.34-.59a20.3 20.3 0 0 0 5-2.43 11.8 11.8 0 0 1-2.87-3.89l.55-.29a11.1 11.1 0 0 0 2.86 3.77 10.25 10.25 0 0 0 2.91-4h-7.4v-.59h8.12v.6a11.1 11.1 0 0 1-3.09 4.33Zm-3.23-11.16h5.45v3a1.12 1.12 0 0 0 .25.85 1.22 1.22 0 0 0 .83.28h1.52l-.13.64h-1.55a1.86 1.86 0 0 1-1.24-.41 1.54 1.54 0 0 1-.33-1.16v-2.58h-4.14v1.44a3.8 3.8 0 0 1-.54 1.91 5.2 5.2 0 0 1-1.75 1.44l-.44-.47a5 5 0 0 0 1.62-1.3 2.94 2.94 0 0 0 .47-1.71ZM612 110h3.17v7.62c.77-.59 1.64-1.31 2.6-2.16l.31.59q-1.7 1.52-3.48 2.91l-.45-.55a1 1 0 0 0 .3-.4 2 2 0 0 0 .06-.54v-6.87H612Zm1.29-4.52.49-.44c1 1 1.93 1.85 2.66 2.61l-.47.46c-.97-.98-1.84-1.86-2.68-2.66Zm9 5.6v8.53h-.67v-8.53h-4.48v-.63h4.48v-5.86h.67v5.86h4.56v.63ZM637.28 107.7h4.25v.64h-3.24v4.45h4v.62h-4v6.14h-.66v-6.14h-5a7.6 7.6 0 0 1-1 3.53 10.3 10.3 0 0 1-2.89 2.78l-.49-.49a10.1 10.1 0 0 0 2.76-2.57 6.9 6.9 0 0 0 1-3.25h-4.27v-.62H632v-4.45h-3.5v-.64h4.28c-.6-1-1.2-2-1.79-2.79l.58-.25c.72 1 1.38 2 2 3h3a27 27 0 0 0 1.85-3.1l.62.24a24.4 24.4 0 0 1-1.76 2.9m.35 5.09v-4.45h-5v4.46ZM654.68 118.16h2.66v.61h-14.8v-.61h2.66v-12.63h9.48Zm-.69-8.3v-3.73h-8.12v3.73Zm0 4.17v-3.58h-8.12V114Zm0 4.13v-3.54h-8.12v3.54ZM661.88 115.92v3.73h-.6V116l-3.06.46-.1-.64c1.16-.15 2.21-.31 3.16-.46v-2.88h-2.53V112c.5-1.32 1-2.77 1.45-4.35h-1.91V107h2.07c.23-.84.45-1.65.64-2.43l.57.1c-.24 1-.44 1.74-.62 2.33h2.63v.57h-2.79q-.69 2.3-1.44 4.35h1.93v-3h.6v3h1.61v.57h-1.61v2.8l1.82-.33.08.57Zm9.88-8.87H673v.57h-4.4v2h3.57v8.31a1.57 1.57 0 0 1-.35 1.14 1.5 1.5 0 0 1-1.09.36h-1l-.11-.59 1 .07a1.12 1.12 0 0 0 .77-.22 1.2 1.2 0 0 0 .2-.8v-1.86h-3v3.3H668v-3.3h-2.9v3.6h-.6v-10h3.5v-2h-3.78v-.57H668v-2.49h.6v2.49h2.52c-.36-.74-.72-1.43-1.08-2.06l.59-.16c.37.66.73 1.4 1.13 2.21m-3.76 3.12h-2.9v2.34h2.9Zm0 5.21v-2.32h-2.9v2.32Zm3.55-2.87v-2.34h-3v2.34Zm0 2.87v-2.32h-3v2.32ZM680.37 116.46c.49-.07.86-.14 1.13-.19l.08.57q-3.57.69-7.37 1.18l-.14-.62c.47-.06 1-.12 1.49-.2v-11.57h4.81Zm-.62-7.07v-3.17h-3.58v3.17Zm0 3.61v-3h-3.58v3Zm0 3.56v-3h-3.58v3.53c1.45-.18 2.64-.36 3.58-.53m4.49-8.46H688c-.13 4.44-.23 7.42-.28 8.92a2.32 2.32 0 0 1-.48 1.57 2 2 0 0 1-1.48.5c-.42 0-1 0-1.67-.06l-.13-.67c.59.06 1.14.1 1.65.1a1.56 1.56 0 0 0 1.13-.35 2 2 0 0 0 .36-1.19q.15-3.67.24-8.19h-3.14a24.7 24.7 0 0 1-.85 6.44 11.74 11.74 0 0 1-2.68 4.45l-.5-.44a11 11 0 0 0 2.6-4.24 24.2 24.2 0 0 0 .81-6.21h-2.09v-.63h2.11v-3.52h.64c.04.78.02 1.95 0 3.52M690.28 111.54l2.87 1.21-.24.59c-1-.47-2-.88-2.91-1.24Zm10-4.79v1.43h-.64v-1.43h-4.56v1.46h-.62v-1.46h-4.33v-.55h4.33v-1.62h.62v1.62h4.56v-1.64h.64v1.64h4.31v.55Zm-7.55 7.9.55.24c-.63 1.61-1.29 3.13-2 4.58l-.59-.28q1.03-2.02 2.04-4.54m-1.34-6.31c1.32.6 2.27 1 2.86 1.34l-.26.59c-.79-.43-1.75-.89-2.9-1.41Zm8.55 4.07a18 18 0 0 0 4.85 1.31l-.18.6a18.6 18.6 0 0 1-5.1-1.47l-.19-.1a23.7 23.7 0 0 1-5.35 1.8l-.2-.57a21.3 21.3 0 0 0 4.91-1.57 10.5 10.5 0 0 1-2.36-1.85 13 13 0 0 1-1.63 1.47l-.41-.47a11.45 11.45 0 0 0 3.27-3.66l.6.16a9 9 0 0 1-.7 1.13h5.64v.56a12.1 12.1 0 0 1-3.15 2.66m2.38 6.24h-6.16v1h-.62v-4.77h7.4v4.77h-.62Zm0-.54v-2.71h-6.16v2.71Zm-3-6a11.4 11.4 0 0 0 3-2.37h-5.23l-.34.39a9.4 9.4 0 0 0 2.55 1.97ZM708.4 116.2l2.1-.78.16.59q-2.6 1-5.12 1.79l-.19-.63c1-.31 1.84-.56 2.43-.77v-6.82h-2V109h2v-4.36h.62V109h2v.59h-2Zm7.29-6.6v6.77h-.62v-6.58l-2.87.94v5.7a2.07 2.07 0 0 0 .42 1.54 2.7 2.7 0 0 0 1.57.42 29 29 0 0 0 3.24 0 3 3 0 0 0 1.48-.39 1.74 1.74 0 0 0 .58-1.13c.09-.53.17-1 .22-1.49l.61.17c-.07.57-.15 1.1-.25 1.6a2.12 2.12 0 0 1-.76 1.41 3.4 3.4 0 0 1-1.77.44q-1.77.07-3.48 0a3.22 3.22 0 0 1-1.93-.56 2.63 2.63 0 0 1-.55-1.91v-5.61l-1.48.48-.16-.61 1.64-.52v-4.1h.62v3.9l2.87-.91v-4.53h.62V109l3.7-1.17c-.06 2.21-.11 3.9-.17 5.08a2.3 2.3 0 0 1-.4 1.4 1.58 1.58 0 0 1-1.16.44h-1.2l-.08-.62h1.11a1.1 1.1 0 0 0 .8-.24 1.77 1.77 0 0 0 .33-1.08c0-.9.09-2.29.13-4.17ZM730 116.46l.18.08c1.56.67 3.29 1.44 5.2 2.33l-.28.65c-1.72-.83-3.43-1.61-5.11-2.35l-.58-.26a20.6 20.6 0 0 1-7.42 2.71l-.26-.64a28 28 0 0 0 4.12-1.08 13 13 0 0 0 2.84-1.31q-2.73-1.17-4.56-1.88a29 29 0 0 0 1.65-2.74h-4.38v-.61h4.71c.44-.83.89-1.82 1.36-2.94l.67.23c-.38.91-.81 1.81-1.28 2.71H736v.64h-3.12a12.5 12.5 0 0 1-1.29 2.7 8.4 8.4 0 0 1-1.59 1.76m-.41-9.61H735v2.75h-.66v-2.14H723.1v2.24h-.65v-2.85h6.39c-.32-.72-.66-1.43-1-2.14l.64-.19c.36.77.73 1.55 1.06 2.33Zm-.28 9.32a7.7 7.7 0 0 0 1.59-1.59 10.4 10.4 0 0 0 1.34-2.61h-5.7c-.48.88-1 1.71-1.47 2.48 1.27.49 2.69 1.07 4.19 1.72ZM740.38 116.71c.65-.14 1.3-.31 2-.49l.09.6a45 45 0 0 1-4.82 1.08l-.16-.62 2.3-.44v-5.17h-1.93v-.58h1.93v-4.45h-2.07v-.59h4.59v.59h-1.9v4.45h1.79v.58h-1.79Zm5.41-.08.43.44a26 26 0 0 1-3.6 2.51l-.36-.5a21 21 0 0 0 3.53-2.45m4.47-1.47h2v.58h-9.86v-.58h2v-7.87h-1.51v-.57h1.51v-2.11h.6v2.11h4.64v-2.11h.64v2.11h1.5v.57h-1.5Zm-.64-5.63v-2.24H745v2.24Zm0 2.85v-2.31H745v2.31Zm0 2.78v-2.24H745v2.24Zm-1.32 2 .37-.47c1 .62 2.08 1.4 3.38 2.35l-.35.52a73 73 0 0 0-3.4-2.41ZM765.25 114.36h-8.2a9.5 9.5 0 0 1-.79 2.81 11.9 11.9 0 0 1-1.76 2.48l-.56-.49a9 9 0 0 0 2.09-3.28 16.1 16.1 0 0 0 .51-4.61v-5.69h9.38V117a2.56 2.56 0 0 1-.5 1.74 2.45 2.45 0 0 1-1.64.57 17 17 0 0 1-1.78-.08l-.08-.69a17 17 0 0 0 1.75.11 1.76 1.76 0 0 0 1.24-.39 2 2 0 0 0 .34-1.32Zm0-.61v-3.45h-8.06v1c0 .92 0 1.74-.08 2.45Zm0-4v-3.5h-8.06v3.5ZM771 107.21h3.12v.53l-1.09 2.9-.56-.16 1-2.71h-2.69a21 21 0 0 1-1.71 3.5l-.47-.44a19.5 19.5 0 0 0 2.45-6.13l.64.11q-.32 1.29-.69 2.4m0 3.12h.62v7.44c.6-.49 1.31-1.14 2.12-1.94l.27.57c-1.19 1.11-2.17 2-2.93 2.56l-.41-.49a1.2 1.2 0 0 0 .33-.91Zm10.1 3v6.23h-.64v-6.23h-3.27a10.3 10.3 0 0 1-.72 3.56 9.6 9.6 0 0 1-2.12 2.83l-.49-.43a9 9 0 0 0 2-2.63 9.2 9.2 0 0 0 .68-3.33h-2.57v-.59h2.58v-4.23h-1.8v-.59h2.63c-.35-.87-.82-1.89-1.4-3.06l.57-.18q.74 1.43 1.47 3.24h1.47a37 37 0 0 0 1.9-3.32l.55.23c-.55 1.08-1.14 2.11-1.76 3.09H783v.59h-2v4.23h2.48v.59Zm-.64-.59v-4.23h-3.23v4.24ZM785 117.51l4.2-5a15 15 0 0 0 1.39-1.9 3.57 3.57 0 0 0 .46-1.77 2.19 2.19 0 0 0-.7-1.73 2.6 2.6 0 0 0-1.74-.59 2.83 2.83 0 0 0-1.92.66 3.2 3.2 0 0 0-1 1.75h-.72a3.7 3.7 0 0 1 1.31-2.19 3.58 3.58 0 0 1 2.37-.84 3.34 3.34 0 0 1 2.29.77 2.75 2.75 0 0 1 .88 2.17 3.8 3.8 0 0 1-.28 1.43 6 6 0 0 1-.67 1.22c-.26.36-.62.82-1.08 1.37l-.32.4-3.54 4.25H792v.6h-7ZM800.46 114.57a4.23 4.23 0 0 1-1 2.73 3.5 3.5 0 0 1-5 0 4.27 4.27 0 0 1-.95-2.75v-4.890000000000001a4.2 4.2 0 0 1 1-2.74 3.47 3.47 0 0 1 5 0 4.28 4.28 0 0 1 1 2.76v2.44c0 .91-.03 1.71-.05 2.45m-6.21-.21a4.37 4.37 0 0 0 .7 2.43 2.39 2.39 0 0 0 2.08.93 2.36 2.36 0 0 0 2.06-.93 4.37 4.37 0 0 0 .7-2.43v-4.5a4.43 4.43 0 0 0-.7-2.44 2.36 2.36 0 0 0-2.06-.93 2.39 2.39 0 0 0-2.08.93 4.43 4.43 0 0 0-.7 2.44v2.24c0 .83-.02 1.58 0 2.26M802.29 117.51l4.2-5a15 15 0 0 0 1.39-1.9 3.7 3.7 0 0 0 .45-1.77 2.16 2.16 0 0 0-.7-1.73 2.57 2.57 0 0 0-1.73-.59 2.86 2.86 0 0 0-1.93.66 3.3 3.3 0 0 0-1.05 1.75h-.71a3.68 3.68 0 0 1 1.3-2.19 3.62 3.62 0 0 1 2.37-.84 3.34 3.34 0 0 1 2.29.77 2.72 2.72 0 0 1 .88 2.17 4 4 0 0 1-.27 1.43 6 6 0 0 1-.67 1.22c-.27.36-.62.82-1.08 1.37l-.33.4-3.53 4.25h6.06v.6h-6.94ZM814.29 118.34a3.9 3.9 0 0 1-1.8-.42 3.3 3.3 0 0 1-1.3-1.21 3.7 3.7 0 0 1-.54-1.86h.72a3.07 3.07 0 0 0 .94 2.12 2.93 2.93 0 0 0 2 .75 3.1 3.1 0 0 0 2.14-.73 2.88 2.88 0 0 0-.08-4.16 3.84 3.84 0 0 0-2.3-.66h-.84v-.63h.84a3.3 3.3 0 0 0 1.37-.29 2.8 2.8 0 0 0 1.06-.87 2.63 2.63 0 0 0-.31-3.22 2.63 2.63 0 0 0-1.9-.67 2.47 2.47 0 0 0-1.78.67 3.06 3.06 0 0 0-.91 1.75h-.72a3.52 3.52 0 0 1 1.14-2.2 3.34 3.34 0 0 1 2.32-.84 3.5 3.5 0 0 1 1.67.38 2.87 2.87 0 0 1 1.18 1.06 3.06 3.06 0 0 1 .42 1.6 2.84 2.84 0 0 1-2.07 2.9 3.2 3.2 0 0 1 1.81 1 3.14 3.14 0 0 1 .65 2.06 3.66 3.66 0 0 1-.45 1.79 3.15 3.15 0 0 1-1.31 1.19 4.6 4.6 0 0 1-1.95.49M823.65 106.53h10.05v.62h-5.39v3.36h5v.63h-5v4h6.14v.62h-6.14v4h-.67v-4h-8v-.62h2.83v-4.58h5.2v-3.36h-4.35c-.26.41-.42.65-.46.7a22.5 22.5 0 0 1-2.3 2.78l-.45-.52a18.2 18.2 0 0 0 3.83-5.58l.65.18c-.34.65-.65 1.24-.94 1.77m4 8.56v-4h-4.56v4ZM837.17 117.75v1.61h-.64v-12h1.65a27 27 0 0 0 1.1-2.81l.65.14q-.4 1.2-1 2.67h3v11.78h-.64v-1.44Zm0-5.45h4V108h-4Zm0 4.83h4v-4.21h-4Zm7.5-9.77h4.74l-.21 9.22a3 3 0 0 1-.62 2 2.53 2.53 0 0 1-1.85.67 21 21 0 0 1-2.12-.1l-.09-.69c.89.08 1.58.12 2.08.12a2 2 0 0 0 1.47-.49 2.42 2.42 0 0 0 .49-1.6c.07-2.9.13-5.74.2-8.52h-4.37a24 24 0 0 1-1.53 2.75l-.56-.33a20.4 20.4 0 0 0 2.7-5.82l.62.18c-.23.75-.55 1.62-.95 2.61m-1.14 4 .5-.33c.62.82 1.41 1.88 2.36 3.19l-.54.39c-.64-.93-1.41-2.01-2.32-3.23ZM854.48 112.23v7.37h-.6v-7.39a18.4 18.4 0 0 1-2.32 2.36l-.26-.64a16.8 16.8 0 0 0 2.43-2.5 14.2 14.2 0 0 0 1.67-2.91h-3.76V108h2.47c-.26-1.24-.53-2.31-.79-3.21l.62-.14c.32 1.24.59 2.36.82 3.35h1.32v.55a15 15 0 0 1-1.6 2.93v.65l.36-.26c.7.63 1.36 1.28 2 1.93l-.46.41c-.61-.71-1.23-1.35-1.9-1.98m6.51-4.54h.62c0 1 0 1.89-.07 2.83a10.7 10.7 0 0 1-1.24 5.2 12 12 0 0 1-4.08 3.84l-.43-.49a11.8 11.8 0 0 0 3.94-3.63 9.77 9.77 0 0 0 1.19-4.92c.02-.52.08-1.52.08-2.83Zm-3.14-2.11h6.88v8.94h-.64v-8.34h-5.62v8.32h-.62Zm3.63 7.68h.6v4a1.17 1.17 0 0 0 .3.84 1.33 1.33 0 0 0 .88.36 4 4 0 0 0 .85 0 2.45 2.45 0 0 0 1-.28 1.3 1.3 0 0 0 .4-.8c.11-.84.17-1.34.18-1.51l.57.23c-.05.45-.11.94-.2 1.47a1.64 1.64 0 0 1-.54 1.12 2.9 2.9 0 0 1-1.32.35 4.4 4.4 0 0 1-.9 0 2 2 0 0 1-1.29-.47 1.78 1.78 0 0 1-.49-1.28ZM874.28 112.51h.62a12 12 0 0 1-.26 2.16 5 5 0 0 1-2 3 13.9 13.9 0 0 1-4.85 2l-.32-.58a14.4 14.4 0 0 0 4.66-1.8 4.55 4.55 0 0 0 1.92-2.67 12.3 12.3 0 0 0 .23-2.11m3.47-4.71h3.58v3h-.64v-2.42h-12.1v2.4h-.65v-3h9a30 30 0 0 0 2.47-3l.64.26c-.73.96-1.49 1.85-2.3 2.76m-8.54-2.7.62-.26c.69.83 1.27 1.54 1.75 2.14l-.55.31c-.57-.71-1.17-1.44-1.82-2.19m.87 5.54h9.15v5.43h-.63v-4.85h-7.87v4.88h-.65Zm3.48-5.9.61-.18q1 1.59 1.35 2.31l-.6.26c-.35-.67-.8-1.47-1.36-2.39m1.44 9.88h.62v2.46a1.47 1.47 0 0 0 .31 1.08 1.6 1.6 0 0 0 1.06.36 23 23 0 0 0 2.33 0 2.37 2.37 0 0 0 1.22-.31 1.7 1.7 0 0 0 .51-1c.07-.46.13-.93.18-1.39l.6.21c-.05.49-.12 1-.19 1.4a2.15 2.15 0 0 1-.66 1.25 3.06 3.06 0 0 1-1.58.42 22 22 0 0 1-2.54 0 2.24 2.24 0 0 1-1.42-.49 2 2 0 0 1-.44-1.44ZM887.5 115.45l.44.46a32.4 32.4 0 0 1-4.17 3l-.39-.53a26.5 26.5 0 0 0 4.12-2.93m4-8.94-2.4 1.8c-1 .72-1.94 1.29-2.69 1.73 1.42 0 3.3-.09 5.63-.25 1.09-.68 2.06-1.32 2.91-1.91l.48.46c-1.41 1-2.85 1.87-4.33 2.75s-3.23 1.8-4.92 2.63q3.86 0 8.71-.35l-2-1.79.44-.41q2.49 2.27 3.78 3.51l-.43.43c-.4-.41-.83-.81-1.27-1.21l-4.27.23v3.58a1.8 1.8 0 0 1-.39 1.27 2.1 2.1 0 0 1-1.34.44 10 10 0 0 1-1.57 0l-.16-.65a9.5 9.5 0 0 0 1.6.06 1.27 1.27 0 0 0 .91-.27 1.3 1.3 0 0 0 .28-.9v-3.45q-3.24.14-6 .18l-.1-.57a6.3 6.3 0 0 0 1.2-.38 60 60 0 0 0 5.39-3q-2.78.17-6.15.24l-.09-.54a4.5 4.5 0 0 0 1-.34 44 44 0 0 0 4.69-3.22c-2.25.12-4.37.19-6.36.23l-.08-.61q6.78-.11 12.87-.68l.16.6c-1.59.12-3.44.26-5.5.39m1.77 9.48.39-.49q2.07 1.34 4.12 2.81l-.39.52c-1.24-.91-2.62-1.83-4.12-2.83ZM903.07 109.88c.16-.25.51-.84 1.06-1.75l.54.29a63 63 0 0 1-3.76 5.62c1.19-.1 2.29-.25 3.32-.42v.62c-1.19.2-2.63.38-4.33.54l-.17-.57a1.84 1.84 0 0 0 .74-.64c.62-.83 1.34-1.86 2.17-3.09-.76.07-1.81.14-3.14.21l-.16-.52a1.6 1.6 0 0 0 .64-.62c.45-.71 1-1.53 1.48-2.45s1-1.86 1.25-2.5l.62.23a51 51 0 0 1-3 5.23Zm-3.66 7.83q2.48-.45 5.21-1.2l.08.59q-2.54.74-5.13 1.23Zm13.09-5.54-2 .14v5a1.47 1.47 0 0 0 .18.85 1.25 1.25 0 0 0 .74.34 4.5 4.5 0 0 0 1.16 0 1.23 1.23 0 0 0 .68-.31 1.64 1.64 0 0 0 .28-.79c0-.29.09-.78.16-1.47l.58.2c-.09.84-.14 1.33-.17 1.49a2.07 2.07 0 0 1-.42 1.06 1.65 1.65 0 0 1-1 .42 8.5 8.5 0 0 1-1.43 0 1.82 1.82 0 0 1-1.1-.47 1.93 1.93 0 0 1-.31-1.24v-5.07l-2.06.1v.83a6.69 6.69 0 0 1-3.73 6.34l-.39-.5a8.5 8.5 0 0 0 2.7-2.49 7.2 7.2 0 0 0 .8-3.35v-.8l-2.48.08-.17-.54a1.9 1.9 0 0 0 .74-.5 35.6 35.6 0 0 0 3-3.88h-3.64v-.58h4.56c-.23-.57-.6-1.38-1.1-2.42l.64-.17c.24.5.63 1.37 1.16 2.59h4v.58H909a45 45 0 0 1-3.36 4.3q2.19 0 6.39-.32l-2-2.37.45-.33q1.61 1.78 3.24 3.81l-.46.39q-.26-.35-.76-.92M916.59 105.56h.67V117c1-.72 2.45-1.8 4.21-3.22l.32.67q-3.06 2.42-5.09 3.74l-.41-.51a3 3 0 0 0 .23-.39 2 2 0 0 0 .07-.49Zm9.64 8.7q2.38 2.64 3.69 4.25l-.5.5q-1.73-2.07-3.52-4.13c-.11.18-.22.36-.34.54a13.86 13.86 0 0 1-5.1 4.08l-.39-.58A13.7 13.7 0 0 0 925 115a10.9 10.9 0 0 0 1.77-5.49c.12-1.21.2-2.69.24-4.43h.69c-.05 1.49-.14 2.94-.26 4.34a12.9 12.9 0 0 1-1.21 4.84m-5.9-9.17.59-.25q1.23 2.1 2.35 4.45l-.6.31q-1.11-2.37-2.34-4.51M941.09 115.94a18.2 18.2 0 0 0 5.21 2.83l-.34.65a19.4 19.4 0 0 1-5.38-3 21.2 21.2 0 0 1-5.75 3.27l-.34-.6a20.2 20.2 0 0 0 5.57-3.11c-.37-.35-.64-.61-.82-.8a14.4 14.4 0 0 1-3-5 16.5 16.5 0 0 1-1.16 4.58 15.3 15.3 0 0 1-3.14 4.42l-.49-.47a14.4 14.4 0 0 0 3-4.22 16.2 16.2 0 0 0 1.21-5.16c0-.27.07-1.26.18-3h-3.12v-.62h10.49v.62l-2 3.86h3.32v.61a13.8 13.8 0 0 1-3.44 5.14m-.52-.44a12.1 12.1 0 0 0 3.22-4.76h-3.34v-.59l2-3.89h-5.95c-.06.84-.1 1.62-.15 2.33a14.2 14.2 0 0 0 3.4 6.12 7 7 0 0 0 .82.79M947.84 117.89q2.28-.48 5.28-1.36l.09.57q-2.28.74-5.21 1.41Zm3.72-8q.74-1.12 1.23-2l.56.28a66 66 0 0 1-4 5.86q2.05-.2 3.45-.36v.59c-1.17.13-2.66.29-4.47.46l-.13-.54a2.2 2.2 0 0 0 .66-.52c.54-.69 1.19-1.6 2-2.73l.28-.43c-1 .06-2 .11-3.19.15l-.12-.52a1.5 1.5 0 0 0 .53-.46 38 38 0 0 0 2.87-5.08l.61.24c-.37.77-.85 1.65-1.42 2.67s-1.14 1.87-1.59 2.53Zm6.69 6.23.15.31c.68 1.52 1.4 2.29 2.15 2.29a.85.85 0 0 0 .53-.2 2.2 2.2 0 0 0 .44-.74 19 19 0 0 0 .55-2.1l.56.24a16 16 0 0 1-.54 2.11c-.32.9-.82 1.36-1.52 1.36-1 0-1.92-.91-2.76-2.72a1.3 1.3 0 0 1-.1-.21 24 24 0 0 1-4.4 2.19l-.29-.56a25.4 25.4 0 0 0 4.46-2.2 19.7 19.7 0 0 1-.9-3.48l-3.07.49-.1-.59 3.07-.49-.06-.48c-.07-.49-.14-1.19-.21-2.12l-2.59.31-.08-.59 2.62-.33c-.08-1.06-.13-2.39-.17-4h.66c0 1.37.07 2.68.14 3.92l5.12-.63.07.6-5.14.64c0 .68.11 1.36.2 2 0 .15 0 .33.08.56l5.23-.83.08.6-5.23.82a17.6 17.6 0 0 0 .82 3.22 20 20 0 0 0 3.06-2.62l.44.43a21 21 0 0 1-3.27 2.82Zm.15-11 .52-.27c.47.7.92 1.45 1.36 2.26l-.54.29c-.35-.59-.8-1.35-1.34-2.21ZM971 118h7.65v.65H964V118h6.31v-13.4h.7v5.24h6.18v.64H971ZM980.25 117.89q2.29-.48 5.28-1.36l.1.57q-2.28.74-5.21 1.41Zm3.73-8q.74-1.12 1.23-2l.55.28a66 66 0 0 1-4 5.86c1.37-.13 2.52-.25 3.44-.36v.59c-1.16.13-2.65.29-4.46.46l-.13-.54a2 2 0 0 0 .65-.52c.55-.69 1.2-1.6 2-2.73.13-.2.23-.34.28-.43-1 .06-2 .11-3.19.15l-.11-.52a1.4 1.4 0 0 0 .52-.46 39 39 0 0 0 2.88-5.08l.6.24c-.37.77-.84 1.65-1.42 2.67s-1.14 1.87-1.58 2.53Zm6.69 6.23c.05.11.1.21.14.31.69 1.52 1.41 2.29 2.16 2.29a.83.83 0 0 0 .52-.2 2 2 0 0 0 .44-.74 17 17 0 0 0 .56-2.1l.55.24a19 19 0 0 1-.53 2.11c-.32.9-.83 1.36-1.52 1.36-1 0-1.93-.91-2.77-2.72 0-.08-.07-.16-.09-.21a24.4 24.4 0 0 1-4.4 2.19l-.3-.56a25 25 0 0 0 4.47-2.2 19 19 0 0 1-.9-3.48l-3.08.49-.09-.59 3.07-.49c0-.15 0-.31-.07-.48-.06-.49-.13-1.19-.21-2.12l-2.58.31-.04-.53 2.61-.33c-.07-1.06-.13-2.39-.16-4h.65c0 1.37.07 2.68.15 3.92l5.12-.63.06.6-5.13.64c0 .68.11 1.36.2 2a4 4 0 0 0 .08.56l5.23-.83.08.6-5.23.82a17 17 0 0 0 .82 3.22 19.5 19.5 0 0 0 3-2.62l.44.43a20.4 20.4 0 0 1-3.25 2.76Zm.14-11 .52-.27a26 26 0 0 1 1.36 2.26l-.54.29c-.35-.59-.79-1.35-1.34-2.21ZM1002.81 106.62v13h-.7v-13h-6.34V106h14.56v.63Zm.78 4.14.4-.52c1.88 1.13 3.58 2.22 5.08 3.28l-.41.57q-2.38-1.68-5.07-3.33M1012.84 117.75v1.61h-.64v-12h1.65a27 27 0 0 0 1.1-2.81l.65.14q-.4 1.2-1.05 2.67h3v11.78h-.64v-1.44Zm0-5.45h4V108h-4Zm0 4.83h4v-4.21h-4Zm7.5-9.77h4.74l-.21 9.22a3 3 0 0 1-.62 2 2.53 2.53 0 0 1-1.85.67 21 21 0 0 1-2.12-.1l-.09-.69c.89.08 1.58.12 2.08.12a2 2 0 0 0 1.47-.49 2.48 2.48 0 0 0 .49-1.6c.07-2.9.13-5.74.2-8.52h-4.37a24 24 0 0 1-1.53 2.75l-.56-.33a20.4 20.4 0 0 0 2.7-5.82l.62.18c-.23.75-.55 1.62-.95 2.61m-1.14 4 .5-.33c.62.82 1.41 1.88 2.36 3.19l-.54.39c-.64-.93-1.41-2.01-2.32-3.23ZM1026.85 118.38h14.55v.55h-14.55Zm7.84-12h6v3h-.69V107h-11.82v2.43h-.65v-3h6.47c-.25-.7-.47-1.28-.65-1.75l.65-.15c.14.35.38.98.69 1.87Zm4.37 10.18h-9.87V111h9.87Zm-9.61-7.81h9.31v.52h-9.31Zm9 4.78v-2h-8.6v2Zm0 2.49v-2h-8.6v2ZM1045.09 108.28v11.32h-.62v-10.1a24 24 0 0 1-2.32 3.5l-.36-.57a22.2 22.2 0 0 0 2.37-3.71 30 30 0 0 0 1.68-4.09l.62.2a30 30 0 0 1-1.37 3.45m7.22 9.49 2.36 1.37-.33.56c-1.88-1.11-4-2.33-6.49-3.66l.35-.56 3.53 2a45 45 0 0 0 3-3.59h-6.47v-.56c.32-.88.61-1.72.86-2.51h-2.92v-.59h3.09l.72-2.55h-2.93V107h3.07c.22-.89.4-1.7.54-2.42l.66.09c-.17.72-.35 1.49-.54 2.33h5.08v.61h-5.23q-.17.61-.72 2.55h6.69v.59h-6.87c-.28.87-.56 1.7-.83 2.48h6.62v.59c-1.15 1.56-2.23 2.87-3.24 3.95M1061.84 113.67v5.93h-.62v-5.67q-1.29.54-2.88 1.14l-.18-.62c.57-.21 1.59-.62 3.06-1.21v-4.18h-1.75a25 25 0 0 1-.73 2.52l-.54-.18a23.2 23.2 0 0 0 1.17-5.22l.56.1c-.1.75-.21 1.48-.34 2.18h1.63v-3.78h.62v3.78h1.82v.6h-1.82V113c.76-.3 1.43-.58 2-.83l.17.59q-1.01.45-2.17.91m8.06-5.69a19.1 19.1 0 0 1-1.55 6.46 14 14 0 0 1-3.78 4.75l-.46-.47a13.8 13.8 0 0 0 3.71-4.61 18.5 18.5 0 0 0 1.54-6.13h-1.67a15.4 15.4 0 0 1-1.44 4.56 13.5 13.5 0 0 1-2.87 3.68l-.44-.46a12 12 0 0 0 2.77-3.46 14.5 14.5 0 0 0 1.43-4.32h-1.69a18 18 0 0 1-1.76 3l-.49-.39a20 20 0 0 0 2.91-6l.6.18a24 24 0 0 1-1 2.62h6.39l-.36 9a3.57 3.57 0 0 1-.57 2 2.23 2.23 0 0 1-1.7.62 15 15 0 0 1-1.73-.1l-.12-.63c.69.07 1.27.11 1.75.11a1.66 1.66 0 0 0 1.29-.44 2.74 2.74 0 0 0 .46-1.68q.13-3.3.34-8.34ZM1077 112.3a15.6 15.6 0 0 1-2.68 4.67l-.36-.57a14.8 14.8 0 0 0 2.92-5.28h-2.79v-.59h2.91v-5.92h.62v5.92h2.6v.59h-2.6v1.19l.32-.23c.58.64 1.32 1.52 2.23 2.67l-.46.39c-.59-.76-1.29-1.61-2.09-2.53v7h-.62Zm-2.52-5.82.49-.17a29 29 0 0 1 1.06 2.8l-.52.21c-.31-.91-.65-1.86-1.03-2.84m5.16-.18.53.19a30 30 0 0 1-1.23 2.83l-.47-.24c.4-.82.79-1.75 1.17-2.78m6.79 8.5v4.8h-.62v-4.72l-5.23.82-.1-.64 5.33-.82v-9.64h.62v9.54l2.27-.34.08.64Zm-5.17-4.34.39-.42c.71.58 1.56 1.32 2.54 2.22l-.38.46c-.81-.79-1.7-1.55-2.55-2.26m.59-3.77.39-.43c.77.69 1.59 1.46 2.49 2.33l-.4.47c-.62-.64-1.44-1.43-2.48-2.37M1092 119.37a1.62 1.62 0 0 1-1.19-.49 1.6 1.6 0 0 1-.49-1.19 1.56 1.56 0 0 1 .49-1.19 1.67 1.67 0 0 1 2.4 0 1.56 1.56 0 0 1 .49 1.19 1.6 1.6 0 0 1-.49 1.19 1.62 1.62 0 0 1-1.21.49m0-.47a1.24 1.24 0 0 0 .87-.33 1.18 1.18 0 0 0 .34-.88 1.12 1.12 0 0 0-1.21-1.21 1.16 1.16 0 0 0-.85.33 1.21 1.21 0 0 0 .85 2.09M1105.35 106.92h8.47v.62h-8.76a22.5 22.5 0 0 1-2.44 3.69v8.37h-.62V112a19 19 0 0 1-2.6 2.49l-.37-.58a22.5 22.5 0 0 0 3-2.94 23 23 0 0 0 2.32-3.43h-4.65v-.62h5a22 22 0 0 0 1-2.39l.67.15a20 20 0 0 1-1.02 2.24m3.55 10.93h4.94v.64h-10.37v-.64h4.78v-5h-4.06v-.62h4.06V109h.65v3.24h4.15v.62h-4.15ZM1118.35 116.35a5.14 5.14 0 0 0 1.91 1.45 7.6 7.6 0 0 0 2.81.56h7.11l-.11.67q-4.1 0-7.08-.05a8.6 8.6 0 0 1-2.88-.52 5.4 5.4 0 0 1-2.07-1.5c-.68.66-1.42 1.45-2.23 2.35l-.39-.59c.68-.73 1.44-1.51 2.29-2.33v-5.54h-2.22v-.63h2.86Zm-2-11 .56-.36c.89 1.12 1.58 2 2.07 2.72l-.54.36c-.63-.81-1.32-1.72-2.12-2.69Zm11.47 2.85a12.2 12.2 0 0 1-2.33 4.78q2 1.78 3.61 3.29l-.44.52c-1-1-2.24-2.09-3.61-3.32a18.2 18.2 0 0 1-4.94 3.47l-.41-.59a17.4 17.4 0 0 0 4.84-3.32c-1.6-1.39-2.74-2.37-3.42-2.92l.43-.46q1.37 1.08 3.41 2.89a11.4 11.4 0 0 0 2.18-4.34H1120v-.63h5c-.62-1.16-1.16-2.15-1.62-2.95l.62-.22c.33.59.9 1.65 1.72 3.17h4v.63ZM1137.91 105.45a18.7 18.7 0 0 0 7.14 6.08l-.39.62a22.3 22.3 0 0 1-4-2.73 17.6 17.6 0 0 1-3.07-3.42 22.2 22.2 0 0 1-7.08 6.34l-.42-.58a23.3 23.3 0 0 0 4.52-3.34 16.4 16.4 0 0 0 3.08-3.9l.67.19c-.17.29-.31.5-.45.74m-.72 4.79h.69v9.38h-.69ZM524.75 143.21a5.8 5.8 0 0 0 4.73 2c2.29.06 4.65.07 7.06 0l-.13.65c-2.21 0-4.53 0-7-.05a8.5 8.5 0 0 1-2.95-.52 5.8 5.8 0 0 1-2.09-1.52c-.76.71-1.52 1.49-2.27 2.34l-.41-.59c.68-.68 1.47-1.46 2.39-2.34v-5.49h-2.27v-.64h2.92Zm-2-11 .53-.34c.76.87 1.5 1.77 2.22 2.69l-.5.44c-.87-1.11-1.6-2-2.23-2.77Zm11 3.06v6.13a2.48 2.48 0 0 1-.49 1.71 2.28 2.28 0 0 1-1.61.56 18 18 0 0 1-1.88-.08l-.07-.67c.66.06 1.26.09 1.82.09a1.73 1.73 0 0 0 1.24-.36 1.92 1.92 0 0 0 .34-1.32v-6.06h-6.6v-.62h6.57v-3.13h.65v3.13h2.62v.62Zm-6.37 2 .49-.35c.86 1 1.73 2 2.62 3.16l-.53.41c-.79-1.05-1.65-2.12-2.61-3.24ZM540.87 139.16v7.36h-.62v-8.06a17.9 17.9 0 0 1-2.45 4.8l-.39-.49a18 18 0 0 0 2.81-5.85h-2.45v-.59h2.48v-3c-.82.09-1.54.16-2.16.2l-.08-.57a42 42 0 0 0 4.86-.61l.13.57-2.13.35v3.1h2.26v.59h-2.26v2l.28-.25c.83.93 1.5 1.72 2 2.37l-.43.44a21 21 0 0 0-1.85-2.36m7 6h4.38v.57h-9.6v-.57h4.58v-2.68H544v-.57h3.32v-2.58h-3.81v-.57h8.22v.57h-3.77v2.58h3.28v.57h-3.28Zm3.13-8.37h-6.93v-4.36H551Zm-.63-.57V133h-5.67v3.23ZM566.06 140.84h-5.31v5.71h-.69v-5.71h-5.31V142h-.65v-7.24h6v-3.35h.69v3.35h6V142h-.67Zm-6-.63v-4.81h-5.31v4.81Zm6 0v-4.81h-5.31v4.81ZM569.1 146.6a1.8 1.8 0 0 0 .85-1.54h-.08a.54.54 0 0 1-.39-.18.54.54 0 0 1-.16-.4.56.56 0 0 1 .14-.4.53.53 0 0 1 .41-.17.5.5 0 0 1 .43.18 1.05 1.05 0 0 1 .18.61 3 3 0 0 1-.25 1.22 2.47 2.47 0 0 1-.85.94ZM587.1 142.33c.11.34.23.67.37 1a7 7 0 0 0 .85 1.52 1.71 1.71 0 0 0 1.28.78.87.87 0 0 0 .54-.19 2.2 2.2 0 0 0 .42-.77 14 14 0 0 0 .48-1.95l.58.23a18 18 0 0 1-.52 2.06c-.3.87-.81 1.31-1.5 1.31a2.12 2.12 0 0 1-1.59-.82 6.2 6.2 0 0 1-1.06-1.71 8 8 0 0 1-.39-1 21.6 21.6 0 0 1-3.81 2.42l-.36-.55a19.8 19.8 0 0 0 4-2.51 21.7 21.7 0 0 1-.77-4.47c0-.17-.05-.41-.07-.74h-4.26v3.33c.81-.18 1.77-.42 2.87-.71l.12.6-3 .77v3.46a2 2 0 0 1-.41 1.36 1.8 1.8 0 0 1-1.28.46 14 14 0 0 1-1.58-.08l-.08-.66a11 11 0 0 0 1.47.1 1.34 1.34 0 0 0 .94-.28 1.45 1.45 0 0 0 .28-1V141q-1.43.33-3.48.75l-.16-.64c.89-.16 2.11-.41 3.64-.75v-3.48H577v-.6h3.61v-2.77c-1.21.16-2.16.26-2.86.31l-.08-.6a36 36 0 0 0 6-.87l.15.58c-.72.16-1.56.32-2.5.49v2.86h4.23q-.12-2-.15-4.86h.6c0 1.78 0 3.4.13 4.86h5.45v.6h-5.41v.62a20 20 0 0 0 .69 4.14 18 18 0 0 0 3-3.39l.52.4a19.8 19.8 0 0 1-3.28 3.68m.42-9.51.44-.41c1 .85 1.79 1.61 2.42 2.27l-.46.44a26 26 0 0 0-2.4-2.3M596.1 143.18a4.7 4.7 0 0 0 1.85 1.46 7 7 0 0 0 2.55.52c2.16.06 4.63.07 7.42 0l-.13.67h-7.26a7.8 7.8 0 0 1-2.76-.54 5.3 5.3 0 0 1-2-1.49c-.53.52-1.26 1.29-2.21 2.29l-.39-.57c.86-.9 1.61-1.66 2.27-2.28v-5.49h-2.21v-.65h2.86Zm-1.94-10.9.52-.36c.73.89 1.45 1.8 2.17 2.73l-.54.38c-.65-.89-1.37-1.8-2.15-2.75m9.13 1.24a20.4 20.4 0 0 1-2.35 4.32 20.8 20.8 0 0 1-3.38 3.67l-.43-.52a18.6 18.6 0 0 0 5.46-7.47h-4.87v-.62h9.58v.62Zm-1.24 2.78h.66v7.7h-.66Zm1.62 1.13.47-.39c1.57 1.56 2.77 2.8 3.58 3.71l-.47.45q-1.38-1.56-3.58-3.77M611.06 136.54v10h-.62v-10h-2v-.62h2v-4.47h.62v4.47h1.81v.62Zm3 .89.54.21a22.8 22.8 0 0 1-1.82 4.23l-.52-.31a21.6 21.6 0 0 0 1.74-4.13Zm3.09-2.63h3.95c0 .95-.11 3.9-.23 8.82a2.8 2.8 0 0 1-.57 1.82 2.1 2.1 0 0 1-1.62.57c-.35 0-.94 0-1.8-.07l-.08-.65c.55.05 1.13.08 1.74.08a1.75 1.75 0 0 0 1.27-.41 2.4 2.4 0 0 0 .43-1.44c.09-3.08.16-5.78.19-8.09h-3.3v1.07a19 19 0 0 1-1 5.73 10.94 10.94 0 0 1-3 4.27l-.49-.44a10.55 10.55 0 0 0 2.86-4 18.6 18.6 0 0 0 1-5.75v-.92h-3v-.63h3c0-1.47 0-2.58.06-3.3h.64l-.09 3.34Zm4.1 3 .54-.23c.59 1.24 1.15 2.5 1.7 3.76l-.53.3c-.75-1.73-1.33-3.01-1.75-3.86ZM630.46 143.34c.49-.07.87-.14 1.13-.19l.08.57q-3.55.69-7.37 1.18l-.13-.62 1.49-.2v-11.57h4.8Zm-.62-7.07v-3.17h-3.58v3.17Zm0 3.61v-3h-3.58v3Zm0 3.56v-3h-3.58V144c1.45-.21 2.64-.39 3.58-.56m4.5-8.46h3.77a1119 1119 0 0 1-.28 8.92 2.32 2.32 0 0 1-.47 1.57 2 2 0 0 1-1.49.51c-.41 0-1 0-1.66-.07l-.13-.67a14 14 0 0 0 1.65.1 1.58 1.58 0 0 0 1.12-.34 1.9 1.9 0 0 0 .36-1.2q.15-3.68.25-8.19h-3.14a25.2 25.2 0 0 1-.85 6.44 11.7 11.7 0 0 1-2.68 4.45l-.51-.44a10.9 10.9 0 0 0 2.6-4.24 24 24 0 0 0 .82-6.21h-2.09V135h2.1v-3.52h.64c.03.76.01 1.93-.01 3.52ZM641.71 133.15v13.27h-.65v-13.88h12.34v11.57a1.79 1.79 0 0 1-2.09 2.14 17 17 0 0 1-1.86-.08l-.09-.65c.53 0 1.13.08 1.8.08a1.31 1.31 0 0 0 1.59-1.57v-10.88Zm1.43 2.35h8.17v.57h-8.17Zm7.07 7.6h-6v-4.72h6Zm-.63-.57V139h-4.73v3.58ZM668.69 141.46v2.87h-.62v-.76h-4.74v.8a2.07 2.07 0 0 1-.43 1.43 2.24 2.24 0 0 1-1.57.5 12 12 0 0 1-1.7-.05l-.06-.62a15 15 0 0 0 1.61.1 1.87 1.87 0 0 0 1.21-.33 1.56 1.56 0 0 0 .28-1.07v-.76h-5.87v-.52h5.87v-1.59h-7.09V141h7.09v-1.57H657v-.52h5.69v-1.38h-5.08v-2.64h5.08v-1.38h-6.91v-.54h6.91v-1.48h.66v1.48h6.79v.54h-6.79v1.38h5v2.64h-5v1.38h5.36V141h1.71v.5Zm-6-4.46v-1.66h-4.46V137Zm5.08 0v-1.66h-4.42V137Zm.32 4v-1.57h-4.74V141Zm0 2.09v-1.59h-4.74v1.59ZM676.07 144.06H674v1.31h-.59v-6.86a15.6 15.6 0 0 1-1.34 2.27l-.37-.49a18 18 0 0 0 2.76-6.77h-2.29V133h5.2v.55h-2.29a18.7 18.7 0 0 1-1.17 3.91h2.74v7.43h-.59Zm0-.57V138H674v5.47Zm9.07-1h-2.77v3.22h-.61v-3.22h-2.88a7.47 7.47 0 0 1-1.48 4.07l-.56-.36a6.9 6.9 0 0 0 1.24-2.49 17 17 0 0 0 .28-3.59v-4.24a12 12 0 0 1-1 1l-.4-.41a16.9 16.9 0 0 0 3.64-5.06l.62.18q-.36.76-.78 1.47h4.31v.54l-1.63 2.12h2.65v9a1.75 1.75 0 0 1-.36 1.21 1.47 1.47 0 0 1-1.08.34h-1l-.1-.6h1a1.15 1.15 0 0 0 .73-.21 1.32 1.32 0 0 0 .21-.82Zm-5-8.85a20 20 0 0 1-1.61 2.11h3.92l1.55-2.15Zm1.67 8.29v-2.52H679v2.52Zm0-5.59H679v2.52h2.79Zm3.38 2.52v-2.56h-2.77v2.52Zm0 3.07v-2.52h-2.77v2.52ZM690.63 135.37v11.1H690v-9.75a18.6 18.6 0 0 1-1.94 3.19l-.36-.57a22.3 22.3 0 0 0 2.14-3.74 32 32 0 0 0 1.52-4.14l.6.2a38 38 0 0 1-1.33 3.71m7.18 4.84a11.9 11.9 0 0 0 1.83 2.32 15.8 15.8 0 0 0 3 2.19l-.37.57a13.6 13.6 0 0 1-3.09-2.35 12 12 0 0 1-1.77-2.37v5.91h-.65v-5.86A13 13 0 0 1 695 143a16.6 16.6 0 0 1-3.13 2.43l-.36-.56a17 17 0 0 0 3.09-2.32 14 14 0 0 0 1.88-2.33H692v-.61h4.81v-2.37h-3.53v-4.79H701v4.79h-3.6v2.37h5v.61Zm2.6-3.58v-3.58h-6.52v3.58ZM703.35 136.87h2.81v7.59a29 29 0 0 0 2.08-2.08l.32.57a30 30 0 0 1-2.92 2.76l-.39-.49a1.6 1.6 0 0 0 .21-.39 2.5 2.5 0 0 0 .06-.49v-6.85h-2.17Zm1.08-4.54.52-.39c.74.77 1.53 1.64 2.37 2.6l-.5.44c-.82-.98-1.64-1.87-2.39-2.65m8.94 11.21a17.6 17.6 0 0 0 4.79 2.27l-.33.62a18 18 0 0 1-5-2.46 19.7 19.7 0 0 1-5.18 2.59l-.34-.58a20.8 20.8 0 0 0 5-2.44 12 12 0 0 1-2.88-3.89l.56-.29a10.8 10.8 0 0 0 2.86 3.77 10.4 10.4 0 0 0 2.91-3.95h-7.41v-.59h8.13v.6a11 11 0 0 1-3.09 4.33Zm-3.22-11.16h5.44v3a1.13 1.13 0 0 0 .24.85 1.25 1.25 0 0 0 .84.28h1.52l-.13.64a13 13 0 0 1-1.55 0 1.9 1.9 0 0 1-1.25-.41 1.54 1.54 0 0 1-.32-1.16V133h-4.13v1.44a3.9 3.9 0 0 1-.54 1.91 5.2 5.2 0 0 1-1.75 1.44l-.44-.47a5.2 5.2 0 0 0 1.62-1.29 3 3 0 0 0 .47-1.72ZM719.71 136.86h3.17v7.61c.78-.59 1.64-1.3 2.6-2.16l.31.59q-1.68 1.51-3.48 2.91l-.44-.55a1 1 0 0 0 .29-.4 1.5 1.5 0 0 0 .07-.53v-6.85h-2.52Zm1.29-4.53.49-.44q1.57 1.47 2.67 2.61l-.48.46c-.94-.96-1.84-1.83-2.68-2.63m9 5.6v8.54h-.67v-8.54h-4.48v-.63h4.48v-5.85h.67v5.85h4.56v.63ZM736.17 138.1a23.2 23.2 0 0 0 3.46-2.85l.4.46a28 28 0 0 1-3.44 2.88Zm7.4 4.87q4 1.64 6.8 3l-.26.58c-2.15-1-4.42-2-6.83-3a4.9 4.9 0 0 1-2.22 1.8 19.6 19.6 0 0 1-4.35 1.21l-.2-.63a14 14 0 0 0 5.14-1.63 4 4 0 0 0 1.07-1.06 3 3 0 0 0 .46-1.21q0-.41.12-1.29l.65.05c0 .63-.09 1.08-.13 1.37a4.6 4.6 0 0 1-.25.84Zm-6.93-10.28.25-.54c1.24.49 2.27.94 3.07 1.34l-.26.57c-1.07-.53-2.09-.99-3.06-1.37m1.8 6.55h10.2v4.42H748v-3.85h-8.92v3.86h-.64Zm7-4.7a4.4 4.4 0 0 0 1.62 2 12.5 12.5 0 0 0 3.65 1.4l-.25.59a12.2 12.2 0 0 1-3.82-1.55 4.7 4.7 0 0 1-1.41-1.57 3.7 3.7 0 0 1-1.36 1.63 13.7 13.7 0 0 1-3.43 1.49l-.29-.56a12 12 0 0 0 3.45-1.48 3 3 0 0 0 1.21-1.72c.06-.42.1-.82.13-1.19h-2.26a22 22 0 0 1-1.53 2l-.49-.41a13.8 13.8 0 0 0 2.45-3.74l.6.18c-.25.53-.48 1-.7 1.39h7v.55a20 20 0 0 1-1.26 2l-.56-.23c.4-.57.78-1.15 1.13-1.75h-3.79a9 9 0 0 1-.08.97ZM751.91 136.66l.31-.56c1.27.61 2.23 1.12 2.9 1.52l-.31.59c-.89-.53-1.81-1.05-2.9-1.55m.48 9.38c.57-1.51 1.19-3.39 1.84-5.64l.59.2c-.44 1.57-1.06 3.46-1.83 5.69Zm.28-13.48.33-.56c.76.4 1.64.93 2.63 1.58l-.33.56c-.72-.47-1.6-1.01-2.63-1.58m9.05 2.61h3.79v5.76h-3v3.85a1.63 1.63 0 0 1-.35 1.18 1.78 1.78 0 0 1-1.19.39h-1.36l-.08-.6a12 12 0 0 0 1.31.06 1.25 1.25 0 0 0 .85-.23 1.18 1.18 0 0 0 .23-.83v-3.77h-3.16v-5.76h2.29c.3-.8.53-1.5.71-2.09h-4.58v4.63a24.7 24.7 0 0 1-.41 4.95 14.9 14.9 0 0 1-1.54 3.82l-.55-.37a13.9 13.9 0 0 0 1.49-3.62 22.7 22.7 0 0 0 .39-4.77v-5.23h9.92v.59h-4c-.3.81-.54 1.51-.76 2.04m-2.14 6.83.52.26a18.4 18.4 0 0 1-2.35 3.35l-.48-.36a15.7 15.7 0 0 0 2.31-3.25m-.18-4.25h5.51v-2.06h-5.51Zm0 2.58h5.51v-2h-5.51Zm4.48 1.94.5-.27c.91 1.23 1.65 2.27 2.23 3.13l-.49.35ZM770.67 138.23v8.22h-.62v-7.37a22 22 0 0 1-2.09 2.34l-.33-.54a22.5 22.5 0 0 0 3.94-5.3l.54.33a23 23 0 0 1-1.44 2.32m.85-6.77.53.36a18.1 18.1 0 0 1-3.67 4.45l-.39-.56a16.6 16.6 0 0 0 3.53-4.25m8.62 10.54v2.37a2.2 2.2 0 0 1-.43 1.47 2.14 2.14 0 0 1-1.44.47h-1.75v-.62h1.66a1.77 1.77 0 0 0 1.08-.31 1.6 1.6 0 0 0 .28-1.11V142h-7.44v-.56h7.44v-1.76h-6.83v-.58h9.4v.58h-1.93v1.76h2.42v.56Zm-6.74.93.36-.46q1.41.84 2.76 1.8l-.39.51q-1.305-.93-2.73-1.86Zm7.72-5.41h-7.64v-5.17h7.64Zm-.62-2.84v-1.79h-6.39v1.79Zm0 2.28v-1.76h-6.39v1.8ZM788.62 144.44l3.73-.49.08.6q-4.6.67-8.45 1.08l-.11-.65 4.12-.48v-3.2h-3.53v-.6H788v-2.08h.63v2.08H792v.6h-3.39Zm2.55-6.95c-2.19.17-4.39.31-6.62.44l-.13-.6a1.4 1.4 0 0 0 .5-.28 30 30 0 0 0 2.71-3.84h-3.43v-.62h8.23v.62h-4a42 42 0 0 1-2.84 4c1.47-.06 3.22-.16 5.26-.31-.5-.74-1-1.46-1.52-2.14l.51-.3 2.63 3.71-.51.36Zm2.49-4.23h.64v9.36h-.64Zm3.22-1.7h.65v12.55a2.2 2.2 0 0 1-.44 1.57 1.9 1.9 0 0 1-1.47.48H794l-.08-.69 1.57.08a1.42 1.42 0 0 0 1.08-.33 1.68 1.68 0 0 0 .31-1.16ZM811.67 142.9h-8v3.52H803v-8.58a24 24 0 0 1-3 2.91l-.37-.58a19.7 19.7 0 0 0 5.09-5.9h-4.62v-.6h4.9a21 21 0 0 0 1-2.27l.67.16a22 22 0 0 1-.91 2.11h8.63v.6h-8.93a17.4 17.4 0 0 1-1.47 2.32h8.34v7.85a2.06 2.06 0 0 1-.41 1.39 2.14 2.14 0 0 1-1.39.46 16 16 0 0 1-1.73-.08l-.12-.61c.53.05 1.09.08 1.69.08a1.58 1.58 0 0 0 1-.29 1.56 1.56 0 0 0 .27-1Zm0-3.43v-2.29h-8v2.29Zm0 2.88V140h-8v2.31ZM820.42 142c.63.68 1.42 1.56 2.38 2.61l-.44.49c-.71-.8-1.47-1.66-2.3-2.56a15.7 15.7 0 0 1-3.86 3.74l-.38-.56a14.3 14.3 0 0 0 3.81-3.66c-.47-.5-1.22-1.3-2.27-2.4l.44-.42c.68.69 1.4 1.46 2.18 2.28a14 14 0 0 0 1.29-2.91l.57.27a13.5 13.5 0 0 1-1.42 3.12m-2-6.29.52.31a21.6 21.6 0 0 1-2.63 3.43l-.42-.41a23.4 23.4 0 0 0 2.55-3.34Zm1.91-1.62h3.14v.59h-7.37v-.59h3.61l-.73-2.47.62-.13c.28.87.53 1.74.75 2.59Zm6.72 8.28a14.4 14.4 0 0 0 3.58 3.45l-.39.59a16 16 0 0 1-3.57-3.5 17.4 17.4 0 0 1-3.84 3.63l-.44-.5a16.9 16.9 0 0 0 3.89-3.68 2 2 0 0 1-.18-.3 13.7 13.7 0 0 1-1.71-4.9 17 17 0 0 1-.84 1.5l-.19-.24-.43.41c-.56-.7-1.32-1.63-2.3-2.78l.45-.34c.82.92 1.51 1.73 2.08 2.43a18 18 0 0 0 1.54-3.14 24.6 24.6 0 0 0 1-3.53l.62.13a27 27 0 0 1-.83 3h5v.6h-1.34a16.3 16.3 0 0 1-1.63 6.54c-.22.26-.35.47-.45.62Zm-.39-.58c.08-.14.17-.27.24-.41a14.9 14.9 0 0 0 1.57-6.23h-3.2c-.17.42-.32.79-.46 1.09a13.9 13.9 0 0 0 1.77 5.41 1 1 0 0 1 .1.13ZM835.13 139.86v4.81a1.6 1.6 0 0 1-.34 1.13 1.54 1.54 0 0 1-1.08.42 6.2 6.2 0 0 1-1.29-.1l-.06-.65a4.4 4.4 0 0 0 1.17.1 1.46 1.46 0 0 0 .75-.25 1.14 1.14 0 0 0 .22-.77v-4.46l-2.31.8-.18-.62 2.49-.83v-4h-2.18v-.59h2.18v-3.43h.63v3.43h2v.59h-2v3.73l1.82-.7.18.55c-.88.41-1.55.68-2 .84m5.22-.28c1 .79 1.88 1.42 2.48 1.9l-.37.54c-.7-.57-1.44-1.15-2.23-1.75a16 16 0 0 1-.49 1.75 13.05 13.05 0 0 1-3 4.48l-.52-.46a12.85 12.85 0 0 0 2.88-4.26 10.4 10.4 0 0 0 .52-1.92c-.61-.45-1.3-1-2.06-1.48l.33-.49q1.1.74 1.86 1.29a29 29 0 0 0 .28-3.35v-.62h-2.37v-.61h2.4v-3.14h.64c0 1.46 0 2.51-.07 3.14h3.79v1.19c0 1.57 0 3.14-.08 4.69a27 27 0 0 0 .18 3.35 3.4 3.4 0 0 0 .26 1c.16.37.36.57.59.58s.52-.31.68-.92a18 18 0 0 0 .31-2.12l.51.16c-.11.93-.21 1.64-.31 2.14a2.8 2.8 0 0 1-.47 1.05 1 1 0 0 1-.74.36q-.64 0-1-.84a3.3 3.3 0 0 1-.39-1.35c-.11-.95-.17-2.23-.19-3.84s0-3.32.08-4.87h-3.16v.57a31 31 0 0 1-.34 3.83M851.2 138.11v8.32h-.63v-7.5a28 28 0 0 1-2.34 2.47l-.36-.56a21.6 21.6 0 0 0 4.28-5.31l.54.36a22 22 0 0 1-1.49 2.22m.89-6.68.55.38a19.6 19.6 0 0 1-4.07 4.36l-.37-.56a17.1 17.1 0 0 0 3.89-4.18m7.58 6.68V144a2.23 2.23 0 0 1-.49 1.62 2.1 2.1 0 0 1-1.52.49 12 12 0 0 1-1.86-.07l-.09-.65c.53.05 1.13.08 1.82.08a1.56 1.56 0 0 0 1.14-.36A1.75 1.75 0 0 0 859 144v-5.84h-5.67v-.62h9.36v.62Zm-5.31-5.31h7.48v.61h-7.48ZM865.34 146.25a1.67 1.67 0 0 1-1.68-1.68 1.71 1.71 0 0 1 1.68-1.7 1.62 1.62 0 0 1 1.21.51 1.56 1.56 0 0 1 .49 1.19 1.6 1.6 0 0 1-.49 1.19 1.64 1.64 0 0 1-1.21.49m0-.47a1.24 1.24 0 0 0 .87-.33 1.18 1.18 0 0 0 .34-.88 1.12 1.12 0 0 0-1.21-1.21 1.15 1.15 0 0 0-.85.33 1.31 1.31 0 0 0 0 1.76 1.2 1.2 0 0 0 .85.33M532.21 175.24a1 1 0 0 1 .06.16 8.5 8.5 0 0 0 .93 1.88c.48.67.93 1 1.36 1a.93.93 0 0 0 .44-.18 1.56 1.56 0 0 0 .39-.69 15 15 0 0 0 .53-2.19l.58.22a18 18 0 0 1-.55 2.22c-.3.88-.75 1.32-1.37 1.32a2.06 2.06 0 0 1-1.57-.86 6.5 6.5 0 0 1-1.13-1.93c0-.11-.09-.23-.15-.35a19.6 19.6 0 0 1-3.35 3l-.41-.49a19.5 19.5 0 0 0 3.52-3.22 16 16 0 0 1-.66-2.66 40 40 0 0 1-.54-4.51h-6.21v2.88h4.24l-.12 4.08a2.4 2.4 0 0 1-.49 1.57 2.2 2.2 0 0 1-1.47.47 13 13 0 0 1-1.32-.06l-.07-.64a6.2 6.2 0 0 0 1.29.08 1.78 1.78 0 0 0 1.1-.31 1.74 1.74 0 0 0 .32-1.17c.05-1.15.08-2.29.12-3.44h-3.6v.31a17 17 0 0 1-.39 4 13.2 13.2 0 0 1-1.49 3.37l-.57-.38a10.9 10.9 0 0 0 1.42-3.15 17 17 0 0 0 .38-3.88v-4.35h6.83c0-.7-.09-1.78-.13-3.23h.65c.05 1.06.09 2.11.13 3.15v.08h5.28v.66H531a34 34 0 0 0 .45 4.12 23 23 0 0 0 .58 2.43 22.7 22.7 0 0 0 2.6-4.82l.57.25a23.5 23.5 0 0 1-2.78 5.08Zm.06-10.28.39-.48c.53.4 1.27 1 2.24 1.88l-.37.47a27 27 0 0 0-2.26-1.83ZM539.8 174.06l.54.18a16.7 16.7 0 0 1-1.89 3.32l-.54-.3a15.7 15.7 0 0 0 1.89-3.2m2.77-7.6h3.13v.54h-7.65v-.57h3.85c-.27-.73-.54-1.47-.84-2.22l.62-.13c.19.48.48 1.27.89 2.38m2 6.36h-2.35v4.33a1.82 1.82 0 0 1-.36 1.26 1.65 1.65 0 0 1-1.19.41h-1.1l-.06-.61a6 6 0 0 0 1 .07 1.18 1.18 0 0 0 .82-.23 1.34 1.34 0 0 0 .24-.92v-4.26h-2.5v-3.94h5.47Zm-.6-.57v-2.8h-4.27v2.8Zm-.73 2 .49-.23c.44.64.92 1.35 1.42 2.14l-.49.28c-.45-.84-.93-1.57-1.37-2.23Zm4.72-5.56h4.4v.59H548c0 .85-.08 1.33-.08 1.44a6 6 0 0 0 0 .65 15.5 15.5 0 0 1-1 4.35 13.8 13.8 0 0 1-2.29 3.53l-.5-.41a12.3 12.3 0 0 0 2.48-4 19.4 19.4 0 0 0 .8-5.52h-1.86v-.59h1.88v-4.529999999999999h.63c0 1.17 0 2.43-.05 3.79-.01.17-.01.42-.01.66Zm.91 1.09h.61v7.11a1.6 1.6 0 0 0 .24 1 1 1 0 0 0 .76.25h.52a1 1 0 0 0 .77-.27 1.72 1.72 0 0 0 .34-1c.05-.56.09-1.13.13-1.69l.57.14c0 .27-.08.85-.16 1.73a2.18 2.18 0 0 1-.46 1.31 1.55 1.55 0 0 1-1.17.41h-.53a1.5 1.5 0 0 1-1.16-.41 2 2 0 0 1-.36-1.34Zm.38-4.46.49-.31c.73.91 1.32 1.69 1.78 2.34l-.51.33c-.47-.8-1.01-1.58-1.71-2.4ZM556.16 169.76a.6.6 0 0 1 .42.16.63.63 0 0 1 .16.41.64.64 0 0 1-.16.43.57.57 0 0 1-.42.16.54.54 0 0 1-.4-.16.58.58 0 0 1-.18-.43.57.57 0 0 1 .17-.41.53.53 0 0 1 .41-.16m0 6.85a.57.57 0 0 1 .42.16.57.57 0 0 1 .16.43.63.63 0 0 1-.16.41.6.6 0 0 1-.42.16.59.59 0 0 1-.41-1 .48.48 0 0 1 .41-.16M572.31 173.16v3.51a1.45 1.45 0 0 0 .31 1.05 1.7 1.7 0 0 0 1.07.36 10 10 0 0 0 1.37 0 3 3 0 0 0 1.21-.33 1.4 1.4 0 0 0 .51-.91c0-.31.1-.76.16-1.38l.6.18c-.06.61-.13 1.11-.19 1.48a1.65 1.65 0 0 1-.67 1.14 3.55 3.55 0 0 1-1.54.41 14 14 0 0 1-1.58 0 2.35 2.35 0 0 1-1.46-.49 2 2 0 0 1-.44-1.42v-3.6h-3.09a9 9 0 0 1-.05 1 5 5 0 0 1-1.39 3.15 8.1 8.1 0 0 1-3.61 1.87l-.31-.59a8.4 8.4 0 0 0 3.35-1.67 4.37 4.37 0 0 0 1.29-2.76c0-.21 0-.55.07-1h-4.5v-.6h13.75v.6Zm-1.48-7h6V169h-.65v-2.29h-11.7v2.35h-.64v-3h6.31c-.27-.71-.54-1.33-.8-1.88l.67-.14c.3.8.58 1.47.81 2.09Zm-5.33 3.19h9.58v.6h-9.58ZM589.29 175.24a.5.5 0 0 1 .07.16 8.5 8.5 0 0 0 .93 1.88c.48.67.93 1 1.36 1a.93.93 0 0 0 .44-.18 1.56 1.56 0 0 0 .39-.69 14 14 0 0 0 .52-2.19l.59.22a18 18 0 0 1-.55 2.22c-.3.88-.75 1.32-1.38 1.32a2.07 2.07 0 0 1-1.57-.86 6.5 6.5 0 0 1-1.12-1.93l-.15-.35a20 20 0 0 1-3.35 3l-.41-.49a19 19 0 0 0 3.51-3.22 17 17 0 0 1-.65-2.66 40 40 0 0 1-.54-4.51h-6.21v2.88h4.23c0 1.36-.07 2.72-.11 4.08a2.4 2.4 0 0 1-.49 1.57 2.2 2.2 0 0 1-1.47.47c-.49 0-.93 0-1.33-.06l-.06-.64a6 6 0 0 0 1.29.08 1.8 1.8 0 0 0 1.1-.31 1.74 1.74 0 0 0 .32-1.17c.05-1.15.08-2.29.12-3.44h-3.6v.31a17 17 0 0 1-.39 4 13.2 13.2 0 0 1-1.49 3.37l-.57-.38a10.9 10.9 0 0 0 1.42-3.15 17 17 0 0 0 .38-3.88v-4.35h6.83c-.05-.7-.09-1.78-.13-3.23h.65c0 1.06.09 2.11.13 3.15v.08h5.28v.66H588a32 32 0 0 0 .45 4.12 23 23 0 0 0 .58 2.43 22.2 22.2 0 0 0 2.59-4.82l.58.25a23.5 23.5 0 0 1-2.78 5.08Zm.07-10.28.39-.48c.52.4 1.27 1 2.24 1.88l-.37.47a27 27 0 0 0-2.26-1.83ZM595 165.48h12.91v.67c-1.94 1.5-3.83 2.89-5.69 4.17v6.35a2.34 2.34 0 0 1-.45 1.62 2.25 2.25 0 0 1-1.62.49c-.62 0-1.29 0-2-.05l-.1-.7c.53.05 1.18.08 2 .08a1.73 1.73 0 0 0 1.19-.32 1.8 1.8 0 0 0 .33-1.23V170c1.91-1.33 3.7-2.62 5.34-3.87H595ZM618.05 176l.18.08c1.56.66 3.29 1.44 5.2 2.32l-.28.65c-1.72-.83-3.43-1.61-5.11-2.35l-.58-.26a20.4 20.4 0 0 1-7.42 2.71l-.26-.64a29.5 29.5 0 0 0 4.12-1.07 13.6 13.6 0 0 0 2.84-1.31c-1.82-.79-3.34-1.41-4.56-1.88a27 27 0 0 0 1.65-2.75h-4.37v-.6h4.7c.44-.84.89-1.82 1.36-2.94l.67.22c-.38.91-.81 1.81-1.28 2.72h9.22v.6H621a12.3 12.3 0 0 1-1.29 2.7 8.2 8.2 0 0 1-1.66 1.8m-.41-9.61h5.5v2.74h-.66V167H611.2v2.24h-.65v-2.84h6.39c-.32-.72-.66-1.44-1-2.14l.64-.2c.36.8.73 1.58 1.06 2.37Zm-.27 9.31a7.9 7.9 0 0 0 1.58-1.58 10.5 10.5 0 0 0 1.34-2.62h-5.7q-.72 1.32-1.47 2.49c1.33.53 2.74 1.1 4.25 1.75ZM628.49 176.28c.64-.14 1.29-.3 2-.49l.09.61c-1.64.45-3.25.81-4.82 1.08l-.16-.63 2.3-.44v-5.16h-1.92v-.59h1.92v-4.45h-2.07v-.59h4.59v.59h-1.89v4.45h1.78v.59h-1.78Zm5.41-.08.42.44a27 27 0 0 1-3.6 2.52l-.35-.51a21.3 21.3 0 0 0 3.53-2.45m4.46-1.47h2v.59h-9.86v-.59h2v-7.86H631v-.57h1.51v-2.11h.62v2.11h4.64v-2.11h.64v2.11h1.5v.57h-1.5Zm-.64-5.62v-2.24h-4.64v2.24Zm0 2.84v-2.3h-4.64V172Zm0 2.78v-2.24h-4.64v2.24Zm-1.32 2 .37-.47c1 .62 2.08 1.41 3.39 2.35l-.36.53c-1.09-.83-2.23-1.63-3.4-2.42ZM653.35 173.93h-8.2a9.5 9.5 0 0 1-.79 2.81 11.9 11.9 0 0 1-1.76 2.48l-.56-.49a9 9 0 0 0 2.09-3.28 16.1 16.1 0 0 0 .51-4.61v-5.69H654v11.43a2.55 2.55 0 0 1-.5 1.73 2.35 2.35 0 0 1-1.64.57 17 17 0 0 1-1.78-.08l-.08-.69c.76.08 1.34.12 1.75.12a1.77 1.77 0 0 0 1.24-.4 2 2 0 0 0 .34-1.32Zm0-.61v-3.44h-8.06v1c0 .93 0 1.75-.08 2.45Zm0-4v-3.5h-8.06v3.5ZM659.08 166.79h3.12v.52l-1.09 2.91-.56-.17 1-2.71h-2.69a20.4 20.4 0 0 1-1.7 3.5l-.48-.44a19.5 19.5 0 0 0 2.45-6.13l.64.11c-.19.86-.43 1.62-.69 2.41m0 3.12h.62v7.43c.6-.49 1.31-1.13 2.12-1.94l.27.57c-1.19 1.11-2.17 2-2.93 2.57l-.41-.49a1.25 1.25 0 0 0 .33-.92Zm10.1 3v6.23h-.64v-6.23h-3.27a10.3 10.3 0 0 1-.72 3.57 9.6 9.6 0 0 1-2.12 2.82l-.49-.42a7.39 7.39 0 0 0 2.7-6H662v-.59h2.58v-4.23h-1.8v-.59h2.63c-.35-.87-.81-1.89-1.4-3.05l.57-.18c.49.94 1 2 1.47 3.23h1.47a37 37 0 0 0 1.9-3.32l.55.23c-.55 1.08-1.14 2.11-1.76 3.09h2.86v.59h-2v4.23h2.48v.59Zm-.64-.59v-4.23h-3.23v4.23ZM673.05 177.08l4.2-5a15 15 0 0 0 1.39-1.9 3.53 3.53 0 0 0 .46-1.76 2.15 2.15 0 0 0-.7-1.73 2.54 2.54 0 0 0-1.73-.59 2.9 2.9 0 0 0-1.93.65 3.3 3.3 0 0 0-1 1.75H673a3.7 3.7 0 0 1 1.31-2.19 3.57 3.57 0 0 1 2.37-.83 3.33 3.33 0 0 1 2.29.76 2.77 2.77 0 0 1 .88 2.18 3.7 3.7 0 0 1-.28 1.42 6.4 6.4 0 0 1-.67 1.23c-.26.36-.62.81-1.08 1.37l-.32.39-3.54 4.25H680v.61h-7ZM688.56 174.14a4.23 4.23 0 0 1-.95 2.73 3.48 3.48 0 0 1-5 0 4.25 4.25 0 0 1-1-2.75v-4.880000000000001a4.2 4.2 0 0 1 1-2.75 3.49 3.49 0 0 1 5 0 4.28 4.28 0 0 1 .95 2.76v2.44c0 .9.02 1.71 0 2.45m-6.21-.21a4.37 4.37 0 0 0 .7 2.43 2.39 2.39 0 0 0 2.08.93 2.35 2.35 0 0 0 2.06-.93 4.37 4.37 0 0 0 .7-2.43v-4.5a4.37 4.37 0 0 0-.7-2.43 2.35 2.35 0 0 0-2.06-.93 2.39 2.39 0 0 0-2.08.93 4.37 4.37 0 0 0-.7 2.43v2.24c0 .83-.02 1.58 0 2.26M690.39 177.08l4.2-5a15 15 0 0 0 1.39-1.9 3.64 3.64 0 0 0 .46-1.76 2.15 2.15 0 0 0-.71-1.73 2.5 2.5 0 0 0-1.73-.59 2.9 2.9 0 0 0-1.93.65 3.28 3.28 0 0 0-1 1.75h-.72a3.68 3.68 0 0 1 1.3-2.19 3.6 3.6 0 0 1 2.37-.83 3.33 3.33 0 0 1 2.29.76 2.75 2.75 0 0 1 .89 2.18 3.9 3.9 0 0 1-.28 1.42 6.4 6.4 0 0 1-.67 1.23c-.26.36-.62.81-1.08 1.37l-.33.39-3.53 4.25h6.06v.61h-6.94ZM702.39 177.92a3.8 3.8 0 0 1-1.8-.43 3.2 3.2 0 0 1-1.3-1.21 3.7 3.7 0 0 1-.54-1.86h.72a3.05 3.05 0 0 0 .94 2.12 3 3 0 0 0 2 .75 3.1 3.1 0 0 0 2.14-.73 2.86 2.86 0 0 0-.08-4.15 3.77 3.77 0 0 0-2.3-.67h-.84v-.62h.84a3.3 3.3 0 0 0 1.37-.3 2.7 2.7 0 0 0 1.06-.86 2.43 2.43 0 0 0 .41-1.38 2.38 2.38 0 0 0-.72-1.84 2.6 2.6 0 0 0-1.9-.67 2.43 2.43 0 0 0-1.78.67 3 3 0 0 0-.91 1.75h-.7a3.55 3.55 0 0 1 1.14-2.21 3.34 3.34 0 0 1 2.32-.83 3.5 3.5 0 0 1 1.67.37 2.94 2.94 0 0 1 1.18 1.06 3.1 3.1 0 0 1 .42 1.61 2.84 2.84 0 0 1-2.07 2.89 3.22 3.22 0 0 1 1.81 1.05 3.12 3.12 0 0 1 .65 2.06 3.65 3.65 0 0 1-.45 1.78 3.1 3.1 0 0 1-1.31 1.19 4.4 4.4 0 0 1-1.97.46M711.75 166.1h10v.62h-5.39v3.37h5v.62h-5v3.95h6.14v.63h-6.14v4h-.67v-4h-8v-.63h2.83v-4.57h5.2v-3.37h-4.35c-.26.41-.42.65-.46.7a21.6 21.6 0 0 1-2.3 2.78l-.44-.52a18.1 18.1 0 0 0 3.82-5.57l.65.18c-.29.71-.64 1.3-.89 1.81m4 8.56v-3.95h-4.56v3.95ZM725.27 177.33v1.6h-.64V167h1.65a27 27 0 0 0 1.1-2.81l.65.15c-.27.79-.62 1.68-1 2.66h2.94v11.79h-.64v-1.44Zm0-5.46h4v-4.27h-4Zm0 4.84h4v-4.22h-4Zm7.5-9.78h4.74l-.21 9.22a2.92 2.92 0 0 1-.62 2 2.47 2.47 0 0 1-1.85.67 21 21 0 0 1-2.12-.1l-.09-.68c.89.07 1.58.11 2.08.11a2 2 0 0 0 1.47-.49 2.42 2.42 0 0 0 .49-1.6c.07-2.9.13-5.74.2-8.52h-4.37a23 23 0 0 1-1.49 2.76l-.56-.33a20.4 20.4 0 0 0 2.7-5.82l.62.18c-.27.75-.59 1.61-.99 2.6m-1.14 4 .5-.32c.62.81 1.41 1.88 2.36 3.18l-.54.4c-.63-.93-1.41-2.02-2.32-3.19ZM742.58 171.8v7.37H742v-7.38a19 19 0 0 1-2.32 2.35l-.26-.64a16 16 0 0 0 2.43-2.5 13.7 13.7 0 0 0 1.67-2.91h-3.76v-.57h2.47c-.26-1.24-.53-2.31-.79-3.2l.62-.15c.32 1.24.59 2.36.82 3.35h1.33v.56a15.5 15.5 0 0 1-1.61 2.92v.66l.36-.26q1 .94 2 1.92l-.46.41c-.62-.65-1.25-1.29-1.92-1.93m6.51-4.54h.62c0 .94 0 1.89-.07 2.82a10.7 10.7 0 0 1-1.24 5.2 11.9 11.9 0 0 1-4.08 3.84l-.43-.49a11.8 11.8 0 0 0 3.94-3.63 9.77 9.77 0 0 0 1.17-4.9c0-.54.07-1.49.09-2.84m-3.09-2.11h6.88v8.94h-.64v-8.33h-5.62v8.32H746Zm3.63 7.68h.6v4.06a1.14 1.14 0 0 0 .3.83 1.24 1.24 0 0 0 .88.36 4 4 0 0 0 .85 0 2.45 2.45 0 0 0 1-.28 1.3 1.3 0 0 0 .4-.8q.16-1.26.18-1.5l.57.23c0 .44-.11.93-.2 1.47a1.63 1.63 0 0 1-.54 1.11 3 3 0 0 1-1.32.36 4.4 4.4 0 0 1-.9 0 2 2 0 0 1-1.29-.47 1.76 1.76 0 0 1-.49-1.27ZM762.38 172.08h.62a12 12 0 0 1-.26 2.16 5 5 0 0 1-2 3 14.3 14.3 0 0 1-4.85 2l-.31-.59a14.4 14.4 0 0 0 4.65-1.8 4.5 4.5 0 0 0 1.92-2.66 12.3 12.3 0 0 0 .23-2.11m3.47-4.71h3.58v3h-.64V168h-12.1v2.41H756v-3h9a30 30 0 0 0 2.47-3l.64.27c-.69.85-1.45 1.78-2.26 2.69m-8.54-2.69.63-.26c.68.82 1.27 1.54 1.74 2.14l-.55.31c-.57-.72-1.13-1.45-1.82-2.19m.87 5.54h9.15v5.42h-.63v-4.85h-7.87v4.89h-.65Zm3.48-5.9.61-.18c.64 1.06 1.09 1.82 1.35 2.3l-.6.26c-.35-.7-.8-1.47-1.36-2.38m1.44 9.87h.62v2.47a1.55 1.55 0 0 0 .31 1.08 1.72 1.72 0 0 0 1.06.36h2.33a2.6 2.6 0 0 0 1.22-.31 1.72 1.72 0 0 0 .51-1c.07-.46.13-.92.18-1.39l.6.21c0 .49-.12 1-.19 1.41a2.07 2.07 0 0 1-.66 1.24 3 3 0 0 1-1.58.42 22 22 0 0 1-2.54 0 2.18 2.18 0 0 1-1.42-.49 2 2 0 0 1-.44-1.43ZM777.82 171.62V179h-.64v-7.42h-3a14.6 14.6 0 0 1-.57 4.25 10.5 10.5 0 0 1-2 3.27l-.52-.42a10.4 10.4 0 0 0 1.91-3.06 13.5 13.5 0 0 0 .54-4h-2.4V171h2.4v-5h-1.78v-.61h7.71v.61h-1.7v5h2.24v.6Zm-.64-.6v-5h-2.95v5Zm8.24 2.43.51.41a19.3 19.3 0 0 1-6.55 5.28l-.41-.54a22 22 0 0 0 3.62-2.29 18.7 18.7 0 0 0 2.83-2.86m-1.08-9 .48.46a23.5 23.5 0 0 1-4.87 3.94l-.41-.51a23 23 0 0 0 2.55-1.76 25 25 0 0 0 2.25-2.12Zm.4 4.68.45.41a26 26 0 0 1-2.33 2.19 19.3 19.3 0 0 1-2.77 1.89l-.4-.52a19 19 0 0 0 2.73-1.85 24 24 0 0 0 2.32-2.11ZM800.69 170.94h-6.49c-.1.1-.25.23-.42.41a6 6 0 0 1 2 2.38 34 34 0 0 0 4.69-2.25l.37.45a27 27 0 0 1-2.86 1.48 7.55 7.55 0 0 0 1.62 2.59 9.3 9.3 0 0 0 2.5 1.83l-.39.54a10.3 10.3 0 0 1-2.59-2 8.4 8.4 0 0 1-1.63-2.72l-1.47.59a6.8 6.8 0 0 1 .37 2.31 2.82 2.82 0 0 1-.55 1.93 2.32 2.32 0 0 1-1.77.62c-.38 0-.94 0-1.68-.07l-.06-.59a16 16 0 0 0 1.63.08 1.9 1.9 0 0 0 1.39-.45 2.35 2.35 0 0 0 .42-1.56 6.2 6.2 0 0 0-.24-1.76 20 20 0 0 1-7.77 4.12l-.29-.54a19.4 19.4 0 0 0 7.88-4.12 6 6 0 0 0-.7-1.19 20.1 20.1 0 0 1-6.77 3.31l-.28-.52a19.4 19.4 0 0 0 6.73-3.19 8.3 8.3 0 0 0-1-.89 18.5 18.5 0 0 1-5.5 2.17l-.24-.56a24.5 24.5 0 0 0 3.84-1.24 10 10 0 0 0 1.94-1.14h-4.23v-2.77c-.4.27-.85.53-1.34.81l-.39-.49a17.6 17.6 0 0 0 5.34-4.4l.61.23c-.3.39-.66.81-1.08 1.27h6.52v.51l-2.16 1.72h4.07Zm-5-3.12c.2-.17.91-.73 2.14-1.7h-6.08a18 18 0 0 1-2.11 1.7Zm-.81.52h-5.12v2.07h4.12a5.9 5.9 0 0 0 1-2.07m5.19 2.07v-2.07h-4.54a6.6 6.6 0 0 1-.9 2.07ZM806.36 171v-3.16H804v-.6h2.43v-3.06h.57v3.06h2.2v.6H807v3.14h2.52v.61h-2.55c-.06.5-.11 1-.17 1.48.84 1 1.73 2 2.68 3.21l-.44.45q-1.17-1.47-2.37-2.94a10.2 10.2 0 0 1-.93 2.67 17 17 0 0 1-1.78 2.48l-.46-.47a13.8 13.8 0 0 0 2.06-3.09 12.6 12.6 0 0 0 .8-3.79h-2.71V171Zm7-3.71h.64c0 .64 0 1.56-.05 2.75a11.6 11.6 0 0 1-1.23 5.31 12.2 12.2 0 0 1-4 3.89l-.39-.53a11.3 11.3 0 0 0 3.85-3.66 10.46 10.46 0 0 0 1.16-5 84 84 0 0 1 0-2.79Zm-3.09-2.13H817v9h-.62v-8.32h-5.53v8.3h-.64Zm3.53 7.69h.59v4.05a1.3 1.3 0 0 0 .25.88 1.32 1.32 0 0 0 .83.31 4 4 0 0 0 1 0 2.2 2.2 0 0 0 .91-.26 1.34 1.34 0 0 0 .41-.83l.18-1.51.57.2c-.06.61-.13 1.12-.2 1.52a1.73 1.73 0 0 1-.52 1.08 2.8 2.8 0 0 1-1.29.39 7 7 0 0 1-1.13 0 1.85 1.85 0 0 1-1.19-.47 1.74 1.74 0 0 1-.38-1.26ZM819.31 172l.3-.55c.54.25 1.58.76 3.1 1.53l-.28.59c-1.28-.73-2.32-1.25-3.12-1.57m10.27-5.25v1.69h-.66v-1.74h-4.46v1.72h-.65v-1.72h-4.43v-.58h4.43v-2h.65v2h4.46v-2h.66v2H834v.58Zm-6.53 7.55.51.4c-.89 1.36-1.92 2.84-3.07 4.44l-.54-.42q1.98-2.72 3.1-4.47Zm-2.51-5.18.33-.53c1.06.55 2.09 1.13 3.08 1.73l-.31.55c-1.36-.87-2.39-1.43-3.1-1.8Zm5.28.9v6.51a1.5 1.5 0 0 0 .42 1.19 2.54 2.54 0 0 0 1.41.38 30 30 0 0 0 3 0 4.1 4.1 0 0 0 1.73-.33 1.47 1.47 0 0 0 .64-1.05 9 9 0 0 0 .2-1.37l.63.18c-.06.52-.14 1-.23 1.46a2 2 0 0 1-.83 1.3 5.3 5.3 0 0 1-2.09.43h-3.12a3.24 3.24 0 0 1-1.83-.52 2 2 0 0 1-.58-1.62v-7.18h6.92c0 1.09-.05 2.18-.08 3.25a2.6 2.6 0 0 1-.56 1.69 2.4 2.4 0 0 1-1.63.5c-.57 0-1.19 0-1.87-.06l-.1-.64c.69.06 1.31.08 1.85.08a1.82 1.82 0 0 0 1.24-.36 1.67 1.67 0 0 0 .41-1.24c0-.86.06-1.73.08-2.6ZM836.81 175.69c.4.36.82.76 1.24 1.2s.74.81 1.2 1.37l-.43.36a18.6 18.6 0 0 0-2.39-2.57ZM846.49 165.13h.68v11.48c1-.72 2.45-1.79 4.21-3.22l.31.67q-3.06 2.41-5.08 3.74l-.41-.51a3 3 0 0 0 .23-.39 2.5 2.5 0 0 0 .06-.49Zm9.65 8.7c1.59 1.77 2.82 3.18 3.69 4.25l-.5.51q-1.73-2.09-3.52-4.14c-.11.19-.22.37-.34.54a13.9 13.9 0 0 1-5.1 4.09l-.39-.59a13.9 13.9 0 0 0 4.93-3.87 11.1 11.1 0 0 0 1.77-5.5c.12-1.21.2-2.68.24-4.43h.69c-.06 1.49-.14 2.94-.26 4.35a13.1 13.1 0 0 1-1.21 4.79m-5.9-9.17.59-.24a61 61 0 0 1 2.35 4.44l-.61.31q-1.11-2.37-2.33-4.51M871 175.51a17.8 17.8 0 0 0 5.21 2.83l-.34.66a19.4 19.4 0 0 1-5.38-3 21 21 0 0 1-5.75 3.26l-.35-.6a19.8 19.8 0 0 0 5.58-3.11c-.37-.34-.65-.61-.82-.8a14.25 14.25 0 0 1-3-5.05 16.8 16.8 0 0 1-1.16 4.58 15.5 15.5 0 0 1-3.14 4.43l-.49-.48a14.5 14.5 0 0 0 3-4.21 16.4 16.4 0 0 0 1.21-5.17q0-.41.18-3h-3.13v-.62h10.5v.62l-2 3.86h3.32v.6a13.7 13.7 0 0 1-3.44 5.2m-.53-.44a12 12 0 0 0 3.22-4.75h-3.33v-.59l2-3.89h-6c-.06.84-.11 1.61-.15 2.32a14.14 14.14 0 0 0 3.4 6.13 9 9 0 0 0 .86.78M880.35 175.78l2.09-.79.17.59c-1.74.69-3.44 1.29-5.12 1.8l-.2-.64c1-.31 1.85-.56 2.44-.77v-6.81h-2v-.59h2v-4.37h.62v4.37h1.94v.59h-1.94Zm7.29-6.61v6.77H887v-6.57l-2.88.93v5.7a2 2 0 0 0 .43 1.54 2.73 2.73 0 0 0 1.57.43c1.07.05 2.15.05 3.23 0a3.15 3.15 0 0 0 1.49-.4 1.76 1.76 0 0 0 .57-1.12c.1-.54.18-1 .23-1.49l.6.16c-.06.57-.14 1.1-.24 1.6a2.1 2.1 0 0 1-.77 1.41 3.3 3.3 0 0 1-1.76.44c-1.18.05-2.34.05-3.49 0a3.12 3.12 0 0 1-1.92-.56 2.6 2.6 0 0 1-.56-1.91v-5.6l-1.47.47-.16-.6 1.63-.53v-4.1h.62v3.91l2.88-.92v-4.53h.62v4.34l3.69-1.18c-.05 2.21-.11 3.9-.16 5.08a2.32 2.32 0 0 1-.41 1.41 1.64 1.64 0 0 1-1.16.44h-1.19l-.08-.62a11 11 0 0 0 1.11.05 1.13 1.13 0 0 0 .8-.24 1.84 1.84 0 0 0 .32-1.08c.05-.89.09-2.28.14-4.17ZM895.66 166.61h3.42v.55h-3.68a20.3 20.3 0 0 1-1.67 2.91l-.45-.44a21 21 0 0 0 1.53-2.63 16 16 0 0 0 1.06-2.85l.63.14a21 21 0 0 1-.84 2.32m.84 6.53v4.38c.59-.43 1.34-1.05 2.23-1.84l.33.5c-.95.84-2 1.68-3.07 2.5l-.39-.45a2.5 2.5 0 0 0 .21-.35 1.2 1.2 0 0 0 .06-.34v-4.4h-2.33v-.55h2.33V170h-1.38v-.57h3.87v.57h-1.86v2.55h2.37v.55Zm7.42-.86a9.3 9.3 0 0 0 1.38 3.41 9.1 9.1 0 0 0 2.88 2.77l-.39.6a10.1 10.1 0 0 1-3-3 9.4 9.4 0 0 1-1.19-2.76 8.9 8.9 0 0 1-1.31 2.92 11.25 11.25 0 0 1-3.28 3l-.4-.53a10.9 10.9 0 0 0 3.14-2.83 8.3 8.3 0 0 0 1.41-3.53h-4v-.59h4.05v-.49c0-.22 0-1.12.08-3h-2.53a18 18 0 0 1-.9 2.25l-.55-.24a17.1 17.1 0 0 0 1.53-4.87l.59.13a21 21 0 0 1-.49 2.14h2.39v-3.43h.64v3.43h3.44v.59H904v1.62c0 .46-.05 1.22-.08 1.83H908v.59ZM909.9 171.12c.82.34 1.78.74 2.87 1.21l-.24.59c-1-.47-2-.89-2.91-1.25Zm10-4.79v1.42h-.64v-1.42h-4.56v1.45h-.62v-1.45h-4.33v-.56h4.33v-1.62h.62v1.62h4.56v-1.63h.64v1.63h4.31v.56Zm-7.55 7.89.55.25q-.95 2.4-2 4.57l-.59-.27q1.04-2.03 2.04-4.55m-1.35-6.31c1.32.6 2.27 1.05 2.86 1.34l-.26.59c-.79-.42-1.75-.89-2.9-1.4Zm8.55 4.07a17.7 17.7 0 0 0 4.85 1.31l-.18.61a18.6 18.6 0 0 1-5.1-1.48l-.19-.09a23.3 23.3 0 0 1-5.35 1.79l-.2-.57a21.3 21.3 0 0 0 4.92-1.55 10.5 10.5 0 0 1-2.36-1.84 15 15 0 0 1-1.63 1.47l-.41-.48a11.45 11.45 0 0 0 3.27-3.66l.6.17a9 9 0 0 1-.7 1.12h5.64v.56a11.9 11.9 0 0 1-3.15 2.66Zm2.38 6.25h-6.16v1h-.62v-4.77h7.4v4.77h-.62Zm0-.54V175h-6.16v2.72Zm-3-6a11.4 11.4 0 0 0 3-2.37h-5.23l-.34.4a9.6 9.6 0 0 0 2.56 1.95ZM928 175.78l2.1-.79.16.59q-2.6 1-5.12 1.8l-.19-.64c1-.31 1.84-.56 2.43-.77v-6.81h-2v-.59h2v-4.37h.62v4.37h2v.59h-2Zm7.29-6.61v6.77h-.62v-6.57l-2.87.93v5.7a2.07 2.07 0 0 0 .42 1.54 2.75 2.75 0 0 0 1.57.43q1.62.08 3.24 0a3.1 3.1 0 0 0 1.48-.4 1.72 1.72 0 0 0 .58-1.12c.09-.54.17-1 .22-1.49l.61.16c-.07.57-.15 1.1-.25 1.6a2.1 2.1 0 0 1-.76 1.41 3.3 3.3 0 0 1-1.77.44q-1.77.08-3.48 0a3.16 3.16 0 0 1-1.93-.56 2.6 2.6 0 0 1-.55-1.91v-5.6l-1.48.47-.16-.6 1.64-.53v-4.1h.62v3.91l2.87-.92v-4.53h.62v4.34l3.7-1.18c-.06 2.21-.11 3.9-.17 5.08a2.32 2.32 0 0 1-.4 1.41 1.66 1.66 0 0 1-1.16.44h-1.2l-.08-.62a11 11 0 0 0 1.11.05 1.1 1.1 0 0 0 .8-.24 1.77 1.77 0 0 0 .33-1.08c0-.89.09-2.28.13-4.17ZM945 173.24v5.93h-.62v-5.67c-.86.36-1.82.74-2.88 1.15l-.18-.62 3.06-1.21v-4.19h-1.75a25 25 0 0 1-.73 2.52l-.55-.18a22.7 22.7 0 0 0 1.18-5.21l.56.09c-.1.76-.21 1.48-.35 2.18h1.64v-3.78h.62V168h1.81v.6H945v3.93c.76-.31 1.43-.59 2-.84l.17.59q-1.06.51-2.17.96m8.06-5.69a19.1 19.1 0 0 1-1.55 6.46 14.2 14.2 0 0 1-3.78 4.76l-.46-.48a13.9 13.9 0 0 0 3.71-4.61 18.5 18.5 0 0 0 1.54-6.13h-1.67a15.4 15.4 0 0 1-1.44 4.56 13.6 13.6 0 0 1-2.87 3.68l-.44-.46a11.9 11.9 0 0 0 2.77-3.46 14.4 14.4 0 0 0 1.43-4.32h-1.69a18 18 0 0 1-1.76 3l-.49-.39a20 20 0 0 0 2.91-6l.6.18a23 23 0 0 1-1 2.62h6.39q-.13 3-.36 9a3.54 3.54 0 0 1-.57 2 2.23 2.23 0 0 1-1.7.63 17 17 0 0 1-1.73-.1l-.12-.64a15 15 0 0 0 1.75.11 1.62 1.62 0 0 0 1.29-.44 2.76 2.76 0 0 0 .46-1.68q.13-3.3.34-8.34ZM960.13 171.87a15.4 15.4 0 0 1-2.67 4.67l-.37-.57a14.6 14.6 0 0 0 2.93-5.28h-2.79v-.59h2.9v-5.91h.63v5.91h2.6v.59h-2.6v1.2l.32-.23c.58.63 1.32 1.52 2.23 2.66l-.46.39c-.59-.76-1.29-1.6-2.09-2.53v7h-.63Zm-2.51-5.82.49-.16c.31.69.67 1.63 1.06 2.79l-.52.21c-.31-.89-.65-1.89-1.03-2.84m5.16-.18.53.2a30 30 0 0 1-1.23 2.82l-.47-.24a29 29 0 0 0 1.17-2.78m6.79 8.5v4.8H969v-4.72l-5.24.82-.09-.64 5.33-.82v-9.64h.62v9.55l2.27-.35.08.64ZM964.4 170l.39-.43c.71.58 1.56 1.32 2.54 2.23l-.38.45q-1.27-1.14-2.55-2.25m.59-3.78.39-.42c.76.68 1.59 1.46 2.49 2.32l-.4.47c-.62-.59-1.47-1.39-2.47-2.33ZM980.82 172h7.06v.56h-14.73V172h7v-1.9h-5.46v-.55h5.46v-1.21h.64v1.21h5.52v.55h-5.52Zm-3.25-5.79c.25.53.51 1.14.8 1.85l-.56.21c-.22-.61-.51-1.29-.87-2.06h-1a16.6 16.6 0 0 1-2.24 2.57l-.46-.41a14.8 14.8 0 0 0 3.22-4.26l.61.18c-.27.51-.53 1-.79 1.4h4.45v.52Zm6.65 8.78v2.06a2.12 2.12 0 0 1-.46 1.47 2.36 2.36 0 0 1-1.55.52 10.4 10.4 0 0 1-1.74 0l-.06-.62c.78 0 1.32.07 1.62.07a2 2 0 0 0 1.21-.36 1.62 1.62 0 0 0 .32-1.13v-2h-9.8v-.55h9.8v-1.28h.66v1.28h3.09v.55ZM976 176l.39-.47c.57.33 1.54.93 2.91 1.79l-.39.51q-1.51-1.09-2.91-1.83m8.42-9.74c.32.63.62 1.24.88 1.81l-.56.22c-.39-.9-.71-1.57-1-2h-1.54A14.4 14.4 0 0 1 981 168l-.51-.34a13.6 13.6 0 0 0 2.26-3.48l.6.15c-.17.35-.41.82-.72 1.4h5.18v.54ZM991.05 179a1.65 1.65 0 0 1-1.19-.49 1.63 1.63 0 0 1-.49-1.2 1.71 1.71 0 0 1 1.68-1.7 1.62 1.62 0 0 1 1.21.51 1.58 1.58 0 0 1 .49 1.19 1.63 1.63 0 0 1-.49 1.2 1.68 1.68 0 0 1-1.21.49m0-.48a1.28 1.28 0 0 0 .87-.32 1.35 1.35 0 0 0 0-1.79 1.25 1.25 0 0 0-.87-.31 1.15 1.15 0 0 0-.85.33 1.18 1.18 0 0 0-.34.88 1.2 1.2 0 0 0 .34.89 1.27 1.27 0 0 0 .85.27Z"/><path d="M371.9.67H8.26A7.78 7.78 0 0 0 .48 8.45v106.11a7.78 7.78 0 0 0 7.78 7.78h161.81l20 34.66 20-34.66H371.9a7.78 7.78 0 0 0 7.78-7.78V8.45A7.78 7.78 0 0 0 371.9.67" class="cls-4"/><path d="m190.08 158-20.29-35.14H8.26a8.27 8.27 0 0 1-8.26-8.3V8.45A8.28 8.28 0 0 1 8.26.19H371.9a8.28 8.28 0 0 1 8.26 8.26v106.11a8.27 8.27 0 0 1-8.26 8.25H210.37ZM8.26 1.15A7.31 7.31 0 0 0 1 8.45v106.11a7.32 7.32 0 0 0 7.31 7.3h162.03l19.74 34.19 19.74-34.19H371.9a7.32 7.32 0 0 0 7.31-7.3V8.45a7.31 7.31 0 0 0-7.31-7.3Z" style="fill:#dee7ff"/><path d="m106 184.25 5-6a17 17 0 0 0 1.66-2.26 4.3 4.3 0 0 0 .55-2.11 2.58 2.58 0 0 0-.84-2.07 3.07 3.07 0 0 0-2.07-.7 3.43 3.43 0 0 0-2.3.78 3.94 3.94 0 0 0-1.25 2.09h-.86a4.52 4.52 0 0 1 1.56-2.62 4.34 4.34 0 0 1 2.83-1 4 4 0 0 1 2.73.91 3.26 3.26 0 0 1 1.06 2.6 4.6 4.6 0 0 1-.33 1.7A8 8 0 0 1 113 177c-.32.43-.75 1-1.29 1.64l-.39.47-4.22 5.07h7.24v.82H106ZM123.11 185.25a6.56 6.56 0 0 1-3.49-.94 6.23 6.23 0 0 1-2.38-2.64 8.5 8.5 0 0 1-.84-3.86 8.56 8.56 0 0 1 .84-3.88 6.3 6.3 0 0 1 2.38-2.64 7.05 7.05 0 0 1 7 0 6.2 6.2 0 0 1 2.38 2.64 9.14 9.14 0 0 1 0 7.74 6.16 6.16 0 0 1-2.38 2.64 6.6 6.6 0 0 1-3.51.94m-5.83-7.44a7.9 7.9 0 0 0 .72 3.44 5.55 5.55 0 0 0 5.11 3.22 5.73 5.73 0 0 0 3.09-.86 5.8 5.8 0 0 0 2.06-2.38 7.8 7.8 0 0 0 .74-3.46 7.64 7.64 0 0 0-.74-3.43 5.7 5.7 0 0 0-2.08-2.36 5.63 5.63 0 0 0-3.07-.84 5.5 5.5 0 0 0-3 .84 5.55 5.55 0 0 0-2.07 2.38 7.9 7.9 0 0 0-.76 3.45M132.05 184.25l5-6a17 17 0 0 0 1.66-2.26 4.3 4.3 0 0 0 .55-2.11 2.58 2.58 0 0 0-.84-2.07 3.07 3.07 0 0 0-2.07-.7 3.43 3.43 0 0 0-2.3.78 3.94 3.94 0 0 0-1.25 2.09h-.8a4.52 4.52 0 0 1 1.56-2.62 4.34 4.34 0 0 1 2.83-1 4 4 0 0 1 2.73.91 3.26 3.26 0 0 1 1.06 2.6 4.6 4.6 0 0 1-.33 1.7A8 8 0 0 1 139 177c-.32.43-.75 1-1.29 1.64l-.39.47-4.22 5.07h7.24v.82h-8.29ZM146.72 185.25a4.54 4.54 0 0 1-2.14-.51 4 4 0 0 1-1.56-1.45 4.4 4.4 0 0 1-.65-2.22h.86a3.7 3.7 0 0 0 1.13 2.54 3.48 3.48 0 0 0 2.42.89 3.77 3.77 0 0 0 2.56-.87 3.05 3.05 0 0 0 1-2.38 3 3 0 0 0-1.11-2.58 4.57 4.57 0 0 0-2.75-.8h-1v-.74h1a4 4 0 0 0 1.64-.35 3.36 3.36 0 0 0 1.27-1 3.17 3.17 0 0 0-.37-3.84 3.14 3.14 0 0 0-2.27-.8 3 3 0 0 0-2.13.8 3.68 3.68 0 0 0-1.09 2.09h-.86a4.25 4.25 0 0 1 1.37-2.64 4 4 0 0 1 2.77-1 4.15 4.15 0 0 1 2 .45 3.43 3.43 0 0 1 1.41 1.26 3.7 3.7 0 0 1 .5 1.92 3.38 3.38 0 0 1-2.47 3.45 3.51 3.51 0 0 1 2.94 3.71 4.2 4.2 0 0 1-.55 2.12 3.6 3.6 0 0 1-1.56 1.43 5.34 5.34 0 0 1-2.36.52M154.33 183.67a.66.66 0 0 1 .49.19.64.64 0 0 1 .22.51.7.7 0 0 1-.22.49.68.68 0 0 1-.49.21.7.7 0 0 1-.49-.21.67.67 0 0 1-.19-.49.66.66 0 0 1 .19-.51.67.67 0 0 1 .49-.19M164.21 185.25a6.6 6.6 0 0 1-3.5-.94 6.3 6.3 0 0 1-2.38-2.64 8.5 8.5 0 0 1-.84-3.86 8.56 8.56 0 0 1 .84-3.88 6.35 6.35 0 0 1 2.38-2.64 7.07 7.07 0 0 1 7 0 6.3 6.3 0 0 1 2.38 2.64 9.14 9.14 0 0 1 0 7.74 6.23 6.23 0 0 1-2.38 2.64 6.63 6.63 0 0 1-3.5.94m-5.84-7.44a7.9 7.9 0 0 0 .72 3.44 5.55 5.55 0 0 0 5.12 3.22 5.7 5.7 0 0 0 3.08-.86 5.77 5.77 0 0 0 2.07-2.38 7.94 7.94 0 0 0 .74-3.46 7.8 7.8 0 0 0-.74-3.43 5.8 5.8 0 0 0-2.09-2.36 5.6 5.6 0 0 0-3.06-.84 5.5 5.5 0 0 0-3.05.84 5.7 5.7 0 0 0-2.07 2.38 7.9 7.9 0 0 0-.72 3.45M176.17 185l3.9-6.77a3.8 3.8 0 0 1-1.33.76 5 5 0 0 1-1.69.32 4.15 4.15 0 0 1-2.13-.57 4 4 0 0 1-1.52-1.56 4.6 4.6 0 0 1-.57-2.32 4.7 4.7 0 0 1 .59-2.35 4.17 4.17 0 0 1 1.58-1.61 4.74 4.74 0 0 1 2.28-.54 4.45 4.45 0 0 1 2.28.56 4.1 4.1 0 0 1 1.56 1.58 4.9 4.9 0 0 1 .57 2.38 6.4 6.4 0 0 1-.39 2.31 23 23 0 0 1-1.19 2.42l-.23.41-2.8 4.98Zm-2.52-10.22a4.2 4.2 0 0 0 .45 2 3.33 3.33 0 0 0 3 1.77 4 4 0 0 0 1.88-.45 3.2 3.2 0 0 0 1.34-1.26 3.73 3.73 0 0 0 .51-2 4.15 4.15 0 0 0-.47-2 3.2 3.2 0 0 0-1.29-1.29 3.6 3.6 0 0 0-1.83-.45 3.75 3.75 0 0 0-1.83.43 3.2 3.2 0 0 0-1.31 1.27 3.6 3.6 0 0 0-.45 1.95ZM182.49 179v-.68h15.18v.68ZM198.78 184.25l5-6a19 19 0 0 0 1.66-2.26 4.4 4.4 0 0 0 .54-2.11 2.58 2.58 0 0 0-.84-2.07 3 3 0 0 0-2.06-.7 3.44 3.44 0 0 0-2.31.78 4 4 0 0 0-1.25 2.09h-.85a4.42 4.42 0 0 1 1.56-2.62 4.32 4.32 0 0 1 2.83-1 4 4 0 0 1 2.73.91 3.28 3.28 0 0 1 1.05 2.6 4.6 4.6 0 0 1-.33 1.7 7.3 7.3 0 0 1-.8 1.46c-.31.43-.74 1-1.29 1.64l-.39.47-4.21 5.07h7.24v.79h-8.3ZM215.9 185.25a6.6 6.6 0 0 1-3.5-.94 6.3 6.3 0 0 1-2.38-2.64 8.5 8.5 0 0 1-.84-3.86 8.56 8.56 0 0 1 .84-3.88 6.35 6.35 0 0 1 2.38-2.64 7.07 7.07 0 0 1 7 0 6.3 6.3 0 0 1 2.38 2.64 9.14 9.14 0 0 1 0 7.74 6.23 6.23 0 0 1-2.38 2.64 6.63 6.63 0 0 1-3.5.94m-5.84-7.44a7.9 7.9 0 0 0 .72 3.44 5.55 5.55 0 0 0 5.12 3.22 5.7 5.7 0 0 0 3.08-.86 5.77 5.77 0 0 0 2.07-2.38 7.94 7.94 0 0 0 .74-3.46 7.8 7.8 0 0 0-.74-3.43A5.8 5.8 0 0 0 219 172a5.6 5.6 0 0 0-3.06-.84 5.5 5.5 0 0 0-3.05.84 5.7 5.7 0 0 0-2.07 2.38 7.9 7.9 0 0 0-.76 3.43M224.83 184.25l5-6a19 19 0 0 0 1.66-2.26 4.4 4.4 0 0 0 .54-2.11 2.58 2.58 0 0 0-.84-2.07 3 3 0 0 0-2.06-.7 3.45 3.45 0 0 0-2.31.78 4 4 0 0 0-1.25 2.09h-.85a4.42 4.42 0 0 1 1.56-2.62 4.32 4.32 0 0 1 2.83-1 4 4 0 0 1 2.73.91 3.28 3.28 0 0 1 1 2.6 4.6 4.6 0 0 1-.33 1.7 7.3 7.3 0 0 1-.8 1.46c-.31.43-.74 1-1.29 1.64l-.39.47-4.21 5.07h7.24v.79h-8.3ZM239.51 185.25a4.6 4.6 0 0 1-2.15-.51 4 4 0 0 1-1.56-1.45 4.4 4.4 0 0 1-.64-2.22h.84a3.74 3.74 0 0 0 1.14 2.54 3.46 3.46 0 0 0 2.42.89 3.72 3.72 0 0 0 2.55-.87 3 3 0 0 0 1-2.38 3 3 0 0 0-1.12-2.58 4.53 4.53 0 0 0-2.75-.8h-1v-.74h1a4 4 0 0 0 1.64-.35 3.3 3.3 0 0 0 1.27-1 3.13 3.13 0 0 0-.37-3.84 3.12 3.12 0 0 0-2.26-.8 2.93 2.93 0 0 0-2.13.8 3.62 3.62 0 0 0-1.09 2.09h-.86a4.24 4.24 0 0 1 1.36-2.64 4 4 0 0 1 2.77-1 4.1 4.1 0 0 1 2 .45 3.37 3.37 0 0 1 1.41 1.26 3.63 3.63 0 0 1 .51 1.92 3.38 3.38 0 0 1-2.48 3.45 3.51 3.51 0 0 1 2.95 3.71 4.3 4.3 0 0 1-.55 2.12 3.73 3.73 0 0 1-1.56 1.43 5.34 5.34 0 0 1-2.34.52M247.12 183.67a.65.65 0 0 1 .48.19.61.61 0 0 1 .22.51.67.67 0 0 1-.22.49.67.67 0 0 1-1 0 .68.68 0 0 1-.2-.49.66.66 0 0 1 .2-.51.66.66 0 0 1 .52-.19M255.76 185H255v-13.47l-3.32 2.63v-.86l3.42-2.67h.72ZM267.65 185.25a6.6 6.6 0 0 1-3.5-.94 6.23 6.23 0 0 1-2.38-2.64 8.5 8.5 0 0 1-.84-3.86 8.56 8.56 0 0 1 .84-3.88 6.3 6.3 0 0 1 2.38-2.64 7.07 7.07 0 0 1 7 0 6.3 6.3 0 0 1 2.38 2.64 9.14 9.14 0 0 1 0 7.74 6.23 6.23 0 0 1-2.38 2.64 6.63 6.63 0 0 1-3.5.94m-5.84-7.44a7.9 7.9 0 0 0 .72 3.44 5.55 5.55 0 0 0 5.12 3.22 5.7 5.7 0 0 0 3.08-.86 5.77 5.77 0 0 0 2.07-2.38 7.94 7.94 0 0 0 .74-3.46 7.8 7.8 0 0 0-.74-3.43 5.8 5.8 0 0 0-2.09-2.36 5.6 5.6 0 0 0-3.06-.84 5.5 5.5 0 0 0-3 .84 5.7 5.7 0 0 0-2.07 2.38 7.9 7.9 0 0 0-.77 3.45M118 82.52v-4.89q13.62-12.19 17.05-19.35a13.5 13.5 0 0 0 1.4-5.57c0-3.44-1.31-5.62-3.93-6.52a7.6 7.6 0 0 0-2.52-.39c-2.59 0-5.19 1.5-7.82 4.38l-4.61-4.61q4.89-5.18 10.18-6.19a20.7 20.7 0 0 1 3.38-.28q7.37 0 11 5.07a13.7 13.7 0 0 1 2.36 8q-.06 9.78-14.17 23.62a69 69 0 0 1 6.92-.45h9.28v7.14ZM178 41q-5.11 7.81-15.08 15.35a75 75 0 0 1-8.21 5.4 20.3 20.3 0 0 0-4.22-5.4l-.28-.28a63 63 0 0 0 18.06-14.4 46 46 0 0 0 5.73-7.8h7.32a60.8 60.8 0 0 0 17.83 17.55 57.4 57.4 0 0 0 7.31 3.94 33.7 33.7 0 0 0-4.73 6.24 75.7 75.7 0 0 1-18.22-14A49.7 49.7 0 0 1 178 41m-3.6 12.26h7.2v34.27h-7.2ZM255.35 36.46v42.3c0 3.22-.75 5.4-2.25 6.52a11 11 0 0 1-1.35.73q-2.92 1.29-11.24 1.35H239a25.6 25.6 0 0 0-2.87-7.2l2.42.11q1.29.06 2.58.06h5.12c1.09 0 1.69-.39 1.8-1.18a2.5 2.5 0 0 0 .06-.51v-8.32h-24.65q-2.7 11.25-9.73 17.21a20.4 20.4 0 0 0-4.44-4.33c-.34-.26-.62-.47-.84-.62q8.33-7.08 9.33-21.26c.12-1.72.17-3.69.17-5.91V36.46Zm-30.76 27.22h23.51v-7H225q-.12 3.86-.41 7m23.51-20.53H225v7h23.1Z"/></g></g></svg>