<svg xmlns="http://www.w3.org/2000/svg" viewBox="0 0 1155.76 207.79"><defs><style>.cls-2{fill:#fff}.cls-5{fill:#4c4c4c}</style></defs><g id="图层_2" data-name="图层 2"><g id="图层_1-2" data-name="图层 1" style="opacity:.3"><path d="M371.9.48H8.26A7.78 7.78 0 0 0 .48 8.26v106.1a7.78 7.78 0 0 0 7.78 7.79h161.81l20 34.66 20-34.66H371.9a7.78 7.78 0 0 0 7.78-7.79V8.26A7.78 7.78 0 0 0 371.9.48" class="cls-2"/><path d="m190.08 157.76-20.29-35.14H8.26A8.27 8.27 0 0 1 0 114.36V8.26A8.28 8.28 0 0 1 8.26 0H371.9a8.28 8.28 0 0 1 8.26 8.26v106.1a8.27 8.27 0 0 1-8.26 8.26H210.37ZM8.26 1A7.32 7.32 0 0 0 1 8.26v106.1a7.32 7.32 0 0 0 7.31 7.31h162.03l19.74 34.18 19.74-34.18H371.9a7.32 7.32 0 0 0 7.31-7.31V8.26A7.32 7.32 0 0 0 371.9 1Z" style="fill:#dee7ff"/><rect width="38.89" height="20.23" x="624.74" y="68.52" rx="5.18" style="fill:#1776ff"/><path d="M531.22 79.12v6.19h-1.61v-6.19h-7.72V77.6h7.72v-7.21h-6.44V68.9h14.51v1.49h-6.46v7.21h7.72v1.52ZM524 72.2l1.34-.64q1.42 2.19 2.53 4.19l-1.32.8c-.86-1.67-1.71-3.11-2.55-4.35m11.52-.64 1.34.64a47 47 0 0 1-2.7 4.38l-1.28-.71a35.5 35.5 0 0 0 2.66-4.31ZM554.51 84.06H543.1v1.19h-1.53V72.6h5.19c.39-.95.69-1.72.89-2.32h-7.25v-1.36h16.85v1.36h-7.92c-.3.81-.61 1.59-.92 2.32H556v12.65h-1.53Zm-8.88-1.34v-8.8h-2.53v8.8Zm4.91-6.72v-2.08h-3.46V76Zm0 3.32v-2.09h-3.46v2.13Zm0 3.36v-2.15h-3.46v2.19Zm4 0v-8.8H552v8.8ZM558.63 73.86h3.66v7.48c.67-.56 1.33-1.16 2-1.79l.66 1.42a42 42 0 0 1-3.81 3.23l-.91-1.2a2.4 2.4 0 0 0 .42-.72 3.1 3.1 0 0 0 .13-.89v-6.11h-2.15Zm1.07-4.79 1.23-.87c.91.92 1.83 1.94 2.78 3.08l-1.19 1a40 40 0 0 0-2.82-3.21m11.09 12.61a18.3 18.3 0 0 0 5 2l-.77 1.48a21.8 21.8 0 0 1-5.52-2.52 20.9 20.9 0 0 1-5.64 2.69l-.79-1.33a22 22 0 0 0 5.23-2.33 14.4 14.4 0 0 1-2.93-3.74l1.23-.79a14.7 14.7 0 0 0 2.94 3.63 12 12 0 0 0 2.91-3.72h-8V75.7h9.7v1.39a15.7 15.7 0 0 1-3.36 4.59m-4.67-13h7v3.19a1.28 1.28 0 0 0 .22.87 1.2 1.2 0 0 0 .84.24c.52 0 1.12 0 1.77-.07l-.3 1.41q-.8.06-1.89.06A2.43 2.43 0 0 1 572 74a1.9 1.9 0 0 1-.49-1.49v-2.38h-4v1a5 5 0 0 1-.68 2.24 6.7 6.7 0 0 1-2.1 1.78l-1-1.1a5.5 5.5 0 0 0 1.85-1.45 3.5 3.5 0 0 0 .52-1.89c.05-.65.05-1.3.02-1.98ZM577.08 74h4v8a31 31 0 0 0 2.59-2.17l.66 1.46q-2.12 1.83-4.45 3.59l-1-1.34a2.6 2.6 0 0 0 .54-.59 1.7 1.7 0 0 0 .16-.81v-6.71h-2.46Zm1.4-4.82 1.21-.94c1.12 1 2.14 2 3.06 2.92l-1.16 1.1q-1.18-1.26-3.11-3.12Zm10.86 6.44v9.67h-1.61v-9.71h-4.81v-1.53h4.81v-6.16h1.61v6.16h4.95v1.53ZM599.67 68h1.46v7.5a18.6 18.6 0 0 1-.72 5.93 8.5 8.5 0 0 1-1 2 12 12 0 0 1-1.66 2l-1.31-.89a9.1 9.1 0 0 0 2.84-4.31c.11-.49.2-1 .28-1.64a26 26 0 0 0 .15-3.08Zm-3.21 1.7h1.28v10.51h-1.28ZM608 74.41v10.86h-1.4V74.41h-2.36v8.26h-1.4v-9.6h3.76v-2.7h-4.47V69h10.48v1.38H608v2.7h3.87v7.5a2 2 0 0 1-.45 1.45 2.12 2.12 0 0 1-1.36.49h-1.36l-.27-1.36a12 12 0 0 0 1.16.07 1.1 1.1 0 0 0 .66-.15 1 1 0 0 0 .21-.7v-5.97Z" class="cls-5"/><path d="M643.67 80.43v.94h-5.26a23.8 23.8 0 0 1 4.88 3.08l-.72.81a24.2 24.2 0 0 0-5.18-3.37 6.9 6.9 0 0 1-4 3 14 14 0 0 1-1.41.38 3 3 0 0 0-.61-.94c2.29-.48 3.86-1.29 4.73-2.43a4 4 0 0 0 .32-.5h-5.22v-.94h5.63a16.4 16.4 0 0 0 .59-4.49v-.54h1.13a22.6 22.6 0 0 1-.57 5Zm-11.13-5.77v1.92h-1.07v-2.93h5.32V72h1.15v1.67h5.4v2.93h-1.11v-1.94Zm-.34 3.67.62-.73a10.2 10.2 0 0 1 2.28 1.61l-.66.81a9.5 9.5 0 0 0-2.24-1.69m4.24-1.33-.69.77a8.5 8.5 0 0 0-2-1.61l-.1-.06.66-.68a9 9 0 0 1 2.13 1.58M654.54 79.32l.2 1c-1.88.66-4.71 1.65-8.49 2.94l-.39-1.09c2.14-.62 5.03-1.57 8.68-2.85m2.66-6.27v.61c-.06 5.19-.19 8.37-.37 9.54a3.2 3.2 0 0 1-.38 1.25 1.52 1.52 0 0 1-1.1.68h-.11a16 16 0 0 1-2.33 0 1.9 1.9 0 0 0-.35-1c.7 0 1.46.07 2.29.07a.74.74 0 0 0 .59-.23c.27-.3.46-1.68.55-4.15 0-1.26.09-3.16.12-5.69h-10v-1Zm-9.47 3 .72-.72a34 34 0 0 1 3.86 2.92l-.77.84a35 35 0 0 0-3.81-3.09Z" class="cls-2"/><path d="M527.28 124.44v3.24h-.89v-3c-1.72.4-3.21.72-4.48 1l-.25-.93 1.28-.22v-10h-1.07v-.85h6.39v.85h-1v9c.39-.08.76-.18 1.13-.28l.12.85Zm-.89-7.32v-2.6h-2.59v2.6Zm0 3.37v-2.59h-2.59v2.59Zm0 3.26v-2.46h-2.59v3c.81-.15 1.67-.29 2.59-.54m4.21-1.09.88.41a28.7 28.7 0 0 1-2.73 4.64l-.81-.54a24 24 0 0 0 2.66-4.51m4.89-1.37h-6.29v-7.49h6.29Zm-1-.92v-5.67h-4.4v5.67Zm-1.42 2.7.83-.43q1.51 2.35 2.65 4.43l-.83.54c-.6-1.25-1.48-2.77-2.6-4.54ZM545.79 118.47h6.78v.79H538v-.79h6.76v-1.42h-5.1v-.76h5.1v-1.41h-5.9v-.77h5.9v-1.47h1v1.47h5.88v.77h-5.88v1.41h5.1v.76h-5.1Zm-.26 5.79q2.6.94 6.51 2.57l-.4.88c-2-.87-4.21-1.77-6.55-2.68q-1.27 1.86-6.49 2.7l-.43-.89a15.3 15.3 0 0 0 4.87-1.32 3 3 0 0 0 1.72-2.16 7.4 7.4 0 0 0 .08-1.22h1c0 .51-.07 1-.1 1.32s-.15.59-.21.8m-5.39-3.58h10.33v4.25h-1v-3.46h-8.37V125h-1ZM556.13 118.05a.75.75 0 0 1 .59.24.88.88 0 0 1 .21.58.82.82 0 0 1-.21.55.82.82 0 0 1-1.14 0 .8.8 0 0 1-.21-.55.88.88 0 0 1 .19-.58.69.69 0 0 1 .57-.24m0 6.62a.78.78 0 0 1 .59.23.84.84 0 0 1 .21.57.85.85 0 0 1-.21.56.78.78 0 0 1-.57.24.75.75 0 0 1-.57-.24.8.8 0 0 1-.21-.56.84.84 0 0 1 .19-.57.69.69 0 0 1 .57-.23M566 117.74v10h-.62v-10h-2v-.62h2v-4.48h.62v4.48h1.81v.62Zm3 .88.54.21a22 22 0 0 1-1.82 4.24l-.52-.31a22 22 0 0 0 1.8-4.14m3.09-2.63H576c0 1-.1 3.9-.23 8.83a2.78 2.78 0 0 1-.57 1.81 2.08 2.08 0 0 1-1.62.57c-.34 0-.94 0-1.79-.06l-.08-.66a16 16 0 0 0 1.73.09 1.73 1.73 0 0 0 1.27-.41 2.43 2.43 0 0 0 .43-1.44c.1-3.09.16-5.78.19-8.09h-3.3v1.06a19 19 0 0 1-1 5.74 11 11 0 0 1-3 4.26l-.49-.44a10.6 10.6 0 0 0 2.86-4 18.7 18.7 0 0 0 1-5.76v-.91h-3V116h3q0-2.2.06-3.3h.64c.03 1.09 0 2.19-.03 3.3Zm4.1 3 .54-.23c.59 1.24 1.16 2.49 1.7 3.76l-.52.29c-.74-1.72-1.31-2.99-1.74-3.81ZM585.43 124.54c.49-.08.86-.14 1.12-.2l.08.58q-3.55.67-7.37 1.17l-.13-.62c.47 0 1-.12 1.49-.2V113.7h4.81Zm-.63-7.08v-3.17h-3.58v3.17Zm0 3.61v-3h-3.58v3Zm0 3.57v-3h-3.58v3.53c1.45-.17 2.65-.37 3.58-.53m4.5-8.47h3.78l-.28 8.92a2.3 2.3 0 0 1-.48 1.57 2 2 0 0 1-1.48.51c-.42 0-1 0-1.67-.07l-.13-.67a14 14 0 0 0 1.65.1 1.56 1.56 0 0 0 1.13-.34 2 2 0 0 0 .36-1.19c.09-2.46.18-5.18.24-8.19h-3.14a24.8 24.8 0 0 1-.85 6.44 11.6 11.6 0 0 1-2.68 4.44l-.5-.44a10.9 10.9 0 0 0 2.59-4.23 24.2 24.2 0 0 0 .82-6.21h-2.09v-.64h2.11c0-.79 0-2 .05-3.51h.63q-.03 1.16-.06 3.51M595 118.07h2.81v7.58a26 26 0 0 0 2.08-2.08l.32.58a33 33 0 0 1-2.92 2.76l-.39-.49a1.8 1.8 0 0 0 .21-.39 2.6 2.6 0 0 0 .06-.49v-6.85H595Zm1.08-4.55.52-.39c.74.77 1.53 1.64 2.37 2.6l-.5.44c-.8-.98-1.6-1.86-2.35-2.65Zm8.94 11.22a18.2 18.2 0 0 0 4.79 2.27l-.33.62a18 18 0 0 1-5-2.47 19.7 19.7 0 0 1-5.18 2.6l-.34-.59a20.8 20.8 0 0 0 5-2.43 12 12 0 0 1-2.88-3.9l.56-.29a11.1 11.1 0 0 0 2.86 3.78 10.4 10.4 0 0 0 2.91-4H600v-.59h8.13v.61a11.2 11.2 0 0 1-3.09 4.33Zm-3.22-11.17h5.44v3a1.1 1.1 0 0 0 .25.85 1.33 1.33 0 0 0 .83.28h1.52l-.13.64a15 15 0 0 1-1.55 0 1.94 1.94 0 0 1-1.25-.41 1.57 1.57 0 0 1-.32-1.16v-2.58h-4.13v1.43a3.83 3.83 0 0 1-.54 1.92 5.2 5.2 0 0 1-1.75 1.44l-.44-.48a4.9 4.9 0 0 0 1.62-1.29 3 3 0 0 0 .47-1.72ZM611.4 118.05h3.17v7.62c.78-.59 1.64-1.31 2.6-2.16l.31.59q-1.68 1.5-3.48 2.9l-.44-.56a1 1 0 0 0 .29-.39 1.6 1.6 0 0 0 .07-.54v-6.85h-2.52Zm1.29-4.53.49-.44c1.05 1 1.94 1.85 2.67 2.62l-.48.45c-.94-.94-1.84-1.82-2.68-2.63m9 5.61v8.53H621v-8.53h-4.48v-.64H621v-5.85h.67v5.85h4.56v.64ZM631.08 112.71h.63v6.16a18.9 18.9 0 0 1-.47 4.95 7.4 7.4 0 0 1-.91 2 14.6 14.6 0 0 1-1.62 1.89l-.54-.4a8.43 8.43 0 0 0 2.45-3.6 10 10 0 0 0 .34-1.93 29 29 0 0 0 .12-2.89Zm-2.81 1.55h.58v8.94h-.58Zm9.41 3.63v9.77h-.62v-9.77h-2.8v7.43h-.6v-8h3.4v-2.86h-4.2v-.59H642v.59h-4.32v2.86h3.48v6.39a1.57 1.57 0 0 1-.34 1.14 1.82 1.82 0 0 1-1.15.38h-1.19l-.11-.61c.44 0 .82.05 1.13.05a1.65 1.65 0 0 0 .83-.21 1.22 1.22 0 0 0 .21-.79v-5.73ZM652.5 121.66v3.52a1.38 1.38 0 0 0 .31 1 1.67 1.67 0 0 0 1.06.36 11 11 0 0 0 1.38 0 2.9 2.9 0 0 0 1.21-.33 1.33 1.33 0 0 0 .5-.91c0-.3.1-.76.17-1.37l.6.18c-.06.61-.13 1.1-.2 1.47a1.6 1.6 0 0 1-.67 1.14 3.45 3.45 0 0 1-1.53.41 14 14 0 0 1-1.59 0 2.26 2.26 0 0 1-1.45-.49 1.92 1.92 0 0 1-.44-1.42v-3.6h-3.09v1a5.15 5.15 0 0 1-1.39 3.16 8.24 8.24 0 0 1-3.61 1.86l-.31-.59a8.5 8.5 0 0 0 3.35-1.67 4.32 4.32 0 0 0 1.29-2.76c0-.2 0-.55.06-1h-4.49v-.6h13.74v.6Zm-1.49-7h6v2.9h-.65v-2.29h-11.74v2.35H644v-3h6.3c-.27-.7-.54-1.33-.8-1.88l.67-.14c.33.74.61 1.4.83 2.03Zm-5.33 3.19h9.58v.61h-9.58ZM669.48 123.74a1.4 1.4 0 0 1 .06.16 9 9 0 0 0 .94 1.88c.48.68.93 1 1.35 1a.85.85 0 0 0 .44-.18 1.5 1.5 0 0 0 .4-.68 16 16 0 0 0 .52-2.19l.59.21a18 18 0 0 1-.56 2.22c-.29.88-.75 1.32-1.37 1.32a2 2 0 0 1-1.57-.86 6.7 6.7 0 0 1-1.13-1.93c0-.11-.09-.22-.14-.34a20 20 0 0 1-3.36 3l-.4-.49a19.4 19.4 0 0 0 3.51-3.22 17.4 17.4 0 0 1-.65-2.67 40 40 0 0 1-.54-4.51h-6.21v2.88h4.23q0 2-.12 4.08A2.34 2.34 0 0 1 665 125a2.2 2.2 0 0 1-1.47.48 13 13 0 0 1-1.32-.07l-.07-.64a7 7 0 0 0 1.3.09 1.8 1.8 0 0 0 1.09-.32 1.66 1.66 0 0 0 .33-1.17c0-1.15.08-2.29.11-3.43h-3.59v.31a16.5 16.5 0 0 1-.4 4 13 13 0 0 1-1.48 3.37l-.58-.38a10.9 10.9 0 0 0 1.43-3.15 17 17 0 0 0 .37-3.88v-4.34h6.83c0-.71-.08-1.79-.13-3.24h.66c0 1.06.08 2.11.13 3.15v.09h5.28v.6h-5.25a34 34 0 0 0 .46 4.12 22 22 0 0 0 .57 2.44 22.6 22.6 0 0 0 2.6-4.83l.57.25a22.8 22.8 0 0 1-2.78 5.08 2 2 0 0 1-.18.21m.06-10.28.4-.48c.52.41 1.27 1 2.24 1.88l-.38.48a25 25 0 0 0-2.26-1.88M682.34 122v5.76h-.67V122h-7v-.64h7v-7h-5.94v-.63h12.43v.63h-5.82v7h7v.64Zm-5.61-5.83.57-.3q1.17 1.93 2.23 3.88l-.56.34c-.81-1.52-1.55-2.83-2.24-3.95Zm10-.28.58.29q-1 1.92-2.28 3.93l-.55-.31c.8-1.28 1.52-2.58 2.25-3.94ZM703.08 126.52h-10.79v1.16h-.65v-10.74h4.46c.28-.6.64-1.46 1.08-2.57h-6.8v-.59H705v.59h-7.08c-.37 1-.72 1.83-1.06 2.57h6.9v10.74h-.64Zm-8-.59v-8.4h-2.83v8.4Zm4.48-6v-2.42h-3.86V120Zm0 3v-2.43h-3.86v2.43Zm0 3v-2.49h-3.86v2.49Zm3.48 0v-8.4h-2.86v8.4ZM706 118.07h2.81v7.58a24 24 0 0 0 2.07-2.08l.33.58a34 34 0 0 1-2.92 2.76l-.4-.49a1.5 1.5 0 0 0 .22-.39 2.6 2.6 0 0 0 .06-.49v-6.85H706Zm1.08-4.55.52-.39c.74.77 1.53 1.64 2.37 2.6l-.51.44c-.88-.98-1.67-1.86-2.46-2.65Zm8.92 11.22a18 18 0 0 0 4.79 2.27l-.33.62a18 18 0 0 1-5-2.47 19.7 19.7 0 0 1-5.18 2.6l-.35-.59a21 21 0 0 0 5-2.43 11.7 11.7 0 0 1-2.88-3.9l.55-.29a11.2 11.2 0 0 0 2.86 3.78 10.2 10.2 0 0 0 2.91-4H711v-.59h8.12v.61a11.1 11.1 0 0 1-3.09 4.33Zm-3.22-11.17h5.44v3a1.15 1.15 0 0 0 .24.85 1.34 1.34 0 0 0 .84.28h1.52l-.14.64a15 15 0 0 1-1.55 0 1.9 1.9 0 0 1-1.24-.41 1.57 1.57 0 0 1-.33-1.16v-2.58h-4.14v1.43a3.93 3.93 0 0 1-.53 1.92 5.3 5.3 0 0 1-1.75 1.44l-.44-.48a4.8 4.8 0 0 0 1.61-1.29 3 3 0 0 0 .48-1.72ZM722.32 118.05h3.17v7.62c.77-.59 1.64-1.31 2.6-2.16l.31.59q-1.68 1.5-3.48 2.91l-.44-.56a1 1 0 0 0 .29-.39 1.9 1.9 0 0 0 .07-.54v-6.85h-2.52Zm1.29-4.53.49-.44c1 1 1.94 1.85 2.67 2.62l-.48.45c-.95-.94-1.84-1.82-2.68-2.63m9 5.61v8.53H732v-8.53h-4.48v-.64H732v-5.85h.67v5.85h4.56v.64ZM741.58 116.22v11.47h-.66v-10.18a23 23 0 0 1-2.28 3.47l-.36-.58a25.4 25.4 0 0 0 4-7.71l.64.21a34 34 0 0 1-1.34 3.32m6.88 9.86h4.25v.65h-9.12v-.65h4.21v-5.63h-4.75v-.63h4.75v-4.94c-1.27.12-2.58.21-3.92.26l-.11-.65a65 65 0 0 0 8.38-.77l.18.62c-1.14.19-2.43.35-3.87.49v5h4.67v.63h-4.67ZM763.05 118.16a23.3 23.3 0 0 0 6.52 1.69l-.2.64a25 25 0 0 1-6.73-1.83l-.28-.14h-.05a29.1 29.1 0 0 1-7.39 2.27l-.23-.6a28.9 28.9 0 0 0 7-2.06 13.6 13.6 0 0 1-3.3-2.63 21 21 0 0 1-2.47 2.12l-.44-.47a16.2 16.2 0 0 0 4.43-4.58l.63.21a10 10 0 0 1-1 1.47h7.85v.56a16.2 16.2 0 0 1-4.34 3.35m-1.74 3.67h6.07c-.08 1.12-.16 2.24-.23 3.36a2.3 2.3 0 0 1-.69 1.64 3.75 3.75 0 0 1-2 .5c-.5 0-1.22 0-2.16-.08l-.05-.64q1.37.11 2.16.09a2.67 2.67 0 0 0 1.52-.35 1.75 1.75 0 0 0 .54-1.22c.07-.67.13-1.57.2-2.72h-5.47a6.27 6.27 0 0 1-1.9 3.35 10.5 10.5 0 0 1-3.85 1.94l-.31-.6a10.3 10.3 0 0 0 3.59-1.73 5.63 5.63 0 0 0 1.82-3h-4.66v-.58h4.77a13 13 0 0 0 .16-1.77h.66a14 14 0 0 1-.17 1.81m1-4a16.4 16.4 0 0 0 4.12-3H759a3 3 0 0 1-.23.24 13.1 13.1 0 0 0 3.57 2.75ZM771.19 127.79a1.84 1.84 0 0 0 .85-1.54h-.08a.55.55 0 0 1-.4-.18.53.53 0 0 1-.16-.39.56.56 0 0 1 .15-.41.5.5 0 0 1 .41-.16.49.49 0 0 1 .42.18 1 1 0 0 1 .18.6 2.85 2.85 0 0 1-.25 1.23 2.37 2.37 0 0 1-.85.93ZM788.74 115.78H793v.64h-3.24v4.44h4v.62h-4v6.15h-.65v-6.15h-5a7.8 7.8 0 0 1-1 3.53 10.4 10.4 0 0 1-2.9 2.78l-.49-.49a9.9 9.9 0 0 0 2.76-2.56 6.9 6.9 0 0 0 1-3.26h-4.26v-.62h4.29v-4.4399999999999995H780v-.64h4.29c-.6-1-1.2-2-1.8-2.8l.59-.24c.72 1 1.37 2 2 3h3a27 27 0 0 0 1.85-3.11l.62.25a25 25 0 0 1-1.81 2.9m.36 5.08v-4.44h-5v4.44ZM798.39 119.16v8.52h-.62v-9.5a20.2 20.2 0 0 1-2.36 5.21l-.39-.58a18.7 18.7 0 0 0 2.66-6.18h-2.35V116h2.44v-3.4h.62v3.4h2.07v.59h-2.07v2.25l.29-.22a23 23 0 0 1 1.93 2.25l-.42.46c-.64-.81-1.19-1.55-1.8-2.17m7.84 4.84.07.08a10.8 10.8 0 0 0 3.64 2.58l-.34.59a11.65 11.65 0 0 1-3.78-2.79 10.8 10.8 0 0 1-1.94-3.91H802v6.18c1-.56 2-1.13 2.89-1.72l.2.57a35 35 0 0 1-3.67 2.13l-.29-.51a1 1 0 0 0 .18-.26 1.3 1.3 0 0 0 .05-.36v-12.94h7.17v6.91h-4a10.4 10.4 0 0 0 1.39 3 33 33 0 0 0 3.07-2.14l.38.44a20.2 20.2 0 0 1-3.14 2.15m1.65-7.14v-2.62H802v2.62Zm0 3.1v-2.51H802V120ZM814.26 121.09v4.82A1.75 1.75 0 0 1 814 127a1.42 1.42 0 0 1-1.12.39c-.3 0-.68 0-1.14-.05l-.08-.63 1.08.06a1.05 1.05 0 0 0 .75-.2 1.12 1.12 0 0 0 .2-.76v-4.52l-2.14.79-.2-.62c.69-.23 1.46-.51 2.34-.83v-3.93h-2.1v-.62h2.1v-3.43h.62v3.43H816v.62h-1.73v3.7l1.65-.74.13.59c-.5.28-1.05.55-1.79.84m3.23-1.52h3.93v-2.27h.6v2.27h4.09v.57H822v2.39h3.09v5.16h-.61v-1h-5.44v1h-.62v-5.16h3v-2.39h-3.94a20.3 20.3 0 0 1-.4 3.76 13.6 13.6 0 0 1-1.56 3.71l-.53-.37a12.8 12.8 0 0 0 1.49-3.52 22 22 0 0 0 .41-4.66v-5.44h8.32v3.6h-7.72zm7.11-2.91v-2.48h-7.11v2.48Zm-.1 9.42v-3h-5.44v3ZM834.73 121.19a15 15 0 0 1-.81 1.63h6.69v3.11a1.7 1.7 0 0 1-.39 1.17 1.65 1.65 0 0 1-1.2.45h-1.14l-.11-.59a10 10 0 0 0 1.11 0 1.18 1.18 0 0 0 .81-.26 1.2 1.2 0 0 0 .28-.85v-2.49h-3.1v3.81h-.61v-3.81h-3v3.83h-.61v-3.83h-3v4.24h-.64v-4.78h4.3a16 16 0 0 0 .82-1.63h-6.38v-.54h14.17v.54Zm.35-5.17v3.78h-.63V116h-5.71v2.24h-.62v-2.74h6.33v-1.41h-5.54v-.5h11.68v.5h-5.51v1.41h6.31v2.65h-.62V116Zm-5.16 1.23h3.35v.44h-3.35Zm0 1.57h3.35v.44h-3.35Zm6.34 0h3.35v.44h-3.35Zm0-1.57h3.33v.44h-3.33ZM843.29 125.05c2.29-1.28 4.38-2.55 6.26-3.83l.25.59q-2.67 1.81-6.15 3.84Zm7.69-6v6.57a1.93 1.93 0 0 1-.45 1.41 2 2 0 0 1-1.47.44h-1.55l-.08-.67c.32 0 .81 0 1.49.07a1.7 1.7 0 0 0 1.09-.29 1.47 1.47 0 0 0 .31-1v-9h-6.78V116h6.78v-3.32h.68V116h6.6v.62H851v1a15 15 0 0 0 1.74 3.53 44 44 0 0 0 3.52-3.07l.47.47a53 53 0 0 1-3.61 3.09 14.9 14.9 0 0 0 4.72 3.84l-.37.61a15.9 15.9 0 0 1-4.35-3.45 14.2 14.2 0 0 1-2.12-3.56Zm-6.31-.59.42-.49q1.44 1.09 2.91 2.31l-.42.5c-1.13-.9-2.1-1.68-2.91-2.29Zm8.25-4.95.46-.38a26 26 0 0 1 2.29 2l-.48.39c-.55-.52-1.31-1.2-2.27-1.98ZM867.37 115.39h6.54v.61h-9.35c0 1.21-.08 2.12-.11 2.73v.52h7.33c-.14 2.93-.23 4.74-.27 5.44a2.72 2.72 0 0 1-.8 1.91 3.18 3.18 0 0 1-2 .56c-1 0-1.71 0-2.26-.08l-.08-.67c.81.07 1.54.11 2.21.11a2.56 2.56 0 0 0 1.61-.41 2.18 2.18 0 0 0 .63-1.55c.07-1.23.15-2.79.24-4.69h-6.7a11.9 11.9 0 0 1-1.27 4.46 12.2 12.2 0 0 1-3.19 3.45l-.49-.52a11.2 11.2 0 0 0 3.22-3.53 12.8 12.8 0 0 0 1.13-4.77c.06-.88.11-1.86.14-3h-4.46v-.62h7.24c-.43-1.15-.77-2-1-2.55l.65-.17c.4 1.06.75 1.96 1.04 2.77M878.41 120.81v5A1.7 1.7 0 0 1 878 127a1.6 1.6 0 0 1-1.1.43h-1.12l-.09-.65h1.08a.94.94 0 0 0 .72-.25 1 1 0 0 0 .26-.78v-4.66c-.95.42-1.69.75-2.2 1l-.23-.6 2.43-1v-3.64h-2.12v-.61h2.12v-3.44h.63v3.44h1.83v.61h-1.83v3.38l1.71-.8.16.57c-.59.22-1.25.52-1.84.81m3.64 2.4a4.9 4.9 0 0 0 1 2 3.5 3.5 0 0 0 1.86 1.09v-5.25h-4.62v-.55H890v.55h-4.55v2.24h3.81v.56h-3.81v2.53h4.74l-.1.57c-1.46 0-2.94 0-4.44-.05a4.4 4.4 0 0 1-2.7-1 4.23 4.23 0 0 1-1.16-1.85 10 10 0 0 1-.37 1 9.2 9.2 0 0 1-1.88 2.54l-.46-.39a9.2 9.2 0 0 0 1.78-2.39 8.6 8.6 0 0 0 .73-3l.61.08c-.04.64-.1 1.05-.15 1.32m6.59-4.36h-7.13v-5.36h7.13Zm-.62-2.94v-1.86h-5.87v1.86Zm0 2.38v-1.86h-5.87v1.86ZM894.73 116.51v11.18h-.66v-10a20 20 0 0 1-2.09 3.2l-.34-.62a22.3 22.3 0 0 0 2.22-3.5 28 28 0 0 0 1.68-4.15l.64.18a34 34 0 0 1-1.45 3.71m8.87 5.07h2.89v.62h-10.67v-.62h2.93v-4.76h-2.16v-.62h2.16v-3.48h.65v3.48h3.6v-3.48h.64v3.48h2.27v.62h-2.31Zm-4.15 1.9.52.36a26.7 26.7 0 0 1-3.51 3.74l-.49-.49a25.4 25.4 0 0 0 3.48-3.61m3.51-1.9v-4.76h-3.56v4.76Zm-.59 2.26.46-.41c.92.9 2 2.1 3.39 3.58l-.48.47a78 78 0 0 0-3.37-3.64M909.24 125.83v1.6h-.63v-12h1.65a27 27 0 0 0 1.09-2.81l.65.15c-.27.8-.62 1.68-1 2.66h2.94v11.79h-.64v-1.44Zm0-5.46h4v-4.26h-4Zm0 4.84h4V121h-4Zm7.51-9.78h4.73l-.21 9.22a2.92 2.92 0 0 1-.62 2 2.47 2.47 0 0 1-1.85.67c-.73 0-1.43 0-2.12-.09l-.08-.69c.88.07 1.57.11 2.07.11a2 2 0 0 0 1.47-.49 2.4 2.4 0 0 0 .49-1.6q.11-4.35.2-8.51h-4.36a23 23 0 0 1-1.54 2.74l-.55-.33a20.7 20.7 0 0 0 2.69-5.81l.62.18c-.23.75-.54 1.61-.94 2.6m-1.15 4 .51-.33c.62.82 1.4 1.88 2.35 3.19l-.54.39c-.63-.92-1.4-2-2.32-3.22ZM934.72 122.35a8.4 8.4 0 0 1-2.68 2.92c1.53.46 3.35 1 5.48 1.75l-.22.59q-2.76-.94-5.93-1.93a21.9 21.9 0 0 1-7.32 2l-.2-.59a23.9 23.9 0 0 0 6.69-1.65q-2.19-.68-4.23-1.23c.51-.56 1-1.19 1.55-1.86h-4.45v-.57h4.87c.58-.8 1-1.46 1.38-2h-4.79v-3.59h3.76v-2h-4.76v-.57h13.88v.57H933v2h3.76v3.59h-6.32c-.42.66-.87 1.32-1.36 2h9.1v.57Zm-6.11-3.12v-2.47h-3.16v2.47Zm5.34 3.12h-5.33c-.54.71-1 1.24-1.27 1.58 1 .28 2.3.65 3.9 1.12a7.9 7.9 0 0 0 2.75-2.7Zm-1.6-6.16v-2h-3.1v2Zm0 3v-2.47h-3.1v2.47Zm3.78 0v-2.47H933v2.47ZM939 125.05a86 86 0 0 0 6.26-3.83l.25.59q-2.67 1.81-6.15 3.84Zm7.68-6v6.57a2 2 0 0 1-.44 1.41 2 2 0 0 1-1.47.44h-1.55l-.08-.67c.31 0 .81 0 1.48.07a1.72 1.72 0 0 0 1.1-.29 1.52 1.52 0 0 0 .31-1v-9h-6.78V116H946v-3.32h.65V116h6.61v.62h-6.61v1a15 15 0 0 0 1.75 3.53 44 44 0 0 0 3.52-3.07l.47.47q-1.75 1.64-3.61 3.09a14.8 14.8 0 0 0 4.72 3.84l-.38.61a16 16 0 0 1-4.34-3.45 14.5 14.5 0 0 1-2.13-3.56Zm-6.31-.59.43-.49q1.44 1.09 2.91 2.31l-.43.5c-1.15-.9-2.12-1.68-2.94-2.29Zm8.26-4.95.45-.38a26 26 0 0 1 2.29 2l-.47.39c-.59-.52-1.34-1.2-2.3-1.98ZM957.65 124.41a5 5 0 0 0 1.89 1.49 6.5 6.5 0 0 0 2.57.52c2.39.06 4.86.06 7.44 0l-.12.68h-7.32a6 6 0 0 1-4.79-2.08c-.71.71-1.44 1.48-2.21 2.32l-.4-.54c.73-.78 1.49-1.57 2.3-2.35v-5.48h-2.22v-.64h2.86Zm-1.9-11 .54-.36c.73.9 1.46 1.81 2.17 2.71l-.52.38q-.94-1.3-2.19-2.68Zm10.77 7.29v4.75h-.63v-4.75h-3.63a7.8 7.8 0 0 1-.61 2.56 8.8 8.8 0 0 1-1.68 2.27l-.52-.42a6.22 6.22 0 0 0 2.15-4.41h-2.68v-.62h2.73v-3.6799999999999997h-2.32v-.61h2.32v-3.05h.64v3.05h3.58v-3.07h.63v3.07h2.32v.61h-2.32v3.73h2.75v.62Zm-.63-.62v-3.68h-3.58v3.73ZM973.82 119.31v8.32h-.63v-7.5a27 27 0 0 1-2.34 2.46l-.36-.55a21.6 21.6 0 0 0 4.28-5.31l.54.36a24 24 0 0 1-1.49 2.22m.89-6.69.55.38a19.4 19.4 0 0 1-4.07 4.36l-.37-.55a17.1 17.1 0 0 0 3.89-4.19m7.58 6.69v5.92a2.18 2.18 0 0 1-.49 1.61 2.06 2.06 0 0 1-1.52.49 12 12 0 0 1-1.86-.06l-.09-.66a16 16 0 0 0 1.82.09 1.56 1.56 0 0 0 1.14-.36 1.76 1.76 0 0 0 .33-1.2v-5.83H976v-.62h9.36v.62ZM977 114h7.48v.6H977ZM986.85 118.07h2.81v7.58a26 26 0 0 0 2.08-2.08l.32.58a33 33 0 0 1-2.92 2.76l-.39-.49a1.8 1.8 0 0 0 .25-.42 2.6 2.6 0 0 0 .06-.49v-6.85h-2.17Zm1.08-4.55.52-.39c.74.77 1.53 1.64 2.37 2.6l-.5.44c-.84-.98-1.64-1.86-2.39-2.65m8.94 11.22a18.2 18.2 0 0 0 4.79 2.27l-.33.62a18 18 0 0 1-5-2.47 19.7 19.7 0 0 1-5.18 2.6l-.34-.59a20.8 20.8 0 0 0 5-2.43 12 12 0 0 1-2.88-3.9l.56-.29a11 11 0 0 0 2.86 3.78 10.4 10.4 0 0 0 2.91-4h-7.41v-.59h8.15v.61a11.2 11.2 0 0 1-3.09 4.33Zm-3.22-11.17h5.44v3a1.15 1.15 0 0 0 .24.85 1.37 1.37 0 0 0 .84.28h1.52l-.13.64a15 15 0 0 1-1.55 0 1.94 1.94 0 0 1-1.25-.41 1.57 1.57 0 0 1-.32-1.16v-2.58h-4.13v1.43a3.94 3.94 0 0 1-.54 1.92A5.16 5.16 0 0 1 992 119l-.44-.48a4.9 4.9 0 0 0 1.62-1.29 3 3 0 0 0 .47-1.72ZM1003.21 118.05h3.17v7.62c.78-.59 1.64-1.31 2.6-2.16l.31.59q-1.68 1.5-3.48 2.91l-.44-.56a1 1 0 0 0 .29-.39 1.6 1.6 0 0 0 .07-.54v-6.85h-2.52Zm1.29-4.53.49-.44c1 1 1.94 1.85 2.67 2.62l-.48.45c-.94-.94-1.84-1.82-2.68-2.63m9 5.61v8.53h-.67v-8.53h-4.48v-.64h4.48v-5.85h.67v5.85h4.56v.64ZM1024.66 121.83v5.86h-.66v-5.86h-2.64v4.57h-.63v-5.15h3.27V119h-4.43v-.57h4.43v-2.54h-2.56q-.37.84-.9 1.77l-.54-.26a14.7 14.7 0 0 0 1.65-4l.59.14q-.3 1.08-.57 1.8h2.33v-2.63h.62v2.63h3.44v.57h-3.44v2.54h4v.55h-4v2.25h3.38v3.63a1.48 1.48 0 0 1-.33 1 1.44 1.44 0 0 1-1 .38h-1.05l-.13-.58h1a.84.84 0 0 0 .64-.22.86.86 0 0 0 .19-.63v-3Zm5.2-7.29h.61v9.25h-.61Zm2.85-1.74h.62v12.61a2.4 2.4 0 0 1-.41 1.53 2.06 2.06 0 0 1-1.44.49c-.5 0-1 0-1.45-.06l-.15-.66c.72.05 1.21.07 1.47.07a1.54 1.54 0 0 0 1.08-.33 1.8 1.8 0 0 0 .28-1.13ZM1038.57 116.3v11.34h-.64v-10a24.3 24.3 0 0 1-2.17 3.46l-.39-.57a27.4 27.4 0 0 0 3.92-7.84l.62.22c-.44 1.24-.91 2.38-1.34 3.39m4.38-.83h7.34v.62h-5.61v3.27h4.69v.6h-4.69v3.3h5.14v.62h-5.14v3.8h-.68v-11.59h-1.37a24 24 0 0 1-2.36 3.81l-.5-.43a23.3 23.3 0 0 0 3.58-6.83l.62.18c-.26.84-.6 1.72-.97 2.65ZM1053.63 127.45a1.6 1.6 0 0 1-1.19-.49 1.63 1.63 0 0 1-.49-1.2 1.6 1.6 0 0 1 .49-1.19 1.57 1.57 0 0 1 1.19-.51 1.62 1.62 0 0 1 1.21.51 1.6 1.6 0 0 1 .49 1.19 1.67 1.67 0 0 1-1.7 1.69m0-.48a1.14 1.14 0 0 0 1.21-1.21 1.14 1.14 0 0 0-1.21-1.21 1.15 1.15 0 0 0-.85.33 1.21 1.21 0 0 0 .85 2.09M1064.62 116.12a12.4 12.4 0 0 1 .8 3.22 38 38 0 0 1 .21 4.28 6.7 6.7 0 0 1-.45 2.88 2 2 0 0 1-1.8.88h-1.21l-.11-.65h1.22a1.41 1.41 0 0 0 1.34-.64 5.54 5.54 0 0 0 .39-2.49c0-1.49 0-2.71-.14-3.66a14.2 14.2 0 0 1-3.16 3.63l-.34-.55a12.8 12.8 0 0 0 3.38-4 13.5 13.5 0 0 0-.62-2.41 21 21 0 0 1-2.42 1.92l-.34-.52a19 19 0 0 0 2.5-2 9 9 0 0 0-1.9-2.58l.46-.41a9.2 9.2 0 0 1 1.91 2.54 26 26 0 0 0 2-2.36l.45.38a22 22 0 0 1-2.17 2.54m10.35 10q-4.6.49-8.58.69l-.13-.62c1.34-.06 2.87-.15 4.61-.28v-4.4h-3.54v-5.75h3.54v-3.17h.63v3.17h3.5v5.75h-3.53v4.35l3.21-.31c-.29-.64-.66-1.42-1.12-2.32l.54-.23q1.24 2.53 2 4.27l-.55.26c-.2-.53-.41-.98-.55-1.36Zm-4.1-5.18v-4.54h-2.93v4.6Zm3.56 0v-4.54h-2.93v4.6ZM1086.18 126h6v.62h-14.5V126h7.73a77 77 0 0 0 3.48-8l.67.28c-1.17 2.94-2.3 5.51-3.38 7.72m-.33-9.95h5.56v.62h-12.91V116h6.65a34 34 0 0 0-1.36-3.19l.64-.23c.57 1.42 1.08 2.53 1.42 3.42Zm-5.56 2.39.64-.27q1.62 3.65 2.62 6l-.64.28q-1.4-3.45-2.62-6.02ZM1098.06 114.31h6.68v.59l-2.76 2.69h4v6.64h-.65v-6h-9.09v6h-.65v-6.64h5.56c1.22-1.22 2.12-2.11 2.71-2.68h-6.24a20.6 20.6 0 0 1-3.81 3.43l-.43-.5a18 18 0 0 0 5.17-5.27l.65.22c-.42.55-.78 1.06-1.14 1.52m2.56 9q3 1.56 6.83 3.76l-.29.6q-4.26-2.44-6.8-3.79-1.27 2.54-6.57 3.88l-.28-.63a12.16 12.16 0 0 0 5.43-2.5 4.5 4.5 0 0 0 1.06-1.55 6.4 6.4 0 0 0 .38-1.8q0-.61.06-1.86h.64c0 .51 0 1.16-.08 1.94a6.6 6.6 0 0 1-.38 1.92ZM1116.79 118.57h7v.56h-14.51v-.56h6.9V117h-5.23v-.54h5.23v-1.66h-6.05v-.54h6.05v-1.62h.65v1.62h6.06v.54h-6.06v1.62h5.26v.58h-5.26Zm-.28 5.71q2.82 1.13 6.72 2.84l-.26.57q-3.88-1.69-6.75-2.87c-.82 1.3-3 2.27-6.55 2.89l-.25-.59a16.1 16.1 0 0 0 4.9-1.45 3.33 3.33 0 0 0 1.78-2.29c0-.35.07-.77.1-1.26h.66l-.12 1.31a4.3 4.3 0 0 1-.23.85m-5.1-3.5h10.12V125h-.64v-3.65h-8.84V125h-.64ZM1131.22 119h2.62v.55h-8.45V119h2.66c-.23-.67-.57-1.54-1-2.63l.56-.18c.35.8.71 1.74 1.08 2.81h1.94c.41-1 .79-1.94 1.13-2.93l.6.18c-.43 1.01-.8 1.93-1.14 2.75m-1-4.19h3.16v.56H1126v-.56h3.64a18 18 0 0 0-.67-2l.62-.15q.29.89.65 2.1Zm1.91 11.48h-4.87v1.14h-.62v-5.82h6.11v5.69h-.62Zm0-.56v-3.54h-4.87v3.54Zm2.68-11.9h5v.59l-1 2.42c-.44 1-.76 1.78-1 2.37a5.34 5.34 0 0 1 2.14 4 2.7 2.7 0 0 1-.52 1.8 2.43 2.43 0 0 1-1.74.58 9 9 0 0 1-1.4-.08v-.64a8.4 8.4 0 0 0 1.36.1 1.72 1.72 0 0 0 1.37-.47 2.1 2.1 0 0 0 .36-1.33 5 5 0 0 0-2.22-3.79c.88-2.16 1.55-3.79 2-4.92h-3.66v13.32h-.64ZM1146.33 112.93l.61.3a17.1 17.1 0 0 1-2.32 3.77 16.1 16.1 0 0 1-3.3 3l-.38-.57a14.9 14.9 0 0 0 5.39-6.5m.45 7.1q-.06.45-.15 1.44a7.53 7.53 0 0 1-1.36 3.56 10.6 10.6 0 0 1-3.38 2.63l-.46-.51a10.1 10.1 0 0 0 3.22-2.45 6.8 6.8 0 0 0 1.31-3.28c0-.34.1-.8.16-1.39h-2.74v-.61h9.26c-.1 2.06-.18 3.91-.24 5.54a2.26 2.26 0 0 1-.66 1.67 2.58 2.58 0 0 1-1.81.56c-.73 0-1.35 0-1.86-.07l-.13-.65c.68 0 1.32.08 1.92.08a2.17 2.17 0 0 0 1.39-.41 1.73 1.73 0 0 0 .49-1.27c.12-2.33.2-3.94.23-4.84Zm3-7 .61-.24a13 13 0 0 0 2.19 3.77 11.6 11.6 0 0 0 3.23 2.72l-.4.62a13.7 13.7 0 0 1-3.37-2.91 14.6 14.6 0 0 1-2.31-3.99ZM521.71 142.07h2.81v7.58a26 26 0 0 0 2.08-2.08l.32.58a33 33 0 0 1-2.92 2.76l-.39-.49a1.8 1.8 0 0 0 .21-.39 2.6 2.6 0 0 0 .06-.49v-6.85h-2.17Zm1.08-4.55.52-.39c.74.77 1.53 1.64 2.37 2.6l-.5.44c-.84-.98-1.64-1.86-2.39-2.65m8.94 11.22a18.2 18.2 0 0 0 4.79 2.27l-.33.62a18 18 0 0 1-5-2.47 19.7 19.7 0 0 1-5.18 2.6l-.34-.59a20.8 20.8 0 0 0 5-2.43 12 12 0 0 1-2.88-3.9l.56-.29a11 11 0 0 0 2.86 3.78 10.4 10.4 0 0 0 2.91-4h-7.41v-.59h8.13v.61a11.2 11.2 0 0 1-3.09 4.33Zm-3.22-11.17H534v3a1.1 1.1 0 0 0 .25.85 1.3 1.3 0 0 0 .83.28h1.52l-.13.64a15 15 0 0 1-1.55 0 1.94 1.94 0 0 1-1.25-.41 1.57 1.57 0 0 1-.32-1.16v-2.58h-4.13v1.43a3.83 3.83 0 0 1-.54 1.92 5.2 5.2 0 0 1-1.75 1.44l-.44-.48a4.9 4.9 0 0 0 1.51-1.3 3 3 0 0 0 .47-1.72ZM538.07 142.05h3.17v7.62c.78-.59 1.64-1.31 2.6-2.16l.31.59q-1.68 1.5-3.48 2.91l-.44-.56a1 1 0 0 0 .29-.39 1.6 1.6 0 0 0 .07-.54v-6.85h-2.52Zm1.29-4.53.49-.44c1 1 1.94 1.85 2.67 2.62l-.48.45c-.94-.94-1.84-1.82-2.68-2.63m9 5.61v8.53h-.67v-8.53h-4.48v-.64h4.48v-5.85h.67v5.85h4.56v.64ZM556.27 147.61q1.47-.48 2.19-.69l.13.62q-2.57.92-5.21 1.57l-.18-.67c1.06-.27 1.87-.49 2.43-.65v-8.88h-2.17v-.62h4.87v.62h-2.06Zm7-.35c1.93 1.49 3.55 2.74 4.84 3.78l-.39.52c-1.79-1.46-3.35-2.69-4.68-3.71a5.65 5.65 0 0 1-1.58 2.09 13 13 0 0 1-3.07 1.79l-.33-.58a9.4 9.4 0 0 0 3.81-2.51 5.6 5.6 0 0 0 1.06-3.37c0-.74 0-1.55.05-2.42h.6v2.44a7.6 7.6 0 0 1-.35 1.97Zm.28-8.94c-.26 1.05-.49 1.9-.68 2.55h4V148h-.63v-6.52h-6V148h-.62v-7.15h2.52a25 25 0 0 0 .7-2.55h-3.94v-.6h9.1v.6ZM580.62 150.22h-9.27v1.42h-.65v-13.89h10.59v13.89h-.67Zm0-8.6v-3.25h-9.27v3.25Zm0 3.93v-3.32h-9.27v3.32Zm0 4v-3.45h-9.27v3.45ZM585.41 151.79a1.82 1.82 0 0 0 .85-1.54h-.08a.54.54 0 0 1-.39-.18.54.54 0 0 1-.17-.39.56.56 0 0 1 .15-.41.51.51 0 0 1 .41-.16.48.48 0 0 1 .42.18 1 1 0 0 1 .18.6 3 3 0 0 1-.24 1.23 2.45 2.45 0 0 1-.85.93ZM597.34 149.26h-2.06v1.31h-.59v-6.87a16 16 0 0 1-1.34 2.27l-.38-.49a18 18 0 0 0 2.76-6.76h-2.28v-.56h5.19v.56h-2.28a19.4 19.4 0 0 1-1.18 3.9h2.74v7.44h-.58Zm0-.57v-5.48h-2.06v5.48Zm9.07-1.05h-2.78v3.22H603v-3.22h-2.87a7.44 7.44 0 0 1-1.49 4.07l-.56-.36a7 7 0 0 0 1.25-2.48 18 18 0 0 0 .27-3.6V141c-.26.3-.59.65-1 1l-.41-.41a16.9 16.9 0 0 0 3.64-5.07l.63.18c-.24.51-.51 1-.79 1.47H606v.54l-1.64 2.13H607v9a1.73 1.73 0 0 1-.36 1.21 1.47 1.47 0 0 1-1.08.34h-1l-.1-.61h1a1.24 1.24 0 0 0 .74-.22 1.27 1.27 0 0 0 .21-.81Zm-5-8.84a19 19 0 0 1-1.62 2.11h3.92l1.59-2.11Zm1.66 8.28v-2.51h-2.79v2.51Zm0-5.59h-2.79V144H603Zm3.39 2.52v-2.52h-2.78V144Zm0 3.07v-2.51h-2.78v2.51ZM611.9 140.56v11.1h-.62v-9.74a19.7 19.7 0 0 1-1.95 3.19l-.36-.58a22.3 22.3 0 0 0 2.14-3.74 29.6 29.6 0 0 0 1.52-4.13l.61.19a41 41 0 0 1-1.34 3.71m7.17 4.84a11.6 11.6 0 0 0 1.83 2.32 14.7 14.7 0 0 0 3 2.19l-.38.57a14 14 0 0 1-3.09-2.35 11 11 0 0 1-1.76-2.37v5.92H618v-5.87a12.4 12.4 0 0 1-1.81 2.37 17 17 0 0 1-3.14 2.43l-.36-.55a16.6 16.6 0 0 0 3.09-2.32 13 13 0 0 0 1.88-2.34h-4.46v-.6h4.8v-2.37h-3.53v-4.79h7.78v4.79h-3.55v2.37h5v.6Zm2.6-3.58v-3.58h-6.52v3.58ZM628.42 145v5a1.46 1.46 0 0 1-.36 1.07 1.5 1.5 0 0 1-1.1.36h-1.12l-.13-.66c.56 0 .94.07 1.14.07a1.6 1.6 0 0 0 .74-.21 1 1 0 0 0 .21-.69v-4.64l-2.29.9-.2-.63c.64-.23 1.46-.56 2.49-1v-3.89h-2.22v-.59h2.22v-3.4h.62v3.4h1.72v.59h-1.72v3.65l1.65-.72.15.58Zm9.82-1a9 9 0 0 1-2.19 4.51q2 1.19 3.91 2.41l-.33.59q-2.37-1.53-4.07-2.52a14.6 14.6 0 0 1-5.25 2.66l-.26-.59a14.2 14.2 0 0 0 4.9-2.41c-1.23-.73-2.31-1.35-3.25-1.85.54-1.07 1-2 1.29-2.83h-2.45v-.59h2.7q.52-1.35.93-2.76l.64.16c-.26.82-.56 1.69-.89 2.6h6.22v.62Zm-2.24-5h3.57v2.61h-.61v-2h-7.25v2.16H631V139h4.22a22 22 0 0 0-1.16-2.14l.62-.18A21 21 0 0 1 636 139m1.64 5h-3.94q-.52 1.28-1.14 2.58c.67.35 1.65.9 2.92 1.64a.7.7 0 0 0 .12-.12 8.3 8.3 0 0 0 1.99-4.1ZM646.19 148.9h-3.34v1.67h-.63v-12.51h4.57v12.24h-.6Zm0-5.69v-4.56h-3.34v4.56Zm0 5.1v-4.51h-3.34v4.51Zm7.57-7.47v8.3a1.84 1.84 0 0 1-2.08 2.19 12 12 0 0 1-2.09-.08l-.08-.67a17 17 0 0 0 2 .1 2 2 0 0 0 1.23-.36 1.88 1.88 0 0 0 .36-1.29v-8.19h-5.44v-.6h5.44v-3.4h.64v3.4H656v.6Zm-5.36 2.4.52-.32c1 1.42 1.7 2.55 2.22 3.38l-.52.34c-.62-.98-1.35-2.11-2.22-3.4M665.16 147.93a18.9 18.9 0 0 0 6.77 3l-.31.67a19 19 0 0 1-7-3.17 14.8 14.8 0 0 1-3 1.85 30 30 0 0 1-4 1.45l-.27-.63a19.7 19.7 0 0 0 6.81-3.11 13.7 13.7 0 0 1-2.94-4l.57-.29a12.8 12.8 0 0 0 2.88 3.89 12.25 12.25 0 0 0 2.78-4l.59.28a11.9 11.9 0 0 1-2.88 4.06m.3-8.79h6.13v.64h-13.93v-.64h7.06a23 23 0 0 0-1.13-2.37l.67-.21q.54 1.07 1.2 2.58m-3 1.68.48.46a30.5 30.5 0 0 1-4.63 3.71l-.41-.54a27 27 0 0 0 4.53-3.63Zm3.89.51.43-.49c.79.55 1.58 1.1 2.35 1.67s1.67 1.23 2.27 1.71l-.41.56c-1.49-1.13-2.99-2.28-4.67-3.45ZM676.46 140.5v11.13h-.66v-9.91a21.7 21.7 0 0 1-2.26 3.34l-.35-.62a25.4 25.4 0 0 0 4.11-7.77l.66.23a32 32 0 0 1-1.5 3.6m9.08.63v8a2.63 2.63 0 0 1-.41 1.63 2.05 2.05 0 0 1-1.68.61c-.78 0-1.47 0-2.06-.05l-.1-.69 2 .09a1.75 1.75 0 0 0 1.23-.36 1.93 1.93 0 0 0 .34-1.33v-7.93H678v-.63h6.85v-3.66h.67v3.66h2.52v.63Zm-6.6 2.31.52-.34q1.29 1.59 2.76 3.71l-.54.37c-1.15-1.6-2.07-2.85-2.74-3.74M698.87 139.78h4.25v.64h-3.24v4.44h4v.62h-4v6.15h-.65v-6.15h-5a7.6 7.6 0 0 1-1 3.53 10.2 10.2 0 0 1-2.89 2.78l-.49-.49a9.9 9.9 0 0 0 2.76-2.56 6.9 6.9 0 0 0 1-3.26h-4.31v-.62h4.3v-4.4399999999999995h-3.5v-.64h4.28c-.6-1-1.19-2-1.79-2.8l.58-.24c.72 1 1.38 2 2 3h3a27 27 0 0 0 1.85-3.11l.62.25a25 25 0 0 1-1.77 2.9m.36 5.08v-4.44h-5v4.44ZM708.52 143.16v8.52h-.62v-9.5a20.2 20.2 0 0 1-2.36 5.21l-.39-.58a18.7 18.7 0 0 0 2.66-6.18h-2.35V140h2.44v-3.4h.62v3.4h2.07v.59h-2.07v2.25l.29-.22a25 25 0 0 1 1.93 2.25l-.43.46c-.63-.81-1.23-1.55-1.79-2.17m7.84 4.84.07.08a10.8 10.8 0 0 0 3.64 2.58l-.34.59a11.65 11.65 0 0 1-3.78-2.79 10.7 10.7 0 0 1-1.94-3.91h-1.91v6.18c1-.56 2-1.13 2.89-1.72l.2.57a35 35 0 0 1-3.67 2.13l-.29-.51a1 1 0 0 0 .18-.26 1.3 1.3 0 0 0 .05-.36v-12.94h7.17v6.91h-4a10.4 10.4 0 0 0 1.39 3 35 35 0 0 0 3.07-2.14l.38.44a20.2 20.2 0 0 1-3.11 2.15m1.65-7.14v-2.62h-5.91v2.62Zm0 3.1v-2.51h-5.91V144ZM724.39 145.09v4.82a1.75 1.75 0 0 1-.31 1.13 1.42 1.42 0 0 1-1.12.39c-.3 0-.68 0-1.14-.05l-.08-.63 1.08.06a1.05 1.05 0 0 0 .75-.2 1.12 1.12 0 0 0 .19-.76v-4.52c-.61.23-1.32.5-2.14.79l-.19-.62c.68-.23 1.46-.51 2.33-.83v-3.93h-2.09v-.62h2.09v-3.43h.63v3.43h1.73v.62h-1.73v3.7l1.65-.74.13.59c-.49.24-1.09.51-1.78.8m3.23-1.52h3.92v-2.27h.61v2.27h4.09v.57h-4.09v2.39h3.09v5.16h-.61v-1h-5.44v1h-.62v-5.16h3v-2.39h-3.93a20.3 20.3 0 0 1-.4 3.76 13.3 13.3 0 0 1-1.57 3.71l-.52-.37a12.8 12.8 0 0 0 1.49-3.52 22 22 0 0 0 .41-4.66v-5.44h8.32v3.6h-7.72v2.35Zm7.11-2.91v-2.48h-7.11v2.48Zm-.1 9.42v-3h-5.44v3ZM746.5 148.16a18.9 18.9 0 0 0 5.6 2.72l-.32.65a18.9 18.9 0 0 1-5.82-2.94 22.8 22.8 0 0 1-6.08 3.07l-.35-.6a21.8 21.8 0 0 0 5.9-2.91 13 13 0 0 1-3.52-5.2l.59-.24a11.9 11.9 0 0 0 3.39 5l.09.08a.5.5 0 0 0 .13-.12 12.26 12.26 0 0 0 3.5-5.11h-9.3a21.6 21.6 0 0 1-.51 5.24 11.5 11.5 0 0 1-1.94 3.89l-.54-.44a11.1 11.1 0 0 0 1.85-3.64 20.7 20.7 0 0 0 .49-5v-4.43a80 80 0 0 0 11.08-.67l.29.63a83 83 0 0 1-10.72.67v3.17h10v.62a13.6 13.6 0 0 1-3.66 5.51ZM754.94 139.29h2.83v.54l-1 2.86-.56-.15 1-2.7h-2.46a19.3 19.3 0 0 1-1.57 3.49l-.42-.46a23.4 23.4 0 0 0 2.24-6.18l.62.13c-.2.83-.42 1.65-.68 2.47m-.1 3h.61v7.57a27 27 0 0 0 2-2l.28.54a38 38 0 0 1-2.77 2.76l-.4-.47a2.3 2.3 0 0 0 .26-.41 3 3 0 0 0 .06-.55Zm7.73 6.2c1.89 1 3.5 1.82 4.82 2.6l-.27.54q-2.31-1.38-4.79-2.65a4.57 4.57 0 0 1-1.67 1.62 11 11 0 0 1-2.94 1.11l-.23-.56a10.1 10.1 0 0 0 3.2-1.29 3.6 3.6 0 0 0 1.39-1.8 6.6 6.6 0 0 0 .28-1.86h.64a6.9 6.9 0 0 1-.29 2 1.4 1.4 0 0 1-.14.26Zm.33-10.35h3.6v3.06h-3.6v1.63h4.76v.54h-10v-.54h4.64v-1.63h-3.56v-3.06h3.56v-1.5h.62Zm-4 6.75h7.45V149h-.62v-3.63h-6.23V149h-.6Zm3.4-4.23v-2h-3v2Zm3.63 0v-2h-3v2ZM772.07 148.41a5 5 0 0 0 1.9 1.49 6.5 6.5 0 0 0 2.56.52q3.59.09 7.44 0l-.12.68h-7.32a6 6 0 0 1-4.79-2.08c-.71.71-1.44 1.48-2.2 2.32l-.41-.54c.73-.78 1.5-1.57 2.3-2.35v-5.48h-2.22v-.64h2.86Zm-1.9-10.95.54-.36 2.18 2.71-.53.38q-.99-1.35-2.19-2.73m10.83 7.29v4.75h-.64v-4.75h-3.63a7.8 7.8 0 0 1-.61 2.56 8.8 8.8 0 0 1-1.68 2.27l-.52-.42a7.5 7.5 0 0 0 1.55-2 7.4 7.4 0 0 0 .61-2.38h-2.69v-.62h2.73v-3.76h-2.32v-.61h2.32v-3h.64v3h3.58v-3.07h.66v3.07h2.32v.61H781v3.73h2.74v.62Zm-.64-.62v-3.73h-3.58v3.73ZM788.25 143.31v8.32h-.64v-7.5a27 27 0 0 1-2.34 2.46l-.36-.55a21.4 21.4 0 0 0 4.28-5.31l.54.36a24 24 0 0 1-1.48 2.22m.88-6.69.55.38a19.2 19.2 0 0 1-4.07 4.36l-.37-.55a17.1 17.1 0 0 0 3.89-4.19m7.58 6.69v5.92a2.18 2.18 0 0 1-.49 1.61 2.06 2.06 0 0 1-1.52.49 12 12 0 0 1-1.86-.06l-.08-.66a16 16 0 0 0 1.81.09 1.54 1.54 0 0 0 1.14-.36 1.76 1.76 0 0 0 .33-1.2v-5.83h-5.67v-.62h9.37v.62ZM791.4 138h7.49v.6h-7.49ZM801.21 141.76h2.42v7.29c.53-.59 1-1.18 1.48-1.77l.26.59c-.77 1-1.49 1.84-2.18 2.56l-.42-.5a1.34 1.34 0 0 0 .26-.79v-6.8h-1.82Zm.86-4.61.5-.35c.6.74 1.28 1.63 2 2.65l-.51.38c-.54-.83-1.22-1.71-1.99-2.68m4.87 1v5.58a23.2 23.2 0 0 1-.35 4.64 11.2 11.2 0 0 1-1.4 3.32l-.54-.35a10.9 10.9 0 0 0 1.35-3.15 22.4 22.4 0 0 0 .33-4.48v-6.11h8.73v11.8a2.23 2.23 0 0 1-.44 1.57 2.06 2.06 0 0 1-1.41.42c-.25 0-.74 0-1.49-.06l-.13-.62c.61 0 1.11.06 1.49.06a1.5 1.5 0 0 0 1.06-.29 1.6 1.6 0 0 0 .31-1.13v-11.2ZM811 143h2.66v.54h-5.88V143h2.64v-2h-2.32v-.54h2.32v-1.72h.58v1.72h2.33v.54H811Zm1.81 6h-4.23v-3.66h4.23Zm-.57-.52v-2.62h-3.09v2.62ZM824.34 142.44h-2.75v.69l.21-.33c1.05.56 2 1.06 2.75 1.52l-.26.48a48 48 0 0 0-2.7-1.52v2H821v-2.52a6.6 6.6 0 0 1-1.27 1.27 12.8 12.8 0 0 1-2.32 1.47l-.3-.5a10.9 10.9 0 0 0 3.6-2.57h-2.48v-2.73H821v-1.19h-3.46V138H821v-1.4h.59v1.4H825v.51h-3.43v1.19h2.75Zm.65 8.13h6.82v.53h-14.63v-.53h2.88v-2.91h.63v2.91h3.66v-4.09h-6.16v-.54h12.67v.54H825v1.72h5v.5h-5ZM821 142v-1.76h-2.24V142Zm2.8 0v-1.76h-2.21V142Zm5 1a11.9 11.9 0 0 0 3.11 1.88l-.31.57a13.1 13.1 0 0 1-3.22-2 11.6 11.6 0 0 1-3.22 2l-.33-.5a11.9 11.9 0 0 0 3.12-1.87 8 8 0 0 1-1.67-2.79 13 13 0 0 1-1 1.52l-.43-.39a18 18 0 0 0 1.41-2.23 17 17 0 0 0 1-2.4l.6.13c-.2.62-.43 1.22-.68 1.8h4.64v.52h-1.19a8.1 8.1 0 0 1-1.65 3.71Zm-.44-.41.07-.06a7 7 0 0 0 1.52-3.37h-3.09c-.07.14-.14.29-.22.43a7.2 7.2 0 0 0 1.67 2.93ZM837.19 144.35v7.34h-.6v-8.48a18.2 18.2 0 0 1-3.22 5.33L833 148a17 17 0 0 0 3.44-5.86h-3.16v-.6h3.34v-3.11l-2.83.23-.12-.59a52 52 0 0 0 6-.65l.17.59c-.56.09-1.44.21-2.65.36v3.17h3v.6h-3V144l.25-.22c1.13 1.18 2 2.06 2.51 2.65l-.42.47q-1.45-1.6-2.34-2.55m3.94-5.93h5.62v12.64h-.63v-1.49h-4.37v1.58h-.62Zm5 10.53V139h-4.37v10ZM851.94 140.32v11.34h-.64v-10a24 24 0 0 1-2.14 3.39l-.38-.61a21.2 21.2 0 0 0 2.21-3.59 25 25 0 0 0 1.63-4.12l.64.21a36 36 0 0 1-1.32 3.38m5.42.8h6.08v.59h-6.09a16.3 16.3 0 0 1-1.11 5.59 13.4 13.4 0 0 1-3.19 4.36l-.51-.47a12.65 12.65 0 0 0 3.06-4.12 15.2 15.2 0 0 0 1.09-5.36h-3.41v-.59h3.43v-4.39h.63v4.05a4 4 0 0 0 .02.34m1.18 1.4h.64v6.54a1.7 1.7 0 0 0 .23 1.05 1.38 1.38 0 0 0 .91.34h1.26a1.57 1.57 0 0 0 1-.33 1.85 1.85 0 0 0 .39-1c.07-.67.13-1.26.18-1.78l.59.21c-.05.58-.11 1.16-.18 1.76a2.22 2.22 0 0 1-.56 1.29 2.15 2.15 0 0 1-1.39.46h-1.32a1.8 1.8 0 0 1-1.34-.49 2.2 2.2 0 0 1-.38-1.45Zm1-5 .54-.26q1.11 1.7 1.59 2.52l-.57.31c-.45-.87-.97-1.73-1.55-2.6ZM867.74 140.64v11h-.66v-9.91a26.5 26.5 0 0 1-2.56 3.47l-.38-.61a23 23 0 0 0 2.63-3.64 26 26 0 0 0 2-4.28l.64.24a28 28 0 0 1-1.67 3.73m5.11 4v4a1.6 1.6 0 0 0 .43 1.27 2 2 0 0 0 1.34.46 7 7 0 0 0 1.6 0 3.1 3.1 0 0 0 1.39-.36 1.9 1.9 0 0 0 .52-1.21q.14-.86.21-2l.64.2c-.05.71-.13 1.39-.23 2.06a2.3 2.3 0 0 1-.72 1.5 3.8 3.8 0 0 1-1.78.46 10 10 0 0 1-1.71 0 2.8 2.8 0 0 1-1.77-.64 2.2 2.2 0 0 1-.57-1.68v-3.6a37 37 0 0 1-3.11 2l-.36-.57c1.12-.65 2.28-1.4 3.47-2.26v-7.47h.65v7a31.4 31.4 0 0 0 5-4.88l.53.45a34 34 0 0 1-5.53 5.26ZM883.05 151.45a1.6 1.6 0 0 1-1.19-.49 1.63 1.63 0 0 1-.49-1.2 1.71 1.71 0 0 1 1.68-1.7 1.62 1.62 0 0 1 1.21.51 1.6 1.6 0 0 1 .49 1.19 1.67 1.67 0 0 1-1.7 1.69m0-.48a1.23 1.23 0 0 0 .87-.32 1.2 1.2 0 0 0 .34-.89 1.18 1.18 0 0 0-.34-.89 1.2 1.2 0 0 0-.87-.32 1.15 1.15 0 0 0-.85.33 1.32 1.32 0 0 0 0 1.77 1.22 1.22 0 0 0 .85.35ZM532.4 179.77a7.2 7.2 0 0 0 .91 1.8c.42.56.81.83 1.18.82a.65.65 0 0 0 .42-.18 1.7 1.7 0 0 0 .35-.62 18 18 0 0 0 .45-2.11l.89.34a17 17 0 0 1-.56 2.27c-.3.91-.81 1.37-1.52 1.39a2.21 2.21 0 0 1-1.65-.83 7 7 0 0 1-1.21-2 19 19 0 0 1-3.2 2.81l-.64-.74a17.4 17.4 0 0 0 3.48-3.07 17 17 0 0 1-.64-2.62 37 37 0 0 1-.52-4.42h-5.85v2.59h4.17c0 1.41-.07 2.81-.12 4.2a2.46 2.46 0 0 1-.5 1.61 2.34 2.34 0 0 1-1.51.5h-1.35l-.17-1a7 7 0 0 0 1.31.06 1.53 1.53 0 0 0 1-.28 1.46 1.46 0 0 0 .32-1c0-.51.05-1.57.11-3.19h-3.22a18.3 18.3 0 0 1-.39 4.17 12.5 12.5 0 0 1-1.47 3.43l-.85-.57A11.5 11.5 0 0 0 523 180a18.7 18.7 0 0 0 .36-4v-4.3h6.78c-.05-1-.09-2-.1-3.06h1c0 1 .09 2 .12 3v.07h5.13v.9h-5.08a28 28 0 0 0 .44 4.07c.11.62.26 1.29.46 2a20.4 20.4 0 0 0 2.38-4.59l.87.41a24.8 24.8 0 0 1-2.78 5.1Zm-.18-10.2.57-.65c.75.55 1.49 1.13 2.21 1.71l-.52.71c-.72-.61-1.48-1.2-2.26-1.77M539.63 178.43l.82.25a17 17 0 0 1-1.78 3.4l-.82-.35a15.3 15.3 0 0 0 1.78-3.3m3.14-7.62h2.92v.84H538v-.84h3.71c-.27-.79-.54-1.47-.79-2l1-.16c.21.42.49 1.15.85 2.16m2 6.54h-2.31v4.3a1.9 1.9 0 0 1-.37 1.29 1.8 1.8 0 0 1-1.21.44h-1.16l-.15-.88a9 9 0 0 0 1.05.06 1.3 1.3 0 0 0 .72-.21 1.22 1.22 0 0 0 .21-.8v-4.17H539v-4.08h5.69Zm-.88-.82v-2.46h-3.91v2.46Zm-.62 2.1.75-.26a25 25 0 0 1 1.26 2.27l-.77.32c-.51-.89-.89-1.67-1.28-2.33Zm4.93-5.59h4.3v.86h-4.31c0 .55-.07 1-.1 1.51v.6a15.3 15.3 0 0 1-1 4.22 14.6 14.6 0 0 1-2.21 3.5l-.82-.59a12.2 12.2 0 0 0 2.44-4 18.9 18.9 0 0 0 .8-5.27h-1.72V173h1.74v-4.42h.94c0 1 0 2.21-.05 3.68-.03.29-.04.54-.05.74Zm.61 1.5h.9v6.78a1.2 1.2 0 0 0 .21.82.74.74 0 0 0 .62.23h.41a.79.79 0 0 0 .63-.23 1.74 1.74 0 0 0 .32-.91c.06-.64.11-1.24.14-1.82l.82.28c-.07.73-.13 1.36-.2 1.89a2.3 2.3 0 0 1-.52 1.3 1.6 1.6 0 0 1-1.18.39h-.59a1.49 1.49 0 0 1-1.19-.43 2 2 0 0 1-.37-1.35Zm.49-4.74.73-.39c.56.72 1.12 1.49 1.69 2.32l-.76.46c-.52-.74-1.07-1.54-1.7-2.39ZM556.19 174.05a.75.75 0 0 1 .59.24.88.88 0 0 1 .21.58.82.82 0 0 1-.21.55.82.82 0 0 1-1.14 0 .75.75 0 0 1-.22-.55.9.9 0 0 1 .2-.58.69.69 0 0 1 .57-.24m0 6.62a.78.78 0 0 1 .59.23.84.84 0 0 1 .21.57.85.85 0 0 1-.21.56.78.78 0 0 1-.57.24.75.75 0 0 1-.57-.24.78.78 0 0 1-.22-.56.84.84 0 0 1 .2-.57.69.69 0 0 1 .57-.23M563.75 174.07h2.81v7.58a26 26 0 0 0 2.08-2.08l.32.58a33 33 0 0 1-2.92 2.76l-.39-.49a1.8 1.8 0 0 0 .21-.39 2.6 2.6 0 0 0 .06-.49v-6.85h-2.17Zm1.08-4.55.52-.39c.74.77 1.53 1.64 2.37 2.6l-.5.44c-.84-.98-1.64-1.86-2.39-2.65m8.94 11.22a18.2 18.2 0 0 0 4.79 2.27l-.33.62a18 18 0 0 1-5-2.47 19.7 19.7 0 0 1-5.18 2.6l-.34-.59a20.8 20.8 0 0 0 5-2.43 12 12 0 0 1-2.88-3.9l.56-.29a11 11 0 0 0 2.86 3.78 10.4 10.4 0 0 0 2.91-4h-7.41v-.59h8.13v.61a11.2 11.2 0 0 1-3.09 4.33Zm-3.22-11.17H576v3a1.1 1.1 0 0 0 .25.85 1.3 1.3 0 0 0 .83.28h1.52l-.13.64a15 15 0 0 1-1.55 0 1.94 1.94 0 0 1-1.25-.41 1.57 1.57 0 0 1-.32-1.16v-2.58h-4.13v1.43a3.83 3.83 0 0 1-.54 1.92 5.16 5.16 0 0 1-1.78 1.46l-.44-.48a4.9 4.9 0 0 0 1.62-1.29 3 3 0 0 0 .47-1.72ZM580.11 174.05h3.17v7.62c.78-.59 1.64-1.31 2.6-2.16l.31.59q-1.68 1.5-3.48 2.91l-.44-.56a1 1 0 0 0 .29-.39 1.6 1.6 0 0 0 .07-.54v-6.85h-2.52Zm1.29-4.53.49-.44c1.05 1 1.94 1.85 2.67 2.62l-.48.45c-.94-.94-1.84-1.82-2.68-2.63m9 5.61v8.53h-.67v-8.53h-4.48v-.64h4.48v-5.85h.67v5.85h4.6v.64ZM599.26 172.3v11.34h-.64v-10a25 25 0 0 1-2.17 3.46l-.4-.57a27.2 27.2 0 0 0 3.93-7.84l.62.22c-.44 1.24-.89 2.38-1.34 3.39m4.38-.83H611v.62h-5.61v3.27h4.69v.6h-4.69v3.3h5.13v.62h-5.13v3.8h-.66v-11.59h-1.37a24 24 0 0 1-2.36 3.81l-.51-.43a23 23 0 0 0 3.58-6.83l.62.18c-.29.84-.64 1.72-1.05 2.65M617.47 182.47h-4v1.19h-.62v-6.88h5.28v6.88h-.62Zm0-.61v-4.49h-4v4.49Zm6.34-7.29h-9.27v-5h9.27Zm-.66-.6v-3.76h-7.94V174Zm1.79 8.5h-4.14v1.19h-.62v-6.88h5.38v6.88h-.62Zm0-.61v-4.49h-4.14v4.49ZM631.69 178.09a14.6 14.6 0 0 1-3.71 3.25l-.34-.51a15.3 15.3 0 0 0 3.92-3.41 5.9 5.9 0 0 0-.69-1.75 23 23 0 0 1-2.74 1.75l-.31-.53a20 20 0 0 0 2.73-1.7 8.7 8.7 0 0 0-1.9-1.78l.42-.39a8.2 8.2 0 0 1 1.95 1.8 21 21 0 0 0 1.83-1.77l.44.41a17 17 0 0 1-1.94 1.83 7 7 0 0 1 .88 2.22 15.6 15.6 0 0 1 .24 3 3.67 3.67 0 0 1-.57 2.29 2.5 2.5 0 0 1-1.88.71h-1.26l-.09-.64c.65.05 1.08.07 1.29.07a1.8 1.8 0 0 0 1.45-.51 3 3 0 0 0 .44-1.91 16.4 16.4 0 0 0-.16-2.43m6.21-7v1.47h-.64v-1.47h-4.43v1.49h-.65v-1.49h-4.4v-.62h4.4v-1.81h.65v1.81h4.43v-1.83h.64v1.83h4.32v.62Zm-.41 5.56a8.5 8.5 0 0 0 1.47 3.48 10.3 10.3 0 0 0 3.35 2.91l-.39.57a10.7 10.7 0 0 1-3.45-3.12 9 9 0 0 1-1.27-2.66 8.2 8.2 0 0 1-1.16 2.76 11.4 11.4 0 0 1-3.29 3.12l-.42-.51a10.3 10.3 0 0 0 3.23-3 7.6 7.6 0 0 0 1.2-3.51h-3.42v-.59h3.45V173h.65v3.1H642v.59Zm1.18-3.11.41-.39c.65.51 1.33 1.09 2 1.73l-.37.45c-.71-.72-1.44-1.33-2.04-1.79M646.21 175.42v8.22h-.62v-7.37a20 20 0 0 1-2.1 2.34l-.32-.54a22.7 22.7 0 0 0 3.94-5.29l.54.32a23 23 0 0 1-1.44 2.32m.85-6.76.52.36a18.4 18.4 0 0 1-3.66 4.44l-.39-.55a17 17 0 0 0 3.53-4.25m8.61 10.52v2.37a2.15 2.15 0 0 1-.42 1.47 2.18 2.18 0 0 1-1.44.48h-1.75v-.62h1.67a1.7 1.7 0 0 0 1.07-.31 1.56 1.56 0 0 0 .28-1.11v-2.29h-7.48v-.55h7.4v-1.77h-6.8v-.57h9.4v.57h-1.93v1.77h2.42v.55Zm-6.73.93.36-.45c.93.55 1.85 1.15 2.76 1.79l-.39.51c-.88-.61-1.79-1.22-2.73-1.85m7.71-5.41H649v-5.16h7.63Zm-.62-2.84v-1.78h-6.39v1.78Zm0 2.29v-1.77h-6.39v1.77ZM666.59 177.19a13 13 0 0 1-.8 1.63h6.69v3.11a1.65 1.65 0 0 1-.4 1.17 1.63 1.63 0 0 1-1.19.45h-1.14l-.12-.59a10 10 0 0 0 1.12 0 1.2 1.2 0 0 0 .81-.26 1.2 1.2 0 0 0 .28-.85v-2.49h-3.11v3.81h-.6v-3.81h-3v3.83h-.61v-3.83h-3v4.24h-.64v-4.78h4.3a16 16 0 0 0 .81-1.63h-6.37v-.54h14.17v.54ZM667 172v3.78h-.63V172h-5.71v2.24H660v-2.74h6.33v-1.41h-5.54v-.5h11.68v.5H667v1.41h6.31v2.65h-.62V172Zm-5.16 1.23h3.35v.44h-3.35Zm0 1.57h3.35v.44h-3.35Zm6.34 0h3.35v.44h-3.35Zm0-1.57h3.33v.44h-3.33ZM675.16 181.05c2.29-1.28 4.38-2.55 6.26-3.83l.25.59q-2.67 1.81-6.15 3.84Zm7.68-6v6.57a1.92 1.92 0 0 1-.44 1.41 2 2 0 0 1-1.47.44h-1.55l-.08-.67c.31 0 .81.05 1.48.07a1.7 1.7 0 0 0 1.1-.29 1.47 1.47 0 0 0 .31-1v-9h-6.78V172h6.78v-3.32h.65V172h6.61v.62h-6.61v1a15 15 0 0 0 1.75 3.53 44 44 0 0 0 3.52-3.07l.47.47a53 53 0 0 1-3.61 3.09 14.8 14.8 0 0 0 4.72 3.84l-.37.61a15.9 15.9 0 0 1-4.35-3.45 14.5 14.5 0 0 1-2.13-3.56Zm-6.3-.59.46-.46q1.44 1.09 2.91 2.31l-.43.5c-1.16-.93-2.13-1.71-2.94-2.32Zm8.25-5 .46-.38a26 26 0 0 1 2.28 2l-.47.39c-.56-.47-1.31-1.15-2.27-1.93ZM699.24 171.39h6.54v.61h-9.35c0 1.21-.08 2.12-.11 2.73a4 4 0 0 0 0 .52h7.34c-.14 2.93-.23 4.74-.28 5.44a2.64 2.64 0 0 1-.8 1.91 3.12 3.12 0 0 1-2 .56c-1 0-1.71 0-2.26-.08l-.08-.67c.81.07 1.54.11 2.21.11a2.6 2.6 0 0 0 1.61-.41 2.13 2.13 0 0 0 .62-1.55c.08-1.23.16-2.79.25-4.69h-6.7a11.7 11.7 0 0 1-1.28 4.46 12 12 0 0 1-3.18 3.45l-.49-.52a11.2 11.2 0 0 0 3.22-3.53 12.6 12.6 0 0 0 1.12-4.77c.07-.88.12-1.86.15-3h-4.47v-.62h7.24c-.44-1.15-.77-2-1-2.55l.65-.17c.4 1.06.81 1.96 1.05 2.77M711 176.35v7.34h-.6v-8.48a18.2 18.2 0 0 1-3.22 5.33l-.39-.52a17.1 17.1 0 0 0 3.43-5.86H707v-.6h3.34v-3.11l-2.83.23-.11-.59a53 53 0 0 0 6-.65l.16.59c-.55.09-1.44.21-2.65.36v3.17h3v.6h-3V176l.25-.22c1.13 1.18 2 2.06 2.52 2.65l-.43.47q-1.39-1.6-2.25-2.55m3.94-5.93h5.62v12.64h-.63v-1.49h-4.37v1.58h-.62Zm5 10.53V171h-4.37v10ZM726.56 169.69c1.17 1.36 2.12 2.55 2.88 3.56l-.46.49c-1-1.35-1.9-2.51-2.68-3.47a18.3 18.3 0 0 1-3.34 4.91l-.37-.56a16.6 16.6 0 0 0 3.71-5.93l.62.1Zm0 11.67 1.36 1.53-.41.46q-2.06-2.37-3.65-3.94l.41-.42c.48.45 1.1 1.09 1.85 1.91a26.7 26.7 0 0 0 2.21-3.88h-5v-.57H729v.55a34 34 0 0 1-2.44 4.36m-1.13-8.06.49-.25a21 21 0 0 1 1.23 2.21l-.51.26c-.27-.52-.64-1.27-1.21-2.22m8 6.29q1.92 1.47 4.07 3.47l-.4.49a92 92 0 0 0-3.85-3.39 5 5 0 0 1-.69 1.15 11.7 11.7 0 0 1-3.25 2.38l-.41-.5a9.5 9.5 0 0 0 3.43-2.64 4.2 4.2 0 0 0 .61-1.73c.07-.57.11-1.19.13-1.83v-2.4h.6V177a14 14 0 0 1-.13 2 4.5 4.5 0 0 1-.16.59Zm.26-9.33c-.25 1-.47 1.72-.66 2.32h3.45v7.47h-.6v-6.9h-5v6.93h-.6v-7.5h2.12c.25-.74.48-1.52.69-2.32h-3.57v-.57h7.93v.57ZM749.91 178.87v2.55a2 2 0 0 1-.49 1.52 2.35 2.35 0 0 1-1.52.43 17 17 0 0 1-1.84-.08l-.09-.64c.74 0 1.33.08 1.79.08a2.17 2.17 0 0 0 1.17-.31 1.44 1.44 0 0 0 .33-1.1v-2.45h-10.75v-.57h10.75v-1.37h.65v1.37h3.34v.57Zm1-5.59h-9.87v.84a1.6 1.6 0 0 0 .34 1.16 2 2 0 0 0 1.21.36q3.5.06 7.27 0a4 4 0 0 0 1.5-.27 1.3 1.3 0 0 0 .64-.8 12 12 0 0 0 .31-1.4l.62.19c-.08.45-.19.93-.32 1.46a1.94 1.94 0 0 1-.85 1.08 4.4 4.4 0 0 1-1.82.32c-2.5.06-5 .06-7.48 0a2.46 2.46 0 0 1-1.59-.47 2.1 2.1 0 0 1-.49-1.55v-4.63h10.53Zm-.64-.59v-2.55h-9.23v2.55Zm-8.78 7.15.43-.48c1.1.73 2.07 1.41 2.91 2l-.44.51c-.9-.67-1.86-1.36-2.88-2.03ZM756 181.83v1.6h-.64v-12H757a25 25 0 0 0 1.1-2.81l.65.15c-.27.8-.62 1.68-1 2.66h2.94v11.79h-.64v-1.44Zm0-5.46h4v-4.26h-4Zm0 4.84h4V177h-4Zm7.5-9.78h4.74l-.21 9.22a2.92 2.92 0 0 1-.62 2 2.47 2.47 0 0 1-1.85.67c-.73 0-1.44 0-2.12-.09l-.08-.69c.88.07 1.57.11 2.07.11a2 2 0 0 0 1.47-.49 2.4 2.4 0 0 0 .49-1.6c.07-2.9.13-5.74.2-8.51h-4.37a23 23 0 0 1-1.53 2.74l-.56-.33a20.5 20.5 0 0 0 2.7-5.81l.62.18c-.2.75-.51 1.61-.92 2.6Zm-1.14 4 .51-.33c.62.82 1.4 1.88 2.35 3.19l-.54.39c-.6-.92-1.38-2-2.29-3.22ZM770.21 175.42h14.71v.67h-14.71ZM790.42 181.7q1.62-.25 3.12-.54l.09.6q-3.28.65-7.29 1.12l-.12-.64 3.58-.46v-3.19h-3V178h3v-2h.62v2h2.88v.58h-2.88Zm2.08-6.77q-2.36.21-5.69.38l-.11-.51a1.55 1.55 0 0 0 .52-.42 38 38 0 0 0 2.3-3.84h-2.94v-.61h7.08v.61h-3.45q-1.05 2-2.48 4.15c1.49-.08 3-.18 4.46-.31-.32-.53-.77-1.26-1.36-2.19l.51-.28c.89 1.42 1.64 2.65 2.24 3.71l-.53.33Zm5 4.61a15.1 15.1 0 0 0 3.63 3.53l-.41.59a17.7 17.7 0 0 1-3.61-3.56 17.3 17.3 0 0 1-4 3.69l-.43-.52a16.2 16.2 0 0 0 4-3.71c-.1-.15-.19-.3-.26-.43a14.6 14.6 0 0 1-1.72-5.15 14 14 0 0 1-.73 1.23l-.48-.46a18.7 18.7 0 0 0 2.53-6.11l.66.13a22 22 0 0 1-.93 3h5.08v.6h-1.34a15.9 15.9 0 0 1-1.7 6.62c-.08.22-.2.42-.29.55m-.38-.55.2-.33a15.4 15.4 0 0 0 1.64-6.33h-3.39c-.15.35-.27.61-.36.77a15.2 15.2 0 0 0 1.77 5.62c.02.11.11.2.14.28ZM806.83 179.36l2.27 2-.43.52c-.67-.61-1.4-1.26-2.19-1.94a12 12 0 0 1-1.48 1.86 24 24 0 0 1-1.83 1.71l-.47-.49a15 15 0 0 0 3.28-3.53c-1-.86-1.8-1.52-2.4-2 .39-1.37.77-3 1.13-4.82h-2v-.59h2.11c.22-1.3.38-2.44.49-3.42l.65.05c-.12 1-.28 2.15-.49 3.37h3.06v.57a17.3 17.3 0 0 1-1.7 6.71m-.53-.42a16.1 16.1 0 0 0 1.57-6.26h-2.53c-.31 1.63-.66 3.16-1.06 4.59Zm7.26-2.45v4.82a2.38 2.38 0 0 1-.41 1.52 2 2 0 0 1-1.41.49 9 9 0 0 1-1.56-.07l-.1-.65a15 15 0 0 0 1.53.1 1.6 1.6 0 0 0 1-.35 1.94 1.94 0 0 0 .28-1.16v-4.7h-4.27v-.63h4.27v-2.17q2-1.89 3-3.11h-6.36V170h7.19v.57l-1.48 1.62c-.67.71-1.24 1.29-1.72 1.75v1.94h3.92v.63ZM818.48 174h2.77v7.66c.78-.57 1.54-1.19 2.28-1.84l.32.52q-1.49 1.27-3.18 2.61l-.38-.52a1.6 1.6 0 0 0 .25-.31 1.3 1.3 0 0 0 .08-.46v-7h-2.14Zm.89-4.48.5-.42c1.13 1.16 1.94 2 2.43 2.56l-.51.46c-.79-.96-1.62-1.82-2.42-2.63Zm8.91 8.4v5.84h-.64v-5.84h-4.78v-.62h4.78v-6.83h-4.1v-.62h9.06v.62h-4.32v6.83h5v.62Zm-4.59-5.52.54-.3c.72 1.16 1.37 2.27 2 3.35l-.56.3c-.67-1.17-1.32-2.28-1.98-3.38Zm8.07-.28.59.26c-.65 1.18-1.34 2.31-2.06 3.38l-.54-.27a38 38 0 0 0 2.01-3.4ZM834.54 183.79a1.82 1.82 0 0 0 .85-1.54h-.08a.55.55 0 0 1-.4-.18.53.53 0 0 1-.16-.39.56.56 0 0 1 .15-.41.51.51 0 0 1 .41-.16.49.49 0 0 1 .42.18 1 1 0 0 1 .18.6 3 3 0 0 1-.24 1.23 2.45 2.45 0 0 1-.85.93ZM852.09 171.78h4.25v.64h-3.24v4.44h4v.62h-4v6.15h-.65v-6.15h-5a7.8 7.8 0 0 1-1 3.53 10.4 10.4 0 0 1-2.9 2.78l-.49-.49a9.9 9.9 0 0 0 2.76-2.56 6.9 6.9 0 0 0 .95-3.26h-4.26v-.62h4.3v-4.4399999999999995h-3.5v-.64h4.29c-.6-1-1.2-2-1.8-2.8l.59-.24c.72 1 1.37 2 2 3h3a27 27 0 0 0 1.85-3.11l.62.25a25 25 0 0 1-1.77 2.9m.36 5.08v-4.44h-5v4.44ZM868.35 179.74a1 1 0 0 1 .07.16 8.5 8.5 0 0 0 .93 1.88c.48.68.93 1 1.36 1a.93.93 0 0 0 .44-.18 1.6 1.6 0 0 0 .39-.68 16 16 0 0 0 .52-2.19l.59.21a20 20 0 0 1-.55 2.22q-.45 1.32-1.38 1.32a2 2 0 0 1-1.57-.86 6.5 6.5 0 0 1-1.12-1.93l-.15-.34a20.5 20.5 0 0 1-3.35 3l-.41-.49a19.4 19.4 0 0 0 3.51-3.22A17.4 17.4 0 0 1 867 177a40 40 0 0 1-.54-4.51h-6.21v2.88h4.23c0 1.36-.07 2.72-.11 4.08a2.4 2.4 0 0 1-.49 1.57 2.23 2.23 0 0 1-1.47.48 13 13 0 0 1-1.33-.07l-.06-.64a7 7 0 0 0 1.29.09 1.8 1.8 0 0 0 1.09-.32 1.66 1.66 0 0 0 .33-1.17l.12-3.43h-3.6v.31a17 17 0 0 1-.39 4 13 13 0 0 1-1.49 3.37l-.57-.38a11.2 11.2 0 0 0 1.42-3.15 17 17 0 0 0 .38-3.88v-4.34h6.83c0-.71-.09-1.79-.13-3.24h.65c0 1.06.09 2.11.13 3.15v.09h5.28v.6h-5.25a34 34 0 0 0 .46 4.12c.19 1 .38 1.79.57 2.44a22.1 22.1 0 0 0 2.6-4.83l.57.25a22.8 22.8 0 0 1-2.77 5.08Zm.07-10.28.39-.48c.52.41 1.27 1 2.24 1.88l-.38.48a24 24 0 0 0-2.25-1.88M877.75 179.71c1.32-.36 2.23-.62 2.73-.77l.15.62q-2.89.88-6.26 1.62l-.2-.66 2.93-.67v-8.5h-2.52v-.63h5.49v.63h-2.32Zm5.69-7.51h4.64c-.12 3.93-.21 6.74-.26 8.45a2.68 2.68 0 0 1-.59 1.87 2.4 2.4 0 0 1-1.76.57c-.64 0-1.26 0-1.88-.05l-.13-.67c.62.06 1.24.1 1.87.1a1.84 1.84 0 0 0 1.39-.44 2.24 2.24 0 0 0 .46-1.48q.09-2.45.21-7.73h-4v.46a19.6 19.6 0 0 1-1.08 6.11 11 11 0 0 1-3.22 4.29l-.52-.44a10.94 10.94 0 0 0 3.12-4 18 18 0 0 0 1-5.93v-.45h-2.39v-.62h2.49c0-1.17.06-2.35.08-3.53h.65c-.02 1.14-.05 2.29-.08 3.49M898.66 171.09h5.51v.62h-11.95v4.12a18.8 18.8 0 0 1-.42 4.22 12.3 12.3 0 0 1-1.63 3.71l-.58-.41a10.9 10.9 0 0 0 1.52-3.33 17 17 0 0 0 .44-4.17v-4.76h6.38c-.47-1-.85-1.79-1.15-2.37l.64-.19a23 23 0 0 1 1.24 2.56m1.54 11h4.23v.62h-11.86v-.62h6.94q1.82-4.23 3.11-8.25l.62.21q-1.42 4.32-3.04 8.04m-6.77-7.71.61-.18c.86 2.21 1.59 4.17 2.21 5.86l-.61.22c-.8-2.23-1.53-4.19-2.21-5.9m3.73-.87.6-.13c.6 2.06 1.13 3.92 1.57 5.57l-.62.18c-.4-1.55-.92-3.43-1.55-5.62M918.71 178.58h-4.87v4.57h-.66v-4.57h-4.8a11.3 11.3 0 0 1-.52 2.81 10.3 10.3 0 0 1-1.26 2.35l-.61-.37a9.4 9.4 0 0 0 1.46-3 19.4 19.4 0 0 0 .36-4.24v-6.4h11.55v11.81a2.06 2.06 0 0 1-.42 1.44 2.15 2.15 0 0 1-1.44.46h-1.68l-.12-.65 1.65.06a1.56 1.56 0 0 0 1.07-.29 1.52 1.52 0 0 0 .29-1.05Zm-5.53-.64v-3.45h-4.72v3.45Zm0-4.07v-3.51h-4.72v3.51Zm5.53 0v-3.51h-4.87v3.51Zm0 4.07v-3.45h-4.87v3.45ZM929.65 176v5.18a2.4 2.4 0 0 1-.46 1.65 2.34 2.34 0 0 1-1.72.54c-.85 0-1.55 0-2.1-.07l-.15-.7a21 21 0 0 0 2.11.1 1.77 1.77 0 0 0 1.27-.36 1.82 1.82 0 0 0 .34-1.28V176h-7.37v-.67h7.37v-4.75h-6v-.66H935v.66h-5.39v4.75h6.7v.67ZM946.26 180.8a12.4 12.4 0 0 0 4.53-3.53h-6.38c-.16.12-.42.29-.77.51a29.5 29.5 0 0 1-4.25 2.12l-.31-.57a28.4 28.4 0 0 0 4.12-2 15.4 15.4 0 0 0 3-2.3l.6.26a14 14 0 0 1-1.58 1.41h6.4v.57a13 13 0 0 1-4.93 4 31.8 31.8 0 0 1-8.26 2.45l-.19-.59a33.2 33.2 0 0 0 7.42-2.09c-.67-.57-1.51-1.24-2.52-2l.47-.42c1.08.87 1.97 1.59 2.65 2.18m-1.18-6.7.17-.07a16.1 16.1 0 0 0 4.7-3.09H943a24.7 24.7 0 0 1-3.92 2.39l-.34-.52a26 26 0 0 0 3.38-2 14.6 14.6 0 0 0 2.53-2.26l.64.25a15 15 0 0 1-1.59 1.55h7.11v.54a15.2 15.2 0 0 1-5 3.52 33.3 33.3 0 0 1-7.4 2.32l-.23-.59a37 37 0 0 0 6.23-1.8c-1-.78-1.8-1.42-2.45-1.9l.44-.42c1.11.81 1.98 1.5 2.68 2.08M961.1 169.52a18.7 18.7 0 0 0 7.15 6.08l-.4.62a21.2 21.2 0 0 1-4-2.73 17.7 17.7 0 0 1-3.08-3.41 22.25 22.25 0 0 1-7.07 6.34l-.43-.59a23.3 23.3 0 0 0 4.53-3.33 16.2 16.2 0 0 0 3.07-3.91l.67.2c-.16.21-.3.49-.44.73m-.72 4.79h.69v9.38h-.69ZM969.43 182q2.28-.48 5.28-1.36l.09.58c-1.52.49-3.26.95-5.21 1.4Zm3.72-8q.74-1.12 1.23-2l.56.28a66 66 0 0 1-4 5.87q2.06-.19 3.45-.36v.59l-4.47.46-.13-.54a2.2 2.2 0 0 0 .66-.53c.54-.68 1.19-1.59 2-2.73l.28-.42-3.19.15-.12-.53a1.5 1.5 0 0 0 .53-.45 38 38 0 0 0 2.87-5.09l.61.25c-.37.76-.85 1.65-1.42 2.66s-1.14 1.87-1.59 2.54Zm6.69 6.23.15.31c.68 1.53 1.4 2.29 2.15 2.29a.8.8 0 0 0 .53-.2 2.1 2.1 0 0 0 .44-.73 19 19 0 0 0 .55-2.11l.56.25a16 16 0 0 1-.54 2.1c-.32.91-.82 1.36-1.52 1.36-1 0-1.92-.9-2.76-2.71a1.3 1.3 0 0 1-.1-.22 23.5 23.5 0 0 1-4.4 2.2l-.29-.56a25.4 25.4 0 0 0 4.46-2.21 19.4 19.4 0 0 1-.9-3.48l-3.07.49-.1-.59 3.07-.49-.06-.47q-.1-.74-.21-2.13l-2.59.31-.08-.58 2.62-.33c-.08-1.07-.13-2.4-.17-4h.66c0 1.37.07 2.68.14 3.92l5.12-.64.07.61-5.14.63c.05.69.11 1.36.2 2 0 .14 0 .33.08.56l5.23-.84.08.61-5.23.81a17.4 17.4 0 0 0 .82 3.22 19.5 19.5 0 0 0 3.06-2.61l.44.42a20.4 20.4 0 0 1-3.27 2.79Zm.15-11 .52-.26c.47.7.92 1.45 1.36 2.25l-.54.3c-.33-.64-.8-1.4-1.33-2.26ZM992.57 182.09h7.65v.66h-14.66v-.66h6.31v-13.42h.7v5.25h6.18v.64h-6.18ZM1005.2 176.35v7.34h-.61v-8.48a18 18 0 0 1-3.22 5.33l-.37-.54a17 17 0 0 0 3.43-5.86h-3.15v-.6h3.33v-3.11l-2.82.23-.12-.59a52 52 0 0 0 6-.65l.17.59c-.56.09-1.44.21-2.65.36v3.17h3v.6h-3V176l.24-.22c1.14 1.18 2 2.06 2.52 2.65l-.42.47c-.97-1.07-1.74-1.9-2.33-2.55m3.94-5.93h5.62v12.64h-.64v-1.49h-4.36v1.58h-.62Zm5 10.53V171h-4.36v10ZM1016.88 182q2.29-.48 5.28-1.36l.1.58c-1.53.49-3.27.95-5.22 1.4Zm3.73-8c.49-.75.89-1.42 1.22-2l.56.28a64 64 0 0 1-4 5.87c1.37-.13 2.53-.25 3.45-.36v.59l-4.46.46-.14-.54a2.2 2.2 0 0 0 .66-.53c.54-.68 1.2-1.59 2-2.73l.28-.42-3.19.15-.11-.53a1.46 1.46 0 0 0 .52-.45 39 39 0 0 0 2.88-5.09l.6.25c-.37.76-.84 1.65-1.42 2.66s-1.14 1.87-1.59 2.54Zm6.68 6.23c.06.11.1.21.15.31.68 1.53 1.4 2.29 2.16 2.29a.78.78 0 0 0 .52-.2 2.1 2.1 0 0 0 .44-.73 19 19 0 0 0 .56-2.11l.55.25a16 16 0 0 1-.54 2.1c-.31.91-.82 1.36-1.52 1.36-1 0-1.92-.9-2.76-2.71 0-.09-.08-.16-.1-.22a23.5 23.5 0 0 1-4.4 2.2l-.29-.56a25.4 25.4 0 0 0 4.46-2.21 19.4 19.4 0 0 1-.9-3.48l-3.07.49-.1-.59 3.08-.49c0-.15 0-.31-.07-.47q-.11-.74-.21-2.13l-2.58.31-.09-.58 2.62-.33c-.08-1.07-.13-2.4-.16-4h.65c0 1.37.07 2.68.15 3.92l5.16-.65.07.61-5.13.63c0 .69.1 1.36.19 2 0 .14 0 .33.08.56l5.23-.84.08.61-5.22.81a16.7 16.7 0 0 0 .81 3.22 19 19 0 0 0 3.06-2.61l.44.42a19.5 19.5 0 0 1-3.32 2.8Zm.15-11 .52-.26c.47.7.92 1.45 1.36 2.25l-.54.3c-.35-.64-.78-1.4-1.34-2.26ZM1039.43 170.7v13h-.7v-13h-6.34v-.64H1047v.64Zm.79 4.13.39-.52c1.89 1.14 3.58 2.23 5.08 3.29l-.4.57q-2.38-1.68-5.07-3.34M1047.91 174l.29-.57c1.19.51 2.27 1 3.24 1.51l-.32.57c-1.18-.51-2.26-1.05-3.21-1.51m.89 9.24q1.08-2.67 2-5.71l.62.2c-.61 2-1.29 3.9-2 5.77Zm.15-13.37.33-.57c.82.41 1.81.94 3 1.6l-.32.57c-.96-.53-1.96-1.06-2.96-1.57Zm12 12.6h-6.8v1.16h-.66v-6.34h3.71v-3h-4.9v-.61h4.9v-3.18l-4.08.16-.09-.6c3.17-.07 6.06-.27 8.7-.59l.15.59q-1.92.24-4 .39v3.23h5v.61h-5v3h3.74v6.34h-.65Zm0-.6v-4h-6.8v4ZM1070.55 181c-1.88.27-3.72.48-5.54.62l-.18-.54a2.5 2.5 0 0 0 .46-.46 41.4 41.4 0 0 0 2.22-5.57h-3.06v-.62h7.16v.62h-3.43a53 53 0 0 1-2.37 5.88q2.1-.15 4.53-.51l-1.41-3.38.56-.2q.77 1.77 1.94 4.66l-.57.26c-.13-.34-.24-.6-.31-.76m-5.22-10.77h5.67v.58h-5.63Zm9.14 1.91h3.86q-.18 6.72-.28 9.07a2.2 2.2 0 0 1-.49 1.45 2 2 0 0 1-1.42.48 9 9 0 0 1-1.62-.07l-.11-.67a10.5 10.5 0 0 0 1.58.1 1.55 1.55 0 0 0 1.08-.33 1.64 1.64 0 0 0 .36-1.08q.16-4.31.23-8.33h-3.2v.47a23.8 23.8 0 0 1-.79 6.07 12.7 12.7 0 0 1-2.46 4.43l-.56-.4a11.6 11.6 0 0 0 2.42-4.25 23 23 0 0 0 .75-5.91v-.41h-2.21v-.62h2.22v-3.5h.63v3.45ZM1082.83 183.45a1.63 1.63 0 0 1-1.2-.49 1.67 1.67 0 0 1-.49-1.2 1.63 1.63 0 0 1 .49-1.19 1.68 1.68 0 0 1 2.41 0 1.63 1.63 0 0 1 .49 1.19 1.67 1.67 0 0 1-.49 1.2 1.64 1.64 0 0 1-1.21.49m0-.48a1.23 1.23 0 0 0 .86-.32 1.2 1.2 0 0 0 .35-.89 1.15 1.15 0 0 0-1.21-1.21 1.13 1.13 0 0 0-.85.33 1.21 1.21 0 0 0 .85 2.09M1100 177.66v3.52a1.37 1.37 0 0 0 .32 1 1.65 1.65 0 0 0 1.06.36 10 10 0 0 0 1.37 0 2.8 2.8 0 0 0 1.21-.33 1.37 1.37 0 0 0 .51-.91c0-.3.1-.76.16-1.37l.61.18c-.07.61-.14 1.1-.2 1.47a1.65 1.65 0 0 1-.67 1.14 3.55 3.55 0 0 1-1.54.41 14 14 0 0 1-1.58 0 2.3 2.3 0 0 1-1.46-.49 2 2 0 0 1-.44-1.42v-3.6h-3.09a9 9 0 0 1 0 1 5.1 5.1 0 0 1-1.39 3.16 8.2 8.2 0 0 1-3.61 1.86l-.31-.59a8.4 8.4 0 0 0 3.35-1.67 4.32 4.32 0 0 0 1.29-2.76c0-.2 0-.55.07-1h-4.5v-.6h13.75v.6Zm-1.48-7h6v2.9h-.65v-2.29h-11.7v2.35h-.64v-3h6.31c-.27-.7-.54-1.33-.8-1.88l.67-.14c.29.74.59 1.4.82 2.03Zm-5.33 3.19h9.58v.61h-9.58ZM1117 179.74a.6.6 0 0 1 .07.16 8.5 8.5 0 0 0 .93 1.88c.48.68.93 1 1.36 1a.93.93 0 0 0 .44-.18 1.6 1.6 0 0 0 .39-.68 15 15 0 0 0 .52-2.19l.59.21a18 18 0 0 1-.55 2.22c-.3.88-.75 1.32-1.38 1.32a2 2 0 0 1-1.57-.86 6.5 6.5 0 0 1-1.12-1.93l-.15-.34a20.5 20.5 0 0 1-3.35 3l-.41-.49a19.4 19.4 0 0 0 3.51-3.22 17.4 17.4 0 0 1-.65-2.67 40 40 0 0 1-.54-4.51h-6.21v2.88h4.23c0 1.36-.07 2.72-.11 4.08a2.4 2.4 0 0 1-.49 1.57 2.2 2.2 0 0 1-1.47.48 13 13 0 0 1-1.33-.07l-.06-.64a7 7 0 0 0 1.29.09 1.86 1.86 0 0 0 1.1-.32 1.72 1.72 0 0 0 .32-1.17c.05-1.15.08-2.29.12-3.43h-3.6v.31a17 17 0 0 1-.39 4 13 13 0 0 1-1.49 3.37l-.57-.38a10.9 10.9 0 0 0 1.42-3.15 17 17 0 0 0 .38-3.88v-4.34h6.83c0-.71-.09-1.79-.13-3.24h.65c0 1.06.09 2.11.13 3.15v.09h5.29v.6h-5.24a32 32 0 0 0 .45 4.12 24 24 0 0 0 .58 2.44 22.6 22.6 0 0 0 2.59-4.83l.58.25a23.3 23.3 0 0 1-2.78 5.08Zm.07-10.28.39-.48c.52.41 1.27 1 2.24 1.88l-.37.48a25 25 0 0 0-2.27-1.88ZM1124.06 181.83v1.6h-.64v-12h1.65a27 27 0 0 0 1.1-2.81l.65.15c-.27.8-.62 1.68-1 2.66h3v11.79h-.64v-1.44Zm0-5.46h4v-4.26h-4Zm0 4.84h4V177h-4Zm7.5-9.78h4.74l-.21 9.22a2.92 2.92 0 0 1-.62 2 2.5 2.5 0 0 1-1.85.67c-.73 0-1.44 0-2.12-.09l-.09-.69c.89.07 1.58.11 2.08.11a2 2 0 0 0 1.47-.49 2.46 2.46 0 0 0 .49-1.6c.07-2.9.13-5.74.2-8.51h-4.37a23 23 0 0 1-1.53 2.74l-.56-.33a20.5 20.5 0 0 0 2.7-5.81l.62.18c-.23.75-.51 1.61-.95 2.6m-1.14 4 .5-.33c.62.82 1.41 1.88 2.36 3.19l-.54.39c-.64-.92-1.41-2-2.32-3.22ZM1138.07 182.45h14.55v.55h-14.55Zm7.84-12h6v3h-.64V171h-11.82v2.44h-.65v-3h6.42c-.25-.7-.47-1.28-.65-1.75l.65-.15c.14.46.38 1.05.69 1.93Zm4.37 10.18h-9.87v-5.54h9.87Zm-9.61-7.81h9.33v.52h-9.31Zm9 4.79v-2H1141v2Zm0 2.48v-2H1141v2ZM524.93 196.35v11.33h-.62v-10.1a24 24 0 0 1-2.32 3.49l-.36-.57a22 22 0 0 0 2.37-3.71 30 30 0 0 0 1.68-4.08l.62.19a28.5 28.5 0 0 1-1.37 3.45m7.23 9.5 2.35 1.37-.33.56c-1.88-1.12-4-2.34-6.49-3.67l.35-.55c1.19.65 2.37 1.31 3.53 2a47 47 0 0 0 3-3.6h-6.47v-.55c.32-.88.61-1.72.86-2.52h-2.92v-.59h3.09q.44-1.51.72-2.55h-2.93v-.6H530c.22-.9.4-1.7.54-2.42l.66.08q-.26 1.08-.54 2.34h5.08v.6h-5.23q-.16.63-.72 2.55h6.69v.59h-6.87c-.28.87-.56 1.7-.83 2.48h6.62v.59q-1.74 2.27-3.24 3.89M538 198l.34-.54c1 .57 2 1.13 2.84 1.69l-.34.55c-1.08-.7-2.03-1.26-2.84-1.7m.39 9.19c.83-1.86 1.58-3.71 2.27-5.58l.59.27q-1 2.84-2.26 5.58Zm.37-13.37.33-.53c.79.45 1.69 1 2.71 1.7l-.31.54c-.87-.53-1.78-1.15-2.72-1.71Zm12.33 6.94h1.81v.59h-1.83s0 1.15-.11 3.39h1.55v.58H551v.09a2.68 2.68 0 0 1-.51 1.63 2 2 0 0 1-1.53.51c-.54 0-1.14 0-1.82-.07l-.11-.57c.65 0 1.26.06 1.81.06a1.58 1.58 0 0 0 1.16-.36 1.9 1.9 0 0 0 .38-1.22v-.07h-7.42l.47-4h-1.75v-.59h1.82l.47-4h7.31c-.09 1.37-.14 2.7-.18 4.03Zm-6.44-6.42h7.83v.57h-8.14a23 23 0 0 1-2.19 3l-.48-.42a18.2 18.2 0 0 0 3.13-4.86l.62.16a15 15 0 0 1-.76 1.55Zm5.8 7H544l-.4 3.39h6.75c.03-.73.07-1.9.11-3.38Zm0-.59c0-1.13.08-2.27.11-3.41h-6.11l-.41 3.41Zm-4.56 1.67.37-.39c.34.26 1 .79 2.06 1.6l-.39.44q-1.09-.95-2.01-1.64Zm.28-4 .37-.39c.55.43 1.21 1 2 1.63l-.37.39ZM557.78 201v4.85a1.82 1.82 0 0 1-.31 1.2 1.6 1.6 0 0 1-1.11.37 6.7 6.7 0 0 1-1.27-.06l-.09-.64a8 8 0 0 0 1.21.1 1.2 1.2 0 0 0 .74-.25 1.27 1.27 0 0 0 .21-.83v-4.5c-.61.21-1.45.5-2.53.85l-.18-.62c.61-.18 1.51-.47 2.71-.86v-3.91h-2.4v-.6h2.4v-3.39h.62v3.39h2.05v.6h-2.05v3.68c.81-.32 1.45-.58 1.93-.79l.17.58c-.6.21-1.3.48-2.1.83m3.6-1.23v8h-.62v-14.15H568c-.07 1.43-.11 2.2-.12 2.32a1.93 1.93 0 0 1-.55 1.33 2.9 2.9 0 0 1-1.61.42 14 14 0 0 1-1.83-.1l-.09-.57c.72.07 1.32.1 1.81.1a2.3 2.3 0 0 0 1.26-.3 1.3 1.3 0 0 0 .41-.94c0-.74.07-1.31.1-1.69h-6v5h6.78v.58a11.2 11.2 0 0 1-2.4 4.71 14.2 14.2 0 0 0 3.53 2.39l-.33.59a14.3 14.3 0 0 1-3.63-2.5 15.5 15.5 0 0 1-3.35 2.51l-.37-.54a15.3 15.3 0 0 0 3.28-2.42 10.94 10.94 0 0 1-2.35-4.33l.54-.23a10.8 10.8 0 0 0 2.25 4.09 10.3 10.3 0 0 0 2.2-4.27ZM573.12 203.61q1.47-.48 2.19-.69l.13.62q-2.57.92-5.21 1.57l-.19-.67c1.06-.27 1.87-.49 2.44-.65v-8.88h-2.17v-.62h4.87v.62h-2.06Zm7-.35c1.93 1.49 3.54 2.74 4.84 3.78l-.39.52c-1.79-1.46-3.35-2.69-4.68-3.71a5.65 5.65 0 0 1-1.58 2.09 13 13 0 0 1-3.08 1.79l-.32-.58a9.3 9.3 0 0 0 3.8-2.51 5.53 5.53 0 0 0 1.07-3.37v-2.42h.6v2.44a8 8 0 0 1-.3 1.97Zm.28-8.94q-.39 1.58-.69 2.55h4V204h-.64v-6.52h-6V204h-.62v-7.15H579c.22-.66.46-1.51.7-2.55h-3.94v-.6h9.07v.6ZM597.46 206.22h-9.26v1.42h-.66v-13.89h10.59v13.89h-.67Zm0-8.6v-3.25h-9.26v3.25Zm0 3.93v-3.32h-9.26v3.32Zm0 4v-3.45h-9.26v3.45ZM612.79 204.1h-8v3.51h-.65V199a23.4 23.4 0 0 1-3 2.91l-.37-.57a19.8 19.8 0 0 0 5.1-5.9h-4.63v-.61h4.94a23 23 0 0 0 1-2.27l.67.16a21 21 0 0 1-.92 2.11h8.63v.61h-8.92a20.5 20.5 0 0 1-1.47 2.32h8.33v7.84a2 2 0 0 1-.5 1.4 2 2 0 0 1-1.39.46 16 16 0 0 1-1.73-.08l-.11-.61a15 15 0 0 0 1.68.09 1.52 1.52 0 0 0 1-.3 1.5 1.5 0 0 0 .28-1Zm0-3.43v-2.29h-8v2.29Zm0 2.87v-2.3h-8v2.3ZM621.53 203.18l2.39 2.62-.45.49c-.7-.81-1.47-1.66-2.3-2.57a15.5 15.5 0 0 1-3.86 3.74l-.37-.55a14.7 14.7 0 0 0 3.81-3.66l-2.28-2.41.44-.42c.68.7 1.4 1.46 2.18 2.29a14 14 0 0 0 1.29-2.91l.57.26a13.3 13.3 0 0 1-1.42 3.12m-2-6.29.53.31a21.7 21.7 0 0 1-2.64 3.43l-.42-.41a22 22 0 0 0 2.55-3.33Zm1.91-1.62h3.14v.59h-7.39v-.59h3.62c-.3-1-.54-1.81-.74-2.47l.62-.13c.31.89.56 1.75.77 2.6Zm6.72 8.29a14.8 14.8 0 0 0 3.58 3.45l-.39.59a16.2 16.2 0 0 1-3.56-3.5 17.7 17.7 0 0 1-3.85 3.63l-.44-.51a16.7 16.7 0 0 0 3.89-3.68l-.18-.29a14 14 0 0 1-1.71-4.91 14 14 0 0 1-.84 1.51l-.19-.25-.43.41c-.55-.7-1.32-1.62-2.3-2.78l.46-.34c.81.93 1.5 1.74 2.07 2.44a17.3 17.3 0 0 0 1.52-3.18 25 25 0 0 0 1-3.53l.62.13a28 28 0 0 1-.84 3h4.95v.6h-1.34a16.2 16.2 0 0 1-1.63 6.54c-.13.29-.27.52-.37.67Zm-.39-.59a3.4 3.4 0 0 0 .24-.41 14.7 14.7 0 0 0 1.57-6.23h-3.2c-.16.43-.32.79-.46 1.1a14.3 14.3 0 0 0 1.77 5.41ZM636.15 200.81v5a1.7 1.7 0 0 1-.38 1.16 1.6 1.6 0 0 1-1.09.43h-1.13l-.08-.65c.36 0 .72.05 1.08.05a1 1 0 0 0 .72-.25 1.06 1.06 0 0 0 .26-.78v-4.66c-1 .42-1.7.75-2.21 1l-.23-.6 2.44-1v-3.64h-2.13v-.61h2.13v-3.44h.62v3.44H638v.61h-1.83v3.38l1.71-.8.17.57c-.64.2-1.27.5-1.9.79m3.64 2.4a4.9 4.9 0 0 0 1 2 3.5 3.5 0 0 0 1.86 1.09v-5.25H638v-.55h9.79v.55h-4.54v2.24H647v.56h-3.8v2.53h4.73l-.09.57h-4.45a4.4 4.4 0 0 1-2.7-1 4.3 4.3 0 0 1-1.16-1.85 8 8 0 0 1-.37 1 9 9 0 0 1-1.88 2.54l-.46-.39a9 9 0 0 0 1.78-2.39 8.8 8.8 0 0 0 .74-3l.6.08c-.03.59-.09 1-.15 1.27m6.59-4.36h-7.13v-5.36h7.13Zm-.62-2.94v-1.86h-5.87v1.86Zm0 2.38v-1.86h-5.87v1.86ZM660.33 200.11v7.55h-.67v-7.55h-5.35a9.8 9.8 0 0 1-.86 4.33 10.24 10.24 0 0 1-3.17 3.35l-.49-.5a9.9 9.9 0 0 0 3-3 9 9 0 0 0 .9-4.17h-4.39v-.64h4.36v-4.64c-1 .1-2.12.19-3.46.28l-.1-.64a55 55 0 0 0 7.45-.82l.16.62c-.92.17-2.06.33-3.4.49v4.71h5.35v-6.68h.67v6.67H664v.64ZM664.15 194h12.92v.67q-2.91 2.25-5.69 4.17v6.36a1.77 1.77 0 0 1-2.08 2.11h-2l-.1-.71a18 18 0 0 0 2 .08 1.7 1.7 0 0 0 1.2-.32 1.87 1.87 0 0 0 .32-1.23v-6.57q2.88-2 5.35-3.87h-11.92ZM678.47 198l.3-.57c1.18.51 2.26 1 3.23 1.51l-.31.57c-1.19-.51-2.26-1.05-3.22-1.51m.9 9.24q1.08-2.67 2-5.71l.63.2c-.62 2-1.29 3.9-2 5.77Zm.15-13.37.32-.57c.82.41 1.81.94 3 1.6l-.33.57c-.94-.53-1.94-1.06-2.99-1.57Zm12 12.6h-6.8v1.16H684v-6.34h3.71v-3h-4.9v-.61h4.9v-3.18l-4.09.16-.08-.6q4.74-.11 8.7-.59l.14.59q-1.9.24-4 .39v3.23h5v.61h-5v3h3.75v6.34h-.66Zm0-.6v-4h-6.8v4ZM701.12 205q-2.82.41-5.55.62l-.18-.54a2.2 2.2 0 0 0 .46-.46 40 40 0 0 0 2.23-5.57H695v-.62h7.16v.62h-3.43a53 53 0 0 1-2.37 5.88c1.4-.1 2.91-.27 4.52-.51-.47-1.12-.93-2.25-1.4-3.38l.55-.2 2 4.66-.57.26c-.17-.34-.27-.6-.34-.76m-5.22-10.77h5.62v.58h-5.62Zm9.14 1.91h3.86c-.12 4.48-.22 7.5-.28 9.07a2.25 2.25 0 0 1-.49 1.45 2 2 0 0 1-1.42.48 8.8 8.8 0 0 1-1.62-.07l-.12-.67a11 11 0 0 0 1.59.1 1.55 1.55 0 0 0 1.08-.33 1.76 1.76 0 0 0 .36-1.08c.1-2.87.18-5.65.22-8.33H705a4 4 0 0 1 0 .47 23.4 23.4 0 0 1-.78 6.07 12.6 12.6 0 0 1-2.47 4.43l-.55-.4a11.6 11.6 0 0 0 2.42-4.25 24 24 0 0 0 .75-5.91v-.41h-2.2v-.62h2.22v-3.5h.64v3.45ZM712.38 205.83v1.6h-.64v-12h1.65a25 25 0 0 0 1.09-2.81l.66.15c-.27.8-.62 1.68-1 2.66H717v11.79h-.63v-1.44Zm0-5.46h4v-4.26h-4Zm0 4.84h4V201h-4Zm7.5-9.78h4.74l-.21 9.22a2.93 2.93 0 0 1-.63 2 2.45 2.45 0 0 1-1.84.67q-1.1 0-2.13-.09l-.08-.69c.88.07 1.57.11 2.08.11a2 2 0 0 0 1.47-.49 2.46 2.46 0 0 0 .49-1.6c.06-2.9.13-5.74.19-8.51h-4.36a22 22 0 0 1-1.54 2.74l-.55-.33a20.7 20.7 0 0 0 2.69-5.81l.63.18c-.23.75-.55 1.61-.95 2.6m-1.15 4 .51-.33c.62.82 1.41 1.88 2.35 3.19l-.54.39c-.63-.92-1.4-2-2.32-3.22ZM729.69 200.31v7.37h-.61v-7.39a17 17 0 0 1-2.32 2.35l-.26-.63a16.4 16.4 0 0 0 2.44-2.51 13.8 13.8 0 0 0 1.66-2.9h-3.76v-.6h2.47c-.26-1.24-.52-2.31-.78-3.2l.62-.15c.32 1.25.59 2.36.82 3.35h1.32v.56a15.4 15.4 0 0 1-1.6 2.92v.66l.36-.26c.7.63 1.36 1.27 2 1.93l-.46.4c-.59-.63-1.24-1.27-1.9-1.9m6.5-4.55h.63c0 .95-.05 1.89-.07 2.83a10.8 10.8 0 0 1-1.24 5.19 12 12 0 0 1-4.09 3.84l-.42-.49a11.9 11.9 0 0 0 3.94-3.62 9.83 9.83 0 0 0 1.19-4.92q.03-.8.06-2.83m-3.13-2.11h6.88v8.94h-.64v-8.33h-5.62v8.32h-.62Zm3.62 7.68h.61v4.06a1.16 1.16 0 0 0 .29.83 1.27 1.27 0 0 0 .89.36 4 4 0 0 0 .85 0 2.34 2.34 0 0 0 1-.28 1.24 1.24 0 0 0 .39-.8q.17-1.26.18-1.5l.57.23c0 .44-.1.94-.19 1.47a1.72 1.72 0 0 1-.54 1.11 2.8 2.8 0 0 1-1.32.36 5.3 5.3 0 0 1-.9 0 2 2 0 0 1-1.3-.48 1.84 1.84 0 0 1-.49-1.27ZM749.49 200.58h.62a12 12 0 0 1-.26 2.16 5 5 0 0 1-2 3 14.1 14.1 0 0 1-4.86 2l-.31-.59a14.5 14.5 0 0 0 4.66-1.8 4.48 4.48 0 0 0 1.91-2.66 12 12 0 0 0 .24-2.11m3.46-4.7h3.58v3h-.64v-2.42H743.8v2.41h-.65v-3h9a37 37 0 0 0 2.47-3l.63.26c-.72.87-1.48 1.87-2.25 2.75Zm-8.53-2.7.62-.26c.69.83 1.27 1.54 1.75 2.14l-.55.31c-.57-.72-1.18-1.45-1.82-2.19m.87 5.54h9.15v5.43h-.64v-4.86h-7.86v4.89h-.65Zm3.48-5.9.6-.18c.65 1.06 1.1 1.82 1.36 2.3l-.61.27c-.34-.68-.8-1.47-1.35-2.39m1.44 9.87h.62v2.47a1.5 1.5 0 0 0 .31 1.08 1.6 1.6 0 0 0 1.06.36h2.32a2.5 2.5 0 0 0 1.23-.31 1.66 1.66 0 0 0 .5-1c.08-.46.14-.92.18-1.39l.61.21c-.06.49-.12 1-.2 1.41a2.12 2.12 0 0 1-.65 1.24 3.2 3.2 0 0 1-1.59.43h-2.53a2.27 2.27 0 0 1-1.42-.49 2 2 0 0 1-.44-1.44ZM763 203.18l2.39 2.62-.44.49c-.71-.81-1.48-1.66-2.31-2.57a15.4 15.4 0 0 1-3.86 3.74l-.37-.55a14.7 14.7 0 0 0 3.81-3.66l-2.28-2.41.45-.42c.67.7 1.4 1.46 2.17 2.29a14 14 0 0 0 1.29-2.91l.57.26a13.3 13.3 0 0 1-1.42 3.12m-2-6.29.53.31a22.3 22.3 0 0 1-2.63 3.43l-.43-.41a22 22 0 0 0 2.53-3.33m1.92-1.62H766v.59h-7.38v-.59h3.61c-.3-1-.54-1.81-.74-2.47l.62-.13c.31.89.56 1.75.78 2.6Zm6.71 8.29a15 15 0 0 0 3.58 3.45l-.39.59a16.2 16.2 0 0 1-3.56-3.5 17.8 17.8 0 0 1-3.84 3.63l-.44-.51a16.8 16.8 0 0 0 3.88-3.68l-.17-.29a13.9 13.9 0 0 1-1.72-4.91 16 16 0 0 1-.83 1.51l-.2-.25-.43.41c-.55-.7-1.32-1.62-2.3-2.78l.46-.34c.82.93 1.51 1.74 2.07 2.44a17.3 17.3 0 0 0 1.52-3.18 23.4 23.4 0 0 0 1-3.53l.62.13a28 28 0 0 1-.84 3h5v.6h-1.34a16.2 16.2 0 0 1-1.64 6.54c-.22.29-.36.52-.46.67Zm-.39-.59c.09-.13.17-.27.25-.41a15 15 0 0 0 1.57-6.23h-3.21c-.16.43-.31.79-.46 1.1a14.3 14.3 0 0 0 1.77 5.41ZM782.81 202.38a12 12 0 0 0 2.42 2 18.9 18.9 0 0 0 4.18 1.91l-.32.59a20.2 20.2 0 0 1-4.29-2.06 12.5 12.5 0 0 1-2.43-2.21v5.05h-.66v-5a13 13 0 0 1-2.53 2.22A22.4 22.4 0 0 1 775 207l-.35-.57a25 25 0 0 0 4.14-2 14 14 0 0 0 2.5-2.06H775v-.6h6.71v-2h-5.08v-6.23h10.84v6.23h-5.1v2h6.8v.6Zm-1.1-5.95v-2.29h-4.46v2.29Zm0 2.8V197h-4.46v2.26Zm5.12-2.8v-2.29h-4.46v2.29Zm0 2.8V197h-4.46v2.26ZM794.52 200.35v7.34h-.61v-8.48a18 18 0 0 1-3.22 5.33l-.39-.52a17.1 17.1 0 0 0 3.43-5.86h-3.15v-.6h3.33v-3.11l-2.83.23-.11-.59a52 52 0 0 0 6-.65l.16.59q-.82.14-2.64.36v3.17h3v.6h-3V200l.24-.22c1.13 1.18 2 2.06 2.52 2.65l-.43.47Zm3.94-5.93h5.62v12.64h-.64v-1.49h-4.36v1.58h-.62Zm5 10.53V195h-4.36v10ZM809.1 201.14v4.74a1.64 1.64 0 0 1-.33 1.11 1.5 1.5 0 0 1-1.09.44c-.32 0-.71 0-1.16-.05v-.65c.4 0 .75.06 1.07.06a.9.9 0 0 0 .7-.24 1.2 1.2 0 0 0 .21-.77v-4.4l-2.09.77-.18-.62 2.27-.8v-4h-2v-.59h2v-3.41h.64v3.41h1.68v.59h-1.72v3.79l1.62-.65.14.59Zm3.86-5.38h4c-.25-.74-.57-1.64-1-2.69l.59-.14c.32.85.66 1.8 1 2.83h3v.57h-3.57v2.77h3.3v.57h-3.3v2.74h3.3v.59h-3.3v2.93h3.84v.57h-8.09v1.22h-.64V197.2a18 18 0 0 1-1.51 2.19l-.39-.52a17.5 17.5 0 0 0 1.85-2.85 26 26 0 0 0 1.4-3.4l.63.17c-.32 1.21-.72 2.15-1.07 2.97Zm3.48 3.34v-2.77h-3.61v2.77Zm0 3.31v-2.74h-3.61v2.74Zm0 3.49V203h-3.61v2.93ZM831.46 195.25h5.46v.67h-11.68v3.37a19 19 0 0 1-.48 4.73 11.1 11.1 0 0 1-1.8 3.56l-.6-.43a9.3 9.3 0 0 0 1.73-3.33 18.4 18.4 0 0 0 .46-4.54v-4h6.19a21 21 0 0 0-1.14-2.51l.65-.2a28 28 0 0 1 1.21 2.68M843 203.18l2.39 2.62-.44.49c-.71-.81-1.48-1.66-2.31-2.57a15.4 15.4 0 0 1-3.86 3.74l-.37-.55a14.7 14.7 0 0 0 3.81-3.66l-2.22-2.41.44-.42c.68.7 1.41 1.46 2.18 2.29a14 14 0 0 0 1.29-2.91l.57.26a13.3 13.3 0 0 1-1.48 3.12m-2-6.29.53.31a21.7 21.7 0 0 1-2.64 3.43l-.42-.41a22 22 0 0 0 2.59-3.33Zm1.91-1.62h3.14v.59h-7.38v-.59h3.61c-.3-1-.54-1.81-.74-2.47l.62-.13c.35.89.6 1.75.84 2.6Zm6.72 8.29a15 15 0 0 0 3.58 3.45l-.39.59a16.2 16.2 0 0 1-3.56-3.5 17.8 17.8 0 0 1-3.84 3.63l-.45-.51a16.7 16.7 0 0 0 3.89-3.68l-.18-.29a14 14 0 0 1-1.71-4.91 14 14 0 0 1-.84 1.51l-.19-.25-.43.41c-.55-.7-1.32-1.62-2.3-2.78l.46-.34c.81.93 1.51 1.74 2.07 2.44a17.3 17.3 0 0 0 1.52-3.18 25 25 0 0 0 1-3.53l.62.13a28 28 0 0 1-.84 3h5v.6h-1.34a16.4 16.4 0 0 1-1.64 6.54c-.13.29-.27.52-.37.67Zm-.39-.59a3.4 3.4 0 0 0 .24-.41 14.7 14.7 0 0 0 1.57-6.23h-3.2c-.16.43-.32.79-.46 1.1a14.3 14.3 0 0 0 1.77 5.41ZM862.9 202.38a11.7 11.7 0 0 0 2.42 2 18.9 18.9 0 0 0 4.18 1.91l-.33.59a20.4 20.4 0 0 1-4.28-2.06 12.5 12.5 0 0 1-2.43-2.21v5.05h-.66v-5a13.3 13.3 0 0 1-2.53 2.22 22.4 22.4 0 0 1-4.18 2.16l-.35-.57a25 25 0 0 0 4.14-2 14.4 14.4 0 0 0 2.5-2.06h-6.29v-.6h6.71v-2h-5.08v-6.23h10.84v6.23h-5.1v2h6.8v.6Zm-1.1-5.95v-2.29h-4.46v2.29Zm0 2.8V197h-4.46v2.26Zm5.12-2.8v-2.29h-4.46v2.29Zm0 2.8V197h-4.46v2.26ZM873.56 207.45a1.63 1.63 0 0 1-1.2-.49 1.67 1.67 0 0 1-.49-1.2 1.63 1.63 0 0 1 .49-1.19 1.68 1.68 0 0 1 2.41 0 1.63 1.63 0 0 1 .49 1.19 1.67 1.67 0 0 1-.49 1.2 1.64 1.64 0 0 1-1.21.49m0-.48a1.23 1.23 0 0 0 .86-.32 1.2 1.2 0 0 0 .35-.89 1.18 1.18 0 0 0-.35-.89 1.17 1.17 0 0 0-.86-.32 1.13 1.13 0 0 0-.85.33 1.21 1.21 0 0 0 .85 2.09M529.34 20.19q-1.32-1.23-3.48-3t-3.59-2.86l2.82-3.61q4.8 3.73 7.14 5.72Zm2.14 3.45q-.48 1.36-2.26 6.93c-1.19 3.72-1.87 5.93-2 6.65l-4.56-1.35q.51-1.2 2.3-6.73t2.04-6.81Zm1.39-16.47-2.74 3.61c-.87-.77-2-1.74-3.43-2.92s-2.54-2.07-3.36-2.68l2.78-3.65q2.63 1.83 6.75 5.2v-4h25v8.1h-4.41V7.17h-16.22v3.65h-4.37Zm17.54 16.31a27 27 0 0 0 4 4.19 37 37 0 0 0 5.22 3.59L557 35.67a38.6 38.6 0 0 1-9.56-9.92v11.87h-4.53v-11.4a37.2 37.2 0 0 1-9.56 9.45l-2.66-4.05a42 42 0 0 0 5.18-3.73 31 31 0 0 0 4.22-4.41h-7v-4.36h9.84v-4h4.53v4h10.44v4.36Zm-17.5-8.89a36.4 36.4 0 0 0 4.5-2.8 34 34 0 0 0 4.07-3.35l2.9 3.29a78 78 0 0 1-9 6.63Zm15.72-6.23c1.35.85 3 1.91 4.9 3.2s3.37 2.28 4.35 3l-2.62 3.66Q553.7 17 551 15.11a305 305 0 0 0-4.78-3.22ZM573.63 29.16q-1.54.43-5.45 1.69c-2.61.83-4.69 1.51-6.26 2L560.85 28c.82-.19 2.32-.62 4.49-1.31V14.91h-3.57v-4.72h3.57v-9h4.72v9h3.1v4.72h-3.1v10.32c1.14-.32 2.16-.63 3.06-.95Zm1.63-27.59h4.57V15a83 83 0 0 1-.48 9.88 28 28 0 0 1-1.63 6.83 26.8 26.8 0 0 1-3.29 5.92l-4.17-3a29.3 29.3 0 0 0 3.35-5.42 17.3 17.3 0 0 0 1.33-5.24 87 87 0 0 0 .32-8.83Zm12.66 33.27h-4.6V3.36h4.6Zm3.74 2.22V1.53h4.52v35.53ZM635.75 9.75h-15.16v3.93h12.66v14.21a8 8 0 0 1-.61 3.49 3.37 3.37 0 0 1-1.95 1.71 11.4 11.4 0 0 1-3.75.48 23 23 0 0 1-3.25-.24l-1-4.88a32 32 0 0 0 3.77.27 3.1 3.1 0 0 0 1.27-.19 1 1 0 0 0 .51-.68 7 7 0 0 0 .12-1.55v-8h-7.78v19.2h-4.8V18.32H608v15.09h-4.8V13.68h12.62V9.75h-15.19V5.18h15c-.42-1.21-.93-2.54-1.51-4l5.12-1a22 22 0 0 1 .86 2.17c.35 1 .66 1.94.93 2.75h14.68ZM648.85 12.57a17.5 17.5 0 0 1-2.77 5.5 31.7 31.7 0 0 1-5 5.1L637.86 20a23.8 23.8 0 0 0 5.36-6 17.55 17.55 0 0 0 2.18-7.07 6 6 0 0 0 .08-.87h-5.2V2.09h28.46l-1.39 5.52h6.31q-.12 2.3-.39 5.1c-.19 1.86-.37 3.26-.56 4.18a10.8 10.8 0 0 1-.87 3 2.85 2.85 0 0 1-1.55 1.37 8.5 8.5 0 0 1-3 .4c-.77 0-1.57 0-2.42-.12l-.83-3.93a10 10 0 0 0 2.42.24 1.56 1.56 0 0 0 1.21-.42 3.06 3.06 0 0 0 .57-1.45 38 38 0 0 0 .56-4.4h-5.56v.87a36 36 0 0 1-4.24 4.48l4.24 2.31-2 3.45-5.56-3.25a33 33 0 0 1-7.58 3.45l-1.71-3.69a50 50 0 0 0 5.44-1.87c-1.37-.74-2.35-1.25-2.94-1.55l2-3.09q1.35.63 4.8 2.46a16 16 0 0 0 2.7-2.58Zm22.51 10.48v9.25h3.45v4.12H639V32.3h3.41v-9.25Zm-20.56 3.81H647v5.44h3.85ZM663.5 6H650l-.11 1c0 .45-.1 1-.2 1.75h13.06ZM655 32.3h3.89v-5.44H655Zm8.06 0h3.85v-5.44H663ZM679.62 9.87q1.62 1.07 3.89 2.72t3.81 2.92l-2.78 4.08q-1.71-1.38-4-3.11c-1.53-1.15-2.77-2-3.69-2.64Zm-1.91 25.72q2.53-6.27 4.92-13.89l4.65 1.67q-1.9 6.42-4.77 13.89ZM681.8.86q1.43.91 3.45 2.4c1.35 1 2.44 1.83 3.26 2.52l-2.74 4Q683 7.48 679 4.75ZM713.87 3v4.61h-2.93v23.5a9.5 9.5 0 0 1-.58 3.73 3.28 3.28 0 0 1-2 1.76 14.4 14.4 0 0 1-4.33.5c-1.3 0-2.77-.07-4.41-.2l-.87-4.68a39 39 0 0 0 4.84.31 4.8 4.8 0 0 0 1.65-.21 1.25 1.25 0 0 0 .73-.82 5.7 5.7 0 0 0 .2-1.78V7.61h-16.95V3Zm-24.37 8.5h13.22v16.79H689.5Zm4.41 12.5h4.56v-8.1h-4.56ZM747.1 14.24v12.5h-16.56v-12.5h-4.92v17.42h25.49v4.64h-30.57V14.24h-4.33V9.51h4.33V2.25h5.08v7.26h4.92V1.25h5v8.26h6.62V1.22h5v8.29h5.32v4.73Zm-5 7.85v-7.85h-6.62v7.85ZM767.3 7.37l3.85 2.3a95 95 0 0 1-8.15 12.7l6.43-1.66v4.32q-3.26.72-9.76 2.22c-.58.11-1.46.3-2.62.56L755.91 23a5.3 5.3 0 0 0 1.63-.58 3.5 3.5 0 0 0 1.11-1.09c1-1.3 2.13-3 3.45-5.12-1.59.29-2.67.5-3.26.64l-2.93.59-1.19-4.6a3.87 3.87 0 0 0 1.66-1.27A70.4 70.4 0 0 0 762.26.66l4.09 1.83c-1 2-2 3.87-3 5.73a53 53 0 0 1-2.86 4.59l4.25-.88c.91-1.58 1.77-3.11 2.56-4.56m-12.46 24q5.71-1.11 14.68-3.25l.28 4.76q-8.25 2.1-14 3.26Zm36.44-5.63c-.11 1.93-.23 3.71-.36 5.36a10.2 10.2 0 0 1-.72 3.53 3.13 3.13 0 0 1-1.76 1.61 12.8 12.8 0 0 1-3.6.57c-.82 0-2.05.08-3.69.08s-2.87 0-3.69-.08a13.2 13.2 0 0 1-3.71-.57 3.06 3.06 0 0 1-1.75-1.66 9.9 9.9 0 0 1-.53-3.71v-16h12.7V7.61h-13.34v-5H789v17.18h-12.77v9.37a6.5 6.5 0 0 0 .18 1.77 1.19 1.19 0 0 0 .69.79 5.6 5.6 0 0 0 1.63.3c1.06 0 1.87.08 2.42.08s1.33 0 2.38-.08a6.4 6.4 0 0 0 1.75-.3A1.27 1.27 0 0 0 786 31a5.2 5.2 0 0 0 .23-1.61l.12-4.84ZM803.78 17.05c.85.66 1.8 1.47 2.88 2.42s2 1.78 2.64 2.47l-2.82 3.29c-.5-.56-1.4-1.48-2.7-2.78v15.13h-4.45V23.05a56.4 56.4 0 0 1-4.08 8.06l-2.74-4.05A57 57 0 0 0 798.42 16h-4.37v-4.5h5.28V7.92l-4.72.72-.48-4.37q2.94-.31 7-1.09c2.69-.52 5-1.05 7.09-1.61l.78 4.29c-1.17.34-2.91.75-5.24 1.23v4.41h4.68V16h-4.68Zm25.8 5 .36 4.69-4.53.47v10.25h-4.8v-9.69L808.46 29l-.35-4.68 12.5-1.31v-22h4.8v21.52ZM812 13.2c1 .72 2.14 1.64 3.49 2.76s2.55 2.18 3.61 3.16l-3.1 3.73q-1.38-1.3-3.47-3.14c-1.39-1.21-2.55-2.18-3.47-2.89Zm5.12.2c-.93-.92-2.09-2-3.48-3.25s-2.52-2.2-3.39-2.86l2.94-3.45c1 .76 2.18 1.72 3.53 2.85s2.51 2.17 3.49 3.1ZM844.86 20.82l-3.37 1.23v10.37a5.38 5.38 0 0 1-1 3.73 4.9 4.9 0 0 1-3.5 1.11c-.66 0-1.68 0-3.05-.12l-.94-4.72a16.5 16.5 0 0 0 2.62.23 1 1 0 0 0 .92-.47 3.2 3.2 0 0 0 .27-1.51v-7c-2 .69-3.53 1.21-4.48 1.55l-1-5.2c2.11-.58 3.94-1.1 5.47-1.55v-6.18H833V7.21h3.85V1.06h4.69v6.15h3.09v5.08h-3.09v4.64q2.41-.83 3.09-1.11Zm21.91 17a46.8 46.8 0 0 1-10.24-6 69.6 69.6 0 0 1-10.79 5.87L843.23 33a68 68 0 0 0 9.65-4.6 34.4 34.4 0 0 1-5.44-9.45h-1.15v-4.67H854v-4h-7.9V5.62h7.9V.86h4.72v4.76h9v4.65h-9v4h7.43V19a43 43 0 0 1-2.74 5.62 22.7 22.7 0 0 1-3.26 4.22 35.5 35.5 0 0 0 8.7 3.93Zm-14.45-18.9a23.6 23.6 0 0 0 4.13 6.79 17.64 17.64 0 0 0 4.69-6.79ZM906.94 9.15H886.1c-.63 1.14-1.2 2.1-1.7 2.86h18.81v20.37a5.94 5.94 0 0 1-1.05 3.91 4.53 4.53 0 0 1-3.55 1.21c-1.83 0-3.64-.08-5.44-.24l-.87-4.37a35 35 0 0 0 4.52.32 1.56 1.56 0 0 0 1.33-.46 2.9 2.9 0 0 0 .34-1.68v-1h-16.4v7.31h-4.68V20.63a58 58 0 0 1-4.76 4.16L870.38 20a45 45 0 0 0 10.13-10.85h-8.42V4.67H883a40 40 0 0 0 1.62-4l5.13.59c-.48 1.22-1 2.36-1.43 3.42h18.61Zm-24.85 9.93h16.4v-2.82h-16.4Zm0 4V26h16.4v-2.91ZM922.86 6.3l-2.58 8.33A17.9 17.9 0 0 1 923 24q0 3.62-1.21 5a4.92 4.92 0 0 1-3.91 1.39 11.5 11.5 0 0 1-1.63-.12L915.4 26a6.7 6.7 0 0 0 1.78.2 1.28 1.28 0 0 0 1.23-.65 5.5 5.5 0 0 0 .36-2.4 11.3 11.3 0 0 0-.67-3.56 16.7 16.7 0 0 0-2-4l2.38-9.2H915v31h-4.25V2.13h12.07Zm23.66 26.39-2.66 4.05a24.9 24.9 0 0 1-8-6.41 28.1 28.1 0 0 1-4.55-9.51h-2.58v10.56l5-2.18.67 4.49c-3 1.13-5.41 2.14-7.26 3l-1 .52a5.4 5.4 0 0 0-.92.43l-2-4.08a2 2 0 0 0 1-.76 3.15 3.15 0 0 0 .2-1.31V2.25h19v18.57h-7.78a28 28 0 0 0 2 4.41 53 53 0 0 0 5.32-4l2.46 3.41a77 77 0 0 1-5.48 3.66 19.9 19.9 0 0 0 6.58 4.39M939 9.47V6.38h-10.27v3.09Zm0 4.21h-10.27v3H939ZM964.46 2.92A48.4 48.4 0 0 1 951.32 22L948 18.24a38.1 38.1 0 0 0 11.9-16.79ZM972.83 21q2 2.86 4.65 7c1.75 2.74 3.25 5.19 4.52 7.36l-4.2 2.5-2.07-3.65-6.23.64-5.66.55-5.69.6-5.2.51-1.43-4.88a5.9 5.9 0 0 0 1.63-.55 4.6 4.6 0 0 0 1.23-1.08 62 62 0 0 0 4.62-7 102 102 0 0 0 4.63-9l4.72 1.86q-1.99 4.14-4.35 8.3c-1.58 2.78-3.11 5.2-4.56 7.26l13.73-1.51c-1.74-2.8-3.16-4.94-4.24-6.43Zm-.19-20a39.3 39.3 0 0 0 5 9.7 29.7 29.7 0 0 0 7.5 6.85l-3.1 4.05a39.6 39.6 0 0 1-8.29-8.12 40.7 40.7 0 0 1-5.52-11ZM988 9.83h26.16v4.6H988ZM1021.3 32a6.4 6.4 0 0 1-1.11 4.19 4.7 4.7 0 0 1-3.65 1.33c-2.28 0-4.4-.1-6.35-.28l-1-4.73a51 51 0 0 0 5.28.4 1.51 1.51 0 0 0 1.43-.67 4.55 4.55 0 0 0 .4-2.23V7h-26.68V2.25h31.68Zm-10.4.08h-20.32V17.13h20.32Zm-15.32-10.3v5.63h10.32v-5.63ZM146.46 48.14 142 53.2a8.78 8.78 0 0 0-5.68-3 8 8 0 0 0-.9 0q-6.69 0-8.6 8.49a33 33 0 0 0-.68 5.85 12.67 12.67 0 0 1 6.86-4.42 9 9 0 0 1 1.92-.23q7.86 0 10.79 6.19a16.9 16.9 0 0 1 1.41 7.2q0 7.36-5.06 11.42a13.67 13.67 0 0 1-19.63-3.21q-4-5.79-4-15.52 0-13.72 7.25-19.52a14.48 14.48 0 0 1 9.23-3.15 15.85 15.85 0 0 1 11.55 4.84m-12.88 33a5.12 5.12 0 0 0 4.95-3.48 11.4 11.4 0 0 0 .79-4.39q0-6.59-4.84-7.31a6.4 6.4 0 0 0-1.24-.12q-4.05.06-7 4.5 1 9.51 6.07 10.69a6.6 6.6 0 0 0 1.27.12ZM178 45.21q-5.11 7.79-15.06 15.36a79 79 0 0 1-8.21 5.4 20 20 0 0 0-4.22-5.4 4 4 0 0 0-.28-.28 63.3 63.3 0 0 0 18.06-14.4 46.7 46.7 0 0 0 5.71-7.82h7.31a60.9 60.9 0 0 0 17.83 17.55 57 57 0 0 0 7.32 3.93 33 33 0 0 0-4.73 6.25 75.7 75.7 0 0 1-18.22-13.95 50.4 50.4 0 0 1-5.51-6.64m-3.6 12.26h7.2v34.26h-7.2ZM255.35 40.66V83c0 3.23-.75 5.4-2.25 6.53a12 12 0 0 1-1.35.73q-2.92 1.29-11.25 1.35H239a25.6 25.6 0 0 0-2.87-7.2l2.42.11q1.29.06 2.58.06h5.12c1.09 0 1.69-.4 1.8-1.18a2.5 2.5 0 0 0 .06-.51v-8.37h-24.65q-2.7 11.25-9.73 17.21a20.4 20.4 0 0 0-4.44-4.33c-.34-.27-.62-.47-.85-.62q8.33-7.09 9.34-21.26.16-2.59.17-5.91v-19Zm-30.76 27.22h23.51v-7H225q-.14 3.86-.41 7m23.51-20.53H225v7h23.1ZM104.64 183.67l4.84-5.76c.56-.7 1-1.19 1.15-1.46a7.7 7.7 0 0 0 .69-1.23 3.9 3.9 0 0 0 .27-1.41 2.33 2.33 0 0 0-.76-1.89 2.86 2.86 0 0 0-1.91-.63 3.08 3.08 0 0 0-2.09.69 3.15 3.15 0 0 0-1.09 1.83h-1.31a4.18 4.18 0 0 1 1.56-2.65 4.54 4.54 0 0 1 2.93-1 4.33 4.33 0 0 1 2.85.94 3.34 3.34 0 0 1 1.11 2.71 4.4 4.4 0 0 1-.33 1.66 8.5 8.5 0 0 1-.78 1.45l-1.25 1.54-.53.62-3.81 4.57h6.91v1.11h-8.45ZM121.87 185.05a6.41 6.41 0 0 1-5.93-3.57 8.93 8.93 0 0 1 0-7.73 6.56 6.56 0 0 1 2.42-2.65 6.63 6.63 0 0 1 3.51-.94 6.9 6.9 0 0 1 3.56.94 6.46 6.46 0 0 1 2.41 2.63 8.3 8.3 0 0 1 .88 3.89 8.2 8.2 0 0 1-.88 3.86 6.56 6.56 0 0 1-2.41 2.64 6.9 6.9 0 0 1-3.56.93m-5.46-7.43a7.36 7.36 0 0 0 .68 3.24 5.17 5.17 0 0 0 4.78 3 5.3 5.3 0 0 0 2.89-.8 5.56 5.56 0 0 0 1.93-2.24 7.2 7.2 0 0 0 .71-3.24 7.1 7.1 0 0 0-.71-3.22 5.47 5.47 0 0 0-2-2.21 5.16 5.16 0 0 0-2.87-.8 5.1 5.1 0 0 0-2.85.8 5.6 5.6 0 0 0-1.93 2.23 7.24 7.24 0 0 0-.63 3.24M130.93 183.67l4.84-5.76c.56-.7.94-1.19 1.15-1.46a8.6 8.6 0 0 0 .68-1.23 3.9 3.9 0 0 0 .27-1.41 2.33 2.33 0 0 0-.76-1.89 2.84 2.84 0 0 0-1.91-.63 3.1 3.1 0 0 0-2.09.69 3.2 3.2 0 0 0-1.09 1.83h-1.31a4.27 4.27 0 0 1 1.56-2.65 4.54 4.54 0 0 1 2.93-1 4.3 4.3 0 0 1 2.85.94 3.34 3.34 0 0 1 1.11 2.71 4.4 4.4 0 0 1-.33 1.66 7.3 7.3 0 0 1-.78 1.45c-.2.25-.61.77-1.25 1.54l-.53.62-3.8 4.57h6.91v1.11h-8.45ZM149 180.84h1.52V182H149v2.83h-1.25V182h-6.26v-1.09l6.16-10.42H149Zm-1.25 0v-8.45l-4.84 8.45ZM153.8 182.91a.94.94 0 0 1 .7.29 1 1 0 0 1 .29.7.94.94 0 0 1-.29.68.93.93 0 0 1-.68.3 1 1 0 0 1-.69-.3 1 1 0 0 1 .67-1.67M163 184.78h-1.23v-12.94l-3.08 2.46V173l3.25-2.53H163ZM174.81 185.05a6.41 6.41 0 0 1-5.93-3.57 8.93 8.93 0 0 1 0-7.73 6.43 6.43 0 0 1 5.93-3.59 6.85 6.85 0 0 1 3.55.94 6.4 6.4 0 0 1 2.42 2.63 8.3 8.3 0 0 1 .88 3.89 8.2 8.2 0 0 1-.88 3.86 6.5 6.5 0 0 1-2.42 2.64 6.84 6.84 0 0 1-3.55.93m-5.46-7.43a7.36 7.36 0 0 0 .68 3.24 5.17 5.17 0 0 0 4.78 3 5.34 5.34 0 0 0 2.89-.8 5.63 5.63 0 0 0 1.93-2.24 7.2 7.2 0 0 0 .7-3.24 7.06 7.06 0 0 0-.7-3.22 5.47 5.47 0 0 0-1.95-2.21 5.16 5.16 0 0 0-2.87-.8 5.1 5.1 0 0 0-2.85.8 5.54 5.54 0 0 0-1.93 2.23 7.24 7.24 0 0 0-.68 3.24M182.42 179v-1h15.32v1ZM199 183.67l4.84-5.76c.56-.7.94-1.19 1.15-1.46a8.6 8.6 0 0 0 .68-1.23 3.9 3.9 0 0 0 .28-1.41 2.34 2.34 0 0 0-.77-1.89 2.84 2.84 0 0 0-1.91-.63 3.1 3.1 0 0 0-2.09.69 3.2 3.2 0 0 0-1.09 1.83h-1.31a4.27 4.27 0 0 1 1.56-2.65 4.56 4.56 0 0 1 2.93-1 4.3 4.3 0 0 1 2.85.94 3.34 3.34 0 0 1 1.11 2.71 4.4 4.4 0 0 1-.33 1.66 7.3 7.3 0 0 1-.78 1.45c-.19.25-.61.77-1.25 1.54l-.52.62-3.81 4.57h6.91v1.11H199ZM216.22 185.05a6.41 6.41 0 0 1-5.93-3.57 8.93 8.93 0 0 1 0-7.73 6.5 6.5 0 0 1 2.42-2.65 6.6 6.6 0 0 1 3.51-.94 6.87 6.87 0 0 1 3.55.94 6.4 6.4 0 0 1 2.42 2.63 8.3 8.3 0 0 1 .88 3.89 8.2 8.2 0 0 1-.88 3.86 6.5 6.5 0 0 1-2.42 2.64 6.87 6.87 0 0 1-3.55.93m-5.46-7.43a7.2 7.2 0 0 0 .68 3.24 5.1 5.1 0 0 0 1.93 2.2 5.2 5.2 0 0 0 2.85.8 5.34 5.34 0 0 0 2.89-.8 5.63 5.63 0 0 0 1.93-2.24 7.2 7.2 0 0 0 .7-3.24 7.06 7.06 0 0 0-.7-3.22 5.47 5.47 0 0 0-1.95-2.21 5.2 5.2 0 0 0-2.87-.8 5.1 5.1 0 0 0-2.85.8 5.54 5.54 0 0 0-1.93 2.23 7.1 7.1 0 0 0-.68 3.24M225.27 183.67l4.84-5.76c.56-.7.95-1.19 1.15-1.46a7.7 7.7 0 0 0 .69-1.23 3.9 3.9 0 0 0 .27-1.41 2.33 2.33 0 0 0-.76-1.89 2.86 2.86 0 0 0-1.91-.63 3.08 3.08 0 0 0-2.09.69 3.15 3.15 0 0 0-1.09 1.83h-1.31a4.18 4.18 0 0 1 1.56-2.65 4.54 4.54 0 0 1 2.93-1 4.33 4.33 0 0 1 2.85.94 3.34 3.34 0 0 1 1.11 2.71 4.4 4.4 0 0 1-.33 1.66 8.5 8.5 0 0 1-.78 1.45l-1.25 1.54-.53.62-3.81 4.57h6.91v1.11h-8.45ZM240.1 185.05a4.2 4.2 0 0 1-2.92-1.05 4.3 4.3 0 0 1-1.45-2.73H237a3.45 3.45 0 0 0 1.11 1.91 3 3 0 0 0 2.07.74 3.5 3.5 0 0 0 1.66-.41 3.1 3.1 0 0 0 1.16-1.21 3.94 3.94 0 0 0 .43-1.87 3.7 3.7 0 0 0-.45-1.88 2.75 2.75 0 0 0-1.17-1.17 3.24 3.24 0 0 0-1.6-.39 3.39 3.39 0 0 0-2.85 1.29h-1.11l.72-7.84h6.77v1.11h-5.66l-.52 5.31a3.2 3.2 0 0 1 1.15-.71 4.6 4.6 0 0 1 1.66-.29 4.2 4.2 0 0 1 2.2.57 4.07 4.07 0 0 1 1.58 1.58 4.67 4.67 0 0 1 .59 2.34 5.05 5.05 0 0 1-.59 2.48 4.06 4.06 0 0 1-1.62 1.64 4.9 4.9 0 0 1-2.43.58M248.14 182.91a1 1 0 0 1 .71.29 1 1 0 0 1 .29.7.94.94 0 0 1-.29.68 1 1 0 0 1-.69.3.9.9 0 0 1-.68-.3 1 1 0 0 1 0-1.38.92.92 0 0 1 .66-.29M258.25 185.05a6.41 6.41 0 0 1-5.93-3.57 8.93 8.93 0 0 1 0-7.73 6.5 6.5 0 0 1 2.42-2.65 6.6 6.6 0 0 1 3.51-.94 6.87 6.87 0 0 1 3.55.94 6.4 6.4 0 0 1 2.42 2.63 8.3 8.3 0 0 1 .88 3.89 8.2 8.2 0 0 1-.88 3.86 6.5 6.5 0 0 1-2.42 2.64 6.87 6.87 0 0 1-3.55.93m-5.46-7.43a7.2 7.2 0 0 0 .68 3.24 5.1 5.1 0 0 0 1.93 2.2 5.2 5.2 0 0 0 2.85.8 5.34 5.34 0 0 0 2.89-.8 5.63 5.63 0 0 0 1.93-2.24 7.2 7.2 0 0 0 .7-3.24 7.06 7.06 0 0 0-.7-3.22 5.47 5.47 0 0 0-1.95-2.21 5.2 5.2 0 0 0-2.87-.8 5.1 5.1 0 0 0-2.85.8 5.54 5.54 0 0 0-1.93 2.23 7.1 7.1 0 0 0-.68 3.24M274.43 180.84H276V182h-1.52v2.83h-1.25V182h-6.27v-1.09l6.17-10.42h1.35Zm-1.25 0v-8.45l-4.84 8.45Z"/></g></g></svg>