<svg xmlns="http://www.w3.org/2000/svg" viewBox="0 0 210.84 78.03"><defs><style>.cls-1{fill:#353535}.cls-2{fill:#b7b7b7}</style></defs><g id="图层_2" data-name="图层 2"><g id="图层_1-2" data-name="图层 1"><path d="M29.19 68.23h20.36v6.2H2.27v-6.2h19.81V41.32h-17v-6.45h41.58v6.45H29.19ZM63.59 29.69l6 1.88a88 88 0 0 1-5 10.81V78h-6.18V52q-.72.87-3.25 3.76a32.3 32.3 0 0 0-3.1-6.15 3 3 0 0 0-.31-.45A48.8 48.8 0 0 0 62 33.6a42 42 0 0 0 1.59-3.91m37.27 14.11H86.08v5.49h13.51v5.59H86.08v5.89h14.17v5.73H86.08V78h-6.29V43.8h-2A54.8 54.8 0 0 1 71 53.91a25.6 25.6 0 0 0-4.47-4.11 1.4 1.4 0 0 1-.25-.21q5.83-5.94 9.75-16c.47-1.22.89-2.42 1.27-3.61l6 1.53A62 62 0 0 1 80.7 38h20.16ZM113.52 56.6l7.72-1.27a31.7 31.7 0 0 0-.2 5.44q-14 2.68-16.15 3.8l-.25.11a35 35 0 0 0-2-5.79 9.25 9.25 0 0 0 4-2.8 5 5 0 0 1 .4-.45 57 57 0 0 0 4.12-4.93q-5.6.66-6.91 1.32a48 48 0 0 0-1.93-5.74c.88-.3 1.91-1.32 3.1-3a53 53 0 0 0 4.87-9.3q1-2.54 1.73-4.67l5.82 2.68a78.3 78.3 0 0 1-7.77 13.61l4.88-.35a44.5 44.5 0 0 0 3.14-5.34l5.39 3.51a84.4 84.4 0 0 1-9.96 13.17m7.06 8.84.66 5.38q-1.67.51-17.21 4.82l-1.17-6.19q3.51-.61 17.72-4.01M152 50.51l-3.61 5a78.4 78.4 0 0 0-12.14-6.66 54.3 54.3 0 0 1-12.84 6.45 20.2 20.2 0 0 0-3.64-5.3 42.24 42.24 0 0 0 16.91-9.34 30 30 0 0 0 2.84-3h-16.3V32h20.37l1.11-.25 4.37 2.28a35.3 35.3 0 0 1-8 11A79 79 0 0 1 152 50.51m-12.73 11.12v9.55h12.14v5.73h-30.83v-5.73H133v-9.55h-9.34V56h25.14v5.64ZM166.46 62l.46 4.57-5.74 1.38-7.11 1.62-1-4.77q4.14-.74 13.39-2.8m12.95-11.47v-4.44a64 64 0 0 1-5.18 4.06 35 35 0 0 0-3.51-5q-.25 3.39-.76 8.27h4s0 .78-.1 2.24q-.7 15-2.08 18.38a5.7 5.7 0 0 1-.76 1.37 5.87 5.87 0 0 1-4 2 52 52 0 0 1-6.35 0 10.2 10.2 0 0 0-1.52-4.92c1.89.17 3.7.25 5.43.25a2.74 2.74 0 0 0 1.83-.66q1.42-1.68 2-13.86H155q1-7.77 1.37-18.23l5.28.3q-.19 4.42-1 13.15h4.06q.87-7.2 1.37-17h-11.71v-5.08h17.17q-.36 7-.87 13.82a40.5 40.5 0 0 0 12.55-12 36 36 0 0 0 2.53-4.37l5.34 1.88c-.17.38-.63 1.21-1.37 2.49A51.5 51.5 0 0 0 201.34 43c.58.34 1.12.65 1.63.92a26 26 0 0 0-2.84 6.14 47 47 0 0 1-4.73-3.5v4Zm16.6 3 5.64 1.17q-3.85 10.72-6.3 15.85h6.2v5.18h-27v-5.16h15.59a91 91 0 0 0 5.69-16.41 5 5 0 0 0 .17-.61Zm-12.39 12.7-5 1.37a75 75 0 0 0-2.69-12.24l4.68-1.27a73.6 73.6 0 0 1 3.01 12.16Zm-3.4-20.92H194a78 78 0 0 1-7.33-7.31 61.4 61.4 0 0 1-6.45 7.33Zm11.48 20.13-4.93.76a112 112 0 0 0-1.93-12.29l4.67-.66a92 92 0 0 1 2.19 12.19" class="cls-1"/><path d="m12.38.26 4.32 14.07 4-14h2.06l-5.3 17.57h-1.72L11.42 4.25 7.3 17.86H5.62L0 .29h2.26l4.32 14 4-14.07ZM24.17 4.27A7.6 7.6 0 0 1 27 1.1 7.74 7.74 0 0 1 31.08 0a7.57 7.57 0 0 1 4.07 1.12A7.66 7.66 0 0 1 38 4.28a10.5 10.5 0 0 1 1 4.77 10.4 10.4 0 0 1-1 4.79A7.8 7.8 0 0 1 35.14 17a7.5 7.5 0 0 1-4.06 1.12A7.74 7.74 0 0 1 27 17a7.6 7.6 0 0 1-2.84-3.17 10.6 10.6 0 0 1-1-4.8 10.54 10.54 0 0 1 1.01-4.76m1.91 8.47a5.55 5.55 0 0 0 2 2.51 5.15 5.15 0 0 0 3 .9 5.1 5.1 0 0 0 3-.9 5.7 5.7 0 0 0 2-2.51 9.1 9.1 0 0 0 .7-3.69 9.2 9.2 0 0 0-.7-3.72 5.65 5.65 0 0 0-2-2.5 5.53 5.53 0 0 0-6 0 5.65 5.65 0 0 0-2 2.5 9.2 9.2 0 0 0-.7 3.72 9.3 9.3 0 0 0 .7 3.69M55.06 17.86h-2.62l-5.09-7.2h-3.48v7.2h-2.13V.29h5.4a7.44 7.44 0 0 1 3.2.65 5 5 0 0 1 2.18 1.83 4.85 4.85 0 0 1 .78 2.73 4.67 4.67 0 0 1-1 3 5.47 5.47 0 0 1-2.71 1.82ZM43.87 2.16v6.62h3a4.7 4.7 0 0 0 3.13-.9 3 3 0 0 0 1.05-2.38A3.06 3.06 0 0 0 50 3.08a4.66 4.66 0 0 0-3.11-.92ZM62.93 7.78l7.73 10.08h-2.74l-6.48-8.5-2.76 2.9v5.6h-2.14V.29h2.14v9.33L67.27.29h2.79ZM87 9.72h-7.73V16h8.91v1.9h-11V.26h10.73v1.9h-8.64v5.66H87ZM104.09.29 97.87 9l6.38 8.91h-2.61l-5.09-7.18-5 7.18H89L95.42 9 89.21.29h2.64l4.89 7 4.88-7ZM111.43.29a7.1 7.1 0 0 1 3.18.69 5.4 5.4 0 0 1 2.2 1.94 5.16 5.16 0 0 1 .79 2.82 5.2 5.2 0 0 1-.78 2.82 5.3 5.3 0 0 1-2.18 1.92 7.35 7.35 0 0 1-3.21.68h-3.26v6.7H106V.29Zm-.26 9a4.37 4.37 0 0 0 3.09-1 3.3 3.3 0 0 0 1.08-2.55 3.36 3.36 0 0 0-1.08-2.57 4.37 4.37 0 0 0-3.09-1h-3v7.12ZM129.55 9.72h-7.73V16h8.91v1.9h-11V.26h10.77v1.9h-8.64v5.66h7.73ZM146.71 17.86h-2.62l-5.09-7.2h-3.48v7.2h-2.14V.29h5.4a7.5 7.5 0 0 1 3.22.65 5.1 5.1 0 0 1 2.18 1.83A4.85 4.85 0 0 1 145 5.5a4.67 4.67 0 0 1-1 3 5.4 5.4 0 0 1-2.71 1.82Zm-11.18-15.7v6.62h3a4.68 4.68 0 0 0 3.1-.9 2.93 2.93 0 0 0 1.07-2.38 3 3 0 0 0-1.07-2.42 4.63 4.63 0 0 0-3.1-.92ZM150.33 17.86h-2.13V.29h2.13ZM163.77 9.72h-7.72V16H165v1.9h-11V.26h10.78v1.9h-8.64v5.66h7.72ZM169.41.29 179.18 14V.29h2v17.57h-1.8l-9.75-13.78v13.78h-2V.29ZM196.05 13.49l1.73 1a5.73 5.73 0 0 1-2.3 2.66 6.73 6.73 0 0 1-3.6 1 7.44 7.44 0 0 1-4.06-1.15 8.1 8.1 0 0 1-2.88-3.22 10.2 10.2 0 0 1-1.05-4.7 10.3 10.3 0 0 1 1.05-4.71 8.07 8.07 0 0 1 2.88-3.2A7.5 7.5 0 0 1 191.88 0a6.73 6.73 0 0 1 3.6 1 5.73 5.73 0 0 1 2.3 2.66l-1.73 1A4.44 4.44 0 0 0 191.83 2a5.1 5.1 0 0 0-3 .89 5.73 5.73 0 0 0-2 2.49 9.15 9.15 0 0 0-.71 3.7 9.2 9.2 0 0 0 .71 3.71 5.7 5.7 0 0 0 2 2.5 5.1 5.1 0 0 0 3 .89 4.44 4.44 0 0 0 4.22-2.69M209.66 9.72h-7.73V16h8.91v1.9h-11V.26h10.77v1.9h-8.64v5.66h7.73Z" class="cls-2"/></g></g></svg>