<svg xmlns="http://www.w3.org/2000/svg" viewBox="0 0 140.09 66.77"><defs><style>.cls-1{fill:#282f35;}</style></defs><g id="图层_2" data-name="图层 2"><g id="图层_1-2" data-name="图层 1"><path class="cls-1" d="M28.82,14.1a3,3,0,0,0-3.61,1.71,6.14,6.14,0,0,0-.46,2.1c-.05,1-.08,1.93-.09,2.9a1.6,1.6,0,0,1-.34,1,8.55,8.55,0,0,1-3,2.51,13.83,13.83,0,0,1-6.71,1.5,11,11,0,0,1-3.36-.58,1.63,1.63,0,0,1-.91-.67c-.36-.6-.75-1.19-1.07-1.81a19.66,19.66,0,0,0-1.51-2.83.46.46,0,0,1,0-.49A4.25,4.25,0,0,1,9,17.64a8.56,8.56,0,0,1,3-1.67,27.82,27.82,0,0,1,4.85-1.15A3,3,0,0,0,18,14.41l1.81-1.18c1.78-1.18,1.22-.94,3.21-.91.83,0,1.65.07,2.48.1a1.84,1.84,0,0,0,.62-.06c1-.27,2-.55,3-.84a8.5,8.5,0,0,0,1.13-.43,2.53,2.53,0,0,0,1.42-1.55c.19-.6.27-1.23.41-1.84a1.52,1.52,0,0,1,.23-.57c.78-1,1.58-2,2.39-3a12.67,12.67,0,0,1,1-1,5,5,0,0,1,4.8-1.35c1.23.28,2.43.68,3.64,1a.57.57,0,0,1,.42.48,1.41,1.41,0,0,1-.15,1.17,8.23,8.23,0,0,1-.81,1c-.36.36-.75.68-1.11,1a3.16,3.16,0,0,0-.88,1.42c-.05.22-.05.44-.09.71L43,8.35a12.54,12.54,0,0,1,3.67-.09,10.08,10.08,0,0,1,5.48,2.59A6.59,6.59,0,0,1,53,12a9.18,9.18,0,0,1-1.34,1.73,11.19,11.19,0,0,1-4.57,3.09,5.5,5.5,0,0,1-3.67.05c-.45-.16-.45-.16-.47-.64a6.77,6.77,0,0,1,0-.78,1.78,1.78,0,0,0-.62-1.49,11.08,11.08,0,0,0-2-1.6,3.6,3.6,0,0,0-5.07,1.3C34.15,15.41,33,17.19,31.94,19a15.35,15.35,0,0,0-2,5.08c-.11.6-.17,1.21-.25,1.83a2.57,2.57,0,0,0,1.23,0,8.09,8.09,0,0,0,2.5-.78L35.77,24a1.76,1.76,0,0,1,.55-.17c1.55-.16,3.1-.33,4.66-.46a8.19,8.19,0,0,1,3.73.47,1.62,1.62,0,0,1,.81.63c.35.5.74,1,1.1,1.48a1.15,1.15,0,0,0,.93.49c1.2.1,2.41.19,3.61.36a12,12,0,0,1,4.12,1.37,8.68,8.68,0,0,1,3.11,2.94,1.22,1.22,0,0,1,.2.79,6.92,6.92,0,0,1-1.13,3.41c-.49.74-1,1.48-1.54,2.2a3,3,0,0,0-.56,1.28,27.86,27.86,0,0,1-3.28,8.56,42.13,42.13,0,0,1-6,8c-1.39,1.46-2.85,2.85-4.3,4.26a6.88,6.88,0,0,1-1.07.76,43,43,0,0,1-8.26,4,11.84,11.84,0,0,1-1.95.4,9.91,9.91,0,0,1-4-.2,1.54,1.54,0,0,1-1.1-.63c.17-.08.32-.17.48-.23l3.58-1.22a4.19,4.19,0,0,0,.59-.22,43,43,0,0,0,9.2-6.26,19.36,19.36,0,0,0,3.9-4.74s0,0,0-.05c.66-1.39,1.34-2.78,2-4.18a24.32,24.32,0,0,0,1.4-4.41c.12-.49.19-1,.29-1.5a11.56,11.56,0,0,0,.46-4,4.27,4.27,0,0,1,.41-2.11c.26-.75.59-1.47.82-2.22a5.84,5.84,0,0,0,.21-1.45A1.44,1.44,0,0,0,48,30.19a3,3,0,0,0-1.72-.6c-.66,0-1.33,0-2,0a.74.74,0,0,0-.52.2,10.25,10.25,0,0,0-3.18,4.44,1.82,1.82,0,0,1-.37.56c-1,1.11-2,2.18-3,3.31-.51.6-.92,1.28-1.37,1.93a.69.69,0,0,0,0,.82,3.38,3.38,0,0,1,.26,2.26c-.1.81-.23,1.63-.29,2.45a2.21,2.21,0,0,0,.9,2,.68.68,0,0,0,1,.08,2,2,0,0,0,.85-.91c.22-.44.4-.9.62-1.34a.78.78,0,0,1,.32-.37,11.28,11.28,0,0,1,2.8-.62,1.84,1.84,0,0,1,.06.43c0,.78-.09,1.57-.16,2.36a2.43,2.43,0,0,0,.09.92,6.1,6.1,0,0,1,.21,1.29.54.54,0,0,1-.19.4c-.46.38-.94.73-1.42,1.07a.67.67,0,0,1-.4.11,25,25,0,0,1-6.71-.9,8.42,8.42,0,0,1-4.28-2.81.51.51,0,0,0-.51-.2,4.5,4.5,0,0,0-2.28.71c-.63.41-1.24.86-1.86,1.29a2.48,2.48,0,0,1-.54.32C20.64,50.59,17,51.84,13.35,53A30.44,30.44,0,0,1,7.23,54.3a18.21,18.21,0,0,1-3,.14A5.78,5.78,0,0,1,1,53.27a2.49,2.49,0,0,1-.95-1.7,9,9,0,0,1,.11-2.78,1.87,1.87,0,0,1,.24-.52c.64-1.31,1.3-2.61,1.92-3.92a8.21,8.21,0,0,0,.48-1.45,2.5,2.5,0,0,1,.42-.83,30.67,30.67,0,0,1,7.68-6.91,64.49,64.49,0,0,1,8.17-4.34l4-1.84a1.41,1.41,0,0,0,.65-.58,13.77,13.77,0,0,0,1.43-3.77c.33-1.26.67-2.51,1-3.75a5.17,5.17,0,0,1,.51-1.21,42.54,42.54,0,0,0,1.9-4.32A1.9,1.9,0,0,0,28.82,14.1ZM26,42.34c-.35-2.27-.89-4.48-1.45-6.69a4.5,4.5,0,0,1-.12-1.09,4,4,0,0,0-.12-1.14A.93.93,0,0,0,23,32.85l-5.41,2.34a34.36,34.36,0,0,0-4.9,2.43,12.09,12.09,0,0,0-3.58,3.29,1.65,1.65,0,0,0-.3.87c-.07,1-.16,2-.29,3a5.69,5.69,0,0,1-.89,2.61.45.45,0,0,0-.1.29,7.18,7.18,0,0,0,.1,1,.65.65,0,0,0,.24.45,2.33,2.33,0,0,0,1.9.53,34.79,34.79,0,0,0,7.13-2.67c3-1.47,5.89-3,8.84-4.56A1.92,1.92,0,0,0,26,42.34Zm3.81-6.54a8.52,8.52,0,0,0,.34,1.41c.2.53.56.54.87.06.51-.82,1-1.64,1.51-2.47A10.16,10.16,0,0,0,33.92,31a.73.73,0,0,0,0-.36,1.06,1.06,0,0,0-1.31-.35c-.51.45-1,.92-1.51,1.38a.92.92,0,0,0-.19.25A11.36,11.36,0,0,0,29.81,35.8Z"/><path class="cls-1" d="M125.63,3.19a3,3,0,0,1-.45,1.41c-.31.53-.66,1-1,1.53-.47.66-1,1.28-1.45,1.94a4.68,4.68,0,0,0-.84,2A3.76,3.76,0,0,0,122,11.8a.42.42,0,0,0,.5.35,10.27,10.27,0,0,0,1.13-.23c.39-.11.76-.29,1.14-.42a10.59,10.59,0,0,1,1.35-.43,2.38,2.38,0,0,1,2.27.43,18.41,18.41,0,0,0,1.9,1.33.73.73,0,0,1,.36.68,1.63,1.63,0,0,1-.89,1.55,5.87,5.87,0,0,1-2.32.82c-1.26.18-2.54.35-3.81.41a8.75,8.75,0,0,0-4,1.29,2.07,2.07,0,0,0-.39.34,18.77,18.77,0,0,0-3.12,4.29,38.75,38.75,0,0,0-4.51,12.9,18.45,18.45,0,0,0-.15,5.09.93.93,0,0,0,.69.91,4.47,4.47,0,0,0,2.8.1c.67-.19,1.34-.41,2-.63a7.29,7.29,0,0,1,2.58-.4,28.86,28.86,0,0,1,7.89,1.17l1.3.44a.52.52,0,0,1,.4.49c0,.23,0,.46,0,.69a.66.66,0,0,1-.39.67c-.65.37-1.29.78-1.94,1.17-1.78,1.08-3.58,2.14-5.35,3.26a2.31,2.31,0,0,1-2,.3,10.55,10.55,0,0,1-1.62-.61c-.64-.29-1.26-.62-1.9-.92a3.67,3.67,0,0,0-2.1-.25,60.74,60.74,0,0,0-10.81,2.66,4.94,4.94,0,0,1-2.12.22c-1.36-.15-2.72-.27-4.08-.39-.65-.07-1.3-.1-1.94-.19a4.57,4.57,0,0,0-2.23.26c-.93.36-1.85.74-2.77,1.13s-2,.87-3,1.26a7.66,7.66,0,0,1-1.43.35,2.71,2.71,0,0,1-1.43-.14c-1.24-.44-2.51-.8-3.76-1.2-.3-.1-.6-.21-.89-.33a1.47,1.47,0,0,1-1-1.49c0-.75.16-1.49.25-2.24,0-.21.12-.41.14-.62a2,2,0,0,1,1.08-1.46,1,1,0,0,1,.45-.12c1.9-.18,3.81-.33,5.71-.53,2.25-.24,4.5-.52,6.75-.79.61-.07,1.21-.18,1.82-.23a.58.58,0,0,0,.56-.47,3.21,3.21,0,0,0,.1-.62A7.54,7.54,0,0,0,95,39.16a14.23,14.23,0,0,0-1.19-3.08,1.51,1.51,0,0,1-.13-.61c-.08-.85-.11-1.71-.24-2.56a5.42,5.42,0,0,0-.49-1.38.94.94,0,0,0-1.42-.28c-1.1,1-2.21,2-3.27,3-2,1.92-3.91,3.89-5.9,5.79a33,33,0,0,1-7.06,5.39,11.15,11.15,0,0,0-2.87,2.08l-.2.18a3.59,3.59,0,0,1-3.46.87,8.22,8.22,0,0,1-3.85-2.06,3.7,3.7,0,0,1-.49-.55A1.91,1.91,0,0,1,64.09,44a11.89,11.89,0,0,1,.52-1.15c.31-.61.66-1.2,1-1.82a.65.65,0,0,1,.66-.41l2.73.06a13,13,0,0,0,3.41-.17,4.93,4.93,0,0,0,1.18-.44,1.81,1.81,0,0,0,.89-1.13,1.17,1.17,0,0,0-.28-1.24,17.6,17.6,0,0,1-1.58-2,4.5,4.5,0,0,0-2.76-1.95.56.56,0,0,1-.5-.52,6.56,6.56,0,0,1-.11-.89,1.5,1.5,0,0,1,.9-1.48,9.15,9.15,0,0,1,1-.4c.38-.13.76-.26,1.15-.37a1.9,1.9,0,0,0,1.18-1,9,9,0,0,0,1-2.94c.11-.6.15-1.22.26-1.82a.64.64,0,0,0-.25-.69c-.4-.31-.79-.64-1.22-.92s-.92-.51-1.38-.76a10,10,0,0,1-1-.6,4.28,4.28,0,0,1-.75-.66c-.55-.66-.5-1,.2-1.43a5.18,5.18,0,0,1,1.84-.75c.65-.15,1.31-.28,2-.42.24,0,.47-.13.71-.17a3.76,3.76,0,0,0,2.75-2.23l.57-1.19c.15-.32.29-.64.46-.94a3.36,3.36,0,0,1,2.7-1.86,8.86,8.86,0,0,1,2.52.05,2.77,2.77,0,0,1,2.37,2.65c0,.21,0,.42,0,.63a2.21,2.21,0,0,1-.43,1.42c-.66,1-1.27,2.1-1.92,3.15-.27.43-.58.83-.87,1.25a.85.85,0,0,1-.69.42c-.54,0-1.08.08-1.62.09-1.26,0-1.61.32-1.78,1.57a6.2,6.2,0,0,1-.23.69,7.16,7.16,0,0,0-.38,1.19,1,1,0,0,0,.55,1.1,6.72,6.72,0,0,0,1.22.48c.7.21,1.43.36,2.13.57a1.08,1.08,0,0,1,.76,1.56,3.28,3.28,0,0,1-.68,1.1,23.12,23.12,0,0,1-2,1.74c-.58.46-1.23.82-1.82,1.26a2.63,2.63,0,0,0-1.07,2.24,1.36,1.36,0,0,0,1.37,1.33,3.63,3.63,0,0,0,2.49-.64A106.24,106.24,0,0,0,90.83,28c.52-.48,1-1,1.53-1.45A.72.72,0,0,0,92.6,26a2.68,2.68,0,0,0-.49-1.53.68.68,0,0,0-.61-.32A17.11,17.11,0,0,1,89.35,24,4,4,0,0,1,88,23.52a1.6,1.6,0,0,1-.86-1.67,3.49,3.49,0,0,1,.48-1.49.87.87,0,0,1,.45-.32,11,11,0,0,1,2.73-.5,12,12,0,0,0,3.36-.62A1.16,1.16,0,0,0,95,18.1a66.07,66.07,0,0,1,2.16-6.6,19.11,19.11,0,0,1,1.66-3.4c.4-.63.9-1.21,1.36-1.81a.66.66,0,0,1,.74-.24c.22.06.45.09.67.16a3.07,3.07,0,0,1,2.35,3,11.35,11.35,0,0,1-.38,3.12c-.27,1.18-.56,2.35-.82,3.54-.08.37-.09.75-.14,1.17l.57.08a11.37,11.37,0,0,0,5.25-.9c1.24-.48,2.45-1,3.68-1.56.56-.24,1.12-.5,1.69-.72a1.45,1.45,0,0,0,.74-.64,6.53,6.53,0,0,0,.85-2.68c.09-.68.16-1.36.23-2a6.58,6.58,0,0,1,.55-2c.49-1,1-2.11,1.46-3.14a7.94,7.94,0,0,1,1.61-2.21A4,4,0,0,1,121.8,0a1.15,1.15,0,0,1,1,.38c.59.68,1.23,1.31,1.86,2C125,2.61,125.27,2.87,125.63,3.19Zm-27,30c.77.08,1-.05,1.23-.68A42,42,0,0,1,102,27.28c.55-1.05,1.19-2.06,1.78-3.09a.56.56,0,0,1,.61-.31c.44.05.88.05,1.31.12a2.2,2.2,0,0,1,1.61,1c.31.48.6,1,.89,1.48s.5.5.83.09c.58-.7,1.16-1.41,1.7-2.14a7.39,7.39,0,0,0,.77-1.37,3.45,3.45,0,0,0-.08-2.91c-.07-.13-.19-.31-.3-.32a7.55,7.55,0,0,0-1.83-.09c-1.32.21-2.62.51-3.92.8a19.05,19.05,0,0,0-4,1.27,8.18,8.18,0,0,0-1.45.94,1.21,1.21,0,0,0-.37.67c-.23,1-.42,2-.61,3a21.1,21.1,0,0,0-.46,5.49C98.45,32.34,98.52,32.78,98.58,33.21Zm3.28,7h0c0,.42,0,.84,0,1.26s.12.58.56.54a12.85,12.85,0,0,0,1.52-.17,4.54,4.54,0,0,0,3.63-2.77,9,9,0,0,0,.55-2,59.94,59.94,0,0,0,.45-6.14.83.83,0,0,0-.19-.51,1.82,1.82,0,0,0-2.29-.62,14.68,14.68,0,0,0-2.81,1.65,1.57,1.57,0,0,0-.71,1.72c.07.39.06.4.45.45.81.1,1.64.17,2.45.32a7.52,7.52,0,0,1,1.6.47c.51.23.57.61.28,1.09a1,1,0,0,1-.12.17,3.43,3.43,0,0,1-2.62,1.44.74.74,0,0,0-.21,0,2.94,2.94,0,0,0-1.5.59c-.29.23-.56.49-.85.71a.62.62,0,0,0-.23.55C101.87,39.42,101.86,39.83,101.86,40.23Zm-3.7.12c.27-.06.6,0,.73-.38a15.68,15.68,0,0,0,.59-1.62c.19-.71-.08-1.08-.8-1.24C97.57,38.11,97.29,38.65,98.16,40.35Z"/><path class="cls-1" d="M113.24,59.23a14.86,14.86,0,0,0-5.54.74,1.9,1.9,0,0,1-.67.09c-.32,0-.63,0-1,0s-.44,0-.59-.45a4.41,4.41,0,0,1-.12-2.39c.15-.66.33-1.32.49-2a.7.7,0,0,1,.38-.47c.49-.31,1-.61,1.46-.93a3.87,3.87,0,0,0,1.56-1.74.77.77,0,0,1,.39-.31,2.61,2.61,0,0,1,2,0c.49.23,1,.52,1.42.8s.82.54,1.25.77a1.78,1.78,0,0,0,1.76,0,.85.85,0,0,1,.76,0,4.44,4.44,0,0,1,2.56,2.5,2.44,2.44,0,0,1,.13.93,1.16,1.16,0,0,1-.7,1.08c-.87.42-1.71.89-2.58,1.31a1.41,1.41,0,0,1-.69.17C114.82,59.31,114,59.26,113.24,59.23Z"/><path class="cls-1" d="M86.74,57.3c0-.61.07-1.23.09-1.84a.88.88,0,0,1,.38-.71,4.86,4.86,0,0,1,2.41-1,12,12,0,0,1,4.34.27c1.63.35,3.23.79,4.85,1.18.29.06.44.19.46.48s.08.52.08.78a1.66,1.66,0,0,1-1.12,1.68,6.43,6.43,0,0,1-1.63.37c-1.18.11-2.38.13-3.57.23a11.92,11.92,0,0,0-1.86.34,2.76,2.76,0,0,0-1.56,1c-.12.15-.23.25-.44.2a8.1,8.1,0,0,1-2.1-.64.65.65,0,0,1-.42-.7c.06-.56.06-1.12.08-1.68Z"/><path class="cls-1" d="M140.09,61.36a5.42,5.42,0,1,1-5.42-5.43A5.4,5.4,0,0,1,140.09,61.36Zm-5.47,4.75a4.77,4.77,0,1,0-4.71-4.79A4.76,4.76,0,0,0,134.62,66.11Z"/><path class="cls-1" d="M135.46,61.22a15.29,15.29,0,0,0,2.35,2.7,2.79,2.79,0,0,1-1.21.08c-.12,0-.25-.17-.35-.29-.57-.71-1.14-1.42-1.7-2.14a.53.53,0,0,0-.71-.2c0,.59,0,1.18,0,1.77a.51.51,0,0,0,.46.55.56.56,0,0,1,.2.14s0,.07,0,.18c-.78,0-1.57,0-2.48,0,.14-.17.18-.29.24-.3.45-.07.56-.37.56-.76V59.27c0-.37-.09-.66-.48-.78-.07,0-.11-.11-.2-.22a1.46,1.46,0,0,1,.34-.08c.93,0,1.86,0,2.79,0a2.57,2.57,0,0,1,.86.2,1.38,1.38,0,0,1,.05,2.51C136,61,135.76,61.1,135.46,61.22Zm-1.61-.38a2.07,2.07,0,0,0,1.28-.09,1,1,0,0,0,.71-1,1.1,1.1,0,0,0-.68-1.08,1.54,1.54,0,0,0-1.31,0Z"/></g></g></svg>