<svg xmlns="http://www.w3.org/2000/svg" viewBox="0 0 79.21 35.27"><defs><style>.cls-1{fill:#6093f8;}</style></defs><g id="图层_2" data-name="图层 2"><g id="图层_1-2" data-name="图层 1"><path class="cls-1" d="M22,18.35s4-.8,4.51-.32l1.93,14.33-3.22.4Zm1.53-7.89h2.26L26.4,16H24.31l-.81-5.56ZM20.93,11,23,10.85l.64,5.43-1.83.3L20.93,11ZM26.4,4.26s4.59-.48,4.75,0l2.25,27H29.9Zm8.05,14.25h4.43V33.08H35.66L34.45,18.51Zm2.21-7.4h2.22v5.47H36.66Zm-2.69,0H35.9v5.47H34Zm-26.64,11L6.12,0C5.4.64,0,2.41,0,2.41,1.85,8.77,4.35,35.25,4.35,35.25c12.67.41,18-5.14,18.27-6.44a4.83,4.83,0,0,0,0-2.33c-3.06-5.07-15.29-4.35-15.29-4.35Zm3.82,9.58-.79-6.3,5.85,2.46ZM63,26.48c-3.06-5.07-15.3-4.35-15.3-4.35L46.44,0c-.72.64-6.11,2.41-6.11,2.41,1.85,6.36,4.35,32.84,4.35,32.84,12.67.41,18-5.14,18.27-6.44A4.83,4.83,0,0,0,63,26.48ZM51.48,31.72l-.8-6.31,5.86,2.47ZM62.3,18.35s3.94-.8,4.51-.32l1.93,14.33-3.22.4Zm1.53-7.89h2.25L66.73,16H64.64l-.81-5.56ZM61.25,11l2.1-.18L64,16.28l-1.83.3Zm5.48-6.77s4.59-.48,4.75,0l2.25,27h-3.5Zm8,14.25H79.2V33.08H76ZM77,11.11h2.22v5.47H77Zm-2.7,0h1.94v5.47H74.29Z"/></g></g></svg>