<svg xmlns="http://www.w3.org/2000/svg" xmlns:xlink="http://www.w3.org/1999/xlink" viewBox="0 0 339.74 69.2"><defs><style>.cls-1{fill:url(#未命名的渐变_7);}.cls-2{fill:#353535;}.cls-3{fill:#b7b7b7;}</style><linearGradient id="未命名的渐变_7" x1="-4862.31" y1="-1591.93" x2="-4806.41" y2="-1591.93" gradientTransform="matrix(-0.84, -0.55, -0.55, 0.84, -4891.18, -1278.71)" gradientUnits="userSpaceOnUse"><stop offset="0" stop-color="#fff" stop-opacity="0"/><stop offset="1" stop-color="#6093f8"/></linearGradient></defs><g id="图层_2" data-name="图层 2"><g id="图层_1-2" data-name="图层 1"><path class="cls-1" d="M27.92,55.9A27.94,27.94,0,0,1,4.55,12.7,27.94,27.94,0,1,1,27.92,55.9ZM28,7a21,21,0,0,0-17.59,9.52h0A20.92,20.92,0,1,0,28,7Z"/><path class="cls-2" d="M50.13,53.66,53.31,55a30.35,30.35,0,0,1-5.05,6.65q1.34,3.72,2.67,3.75c.64,0,1-1.67,1.16-5v-.06a8.23,8.23,0,0,0,3,2.09c-.31,3.07-.94,5-1.87,5.85a3.81,3.81,0,0,1-2.58.8c-2.08,0-3.83-1.64-5.23-4.81A31.85,31.85,0,0,1,39.73,68a12.57,12.57,0,0,0-2.41-2.91,31.63,31.63,0,0,0,6.81-4.28,55.21,55.21,0,0,1-1.55-8.17H36.4v3.48l2.35-.45c1-.2,1.8-.34,2.32-.42l.3,3.3-5,1v5.2c0,1.63-.38,2.71-1.16,3.24a2.29,2.29,0,0,1-.5.3,14.28,14.28,0,0,1-5.47.68A12.42,12.42,0,0,0,28,65.34a39.14,39.14,0,0,0,4,0c.47-.08.72-.29.74-.63V60.32l-2.47.5-3,.59-.89-3.65c2-.32,4.15-.66,6.33-1V52.65H27V49.2h5.77V45.76c-1.29.21-2.91.43-4.87.65a12.52,12.52,0,0,0-1-3,68.85,68.85,0,0,0,12.09-2.56l2.44,3.06c-1.55.46-3.2.87-5,1.22v4.1h5.83q-.3-3.54-.36-8.32h3.8A75.94,75.94,0,0,0,46,49.2h8.29v3.45h-7.9c.26,1.88.54,3.6.86,5.14A26.42,26.42,0,0,0,50.13,53.66ZM54,46.29l-2.94,2.05a21.36,21.36,0,0,0-3.71-4.49l-.6-.53,2.74-1.87A23.91,23.91,0,0,1,54,46.29Z"/><path class="cls-2" d="M81.88,44.45V54.94H58.61V44.45H64A13.11,13.11,0,0,0,63,43c-.39-.51-.78-1-1.18-1.45l3.21-1.22c.22.23.45.5.7.78s.48.58.71.88l.64.86q.3.42.51.78l-2.08.8H72.4c.48-.62.95-1.29,1.43-2s.88-1.43,1.22-2.06l3.71.95L77.47,43c-.43.52-.85,1-1.27,1.5Zm-21.22,12H80V68.93H76.12V67.69H64.41v1.36H60.66Zm1.55-4.25h6.18V47.15H62.21Zm2.76-5a15.86,15.86,0,0,1,1.44,1.74,9.31,9.31,0,0,1,1,1.71l-2.26,1.42a10.22,10.22,0,0,0-1-1.76,17.07,17.07,0,0,0-1.43-1.83ZM64.41,59.1v1.66H76.12V59.1ZM76.12,65V63.2H64.41V65Zm2-17.83H71.78v5.08h6.33Zm-5.53,3.78c.39-.52.83-1.12,1.29-1.82A20.86,20.86,0,0,0,75,47.24l2.49,1.22c-.47.65-1,1.3-1.44,1.93s-.93,1.18-1.32,1.64Z"/><path class="cls-2" d="M98.65,44.8h14.83v3.48H97.2a35.41,35.41,0,0,1-3.57,6V69H90V58.41a26.49,26.49,0,0,1-2.68,2.11,20.75,20.75,0,0,0-1.78-3.47,22.73,22.73,0,0,0,7.57-8.77H86.44V44.8h8.23c.61-1.76,1.06-3.17,1.34-4.22l3.8.9C99.59,42.25,99.21,43.36,98.65,44.8ZM106.17,58v7h7.22v3.33H95.14V64.92h7.37V58H96.33V54.64h6.18v-5h3.66v5h6V58Z"/><path class="cls-2" d="M122.67,51.88V62.34c1.31.75,2,1.16,2.14,1.21,1.51.86,4,1.29,7.52,1.31h.6a75,75,0,0,0,10.6-.71l.33-.06a12.76,12.76,0,0,0-1.1,4c-3.53.24-6.86.36-10,.36a19.7,19.7,0,0,1-8.26-1.4l-.21-.12c-.3-.16-.72-.39-1.25-.71a5,5,0,0,0-1.87-.83c-.74,0-1.9,1.21-3.51,3.56l-2.55-3.59a15.52,15.52,0,0,1,4.1-2.94V55.21h-3.45V51.88Zm.27-5.38-3.09,2.17a25.3,25.3,0,0,0-4-4.85l-.12-.11,2.85-1.91A27.5,27.5,0,0,1,122.94,46.5Zm1.22,4.69L126.65,49l6.45,4.52a21.54,21.54,0,0,0,2.56-5.2H123.27V45h8a35.4,35.4,0,0,0-1.54-3.5l3.5-1a18,18,0,0,1,2,4.34l-.62.2h8.5v3.39h-3.72a28.46,28.46,0,0,1-3.44,7.31,73.23,73.23,0,0,1,6.38,5.23l-2.7,2.62a73.33,73.33,0,0,0-5.94-5.21,23,23,0,0,1-8.29,5.29,10.8,10.8,0,0,0-1.84-2.85l-.24-.3a20.74,20.74,0,0,0,7.58-4.3C128.26,54.12,126,52.48,124.16,51.19Z"/><path class="cls-2" d="M159.47,52.62l.09,3.3q-3,.39-14.08,1.69L145.12,54l1.66-.15V43.71h3.36v9.86l1.73-.18V40.64h3.59v4.55h3.77v3.24h-3.77V53ZM145.54,68.43V64.8H173v3.63Zm3.5-6.51V58.47h20.68v3.45ZM169,56.63h-4.1c-1.9,0-3.14-.42-3.71-1.25a6.35,6.35,0,0,1-.69-3.44V40.64h3.63v5.29a38.42,38.42,0,0,0,5.5-2.37l2.7,2.85a62.81,62.81,0,0,1-8.2,2.79v2.74c0,.69.13,1.1.39,1.21a2.31,2.31,0,0,0,.89.12h3.24a1,1,0,0,0,1-.74,16.92,16.92,0,0,0,.32-2.88A9.12,9.12,0,0,0,173.2,51q-.33,3.81-1.63,4.88A4.25,4.25,0,0,1,169,56.63Z"/><path class="cls-2" d="M180.94,45.28l4,1.19a28.6,28.6,0,0,1-5.85,8.14,18.46,18.46,0,0,1-1.4,1.22,19.54,19.54,0,0,0-2.94-2.56,19.89,19.89,0,0,0,6.21-8Zm11.2,13.13,3.42-1.63A57.71,57.71,0,0,1,202,66c.24.46.45.88.65,1.28l-3.62,1.9c-.14-.36-.55-1.16-1.22-2.41q-11.15.57-21,1l-.42-3.81c2.16,0,3.65-.08,4.46-.12a64.1,64.1,0,0,0,5-11.68l.18-.62,4.34,1.07A112.84,112.84,0,0,1,185,63.7c2.4-.06,6-.16,10.76-.32Q193.57,60.17,192.14,58.41Zm-8.53-16.58h11.95a26.19,26.19,0,0,0,5.59,8.47,21.1,21.1,0,0,0,2.46,2.14,13.4,13.4,0,0,0-3.18,2.44l-.21.21a31.92,31.92,0,0,1-7.13-9.51,1.33,1.33,0,0,0-.12-.24h-9.36Z"/><path class="cls-2" d="M230.84,42.43v22c0,1.64-.34,2.76-1,3.35a2.69,2.69,0,0,1-.65.45q-1.43.73-5.68.71h-.2A12.8,12.8,0,0,0,222.08,65a38.81,38.81,0,0,0,4.28.06c.49,0,.75-.27.77-.68V45.87H205.88V42.43ZM224.07,48v3.15H206.18V48Zm-1.58,15.69H211.26v2.2h-3.54V53.45h14.77Zm-3.56-7.19h-7.67v4.07h7.67Z"/><path class="cls-2" d="M250.26,63.29h11.92v3.62H234.51V63.29H246.1V47.54h-10V43.76h24.34v3.78H250.26Z"/><path class="cls-2" d="M270.39,40.73l3.53,1.1A51.77,51.77,0,0,1,271,48.16V69h-3.65V53.78c-.28.34-.91,1.07-1.9,2.2a18.46,18.46,0,0,0-1.82-3.6l-.17-.27a28.66,28.66,0,0,0,6-9.09C269.82,42.25,270.13,41.49,270.39,40.73ZM292.2,49h-8.65V52.2h7.91v3.27h-7.91v3.45h8.29v3.36h-8.29V69h-3.68V49h-1.16a33.07,33.07,0,0,1-4,5.92,15.47,15.47,0,0,0-2.62-2.41l-.15-.12A27.35,27.35,0,0,0,277.64,43c.28-.71.52-1.41.74-2.11l3.51.89a34.94,34.94,0,0,1-1.49,3.78h11.8Z"/><path class="cls-2" d="M300.86,51.85V62.28c1,.61,1.55,1,1.75,1.07,1.51.87,3.94,1.32,7.31,1.36h.95A72.79,72.79,0,0,0,321.75,64a1.12,1.12,0,0,0,.27,0,13,13,0,0,0-1.13,4q-5.06.36-10.17.36A19.71,19.71,0,0,1,302.64,67l-.56-.29c-.36-.2-.86-.5-1.49-.9a4.64,4.64,0,0,0-1.69-.8q-1,0-3.18,3.66l-.09.17-2.56-3.68a14.81,14.81,0,0,1,4.22-3.24V55.21h-3.53V51.85Zm.71-5.17-3,2.11a24.34,24.34,0,0,0-4-5l-.39-.38,2.83-1.9A25.81,25.81,0,0,1,301.57,46.68Zm12.3,12.48v-10H302.58V45.81h11.29v-5h3.69v5h3.74V49.2h-3.74v10c0,1.6-.37,2.68-1.1,3.24a3.44,3.44,0,0,1-.74.38q-1.61.69-6.24.69a12.68,12.68,0,0,0-1.19-3.69c1.31.06,2.88.09,4.72.09C313.55,59.78,313.83,59.53,313.87,59.16Zm-10.43-7,2.89-1.63a36.12,36.12,0,0,1,4.33,5.88l-3.09,1.9A41.87,41.87,0,0,0,303.44,52.14Z"/><path class="cls-2" d="M335,46.65h4.7v4.69H335Zm0,12.54h4.7v4.63H335Z"/><path class="cls-3" d="M27.85,30H26.6V19.74h1.25Z"/><path class="cls-3" d="M34.63,24.12h5.52V19.74H41.4V30H40.15V25.24H34.63V30H33.38V19.74h1.25Z"/><path class="cls-3" d="M47.37,19.74,51.5,30H50.11L49,27.07H44.72L43.64,30H42.37l4-10.28ZM48.54,26,46.8,21.41,45.14,26Z"/><path class="cls-3" d="M51.54,19.74l3.27,8.61,3.12-8.61H59.2L55.29,30h-1L50.15,19.74Z"/><path class="cls-3" d="M65.94,25.26H61.42v3.65h5.21V30H60.17V19.73h6.3v1.1h-5v3.32h4.52Z"/><path class="cls-3" d="M77.64,19.73,80.16,28l2.34-8.22h1.2L80.6,30h-1l-2.53-8-2.41,8h-1L70.39,19.74h1.32L74.24,28l2.34-8.23Z"/><path class="cls-3" d="M84.53,22.07a4.42,4.42,0,0,1,1.67-1.85,4.68,4.68,0,0,1,4.76,0,4.55,4.55,0,0,1,1.66,1.86,6.16,6.16,0,0,1,.6,2.79,6.08,6.08,0,0,1-.61,2.8A4.46,4.46,0,0,1,91,29.52a4.35,4.35,0,0,1-2.37.65,4.47,4.47,0,0,1-2.38-.64,4.39,4.39,0,0,1-1.67-1.86,6.21,6.21,0,0,1-.6-2.8A6.24,6.24,0,0,1,84.53,22.07Zm1.12,5a3.28,3.28,0,0,0,1.16,1.47,3.26,3.26,0,0,0,3.53,0A3.5,3.5,0,0,0,91.5,27a6.09,6.09,0,0,0,0-4.34,3.35,3.35,0,0,0-1.16-1.46,3.26,3.26,0,0,0-3.53,0,3.35,3.35,0,0,0-1.16,1.46,6.09,6.09,0,0,0,0,4.34Z"/><path class="cls-3" d="M102.61,30h-1.54l-3-4.21h-2V30H94.81V19.74H98a4.51,4.51,0,0,1,1.88.38,3,3,0,0,1,1.27,1.07,2.83,2.83,0,0,1,.46,1.6,2.75,2.75,0,0,1-.58,1.75,3.2,3.2,0,0,1-1.58,1.06Zm-6.55-9.19v3.88h1.76a2.73,2.73,0,0,0,1.82-.53,1.74,1.74,0,0,0,.62-1.39,1.83,1.83,0,0,0-.62-1.42,2.78,2.78,0,0,0-1.82-.54Z"/><path class="cls-3" d="M107.21,24.12l4.52,5.9h-1.6l-3.79-5-1.61,1.7V30h-1.25V19.74h1.25V25.2l5-5.46h1.63Z"/><path class="cls-3" d="M118.24,25.26h-4.52v3.65h5.21V30h-6.46V19.73h6.3v1.1h-5v3.32h4.52Z"/><path class="cls-3" d="M123.29,19.74a6,6,0,0,1,2.71.6,4.54,4.54,0,0,1,1.89,1.77,5.38,5.38,0,0,1,.68,2.76,5.32,5.32,0,0,1-.68,2.77A4.52,4.52,0,0,1,126,29.41a5.89,5.89,0,0,1-2.72.61h-2.81V19.74Zm-.17,9.17a4.21,4.21,0,0,0,3-1.05,4,4,0,0,0,1.09-3,3.89,3.89,0,0,0-1.1-3,4.16,4.16,0,0,0-3-1.07h-1.39v8.08Z"/><path class="cls-3" d="M133.6,19.74h6.31v1.11h-5.06v3.47h4.52v1.11h-4.52V30H133.6Z"/><path class="cls-3" d="M141.2,22.07a4.49,4.49,0,0,1,8.09,0,6.16,6.16,0,0,1,.6,2.79,6.08,6.08,0,0,1-.61,2.8,4.53,4.53,0,0,1-1.66,1.85,4.41,4.41,0,0,1-2.38.65,4.49,4.49,0,0,1-2.38-.64,4.43,4.43,0,0,1-1.66-1.86,6.73,6.73,0,0,1,0-5.6Zm1.11,5a3.42,3.42,0,0,0,1.16,1.47,3.27,3.27,0,0,0,3.54,0A3.4,3.4,0,0,0,148.16,27a5.27,5.27,0,0,0,.41-2.16,5.3,5.3,0,0,0-.41-2.18A3.26,3.26,0,0,0,147,21.23a3,3,0,0,0-1.77-.52,3,3,0,0,0-1.76.52,3.28,3.28,0,0,0-1.16,1.46,5.47,5.47,0,0,0-.41,2.18A5.62,5.62,0,0,0,142.31,27Z"/><path class="cls-3" d="M159.27,30h-1.53l-3-4.21h-2V30h-1.25V19.74h3.16a4.43,4.43,0,0,1,1.87.38,2.94,2.94,0,0,1,1.28,1.07,3,3,0,0,1-.12,3.35,3.18,3.18,0,0,1-1.59,1.06Zm-6.54-9.19v3.88h1.75a2.69,2.69,0,0,0,1.82-.53,1.71,1.71,0,0,0,.63-1.39,1.8,1.8,0,0,0-.63-1.42,2.74,2.74,0,0,0-1.82-.54Z"/><path class="cls-3" d="M162.11,19.74h7.64v1.11h-3.2V30H165.3V20.85h-3.19Z"/><path class="cls-3" d="M172,24.12h5.52V19.74h1.25V30h-1.25V25.24H172V30h-1.25V19.74H172Z"/><path class="cls-3" d="M186.67,25.26h-4.52v3.65h5.21V30H180.9V19.73h6.31v1.1h-5.06v3.32h4.52Z"/><path class="cls-3" d="M195,28.73a2.68,2.68,0,0,1-1.19,1.06,4.19,4.19,0,0,1-1.87.38,4.56,4.56,0,0,1-2.57-.7,3.25,3.25,0,0,1-1.4-1.87l1-.59a3.07,3.07,0,0,0,1.12,1.49,3.13,3.13,0,0,0,1.85.52,2.48,2.48,0,0,0,1.58-.45,1.69,1.69,0,0,0,.21-2.29,2.41,2.41,0,0,0-.87-.63,12.82,12.82,0,0,0-1.41-.49,15.15,15.15,0,0,1-1.61-.56,2.77,2.77,0,0,1-1-.8,2.23,2.23,0,0,1-.42-1.41,2.57,2.57,0,0,1,.45-1.52,2.75,2.75,0,0,1,1.24-1,4.59,4.59,0,0,1,1.78-.33,3.79,3.79,0,0,1,2.23.6,3,3,0,0,1,1.14,1.54l-1,.58a2.84,2.84,0,0,0-.89-1.16,2.93,2.93,0,0,0-3,0,1.33,1.33,0,0,0-.58,1.14,1.21,1.21,0,0,0,.32.87,2.26,2.26,0,0,0,.79.54,13.45,13.45,0,0,0,1.31.43,15.09,15.09,0,0,1,1.7.6,3.06,3.06,0,0,1,1.11.89,2.49,2.49,0,0,1,.46,1.56A3,3,0,0,1,195,28.73Z"/><path class="cls-3" d="M202.39,25.26h-4.52v3.65h5.21V30h-6.46V19.73h6.3v1.1h-5v3.32h4.52Z"/><path class="cls-3" d="M214.68,27.46l1,.59a3.32,3.32,0,0,1-1.35,1.56,3.89,3.89,0,0,1-2.11.56,4.33,4.33,0,0,1-2.37-.67,4.74,4.74,0,0,1-1.69-1.88,6.43,6.43,0,0,1,0-5.51,4.65,4.65,0,0,1,1.69-1.87,4.33,4.33,0,0,1,2.37-.67,4,4,0,0,1,2.11.56,3.42,3.42,0,0,1,1.35,1.56l-1,.59a2.61,2.61,0,0,0-2.48-1.56,3.07,3.07,0,0,0-1.74.52,3.49,3.49,0,0,0-1.17,1.46,5.28,5.28,0,0,0-.41,2.17,5.35,5.35,0,0,0,.41,2.17,3.37,3.37,0,0,0,1.17,1.46,3,3,0,0,0,1.74.52A2.61,2.61,0,0,0,214.68,27.46Z"/><path class="cls-3" d="M216.75,22.07a4.49,4.49,0,0,1,8.09,0,6,6,0,0,1,.61,2.79,6.21,6.21,0,0,1-.61,2.8,4.55,4.55,0,0,1-1.67,1.85,4.35,4.35,0,0,1-2.37.65,4.37,4.37,0,0,1-4.05-2.5,6.21,6.21,0,0,1-.6-2.8A6.24,6.24,0,0,1,216.75,22.07Zm1.12,5A3.35,3.35,0,0,0,219,28.5a3.26,3.26,0,0,0,3.53,0A3.42,3.42,0,0,0,223.72,27a5.95,5.95,0,0,0,0-4.34,3.28,3.28,0,0,0-1.16-1.46,3.24,3.24,0,0,0-3.52,0,3.28,3.28,0,0,0-1.16,1.46,6,6,0,0,0,0,4.34Z"/><path class="cls-3" d="M235.7,19.74h1V30H235.5V22.18l-3.24,5.19h-.75l-3.27-5.21V30H227V19.74h1.1l3.79,6.11Z"/><path class="cls-3" d="M242,19.74a4,4,0,0,1,1.86.41,3.06,3.06,0,0,1,1.28,1.13,3,3,0,0,1,.47,1.65,3,3,0,0,1-1.74,2.77,4.18,4.18,0,0,1-1.87.4h-1.91V30h-1.25V19.74ZM241.82,25a2.56,2.56,0,0,0,1.81-.59,1.94,1.94,0,0,0,.64-1.49,2,2,0,0,0-.64-1.51,2.56,2.56,0,0,0-1.81-.59h-1.75V25Z"/><path class="cls-3" d="M249.57,19.74,253.7,30h-1.39l-1.13-2.95h-4.26L245.84,30h-1.27l4-10.28ZM250.74,26,249,21.41,247.34,26Z"/><path class="cls-3" d="M255.72,19.74l5.72,8.05v-8h1.18V30h-1.05L255.85,22V30h-1.18V19.74Z"/><path class="cls-3" d="M266,30h-1.25V19.74H266Z"/><path class="cls-3" d="M273.83,25.26H269.3v3.65h5.22V30h-6.47V19.73h6.31v1.1H269.3v3.32h4.53Z"/><path class="cls-3" d="M282.13,28.73a2.65,2.65,0,0,1-1.2,1.06,4.12,4.12,0,0,1-1.86.38,4.53,4.53,0,0,1-2.57-.7,3.27,3.27,0,0,1-1.41-1.87l1-.59a3.15,3.15,0,0,0,1.13,1.49,3.11,3.11,0,0,0,1.85.52,2.45,2.45,0,0,0,1.57-.45,1.49,1.49,0,0,0,.57-1.25,1.48,1.48,0,0,0-.36-1,2.37,2.37,0,0,0-.86-.63,12.82,12.82,0,0,0-1.41-.49A14.39,14.39,0,0,1,277,24.6a2.69,2.69,0,0,1-1-.8,2.23,2.23,0,0,1-.42-1.41,2.57,2.57,0,0,1,.45-1.52,2.75,2.75,0,0,1,1.24-1,4.59,4.59,0,0,1,1.78-.33,3.78,3.78,0,0,1,2.22.6,3,3,0,0,1,1.15,1.54l-1,.58a2.86,2.86,0,0,0-.9-1.16,2.93,2.93,0,0,0-3,0,1.34,1.34,0,0,0-.57,1.14,1.2,1.2,0,0,0,.31.87,2.3,2.3,0,0,0,.8.54,13.11,13.11,0,0,0,1.3.43,14.4,14.4,0,0,1,1.7.6,3.06,3.06,0,0,1,1.11.89,2.44,2.44,0,0,1,.47,1.56A3,3,0,0,1,282.13,28.73Z"/><path class="cls-3" d="M283.78,24a.83.83,0,0,1,0-1.15.74.74,0,0,1,.55-.24.75.75,0,0,1,.57.24.83.83,0,0,1,0,1.15.75.75,0,0,1-.57.24A.74.74,0,0,1,283.78,24Zm0,6a.79.79,0,0,1-.23-.58.78.78,0,0,1,.23-.58.74.74,0,0,1,.55-.24.75.75,0,0,1,.57.24.82.82,0,0,1,.23.58.83.83,0,0,1-.23.58.78.78,0,0,1-.57.23A.76.76,0,0,1,283.78,29.94Z"/></g></g></svg>