<svg xmlns="http://www.w3.org/2000/svg" viewBox="0 0 65.27 41.45"><defs><style>.cls-1{fill:#333a42;}.cls-2{fill:#5187f1;}</style></defs><g id="图层_2" data-name="图层 2"><g id="图层_1-2" data-name="图层 1"><path class="cls-1" d="M0,0H8.07V16.64H25.88V0h8.06V41.17H25.88V23.75H8.07V41.17H0Z"/><path class="cls-1" d="M48.87,41.17H40.8V0h8.07Z"/><path class="cls-2" d="M55.64,36.69A4.67,4.67,0,0,1,57,33.27a4.94,4.94,0,0,1,6.89,0,4.65,4.65,0,0,1,1.4,3.42,4.81,4.81,0,0,1-1.4,3.36,5,5,0,0,1-3.47,1.4,4.68,4.68,0,0,1-4.76-4.76Z"/><rect class="cls-1" x="56.93" width="7.11" height="27.84"/></g></g></svg>