<svg xmlns="http://www.w3.org/2000/svg" viewBox="0 0 142.83 60.98"><defs><style>.cls-1{fill:#5187f1;}</style></defs><g id="图层_2" data-name="图层 2"><g id="图层_1-2" data-name="图层 1"><path class="cls-1" d="M4.85,20.35a7.94,7.94,0,0,1-1.51,1,2.21,2.21,0,0,1-1.51.37h-1A2,2,0,0,1,0,19.91a4.23,4.23,0,0,1,.13-1A2.09,2.09,0,0,1,.57,18l10-10a2.89,2.89,0,0,1,.76-.63,4.21,4.21,0,0,1,.94-.06,2.16,2.16,0,0,1,1.55.57,2,2,0,0,1,.6,1.57,2.42,2.42,0,0,1-.51,1.45,5.14,5.14,0,0,1-1.07,1.32,7.61,7.61,0,0,1-1.17,1.17c-.44.35-.81.66-1.1.91l-.38.38a2.15,2.15,0,0,0-.31.38l-.38.56v2.71l2.39,13.93v.5a2.17,2.17,0,0,1,.07.44,6.9,6.9,0,0,1-.32,2.08A1.49,1.49,0,0,1,10,36.41,2.3,2.3,0,0,1,8.6,36a2,2,0,0,1-.79-1.22L5.36,21.23ZM4.41,51.72V49.83a12.69,12.69,0,0,1,.35-2.36,5.17,5.17,0,0,1,.91-2,2.09,2.09,0,0,1,1.76-.82,1.56,1.56,0,0,1,1.71,1.1,7.85,7.85,0,0,1,.31,2.17c0,.51,0,1.16-.06,2A8.4,8.4,0,0,1,9,52.13,5.88,5.88,0,0,1,8,54a2.18,2.18,0,0,1-1.8.82,1.39,1.39,0,0,1-1.1-.47,3.88,3.88,0,0,1-.66-1.17Zm8.32-7.93a6.89,6.89,0,0,1,.88-2.34,2.34,2.34,0,0,1,2-1.07,2,2,0,0,1,1.11.41,1.61,1.61,0,0,1,.72,1v.63a5.22,5.22,0,0,1,.06.63,20.73,20.73,0,0,1-.12,2.24,18.82,18.82,0,0,0-.13,2.29V49.9A3.66,3.66,0,0,0,19,52.7a9.54,9.54,0,0,0,3.21,1.23c1.3.25,2.69.48,4.16.69a21.44,21.44,0,0,0,4.28.44,16,16,0,0,0,8.19-2.27,1.6,1.6,0,0,0,.51-1.19,10.88,10.88,0,0,0,.06-1.14,1.08,1.08,0,0,1,.28-.75,1.94,1.94,0,0,1,1.36-.32c1.05,0,1.68.3,1.89.88a5.87,5.87,0,0,1,.44,2.33,4.63,4.63,0,0,1-1.51,3.66,7.76,7.76,0,0,1-3.34,2,20.13,20.13,0,0,1-4.32.92c-1.49.14-2.78.22-3.87.22H27.66a39.63,39.63,0,0,1-4.85-.7,24.08,24.08,0,0,1-4.6-1.19,7.36,7.36,0,0,1-3-1.67,6.64,6.64,0,0,1-1.63-2.49,12.31,12.31,0,0,1-.67-3c-.1-1.08-.15-2.18-.15-3.31Zm5-13.11A5.44,5.44,0,0,1,18.11,29a14.33,14.33,0,0,1,1-2.17c.46-.59,1-1.16,1.45-1.7a2.69,2.69,0,0,1,1.64-.63,2.4,2.4,0,0,1,1.42.41,1.58,1.58,0,0,1,.6,1.41,5.43,5.43,0,0,1-.38,1.89,7.44,7.44,0,0,1-1.14,2.15,4.53,4.53,0,0,1-1.51,1.7,2.49,2.49,0,0,1-1.7.75A1.65,1.65,0,0,1,18,32.13,2.76,2.76,0,0,1,17.7,30.68ZM40,19.72l1.38-6.3v-2h-16l-.82.44v8.51a.64.64,0,0,1-.28.57,3.08,3.08,0,0,1-.63.31,6.28,6.28,0,0,1-.7.22,2.45,2.45,0,0,1-.53.1,3.47,3.47,0,0,1-1.29-.22,1.33,1.33,0,0,1-.73-1,45.78,45.78,0,0,1-.25-4.85V4.91A13.12,13.12,0,0,1,21,2.58a2,2,0,0,1,2-.94,1.52,1.52,0,0,1,1.32.63A1.67,1.67,0,0,1,25,3.65a5.06,5.06,0,0,1-.13,1.11,5.59,5.59,0,0,0-.12,1.1v.57c0,.25.08.37.25.37H42a4.11,4.11,0,0,1,3,1.3,3.84,3.84,0,0,1,1.33,2.8v1.2L45.8,14c-.17.88-.4,1.8-.69,2.77s-.44,1.95-.69,2.83-.3,1.58-.38,2a3.42,3.42,0,0,1-.73,1.38,1.9,1.9,0,0,1-1.54.63,1.4,1.4,0,0,1-1.51-1A6.45,6.45,0,0,1,40,20.73ZM25.14,45.3a2.43,2.43,0,0,1,.5-1.58,2.28,2.28,0,0,1,1.58-.63,5.08,5.08,0,0,1,1.79.35,8,8,0,0,1,1.77.94,4.55,4.55,0,0,1,1.32,1.45,3.5,3.5,0,0,1,.47,1.67,1.89,1.89,0,0,1-.5,1.42,2,2,0,0,1-1.39.47A3.64,3.64,0,0,1,29,49a8.93,8.93,0,0,1-1.95-.88,11.1,11.1,0,0,1-1.45-1.32A2.43,2.43,0,0,1,25.14,45.3Zm1.13-12.1a1.42,1.42,0,0,1,.44-1.13,4.6,4.6,0,0,1,1.14-.44c.37-.09.75-.19,1.13-.32a1,1,0,0,0,.44-.82v-13A1.44,1.44,0,0,1,30,16.38a2.68,2.68,0,0,1,1.26-.44,1.73,1.73,0,0,1,1.13.31,2.47,2.47,0,0,1,.79,1,5.29,5.29,0,0,1,.32,1.17c.06.42.11.79.15,1.13a25.51,25.51,0,0,1,.25,3.65v7.75q0,.83-.06,1.83a10.7,10.7,0,0,1-.28,1.92,2.65,2.65,0,0,1-.92,1.48,1.88,1.88,0,0,1-1.63.69,5.45,5.45,0,0,1-1.61-.28,5.65,5.65,0,0,1-1.54-.72,2.81,2.81,0,0,1-1.2-1.14A2.7,2.7,0,0,1,26.27,33.2Zm11.22-5.29a1.64,1.64,0,0,1,.63-1.45A2.59,2.59,0,0,1,39.63,26a4.11,4.11,0,0,1,1.83.57,22.75,22.75,0,0,1,2.07,1.51,17,17,0,0,1,1.64,2,3.32,3.32,0,0,1,.7,1.77,1.73,1.73,0,0,1-.57,1.38,1.46,1.46,0,0,1-1.26.63,4.33,4.33,0,0,1-2-.59,10.71,10.71,0,0,1-2.17-1.55,12.9,12.9,0,0,1-1.73-1.89A3.66,3.66,0,0,1,37.49,27.91ZM49.2,45.11a5.59,5.59,0,0,0-1.89.31,3.94,3.94,0,0,1-1.82.44,1.62,1.62,0,0,1-1.17-.56A5.66,5.66,0,0,1,43.41,44a6,6,0,0,1-.54-1.52,7.4,7.4,0,0,1-.16-1.35,3.61,3.61,0,0,1,.07-.73c0-.18.25-.34.63-.47a6,6,0,0,0,3.21-.88,4.76,4.76,0,0,0,1.67-1.8,8,8,0,0,0,.76-2.14A7.57,7.57,0,0,1,49.83,33a3.87,3.87,0,0,1,1.71-1.61A7,7,0,0,1,55,30.68a5.75,5.75,0,0,1,3.21.82,4.9,4.9,0,0,1,2,2,8.19,8.19,0,0,1,1.13,2.78,17,17,0,0,1,.32,3.21,11,11,0,0,1-1.39,6c-.93,1.43-2.73,2.14-5.42,2.14a3.36,3.36,0,0,1-1.51-.37c-.42-.25-.86-.55-1.32-.88a11.79,11.79,0,0,0-1.33-.89A2.94,2.94,0,0,0,49.2,45.11Zm-.25-2a5.56,5.56,0,0,1,2.68.54A21.75,21.75,0,0,1,54,45.17a.34.34,0,0,1,.19.1.39.39,0,0,0,.19.09h1.26a3,3,0,0,0,1.95-.57,2.51,2.51,0,0,0,1.26-1.38,4.58,4.58,0,0,0,.63-2,15.55,15.55,0,0,0,.13-2.07,9.13,9.13,0,0,0-1.23-4.89q-1.23-2-4.32-2a3.61,3.61,0,0,0-2.26.63,4.45,4.45,0,0,0-1.11,1.6A20.3,20.3,0,0,0,50,36.82a6.42,6.42,0,0,1-1,2,5.45,5.45,0,0,1-2.07,1.64l-2.21,1.07v.25A3.35,3.35,0,0,0,45,42.84c.17.46.44.69.82.69a5.3,5.3,0,0,0,1.58-.25A5.77,5.77,0,0,1,49,43.09Z"/><path class="cls-1" d="M72.54,53.42a2.77,2.77,0,0,1,.51-1.57,2.59,2.59,0,0,0,.5-1.64,1.53,1.53,0,0,0-.82-1.38A11.65,11.65,0,0,0,71.1,48c-.63-.27-1.18-.53-1.64-.78a1.38,1.38,0,0,1-.82-1.26v-9a11.51,11.51,0,0,1-1.26-.25,4.32,4.32,0,0,1-1.2-.51,3.08,3.08,0,0,1-.91-.72,1.66,1.66,0,0,1-.41-1.11,1.6,1.6,0,0,1,.76-1.51,3.3,3.3,0,0,1,1.6-.72c.61-.11,1.15-.18,1.61-.22s.82-.15.82-.32l3.4-21.42a1.55,1.55,0,0,1,.82-1.29,3.32,3.32,0,0,1,1.51-.35h.82c.13.13.3.3.53.51s.35.36.35.44v4.28L74.56,30.18v2.26l.32.26.69.12a3.84,3.84,0,0,0,.76.07H78c1,0,1.61-.3,1.82-.89a5.52,5.52,0,0,0,.38-1.82,19.9,19.9,0,0,1,.44-2q.38-.75,1.83-.75c1,0,1.54.34,1.73,1a8.41,8.41,0,0,1,.29,2.23,26.78,26.78,0,0,1-.19,3,10,10,0,0,1-.51,2.9l-3.65,11v.06A1.41,1.41,0,0,0,81,49.11c.52.27,1.07.52,1.63.75a9,9,0,0,1,1.64.89,1.79,1.79,0,0,1,.79,1.6,1.73,1.73,0,0,1-.63,1.52,2.37,2.37,0,0,1-1.51.37,5.25,5.25,0,0,1-2.27-.44,15,15,0,0,0-2.21-1.13h-.25a1,1,0,0,0-.75.38l-.76.94a4.67,4.67,0,0,1-.88,1,2.07,2.07,0,0,1-1.26.38A1.73,1.73,0,0,1,72.54,53.42Zm.7-10c0,.42.3.87.91,1.35a2.77,2.77,0,0,0,1.61.73c.08,0,.17-.11.25-.32a1.69,1.69,0,0,1,.19-.38c.08-.21.21-.63.38-1.26s.45-1.14.72-1.79A18.83,18.83,0,0,0,78,39.91a9.07,9.07,0,0,1,.44-1.23.22.22,0,0,0,.07-.19V38.3a1.4,1.4,0,0,0-.16-.66.55.55,0,0,0-.54-.28H73.68l-.44.69ZM95.41,59.09a2.47,2.47,0,0,1,1.14-2.2L99,55.5a9.39,9.39,0,0,0,2.55-1.57,3.72,3.72,0,0,0,1.16-3V50a10.15,10.15,0,0,0-.06-1.07,3,3,0,0,0-.32-1,1,1,0,0,0-.56-.69h-2.9a36.9,36.9,0,0,0-5.07.35,36.46,36.46,0,0,1-5,.34,10.55,10.55,0,0,1-1.13-.06,5.4,5.4,0,0,1-1.17-.32,1.89,1.89,0,0,1-.85-.69,2,2,0,0,1-.25-1.13,2.07,2.07,0,0,1,.66-1.61,2.87,2.87,0,0,1,1.61-.72l9.7-.89,1.13-.18V42a2.33,2.33,0,0,0-.57-1.51,3.53,3.53,0,0,1-.37-1.7q0-.51.06-1.2a3.89,3.89,0,0,1,.31-1.13l7.25-15.31c0-.13-.05-.2-.16-.22l-.47-.1a.63.63,0,0,1-.25-.12L90.82,18.46A1.92,1.92,0,0,1,89,16.32a1.79,1.79,0,0,1,.69-1.64,4.15,4.15,0,0,1,2.11-.51,8.71,8.71,0,0,1,2.49.38,8.9,8.9,0,0,0,2.39.32h.19a4.91,4.91,0,0,1-.75-1.51A8.47,8.47,0,0,1,96,11.59a6.86,6.86,0,0,1,.51-2.71A15.39,15.39,0,0,1,98,6.8a8.11,8.11,0,0,1,2.27-1.51,25.8,25.8,0,0,1,2.64-1,6,6,0,0,1,.25-.56l.44-.89c.13-.29.26-.6.38-.94a3.17,3.17,0,0,1,.29-.5,8.09,8.09,0,0,1,.66-.7c.37-.46.71-.69,1-.69a1.27,1.27,0,0,1,1,.44,8.23,8.23,0,0,1,.63,1.26,12.91,12.91,0,0,1,.26,1.45c0,.55.06.92.06,1.13l.44.19.57.07a7.15,7.15,0,0,0,1.16.31c.44.09.9.16,1.39.22l1.16.16h1.58a18,18,0,0,1,2-1.7,4.2,4.2,0,0,1,2.52-.82h.76a2.49,2.49,0,0,1,.56,1,6.44,6.44,0,0,1,.07,1.1,6.6,6.6,0,0,1-.22,1.64,6.17,6.17,0,0,0-.22,1.64,5.81,5.81,0,0,0,.44,2.27,6,6,0,0,1,.44,2.26,4.55,4.55,0,0,1-.25,1.51,4.22,4.22,0,0,0-.26,1.45.16.16,0,0,0,.07.13c.16,0,.57.12,1.23.22a12.61,12.61,0,0,1,1.26.25,4,4,0,0,0,.53.16c.25,0,.38.23.38.57a11.49,11.49,0,0,1-1.76-.13,9,9,0,0,0-1.52-.13,5.11,5.11,0,0,0-.72.07c-.27,0-.41.25-.41.63v.06a.19.19,0,0,0,.06.13A26.84,26.84,0,0,1,120.68,22a19.46,19.46,0,0,1,.5,4.53A15.58,15.58,0,0,1,121,29a4.94,4.94,0,0,1-.59,1.76,12.56,12.56,0,0,1-.64,1.74c-.25.56-.56,1.23-.94,2a14,14,0,0,0-.41,1.36,4.73,4.73,0,0,1-.72,1.54,3.14,3.14,0,0,1-.82,1.26,2.11,2.11,0,0,1-1.45.57,1.26,1.26,0,0,1-1.17-.57,4.62,4.62,0,0,1-.53-1.32,9,9,0,0,1-.25-1.48,3.92,3.92,0,0,0-.26-1.17,1.28,1.28,0,0,0-.6-.38,2.34,2.34,0,0,1-.53-.25c-.92-.59-1.66-1.1-2.21-1.54s-1.21-1.06-2-1.86a7.12,7.12,0,0,1-.47-.6l-.41-.54c-.13-.12-.19-.21-.19-.25l-4.35,8.57a2.82,2.82,0,0,0-.19.5v.45a2.08,2.08,0,0,0,.44,1.13l2,2h1.95c1.13,0,2.26-.06,3.37-.16s2.24-.16,3.37-.16a5.37,5.37,0,0,1,2.14.41,1.74,1.74,0,0,1,.95,1.8,1.79,1.79,0,0,1-.7,1.44,3.16,3.16,0,0,1-1.57.7l-7.18.69v6.24a5,5,0,0,1-1,2.83,11.3,11.3,0,0,1-2.27,2.65,12.08,12.08,0,0,1-3,1.92A7.1,7.1,0,0,1,97.9,61a3.32,3.32,0,0,1-1.79-.37A1.57,1.57,0,0,1,95.41,59.09Zm19.66-21.73.19.19a.61.61,0,0,0,.35.28c.1,0,.19,0,.28-.22a.94.94,0,0,0,.32-.38,1.19,1.19,0,0,0,.31-.44.9.9,0,0,0,.19-.31s0-.21.06-.51a6,6,0,0,0,.25-.75c.09-.3.16-.55.22-.76a1.63,1.63,0,0,0,.1-.44,5.13,5.13,0,0,1,.69-1.51q.31-.63.57-1.2a8.27,8.27,0,0,0,.5-1.39,6.55,6.55,0,0,0,.51-2V26.84a16,16,0,0,0-.7-4.79c-.37-1.51-.84-3.07-1.38-4.66v-.51l.19-.44s-.07-.11-.19-.22-.19-.18-.19-.22l-.06-.06c0-.29.12-.42.37-.38a1.51,1.51,0,0,0,.63,0,1.47,1.47,0,0,0,.73-1.29c.06-.65.09-1.19.09-1.61v-.88a2.24,2.24,0,0,0-.19-.69c-.08-.25-.16-.57-.25-.95s-.17-.71-.25-1a2.38,2.38,0,0,1-.13-.63s0-.22.07-.53a9.69,9.69,0,0,1,.19-1c.08-.29.15-.6.22-.91a4.7,4.7,0,0,0,.09-.6V5a.18.18,0,0,0,.06-.13,4.06,4.06,0,0,0-.06-.75.39.39,0,0,0-.44-.32,2.47,2.47,0,0,0-1.36.35,7,7,0,0,0-1.1.91,4.58,4.58,0,0,1-1.19.76,1.79,1.79,0,0,1-1.33.5h-.82a4.7,4.7,0,0,1-.66-.12c-.36-.09-.79-.17-1.29-.26a10.6,10.6,0,0,0-1.26-.18l-.88-.19a2.12,2.12,0,0,1-1.45-.85,3.79,3.79,0,0,1-.57-1.42c-.08-.51-.15-1-.19-1.45s-.12-.5-.37-.5a.39.39,0,0,0-.26.12l-.25.25a2.18,2.18,0,0,1-.31.7c-.09.25-.19.54-.32.88l-.69,1.38a.76.76,0,0,1-.38.38.83.83,0,0,1-.38.32,13.69,13.69,0,0,0-2.17.85,11.1,11.1,0,0,0-2,1.26,6.72,6.72,0,0,0-1.54,1.73,4.73,4.73,0,0,0-.5,2.27,6,6,0,0,0,.12,1.13,5.35,5.35,0,0,0,.38,1.17,4.12,4.12,0,0,0,.69,1,1.62,1.62,0,0,0,1,.53l9.51,1.51a1.83,1.83,0,0,1,1.33.82,2.94,2.94,0,0,1,.44,1.58v.5l-3,7.5v.31a2.63,2.63,0,0,0,1,2,15.83,15.83,0,0,0,2.4,1.95l2.33,1.58q1.13.75,1.26,1.32c0,.21.1.69.19,1.45A8.93,8.93,0,0,1,115.07,37.36ZM99.57,11.53l3.59-1.13v-.26a13,13,0,0,1-1.32-.69,7.16,7.16,0,0,1-1.2-.69c-.17-.09-.25-.3-.25-.63h1L104.68,10a.49.49,0,0,1,.31.48q0,.35-.69.69a15.09,15.09,0,0,1-1.58.66,10.63,10.63,0,0,1-1.73.47,7.3,7.3,0,0,1-1.17.16.74.74,0,0,1-.75-.44Zm6.93,2.64a2.61,2.61,0,0,1-.63.57,1.07,1.07,0,0,1-.69.25v-.56a4.65,4.65,0,0,0,1.45-1.77,9.11,9.11,0,0,0,.82-2.26,1,1,0,0,1,.94-.64,3.71,3.71,0,0,1-.44,1.77,5.59,5.59,0,0,0-.31,1.89,4.46,4.46,0,0,0,.12,1.1,3.8,3.8,0,0,1,.13,1h-.69Zm5-3.27.06-.06c0-.05,0-.12.16-.22s.18-.18.22-.22a2.28,2.28,0,0,1,.79-.23,5.41,5.41,0,0,0,1.23-.34c.42-.09.83-.16,1.23-.22a8,8,0,0,0,.78-.16h.26a1.8,1.8,0,0,1,.37.06c.17.05.21.19.13.44,0,.05-.09.11-.25.19s-.21.26-.25.26l-3.28.94,3.78,1.95.63.7v.12c0,.17-.06.26-.19.29l-.32,0h-.37a3,3,0,0,1-.73-.35,10.61,10.61,0,0,0-1-.54,9.55,9.55,0,0,1-1-.56,4.4,4.4,0,0,1-.63-.32L112,11.91A1.34,1.34,0,0,1,111.48,10.9Zm7.94,31.31a1.42,1.42,0,0,1,.19-.63l.5-.82a11.73,11.73,0,0,1,.94-1.32c.3-.42.57-.82.83-1.2l.62-.88a.38.38,0,0,1,.26-.25h.31q.57,0,.57.63v.06a7.65,7.65,0,0,1-.63,1.32,6.63,6.63,0,0,1-.73,1.58,8.77,8.77,0,0,1-1,1.32,1.79,1.79,0,0,1-1.36.57C119.58,42.59,119.42,42.46,119.42,42.21Zm0,4.28a1.1,1.1,0,0,1,.19-.56l2.71-2.71a4.3,4.3,0,0,0,.31-.51,2,2,0,0,0,.32-.5,1.83,1.83,0,0,0,.37-.31l.44-.45a6.66,6.66,0,0,1,.51-.44h.63a3.91,3.91,0,0,1-.51,1.7,7.2,7.2,0,0,1-1.07,2.08,6.1,6.1,0,0,1-1.51,1.77,2.23,2.23,0,0,1-1.57.75A.72.72,0,0,1,119.42,46.49Z"/><path class="cls-1" d="M131.73,46.31A3.71,3.71,0,0,1,135.39,45a3.07,3.07,0,0,1,2.2,2.14,4.7,4.7,0,0,1,.19,1.77,3,3,0,0,1-.88,2.27,2.89,2.89,0,0,1-3.46.12A2.71,2.71,0,0,1,132.3,51,4.2,4.2,0,0,1,131,48.42,4.08,4.08,0,0,1,131.73,46.31ZM138.6,10c.55-1,1.47-1.2,2.77-.57s1.7,1.66,1.33,2.71a22.81,22.81,0,0,0-1.64,6.55,31.75,31.75,0,0,1-.95,4.79,56.25,56.25,0,0,0-1.89,9.39,2.18,2.18,0,0,1-2.39,2.2,1.91,1.91,0,0,1-2.14-2.2,40.42,40.42,0,0,1,1.45-8.51c.08-.33.14-.61.19-.82a17.94,17.94,0,0,0,.5-2.33,31.16,31.16,0,0,0,.82-3.91A24.83,24.83,0,0,1,138.6,10Z"/></g></g></svg>