<svg xmlns="http://www.w3.org/2000/svg" xmlns:xlink="http://www.w3.org/1999/xlink" viewBox="0 0 217.59 72.54"><defs><style>.cls-1{fill:url(#未命名的渐变_7);}.cls-2{fill:#353535;}.cls-3{fill:#b7b7b7;}</style><linearGradient id="未命名的渐变_7" x1="-4628.47" y1="-1522.43" x2="-4572.57" y2="-1522.43" gradientTransform="matrix(-0.84, -0.55, -0.55, 0.84, -4657.33, -1209.21)" gradientUnits="userSpaceOnUse"><stop offset="0" stop-color="#fff" stop-opacity="0"/><stop offset="1" stop-color="#6093f8"/></linearGradient></defs><g id="图层_2" data-name="图层 2"><g id="图层_1-2" data-name="图层 1"><path class="cls-1" d="M27.92,55.9A27.94,27.94,0,0,1,4.55,12.69h0A27.95,27.95,0,1,1,27.92,55.9ZM28,7a21,21,0,0,0-17.59,9.52h0A20.92,20.92,0,1,0,28,7Z"/><path class="cls-2" d="M33.25,49.16h-1a23,23,0,0,1-2.88,3.56,19.35,19.35,0,0,0-2.94-2,15.54,15.54,0,0,0,4.4-6c.12-.26.23-.52.32-.77l3.39.89c-.12.31-.32.76-.59,1.33h6.59v3H36.91c.61,1.14,1,1.88,1.1,2.19l-3.09,1.34A18.91,18.91,0,0,0,33.25,49.16ZM28.14,72.54V56.35h3.54V72.54ZM29.9,53.35l2.7-1.73a18.13,18.13,0,0,1,3.06,3.6l-2.88,1.93A16.59,16.59,0,0,0,29.9,53.35ZM47,68.26H37.62v1.37h-3.3V57.45H47Zm7.28-22.08v3h-4a22.31,22.31,0,0,1,1.19,2.08l-2.82,1.27h4.6V68.71c0,1.42-.36,2.39-1.1,2.88a4.93,4.93,0,0,1-.65.33,23.37,23.37,0,0,1-6,.5,11,11,0,0,0-1.16-3.09,45.63,45.63,0,0,0,4.57.06c.5-.1.76-.33.78-.71v-13H36.2V52.48h12a15.36,15.36,0,0,0-1.84-3.35H45a16.79,16.79,0,0,1-2.32,3.2,13.7,13.7,0,0,0-2.88-1.9l-.09,0a14.06,14.06,0,0,0,3.72-6.18.93.93,0,0,1,.06-.18l3.41.78c-.23.71-.39,1.17-.47,1.36ZM43.56,60.12H37.62v1.46h5.94Zm-5.94,5.5h5.94V64H37.62Z"/><path class="cls-2" d="M84,64.1v3.39h-12v5H68.33v-5H56.59V64.1H68.33v-2H59.27V49.3h4.9a24,24,0,0,0-2.5-3.65l3.12-1.37a18.54,18.54,0,0,1,3.15,4.37l-1.3.65h6.5a25.22,25.22,0,0,0,2.62-4.93l4,1.16c-.55.89-1.42,2.15-2.59,3.77h4.37V62.14H72.07v2ZM62.8,52.25v2.08h5.53V52.25Zm0,6.92h5.53V57.06H62.8Zm15-4.84V52.25H72.07v2.08Zm0,4.84V57.06H72.07v2.11Z"/><path class="cls-2" d="M92.14,55.69a35.11,35.11,0,0,1-4.42,2.8,10.74,10.74,0,0,0-2.14-2.92l-.06-.06a28.12,28.12,0,0,0,9.24-7.25,23,23,0,0,0,2.94-4.19h3.86a27.22,27.22,0,0,0,9,9.07,25.75,25.75,0,0,0,3.86,1.93,19.48,19.48,0,0,0-2.35,3.33A33.38,33.38,0,0,1,107,55.22V72.51H103.2V55.19h3.74a36.47,36.47,0,0,1-4.22-3.78,21.11,21.11,0,0,1-2.91-3.65A27.82,27.82,0,0,1,92.14,55.69ZM94.4,68.05a13.66,13.66,0,0,1-4.52,4.49,10.81,10.81,0,0,0-2.61-2.35,2.81,2.81,0,0,0-.39-.23,11,11,0,0,0,5.68-8.38A19.72,19.72,0,0,0,92.71,59V55.37h3.74v3.77A16.91,16.91,0,0,1,94.4,68.05Z"/><path class="cls-2" d="M121.42,60.3l5.47-.92a19.07,19.07,0,0,0-.09,2.94q-8.79,1.7-10,2.26l-.27.15a16.78,16.78,0,0,0-1.07-3.09A5.8,5.8,0,0,0,118,59.73a39.2,39.2,0,0,0,2.7-3.21,21.09,21.09,0,0,0-4.51.81,23.34,23.34,0,0,0-1.1-3.24,3.56,3.56,0,0,0,1.66-1.46l.27-.35a30.52,30.52,0,0,0,2.91-5.06c.53-1.13,1-2.17,1.31-3.12l3.3,1.64a46,46,0,0,1-4.94,8l3.27-.27c.67-1,1.27-2,1.78-3l2.8,1.81A55.52,55.52,0,0,1,121.42,60.3ZM116,71.2l-.63-3.44q4-.72,10.91-2.23l.35,3q-2.28.6-6.86,1.75Zm11.35-25.64H143s0,.48-.09,1.37q-.24,7.93-1,9.62a2.14,2.14,0,0,1-.33.57,3.38,3.38,0,0,1-2.17,1.22,24.07,24.07,0,0,1-3.56.09,7.21,7.21,0,0,0-1-3.36,26.7,26.7,0,0,0,2.73.15,1.54,1.54,0,0,0,1-.36c.38-.53.64-2.54.8-6h-4.51q-.63,5.09-3,7.66A12.29,12.29,0,0,1,128,59.14a8.55,8.55,0,0,0-1.9-2.62,1,1,0,0,1-.18-.14,8,8,0,0,0,4.85-4.94,13.37,13.37,0,0,0,.56-2.61h-3.95Zm.89,27V59.73h14.17V72.42h-3.56V71.26h-7.22v1.28ZM138.87,63h-7.22v5.08h7.22Z"/><path class="cls-2" d="M145.3,56.08h28V60h-28Z"/><path class="cls-2" d="M202.51,50H190.27v4.78l.62-.68a62.49,62.49,0,0,1,10.23,6,.87.87,0,0,1,.14.12l-2.67,3.33A53.59,53.59,0,0,0,190.27,58V72.45h-3.89V50h-11V46.33h27.13Z"/><path class="cls-3" d="M26.29,34.76a2.17,2.17,0,0,1-.91-1.38l1-.57a1.51,1.51,0,0,0,1.55,1.25,1.29,1.29,0,0,0,1.16-.56,3.21,3.21,0,0,0,.35-1.65V24.77h1.25V32a3.35,3.35,0,0,1-.77,2.45,2.67,2.67,0,0,1-2,.78A2.9,2.9,0,0,1,26.29,34.76Z"/><path class="cls-3" d="M39.34,24.77h1.25V30.9a5.12,5.12,0,0,1-.48,2.29,3.41,3.41,0,0,1-1.38,1.5,4.24,4.24,0,0,1-2.16.52,3.8,3.8,0,0,1-2.94-1.15,4.47,4.47,0,0,1-1.06-3.16V24.77h1.25V30.7a3.83,3.83,0,0,0,.7,2.49,2.86,2.86,0,0,0,4.11,0,3.83,3.83,0,0,0,.71-2.49Z"/><path class="cls-3" d="M48.63,33.77a2.69,2.69,0,0,1-1.19,1.06,4.27,4.27,0,0,1-1.87.38,4.56,4.56,0,0,1-2.57-.7,3.25,3.25,0,0,1-1.4-1.87l1-.59a3.18,3.18,0,0,0,1.12,1.49,3.24,3.24,0,0,0,1.86.52,2.45,2.45,0,0,0,1.57-.45,1.5,1.5,0,0,0,.56-1.25,1.52,1.52,0,0,0-.35-1.05,2.47,2.47,0,0,0-.86-.62,11,11,0,0,0-1.41-.49,14.15,14.15,0,0,1-1.61-.57,2.51,2.51,0,0,1-1-.8,2.13,2.13,0,0,1-.42-1.4,2.55,2.55,0,0,1,.44-1.52,2.77,2.77,0,0,1,1.25-1,4.58,4.58,0,0,1,1.77-.33,3.79,3.79,0,0,1,2.23.6,2.86,2.86,0,0,1,1.14,1.53l-1,.59A2.7,2.7,0,0,0,47,26.17a2.42,2.42,0,0,0-1.51-.43,2.52,2.52,0,0,0-1.53.43,1.38,1.38,0,0,0-.58,1.15,1.24,1.24,0,0,0,.32.87,2.34,2.34,0,0,0,.79.53c.32.13.76.28,1.31.44a11.94,11.94,0,0,1,1.7.6,3,3,0,0,1,1.11.89A2.42,2.42,0,0,1,49,32.2,2.92,2.92,0,0,1,48.63,33.77Z"/><path class="cls-3" d="M49.22,24.77h7.65v1.11H53.66v9.18H52.41V25.88H49.22Z"/><path class="cls-3" d="M64.24,24.77l4.13,10.29H67l-1.14-3H61.58l-1.08,3H59.24l3.94-10.29ZM65.4,31l-1.74-4.53L62,31Z"/><path class="cls-3" d="M81.81,37.19H79.92l-2.69-2.06a5.26,5.26,0,0,1-.89.08A4.5,4.5,0,0,1,74,34.56a4.4,4.4,0,0,1-1.66-1.85,6.25,6.25,0,0,1-.6-2.81,6.16,6.16,0,0,1,.6-2.79A4.43,4.43,0,0,1,74,25.25a4.49,4.49,0,0,1,2.38-.64,4.41,4.41,0,0,1,4,2.5,6.77,6.77,0,0,1,0,5.68,4.51,4.51,0,0,1-1.78,1.86Zm-8.39-5.13a3.28,3.28,0,0,0,1.15,1.47,3.06,3.06,0,0,0,1.77.53,3,3,0,0,0,1.77-.53,3.35,3.35,0,0,0,1.15-1.47,5.2,5.2,0,0,0,.41-2.16,5.33,5.33,0,0,0-.41-2.18,3.37,3.37,0,0,0-1.15-1.46,3.26,3.26,0,0,0-3.53,0,3.39,3.39,0,0,0-1.16,1.46A5.51,5.51,0,0,0,73,29.9,5.37,5.37,0,0,0,73.42,32.06Z"/><path class="cls-3" d="M89.25,24.77H90.5V30.9A5.12,5.12,0,0,1,90,33.19a3.41,3.41,0,0,1-1.38,1.5,4.21,4.21,0,0,1-2.16.52,3.8,3.8,0,0,1-2.94-1.15,4.47,4.47,0,0,1-1.06-3.16V24.77h1.25V30.7a3.83,3.83,0,0,0,.7,2.49,2.86,2.86,0,0,0,4.11,0,3.83,3.83,0,0,0,.71-2.49Z"/><path class="cls-3" d="M93.74,35.06H92.49V24.77h1.25Z"/><path class="cls-3" d="M102.44,32.5l1,.59a3.42,3.42,0,0,1-1.35,1.56,4,4,0,0,1-2.11.56,4.42,4.42,0,0,1-2.37-.67,4.78,4.78,0,0,1-1.69-1.89,6.5,6.5,0,0,1,0-5.5,4.75,4.75,0,0,1,1.69-1.88,4.41,4.41,0,0,1,2.37-.66,3.89,3.89,0,0,1,2.11.56,3.32,3.32,0,0,1,1.35,1.56l-1,.59A2.61,2.61,0,0,0,100,25.76a3,3,0,0,0-1.74.52,3.37,3.37,0,0,0-1.17,1.46,5.92,5.92,0,0,0,0,4.33,3.46,3.46,0,0,0,1.17,1.47,3.07,3.07,0,0,0,1.74.52A2.61,2.61,0,0,0,102.44,32.5Z"/><path class="cls-3" d="M108.36,29.16l4.52,5.9h-1.6l-3.79-5-1.61,1.7v3.28h-1.25V24.77h1.25v5.47l5-5.47h1.63Z"/><path class="cls-3" d="M117.93,35.06h-1.25V24.77h1.25Z"/><path class="cls-3" d="M121.07,24.77l5.72,8.05v-8H128V35.06h-1.06L121.2,27v8.07H120V24.77Z"/><path class="cls-3" d="M129,24.77h7.64v1.11h-3.2v9.18H132.2V25.88H129Z"/><path class="cls-3" d="M145.48,35.06H144l-3-4.22h-2v4.22h-1.25V24.77h3.16a4.46,4.46,0,0,1,1.87.38A3,3,0,0,1,144,26.23a2.85,2.85,0,0,1,.46,1.59,2.77,2.77,0,0,1-.58,1.75,3.12,3.12,0,0,1-1.59,1.06Zm-6.54-9.19v3.88h1.75a2.76,2.76,0,0,0,1.82-.53,1.73,1.73,0,0,0,.62-1.4,1.76,1.76,0,0,0-.62-1.41,2.71,2.71,0,0,0-1.82-.54Z"/><path class="cls-3" d="M146.3,27.11A4.37,4.37,0,0,1,148,25.25a4.49,4.49,0,0,1,2.38-.64,4.38,4.38,0,0,1,4,2.5,6.71,6.71,0,0,1,0,5.59,4.58,4.58,0,0,1-1.67,1.86,4.44,4.44,0,0,1-2.37.65,4.5,4.5,0,0,1-2.38-.65,4.34,4.34,0,0,1-1.66-1.85,6.12,6.12,0,0,1-.61-2.81A6,6,0,0,1,146.3,27.11Zm1.11,5a3.3,3.3,0,0,0,1.16,1.47,3.06,3.06,0,0,0,1.77.53,3,3,0,0,0,1.76-.53,3.37,3.37,0,0,0,1.16-1.47,5.37,5.37,0,0,0,.41-2.16,5.5,5.5,0,0,0-.41-2.18,3.39,3.39,0,0,0-1.16-1.46,3.24,3.24,0,0,0-3.52,0,3.39,3.39,0,0,0-1.16,1.46A5.5,5.5,0,0,0,147,29.9,5.37,5.37,0,0,0,147.41,32.06Z"/><path class="cls-3" d="M159.38,24.77a6,6,0,0,1,2.71.61A4.52,4.52,0,0,1,164,27.14a5.28,5.28,0,0,1,.68,2.76,5.29,5.29,0,0,1-.68,2.77,4.4,4.4,0,0,1-1.88,1.77,5.86,5.86,0,0,1-2.72.62h-2.8V24.77ZM159.22,34a4.2,4.2,0,0,0,3-1.06,4,4,0,0,0,1.09-3,3.92,3.92,0,0,0-1.1-3,4.15,4.15,0,0,0-3-1.06h-1.39V34Z"/><path class="cls-3" d="M172.92,24.77h1.25V30.9a5.12,5.12,0,0,1-.48,2.29,3.3,3.3,0,0,1-1.38,1.5,4.2,4.2,0,0,1-2.15.52,3.81,3.81,0,0,1-2.95-1.15,4.52,4.52,0,0,1-1.06-3.16V24.77h1.25V30.7a3.83,3.83,0,0,0,.71,2.49,2.47,2.47,0,0,0,2,.87,2.49,2.49,0,0,0,2.05-.87,3.77,3.77,0,0,0,.71-2.49Z"/><path class="cls-3" d="M182.77,32.5l1,.59a3.42,3.42,0,0,1-1.35,1.56,4,4,0,0,1-2.11.56,4.42,4.42,0,0,1-2.37-.67,4.78,4.78,0,0,1-1.69-1.89,6.5,6.5,0,0,1,0-5.5A4.75,4.75,0,0,1,178,25.27a4.41,4.41,0,0,1,2.37-.66,3.89,3.89,0,0,1,2.11.56,3.32,3.32,0,0,1,1.35,1.56l-1,.59a2.61,2.61,0,0,0-2.47-1.56,3,3,0,0,0-1.75.52,3.37,3.37,0,0,0-1.17,1.46,5.92,5.92,0,0,0,0,4.33,3.46,3.46,0,0,0,1.17,1.47,3.08,3.08,0,0,0,1.75.52A2.61,2.61,0,0,0,182.77,32.5Z"/><path class="cls-3" d="M184,24.77h7.64v1.11h-3.2v9.18h-1.25V25.88H184Z"/><path class="cls-3" d="M193.9,35.06h-1.25V24.77h1.25Z"/><path class="cls-3" d="M196.08,27.11a4.43,4.43,0,0,1,1.66-1.86,4.5,4.5,0,0,1,2.39-.64,4.38,4.38,0,0,1,4,2.5,6.16,6.16,0,0,1,.6,2.79,6,6,0,0,1-.61,2.8,4.55,4.55,0,0,1-1.66,1.86,4.68,4.68,0,0,1-4.76,0,4.4,4.4,0,0,1-1.66-1.85,6.25,6.25,0,0,1-.6-2.81A6.16,6.16,0,0,1,196.08,27.11Zm1.12,5a3.23,3.23,0,0,0,1.16,1.47,3.2,3.2,0,0,0,3.53,0,3.44,3.44,0,0,0,1.16-1.47,5.37,5.37,0,0,0,.4-2.16,5.51,5.51,0,0,0-.4-2.18,3.47,3.47,0,0,0-1.16-1.46,3.26,3.26,0,0,0-3.53,0,3.39,3.39,0,0,0-1.16,1.46,5.51,5.51,0,0,0-.4,2.18A5.37,5.37,0,0,0,197.2,32.06Z"/><path class="cls-3" d="M207.41,24.77l5.72,8.05v-8h1.18V35.06h-1.05L207.54,27v8.07h-1.18V24.77Z"/><path class="cls-3" d="M216.24,35a.82.82,0,0,1,0-1.14.77.77,0,0,1,1.12,0,.83.83,0,0,1,0,1.15.74.74,0,0,1-.56.24A.72.72,0,0,1,216.24,35Z"/></g></g></svg>