<svg xmlns="http://www.w3.org/2000/svg" viewBox="0 0 736.86 55.23"><defs><style>.cls-1{fill:#333a42;}</style></defs><g id="图层_2" data-name="图层 2"><g id="图层_1-2" data-name="图层 1"><path class="cls-1" d="M38.48,38.87c.19.42.36.81.51,1.18a15.63,15.63,0,0,0,2.13,3.59,2.88,2.88,0,0,0,2.07,1.23,1.61,1.61,0,0,0,1.29-.62,4.76,4.76,0,0,0,1-2.07c.37-1.64.78-3.83,1.23-6.55l5.94,3a71.33,71.33,0,0,1-2.19,8.85q-1.9,5-7,5.1A9.86,9.86,0,0,1,38,51a12.86,12.86,0,0,1-4.43-5.21c-.26-.44-.61-1.15-1.06-2.12a82.09,82.09,0,0,1-9.58,5.82l-4.48-6.05A62.36,62.36,0,0,0,30.08,36.8,71.46,71.46,0,0,1,28,24.37c-.08-.53-.15-1.35-.23-2.47h-10v6.72q5.93-1.17,7.67-1.56l.51,6.44q-5.39,1.23-8.18,1.79v9.19a8.15,8.15,0,0,1-1.63,5.43A7.34,7.34,0,0,1,11.2,52,41.58,41.58,0,0,1,4,52L2.58,45a40.92,40.92,0,0,0,5.09.28,3,3,0,0,0,2.19-.68,3.25,3.25,0,0,0,.67-2.35V36.63c-3.58.53-6.61,1-9.07,1.4L0,31.14q2.81-.33,10.53-1.4V21.9H.5V15.35h10V10.08L3,10.75,1.85,4.37A171.56,171.56,0,0,0,23.41,1.79L24.87,8c-1.94.37-4.31.77-7.11,1.18v6.16h9.58q-.4-7-.4-15.13h7.23q-.06,7.23.34,15.13H51.7V21.9H35a10.84,10.84,0,0,0,.12,1.23,69,69,0,0,0,1.28,8.52,52.33,52.33,0,0,0,7.34-9L49.24,27A73.12,73.12,0,0,1,38.48,38.87ZM35.91,5.38l4.92-3.92a108.93,108.93,0,0,1,8.52,8.29l-5,4.48A98.44,98.44,0,0,0,35.91,5.38Z"/><path class="cls-1" d="M70.05,38.59a12.4,12.4,0,0,0,2.29,2.75,13.11,13.11,0,0,0,5.66,3V32.1H55.2V26.27h51.31V32.1H85v3.69h16.7v5.49H85v4h.79q10.69.45,21.28.17l-1.62,6.22q-10.26.1-20.67-.34-8.13-.23-12.55-2.63a13.73,13.73,0,0,1-4.65-4l-.45.78a29.74,29.74,0,0,1-8.23,8.07l-4.71-4.87A26.61,26.61,0,0,0,61.42,42a21.71,21.71,0,0,0,3-9.19l6.72,1.07C70.89,35.2,70.53,36.77,70.05,38.59ZM99.29,23.47h-37V2.18h37ZM92.23,10.59V7.67H69.38v2.92Zm0,7.62V15.12H69.38v3.09Z"/><path class="cls-1" d="M111.51,5.94H120L138.07,34h.16V5.94H146V47.11h-8.17L119.41,18.6h-.17V47.11h-7.73Z"/><path class="cls-1" d="M150.8,32.26a16.76,16.76,0,0,1,1.85-7.89,13.44,13.44,0,0,1,5.27-5.44,16.54,16.54,0,0,1,15.62,0,13.44,13.44,0,0,1,5.27,5.44,17.35,17.35,0,0,1,0,15.79,13.75,13.75,0,0,1-5.27,5.49,16.54,16.54,0,0,1-15.62,0,13.75,13.75,0,0,1-5.27-5.49A16.77,16.77,0,0,1,150.8,32.26Zm8,0a9.86,9.86,0,0,0,1.85,6.17,6.52,6.52,0,0,0,10.2,0,9.86,9.86,0,0,0,1.84-6.17,10,10,0,0,0-1.84-6.16,6.6,6.6,0,0,0-10.2,0A10,10,0,0,0,158.81,32.26Z"/><path class="cls-1" d="M185.06,17.53h7.11l0,5.21h.17a10.36,10.36,0,0,1,3.36-4.26A8.15,8.15,0,0,1,200.46,17a9.74,9.74,0,0,1,3.65.73l-1.18,6.67a7.19,7.19,0,0,0-3.25-.68,6,6,0,0,0-5,2.41,10.31,10.31,0,0,0-1.85,6.33V47.11h-7.73Z"/><path class="cls-1" d="M206.86,4.26h7.68V47.11h-7.68Z"/><path class="cls-1" d="M220.1,8.91a4.73,4.73,0,1,1,9.46,0,4.75,4.75,0,0,1-1.4,3.3,4.73,4.73,0,0,1-6.72,0A4.58,4.58,0,0,1,220.1,8.91Zm.89,8.62h7.73V47.11H221Z"/><path class="cls-1" d="M235,17.53h7.23v4.15h.17A9.07,9.07,0,0,1,246,18.43,10.33,10.33,0,0,1,251.39,17a9.58,9.58,0,0,1,5.32,1.46,10.35,10.35,0,0,1,3.69,4.2,13.79,13.79,0,0,1,1.35,6.27V47.11h-7.68V30.3a8.33,8.33,0,0,0-1.28-5,4.07,4.07,0,0,0-3.42-1.63,5.86,5.86,0,0,0-3.31,1,7.38,7.38,0,0,0-2.46,2.86,9.25,9.25,0,0,0-.9,4.2V47.11H235Z"/><path class="cls-1" d="M270.44,52.6a9,9,0,0,0,4.42-5.21h-.11a4.58,4.58,0,0,1-3.36-1.4A4.5,4.5,0,0,1,270,42.68a4.6,4.6,0,0,1,4.71-4.76,4.44,4.44,0,0,1,3.53,1.57,6.5,6.5,0,0,1,1.34,4.43,14.72,14.72,0,0,1-1.73,6.61,12.15,12.15,0,0,1-4.88,4.7Z"/><path class="cls-1" d="M314.53,38.59a12.41,12.41,0,0,0,2.3,2.75,13.07,13.07,0,0,0,5.65,3V32.1H299.69V26.27H351V32.1H329.49v3.69h16.69v5.49H329.49v4h.78q10.69.45,21.29.17l-1.63,6.22q-10.24.1-20.67-.34-8.11-.23-12.55-2.63a13.7,13.7,0,0,1-4.64-4l-.45.78a29.79,29.79,0,0,1-8.24,8.07l-4.7-4.87A26.4,26.4,0,0,0,305.9,42a21.43,21.43,0,0,0,3-9.19l6.73,1.07C315.37,35.2,315,36.77,314.53,38.59Zm29.24-15.12h-37V2.18h37Zm-7.06-12.88V7.67H313.86v2.92Zm0,7.62V15.12H313.86v3.09Z"/><path class="cls-1" d="M355.25,21.45H407v7.68H355.25Z"/><path class="cls-1" d="M425.15,13.33V52.77h-6.94V26.05a64.12,64.12,0,0,1-4.43,6.05l-2.85-8.29A78.11,78.11,0,0,0,422.41,0l6.95,2.41A110.31,110.31,0,0,1,425.15,13.33ZM452,44h11.82v6.61H427.34V44h17.59q4-12.72,7.17-25.49l7.45,2Q456.19,31.26,452,44ZM450.25,9.92h12.21v6.49H428.74V9.92h13.5q-1.8-5.61-3-8.74l7.84-1Q447.34.85,450.25,9.92ZM431,20.73l6.83-1.52q2.81,9.36,5.55,20.17l-7.12,2.13Q433.84,30.14,431,20.73Z"/><path class="cls-1" d="M487.34,33.27,484,36.19a48.28,48.28,0,0,0-4.21-5.55V52.71h-6.38V33.22c-1.64,1.64-3.38,3.25-5.21,4.81l-2.91-6.61a49,49,0,0,0,7.05-6.77,37.72,37.72,0,0,0,4.54-7.29H467v-6h6.89q-1-5.37-2.36-10.08l6.56-1q1.33,5.39,2.35,11.09h3.7V17a70.15,70.15,0,0,1-4.32,8.18V27.5l2.75-2q2.3,2.36,4.82,5.43V2.46h27.22v32H508V9H493.89V35h-6.55Zm15.51-1.79h3.31V43a2.27,2.27,0,0,0,.67,1.85,2.91,2.91,0,0,0,1.9.56h.34a3.86,3.86,0,0,0,1.9-.56,3.08,3.08,0,0,0,1-1.91q.55-3.3.78-5.93l5.71,2.46c-.41,3-.72,5.08-.95,6.27A7.31,7.31,0,0,1,515,50a10.67,10.67,0,0,1-5.1,1.57,12.38,12.38,0,0,1-2.63.06q-3.7-.34-5.38-2Q500,47.79,500,44V39.27q-3.93,7-13.9,13.78l-4.59-5.44q9.14-5.59,12.44-11T497.47,22q.22-7.6.23-9.8h6.5q-.06,4.88-.17,9.52A50.43,50.43,0,0,1,502.85,31.48Z"/><path class="cls-1" d="M549.37,35.12h3.86v7.34a3,3,0,0,0,.67,2.13,3.32,3.32,0,0,0,2.3.78,54.4,54.4,0,0,0,6,0,5.69,5.69,0,0,0,2.69-.78,4,4,0,0,0,1.24-2.41A52.33,52.33,0,0,0,567,37l6.27,2.24q-.9,4.88-1.23,6.55a7.23,7.23,0,0,1-2.75,4.15,12.77,12.77,0,0,1-5.66,1.4,71.22,71.22,0,0,1-9.69,0c-2.65-.19-4.53-.8-5.65-1.85s-1.8-2.87-1.8-5.38V42a17.55,17.55,0,0,1-4.2,4.31q-5.94,4.31-17.87,6.83L521,46.83q11.09-2,15.85-4.76a11.75,11.75,0,0,0,5.77-7.51,42.68,42.68,0,0,0,.9-6.38h6.83A44.75,44.75,0,0,1,549.37,35.12ZM564.6,22.63V40h-7V26H536.32V40.5h-7.06V22.57h-6.39V10h8.4a87.88,87.88,0,0,0-4.81-7.39l7-2q3.42,5.21,4.82,7.39l-5.15,2h12.43q-1.4-2.91-4.42-8.29L548.25,0q2.68,4.71,4.31,7.67L546.17,10h7.9A83.18,83.18,0,0,0,559.84.39l7.28,2q-2.13,3.48-5,7.62h9V22.63ZM564,20.11V16H529.87v4.09Z"/><path class="cls-1" d="M575.2,17.53h12.93V37.92c1.35-1.19,2.82-2.59,4.43-4.2l2.74,6.16A133.14,133.14,0,0,1,583.09,50.3l-3.86-5.1a8.41,8.41,0,0,0,1.51-2.52,9,9,0,0,0,.51-3.19V24.14h-6Zm2.74-13.22L584,.5q3.87,4.26,7.9,9.36l-5.66,4.48Q582.32,9.13,577.94,4.31Zm36.3,37.09A58.63,58.63,0,0,0,627.68,46l-3.36,6.45a63.17,63.17,0,0,1-15.8-6.5A64.7,64.7,0,0,1,593,53l-3.64-6.11a66.26,66.26,0,0,0,13.38-5.37,48.41,48.41,0,0,1-7.67-9.69l4.48-2.92h-6.5V22.57h30.2v6.5A50.39,50.39,0,0,1,614.24,41.4Zm-17-39.1h22.79L620,10.92a3,3,0,0,0,.62,2.3,3.37,3.37,0,0,0,2.13.67c1.71,0,3.49-.05,5.32-.17l-1.35,6.17q-2,.11-6.27.11-3.92-.12-5.66-1.57a6.09,6.09,0,0,1-1.68-4.87l.06-5.05H604c0,.56,0,1.29-.11,2.19a12,12,0,0,1-2.19,6.05,22.36,22.36,0,0,1-6.5,5.26l-4.76-4.87A17.87,17.87,0,0,0,595.87,13a8.87,8.87,0,0,0,1.45-5.21C597.32,5.25,597.3,3.42,597.27,2.3Zm11.25,35.23a34.23,34.23,0,0,0,7.12-8.63H601.07A39.2,39.2,0,0,0,608.52,37.53Z"/><path class="cls-1" d="M630.8,17.48h13.56V39.27c1.9-1.35,4-3,6.21-4.88l2.58,7q-6.89,5.55-14.28,10.75l-4.26-6a7.21,7.21,0,0,0,2-2.3,6.44,6.44,0,0,0,.5-2.8V24.31H630.8Zm3.7-12.61L640,.56q6.21,5.78,9.18,8.85l-5.49,5Q640,10.31,634.5,4.87ZM669.12,24.7V52.6h-7.45V24.7H648.33V17.53h13.34V.28h7.45V17.53h13.77V24.7Z"/><path class="cls-1" d="M687.23,5.38H693V38.15h-5.77Zm9.47-5h6.61V24q0,11.2-2,17.42a32,32,0,0,1-2.91,6,39.87,39.87,0,0,1-4.48,5.6L688,49.35q5.55-5.66,7.22-11.15a36.1,36.1,0,0,0,1.12-5.66,74.62,74.62,0,0,0,.4-8.45Zm27.44,21.11V52.71h-6.6V21.45h-4.6V45.09h-6.16V15.29h10.76V9.07H705.32V2.75h31.54V9.07H724.14v6.22h11.15v23A7.24,7.24,0,0,1,734,43.08a5.67,5.67,0,0,1-4,1.73,28,28,0,0,1-4.31,0l-1.18-6.16a22.17,22.17,0,0,0,2.8.17,2.22,2.22,0,0,0,1.4-.39,2.57,2.57,0,0,0,.45-1.63V21.45Z"/></g></g></svg>