<svg xmlns="http://www.w3.org/2000/svg" viewBox="0 0 231.3 49.62"><defs><style>.cls-1{fill:#282f35;}</style></defs><g id="图层_2" data-name="图层 2"><g id="图层_1-2" data-name="图层 1"><path class="cls-1" d="M18.71,29.27c-.06-2.31-.07-4.61-.34-6.9a2.59,2.59,0,0,0-2-2.57,2.8,2.8,0,0,0-2.15.53,14.14,14.14,0,0,0-3.12,3A70.76,70.76,0,0,0,3,35.67,28.15,28.15,0,0,0,.22,42.12c-.81,3.33.64,6,3.9,6.83a16.51,16.51,0,0,0,9-.06,7.46,7.46,0,0,0,5.57-6,24.2,24.2,0,0,0,.27-5.21C18.87,35.2,18.79,32.23,18.71,29.27Z"/><path class="cls-1" d="M76.4,28.89a4.91,4.91,0,0,0-1.27,0c-.93.11-1.87.19-2.81.3s-2,0-2.93.13a.6.6,0,0,1-.72-.36,28.15,28.15,0,0,1-3.12-8.7A23.49,23.49,0,0,0,65,17.38a1.57,1.57,0,0,0-1.32-1.25,1.43,1.43,0,0,0-1.47,1,12,12,0,0,0-.8,2.06,61.39,61.39,0,0,0-2.55,18.27c0,.64,0,1.29,0,1.93a25,25,0,0,0,.55,5.32,4.92,4.92,0,0,0,4.1,4,14.66,14.66,0,0,0,7.38-.39,6.87,6.87,0,0,0,3.61-2.45A7,7,0,0,0,75,38.15,21.74,21.74,0,0,0,73,35c-.18-.25-.23-.38.11-.51a7.6,7.6,0,0,0,2.57-1.81,6.06,6.06,0,0,0,1.64-2.4A1,1,0,0,0,76.4,28.89Z"/><path class="cls-1" d="M52,26.27a17.75,17.75,0,0,0-1.94-4A1.55,1.55,0,0,0,47.42,22a8.13,8.13,0,0,0-1.69,2.38,48.55,48.55,0,0,0-4.6,13.09,29.16,29.16,0,0,0-.8,6.52,5.16,5.16,0,0,0,3.73,5.12,7.93,7.93,0,0,0,2.57.39,6.86,6.86,0,0,0,1.81,0,11.65,11.65,0,0,0,5.21-1.55,6.65,6.65,0,0,0,3.16-8.08C55.24,35.28,53.7,30.74,52,26.27Z"/><path class="cls-1" d="M36.59,36.83c-1.73-4.29-3.41-8.6-5-12.95a5.3,5.3,0,0,0-1.23-2.08,1.52,1.52,0,0,0-2.34,0,5.44,5.44,0,0,0-.85,1.29,42.48,42.48,0,0,0-4.81,18.52c0,.58,0,1.18,0,1.76a5.9,5.9,0,0,0,3.68,5.35,10.59,10.59,0,0,0,8.56,0,5.76,5.76,0,0,0,3.63-7.48A45.49,45.49,0,0,0,36.59,36.83Z"/><path class="cls-1" d="M18.62,3.07a7.1,7.1,0,0,0-2.7-1.36,16.44,16.44,0,0,0-8.33-.08A13.06,13.06,0,0,0,2.74,3.57,3.63,3.63,0,0,0,.93,6.79a5.56,5.56,0,0,0,1,3.11,12.56,12.56,0,0,0,2.77,3,19.34,19.34,0,0,0,7.56,4,4.64,4.64,0,0,0,4.93-1.59,12.46,12.46,0,0,0,2.15-3.65,10.85,10.85,0,0,0,.81-5.57A4.59,4.59,0,0,0,18.62,3.07Z"/><path class="cls-1" d="M54.61,1.11A13.08,13.08,0,0,0,49,0a16.75,16.75,0,0,0-3.62.26c-3,.67-5.16,2.49-4.47,6.3a12.63,12.63,0,0,0,3.73,6.83c1.94,1.91,4.07,2.35,6.15,1.22a13,13,0,0,0,6.42-8C57.92,4.1,56.92,2.24,54.61,1.11Z"/><path class="cls-1" d="M36.3,4.26a11.62,11.62,0,0,0-5.08-.83A15.17,15.17,0,0,0,25.5,4.5a4.09,4.09,0,0,0-2.67,4.06,16.18,16.18,0,0,0,1.9,7.74,4.13,4.13,0,0,0,1.63,1.9s.07.09.12.11A4.69,4.69,0,0,0,31.94,18a21,21,0,0,0,6.71-7.38,4.11,4.11,0,0,0-.23-4.77A5,5,0,0,0,36.3,4.26Z"/><path class="cls-1" d="M77.64,6.91a7.1,7.1,0,0,0-5.06-2.25h0A.85.85,0,0,0,72,4.58a27.74,27.74,0,0,0-4.9.45,20,20,0,0,0-7.37,3,2.81,2.81,0,0,0-1.25,2.83,2.59,2.59,0,0,0,2.08,2.18,37.09,37.09,0,0,1,9.49,4.46,6,6,0,0,0,2.24.88,4.21,4.21,0,0,0,3.6-1.16A9.65,9.65,0,0,0,79,12,5.32,5.32,0,0,0,77.64,6.91Z"/><path class="cls-1" d="M209.86,36.25c-.19-.26-.3-.44-.43-.61-1.12-1.55-2.22-3.1-3.36-4.62a.52.52,0,0,1,0-.79c1.17-1.24,2.31-2.5,3.47-3.73a1.34,1.34,0,0,0,.38-.78c.48-3.69,1-7.38,1.46-11.07.11-.89.1-.91,1-.89.42,0,.55-.14.57-.53a14,14,0,0,1,.19-1.43c.05-.29,0-.37-.34-.38-1,0-1-.05-.83-1,0-.07,0-.14.05-.21.11-.41,0-.59-.47-.58-1.31,0-2.63.05-3.94,0-.58,0-.8.14-.87.72-.13,1.12-.16,1.11-1.29,1.11-.94,0-.94,0-.85-.9a2.2,2.2,0,0,1,.05-.44c.14-.39-.05-.47-.4-.47-1,0-2.07,0-3.1,0-.54,0-1.18-.22-1.57.09s-.21.93-.28,1.42c0,.24-.14.29-.36.31-.61.06-.9-.38-1.25-.85-.09.68-.16,1.28-.25,1.87-.19,1.27-.19,1.27,1.07,1.3h.05c.29,0,.37.05.33.37-.53,3.85-1,7.71-1.55,11.56a1,1,0,0,0,.2.82c.92,1.25,1.81,2.52,2.73,3.76.19.25.22.39,0,.64-.84.88-1.67,1.78-2.48,2.69a1,1,0,0,1-.81.35c-1.78,0-3.55,0-5.33,0-.15,0-.32.07-.49-.08.73-1.73,1.44-3.47,2.2-5.19a10.52,10.52,0,0,0,1-3.53c0-.55-.07-.64-.57-.63H182.14c-.38,0-.53-.06-.44-.49.21-1,.39-2,.55-3,.07-.41.23-.55.68-.55,3.81,0,7.62,0,11.43,0,.42,0,.59-.1.63-.54.07-.84.19-1.67.3-2.57a1.92,1.92,0,0,1-1.55.81c-3.48,0-7,0-10.44,0-.38,0-.51-.06-.42-.48.27-1.3.52-2.6.73-3.91.06-.43.22-.53.63-.53,2.39,0,4.77,0,7.16,0h3.94c.17,0,.4.09.44-.2.12-.9.23-1.79.35-2.69a2.54,2.54,0,0,1-1.85.6c-3.09,0-6.18,0-9.27,0-.87,0-.88,0-.7-.87.08-.4,0-.55-.45-.55-1.55,0-3.1,0-4.66,0-.92,0-.93,0-1.1.94-.06.34-.18.49-.56.48-1.17,0-2.33,0-3.5,0-.39,0-.62,0-.61.52a5.94,5.94,0,0,1-.15,1.26c-.1.41,0,.55.45.54,1.14,0,2.29,0,3.44,0,.32,0,.4.06.33.41-.26,1.32-.49,2.64-.73,4-.06.37-.18.56-.63.54-1,0-2.07,0-3.1,0-.34,0-.46.11-.47.44a9.78,9.78,0,0,1-.16,1.43c-.08.37.05.45.39.45,1,0,2,0,3,0,.34,0,.44.05.37.43-.36,1.75-.67,3.51-1,5.27-.12.64-.13.64.55.64h11.65c.19,0,.4-.07.6.08,0,.12-.09.24-.14.35-.87,2.06-1.75,4.11-2.6,6.17a.69.69,0,0,1-.76.51c-3.76,0-7.51,0-11.27,0-.36,0-.52.07-.54.47a9.32,9.32,0,0,1-.17,1.37c-.07.37,0,.5.44.5h27.31a.77.77,0,0,0,.65-.31c.58-.65,1.18-1.28,1.76-1.92.17-.19.27-.2.41,0a8.61,8.61,0,0,1,.67,1,2.18,2.18,0,0,0,2.49,1.29C207.38,36.16,208.58,36.25,209.86,36.25Zm-5.11-10.63c-.1.83-.83,1.17-1.25,1.8l-.82-1.1a.61.61,0,0,1-.09-.52c.51-3.8,1-7.6,1.5-11.4.07-.48.19-.73.74-.66s1.12-.19,1.38.1,0,.9-.09,1.37C205.66,18.68,205.19,22.15,204.75,25.62Z"/><path class="cls-1" d="M129.36,22.31c3.94,0,7.88,0,11.82,0,.37,0,.51,0,.44.48-.18,1.24-.31,2.48-.46,3.73l-1.2,10c-.09.81-.18,1.62-.29,2.57a9.08,9.08,0,0,1,1.56-1.29,7.94,7.94,0,0,1,4.1-1c.4,0,.54-.14.59-.52.17-1.52.37-3,.57-4.56.37-2.92.75-5.85,1.11-8.78.06-.48.21-.66.74-.65,2.89,0,5.78,0,8.66,0h3.39c.19,0,.42.06.45-.25.13-1,.26-2,.4-3.17a1.77,1.77,0,0,1-1.28.77c-3.85,0-7.69,0-11.54,0-.29,0-.37-.07-.33-.38q.28-2.09.51-4.17c.05-.44.19-.6.68-.6,3.33,0,6.66,0,10,0,.44,0,.57-.15.61-.54.1-1,.23-1.91.36-3a1.91,1.91,0,0,1-1.94.9c-2.9,0-5.81,0-8.71,0-.49,0-.61-.12-.49-.6s.1-.87.17-1.31c0-.25,0-.37-.3-.37h-5.44c-.29,0-.37.12-.39.39,0,.46-.15.91-.16,1.37s-.23.52-.62.51c-2.93,0-5.85,0-8.77,0A1.48,1.48,0,0,1,132,11c-.12,1.08-.21,2-.36,2.93-.07.51,0,.66.59.66,3.31,0,6.62,0,9.94,0,.38,0,.49.07.43.49-.19,1.37-.36,2.74-.49,4.12,0,.44-.18.54-.59.53-3.61,0-7.22,0-10.83,0a1.55,1.55,0,0,1-1.55-.72c-.11.89-.23,1.78-.34,2.66C128.66,22.31,128.65,22.31,129.36,22.31Z"/><path class="cls-1" d="M136.83,25.17c-1.7,0-3.4,0-5.11,0a.61.61,0,0,0-.7.48c-.94,2.52-1.92,5-2.86,7.55a.69.69,0,0,1-.8.53c-2.75,0-5.51,0-8.27,0H96.62c-.52,0-.68,0-.6-.65.42-3.12.77-6.25,1.15-9.38,0-.37-.09-.44-.41-.43-.71,0-1.41,0-2.11,0-1.52,0-1.5,0-1.67,1.52-.42,3.62-.87,7.25-1.31,10.87-.08.68-.09.68.58.68h40.29c.33,0,.57,0,.72-.41,1.28-3.43,2.59-6.85,3.9-10.28C137.31,25.28,137.27,25.16,136.83,25.17Z"/><path class="cls-1" d="M106.36,12.31c.37-.05.36.13.33.42-.37,3-.72,6-1.08,9q-.44,3.74-.89,7.46c0,.18,0,.43-.26.41-.49,0-.52.28-.56.62s-.09.84-.16,1.26.06.51.47.47c2-.2,4.08-.37,6.13-.57.4,0,.61,0,.47.48s0,.48.41.47c.85,0,1.7,0,2.55,0,.56,0,.79-.15.74-.7s.22-.73.73-.7c.17,0,.37,0,.46-.2.27-.72.53-1.44.82-2.21-.49,0-.92.06-1.33.12s-.32,0-.28-.29c.08-.53.12-1.07.18-1.6q.6-5,1.19-9.93c.17-1.34.32-2.68.49-4,0-.25,0-.6.44-.52.25,0,.32-.11.34-.32.06-.51.11-1,.19-1.54.05-.35,0-.49-.43-.47-.59,0-1.18,0-1.77,0h-8.72c-.21,0-.49-.12-.53.28-.05.57-.13,1.13-.21,1.7C106.05,12.2,106.1,12.34,106.36,12.31Zm3.7.32c0-.23.1-.32.33-.32h2.44c.24,0,.33,0,.29.32-.14,1-.27,2.08-.38,3.12,0,.28-.16.37-.39.32a1.86,1.86,0,0,0-2.17,1.16,9.91,9.91,0,0,1-.68.92l-.09,0Q109.74,15.37,110.06,12.63ZM109,21.46c.09-.85.21-1.68.29-2.53,0-.37.13-.56.56-.54.74,0,1.48,0,2.22,0,.28,0,.35.09.32.36-.13,1-.25,2-.36,3,0,.34-.2.45-.51.4a1.67,1.67,0,0,0-1.93,1,10.84,10.84,0,0,1-.78,1l-.11,0C108.8,23.23,108.89,22.34,109,21.46Zm-.4,3.37c0-.29.14-.38.41-.37s.78,0,1.25,0,1-.21,1.3.1,0,.91,0,1.38c-.1.91-.23,1.82-.32,2.74,0,.24-.1.35-.36.37l-2.37.21c-.26,0-.41,0-.37-.33Q108.38,26.89,108.6,24.83Z"/><path class="cls-1" d="M230.36,11.36c-.57.17-.67.1-.61-.48,0-.24.05-.48.1-.71.09-.44-.09-.58-.52-.57-1.31,0-2.62,0-3.93,0-.49,0-.73.11-.69.63,0,.23-.08.47-.08.71s-.14.51-.53.5c-1,0-2.07,0-3.1,0-1.18,0-1.18,0-1.05-1.19,0-.05,0-.11,0-.16.08-.37-.07-.48-.44-.48-1.13,0-2.25,0-3.38,0-1.28,0-1.3,0-1.4,1.31,0,.39-.15.59-.57.51s-.51.14-.53.5a8.83,8.83,0,0,1-.14,1.26c-.09.44,0,.66.49.58.24,0,.41,0,.36.34-.35,2.76-.66,5.52-1,8.28-.05.42.06.5.45.49q7,0,14,0c.37,0,.54-.1.57-.48a6.05,6.05,0,0,1,.14-1.2c.13-.54-.06-.65-.58-.64-2.9,0-5.8,0-8.71,0-.41,0-.56-.1-.49-.53.11-.64.17-1.28.24-1.92,0-.3.15-.4.46-.4,1,0,2,0,3.05,0,1.27,0,1.27,0,1.15,1.24a2.45,2.45,0,0,1,0,.27c-.08.31,0,.42.35.41,1.44,0,2.88,0,4.32,0,.29,0,.42-.06.45-.39.16-1.44.36-2.89.53-4.33.13-1.13.12-1.14,1.27-1.19.22,0,.39,0,.42-.3.09-.9.21-1.79.33-2.74A3.31,3.31,0,0,1,230.36,11.36Zm-7.54,4.06c-.7,0-1.5-.24-2.07.09s-.85,1-1.27,1.57c-.11.13-.17.33-.41.41.15-1.17.3-2.32.43-3.46,0-.22.11-.28.32-.28H224c.24,0,.31.07.29.32C224.16,15.41,224.16,15.4,222.82,15.42Z"/><path class="cls-1" d="M171.41,12.39c.17,0,.34,0,.5,0,.31,0,.42-.1.44-.41a9.81,9.81,0,0,1,.18-1.43c.09-.43-.05-.53-.47-.52-2.11,0-4.22,0-6.33,0-.68,0-1.3,0-1.68-.72-.1.77-.18,1.54-.28,2.31s-.1.78.62.74c.48,0,.53.15.47.58-.27,2-.49,4.06-.74,6.09-.38,3.22-.78,6.44-1.16,9.66-.28,2.35-.55,4.69-.84,7,0,.31,0,.41.35.41h5.33c.28,0,.41,0,.45-.38q.69-5.88,1.42-11.75.68-5.62,1.33-11.26C171,12.47,171.14,12.37,171.41,12.39Z"/><path class="cls-1" d="M118.46,12.36c1.77,0,3.55,0,5.41,0-.72,1.69-1.4,3.31-2.15,5.08-.3-.85-.57-1.55-.8-2.27a.55.55,0,0,0-.62-.46c-.9,0-1.81,0-2.72,0-.51,0-.47.16-.34.54.79,2.16,1.54,4.34,2.33,6.5a1.1,1.1,0,0,1,0,.89q-1.95,4.57-3.88,9.15c-.24.56-.24.56.38.56.87,0,1.74,0,2.61,0a.59.59,0,0,0,.65-.44q.93-2.25,1.89-4.48c0-.12.06-.29.25-.35a1.76,1.76,0,0,1,.09.2c.55,1.54,1.11,3.08,1.64,4.63a.55.55,0,0,0,.64.44c.86,0,1.74,0,2.6,0,.49,0,.6-.08.43-.57-1.12-3.07-2.2-6.14-3.3-9.21a1,1,0,0,1,0-.79c1.07-2.5,2.06-5.05,3.21-7.51a15,15,0,0,0,1.14-5,2,2,0,0,1-1.78.75c-2.48,0-5,0-7.44,0-.43,0-.59.14-.61.55a10,10,0,0,1-.14,1.21C117.84,12.26,118,12.36,118.46,12.36Z"/><path class="cls-1" d="M94.12,21c1.37,0,2.74,0,4.11,0,.24,0,.43,0,.39.34-.21,1.63-.4,3.26-.59,4.89-.24,2-.47,3.91-.72,5.87,0,.38,0,.51.45.46,1.34-.15,2.68-.26,4-.37s1.38-.1,1.54-1.43c0-.09,0-.18,0-.27.12-.76.12-.76-.61-.67-.15,0-.3,0-.44,0-.34.06-.44,0-.39-.4.33-2.67.64-5.35.94-8,0-.38.21-.43.54-.43,1.31,0,1.31,0,1.44-1.32V19.6c.08-.88.08-.88-.79-.92-.2,0-.43.05-.39-.29.19-1.57.37-3.15.56-4.72,0-.19.06-.35.32-.35s.65.13.86-.07.09-.6.15-.9a5.21,5.21,0,0,0,.08-.55c.07-.76.07-.78-.73-.8-.29,0-.39-.06-.32-.38s.09-.8.17-1.2-.1-.53-.5-.52c-1.11,0-2.22,0-3.33,0s-1.24,0-1.42,1.22a2.64,2.64,0,0,0-.08.49c0,.33-.15.39-.44.38H96.82c-.76,0-1.54.11-1.92-.95-.13,1-.22,1.88-.35,2.72-.06.4,0,.58.48.57,1.2,0,2.4,0,3.61,0,.37,0,.47.09.42.46-.19,1.5-.37,3-.53,4.5,0,.31-.14.41-.44.41-.87,0-1.74,0-2.61,0a1.27,1.27,0,0,1-1.48-.9c-.14,1-.23,1.85-.36,2.68C93.57,20.89,93.7,21,94.12,21Z"/><path class="cls-1" d="M159,34.83c-.46-3.07-.88-6.15-1.31-9.22,0-.31-.13-.45-.47-.44-.89,0-1.78,0-2.67,0s-1.73,0-2.6,0c-.47,0-.5.16-.44.55.22,1.45.43,2.9.63,4.36q.41,2.91.8,5.84c.05.36.22.46.59.45,1.38,0,2.77,0,4.15,0C159.26,36.36,159.23,36.37,159,34.83Z"/><path class="cls-1" d="M222,24c-.82,0-1.63,0-2.44,0-.52,0-.76.12-.75.64a2.48,2.48,0,0,1,0,.27L217.58,34c-.24,1.88-.48,3.76-.74,5.77a5,5,0,0,1,3.31-1.38c.45,0,.55-.17.6-.57.27-2.26.57-4.53.85-6.8s.54-4.35.82-6.52C222.47,24.08,222.37,24,222,24Z"/><path class="cls-1" d="M214.46,35.85q1.68-5.14,3.37-10.28c.13-.4,0-.47-.36-.47-1.77,0-3.54,0-5.32,0-1.25,0-1.25,0-1.44,1.26a1.28,1.28,0,0,1-.05.27c-.08.37,0,.55.43.52.59,0,1.19,0,1.78,0,.4,0,.44.1.32.46-.58,1.73-1.14,3.46-1.7,5.19l-1.12,3.45c1.28,0,2.48,0,3.68,0C214.36,36.26,214.39,36.06,214.46,35.85Z"/><path class="cls-1" d="M228.42,25.1c-.77,0-1.55,0-2.33,0s-1.66,0-2.49,0c-.34,0-.51,0-.44.46s.09,1,.14,1.54c.25,2.94.51,5.87.76,8.81,0,.24.07.35.35.35h3.32c.23,0,.32,0,.29-.32-.09-.84-.15-1.68-.22-2.53q-.26-2.88-.5-5.78c0-.22-.11-.49.3-.48s.85.17,1.12-.1.11-.78.22-1.17a.88.88,0,0,0,0-.16C229.07,25.26,229,25.06,228.42,25.1Z"/><path class="cls-1" d="M204.56,43.8c-.28.5-.54,1-.81,1.51l-1.59,2.91a.73.73,0,0,1-.17-.46c-.16-1.15-.31-2.3-.48-3.45-.11-.76-.12-.73-.9-.77-.47,0-.63.12-.71.57-.29,1.62-.63,3.22-.94,4.83-.12.58,0,.67.55.6.37,0,.29-.35.33-.55.26-1.22.49-2.45.75-3.73a.76.76,0,0,1,.17.49c.16,1.09.32,2.18.47,3.28.05.37.17.54.59.52a.78.78,0,0,0,.77-.46c.68-1.29,1.39-2.55,2.08-3.83l.09,0c-.25,1.23-.5,2.47-.73,3.71,0,.17-.24.5.15.5s.71.24.82-.35c.32-1.75.69-3.5,1-5.25,0-.1.08-.22,0-.31A1.93,1.93,0,0,0,204.56,43.8Z"/><path class="cls-1" d="M143.05,43.54c-.27,0-.33.13-.38.36-.23,1.21-.48,2.41-.76,3.76L141.6,47c-.49-1.05-1-2.1-1.47-3.16-.21-.49-.61-.27-.94-.32s-.32.13-.36.33q-.53,2.67-1.06,5.36c0,.1-.06.2.07.28a.64.64,0,0,0,.86-.38c.08-.4.15-.8.23-1.19l.57-2.8c.69,1.44,1.32,2.72,1.9,4,.18.4.46.34.77.35s.33-.28.38-.49c.33-1.64.63-3.29,1-4.92C143.65,43.6,143.51,43.51,143.05,43.54Z"/><path class="cls-1" d="M99.81,43.55A.59.59,0,0,0,99,44c-.23,1.16-.47,2.32-.7,3.48-.17,0-.18-.14-.22-.22C97.52,46.15,97,45,96.46,43.89c-.24-.54-.65-.29-1-.33s-.29.28-.33.46c-.33,1.64-.65,3.29-1,4.93-.11.57,0,.66.57.59.34,0,.27-.32.31-.5.26-1.24.5-2.49.77-3.88.14.26.21.39.27.52.56,1.18,1.13,2.35,1.67,3.54.17.38.45.3.73.31s.33-.1.37-.31l1.05-5.36C99.93,43.74,100,43.62,99.81,43.55Z"/><path class="cls-1" d="M216,43.55c-.6,0-1.22,0-1.82,0-.44,0-.61.1-.69.53-.25,1.4-.55,2.78-.81,4.17-.08.41-.39.92-.14,1.2s.8.05,1.22.09a3.57,3.57,0,0,0,3.29-1.2,4.17,4.17,0,0,0,.86-2.89A1.87,1.87,0,0,0,216,43.55Zm.79,3.27a2.3,2.3,0,0,1-2.42,1.84c-.8,0-.8,0-.64-.77.21-1,.43-2,.61-3.08.06-.33.17-.46.53-.46C216.59,44.33,217.22,45.12,216.75,46.82Z"/><path class="cls-1" d="M115.52,47a2.15,2.15,0,0,0,1.31-2.07,1.25,1.25,0,0,0-1.25-1.33c-.37,0-.74,0-1.11,0h0c-.37,0-.74,0-1.11,0s-.36.05-.41.32c-.34,1.77-.69,3.53-1,5.3,0,.12-.14.28.09.36a.65.65,0,0,0,.94-.55c.09-.45.15-.91.26-1.35,0-.19,0-.51.37-.51s.51.06.63.38.46.89.62,1.35a.9.9,0,0,0,1.11.69c.31,0,.4-.08.24-.37-.29-.54-.56-1.08-.85-1.62C115.16,47.27,115.13,47.13,115.52,47Zm-1.33-.61c-.72,0-.72,0-.59-.69a1.66,1.66,0,0,0,0-.22c.24-1.19.24-1.19,1.47-1.1a.71.71,0,0,1,.71.9C115.69,46,115.24,46.35,114.19,46.35Z"/><path class="cls-1" d="M185,47a2.21,2.21,0,0,0,1.33-2.17,1.24,1.24,0,0,0-1.19-1.23c-.38,0-.77,0-1.16,0h0c-.37,0-.74,0-1.11,0a.35.35,0,0,0-.42.31c-.34,1.79-.7,3.58-1.06,5.37,0,.11-.09.23.11.3a.65.65,0,0,0,.94-.55c.08-.45.15-.91.26-1.35.05-.2,0-.51.37-.51s.51.05.63.37c.18.48.47.92.64,1.41a.86.86,0,0,0,1,.65c.35,0,.47-.07.27-.43s-.53-1-.82-1.56C184.67,47.28,184.6,47.12,185,47Zm-.87-.63c-1.21.09-1.21.09-1-1.06l0-.16c.15-.78.15-.78.95-.78s1.13.15,1.15.68A1.2,1.2,0,0,1,184.13,46.34Z"/><path class="cls-1" d="M147.28,44.42A1.2,1.2,0,0,1,149,45c.08.15.15.15.29.11.66-.19.8-.53.36-1.07a2,2,0,0,0-2.18-.57,3.82,3.82,0,0,0-2.72,4.16A2,2,0,0,0,147,49.59a2.62,2.62,0,0,0,2.56-2.19c.26-1.06.26-1.06-.82-1.06-.24,0-.48,0-.72,0-.52,0-.41.39-.45.65s.27.21.44.22c.75,0,.79.1.42.76a1.48,1.48,0,0,1-1.45.81,1.11,1.11,0,0,1-1.07-.66A3.17,3.17,0,0,1,147.28,44.42Z"/><path class="cls-1" d="M226.19,44c0-.18.06-.48-.24-.46s-.87-.25-1.12.18c-1.05,1.88-2.06,3.78-3.12,5.73,1,.12,1,.13,1.35-.68.28-.66.62-1.08,1.42-.92.39.08.92-.16,1.18.09s.17.75.2,1.16a.43.43,0,0,1,0,0c.07.59.53.31.82.34s.26-.27.23-.46C226.69,47.38,226.44,45.71,226.19,44Zm-.89,3c-.4,0-1,.18-1.16-.1s.25-.66.4-1,.48-.94.79-1.55c.11.88.19,1.58.28,2.29C225.65,47,225.57,47.1,225.3,47.07Z"/><path class="cls-1" d="M179.51,43.9c-.18.84-.34,1.69-.51,2.54a10.08,10.08,0,0,1-.33,1.34,1.61,1.61,0,0,1-2,.93c-.63-.2-.78-.67-.58-1.67s.41-2.09.61-3.14c0-.11.17-.27-.09-.35a.62.62,0,0,0-.87.49l-.12.59c-.21,1.08-.42,2.16-.6,3.06a1.66,1.66,0,0,0,1,1.73,2.8,2.8,0,0,0,3.79-1.91c.28-1.2.49-2.41.73-3.62,0-.1.1-.21,0-.31S179.57,43.61,179.51,43.9Z"/><path class="cls-1" d="M168.06,43.57c-.28,0-.72-.27-.83.32-.19,1.11-.43,2.2-.65,3.3a1.93,1.93,0,0,1-.71,1.28,1.66,1.66,0,0,1-1.72.13,1.17,1.17,0,0,1-.37-1.39c.22-1,.42-2.09.61-3.14,0-.17.28-.48-.13-.51s-.68-.19-.78.34c-.21,1.16-.48,2.31-.67,3.47-.24,1.46.49,2.25,2,2.22a2.7,2.7,0,0,0,2.8-2.39c.2-1.05.43-2.09.62-3.14C168.23,43.91,168.47,43.56,168.06,43.57Z"/><path class="cls-1" d="M126.61,43.45a2.56,2.56,0,0,0-2,.7,1.48,1.48,0,0,0,.71,2.63,5.93,5.93,0,0,1,.85.24.72.72,0,0,1,.41,1.08,1.21,1.21,0,0,1-1.14.65,1.15,1.15,0,0,1-1.18-.55c-.06-.1,0-.32-.2-.28a1.71,1.71,0,0,0-.7.31c-.19.16,0,.38.08.55a1,1,0,0,0,.43.49,2.72,2.72,0,0,0,3.57-.84,1.48,1.48,0,0,0-1-2.38c-.29-.08-.58-.13-.86-.23a.61.61,0,0,1-.36-1,1.21,1.21,0,0,1,2-.07c.27.49.48.09.71,0s.3-.26.18-.5A1.47,1.47,0,0,0,126.61,43.45Z"/><path class="cls-1" d="M122.15,43.56c-.92,0-1.84,0-2.77,0-.19,0-.38,0-.44.27-.35,1.8-.72,3.6-1.08,5.41,0,.15,0,.3.19.3,1,0,2.11,0,3.16,0,.37,0,.27-.42.31-.66s-.23-.18-.35-.18c-.72,0-1.44,0-2.19,0,.1-.53.22-1,.29-1.5,0-.29.16-.37.43-.37.57,0,1.15,0,1.72,0s.43-.37.47-.63c.07-.42-.29-.2-.46-.22a5,5,0,0,0-.77,0c-1.17,0-1.16,0-.93-1.16.07-.35.22-.44.56-.43.61,0,1.22,0,1.82,0s.39-.37.43-.61S122.29,43.56,122.15,43.56Z"/><path class="cls-1" d="M211.25,43.55c-.93,0-1.85,0-2.77,0-.26,0-.42.05-.47.33q-.51,2.67-1,5.31c-.05.28,0,.37.29.36.48,0,1,0,1.44,0h1.49c.53,0,.38-.43.43-.68s-.25-.18-.4-.18q-.89,0-1.77,0c-.3,0-.4-.08-.32-.38a10.28,10.28,0,0,0,.21-1.08c0-.31.18-.44.51-.42.54,0,1.08,0,1.61,0s.5-.27.52-.58-.31-.26-.5-.28a6.77,6.77,0,0,0-.78,0c-1.12,0-1.1,0-.87-1.12.07-.36.21-.49.58-.47.6,0,1.22,0,1.83,0,.44,0,.35-.35.4-.58S211.4,43.56,211.25,43.55Z"/><path class="cls-1" d="M191.67,43.56c-.92,0-1.85,0-2.77,0-.28,0-.42.05-.48.37-.33,1.76-.69,3.51-1,5.26-.07.33.06.37.33.36h1.39c.48,0,1,0,1.44,0s.46-.4.48-.69-.28-.17-.44-.18c-.59,0-1.18,0-1.77,0-.1,0-.32.07-.29-.13a14.52,14.52,0,0,1,.33-1.62c0-.17.25-.11.39-.11a12.35,12.35,0,0,1,1.61,0c.57,0,.54-.37.56-.67s-.33-.17-.51-.2a5.77,5.77,0,0,0-.72,0c-1.22,0-1.21,0-.94-1.19a.44.44,0,0,1,.53-.4c.63,0,1.26,0,1.89,0,.46,0,.34-.37.39-.59S191.81,43.56,191.67,43.56Z"/><path class="cls-1" d="M110.68,43.56c-.93,0-1.85,0-2.77,0-.23,0-.37,0-.43.29-.34,1.79-.71,3.57-1.07,5.36,0,.18,0,.33.22.33,1,0,2.07,0,3.11,0,.39,0,.28-.42.32-.66s-.2-.19-.34-.19h-2.21c.12-.57.24-1,.31-1.54,0-.27.16-.33.4-.33.57,0,1.15,0,1.72,0s.46-.32.49-.61S110.14,46,110,46a5.73,5.73,0,0,0-.83,0c-1.09,0-1,0-.89-1,.08-.47.28-.56.69-.54.57,0,1.15,0,1.72,0s.38-.31.42-.57S110.83,43.56,110.68,43.56Z"/><path class="cls-1" d="M161.39,43.56c-.89,0-1.78,0-2.66,0-.36,0-.46.12-.52.46-.32,1.68-.66,3.35-1,5,0,.17-.28.49.15.48.27,0,.69.26.79-.3s.29-1.29.39-1.94c0-.3.16-.4.46-.39.55,0,1.11,0,1.66,0s.38-.42.43-.67-.24-.19-.39-.19c-.63,0-1.25,0-1.9,0,.08-.46.16-.85.23-1.25a.42.42,0,0,1,.51-.42c.6,0,1.21,0,1.82,0,.46,0,.34-.37.39-.6S161.53,43.56,161.39,43.56Z"/><path class="cls-1" d="M105.41,43.56c-.55,0-1.11,0-1.66,0s-1.12,0-1.67,0-.48.3-.52.58c-.06.44.3.19.47.23a2.91,2.91,0,0,0,.66,0c.32,0,.4.06.33.41-.32,1.45-.59,2.92-.87,4.38,0,.13-.16.28.06.37a.67.67,0,0,0,1-.52c.27-1.37.54-2.74.8-4.12.07-.36.19-.6.64-.53a6.57,6.57,0,0,0,.77,0c.46,0,.34-.36.39-.59S105.55,43.56,105.41,43.56Z"/><path class="cls-1" d="M133.69,43.56c-.55,0-1.11,0-1.66,0s-1.11,0-1.66,0-.5.28-.52.58.3.2.47.23a3.46,3.46,0,0,0,.72,0c.28,0,.33.06.27.34-.3,1.44-.58,2.88-.85,4.33,0,.17-.27.49.15.48s.7.25.81-.34c.22-1.25.5-2.49.74-3.73.21-1.07.2-1.07,1.28-1.08h.27c.4,0,.3-.36.35-.59S133.83,43.56,133.69,43.56Z"/><path class="cls-1" d="M173.73,43.55h-1.66c-.56,0-1.11,0-1.67,0s-.49.27-.51.59.31.17.47.22a1.28,1.28,0,0,0,.55,0c.44-.05.49.15.41.52-.29,1.37-.57,2.74-.83,4.11,0,.18-.25.53.19.54s.7.18.79-.39c.2-1.22.47-2.42.72-3.63s.24-1.11,1.39-1.14h.16c.43,0,.3-.37.35-.58S173.89,43.56,173.73,43.55Z"/><path class="cls-1" d="M221.06,43.57c-.31,0-.76-.24-.87.36-.32,1.7-.65,3.4-1,5.09-.09.42,0,.59.43.5.38.1.51-.09.58-.45.31-1.66.66-3.32,1-5C221.18,43.94,221.46,43.6,221.06,43.57Z"/><path class="cls-1" d="M92.66,43.56c-.39-.11-.5.12-.57.46-.32,1.66-.66,3.31-1,5,0,.17-.23.49.15.51s.71.24.82-.34c.32-1.7.65-3.4,1-5.09C93.19,43.65,93.16,43.45,92.66,43.56Z"/><path class="cls-1" d="M136.72,43.56a.69.69,0,0,0-.93.47c-.34,1.67-.66,3.35-1,5-.09.43,0,.55.43.48.2,0,.46.11.54-.28.34-1.78.71-3.57,1.07-5.35C136.83,43.79,136.89,43.65,136.72,43.56Z"/></g></g></svg>