<svg xmlns="http://www.w3.org/2000/svg" xmlns:xlink="http://www.w3.org/1999/xlink" viewBox="0 0 195.67 58.76"><defs><style>.cls-1{fill:url(#未命名的渐变_7);}.cls-2{fill:url(#未命名的渐变_7-2);}.cls-3{fill:#353535;}.cls-4{fill:#b7b7b7;}</style><linearGradient id="未命名的渐变_7" x1="-5333.29" y1="-1738.73" x2="-5291.07" y2="-1738.73" gradientTransform="matrix(-0.84, -0.55, -0.55, 0.84, -5378.48, -1423.53)" gradientUnits="userSpaceOnUse"><stop offset="0" stop-color="#fff" stop-opacity="0"/><stop offset="1" stop-color="#6093f8"/></linearGradient><linearGradient id="未命名的渐变_7-2" x1="124.6" y1="45.84" x2="195.67" y2="45.84" gradientTransform="matrix(1, 0, 0, 1, 0, 0)" xlink:href="#未命名的渐变_7"/></defs><g id="图层_2" data-name="图层 2"><g id="图层_1-2" data-name="图层 1"><path class="cls-1" d="M21.07,42.22A21.1,21.1,0,0,1,3.42,9.59h0A21.11,21.11,0,1,1,21.07,42.22ZM21.13,7A14.17,14.17,0,0,0,9.28,13.41h0A14.09,14.09,0,1,0,21.13,7Z"/><polygon class="cls-2" points="195.67 56.05 192.67 56.05 192.67 38.63 124.59 38.63 124.59 35.63 195.67 35.63 195.67 56.05"/><path class="cls-3" d="M18.31,46.48V42.92h2.61v3.65q0,6.39-1.48,9.78a7.67,7.67,0,0,0-2.11-1.67.21.21,0,0,0-.09,0A23.85,23.85,0,0,0,18.31,46.48Zm11.86-5.14H25.68V58.7h-3.3V41.34H17.83V38.19H30.17Zm-.84-9.15v3.18H18.81V32.19Zm-2.2,22V42.89h2.56V54.18Zm12.48.27h6.25V58h-16V54.45h6V43.57h-5V40.06h5V30.88h3.71v9.18h5.24v3.51H39.61Z"/><path class="cls-3" d="M64.92,42.77l3.89,1.1A23.15,23.15,0,0,1,64.14,51a26.91,26.91,0,0,0,11.44,4.25,13.77,13.77,0,0,0-2.26,3.27.71.71,0,0,0-.08.18,26.74,26.74,0,0,1-12-5.14,34,34,0,0,1-11.86,5.2,14.87,14.87,0,0,0-2.14-3.27l-.15-.15A30.57,30.57,0,0,0,58.59,51a26.92,26.92,0,0,1-4.19-7l3.44-1a18,18,0,0,0,3.51,5.61A17.06,17.06,0,0,0,64.92,42.77Zm-9.75-5.23L58.91,39a30.86,30.86,0,0,1-7.16,6.6c-.44.3-.85.58-1.25.83a24,24,0,0,0-3-2.79,23.2,23.2,0,0,0,6.75-5C54.57,38.27,54.89,37.9,55.17,37.54Zm9,1.87,2.91-2.11H47.89V33.77h11.5V30.26H63.1v3.51H74.78V37.3H67.29a43.78,43.78,0,0,1,7.76,6.27l.12.12-3.24,2.5Q70,43.69,64.2,39.41Z"/><path class="cls-3" d="M87.75,52.78l-2.11,2.77a23.33,23.33,0,0,0-1.72-2.17A15.85,15.85,0,0,1,79,58.64a11.17,11.17,0,0,0-2.11-2.83,11.92,11.92,0,0,0,4.49-5L80,49.48l-.24,1L77,48.56q.6-2.4,1.87-8.94H76.78v-3.3h2.68q.56-3.36,1-6l3.36.3-1,5.7H85l.59-.06,2,.24a48.45,48.45,0,0,1-2.23,13.58A23.15,23.15,0,0,1,87.75,52.78ZM84.24,39.62H82.13c0,.12-.45,2.24-1.31,6.36.16.12.39.32.69.59.53.46.93.8,1.19,1A36.14,36.14,0,0,0,84.24,39.62ZM105,50.11H99.52a18.68,18.68,0,0,0,5.55,4.72l.45.24a14,14,0,0,0-2.47,2.82,23.36,23.36,0,0,1-5.26-5.29v6.1h-3.5V52.78a18.88,18.88,0,0,1-5.92,5.35A15.94,15.94,0,0,0,86,55.28a16.48,16.48,0,0,0,6.15-4.67c.14-.17.26-.34.38-.5H87.36v-3h6.93V45.21H90.07V36.44H87.24V33.38h2.83V30.29h3.29v3.09h5.41V30.29h3.45v3.09h2.64v3.06h-2.64v8.77H97.79v1.87H105ZM98.77,36.44H93.36V38h5.41Zm-5.41,4.25v1.63h5.41V40.69Z"/><path class="cls-3" d="M112.22,30.41l3.44,1a54.72,54.72,0,0,1-2.43,5.85V58.64h-3.45V43.18c-.36.5-1,1.29-1.84,2.38a16.68,16.68,0,0,0-1.82-3.44,3.5,3.5,0,0,0-.2-.33,29.86,29.86,0,0,0,5.61-9.48C111.79,31.66,112,31,112.22,30.41Zm22.37,8.73H128a33.66,33.66,0,0,0,5.74,10.37,19.05,19.05,0,0,0,1.69,1.82,13.05,13.05,0,0,0-2.7,2.79,29.86,29.86,0,0,1-2.44-3.21v2.68h-4.1v4.9h-3.5v-4.9h-4v-2.8a23.91,23.91,0,0,1-2.7,3.45,12.94,12.94,0,0,0-2.41-2.64.7.7,0,0,1-.18-.12,27.08,27.08,0,0,0,6.33-9.22A33.27,33.27,0,0,0,121,39.14h-6V35.7h7.7V30.44h3.5V35.7h8.41ZM119,50.38h3.72V42.62A40.86,40.86,0,0,1,119,50.38Zm7.22,0h3.75a45,45,0,0,1-3.75-8Z"/><path class="cls-4" d="M23.71,23.06a2.76,2.76,0,0,1-1.19,1.07,4.33,4.33,0,0,1-1.87.37,4.56,4.56,0,0,1-2.57-.7,3.25,3.25,0,0,1-1.4-1.87l1-.59a3.07,3.07,0,0,0,1.12,1.49,3.13,3.13,0,0,0,1.85.52,2.48,2.48,0,0,0,1.58-.45,1.69,1.69,0,0,0,.21-2.29,2.41,2.41,0,0,0-.87-.63,12.82,12.82,0,0,0-1.41-.49,15.15,15.15,0,0,1-1.61-.56,2.77,2.77,0,0,1-1-.8,2.21,2.21,0,0,1-.42-1.41,2.57,2.57,0,0,1,.45-1.52,2.75,2.75,0,0,1,1.24-1,4.59,4.59,0,0,1,1.78-.33,3.72,3.72,0,0,1,2.23.61A3,3,0,0,1,24,16l-1,.59a2.81,2.81,0,0,0-.89-1.17A2.48,2.48,0,0,0,20.54,15a2.46,2.46,0,0,0-1.53.43,1.33,1.33,0,0,0-.58,1.14,1.21,1.21,0,0,0,.32.87,2.14,2.14,0,0,0,.79.54,13.45,13.45,0,0,0,1.31.43,13.74,13.74,0,0,1,1.7.61,2.93,2.93,0,0,1,1.11.88,2.49,2.49,0,0,1,.46,1.56A3,3,0,0,1,23.71,23.06Z"/><path class="cls-4" d="M25.44,16.4a4.49,4.49,0,0,1,8.09,0,6.16,6.16,0,0,1,.6,2.79,6.08,6.08,0,0,1-.61,2.8,4.53,4.53,0,0,1-1.66,1.85,4.39,4.39,0,0,1-2.38.65,4.49,4.49,0,0,1-2.38-.64A4.43,4.43,0,0,1,25.44,22a6.21,6.21,0,0,1-.6-2.8A6.24,6.24,0,0,1,25.44,16.4Zm1.12,5a3.33,3.33,0,0,0,1.15,1.47,3,3,0,0,0,1.77.52,3,3,0,0,0,1.77-.52,3.5,3.5,0,0,0,1.16-1.47,5.44,5.44,0,0,0,.4-2.16,5.47,5.47,0,0,0-.4-2.18,3.35,3.35,0,0,0-1.16-1.46,3.26,3.26,0,0,0-3.53,0A3.28,3.28,0,0,0,26.56,17a5.47,5.47,0,0,0-.4,2.18A5.44,5.44,0,0,0,26.56,21.36Z"/><path class="cls-4" d="M42.32,21.79l1,.59A3.32,3.32,0,0,1,42,23.94a3.88,3.88,0,0,1-2.1.56,4.37,4.37,0,0,1-2.38-.67A4.72,4.72,0,0,1,35.82,22a6.43,6.43,0,0,1,0-5.51,4.63,4.63,0,0,1,1.68-1.87,4.37,4.37,0,0,1,2.38-.67,4,4,0,0,1,2.1.56A3.42,3.42,0,0,1,43.33,16l-1,.59a2.61,2.61,0,0,0-2.47-1.56,3,3,0,0,0-1.74.52A3.43,3.43,0,0,0,36.93,17a5.45,5.45,0,0,0-.41,2.17,5.52,5.52,0,0,0,.41,2.17,3.32,3.32,0,0,0,1.18,1.46,3,3,0,0,0,1.74.52A2.61,2.61,0,0,0,42.32,21.79Z"/><path class="cls-4" d="M45.76,24.35H44.51V14.07h1.25Z"/><path class="cls-4" d="M51.73,14.07l4.13,10.28H54.47l-1.14-3H49.07l-1.08,3H46.73l4-10.28Zm1.16,6.21-1.74-4.54L49.5,20.28Z"/><path class="cls-4" d="M56.83,14.07h1.25v9.16h5.07v1.12H56.83Z"/><path class="cls-4" d="M75.83,14.07h1V24.35H75.63V16.51L72.39,21.7h-.75l-3.27-5.21v7.86H67.16V14.07h1.1l3.79,6.11Z"/><path class="cls-4" d="M84.72,19.59H80.19v3.65h5.22v1.11H78.94V14.06h6.31v1.11H80.19v3.31h4.53Z"/><path class="cls-4" d="M89.77,14.07a6,6,0,0,1,2.71.6,4.54,4.54,0,0,1,1.89,1.77,5.38,5.38,0,0,1,.68,2.76A5.32,5.32,0,0,1,94.37,22a4.52,4.52,0,0,1-1.88,1.77,5.89,5.89,0,0,1-2.72.61H87V14.07Zm-.16,9.17a4.2,4.2,0,0,0,3-1,4,4,0,0,0,1.09-3,3.89,3.89,0,0,0-1.1-3,4.15,4.15,0,0,0-3-1.06h-1.4v8.07Z"/><path class="cls-4" d="M97.89,24.35H96.64V14.07h1.25Z"/><path class="cls-4" d="M103.86,14.07,108,24.35H106.6l-1.14-3H101.2l-1.08,3H98.86l4-10.28ZM105,20.28l-1.74-4.54-1.65,4.54Z"/></g></g></svg>