<svg xmlns="http://www.w3.org/2000/svg" xmlns:xlink="http://www.w3.org/1999/xlink" viewBox="0 0 152.49 62.88"><defs><style>.cls-1{fill:url(#未命名的渐变_7);}.cls-2{fill:#353535;}.cls-3{fill:#b7b7b7;}</style><linearGradient id="未命名的渐变_7" x1="-5023.16" y1="-1639.73" x2="-4967.26" y2="-1639.73" gradientTransform="matrix(-0.84, -0.55, -0.55, 0.84, -5052.02, -1326.51)" gradientUnits="userSpaceOnUse"><stop offset="0" stop-color="#fff" stop-opacity="0"/><stop offset="1" stop-color="#6093f8"/></linearGradient></defs><g id="图层_2" data-name="图层 2"><g id="图层_1-2" data-name="图层 1"><path class="cls-1" d="M27.9,55.92A28,28,0,0,1,4.55,12.69h0A27.95,27.95,0,0,1,51.37,43.22,27.72,27.72,0,0,1,33.72,55.31,28.07,28.07,0,0,1,27.9,55.92ZM28,7a21,21,0,0,0-17.59,9.52h0A20.92,20.92,0,1,0,28,7Z"/><path class="cls-2" d="M29.75,61.27l-3.36-1.48a15.41,15.41,0,0,0,2.41-6.18q.06-.33.12-.6l3.41.66a18.44,18.44,0,0,1-2.46,7.46A.64.64,0,0,0,29.75,61.27Zm8.41-8.67,2.08-1.67H30.52V40.32h4.67A20.18,20.18,0,0,0,32.57,36l3.12-1.46a16,16,0,0,1,3.09,4.9.49.49,0,0,1,0,.12l-1.75.8h5.61a30,30,0,0,0,2.77-5.91L49.21,36c-1,1.7-1.82,3.16-2.61,4.36h4.3V50.93H41.25a24.24,24.24,0,0,1,4.54,4l-2.64,2.32A22.8,22.8,0,0,0,38.78,53Zm1.33,6.68h5.23c.78,0,1.27-.21,1.49-.62a6.8,6.8,0,0,0,.39-2.11,8.67,8.67,0,0,0,3.29,1.31l.09,0c-.23,2-.75,3.32-1.54,3.92a5.76,5.76,0,0,1-3.36.77H39.14c-2.48,0-4.08-.41-4.82-1.25a4.72,4.72,0,0,1-.83-3.12V52.6h3.86v5.55c0,.56.19.9.57,1A7,7,0,0,0,39.49,59.28Zm-5-15.57v3.81h12.3V43.71ZM48,53.76l2.8-1.61A22.08,22.08,0,0,1,55,58.9l-3,1.78a19.35,19.35,0,0,0-3.62-6.42Z"/><path class="cls-2" d="M60.48,43.74l2.59-.18a33.9,33.9,0,0,0,1.84-3.24l3.18,2.11a52.08,52.08,0,0,1-5.91,8l5.23-.77a18.38,18.38,0,0,0,.21,3.09c-6,1.07-9.4,1.81-10.32,2.22l-.17.09a19.91,19.91,0,0,0-1.19-3.47A4.89,4.89,0,0,0,58,50.13c.1-.12.25-.28.44-.48a26.34,26.34,0,0,0,2.41-2.88,15.83,15.83,0,0,0-4,.75A21.57,21.57,0,0,0,55.61,44a4.11,4.11,0,0,0,1.87-1.72,28.11,28.11,0,0,0,2.77-5.11c.43-1,.79-1.89,1.07-2.74L65.06,36A44,44,0,0,1,60.48,43.74Zm-4,17.92L55.91,58q4.13-.57,11.71-2l.26,3.35c-1.74.38-4.35.92-7.84,1.64C58.39,61.25,57.21,61.5,56.47,61.66Zm27.61-20H77.75V45h5.59v3.45h-15V45H74V41.63H67.59V38.19H74V34.44h3.8v3.75h6.33Zm-15,21.25V50.64H82.8V62.76H79.09V61.57H72.64v1.31Zm10-9H72.64v4.4h6.45Z"/><path class="cls-2" d="M86,46.42h28v3.92H86Z"/><path class="cls-2" d="M143.18,40.32H130.93v4.79l.63-.68a61.32,61.32,0,0,1,10.22,6l.15.12-2.68,3.32a53.92,53.92,0,0,0-8.32-5.52V62.79H127V40.32h-11V36.67h27.13Z"/><path class="cls-3" d="M32.65,27.25a2.8,2.8,0,0,1-1.19,1.06,4.3,4.3,0,0,1-1.87.38A4.56,4.56,0,0,1,27,28a3.23,3.23,0,0,1-1.4-1.86l1-.59a2.93,2.93,0,0,0,3,2,2.46,2.46,0,0,0,1.57-.44,1.53,1.53,0,0,0,.56-1.25,1.55,1.55,0,0,0-.35-1.05,2.37,2.37,0,0,0-.86-.63,14.53,14.53,0,0,0-1.41-.49,12.08,12.08,0,0,1-1.61-.56,2.7,2.7,0,0,1-1-.8,2.2,2.2,0,0,1-.42-1.4,2.61,2.61,0,0,1,.45-1.53,2.84,2.84,0,0,1,1.25-1,4.54,4.54,0,0,1,1.77-.33,3.72,3.72,0,0,1,2.23.61,2.91,2.91,0,0,1,1.14,1.53l-1,.59A2.73,2.73,0,0,0,31,19.64a2.93,2.93,0,0,0-3,0,1.35,1.35,0,0,0-.58,1.14,1.21,1.21,0,0,0,.32.87,2.14,2.14,0,0,0,.79.54c.32.13.76.27,1.31.43a13.16,13.16,0,0,1,1.7.61,2.93,2.93,0,0,1,1.11.88,2.45,2.45,0,0,1,.46,1.56A2.94,2.94,0,0,1,32.65,27.25Z"/><path class="cls-3" d="M34.38,20.58a4.42,4.42,0,0,1,1.67-1.85,4.47,4.47,0,0,1,2.38-.65,4.42,4.42,0,0,1,2.38.66,4.46,4.46,0,0,1,1.66,1.85,6.16,6.16,0,0,1,.6,2.79,6.08,6.08,0,0,1-.61,2.8A4.46,4.46,0,0,1,40.8,28a4.36,4.36,0,0,1-2.37.66A4.47,4.47,0,0,1,36.05,28a4.42,4.42,0,0,1-1.67-1.85,6.28,6.28,0,0,1-.6-2.81A6.24,6.24,0,0,1,34.38,20.58Zm1.12,5A3.23,3.23,0,0,0,36.66,27a3.26,3.26,0,0,0,3.53,0,3.37,3.37,0,0,0,1.16-1.47,6.09,6.09,0,0,0,0-4.34,3.34,3.34,0,0,0-1.16-1.46,3.26,3.26,0,0,0-3.53,0,3.32,3.32,0,0,0-1.15,1.46,5.3,5.3,0,0,0-.41,2.18A5.44,5.44,0,0,0,35.5,25.54Z"/><path class="cls-3" d="M47.37,28.24a2.17,2.17,0,0,1-.91-1.38l1-.58A1.5,1.5,0,0,0,49,27.53,1.24,1.24,0,0,0,50.14,27a3,3,0,0,0,.36-1.64V18.25h1.25v7.21A3.35,3.35,0,0,1,51,27.91a2.67,2.67,0,0,1-2,.78A2.9,2.9,0,0,1,47.37,28.24Z"/><path class="cls-3" d="M60.42,18.25h1.25v6.12a5.13,5.13,0,0,1-.48,2.3,3.46,3.46,0,0,1-1.38,1.5,4.37,4.37,0,0,1-2.16.52,3.8,3.8,0,0,1-2.94-1.16,4.46,4.46,0,0,1-1.06-3.16V18.25H54.9v5.93a3.85,3.85,0,0,0,.7,2.49,2.89,2.89,0,0,0,4.11,0,3.85,3.85,0,0,0,.71-2.49Z"/><path class="cls-3" d="M69.71,27.25a2.75,2.75,0,0,1-1.19,1.06,4.3,4.3,0,0,1-1.87.38A4.58,4.58,0,0,1,64.08,28a3.23,3.23,0,0,1-1.4-1.86l1-.59a2.93,2.93,0,0,0,3,2,2.44,2.44,0,0,0,1.57-.44,1.53,1.53,0,0,0,.56-1.25,1.55,1.55,0,0,0-.35-1.05,2.37,2.37,0,0,0-.86-.63,12.82,12.82,0,0,0-1.41-.49,12.08,12.08,0,0,1-1.61-.56,2.6,2.6,0,0,1-1-.8,2.15,2.15,0,0,1-.43-1.4,2.61,2.61,0,0,1,.45-1.53,2.84,2.84,0,0,1,1.25-1,4.58,4.58,0,0,1,1.77-.33,3.72,3.72,0,0,1,2.23.61A2.86,2.86,0,0,1,70,20.22l-1,.59a2.73,2.73,0,0,0-.89-1.17,2.93,2.93,0,0,0-3,0,1.38,1.38,0,0,0-.58,1.14,1.21,1.21,0,0,0,.32.87,2.14,2.14,0,0,0,.79.54c.32.13.76.27,1.31.43a13.16,13.16,0,0,1,1.7.61,2.93,2.93,0,0,1,1.11.88,2.45,2.45,0,0,1,.46,1.56A2.94,2.94,0,0,1,69.71,27.25Z"/><path class="cls-3" d="M70.3,18.25H78v1.11H74.74v9.17H73.49V19.36H70.3Z"/><path class="cls-3" d="M80.53,18.25h7.64v1.11H85v9.17H83.72V19.36H80.53Z"/><path class="cls-3" d="M88.84,20.58a4.42,4.42,0,0,1,1.67-1.85,4.47,4.47,0,0,1,2.38-.65,4.42,4.42,0,0,1,2.38.66,4.46,4.46,0,0,1,1.66,1.85,6.16,6.16,0,0,1,.61,2.79,6.08,6.08,0,0,1-.62,2.8A4.46,4.46,0,0,1,95.26,28a4.36,4.36,0,0,1-2.37.66A4.47,4.47,0,0,1,90.51,28a4.42,4.42,0,0,1-1.67-1.85,6.28,6.28,0,0,1-.6-2.81A6.24,6.24,0,0,1,88.84,20.58Zm1.12,5A3.3,3.3,0,0,0,91.12,27a3.26,3.26,0,0,0,3.53,0,3.37,3.37,0,0,0,1.16-1.47,6.09,6.09,0,0,0,0-4.34,3.34,3.34,0,0,0-1.16-1.46,3.24,3.24,0,0,0-3.52,0A3.27,3.27,0,0,0,90,21.2a5.3,5.3,0,0,0-.41,2.18A5.44,5.44,0,0,0,90,25.54Z"/><path class="cls-3" d="M108.62,27.25a2.83,2.83,0,0,1-1.2,1.06,4.27,4.27,0,0,1-1.87.38A4.58,4.58,0,0,1,103,28a3.23,3.23,0,0,1-1.4-1.86l1-.59a2.93,2.93,0,0,0,3,2,2.44,2.44,0,0,0,1.57-.44,1.71,1.71,0,0,0,.21-2.3,2.37,2.37,0,0,0-.86-.63,12.82,12.82,0,0,0-1.41-.49,12.61,12.61,0,0,1-1.61-.56,2.6,2.6,0,0,1-1-.8,2.2,2.2,0,0,1-.42-1.4,2.67,2.67,0,0,1,.44-1.53,2.84,2.84,0,0,1,1.25-1,4.58,4.58,0,0,1,1.77-.33,3.72,3.72,0,0,1,2.23.61,2.93,2.93,0,0,1,1.15,1.53l-1,.59a2.73,2.73,0,0,0-.89-1.17,2.93,2.93,0,0,0-3,0,1.37,1.37,0,0,0-.57,1.14,1.2,1.2,0,0,0,.31.87,2.18,2.18,0,0,0,.8.54,13.11,13.11,0,0,0,1.3.43,13.16,13.16,0,0,1,1.7.61,2.93,2.93,0,0,1,1.11.88,2.45,2.45,0,0,1,.46,1.56A3,3,0,0,1,108.62,27.25Z"/><path class="cls-3" d="M116.93,18.25h1.25v6.12a5.13,5.13,0,0,1-.48,2.3,3.46,3.46,0,0,1-1.38,1.5,4.34,4.34,0,0,1-2.16.52,3.8,3.8,0,0,1-2.94-1.16,4.46,4.46,0,0,1-1.06-3.16V18.25h1.25v5.93a3.85,3.85,0,0,0,.7,2.49,2.89,2.89,0,0,0,4.11,0,3.85,3.85,0,0,0,.71-2.49Z"/><path class="cls-3" d="M128.84,18.25h1V28.53h-1.22V20.69l-3.24,5.19h-.75l-3.27-5.21v7.86h-1.21V18.25h1.1l3.79,6.11Z"/><path class="cls-3" d="M142.07,18.25h1.25v6.12a5.13,5.13,0,0,1-.48,2.3,3.46,3.46,0,0,1-1.38,1.5,4.37,4.37,0,0,1-2.16.52,3.8,3.8,0,0,1-2.94-1.16,4.46,4.46,0,0,1-1.06-3.16V18.25h1.25v5.93a3.85,3.85,0,0,0,.7,2.49,2.89,2.89,0,0,0,4.11,0,3.85,3.85,0,0,0,.71-2.49Z"/><path class="cls-3" d="M148.47,18.25a4.11,4.11,0,0,1,1.86.41,3.16,3.16,0,0,1,1.29,1.13,3,3,0,0,1,.46,1.65,3,3,0,0,1-.45,1.65,3.1,3.1,0,0,1-1.28,1.12,4.22,4.22,0,0,1-1.88.4h-1.91v3.92h-1.25V18.25Zm-.15,5.27a2.62,2.62,0,0,0,1.81-.58,2.1,2.1,0,0,0,0-3,2.53,2.53,0,0,0-1.81-.59h-1.76v4.17Z"/><path class="cls-3" d="M151.13,28.44a.82.82,0,0,1,0-1.14.76.76,0,0,1,.56-.24.78.78,0,0,1,.57.24.83.83,0,0,1,0,1.15.78.78,0,0,1-.57.24A.77.77,0,0,1,151.13,28.44Z"/></g></g></svg>