<svg xmlns="http://www.w3.org/2000/svg" viewBox="0 0 55.61 46.6"><defs><style>.cls-1{fill:#6093f8;}</style></defs><g id="图层_2" data-name="图层 2"><g id="图层_1-2" data-name="图层 1"><path class="cls-1" d="M44.8,25a5.72,5.72,0,0,1,1.9,2.52,7.64,7.64,0,0,1,.45,3.08,11.08,11.08,0,0,1-.7,3.2,12.25,12.25,0,0,1-1.55,2.91,19.09,19.09,0,0,1-3.86,4,24.9,24.9,0,0,1-4.45,2.75A26.9,26.9,0,0,1,32,45.22a37.57,37.57,0,0,1-4.38.93c-1.37.2-2.6.32-3.68.37s-1.93.08-2.53.08-1.4,0-2.4-.13a27.85,27.85,0,0,1-3.33-.5,32.62,32.62,0,0,1-3.83-1,21.27,21.27,0,0,1-3.9-1.78,19.87,19.87,0,0,1-3.63-2.7,14.57,14.57,0,0,1-2.93-3.85A9.65,9.65,0,0,1,.28,33.48,25.5,25.5,0,0,1,0,29.28a9.81,9.81,0,0,1,.38-2.5A14,14,0,0,1,1.7,23.67,26,26,0,0,1,4.3,20a51.35,51.35,0,0,1,4.21-4.4,41.6,41.6,0,0,1,5.18-4.18,22.5,22.5,0,0,1,5.73-2.83A10.05,10.05,0,0,1,22.52,8a5.43,5.43,0,0,1,2.81.55c.33.37.65.74,1,1.12a3.2,3.2,0,0,1,.6,1.43,3.24,3.24,0,0,1,0,1.35c-.08.44-.17.87-.27,1.3s-.19.85-.25,1.26a1.93,1.93,0,0,0,.1,1.1A5.07,5.07,0,0,0,28.13,16a13.17,13.17,0,0,0,1.55-.45L31.21,15a8.63,8.63,0,0,1,1.62-.46,13.59,13.59,0,0,1,2.68-.22,8.39,8.39,0,0,1,2.4.37,4.37,4.37,0,0,1,1.78,1.08,3.19,3.19,0,0,1,.85,1.88,2.8,2.8,0,0,1-.1,1.3c-.13.4-.27.78-.42,1.13a5.82,5.82,0,0,0-.35,1.07,2.07,2.07,0,0,0,.07,1.15,1.44,1.44,0,0,0,.73.65,14.08,14.08,0,0,0,1.32.6l1.58.65A7.15,7.15,0,0,1,44.8,25ZM32.18,40.59a13.06,13.06,0,0,0,2.63-2.2A12.37,12.37,0,0,0,37,35.26a9.66,9.66,0,0,0,.93-3.7,7.39,7.39,0,0,0-1-4,10.3,10.3,0,0,0-2.33-2.8A11.11,11.11,0,0,0,31.48,23a16.7,16.7,0,0,0-3.63-1,25.42,25.42,0,0,0-3.93-.3,26.63,26.63,0,0,0-6.83.8,20.81,20.81,0,0,0-5.15,2.1,13.43,13.43,0,0,0-3.53,3,10.27,10.27,0,0,0-1.9,3.35,7.12,7.12,0,0,0-.33,3.28,8.76,8.76,0,0,0,1,3.08,9.89,9.89,0,0,0,2.07,2.6,10.88,10.88,0,0,0,2.83,1.85,19.75,19.75,0,0,0,5.83,1.58,25.71,25.71,0,0,0,5.68,0,23.42,23.42,0,0,0,4.93-1,16.35,16.35,0,0,0,3.63-1.65ZM25.63,24.78a15.05,15.05,0,0,1,1.9.9A5.51,5.51,0,0,1,29.13,27a5.94,5.94,0,0,1,.88,1.5,7.94,7.94,0,0,1,.52,1.93,9.52,9.52,0,0,1,.08,2.07,5.32,5.32,0,0,1-.48,1.91,14.82,14.82,0,0,1-1,1.82A9.08,9.08,0,0,1,27.75,38a9.33,9.33,0,0,1-2,1.43,9.66,9.66,0,0,1-2.81.92,10.22,10.22,0,0,1-5.75-.55,8.69,8.69,0,0,1-4.31-3.65,13.82,13.82,0,0,1-.65-3.46,7.08,7.08,0,0,1,.8-3.25,8.37,8.37,0,0,1,2-2.53A10.9,10.9,0,0,1,18.09,25a11.31,11.31,0,0,1,3.68-.85,8.79,8.79,0,0,1,3.86.63Zm-8,12.31a3.29,3.29,0,0,0,2.83-.9,3.72,3.72,0,0,0,1.05-2.36,3.28,3.28,0,0,0-.75-2.32,2.69,2.69,0,0,0-2.58-.83,2.92,2.92,0,0,0-2.1,1.15A4.08,4.08,0,0,0,15.27,34,3.36,3.36,0,0,0,15.74,36,2.3,2.3,0,0,0,17.67,37.09ZM38.14,0A23.2,23.2,0,0,1,45,1,17.24,17.24,0,0,1,50.53,3.8a13.53,13.53,0,0,1,3.73,4.51,13,13,0,0,1,1.35,6,3.44,3.44,0,0,1-.8,2.48,2.47,2.47,0,0,1-1.73.85,2.4,2.4,0,0,1-1.73-.7,2.86,2.86,0,0,1-.8-2.23,7.21,7.21,0,0,0-1.1-3.8,11.23,11.23,0,0,0-2.9-3.15,14.54,14.54,0,0,0-4.13-2.13,14.79,14.79,0,0,0-4.73-.78,3.12,3.12,0,0,1-2.3-.75,2.12,2.12,0,0,1-.7-1.67A2.36,2.36,0,0,1,35.61.75,3.8,3.8,0,0,1,38.14,0Zm0,8q4.65,0,7.06,2.38t2.4,7.18a3.51,3.51,0,0,1-.5,2.13,1.22,1.22,0,0,1-1.1.55,1.69,1.69,0,0,1-1.1-.73,2.76,2.76,0,0,1-.5-1.75,6.46,6.46,0,0,0-1.71-4.71,6.07,6.07,0,0,0-4.55-1.75,1.73,1.73,0,0,1-1.4-.52,1.71,1.71,0,0,1-.45-1.13,1.69,1.69,0,0,1,.47-1.13A1.77,1.77,0,0,1,38.14,8Z"/></g></g></svg>