<svg xmlns="http://www.w3.org/2000/svg" viewBox="0 0 237.11 45.39"><defs><style>.cls-1{fill:#282f35;}</style></defs><g id="图层_2" data-name="图层 2"><g id="图层_1-2" data-name="图层 1"><polygon class="cls-1" points="6.09 22.36 0 22.36 4.39 34.51 10.48 34.51 6.09 22.36"/><path class="cls-1" d="M66.79,2.62c15.55,0,29.47,6.15,38.82,15.84h.85C96.6,7.23,81.16,0,63.81,0,35,0,11.49,19.92,10,45h5.95C17.43,21.37,39.63,2.62,66.79,2.62Z"/><rect class="cls-1" x="28.35" y="22.36" width="5.72" height="22.63"/><rect class="cls-1" x="98.93" y="31.56" width="19.01" height="4.23"/><rect class="cls-1" x="98.93" y="39.76" width="21.59" height="5.23"/><polygon class="cls-1" points="121.88 22.36 98.93 22.36 98.93 27.59 119.52 27.59 121.88 22.36"/><rect class="cls-1" x="69.54" y="22.36" width="5.72" height="22.63"/><rect class="cls-1" x="87.77" y="22.36" width="5.72" height="22.63"/><rect class="cls-1" x="78.26" y="30.41" width="6.52" height="6.52"/><polygon class="cls-1" points="49.15 22.36 44.53 22.36 39.51 22.36 39.51 44.99 45.24 44.99 45.24 23.96 54.47 44.99 59.09 44.99 59.09 44.99 64.11 44.99 64.11 22.36 58.38 22.36 58.38 43.39 49.15 22.36"/><path class="cls-1" d="M211.08,40.66V38.18H200.8V36.75h9.75V34.26H202V33.05h7.57V31H202V29.77h7.57V27.7H202V26.48h8.51V24H202.5a10.45,10.45,0,0,1-3.21-2.74l-2,1.71a10.74,10.74,0,0,0,1.23,1h-6c.34-.89.51-1.49.53-1.56l-2.4-.65a27,27,0,0,1-3.46,7.56l1.91,1.13c.36-.48.7-1,1-1.47v5.37a2.37,2.37,0,0,0,2.36,2.37h5.84v1.43H188v2.48h6.18a26,26,0,0,1-6.58,1.72l.31,2.38a25,25,0,0,0,10.37-3.53V45h2.49V41.23a25,25,0,0,0,10.37,3.53l.31-2.38a26,26,0,0,1-6.58-1.72ZM199.56,31h-7V29.77h7Zm0-4.5V27.7h-7V26.48Zm-7,6.57h7v1.21h-7Z"/><path class="cls-1" d="M136.5,22.73H134v2.58a1.18,1.18,0,0,0,1.18,1.18h7.45V24H136.5Z"/><path class="cls-1" d="M134.62,30.72h1.91v3.52h-2v2.48h2v4.72c0,.93-.29,1.31-.76,1.54l1.08,2.23,4.44-2.14-.87-2.19-1.4.53V36.72h3.1V34.24H139V30.72h3.2V28.23h-7.6Z"/><path class="cls-1" d="M153.81,39.33A32.12,32.12,0,0,0,157.57,37l-1.39-2.06a30.66,30.66,0,0,1-3.73,2.61,19.34,19.34,0,0,1-1.62-3h3.54a2.36,2.36,0,0,0,2.37-2.36V23.28H143.57V41.57c0,.93-.29,1.31-.76,1.53l.89,2.29L150.41,43l-.83-2.34-3.52.88V34.59h2.08c.91,2.47,3.48,7.95,9.12,10.62l1.38-2A16.42,16.42,0,0,1,153.81,39.33Zm-7.75-9.28V30h6.68l.94-2.07h-7.62V25.76h8.19v6.35h-8.19Z"/><path class="cls-1" d="M177.93,37.85V28.64h-8.69V40.21h6.33A2.36,2.36,0,0,0,177.93,37.85Zm-2.48-.12h-3.73V31.12h3.73Z"/><path class="cls-1" d="M161.11,44l2.24,1.36a44.84,44.84,0,0,0,4-8.42l-2.24-.92A39.13,39.13,0,0,1,161.11,44Z"/><path class="cls-1" d="M167.38,25.19l-3.7-2.92-1.43,2,4.65,3.37,1.39-1.76-.19-.15h12.24v16.7H175L176.11,45h4.35a2.37,2.37,0,0,0,2.37-2.37V25.76h1.69V23.28H167.38Z"/><path class="cls-1" d="M167,31.66a26.6,26.6,0,0,0-5.28-2.75l-1.06,2.25a40.31,40.31,0,0,1,5.16,2.52Z"/><path class="cls-1" d="M215.3,45h19.44a2.37,2.37,0,0,0,2.37-2.37V22.72H215.3Zm2.49-19.74h16.83V42.46H217.79Z"/><path class="cls-1" d="M231.14,26.51h-2.48v1.88h-9.82v2.49h8a27.76,27.76,0,0,1-8.2,6.4l1.16,2.19A28.62,28.62,0,0,0,228,33.08l.62-.73v6.32h-4.81L225,41.16h4.1a2.07,2.07,0,0,0,2.07-2.07V30.88h2.42V28.39h-2.42Z"/></g></g></svg>