<svg xmlns="http://www.w3.org/2000/svg" viewBox="0 0 141.54 24.75"><defs><style>.cls-1{fill:#6093f8;}</style></defs><g id="图层_2" data-name="图层 2"><g id="图层_1-2" data-name="图层 1"><path class="cls-1" d="M104.5,4.55H99.27l2-.59a8.78,8.78,0,0,1-.36-1,4.21,4.21,0,0,0-.59-1.07A6,6,0,0,0,99.63,1l-2.49.59a7.58,7.58,0,0,1,.59.95,5.85,5.85,0,0,1,.47,1c.12.36.24.59.36.95H94.05V7.28H104.5V4.55Zm-14,11.51A4.26,4.26,0,0,1,87.28,18l-7.12-.35V8.23c0-3.33.59-4.27,1.3-4.87A4.61,4.61,0,0,0,83.84.63V.16C83.72,0,83.6,0,83.48.27a1.85,1.85,0,0,1-2.25,1C77.67.39,73.75-.2,73.75,6.45v.71c0,.48-.36.71-.71,0a.42.42,0,0,0-.12-.24,10.08,10.08,0,0,0-3.68-4.39A12,12,0,0,0,62.71.63a11.17,11.17,0,0,0-6.77,2.14,9,9,0,0,0-2.49,3.32c-.12.24-.36.6-.48.24-.36-.83.59-2.37,1-3.56a1.3,1.3,0,0,0,0-.95c-.12-.71-.47-.36-.47-.12-.36,1.54-2.14.59-3,.12A9.23,9.23,0,0,0,45.73.51a12,12,0,0,0-8.55,3.56,12.22,12.22,0,0,0-3.56,8.55,12.55,12.55,0,0,0,3.32,8.67,12.32,12.32,0,0,0,8.67,3.32c2.49,0,7.84-1.54,7.24-4.75,0-.23-.12-.71-.12-.83s.24-.12.36,0c.24.36.47.83.71,1.19a11.07,11.07,0,0,0,8.91,4.39,11.64,11.64,0,0,0,5.7-1.42,10.33,10.33,0,0,0,4.39-4.87c0-.12.12-.12.12-.24.23-.59.71-.71.71.12V23c0,1.43,1.3,1.9,3.44,1.78h9.38c2.38,0,3.44-.83,3.68-2.61.24-1.43,0-2.49.12-3.44a7.05,7.05,0,0,1,.59-2.26c.48-.47.12-.71-.35-.36Zm-41.32.12a4.82,4.82,0,0,1-3.56,1.43,5.36,5.36,0,0,1-3.56-1.43,4.82,4.82,0,0,1-1.43-3.56,5.36,5.36,0,0,1,1.43-3.56,4.83,4.83,0,0,1,3.56-1.42,5.34,5.34,0,0,1,3.56,1.42,4.84,4.84,0,0,1,1.43,3.56,4.26,4.26,0,0,1-1.43,3.56Zm17.22,0a4.84,4.84,0,0,1-3.56,1.43,5.37,5.37,0,0,1-3.57-1.43,4.82,4.82,0,0,1-1.42-3.56,5.36,5.36,0,0,1,1.42-3.56,4.84,4.84,0,0,1,3.57-1.42,5.36,5.36,0,0,1,3.56,1.42,4.83,4.83,0,0,1,1.42,3.56A4.63,4.63,0,0,1,66.39,16.18Z"/><path class="cls-1" d="M35,20.1C33.62,19,33,18.56,33.74,17c.24-.47-.12-.71-.48-.47a5.59,5.59,0,0,1-5.58.95C22.22,15.71,24,6.92,29.82,7.64,32.08,7.87,34,7.28,35,5A12.3,12.3,0,0,0,36.11.39c.12-.47-.47-.47-.59-.23-.36,1-.71,1.18-1.19,1.3C33.26,1.7,32.19,1.22,31,1a11.22,11.22,0,0,0-4.87.23,12.1,12.1,0,0,0-5.22,3,12.13,12.13,0,0,0-3.45,8.55A13.51,13.51,0,0,0,18,16.66c.35,1.42.12,1.3-.95,1.42H8.81L16.17,10C18.3,7.87,18.3,6.8,18.3,4.07a10,10,0,0,1,.12-2.61c.12-.35-.12-.47-.47-.35a22,22,0,0,1-4.63.23H2.63C2,1.34,1.8,1,2,.51,2,.39,2,0,1.8,0,.26.75-.1,4,0,6,0,7,.61,7.64,1.45,7.64H9.87L1.21,16.9a4.49,4.49,0,0,0-1.19,3v2.62c0,1.18.71,1.9,2,2.13H16.52c1.43-.23,2.38-.95,2.26-2.61V20.22c.12-.47.47-.47.71-.24a5.3,5.3,0,0,0,1.07,1.19,12.2,12.2,0,0,0,8.55,3.56,9.13,9.13,0,0,0,3.68-.83c1.3-.59,2.61-1.54,2.85-2.61.12-.36-.12-.71-.6-1.19ZM96,19.39l2.49-.59a88.5,88.5,0,0,0-1.19-9.86l-2.37.48a96.08,96.08,0,0,1,1.07,10ZM116.72,3.72a2.2,2.2,0,0,1-1.42.71h-4.15V.87h-3V11.08h-2c-1.19,0-1.9.24-1.9,1.3V22.83c0,1.19.71,1.55,1.9,1.55H114c1.67,0,2.26-.84,2.14-1.9V12.38c0-1.06-.95-1.42-2-1.42H111V7.16h3.91c1,0,1.31-.36,1.43-1.19.12-.59-.12-1.07,0-1.42s.47-.95.35-.83ZM113,13.93c.12,0,.36,0,.36.35v7.13a.25.25,0,0,1-.24.23h-5.7c-.11,0-.23,0-.23-.23V14.28a.31.31,0,0,1,.35-.35Zm24.34-3.56V7.28h2.5a1.13,1.13,0,0,0,1.3-1.07,4.71,4.71,0,0,0,0-1.31,1.65,1.65,0,0,1,.24-.83,1.51,1.51,0,0,1-1.31.6h-2.73V.87h-2.61v3.8h-1.66c.12-.83.35-1.66.47-2.5l-2.49-.47c-.12.71-.24,1.31-.36,2a8.39,8.39,0,0,1-.47,1.9,11.59,11.59,0,0,1-.59,1.78A7.73,7.73,0,0,1,129,8.82a12.75,12.75,0,0,1,2.14,1.31,4.13,4.13,0,0,0,.59-1.31,7.59,7.59,0,0,0,.48-1.54h2.37v3.09h-5.1V13h12.11V10.37Z"/><path class="cls-1" d="M127.05,6.45V4.31h2.62V1.82H118.86V4.31h2.38V6.45c-1.67,0-2.26.12-2.26,1.3V23c0,.95.36,1.31,2.14,1.31h6.17c1.19,0,2-.24,2-1.31V7.64c-.12-.95-.48-1.19-2.26-1.19Zm-.83,2.49h.6c.23,0,.23,0,.23.24v4.63h-1V8.94Zm-2.85-4.63h1.43V6.45h-1.43ZM121,9.18a.26.26,0,0,1,.24-.24h.59v3.68a5.21,5.21,0,0,1-.24,1.19,4.75,4.75,0,0,1-.59,1.07Zm0,6.17,1,1.19a5.46,5.46,0,0,0,1.54-3.21,7.16,7.16,0,0,0,.12-1.54V8.94h.83v4.87c0,1.42.36,1.78,1.78,1.78h.83v1.66h-6.17v-1.9Zm5.82,6.18h-5.7c-.24,0-.24-.12-.24-.24v-1.9h6.17v1.9C127.17,21.41,127.05,21.53,126.82,21.53ZM139.4,14.4h-6.77c-1.3,0-2,.36-2,1.43v6.88c0,.83.11,1.43,2.13,1.43h6.18c1.42.12,2.13-.24,2.25-1.43V16C141.18,14.64,140.23,14.4,139.4,14.4Zm-1.07,7.24h-4.87c-.11,0-.23,0-.23-.23v-4c0-.24,0-.36.23-.36h4.87c.24,0,.36,0,.36.24v4.16c-.12.12-.24.23-.36.23Zm-36.8-1.89c.71-3.45,1.19-7,1.78-10.57l-2.73-.59a95.45,95.45,0,0,1-1.43,11.75l-2.85.71a20.76,20.76,0,0,1-2.37.48l.71,3.08c.83-.23,1.9-.47,2.85-.83a32.48,32.48,0,0,0,3.21-1c1.07-.35,2.25-.59,3.32-.95L103.67,19l-2.14.72Z"/></g></g></svg>