<svg xmlns="http://www.w3.org/2000/svg" viewBox="0 0 448.18 400.15"><style>path{fill:currentColor}</style><g id="prefix__图层_2" data-name="图层 2"><g id="prefix__图层_1-2" data-name="图层 1"><path class="prefix__cls-1" d="M31.68 0h53.81a31.09 31.09 0 0131.09 31.09v169q0 28.13 8.8 36.62t34 8.49h6.45v155h-31.08q-63.27 0-99-37.21T0 260.12V31.68A31.68 31.68 0 0131.68 0z"/><path class="prefix__cls-1" d="M165.8 400.15V146.47q0-66.21 39.84-106.34T312.26 0Q377.89 0 413 39t35.14 111.61v215.77a33.76 33.76 0 01-33.76 33.77h-47.03A35.17 35.17 0 01332.19 365V150.57q0-35.73-25.78-35.74-24 0-24 35.74v213.19A36.38 36.38 0 01246 400.15z"/><path class="prefix__cls-1" d="M236.73 0a70.93 70.93 0 00-70.93 70.93v329.22h81.13a34.87 34.87 0 0034.87-34.87V74l22.36-74z"/></g></g></svg>