<svg xmlns="http://www.w3.org/2000/svg" viewBox="0 0 448.18 400.15">
    <style>
        path {
            fill: currentColor;
        }
    </style>
    <g id="图层_2" data-name="图层 2">
        <g id="图层_1-2" data-name="图层 1">
            <path class="cls-1" d="M31.68,0H85.49a31.09,31.09,0,0,1,31.09,31.09v169q0,28.13,8.8,36.62t34,8.49h6.45v155H134.75q-63.27,0-99-37.21T0,260.12V31.68A31.68,31.68,0,0,1,31.68,0Z"/>
            <path class="cls-1" d="M165.8,400.15V146.47q0-66.21,39.84-106.34T312.26,0Q377.89,0,413,39t35.14,111.61V366.38a33.76,33.76,0,0,1-33.76,33.77H367.35A35.17,35.17,0,0,1,332.19,365V150.57q0-35.73-25.78-35.74-24,0-24,35.74V363.76A36.38,36.38,0,0,1,246,400.15Z"/>
            <path class="cls-1" d="M236.73,0A70.93,70.93,0,0,0,165.8,70.93V400.15h81.13a34.87,34.87,0,0,0,34.87-34.87V74L304.16,0Z"/>
        </g>
    </g>
</svg>