<svg xmlns="http://www.w3.org/2000/svg" viewBox="0 0 384.85 291.04"><defs><style>.prefix__cls-4{fill:#5465cb}</style></defs><g id="prefix__图层_2" data-name="图层 2"><g id="prefix__图层_1-2" data-name="图层 1"><rect width="383.9" height="290.08" x=".48" y=".48" rx="20.02" fill="#fff"/><path d="M364.36 291H20.5A20.53 20.53 0 010 270.54V20.5A20.52 20.52 0 0120.5 0h343.86a20.51 20.51 0 0120.49 20.5v250a20.52 20.52 0 01-20.49 20.5M20.5 1A19.57 19.57 0 001 20.5v250a19.56 19.56 0 0019.5 19.58h343.86a19.56 19.56 0 0019.54-19.54V20.5A19.57 19.57 0 00364.36 1z" fill="#dee7ff"/><path d="M40.05 260.52a8.4 8.4 0 01-3.13-3.45 12.23 12.23 0 010-10.18 8.4 8.4 0 013.13-3.46 8.53 8.53 0 014.58-1.25 8.63 8.63 0 014.63 1.25 8.4 8.4 0 013.13 3.46 12.23 12.23 0 010 10.18 8.4 8.4 0 01-3.13 3.45 8.7 8.7 0 01-4.63 1.23 8.6 8.6 0 01-4.58-1.23m-2.13-4a7.55 7.55 0 002.71 3.11 7.27 7.27 0 004 1.11 7.35 7.35 0 004.06-1.13 7.43 7.43 0 002.72-3.13 10.3 10.3 0 001-4.53 10.1 10.1 0 00-1-4.52 7.6 7.6 0 00-2.73-3.09 7.4 7.4 0 00-4-1.11 7.27 7.27 0 00-4 1.11 7.6 7.6 0 00-2.71 3.12 11.17 11.17 0 000 9.06zm18.45 3.92l6.59-7.9a20.4 20.4 0 002.18-3 5.5 5.5 0 00.72-2.77 3.38 3.38 0 00-1.09-2.71 4.07 4.07 0 00-2.73-.93 4.43 4.43 0 00-3 1 5.12 5.12 0 00-1.66 2.73h-1.13a5.9 5.9 0 012-3.44 5.66 5.66 0 013.75-1.24 5.24 5.24 0 013.59 1.21A4.26 4.26 0 0167 246.8a5.9 5.9 0 01-.44 2.24 9.3 9.3 0 01-1 1.92c-.41.58-1 1.29-1.69 2.15-.1.13-.27.34-.51.61l-5.54 6.67v.05h9.51v.95H56.37z" class="prefix__cls-4" opacity=".2"/><path d="M36.33 122.09h-.87v-9.76h.87zm1.84-10.16H39v10.16h-.83zm2.65 0h.84v10.16h-.84zm3.74 9.99a2.17 2.17 0 01-.85-.85 2.5 2.5 0 01-.31-1.29v-4.7h.84v4.39a2.22 2.22 0 00.42 1.47 1.57 1.57 0 001.25.5 2.15 2.15 0 001.08-.3 2.5 2.5 0 00.85-.8 2 2 0 00.32-1.08v-4.18H49v7h-.8v-1.16a2.92 2.92 0 01-2.42 1.28 2.43 2.43 0 01-1.22-.28m7.18-.81a2.6 2.6 0 001.32.33 2.06 2.06 0 001.16-.3 1 1 0 00.46-.88 1 1 0 00-.45-.91 4.9 4.9 0 00-1.49-.51 4.1 4.1 0 01-1.66-.71 1.53 1.53 0 01-.59-1.27 1.62 1.62 0 01.72-1.41 2.83 2.83 0 011.7-.51 3.14 3.14 0 011.44.33 2.6 2.6 0 011 .79l-.55.54a2.35 2.35 0 00-.8-.6 2.5 2.5 0 00-1.09-.25 1.8 1.8 0 00-1.07.3.94.94 0 00-.44.83.9.9 0 00.26.67 1.55 1.55 0 00.62.38 10 10 0 001 .28 4.2 4.2 0 011.7.74 1.61 1.61 0 01.58 1.32 1.67 1.67 0 01-.75 1.47 3.1 3.1 0 01-1.8.51 3.44 3.44 0 01-1.67-.4 2.7 2.7 0 01-1.09-1l.59-.54a2.45 2.45 0 00.9.8m8.44-5.3h-2v4a2.9 2.9 0 00.2 1.24.87.87 0 00.85.39 2.5 2.5 0 00.88-.15l.13.72a3.4 3.4 0 01-1.19.2c-1.14 0-1.7-.66-1.7-2v-4.41h-1.46v-.73h1.49v-2.17h.83v2.18h2zm1.27-.73h.8v1.46a2.8 2.8 0 011-1.18 2.6 2.6 0 011.44-.42 1.8 1.8 0 01.49.06l-.13.77a1.6 1.6 0 00-.47-.06 2 2 0 00-1.16.38 2.6 2.6 0 00-.83 1 3.7 3.7 0 00-.31 1.51v3.44h-.85zm8.28.16a2.2 2.2 0 01.93.85 2.4 2.4 0 01.35 1.3v4.7h-.81V121a3 3 0 01-1 .87 3.1 3.1 0 01-1.49.34 2.8 2.8 0 01-1.2-.26 2.1 2.1 0 01-.87-.75 2.1 2.1 0 01-.32-1.14 2 2 0 01.78-1.64 3.2 3.2 0 012-.61 4.9 4.9 0 012.09.41v-.78a1.64 1.64 0 00-.49-1.26 1.77 1.77 0 00-1.26-.47 2.62 2.62 0 00-2.17 1.08l-.57-.54a3.3 3.3 0 011.16-.93 3.36 3.36 0 011.59-.38 2.8 2.8 0 011.28.3m-3.13 5.82a1.83 1.83 0 001.21.38 2.7 2.7 0 001.16-.25 2.2 2.2 0 00.87-.67 1.42 1.42 0 00.33-.89V119a3.4 3.4 0 00-.88-.33 5 5 0 00-1.18-.14 2.33 2.33 0 00-1.41.4 1.26 1.26 0 00-.54 1.09 1.34 1.34 0 00.44 1.04m9.72-5.25h-2v4a2.9 2.9 0 00.2 1.24.87.87 0 00.85.39 2.5 2.5 0 00.88-.15l.13.72a3.4 3.4 0 01-1.19.2c-1.14 0-1.7-.66-1.7-2v-4.41H72v-.73h1.49v-2.17h.83v2.18h2zm1.45-3.11a.55.55 0 01.44-.19.62.62 0 01.63.64.6.6 0 01-.62.62.6.6 0 01-.44-.18.62.62 0 01-.18-.44.6.6 0 01.17-.45m0 2.38h.84v7h-.84zm2.89 1.59a3.06 3.06 0 011.17-1.27 3.56 3.56 0 013.5 0 3.06 3.06 0 011.17 1.27 4.16 4.16 0 01.42 1.91 4.1 4.1 0 01-.42 1.91 3.1 3.1 0 01-1.17 1.27 3.63 3.63 0 01-3.5 0 3.1 3.1 0 01-1.17-1.27 4.1 4.1 0 01-.42-1.91 4.16 4.16 0 01.42-1.91m.77 3.4a2.35 2.35 0 00.88 1 2.3 2.3 0 001.28.36 2.31 2.31 0 002.14-1.37 3.7 3.7 0 000-3 2.36 2.36 0 00-3.42-1 2.4 2.4 0 00-.88 1 3.7 3.7 0 000 3zm6.97-4.99h.82v1.23a2.8 2.8 0 011-1 2.84 2.84 0 011.44-.4 2.5 2.5 0 011.25.31 2.23 2.23 0 01.89.86 2.6 2.6 0 01.32 1.3v4.68h-.85v-4.41a2.1 2.1 0 00-.47-1.44 1.57 1.57 0 00-1.24-.53 2.2 2.2 0 00-1.14.32 2.6 2.6 0 00-.87.87 2.4 2.4 0 00-.32 1.21v4h-.83zm10.89-2.75h3.48a3.83 3.83 0 012.42.7 2.58 2.58 0 01.9 2.17 2.65 2.65 0 01-.88 2.18 3.36 3.36 0 01-2.21.73h-2.82v4h-.89zm3.6 5a2.4 2.4 0 001.67-.53 2.32 2.32 0 000-3.17 2.5 2.5 0 00-1.66-.53h-2.71v4.23zm7.98-2.09a2.2 2.2 0 01.93.85 2.4 2.4 0 01.35 1.3v4.7h-.81V121a3 3 0 01-1 .87 3.1 3.1 0 01-1.5.34 2.8 2.8 0 01-1.19-.26 2.05 2.05 0 01-1.2-1.89 2 2 0 01.78-1.64 3.22 3.22 0 012-.61 4.85 4.85 0 012.08.41v-.78a1.64 1.64 0 00-.49-1.26 1.77 1.77 0 00-1.26-.47 2.62 2.62 0 00-2.17 1.08l-.57-.54a3.3 3.3 0 011.16-.93 3.4 3.4 0 011.59-.38 2.8 2.8 0 011.3.3m-3.12 5.82a1.78 1.78 0 001.2.38 2.8 2.8 0 001.17-.25 2.36 2.36 0 00.87-.67 1.47 1.47 0 00.32-.89V119a3.3 3.3 0 00-.88-.33 5 5 0 00-1.18-.14 2.28 2.28 0 00-1.4.4 1.25 1.25 0 00-.55 1.09 1.32 1.32 0 00.45 1.04m6.42-8.36a.55.55 0 01.44-.19.6.6 0 01.46.19.6.6 0 01.18.45.62.62 0 01-.18.44.6.6 0 01-.45.18.6.6 0 01-.44-.18.62.62 0 01-.18-.44.6.6 0 01.17-.45m0 2.38h.84v7h-.84zm2.91 0h.82v1.23a2.8 2.8 0 011-1 2.84 2.84 0 011.44-.4 2.56 2.56 0 011.26.31 2.2 2.2 0 01.88.86 2.6 2.6 0 01.32 1.3v4.68h-.8v-4.41a2.1 2.1 0 00-.47-1.44 1.57 1.57 0 00-1.23-.53 2.24 2.24 0 00-1.15.32 2.6 2.6 0 00-.87.87 2.4 2.4 0 00-.32 1.21v4h-.85zm11.04.73h-2v4a2.9 2.9 0 00.2 1.24.86.86 0 00.85.39 2.6 2.6 0 00.88-.15l.13.72a3.4 3.4 0 01-1.19.2c-1.14 0-1.7-.66-1.7-2v-4.41h-1.49v-.73h1.49v-2.17h.83v2.18h2zm1.45-3.11a.54.54 0 01.43-.19.59.59 0 01.46.19.6.6 0 01.18.45.62.62 0 01-.18.44.6.6 0 01-.44.18.6.6 0 01-.45-.18.62.62 0 01-.18-.44.6.6 0 01.18-.45m0 2.38h.83v7h-.83zm2.91 0h.82v1.23a2.89 2.89 0 012.43-1.37 2.5 2.5 0 011.25.31 2.23 2.23 0 01.89.86 2.6 2.6 0 01.31 1.3v4.68h-.84v-4.41a2.1 2.1 0 00-.47-1.44 1.57 1.57 0 00-1.24-.53 2.2 2.2 0 00-1.14.32 2.6 2.6 0 00-.87.87 2.3 2.3 0 00-.32 1.21v4h-.85zm7.46 8.78l.48-.63a3.06 3.06 0 002.41 1.08 2.37 2.37 0 001.77-.62 2.22 2.22 0 00.59-1.6v-1.33a2.3 2.3 0 01-1 1 3.09 3.09 0 01-3.06 0 3.06 3.06 0 01-1.11-1.22 4.2 4.2 0 01-.41-1.91 4.1 4.1 0 01.42-1.88 3.26 3.26 0 011.14-1.29 3 3 0 011.62-.46 2.83 2.83 0 012.43 1.43v-1.29h.8v7a2.88 2.88 0 01-.85 2.2 3.3 3.3 0 01-2.35.79 3.73 3.73 0 01-2.88-1.27m.85-3.83a2.37 2.37 0 00.83 1 2.15 2.15 0 001.15.34 2.32 2.32 0 001.8-.75 2.8 2.8 0 00.67-2 3.6 3.6 0 00-.32-1.57 2.45 2.45 0 00-.87-1 2.3 2.3 0 00-1.2-.34 2.1 2.1 0 00-1.2.36 2.46 2.46 0 00-.85 1 3.2 3.2 0 00-.31 1.45 3.6 3.6 0 00.3 1.48z" fill="#4c4c4c"/><path d="M42.75 129.45v6.48h3.66v1.94h-3.66v7l3.37-1.54.22 2c-1.37.63-2.57 1.17-3.59 1.61v12a3.2 3.2 0 01-.71 2.38 3.64 3.64 0 01-2.47.66 22 22 0 01-2.71-.15l-.33-1.9a15.7 15.7 0 002.63.22 1.93 1.93 0 001.39-.38 2 2 0 00.37-1.38v-10.68q-3.41 1.42-4.72 1.94l-.26-1.94c1.3-.51 3-1.19 5-2.05v-7.79h-4.48v-1.94h4.46v-6.48zm16 29h7v-5.38h-5v-1.68h5v-5.13h-5.18v-1.75h7v18H65.8v-2.34H50v2.38h-1.8v-17.4a31 31 0 003.22-.93c1.17-.41 2.17-.8 3-1.19l.59 1.68a30.4 30.4 0 01-5 1.9v4.8h4.9v1.68H50v5.38h7v-18.26h-9.68v-1.79H57v-5q-5.79.54-8.89.66l-.15-1.76q3.81-.18 9.88-.75t10-1.19l.33 1.76q-3.77.58-9.33 1.09v5.24h10.51v1.79H58.78zm13.5-24.68V132h32.56v1.79zm4.2 25.07h24.12V137.1h1.9v25.69h-1.9v-2.12h-26V137.1h1.86zm4.14-4.43v-16.62h15.84v16.62zm7.1-9.22v-5.68h-5.31v5.68zm0 1.61h-5.31v5.92h5.31zm1.72-1.61h5.27v-5.68h-5.27zm0 1.61v5.92h5.27v-5.92zm18 12c1.78-.39 3.86-.89 6.22-1.5s4.33-1.15 5.9-1.61l.14 1.9q-2.34.71-5.82 1.59c-2.31.6-4.34 1.1-6.07 1.49zm.55-15.3l-.4-1.86a7 7 0 00.73-.31 1.3 1.3 0 00.4-.39q1.32-2 3-5.23t2.86-6l1.72.73q-1.24 2.86-2.91 6a49 49 0 01-2.91 5l5.67-1c1.12-2 1.95-3.5 2.49-4.58l1.57.85q-1.64 3.28-4.08 7.37t-4.33 6.64l6.91-1.72.08 1.69q-3.7.91-6.48 1.53l-1.79.44-1.5.4-.48-2.05a5.7 5.7 0 001.06-.43 3 3 0 00.7-.74q2.42-3.44 4.83-7.61l-5.6 1zm23.09-13.21a27.2 27.2 0 004.27 6.44 26.5 26.5 0 005.8 5l-1 1.68a29.35 29.35 0 01-10-11 31.2 31.2 0 01-4 5.81 32.8 32.8 0 01-5.64 5.31l-1.03-1.53a31.5 31.5 0 005.78-5.5 28 28 0 004-6.21zM120.4 151v-1.79h19.69V151H128.6a79 79 0 01-5.34 8.82q7.32-.81 12.51-1.32c-1.27-2-2.3-3.59-3.11-4.76l1.47-.91q1 1.35 2.76 4c1.18 1.79 2.2 3.4 3.06 4.81l-1.54 1.06-1.72-2.81c-2.3.27-5.39.61-9.3 1l-3.77.4-3 .33-.4-1.64a2.6 2.6 0 001.2-.77 62 62 0 005.09-8.27zm2.6-6.85v-1.71h13.4v1.71zm20.6-10.38V132h32.57v1.79zm4.21 25.07h24.12V137.1h1.9v25.69h-1.9v-2.12H146V137.1h1.86zm4.14-4.43v-16.62h15.84v16.62zm7.1-9.22v-5.68h-5.31v5.68zm0 1.61h-5.31v5.92h5.31zm1.72-1.61H166v-5.68h-5.27zm0 1.61v5.92H166v-5.92z"/><path d="M85 76.58H37.16a2.9 2.9 0 01-2.89-2.89V40a2.9 2.9 0 012.89-2.89H85A2.9 2.9 0 0187.9 40v33.69a2.9 2.9 0 01-2.9 2.89M37.16 37.71A2.34 2.34 0 0034.83 40v33.69A2.34 2.34 0 0037.16 76H85a2.33 2.33 0 002.33-2.33V40A2.33 2.33 0 0085 37.71z" class="prefix__cls-4"/><path d="M82.51 45.59H39.65a2.86 2.86 0 010-5.72h42.86a2.86 2.86 0 010 5.72m-42.86-5.16a2.3 2.3 0 000 4.59h42.86a2.3 2.3 0 100-4.59z" class="prefix__cls-4"/><path d="M61.08 45.59a.29.29 0 01-.28-.29v-5.15a.29.29 0 01.28-.28.28.28 0 01.28.28v5.15a.28.28 0 01-.28.29m-14.22 0a.29.29 0 01-.29-.29v-5.15a.29.29 0 01.57 0v5.15a.29.29 0 01-.28.29m28.45 0a.29.29 0 01-.31-.29v-5.15a.29.29 0 01.28-.28.28.28 0 01.28.28v5.15a.28.28 0 01-.25.29m-3.52 22.9a1.4 1.4 0 01-.79-.29L52.45 53.82a.27.27 0 01-.09-.12l-1.22-3.05a.28.28 0 010-.28.26.26 0 01.26-.1l3.23.46a.3.3 0 01.13.06L73.3 65.18a1.3 1.3 0 01.52.91 1.33 1.33 0 01-.25 1l-.67.86a1.35 1.35 0 01-.92.52zM52.85 53.42L71.3 67.76a.8.8 0 00.59.16.76.76 0 00.54-.3l.65-.84a.82.82 0 00-.08-1.16L54.51 51.28l-2.67-.39z" class="prefix__cls-4"/><g opacity=".1"><path d="M362.08 269.55H207.14a9.38 9.38 0 01-9.37-9.36v-109a9.39 9.39 0 019.37-9.37h154.94a9.38 9.38 0 019.37 9.37v109a9.37 9.37 0 01-9.37 9.36M207.14 143.67a7.55 7.55 0 00-7.54 7.54v109a7.55 7.55 0 007.54 7.54h154.94a7.55 7.55 0 007.55-7.54v-109a7.55 7.55 0 00-7.55-7.54z" class="prefix__cls-4"/><path d="M354 169.17H215.21a9.26 9.26 0 110-18.51H354a9.26 9.26 0 110 18.51m-138.8-16.69a7.44 7.44 0 000 14.87H354a7.44 7.44 0 100-14.87z" class="prefix__cls-4"/><path d="M284.61 169.17a.91.91 0 01-.91-.91v-16.69a.91.91 0 011.82 0v16.69a.91.91 0 01-.91.91m-46.08 0a.91.91 0 01-.91-.91v-16.69a.91.91 0 011.82 0v16.69a.91.91 0 01-.91.91m92.16 0a.91.91 0 01-.91-.91v-16.69a.91.91 0 111.82 0v16.69a.91.91 0 01-.91.91m-11.4 74.19a4.4 4.4 0 01-2.7-.93l-59.92-46.59a.9.9 0 01-.29-.38l-4-9.88a.92.92 0 01.13-.9.93.93 0 01.85-.34l10.45 1.51a.93.93 0 01.43.19l59.93 46.58a4.46 4.46 0 011.68 3 4.4 4.4 0 01-.83 3.18l-.06.1-2.17 2.79a4.42 4.42 0 01-3 1.68 3.4 3.4 0 01-.5-.01m-1.6-2.38a2.63 2.63 0 003.68-.46l2.1-2.71.06-.08a2.58 2.58 0 00.53-1.93 2.63 2.63 0 00-1-1.75l-59.74-46.44-8.65-1.25 3.28 8.18L317.68 241z" class="prefix__cls-4"/></g></g></g></svg>