<svg xmlns="http://www.w3.org/2000/svg" viewBox="0 0 252.7 75.9"><defs><style>.cls-1{fill:#353535}.cls-2{fill:#b7b7b7}</style></defs><g id="图层_2" data-name="图层 2"><g id="图层_1-2" data-name="图层 1"><path d="M17.21 64.51c-2 .52-4.8 1.25-8.47 2.18s-6.23 1.56-7.65 1.88L0 62.17q1.24-.21 6-1.4V36.59H1.2V30.5h15.91v6.09h-4.84v22.72l4.94-1.25Zm27.72 10.61q-4.74-4-12.07-9.57a20.2 20.2 0 0 1-5.53 5.15 55.4 55.4 0 0 1-9.49 4.78L14.35 70a48 48 0 0 0 10.09-4.6 10.7 10.7 0 0 0 4.24-4.71 19.4 19.4 0 0 0 1-7V47.4h6V55a23.3 23.3 0 0 1-.52 5.2q6.09 4.17 13.47 9.68ZM28.08 39.6l1-4.47H18.67v-5.77h29.48v5.77H35.78c.07-.24-.07.38-.42 1.87-.1.56-.29 1.42-.57 2.6h11.39v23.3h-6V45.17H25.32v17.68H19.4V39.6ZM56.68 75.33V29.2h37.13v46h-6.4v-2.89H63.18v3Zm30.73-33.7v-6.19H63.18v6.19Zm0 12.12v-6.14H63.18v6.14Zm-24.23 6v6.29h24.23v-6.26ZM147.06 52.76a67 67 0 0 1-5.57-4.06q-.47 8.74-1.61 17.94a13.8 13.8 0 0 1-1.33 4.63 5.5 5.5 0 0 1-2.62 2.44 12 12 0 0 1-4.63.84 71 71 0 0 1-8.63-.32l-1.25-6.13a65 65 0 0 0 7.75.41 4.38 4.38 0 0 0 3-.85 5.92 5.92 0 0 0 1.27-3.41 103 103 0 0 0 1.2-11.6h-12.75l-.16 1.88a30.5 30.5 0 0 1-1.66 8.47 18.45 18.45 0 0 1-4.37 6.5 43.3 43.3 0 0 1-8.79 6.4l-4.68-5.2a39 39 0 0 0 7.67-4.81 13.7 13.7 0 0 0 3.75-4.84 24.7 24.7 0 0 0 1.63-6.58c.07-.38.14-1 .21-1.82h-6.13v-3.79c-1.46 1.25-3 2.49-4.68 3.74l-3.44-6.13a41.3 41.3 0 0 0 9.7-8.35 44.3 44.3 0 0 0 6.84-10.79l5.93 2.34a53 53 0 0 1-5 9 55 55 0 0 1-6.71 7.74h26.88a38.6 38.6 0 0 1-6.32-7.69 55.4 55.4 0 0 1-4.75-9.93l5.87-2.14A37.2 37.2 0 0 0 140 38.07a39.4 39.4 0 0 0 10.5 8.4ZM181.38 61.7a20.6 20.6 0 0 0 7.12 4.4 59 59 0 0 0 11.75 3l-2 6.5A88 88 0 0 1 185 71.24a24.1 24.1 0 0 1-8-5.38 19.9 19.9 0 0 1-7.85 5.2 97 97 0 0 1-14.41 4.21l-2-6.24a68.3 68.3 0 0 0 12.7-3.03q4.71-1.77 6.58-4.27h-17.84v-5.38h19.14v-2.6h6.55v2.6H199v5.35Zm-27.72-12.27a62 62 0 0 0 15-6h-13.6v-5.34h10.2q-2.3-2-7.44-6l3.69-4.26a19 19 0 0 0 1.67 1.2l3 2.18c1.59 1.18 2.93 2.24 4 3.17L167 38.09h6.35V27.64h6.29v10.45H186l-3.12-3.53q6-4.47 8.48-6.71l4.16 4.26q-1.71 1.47-7.8 6h10.35v5.29H183q11.85 4.16 16.22 6l-2.08 5.25q-3.27-1.46-8.45-3.61t-9.07-3.67v4.47h-6.29V46a44.8 44.8 0 0 1-7.23 4.81 64.4 64.4 0 0 1-9.78 4Z" class="cls-1"/><path d="M5.36.26A6.55 6.55 0 0 1 8.27.9a5 5 0 0 1 2 1.77A4.66 4.66 0 0 1 11 5.26 4.69 4.69 0 0 1 8.29 9.6a6.54 6.54 0 0 1-2.93.63h-3v6.14H.41V.26Zm-.25 8.25A4 4 0 0 0 8 7.6a3 3 0 0 0 1-2.34A3.1 3.1 0 0 0 8 2.9 4 4 0 0 0 5.11 2H2.36v6.51ZM25.13 16.37h-2.39l-4.67-6.6h-3.19v6.6h-2V.26h5a6.9 6.9 0 0 1 2.94.6 4.54 4.54 0 0 1 2 1.68A4.44 4.44 0 0 1 23.53 5a4.34 4.34 0 0 1-.9 2.74 5 5 0 0 1-2.49 1.66ZM14.88 2v6.05h2.75a4.3 4.3 0 0 0 2.85-.82 2.73 2.73 0 0 0 1-2.19 2.78 2.78 0 0 0-1-2.21A4.2 4.2 0 0 0 17.63 2ZM26.41 3.92A6.9 6.9 0 0 1 29 1a7 7 0 0 1 10.08 2.93 9.6 9.6 0 0 1 1 4.36 9.5 9.5 0 0 1-1 4.39 7.1 7.1 0 0 1-2.61 2.91 6.9 6.9 0 0 1-3.71 1 7 7 0 0 1-3.73-1 6.9 6.9 0 0 1-2.61-2.91 9.7 9.7 0 0 1-.95-4.4 9.66 9.66 0 0 1 .94-4.36m1.75 7.76A5.17 5.17 0 0 0 30 14a4.8 4.8 0 0 0 2.78.83 4.7 4.7 0 0 0 2.73-.83 5.24 5.24 0 0 0 1.81-2.3A8.4 8.4 0 0 0 38 8.29a8.5 8.5 0 0 0-.64-3.41 5.2 5.2 0 0 0-1.85-2.28 5.05 5.05 0 0 0-5.51 0 5.2 5.2 0 0 0-1.82 2.28 8.6 8.6 0 0 0-.64 3.41 8.5 8.5 0 0 0 .62 3.39M41.19 15.91a3.43 3.43 0 0 1-1.43-2.16l1.54-.9a2.37 2.37 0 0 0 2.42 2 2 2 0 0 0 1.82-.88 4.9 4.9 0 0 0 .56-2.58V.26h2v11.29a5.3 5.3 0 0 1-1.21 3.84 4.23 4.23 0 0 1-3.13 1.22 4.54 4.54 0 0 1-2.57-.7M60.22 8.91h-7.08v5.72h8.16v1.74H51.18V.24h9.88V2h-7.92v5.17h7.08ZM73.86 12.36l1.59.93a5.3 5.3 0 0 1-2.12 2.44 6.1 6.1 0 0 1-3.29.88 6.75 6.75 0 0 1-3.72-1.06 7.25 7.25 0 0 1-2.64-2.94 9.3 9.3 0 0 1-1-4.32 9.3 9.3 0 0 1 1-4.31A7.25 7.25 0 0 1 66.32 1 6.9 6.9 0 0 1 70 0a6.1 6.1 0 0 1 3.29.88 5.3 5.3 0 0 1 2.12 2.44l-1.59.93A4.07 4.07 0 0 0 70 1.8a4.75 4.75 0 0 0-2.73.82 5.2 5.2 0 0 0-1.83 2.29 8.2 8.2 0 0 0-.65 3.38 8.3 8.3 0 0 0 .65 3.4A5.23 5.23 0 0 0 67.26 14a4.7 4.7 0 0 0 2.73.82 4.07 4.07 0 0 0 3.87-2.46M75.75.26h12V2h-5v14.37h-2V2h-5ZM104.42 12.36l1.58.93a5.23 5.23 0 0 1-2.11 2.44 6.1 6.1 0 0 1-3.3.88 6.75 6.75 0 0 1-3.71-1.06 7.25 7.25 0 0 1-2.64-2.94 9.3 9.3 0 0 1-1-4.32 9.3 9.3 0 0 1 1-4.31A7.25 7.25 0 0 1 96.88 1a6.9 6.9 0 0 1 3.71-1 6.1 6.1 0 0 1 3.3.88A5.23 5.23 0 0 1 106 3.32l-1.58.93a4.07 4.07 0 0 0-3.87-2.45 4.73 4.73 0 0 0-2.73.82A5.3 5.3 0 0 0 96 4.91a8.35 8.35 0 0 0-.65 3.38 8.45 8.45 0 0 0 .65 3.4A5.3 5.3 0 0 0 97.82 14a4.66 4.66 0 0 0 2.73.82 4.07 4.07 0 0 0 3.87-2.46M107.85.26h2v14.35h7.94v1.76h-9.9ZM125.83.26l6.46 16.11h-2.17l-1.79-4.62h-6.66L120 16.37h-2L124.18.26Zm1.82 9.74-2.73-7.11-2.59 7.11ZM143.29 14.35a4.2 4.2 0 0 1-1.87 1.65 6.7 6.7 0 0 1-2.92.59 7.2 7.2 0 0 1-4-1.1 5.13 5.13 0 0 1-2.2-2.93l1.59-.92a4.66 4.66 0 0 0 4.66 3.15 3.8 3.8 0 0 0 2.45-.69 2.36 2.36 0 0 0 .88-2 2.35 2.35 0 0 0-.55-1.63 3.6 3.6 0 0 0-1.35-1 19 19 0 0 0-2.21-.77 25 25 0 0 1-2.52-.88 4.15 4.15 0 0 1-1.62-1.26 3.45 3.45 0 0 1-.66-2.2 4 4 0 0 1 .69-2.36A4.34 4.34 0 0 1 135.6.52a7.1 7.1 0 0 1 2.79-.52 5.87 5.87 0 0 1 3.48 1 4.63 4.63 0 0 1 1.8 2.39l-1.59.93a4.34 4.34 0 0 0-1.39-1.83 3.9 3.9 0 0 0-2.37-.66 4 4 0 0 0-2.4.67 2.14 2.14 0 0 0-.9 1.8 1.92 1.92 0 0 0 .5 1.36 3.6 3.6 0 0 0 1.24.84c.5.2 1.18.43 2.05.68a22 22 0 0 1 2.66.94 4.7 4.7 0 0 1 1.74 1.39 3.87 3.87 0 0 1 .72 2.44 4.6 4.6 0 0 1-.64 2.4M155.83 14.35A4.2 4.2 0 0 1 154 16a6.7 6.7 0 0 1-2.92.59 7.2 7.2 0 0 1-4-1.1 5.13 5.13 0 0 1-2.2-2.93l1.59-.92a4.66 4.66 0 0 0 4.66 3.15 3.8 3.8 0 0 0 2.46-.71 2.36 2.36 0 0 0 .88-2 2.35 2.35 0 0 0-.55-1.63 3.6 3.6 0 0 0-1.35-1 19 19 0 0 0-2.21-.77 25 25 0 0 1-2.52-.88 4.15 4.15 0 0 1-1.62-1.26 3.45 3.45 0 0 1-.66-2.2A4 4 0 0 1 146.2 2a4.34 4.34 0 0 1 1.94-1.48 7.1 7.1 0 0 1 2.79-.52 5.87 5.87 0 0 1 3.48 1 4.63 4.63 0 0 1 1.8 2.39l-1.59.93a4.34 4.34 0 0 0-1.39-1.83 3.9 3.9 0 0 0-2.37-.66 4 4 0 0 0-2.4.67 2.14 2.14 0 0 0-.9 1.8 1.92 1.92 0 0 0 .5 1.36 3.6 3.6 0 0 0 1.24.84c.5.2 1.18.43 2 .68a22 22 0 0 1 2.66.94 4.7 4.7 0 0 1 1.74 1.39 3.87 3.87 0 0 1 .72 2.44 4.6 4.6 0 0 1-.59 2.4M160.37 16.37h-2V.26h2ZM163.64.26h9.88V2h-7.92v5.44h7.09v1.73h-7.09v7.2h-2ZM177.48 16.37h-2V.26h2ZM191.1 12.36l1.58.93a5.3 5.3 0 0 1-2.11 2.44 6.1 6.1 0 0 1-3.3.88 6.8 6.8 0 0 1-3.72-1.06 7.4 7.4 0 0 1-2.64-2.94 9.44 9.44 0 0 1-1-4.32 9.4 9.4 0 0 1 1-4.31A7.4 7.4 0 0 1 183.55 1a7 7 0 0 1 3.72-1 6.1 6.1 0 0 1 3.3.88 5.3 5.3 0 0 1 2.11 2.44l-1.58.93a4.07 4.07 0 0 0-3.87-2.45 4.73 4.73 0 0 0-2.73.82 5.2 5.2 0 0 0-1.84 2.29 8.35 8.35 0 0 0-.66 3.38 8.45 8.45 0 0 0 .65 3.4A5.24 5.24 0 0 0 184.5 14a4.66 4.66 0 0 0 2.73.82 4.07 4.07 0 0 0 3.87-2.46M200.6.26l6.47 16.11h-2.18l-1.78-4.62h-6.67l-1.69 4.62h-2L199 .26Zm1.83 9.74-2.73-7.12-2.6 7.12ZM205.18.26h12V2h-5v14.37h-2V2h-5ZM220.73 16.37h-2V.26h2ZM224.14 3.92A6.9 6.9 0 0 1 226.75 1a7.07 7.07 0 0 1 3.73-1 7 7 0 0 1 3.73 1 7.1 7.1 0 0 1 2.6 2.91 9.6 9.6 0 0 1 .95 4.36 9.5 9.5 0 0 1-1 4.39 7 7 0 0 1-2.6 2.91 6.93 6.93 0 0 1-3.72 1 7.07 7.07 0 0 1-3.73-1 6.9 6.9 0 0 1-2.61-2.91 9.7 9.7 0 0 1-.94-4.4 9.66 9.66 0 0 1 .98-4.34m1.75 7.76a5.1 5.1 0 0 0 1.82 2.3 5 5 0 0 0 5.53 0 5.24 5.24 0 0 0 1.81-2.3 8.4 8.4 0 0 0 .64-3.39 8.5 8.5 0 0 0-.64-3.41 5.2 5.2 0 0 0-1.81-2.28 5.05 5.05 0 0 0-5.52 0 5.2 5.2 0 0 0-1.82 2.28 8.6 8.6 0 0 0-.64 3.41 8.5 8.5 0 0 0 .63 3.39M241.9.26l8.95 12.61V.26h1.85v16.11h-1.65l-9-12.63v12.63h-1.84V.26Z" class="cls-2"/></g></g></svg>