<svg xmlns="http://www.w3.org/2000/svg" xmlns:xlink="http://www.w3.org/1999/xlink" viewBox="0 0 147.99 122.42"><defs><style>.cls-1{fill:url(#未命名的渐变_7);}.cls-2{fill:#353535;}.cls-3{fill:#b7b7b7;}</style><linearGradient id="未命名的渐变_7" x1="1405.12" y1="286.8" x2="1523.4" y2="286.8" gradientTransform="matrix(0, -1, -1, 0, 360.48, 1523.4)" gradientUnits="userSpaceOnUse"><stop offset="0" stop-color="#fff" stop-opacity="0"/><stop offset="1" stop-color="#6093f8"/></linearGradient></defs><g id="图层_2" data-name="图层 2"><g id="图层_1-2" data-name="图层 1"><path class="cls-1" d="M73.68,118.28a59.14,59.14,0,1,1,59.14-59.14A59.21,59.21,0,0,1,73.68,118.28ZM73.68,10a49.14,49.14,0,1,0,49.14,49.14A49.19,49.19,0,0,0,73.68,10Z"/><path class="cls-2" d="M37.91,102.4a21.7,21.7,0,0,0,3,6.7,22.94,22.94,0,0,0,8.43,7.28l-3.9,5.78a26.82,26.82,0,0,1-8.95-9.1,31.58,31.58,0,0,1-2-4.32,25.28,25.28,0,0,1-2.29,4.89,33.35,33.35,0,0,1-8.53,8.79l-4.16-5v4.79H13.94v-7.85q-3,.72-12.48,2.75l-1.46-6c1.28-.24,2.36-.43,3.22-.57v-29H.57V76H21.79v5.56H19.5v25.69l2.76-.62.57,5.46c-1.11.31-2.22.6-3.33.88v4.11A28.16,28.16,0,0,0,27,110.61a19.16,19.16,0,0,0,3.48-8.21H21.37V96.52H31q.11-5,.11-6.76H22.52V83.94h4.73q-1.93-5.31-3.43-8.58l5.61-1.51q1.88,4.22,4.16,10.09H36q2.19-5.2,3.8-10.2l6.08,1.56C44.68,78.08,43.4,81,42,83.94H46.9v5.82H37.39c0,1.53,0,3,0,4.52,0,.77,0,1.51-.06,2.24H48.15v5.88Zm-24-15.19V81.54H8.79v5.67Zm0,10.66V92.2H8.79v5.67Zm0,10.56v-5.57H8.79v6.66Q11.6,108.89,13.94,108.43Z"/><path class="cls-2" d="M62.71,106.82,67.13,111a107.26,107.26,0,0,1-13.31,10.29l-4.16-4.89A79.94,79.94,0,0,0,62.71,106.82ZM77.32,82c-2.49,1.74-3.93,2.72-4.31,3q-3.69,2.44-6.14,3.84,7.8-.19,11.7-.41Q85.13,84.3,87.05,83l5.25,4.06Q86,90.9,80,94.18q-6.24,3.38-13.11,6.6,10-.3,17.79-.78-2.44-2.44-3.64-3.69l4.73-3q7.33,7,11.44,11.49l-4.47,4c-.56-.62-1.7-1.89-3.43-3.79q-5.46.3-11,.57v8.89q0,3.75-1.56,5.46c-1.14,1.14-3,1.82-5.56,2q-3,.15-6,0l-1.46-6.19a31.26,31.26,0,0,0,5,.21,3.18,3.18,0,0,0,2.18-.73,3.49,3.49,0,0,0,.68-2.34v-7q-8.58.36-17.16.68L53.3,101a25.43,25.43,0,0,0,6.34-2q5.36-2.74,9.78-5.2-6.77.31-13.68.47l-1.09-4.94a20.24,20.24,0,0,0,4.68-1.66,90.34,90.34,0,0,0,7.8-5.1q-6.6.31-13.73.47l-1.61-5.93q26.63-.31,42.33-2l2.24,5.56Q86.48,81.48,77.32,82Zm3.8,29.38,4.06-4.52q6.39,4,12.94,8.79l-3.79,5.25Q87.93,115.87,81.12,111.39Z"/><path class="cls-2" d="M134.89,109.47c.17.38.33.74.47,1.09a15.06,15.06,0,0,0,2,3.33,2.69,2.69,0,0,0,1.93,1.14,1.47,1.47,0,0,0,1.19-.57,4.41,4.41,0,0,0,.89-1.92q.51-2.3,1.14-6.09l5.51,2.76a66,66,0,0,1-2,8.21,6.66,6.66,0,0,1-6.5,4.74,9.21,9.21,0,0,1-5-1.46,12,12,0,0,1-4.11-4.84c-.24-.41-.57-1.07-1-2a75.82,75.82,0,0,1-8.89,5.41l-4.16-5.62a57.66,57.66,0,0,0,10.82-6.14A66.59,66.59,0,0,1,125.16,96c-.07-.49-.14-1.25-.2-2.29h-9.31V100c3.67-.73,6-1.21,7.12-1.45l.47,6q-5,1.14-7.59,1.66v8.53a7.58,7.58,0,0,1-1.51,5,6.84,6.84,0,0,1-4.58,1.93,39.66,39.66,0,0,1-6.65,0l-1.35-6.5a37.4,37.4,0,0,0,4.73.26,2.79,2.79,0,0,0,2-.63,3.05,3.05,0,0,0,.62-2.18v-5.25c-3.33.48-6.14.92-8.42,1.3l-1.36-6.4q2.61-.32,9.78-1.3V93.71H99.63V87.63h9.31V82.74l-7,.62-1-5.92a159.75,159.75,0,0,0,20-2.4l1.35,5.78c-1.8.34-4,.71-6.6,1.09v5.72h8.89q-.36-6.51-.36-14h6.7q0,6.7.32,14h16v6.08H131.61c0,.21,0,.59.11,1.15a63.31,63.31,0,0,0,1.19,7.9,48.9,48.9,0,0,0,6.81-8.32l5.15,4A67.55,67.55,0,0,1,134.89,109.47Zm-2.39-31.1,4.57-3.64a104.14,104.14,0,0,1,7.91,7.7l-4.68,4.16A89.69,89.69,0,0,0,132.5,78.37Z"/><path class="cls-3" d="M12.79,63.73a4.85,4.85,0,0,0,1.61-1.94L16.51,63a5.67,5.67,0,0,1-2.33,2.73,7,7,0,0,1-3.77,1A7.71,7.71,0,0,1,6.3,65.64a8,8,0,0,1-2.94-3.21,10.88,10.88,0,0,1,0-9.45A7.9,7.9,0,0,1,6.3,49.79a7.7,7.7,0,0,1,4.11-1.13,7,7,0,0,1,3.77,1,5.69,5.69,0,0,1,2.33,2.72L14.4,53.65a4.85,4.85,0,0,0-1.61-1.94,4.11,4.11,0,0,0-2.42-.7,4.9,4.9,0,0,0-2.79.83,5.3,5.3,0,0,0-1.89,2.35,9.42,9.42,0,0,0,0,7,5.42,5.42,0,0,0,1.89,2.37,4.83,4.83,0,0,0,2.79.84A4.18,4.18,0,0,0,12.79,63.73Z"/><path class="cls-3" d="M18.21,52.92a7.75,7.75,0,0,1,2.91-3.16,8.28,8.28,0,0,1,8.25,0,7.68,7.68,0,0,1,2.91,3.16,11.45,11.45,0,0,1,0,9.6,7.71,7.71,0,0,1-7,4.26,8,8,0,0,1-4.13-1.09,7.63,7.63,0,0,1-2.91-3.16,10.5,10.5,0,0,1-1.05-4.82A10.37,10.37,0,0,1,18.21,52.92Zm2.34,8.3a5.43,5.43,0,0,0,1.86,2.37,5.22,5.22,0,0,0,5.68,0A5.38,5.38,0,0,0,30,61.22a9.66,9.66,0,0,0,0-7,5.4,5.4,0,0,0-1.88-2.35A4.89,4.89,0,0,0,25.25,51a4.79,4.79,0,0,0-2.82.84,5.4,5.4,0,0,0-1.88,2.35,9.66,9.66,0,0,0,0,7Z"/><path class="cls-3" d="M38.06,49l9.36,13V49h2.4V66.51H47.69L38.33,53.43V66.51h-2.4V49Z"/><path class="cls-3" d="M51.5,49H64.92v2.28H59.49V66.51H56.9V51.23H51.5Z"/><path class="cls-3" d="M71.73,49l7.06,17.56H76l-1.8-4.7H67.05l-1.72,4.7h-2.6L69.53,49Zm1.59,10.6-2.79-7.24-2.64,7.24Z"/><path class="cls-3" d="M89.13,63.73a4.77,4.77,0,0,0,1.61-1.94L92.85,63a5.7,5.7,0,0,1-2.32,2.73,7,7,0,0,1-3.77,1,7.72,7.72,0,0,1-4.12-1.14,8,8,0,0,1-2.94-3.21,10.88,10.88,0,0,1,0-9.45,7.9,7.9,0,0,1,2.94-3.19,7.71,7.71,0,0,1,4.12-1.13,7,7,0,0,1,3.77,1,5.72,5.72,0,0,1,2.32,2.72l-2.11,1.25a4.77,4.77,0,0,0-1.61-1.94,4.11,4.11,0,0,0-2.42-.7,4.84,4.84,0,0,0-2.78.83A5.32,5.32,0,0,0,82,54.19a9.56,9.56,0,0,0,0,7,5.44,5.44,0,0,0,1.9,2.37,4.78,4.78,0,0,0,2.78.84A4.18,4.18,0,0,0,89.13,63.73Z"/><path class="cls-3" d="M93.14,49h13.42v2.28h-5.43V66.51H98.54V51.23h-5.4Z"/><path class="cls-3" d="M128.18,49h2V66.51h-2.5V53.79l-5.18,8.14h-1.46l-5.24-8.18V66.51H113.4V49h2.16l6.31,10Z"/><path class="cls-3" d="M143.76,58.62h-7.54v5.61h8.69v2.28H133.65V48.92h11V51.2h-8.42v5.16h7.54Z"/></g></g></svg>