<svg xmlns="http://www.w3.org/2000/svg" viewBox="0 0 24 24" fill="#387ce8">
    <path d="M8.691 2.188C3.891 2.188 0 5.476 0 9.53c0 2.212 1.17 4.203 3.002 5.55a.59.59 0 0 1 .213.665l-.39 1.48c-.019.07-.048.141-.048.213 0 .163.13.295.29.295a.326.326 0 0 0 .167-.054l1.903-1.114a.864.864 0 0 1 .717-.098 10.16 10.16 0 0 0 2.837.403c.276 0 .543-.027.81-.05-.857-2.578.157-4.972 1.932-6.446 1.703-1.415 3.882-1.98 5.853-1.838-.576-3.583-4.196-6.348-8.595-6.348zM5.959 5.82a.88.88 0 1 1 0 1.76.88.88 0 0 1 0-1.76zm5.264 0a.88.88 0 1 1 0 1.76.88.88 0 0 1 0-1.76zM24 15.035c0-3.558-3.551-6.45-7.93-6.45-4.378 0-7.93 2.892-7.93 6.45 0 3.557 3.552 6.45 7.93 6.45.91 0 1.79-.125 2.609-.371.117-.037.238-.014.328.045l1.752 1.025a.3.3 0 0 0 .154.048c.148 0 .27-.121.27-.27a.35.35 0 0 0-.044-.195l-.36-1.36a.544.544 0 0 1 .197-.611C22.983 18.946 24 17.095 24 15.035zm-10.506-.433a.81.81 0 1 1 0-1.62.81.81 0 0 1 0 1.62zm4.844 0a.81.81 0 1 1 0-1.62.81.81 0 0 1 0 1.62z"/>
</svg>
