<svg xmlns="http://www.w3.org/2000/svg" xmlns:xlink="http://www.w3.org/1999/xlink" viewBox="0 0 522.99 1019.45"><defs><style>.cls-1{opacity:0.3;}.cls-10,.cls-11,.cls-12,.cls-13,.cls-2,.cls-3,.cls-4,.cls-5,.cls-6,.cls-7,.cls-8,.cls-9{fill:none;stroke-linecap:round;stroke-miterlimit:10;stroke-width:3px;}.cls-2{stroke:url(#未命名的渐变_5);}.cls-3{stroke:url(#未命名的渐变_5-2);}.cls-4{stroke:url(#未命名的渐变_5-3);}.cls-5{stroke:url(#未命名的渐变_5-4);}.cls-6{stroke:url(#未命名的渐变_5-5);}.cls-7{stroke:url(#未命名的渐变_5-6);}.cls-8{stroke:url(#未命名的渐变_5-7);}.cls-9{stroke:url(#未命名的渐变_5-8);}.cls-10{stroke:url(#未命名的渐变_5-9);}.cls-11{stroke:url(#未命名的渐变_5-10);}.cls-12{stroke:url(#未命名的渐变_5-11);}.cls-13{stroke:url(#未命名的渐变_5-12);}</style><linearGradient id="未命名的渐变_5" x1="79.15" y1="1019.45" x2="79.15" gradientTransform="matrix(-1, 0, 0, 1, 600.64, 0)" gradientUnits="userSpaceOnUse"><stop offset="0" stop-color="#f9fafc"/><stop offset="1" stop-color="#65a6fe"/></linearGradient><linearGradient id="未命名的渐变_5-2" x1="126.7" y1="1019.45" x2="126.7" y2="107.53" xlink:href="#未命名的渐变_5"/><linearGradient id="未命名的渐变_5-3" x1="174.25" y1="1019.45" x2="174.25" y2="204.19" xlink:href="#未命名的渐变_5"/><linearGradient id="未命名的渐变_5-4" x1="221.79" y1="1019.45" x2="221.79" y2="284.56" xlink:href="#未命名的渐变_5"/><linearGradient id="未命名的渐变_5-5" x1="269.34" y1="1019.45" x2="269.34" y2="361.99" xlink:href="#未命名的渐变_5"/><linearGradient id="未命名的渐变_5-6" x1="316.89" y1="1019.45" x2="316.89" y2="431.58" xlink:href="#未命名的渐变_5"/><linearGradient id="未命名的渐变_5-7" x1="361.41" y1="1019.45" x2="361.41" y2="495.47" xlink:href="#未命名的渐变_5"/><linearGradient id="未命名的渐变_5-8" x1="408.96" y1="1019.45" x2="408.96" y2="550.59" xlink:href="#未命名的渐变_5"/><linearGradient id="未命名的渐变_5-9" x1="456.5" y1="1019.45" x2="456.5" y2="600.13" xlink:href="#未命名的渐变_5"/><linearGradient id="未命名的渐变_5-10" x1="504.05" y1="1019.45" x2="504.05" y2="641.32" xlink:href="#未命名的渐变_5"/><linearGradient id="未命名的渐变_5-11" x1="551.6" y1="1019.45" x2="551.6" y2="681.01" xlink:href="#未命名的渐变_5"/><linearGradient id="未命名的渐变_5-12" x1="599.14" y1="1019.45" x2="599.14" y2="716.68" xlink:href="#未命名的渐变_5"/></defs><g id="图层_2" data-name="图层 2"><g id="图层_1-2" data-name="图层 1"><g class="cls-1"><line class="cls-2" x1="521.49" y1="1.5" x2="521.49" y2="1017.95"/><line class="cls-3" x1="473.94" y1="109.03" x2="473.94" y2="1017.95"/><line class="cls-4" x1="426.4" y1="205.69" x2="426.4" y2="1017.95"/><line class="cls-5" x1="378.85" y1="286.06" x2="378.85" y2="1017.95"/><line class="cls-6" x1="331.3" y1="363.49" x2="331.3" y2="1017.95"/><line class="cls-7" x1="283.76" y1="433.08" x2="283.76" y2="1017.95"/><line class="cls-8" x1="239.23" y1="496.97" x2="239.23" y2="1017.95"/><line class="cls-9" x1="191.69" y1="552.09" x2="191.69" y2="1017.95"/><line class="cls-10" x1="144.14" y1="601.63" x2="144.14" y2="1017.95"/><line class="cls-11" x1="96.59" y1="642.82" x2="96.59" y2="1017.95"/><line class="cls-12" x1="49.05" y1="682.51" x2="49.05" y2="1017.95"/><line class="cls-13" x1="1.5" y1="718.18" x2="1.5" y2="1017.95"/></g></g></g></svg>