<svg xmlns="http://www.w3.org/2000/svg" viewBox="0 0 236.84 111.61"><defs><style>.cls-1{fill:#353535;}.cls-2{fill:#b7b7b7;}</style></defs><g id="图层_2" data-name="图层 2"><g id="图层_1-2" data-name="图层 1"><path d="M0,100.86l.35-.62c1.22.54,2.41,1.12,3.56,1.74l-.33.68C2.44,102,1.25,101.42,0,100.86ZM.9,111.1c.9-2.06,1.71-4.17,2.42-6.35L4,105a58.88,58.88,0,0,1-2.4,6.38Zm.22-14.93.4-.61a38.56,38.56,0,0,1,3.45,2l-.39.66C3.37,97.43,2.22,96.74,1.12,96.17Zm10.47,2h4.6v.69H11v4.88h4.51v.7H11v5.43h5.59v.71H4.42v-.71h5.87v-5.43H5.94v-.7h4.35V98.86H5.5v-.69h5.28a30,30,0,0,0-1.34-3.36l.72-.22A29.28,29.28,0,0,1,11.59,98.17Z"/><path d="M22.17,101a.62.62,0,0,1,.48.19.7.7,0,0,1,.18.45.74.74,0,0,1-.18.48.65.65,0,0,1-.48.18.6.6,0,0,1-.44-.18.66.66,0,0,1-.2-.48.61.61,0,0,1,.18-.45A.58.58,0,0,1,22.17,101Zm0,7.69a.62.62,0,0,1,.66.66.72.72,0,0,1-.18.46.65.65,0,0,1-.48.18.6.6,0,0,1-.44-.18.66.66,0,0,1-.2-.46.65.65,0,0,1,.18-.48A.56.56,0,0,1,22.17,108.66Z"/><path d="M40.35,98.75v12.77h-.74V100.2a24.69,24.69,0,0,1-2.55,3.85l-.4-.69a27.47,27.47,0,0,0,4.53-8.66l.68.22A34.62,34.62,0,0,1,40.35,98.75Zm7.7,7.6a23.24,23.24,0,0,0,5.48,4.34l-.46.68a24,24,0,0,1-5.52-4.46,23.12,23.12,0,0,1-6,4.63l-.44-.65a22.48,22.48,0,0,0,5.93-4.56,20,20,0,0,1-3.67-8.51l.68-.13a19.21,19.21,0,0,0,3.48,8.07A19.93,19.93,0,0,0,51.33,97H42.46v-.71H52.1v.68A20.58,20.58,0,0,1,48.05,106.35Z"/><path d="M70.29,99.29H58v2.43q0,1.56-.09,3h3.91v-2.44h-3v-.6h3V99.5h.71v2.21h4.2V99.56h.72v2.15h3.24v.6H67.42v2.44h4.12v.64H64.32A8.33,8.33,0,0,0,66.44,108a33.43,33.43,0,0,0,3.27-1.9l.44.53A29.44,29.44,0,0,1,67,108.44a14,14,0,0,0,4.74,2l-.32.68a14.43,14.43,0,0,1-5-2.28,9.53,9.53,0,0,1-2.85-3.5h-2.4v5.19c1-.38,2.21-.9,3.61-1.58l.22.59c-1.4.7-2.93,1.36-4.56,2l-.32-.57a.91.91,0,0,0,.28-.33,3,3,0,0,0,.07-.38v-4.9H57.84a14.17,14.17,0,0,1-.69,3.28,15.7,15.7,0,0,1-1.45,2.81l-.59-.46a12.36,12.36,0,0,0,1.69-3.74,26.73,26.73,0,0,0,.46-5.59v-6h13Zm-.69-.63V96.31H58v2.35Zm-2.9,6.09v-2.44H62.5v2.44Z"/><path d="M82.47,101.71V109a2.63,2.63,0,0,1-.46,1.71,2.14,2.14,0,0,1-1.59.55c-.65,0-1.35,0-2.11-.08l-.13-.8a19.32,19.32,0,0,0,2,.11,1.64,1.64,0,0,0,1.17-.33A1.94,1.94,0,0,0,81.7,109v-7.24h-8V101H90v.72ZM77.85,104l.64.37a29,29,0,0,1-4.18,5.61l-.58-.46A28.11,28.11,0,0,0,77.85,104Zm-2.18-7.88H88v.71H75.67Zm9.48,8.36.61-.42c1.39,1.68,2.77,3.41,4.12,5.19l-.6.47Q87.14,106.79,85.15,104.44Z"/><path d="M95.18,107.89a5.73,5.73,0,0,0,2.11,1.66,7.72,7.72,0,0,0,3.08.59c2.5.07,5.19.08,8.09,0l-.18.73q-4.09.06-8,0a9.22,9.22,0,0,1-3.21-.61,6,6,0,0,1-2.28-1.7c-.85.82-1.7,1.7-2.53,2.66l-.46-.65c1-1,1.82-1.86,2.63-2.62v-6.18H91.92v-.68h3.26ZM93.11,95.56l.6-.4c.81.94,1.62,2,2.43,3l-.61.44C94.91,97.77,94.1,96.75,93.11,95.56Zm11.68,6V109h-.71v-7.43H99.55a14.9,14.9,0,0,1-.41,3.71,11.33,11.33,0,0,1-1.59,3.32l-.64-.46A10.49,10.49,0,0,0,98.46,105a15.8,15.8,0,0,0,.37-3.8V96.26a57.82,57.82,0,0,0,8-.68l.2.68a60.05,60.05,0,0,1-7.5.68v4h8.52v.67Z"/><path d="M121.19,99.91h4.14v9a2.5,2.5,0,0,1-.49,1.71,2.43,2.43,0,0,1-1.69.57c-.62,0-1.23,0-1.82-.07l-.12-.76a14.34,14.34,0,0,0,1.77.11,1.88,1.88,0,0,0,1.27-.38,1.59,1.59,0,0,0,.39-1.23v-8.25h-3.47a17.62,17.62,0,0,1-.33,2.64q1.56,1.86,3.06,3.74l-.49.49L120.67,104a13.21,13.21,0,0,1-2.38,4.62l-.59-.41a11.91,11.91,0,0,0,2-3.57,14.1,14.1,0,0,0,.75-4.07h-3.92a14.83,14.83,0,0,1-.28,2.27l2.37,2.39-.44.55c-.88-.93-1.58-1.66-2.09-2.17-.08.29-.19.66-.35,1.1a12.69,12.69,0,0,1-2.2,3.58l-.57-.44a11.48,11.48,0,0,0,2.09-3.4,12.32,12.32,0,0,0,.75-3.88h-3.43v10.73h-.73V99.91h4.18c0-2,0-3.09,0-3.23h-5.44V96H126.6v.7h-5.36C121.24,97.68,121.22,98.76,121.19,99.91Zm-.68,0c0-1.32,0-2.4,0-3.23h-3.93c0,1.66,0,2.74,0,3.23Z"/><path d="M133,96.86h11.27v.7h-6.05v3.78h5.56v.7h-5.56v4.43h6.9v.7h-6.9v4.44h-.75v-4.44h-9v-.7h3.18v-5.13h5.83V97.56h-4.88c-.29.47-.46.73-.51.79a24.64,24.64,0,0,1-2.59,3.12l-.49-.59a20.25,20.25,0,0,0,4.29-6.25l.73.2A22.43,22.43,0,0,1,133,96.86Zm4.47,9.61V102h-5.12v4.43Z"/><path d="M146.88,100.61l.33-.61c1.32.64,2.38,1.2,3.19,1.69l-.35.64C149.14,101.78,148.08,101.2,146.88,100.61Zm.22-4.74.39-.6c1.12.62,2.11,1.2,3,1.72l-.37.63C149.23,97.1,148.24,96.52,147.1,95.87Zm0,15.1c.9-2.48,1.65-4.64,2.25-6.46l.65.24c-.63,2-1.37,4.16-2.24,6.51Zm5.65-9.3h3q-.1,2.56-.19,7.22a2.41,2.41,0,0,1-.42,1.53,1.75,1.75,0,0,1-1.26.49c-.16,0-.59,0-1.27-.07l-.13-.66c.48,0,.89,0,1.25,0a1.33,1.33,0,0,0,.88-.29,2,2,0,0,0,.29-1.15q0-1.31.19-6.48h-2.35a27.46,27.46,0,0,1-.5,5.17,13.05,13.05,0,0,1-1.69,4L150,111a12.17,12.17,0,0,0,1.61-3.74,29.2,29.2,0,0,0,.5-5.52c0-1,0-2.09,0-3.14h-1.41V98h2.9a22,22,0,0,0-.94-3.06l.7-.19c.32.89.65,2,1,3.25h2v.64h-3.54Q152.79,100.62,152.79,101.67Zm5.77-4.42h4.88v.66h-5.17a20.94,20.94,0,0,1-1.56,2.64l-.57-.38a18,18,0,0,0,2.64-5.51l.68.15C159.17,95.71,158.87,96.53,158.56,97.25Zm1.93,8.14v4.06a1.81,1.81,0,0,1-.42,1.33,2,2,0,0,1-1.31.41c-.47,0-.93,0-1.37-.06l-.13-.69c.64,0,1.11.07,1.41.07a1.3,1.3,0,0,0,.88-.26,1.26,1.26,0,0,0,.26-.9v-4h-3.3v-.64h3.3v-1.3c1.09-1.29,1.8-2.12,2.13-2.5h-4.35v-.64h5.15V101c-.69.85-1.44,1.74-2.25,2.7v1.08h3v.64Z"/><path d="M168.65,107.7c.87-.29,1.71-.57,2.53-.82l.15.68c-1.35.45-3.33,1.08-6,1.89l-.22-.74,2.78-.81v-5.37h-2.29v-.66h2.29v-5h-2.49v-.66H171v.66h-2.37v5h2v.66h-2Zm9.35-5.87V109a1.42,1.42,0,0,0,.28,1,1.22,1.22,0,0,0,.88.31h.51a1.57,1.57,0,0,0,1-.27,2,2,0,0,0,.4-1c.08-.68.16-1.26.22-1.75l.62.17c-.07.7-.14,1.3-.22,1.81a2.26,2.26,0,0,1-.6,1.32,2.36,2.36,0,0,1-1.38.41h-.6a2,2,0,0,1-1.34-.48,1.87,1.87,0,0,1-.44-1.37v-7.27h-2.61c0,1,0,1.81-.05,2.37a10.58,10.58,0,0,1-.9,4.16,10.45,10.45,0,0,1-2.9,3.18l-.51-.55a10.2,10.2,0,0,0,2.77-3,9.35,9.35,0,0,0,.82-3.85c0-1.11.06-1.89.08-2.33h-2.57v-.67h10.14v.67Zm-5.55-5.63h8.07v.68h-8.07Z"/><path d="M185.47,109.46v1.8h-.72V97.85h1.85a25.94,25.94,0,0,0,1.23-3.15l.74.17c-.31.89-.7,1.88-1.18,3h3.3v13.23H190v-1.62Zm0-6.12H190V98.55h-4.51Zm0,5.43H190V104h-4.51Zm8.42-11h5.31q-.19,8.88-.23,10.34a3.35,3.35,0,0,1-.7,2.26,2.77,2.77,0,0,1-2.07.75c-.82,0-1.62,0-2.39-.11l-.09-.77c1,.09,1.77.13,2.33.13a2.28,2.28,0,0,0,1.65-.55,2.76,2.76,0,0,0,.55-1.8c.07-3.25.15-6.44.22-9.55h-4.9a25.81,25.81,0,0,1-1.72,3.08l-.62-.37a22.94,22.94,0,0,0,3-6.53l.7.2C194.69,95.71,194.34,96.69,193.89,97.8Zm-1.29,4.51.57-.37q1.05,1.38,2.64,3.58l-.6.44Q194.15,104.37,192.6,102.31Z"/><path d="M201.9,100.61l.33-.61c1.32.64,2.38,1.2,3.19,1.69l-.35.64C204.16,101.78,203.1,101.2,201.9,100.61Zm.22-4.74.38-.6c1.13.62,2.12,1.2,3,1.72l-.37.63C204.25,97.1,203.26,96.52,202.12,95.87Zm0,15.1c.9-2.48,1.65-4.64,2.25-6.46l.64.24c-.62,2-1.37,4.16-2.23,6.51Zm5.64-9.3h3q-.09,2.56-.18,7.22a2.41,2.41,0,0,1-.42,1.53,1.76,1.76,0,0,1-1.27.49c-.16,0-.58,0-1.26-.07l-.13-.66c.48,0,.89,0,1.25,0a1.33,1.33,0,0,0,.88-.29,2,2,0,0,0,.29-1.15c0-.87.09-3,.18-6.48h-2.34a28.32,28.32,0,0,1-.5,5.17,13.05,13.05,0,0,1-1.69,4L205,111a12.17,12.17,0,0,0,1.61-3.74,28.53,28.53,0,0,0,.49-5.52c0-1,0-2.09,0-3.14h-1.41V98h2.9a23.42,23.42,0,0,0-.94-3.06l.7-.19c.32.89.65,2,1,3.25h2v.64h-3.54C207.82,100,207.8,101,207.8,101.67Zm5.78-4.42h4.88v.66h-5.17a23.65,23.65,0,0,1-1.56,2.64l-.57-.38a18,18,0,0,0,2.64-5.51l.68.15C214.19,95.71,213.89,96.53,213.58,97.25Zm1.93,8.14v4.06a1.81,1.81,0,0,1-.42,1.33,2,2,0,0,1-1.31.41c-.47,0-.93,0-1.37-.06l-.13-.69c.64,0,1.11.07,1.41.07a1.3,1.3,0,0,0,.88-.26,1.26,1.26,0,0,0,.26-.9v-4h-3.3v-.64h3.3v-1.3c1.09-1.29,1.8-2.12,2.13-2.5h-4.35v-.64h5.15V101c-.69.85-1.45,1.74-2.25,2.7v1.08h3v.64Z"/><path d="M224.86,104.53q1.21,1.71,2.49,3.69l-.53.47c-1-1.46-1.73-2.61-2.31-3.43a21.49,21.49,0,0,1-3.9,5.43l-.5-.57a21.75,21.75,0,0,0,3.94-5.52c-1.24-1.74-2.29-3.16-3.13-4.23l.55-.39q1.25,1.53,2.91,3.87a24.39,24.39,0,0,0,1.71-6.18h-5.23V97h5.93v.66A25.45,25.45,0,0,1,224.86,104.53Zm7,2.29c.21.58.4,1.05.57,1.43.7,1.53,1.43,2.29,2.19,2.29a.82.82,0,0,0,.55-.21,2,2,0,0,0,.45-.85,22.16,22.16,0,0,0,.54-2.4l.66.31a23.56,23.56,0,0,1-.59,2.44,2.78,2.78,0,0,1-.62,1.12,1.43,1.43,0,0,1-1,.38c-1.06,0-2-.91-2.86-2.73-.17-.39-.34-.81-.49-1.25a23.61,23.61,0,0,1-4.3,3l-.45-.59a24.25,24.25,0,0,0,4.49-3.19,27.48,27.48,0,0,1-1.06-5.77l-2.85.36-.11-.69,2.9-.37c0-.17,0-.3,0-.37-.11-1.48-.18-3.16-.22-5h.74c0,1.82.11,3.48.22,5,0,.11,0,.22,0,.33l5.79-.74.09.7-5.83.73a28,28,0,0,0,.94,5.32,20.28,20.28,0,0,0,3.32-4.42l.58.42A22.23,22.23,0,0,1,231.88,106.82ZM232,96.08l.45-.46c1.09.93,2,1.72,2.59,2.38l-.48.5C233.66,97.58,232.8,96.77,232,96.08Z"/><path class="cls-1" d="M12.55,48.22l-3.6,5a30.83,30.83,0,0,0-8.08-5L4.22,43.7A29.45,29.45,0,0,1,12.55,48.22ZM7.68,57.46l5,3q-2.53,8.94-5.58,16.91l-5.69-3A161,161,0,0,0,7.68,57.46Zm35.65-1v1.27h6.29V63.2H43.33v8.64q0,3.6-1.43,4.77a4.64,4.64,0,0,1-.86.51q-1.93,1-7.21,1h-.61A23.83,23.83,0,0,0,31.6,72.5c2.36.1,4.07.12,5.12,0,.58-.07.88-.32.92-.76V63.2h-6.4V57.72h6.4V53.3h1.83a28.13,28.13,0,0,0,1.82-2.64H33.37V48.12a29.71,29.71,0,0,0-5-2.84A16.24,16.24,0,0,0,30,42.79H22.2c0,1.32-.12,3.22-.25,5.69h8.68s0,.84-.05,2.43Q30,69.86,28.9,73.82a5.47,5.47,0,0,1-.81,1.82,4.68,4.68,0,0,1-3.3,2.09,23.47,23.47,0,0,1-5.13.2,12.58,12.58,0,0,0-1.47-5.54q2.08.21,3.6.21a1.79,1.79,0,0,0,1.43-.81Q24.48,70,24.94,54.21v-.1H21.59Q20.23,70,14,77.52a2.07,2.07,0,0,1-.3.41,12.37,12.37,0,0,0-3.86-3.86l-.3-.15q5.37-6.09,6.55-19.55c.23-2.81.39-6.67.45-11.58h-3.8V37l-2,2.74a27.46,27.46,0,0,0-7.21-4.87,7.74,7.74,0,0,0-.81-.41l3.5-4.52a31.31,31.31,0,0,1,8.23,4.83L12.76,37h6.45V29.59h5.94V37h5.94v3.6a46.42,46.42,0,0,0,2.84-11l5.94,1c-.3,1.79-.66,3.5-1.06,5.13H49.47v5.79H37c-.41,1.12-1,2.42-1.63,3.91h9.65L46.17,45l3.55,2.64A55.37,55.37,0,0,1,43.33,56.45Z"/><path class="cls-1" d="M73.61,66.35l-4.77,4.42a59.9,59.9,0,0,0-4.37-7.31,38.13,38.13,0,0,1-8.83,11.07,20.15,20.15,0,0,0-4.12-4.73,2.7,2.7,0,0,0-.35-.3,33.13,33.13,0,0,0,9.29-11.93q-2.94-4.27-8.33-11.33l4.22-3.5q2.53,3.09,6.75,8.58A63,63,0,0,0,65.94,40.5H52.33V35H67.67l1.07-.2,3.91,1.37a87.08,87.08,0,0,1-5.13,20.92Q71.84,63.2,73.61,66.35ZM93,48.07l4.88,3a53.33,53.33,0,0,1-9.5,15.08c1.29,2.5,2.74,3.89,4.37,4.16.5.07.91-.34,1.22-1.22a30.75,30.75,0,0,0,1-6.65,17.3,17.3,0,0,0,4.62,3.4l.56.26Q98.4,78,93.47,78h-.41q-6.09-.7-9.65-7a40.76,40.76,0,0,1-7.51,5.23A23.73,23.73,0,0,0,71,71.63,38,38,0,0,0,81,65a77.61,77.61,0,0,1-2.8-16.1L73,49.59l-.76-5.68,5.64-.66q-.4-6.91-.56-13.41h6.45c.07,5.15.2,9.39.4,12.75l14.73-1.78.71,5.48-15,1.88a98.28,98.28,0,0,0,1.73,11.38A49.91,49.91,0,0,0,93,48.07ZM97.58,36.8l-4.67,3.7a60.31,60.31,0,0,0-6.6-7.56l4.47-3.25A91.29,91.29,0,0,1,97.58,36.8Z"/><path class="cls-1" d="M113,56.6l7.72-1.27a30.77,30.77,0,0,0-.21,5.44q-14,2.68-16.14,3.8a1.69,1.69,0,0,0-.26.11,35.08,35.08,0,0,0-2-5.79,9.25,9.25,0,0,0,4-2.8,4.58,4.58,0,0,1,.41-.45,57.86,57.86,0,0,0,4.11-4.93q-5.58.66-6.9,1.32a52.22,52.22,0,0,0-1.93-5.74c.88-.3,1.91-1.32,3.09-3a52.82,52.82,0,0,0,4.88-9.3q1-2.54,1.72-4.67L117.3,32a77.53,77.53,0,0,1-7.76,13.61l4.87-.35a46,46,0,0,0,3.15-5.34l5.38,3.51A85,85,0,0,1,113,56.6Zm7.06,8.84.66,5.38q-1.68.51-17.22,4.82l-1.17-6.19Q105.83,68.84,120.05,65.44Zm31.43-14.93-3.6,5a78.88,78.88,0,0,0-12.14-6.66,54.59,54.59,0,0,1-12.85,6.45A19.78,19.78,0,0,0,119.23,50a42.17,42.17,0,0,0,16.91-9.34,29.37,29.37,0,0,0,2.85-3h-16.3V32h20.36l1.12-.25,4.37,2.28a35.32,35.32,0,0,1-8,11A78.71,78.71,0,0,1,151.48,50.51ZM138.73,61.63v9.55h12.14v5.73H120.05V71.18h12.44V61.63h-9.35V56h25.14v5.64Z"/><path class="cls-1" d="M165.92,62l.46,4.57-5.74,1.38-7.11,1.62-1-4.77Q156.68,64.06,165.92,62Zm13-11.47V46.09a64.32,64.32,0,0,1-5.18,4.06,35.52,35.52,0,0,0-3.5-5c-.17,2.26-.43,5-.76,8.27h4s0,.78-.1,2.24q-.72,15-2.09,18.38a5.39,5.39,0,0,1-.76,1.37,5.87,5.87,0,0,1-4,2,51.91,51.91,0,0,1-6.35,0,10,10,0,0,0-1.52-4.92c1.9.17,3.71.25,5.43.25a2.74,2.74,0,0,0,1.83-.66q1.43-1.68,2-13.86H154.5q1-7.77,1.37-18.23l5.28.3q-.21,4.42-1,13.15h4.07q.85-7.2,1.37-17H153.84V31.36H171q-.36,7-.86,13.82a40.39,40.39,0,0,0,12.54-12,35.75,35.75,0,0,0,2.54-4.37l5.33,1.88c-.17.38-.63,1.21-1.37,2.49A51.56,51.56,0,0,0,200.81,43c.57.34,1.12.65,1.62.92a26.11,26.11,0,0,0-2.84,6.14,46,46,0,0,1-4.72-3.5v4Zm16.61,3,5.63,1.17q-3.86,10.72-6.29,15.85H201v5.18h-27V70.57h15.59a91,91,0,0,0,5.68-16.41C195.39,53.93,195.44,53.72,195.48,53.55Zm-12.39,12.7-5,1.37a77.26,77.26,0,0,0-2.69-12.24L180,54.11A73.62,73.62,0,0,1,183.09,66.25Zm-3.41-20.92h13.77A78,78,0,0,1,186.13,38,59.67,59.67,0,0,1,179.68,45.33Zm11.48,20.11-4.93.76a109.3,109.3,0,0,0-1.93-12.29l4.68-.66A91.43,91.43,0,0,1,191.16,65.44Z"/><path class="cls-2" d="M9.06,10.58V8.66h5.86V15.5a5.58,5.58,0,0,1-2.38,1.88,8.61,8.61,0,0,1-3.62.74A8.42,8.42,0,0,1,4.56,17a8,8,0,0,1-3-3.22A10,10,0,0,1,.45,9,9.81,9.81,0,0,1,1.54,4.33,8,8,0,0,1,8.78,0a7.56,7.56,0,0,1,3.68.89,5.32,5.32,0,0,1,2.36,2.47l-1.72,1a4.38,4.38,0,0,0-1.73-1.74A5.34,5.34,0,0,0,8.68,2a5.5,5.5,0,0,0-3.11.89A5.91,5.91,0,0,0,3.46,5.34,8.55,8.55,0,0,0,2.7,9a8.4,8.4,0,0,0,.8,3.74,5.84,5.84,0,0,0,2.23,2.5,6.15,6.15,0,0,0,3.33.89,4.84,4.84,0,0,0,3.72-1.34V10.58Z"/><path class="cls-2" d="M24.16.29l7.06,17.57H28.84l-1.94-5H19.62l-1.84,5H15.62L22.36.29Zm2,10.61-3-7.76L20.34,10.9Z"/><path class="cls-2" d="M47.68.29h1.75V17.86H47.34V4.46L41.8,13.32H40.53l-5.59-8.9V17.86H32.87V.29h1.87l6.48,10.44Z"/><path class="cls-2" d="M55.14,17.86H53V.29h2.13Z"/><path class="cls-2" d="M60.52.29,70.29,14V.29h2V17.86H70.5L60.73,4.08V17.86h-2V.29Z"/><path class="cls-2" d="M83.61,10.58V8.66h5.85V15.5a5.61,5.61,0,0,1-2.37,1.88,8.66,8.66,0,0,1-3.63.74A8.38,8.38,0,0,1,79.11,17a7.92,7.92,0,0,1-3-3.22A10,10,0,0,1,75,9a9.81,9.81,0,0,1,1.09-4.69,8,8,0,0,1,3-3.19A8.14,8.14,0,0,1,83.32,0,7.53,7.53,0,0,1,87,.89a5.39,5.39,0,0,1,2.37,2.47l-1.73,1a4.38,4.38,0,0,0-1.73-1.74A5.31,5.31,0,0,0,83.22,2a5.44,5.44,0,0,0-3.1.89A5.93,5.93,0,0,0,78,5.34,8.55,8.55,0,0,0,77.25,9,8.4,8.4,0,0,0,78,12.76a5.9,5.9,0,0,0,2.23,2.5,6.16,6.16,0,0,0,3.34.89,4.87,4.87,0,0,0,3.72-1.34V10.58Z"/><path class="cls-2" d="M107.82,9.72h-7.73V16H109v1.9H98V.26h10.78v1.9h-8.65V7.82h7.73Z"/><path class="cls-2" d="M124.91.29,118.69,9l6.39,8.91h-2.62l-5.09-7.18-5,7.18h-2.47L116.25,9,110,.29h2.64l4.9,7,4.87-7Z"/><path class="cls-2" d="M132.25.29a7.08,7.08,0,0,1,3.18.69,5.4,5.4,0,0,1,2.2,1.94,5.08,5.08,0,0,1,.79,2.82,5.2,5.2,0,0,1-.78,2.82,5.3,5.3,0,0,1-2.18,1.92,7.32,7.32,0,0,1-3.21.68H129v6.7h-2.14V.29Zm-.26,9a4.4,4.4,0,0,0,3.1-1,3.3,3.3,0,0,0,1.08-2.55,3.36,3.36,0,0,0-1.08-2.57,4.4,4.4,0,0,0-3.1-1h-3V9.29Z"/><path class="cls-2" d="M150.37,9.72h-7.72V16h8.9v1.9h-11V.26h10.78v1.9h-8.64V7.82h7.72Z"/><path class="cls-2" d="M167.53,17.86h-2.61l-5.09-7.2h-3.48v7.2h-2.14V.29h5.4a7.48,7.48,0,0,1,3.21.65A5.11,5.11,0,0,1,165,2.77a4.85,4.85,0,0,1,.78,2.73,4.72,4.72,0,0,1-1,3,5.47,5.47,0,0,1-2.71,1.82ZM156.35,2.16V8.78h3a4.71,4.71,0,0,0,3.11-.9,3,3,0,0,0,1.07-2.38,3.06,3.06,0,0,0-1.07-2.42,4.66,4.66,0,0,0-3.11-.92Z"/><path class="cls-2" d="M171.16,17.86H169V.29h2.14Z"/><path class="cls-2" d="M184.6,9.72h-7.73V16h8.9v1.9h-11V.26h10.78v1.9h-8.64V7.82h7.73Z"/><path class="cls-2" d="M190.24.29,200,14V.29h2V17.86h-1.8L190.45,4.08V17.86h-2V.29Z"/><path class="cls-2" d="M216.88,13.49l1.72,1a5.73,5.73,0,0,1-2.3,2.66,6.73,6.73,0,0,1-3.6,1A7.44,7.44,0,0,1,208.64,17a8.12,8.12,0,0,1-2.88-3.22,10.2,10.2,0,0,1-1-4.7,10.27,10.27,0,0,1,1-4.71,8.07,8.07,0,0,1,2.88-3.2A7.52,7.52,0,0,1,212.7,0a6.73,6.73,0,0,1,3.6,1,5.73,5.73,0,0,1,2.3,2.66l-1.72,1A4.46,4.46,0,0,0,212.65,2a5.05,5.05,0,0,0-3,.89,5.68,5.68,0,0,0-2,2.49,9.15,9.15,0,0,0-.71,3.7,9.23,9.23,0,0,0,.71,3.71,5.65,5.65,0,0,0,2,2.5,5.05,5.05,0,0,0,3,.89A4.46,4.46,0,0,0,216.88,13.49Z"/><path class="cls-2" d="M230.49,9.72h-7.73V16h8.9v1.9h-11V.26H231.4v1.9h-8.64V7.82h7.73Z"/></g></g></svg>