<?xml version="1.0" encoding="utf-8"?>
<!-- Generator: Adobe Illustrator 27.0.0, SVG Export Plug-In . SVG Version: 6.00 Build 0)  -->
<svg version="1.1" id="图层_1" xmlns="http://www.w3.org/2000/svg" xmlns:xlink="http://www.w3.org/1999/xlink" x="0px" y="0px"
	 viewBox="0 0 378.6 18.8" style="enable-background:new 0 0 378.6 18.8;" xml:space="preserve">
<style type="text/css">
	.st0{fill:#387CE8;}
</style>
<g id="图层_2_00000112606725380334354650000013389882726232539796_">
	<g id="图层_1-2">
		<path class="st0" d="M284.3,8.4v9.8h-0.8V7.5c-0.8,2.4-2,4.7-3.5,6.8l-0.4-0.7c1.8-2.3,3.1-4.9,3.9-7.7h-3.3V5.2h3.4V1.4h0.7v3.8
			h3v0.7h-3v2.2l0.3-0.3c1,1,2,1.9,2.8,2.9l-0.5,0.5C286.1,10.3,285.2,9.3,284.3,8.4z M291.9,5.9c0.4,1.5,1,2.9,1.7,4.2
			c0.8,1.5,1.8,3,3,4.2l-0.5,0.7c-1.2-1.3-2.2-2.8-3-4.4c-0.5-1.1-1-2.2-1.4-3.4v11H291V7.3c-0.4,1.2-0.9,2.4-1.5,3.6
			c-0.8,1.5-1.8,3-3,4.3l-0.5-0.6c1.2-1.3,2.2-2.7,3-4.2c0.8-1.4,1.4-2.9,1.8-4.5H288V5.2h3V1.4h0.7v3.9h4.2v0.7L291.9,5.9z"/>
		<path class="st0" d="M296.7,7.5l0.4-0.6l3.1,1.6l-0.4,0.7C298.2,8.3,297.1,7.7,296.7,7.5z M299.3,11.3l0.7,0.2
			c-0.6,2.2-1.2,4.4-2,6.5l-0.7-0.2C298.1,15.4,298.8,13.2,299.3,11.3z M297.3,2.7l0.4-0.6c1,0.5,2.1,1.1,3.1,1.7l-0.3,0.6
			C299.4,3.9,298.4,3.3,297.3,2.7z M302.1,12h0.7c0,0.4,0,0.9-0.1,1.4c0,0.9-0.2,1.8-0.6,2.7c-0.4,0.9-1,1.6-1.7,2.2l-0.5-0.4
			c0.6-0.6,1.2-1.3,1.6-2.1c0.3-0.8,0.5-1.6,0.6-2.5C302.1,12.9,302.1,12.4,302.1,12z M311.7,8.7V11h-4.5v7h-0.7v-7h-4.8v-0.6h4.8
			V8.7h-5.6V8.2h5.6V6.5h-4.7V5.9h4.7V4.5h0.7v1.4h4.5v2.3h1.7v0.6H311.7z M309.6,3.5v1.4H309V3.5h-4.1v1.3h-0.7V3.5h-3.2V2.9h3.2
			V1.3h0.7v1.7h4.1V1.3h0.7v1.7h3.6v0.6L309.6,3.5z M304.8,12.7l0.6,0.2c-0.4,1.2-1,2.4-1.6,3.6l-0.5-0.3
			C303.9,15.1,304.5,13.9,304.8,12.7z M311.1,8.2V6.5h-3.9v1.7H311.1z M311.1,8.7h-3.9v1.7h3.9V8.7z M308.2,12.9l0.5-0.2
			c0.6,1.2,1.1,2.3,1.6,3.4l-0.6,0.2C309.2,15.1,308.7,14,308.2,12.9z M311.2,11.9h0.7v6.2h-0.7V11.9z"/>
		<path class="st0" d="M314.4,8.5h6.6v4.1h-5.3v4.1c1.3-0.3,3.1-0.8,5.3-1.5l0.1,0.7c-2,0.6-4,1.2-6.1,1.8l-0.3-0.6
			c0.2-0.1,0.4-0.4,0.4-0.6v-4.5h5.3V9.1h-5.9V8.5z M318.3,5.9h2.4V2.4h0.6v4.1h-6.7V2.4h0.6v3.4h2.4V1.3h0.7V5.9z M323.2,2.6h4.7
			V16c0,0.3,0,0.6,0.2,0.8c0.2,0.2,0.4,0.2,0.6,0.2c0.1,0,0.2,0,0.3,0c0.2,0,0.5-0.1,0.6-0.2c0.2-0.3,0.3-0.7,0.3-1
			c0.1-0.9,0.1-1.6,0.1-2.2l0.6,0.2c0,0.7,0,1.4-0.1,2.1c0,0.5-0.2,0.9-0.4,1.3c-0.3,0.3-0.7,0.5-1.1,0.4h-0.4c-0.4,0-0.7-0.1-1-0.4
			c-0.3-0.3-0.5-0.8-0.5-1.3V3.3h-3.3v5.4c0,1.8-0.1,3.6-0.4,5.4c-0.4,1.6-1.2,3-2.2,4.2l-0.6-0.5c1-1.1,1.7-2.5,2.1-3.9
			c0.3-1.7,0.4-3.4,0.4-5.2V2.6z"/>
		<path class="st0" d="M340.1,15.9l4.7-5.7c0.6-0.7,1.1-1.4,1.6-2.1c0.3-0.6,0.5-1.3,0.5-2c0-0.7-0.2-1.5-0.8-1.9
			c-0.6-0.5-1.3-0.7-2-0.7c-0.8,0-1.6,0.2-2.2,0.7c-0.6,0.5-1,1.2-1.2,2H340c0.2-1,0.8-1.9,1.6-2.5c0.7-0.6,1.7-1,2.7-0.9
			c0.9,0,1.9,0.3,2.6,0.9c0.7,0.6,1.1,1.5,1,2.5c0,0.5-0.1,1.1-0.3,1.6c-0.2,0.5-0.5,1-0.8,1.4c-0.3,0.4-0.7,0.9-1.2,1.6l-0.4,0.4
			l-4,4.8l0,0h6.8v0.7h-7.8V15.9z"/>
		<path class="st0" d="M354.9,16.8c-1.2,0-2.3-0.3-3.3-0.9c-1-0.6-1.8-1.5-2.2-2.5c-0.5-1.1-0.8-2.4-0.8-3.6c0-1.3,0.2-2.5,0.8-3.7
			c0.5-1,1.2-1.9,2.2-2.5c2-1.2,4.6-1.2,6.6,0c1,0.6,1.8,1.5,2.2,2.5c0.6,1.1,0.8,2.4,0.8,3.7c0,1.3-0.3,2.5-0.8,3.6
			c-0.5,1-1.3,1.9-2.2,2.5C357.2,16.5,356,16.8,354.9,16.8z M349.4,9.8c0,1.1,0.2,2.2,0.7,3.2c0.9,1.9,2.8,3,4.8,3
			c1,0,2-0.3,2.9-0.8c0.9-0.5,1.6-1.3,2-2.2c0.5-1,0.7-2.1,0.7-3.3c0-1.1-0.2-2.2-0.7-3.2c-0.4-0.9-1.1-1.7-2-2.2
			c-0.9-0.5-1.9-0.8-2.9-0.8c-1,0-2,0.3-2.9,0.8c-0.9,0.5-1.5,1.3-2,2.2C349.6,7.6,349.3,8.7,349.4,9.8L349.4,9.8z"/>
		<path class="st0" d="M361.9,15.9l4.7-5.7c0.6-0.7,1.1-1.4,1.6-2.1c0.3-0.6,0.5-1.3,0.5-2c0-0.7-0.2-1.5-0.8-1.9
			c-0.6-0.5-1.3-0.7-2-0.7c-0.8,0-1.6,0.2-2.2,0.7c-0.6,0.5-1,1.2-1.2,2h-0.8c0.2-1,0.7-1.8,1.5-2.5c0.7-0.6,1.7-1,2.7-0.9
			c0.9,0,1.9,0.3,2.6,0.9c0.7,0.6,1.1,1.5,1,2.4c0,0.5-0.1,1.1-0.3,1.6c-0.2,0.5-0.4,1-0.8,1.4c-0.3,0.4-0.7,0.9-1.2,1.6l-0.4,0.4
			l-4,4.8l0,0h6.8v0.7h-7.8L361.9,15.9z"/>
		<path class="st0" d="M374.3,16.8c-1,0-2-0.3-2.7-1c-0.7-0.7-1.2-1.5-1.4-2.5h0.8c0.2,0.8,0.6,1.5,1.2,2c1.5,1.2,3.6,0.9,4.8-0.5
			c0.1-0.1,0.2-0.3,0.3-0.5c0.3-0.6,0.5-1.3,0.5-1.9c0-0.7-0.1-1.4-0.4-2c-0.3-0.5-0.7-1-1.2-1.3c-0.5-0.3-1.1-0.4-1.7-0.4
			c-0.6,0-1.2,0.1-1.7,0.4c-0.5,0.2-0.9,0.6-1.2,1.1h-0.7l0.7-7.3h6.2v0.7h-5.5l-0.5,5.6c0.3-0.4,0.8-0.7,1.2-0.9
			c0.6-0.2,1.1-0.3,1.7-0.2c0.7,0,1.4,0.2,2.1,0.5c0.6,0.4,1.1,0.9,1.4,1.5c0.3,0.7,0.5,1.5,0.5,2.2c0,0.8-0.2,1.6-0.6,2.4
			c-0.3,0.6-0.9,1.2-1.5,1.5C375.8,16.6,375.1,16.8,374.3,16.8z"/>
		<path class="st0" d="M270.7,1.2c1.4,0.8,2.6,2,3.4,3.4c0.8,1.5,1.3,3.1,1.2,4.8c0,1.7-0.4,3.3-1.2,4.8c-0.8,1.4-2,2.6-3.4,3.4
			c-1.5,0.8-3.1,1.3-4.8,1.2c-1.7,0-3.3-0.4-4.8-1.2c-1.4-0.8-2.6-2-3.4-3.4c-0.8-1.5-1.2-3.1-1.2-4.8c0-1.7,0.4-3.3,1.2-4.8
			c0.8-1.4,2-2.6,3.4-3.4c1.5-0.8,3.1-1.3,4.8-1.2C267.6,0,269.2,0.4,270.7,1.2z M270.1,16.6c1.3-0.7,2.3-1.7,3-3
			c0.7-1.3,1.1-2.7,1-4.1c0-1.5-0.4-2.9-1.1-4.2c-0.7-1.3-1.7-2.3-3-3c-1.3-0.7-2.7-1.1-4.1-1c-1.5,0-2.9,0.4-4.2,1.1
			c-1.2,0.7-2.3,1.7-3,3c-0.7,1.3-1.1,2.7-1.1,4.1c0,1.5,0.4,2.9,1.1,4.2c0.7,1.3,1.7,2.3,3,3c1.3,0.7,2.7,1.1,4.2,1.1
			C267.4,17.7,268.8,17.3,270.1,16.6z M263.6,6.4c-0.7,0.8-1.1,1.9-1,3c-0.1,1.1,0.3,2.2,1,3c0.6,0.7,1.6,1.1,2.5,1.1
			c0.5,0,1-0.1,1.5-0.4c0.5-0.2,0.8-0.6,1.1-1.1l1,0.6c-0.3,0.7-0.8,1.2-1.4,1.6c-0.6,0.4-1.4,0.5-2.1,0.5c-0.9,0-1.7-0.2-2.4-0.7
			c-0.8-0.5-1.4-1.1-1.8-1.9c-0.5-0.9-0.7-1.8-0.7-2.8c0-1,0.2-1.9,0.7-2.8c0.4-0.8,1-1.4,1.8-1.9c0.7-0.4,1.6-0.7,2.4-0.7
			c0.7,0,1.5,0.2,2.1,0.5c0.6,0.3,1.1,0.9,1.4,1.6l-1,0.6c-0.2-0.5-0.6-0.9-1.1-1.1c-0.5-0.2-1-0.4-1.5-0.4
			C265.2,5.3,264.3,5.7,263.6,6.4z"/>
	</g>
</g>
<g>
	<path class="st0" d="M5.2,13.1l-0.5,1.5H16c-0.2,1.2-0.3,1.9-0.3,2.1c-0.1,0.8-0.4,1.3-0.9,1.6c-0.5,0.3-1.3,0.5-2.3,0.5
		c-1.1,0-2.3,0-3.8-0.1l-0.2-1c1.5,0.1,2.8,0.1,3.7,0.1c0.7,0,1.3-0.1,1.6-0.3c0.3-0.2,0.5-0.5,0.6-0.9c0.1-0.4,0.1-0.8,0.2-1.1H3.2
		l0.8-2.4H0v-0.9h18.8v0.9H5.2z M8.8,1.5h8v9.2H2V1.5h5.4C7.8,0.7,8,0.1,8.2-0.3L9.5,0C9.4,0.4,9.1,0.9,8.8,1.5z M15.6,9.8V2.4H3.1
		v7.4H15.6z M9.9,7.2v2H8.8V6.8c-1.2,1-2.6,1.8-4.3,2.4L4,8.5c1.1-0.4,2-0.8,2.8-1.2c0.5-0.3,1-0.6,1.4-1H4.2V5.4h4.6V3h1.1v2.5h4.6
		v0.8H9.9V7l0.4-0.5c1.7,0.7,3.1,1.3,4.2,1.9L14,9.2C12.8,8.5,11.4,7.9,9.9,7.2z M4.9,3.5l0.6-0.6c0.7,0.4,1.5,1,2.3,1.6L7.1,5.2
		C6.3,4.6,5.6,4,4.9,3.5z M13.3,2.9l0.6,0.6c-0.6,0.5-1.4,1.1-2.3,1.7L11,4.6C11.9,4.1,12.6,3.5,13.3,2.9z"/>
	<path class="st0" d="M22.6,17.1h-1.4V1.8h1.4V17.1z"/>
	<path class="st0" d="M37.7,13.9c-0.3,0.6-0.7,1.2-1.2,1.7c-0.5,0.5-1.2,0.9-2,1.3c-0.8,0.3-1.7,0.5-2.6,0.5c-1.3,0-2.5-0.3-3.5-1
		c-1.1-0.6-1.9-1.6-2.5-2.8c-0.6-1.2-0.9-2.6-0.9-4.2c0-1.7,0.3-3.1,0.9-4.3c0.6-1.2,1.5-2.1,2.5-2.8c1.1-0.6,2.3-0.9,3.6-0.9
		c1.1,0,2.1,0.2,3,0.6c0.9,0.4,1.7,1,2.2,1.7l-0.9,0.9c-0.6-0.6-1.2-1.1-1.9-1.4c-0.7-0.3-1.6-0.5-2.4-0.5c-1.1,0-2,0.3-2.8,0.8
		c-0.8,0.5-1.5,1.3-2,2.3c-0.5,1-0.7,2.2-0.7,3.6c0,1.3,0.2,2.5,0.8,3.5c0.5,1,1.2,1.8,2,2.3c0.9,0.6,1.8,0.8,2.9,0.8
		c1.1,0,2.1-0.3,2.9-0.8c0.8-0.5,1.4-1.2,1.8-2L37.7,13.9z"/>
	<path class="st0" d="M40.1,1.8h5.5c1.6,0,2.8,0.4,3.8,1.1c0.9,0.7,1.4,1.9,1.4,3.4c0,1.5-0.5,2.7-1.4,3.4c-0.9,0.8-2.1,1.1-3.5,1.1
		h-4.4v6.3h-1.4V1.8z M45.7,9.6c1.1,0,2-0.3,2.6-0.8c0.6-0.6,1-1.4,1-2.5c0-1.1-0.3-1.9-1-2.5C47.7,3.3,46.8,3,45.7,3h-4.3v6.7H45.7
		z"/>
	<path class="st0" d="M63.1,6.6c2.1,0.8,4.8,1.4,8,1.8l-0.4,1.2c-3.6-0.5-6.5-1.3-8.8-2.3c-0.1,0-0.1,0-0.2-0.1l0,0
		c-2.3,1.1-5.5,1.9-9.3,2.6l-0.4-1.1c3.4-0.5,6.2-1.3,8.5-2.2c-1.4-0.8-2.7-1.8-3.8-2.9c-0.9,0.9-1.9,1.7-3,2.6l-0.8-0.9
		c2.3-1.6,4.2-3.5,5.5-5.7l1.2,0.4c-0.4,0.6-0.8,1.1-1.1,1.6h9.8v1C66.8,4.3,65,5.6,63.1,6.6z M56.2,18v1H55V9.9h13.3V19h-1.2v-1
		H56.2z M56.2,13.5h4.8v-2.5h-4.8V13.5z M56.2,17h4.8v-2.5h-4.8V17z M61.8,6c1.8-0.9,3.4-2,4.8-3.3h-9c0,0.1-0.1,0.1-0.1,0.1
		C58.8,4.2,60.2,5.2,61.8,6z M67.1,13.5v-2.5h-4.8v2.5H67.1z M67.1,17v-2.5h-4.8V17H67.1z"/>
	<path class="st0" d="M73.5,15.9l5.2-6.2c0.6-0.8,1-1.3,1.2-1.6c0.2-0.4,0.5-0.8,0.7-1.3c0.2-0.5,0.3-1,0.3-1.5c0-0.9-0.3-1.6-0.8-2
		c-0.5-0.4-1.2-0.7-2-0.7c-0.9,0-1.7,0.2-2.2,0.7c-0.6,0.5-1,1.2-1.2,2h-1.4c0.2-1.2,0.8-2.1,1.7-2.8c0.9-0.7,1.9-1.1,3.1-1.1
		c1.2,0,2.3,0.3,3,1c0.8,0.7,1.2,1.6,1.2,2.9c0,0.6-0.1,1.2-0.4,1.8c-0.3,0.6-0.5,1.1-0.8,1.5c-0.2,0.3-0.7,0.8-1.3,1.6L79.2,11
		l-4.1,4.9v0h7.4v1.2h-9V15.9z"/>
	<path class="st0" d="M94.1,12.6c-0.1,1.4-0.5,2.6-1.3,3.5c-0.8,0.9-1.9,1.3-3.3,1.3s-2.4-0.4-3.2-1.3c-0.8-0.9-1.3-2-1.3-3.5
		c0-0.9,0-2,0-3.1c0-1.2,0-2.2,0-3.1c0-1,0.2-1.8,0.6-2.5c0.4-0.7,0.9-1.3,1.6-1.7c0.6-0.4,1.4-0.6,2.4-0.6c1.3,0,2.4,0.4,3.3,1.3
		c0.8,0.9,1.3,2,1.3,3.5c0,0.9,0,2,0,3.1C94.1,10.6,94.1,11.6,94.1,12.6z M86.3,12.3c0,1.2,0.3,2.1,0.8,2.8c0.5,0.7,1.3,1,2.4,1
		c1,0,1.8-0.3,2.4-1c0.5-0.7,0.8-1.6,0.9-2.8c0-0.9,0-1.9,0-2.9c0-1.1,0-2,0-2.9c0-1.2-0.3-2.1-0.9-2.8c-0.5-0.7-1.3-1-2.4-1
		c-1.1,0-1.8,0.3-2.4,1c-0.5,0.7-0.8,1.6-0.8,2.8c0,0.8,0,1.8,0,2.9C86.3,10.5,86.3,11.4,86.3,12.3z"/>
	<path class="st0" d="M96.8,15.9l5.2-6.2c0.6-0.8,1-1.3,1.2-1.6c0.2-0.4,0.5-0.8,0.7-1.3c0.2-0.5,0.3-1,0.3-1.5c0-0.9-0.3-1.6-0.8-2
		c-0.5-0.4-1.2-0.7-2-0.7c-0.9,0-1.7,0.2-2.2,0.7c-0.6,0.5-1,1.2-1.2,2h-1.4c0.2-1.2,0.8-2.1,1.7-2.8c0.9-0.7,1.9-1.1,3.1-1.1
		c1.2,0,2.3,0.3,3,1c0.8,0.7,1.2,1.6,1.2,2.9c0,0.6-0.1,1.2-0.4,1.8c-0.3,0.6-0.5,1.1-0.8,1.5c-0.2,0.3-0.7,0.8-1.3,1.6l-0.6,0.7
		l-4.1,4.9v0h7.4v1.2h-9V15.9z"/>
	<path class="st0" d="M116.1,12.9h1.6v1.2h-1.6v3h-1.3v-3h-6.7v-1.2l6.6-11.1h1.4V12.9z M114.7,12.9v-9h0l-5.2,9H114.7z"/>
	<path class="st0" d="M124.4,17.4c-0.8,0-1.6-0.2-2.3-0.6c-0.7-0.4-1.3-0.9-1.7-1.6c-0.4-0.7-0.7-1.5-0.7-2.4h1.4
		c0.1,1,0.4,1.8,1.1,2.4c0.6,0.6,1.4,0.9,2.3,0.9c1,0,1.8-0.3,2.5-0.8c0.6-0.6,0.9-1.4,0.9-2.4c0-1.2-0.4-2-1.1-2.5
		c-0.7-0.5-1.7-0.8-2.8-0.8h-0.9V8.5h0.9c0.6,0,1.1-0.1,1.6-0.4c0.5-0.2,0.9-0.6,1.3-1c0.3-0.5,0.5-1,0.5-1.6c0-0.9-0.3-1.6-0.8-2.1
		c-0.5-0.5-1.2-0.8-2.1-0.8c-0.9,0-1.6,0.3-2.1,0.8c-0.5,0.5-0.9,1.2-1,1.9H120c0.1-0.7,0.3-1.4,0.7-2c0.4-0.6,0.9-1.1,1.6-1.4
		c0.6-0.3,1.4-0.5,2.2-0.5c0.8,0,1.6,0.2,2.2,0.5c0.6,0.3,1.1,0.8,1.5,1.4c0.4,0.6,0.5,1.3,0.5,2c0,1.8-0.8,3-2.4,3.6v0.1
		c0.9,0.2,1.6,0.6,2.1,1.3c0.5,0.7,0.8,1.5,0.8,2.5c0,0.8-0.2,1.6-0.6,2.3c-0.4,0.7-1,1.2-1.7,1.6C126.2,17.2,125.4,17.4,124.4,17.4
		z"/>
	<path class="st0" d="M140.7,12.6c-0.1,1.4-0.5,2.6-1.3,3.5c-0.8,0.9-1.9,1.3-3.3,1.3c-1.3,0-2.4-0.4-3.2-1.3
		c-0.8-0.9-1.3-2-1.3-3.5c0-0.9,0-2,0-3.1c0-1.2,0-2.2,0-3.1c0-1,0.2-1.8,0.6-2.5c0.4-0.7,0.9-1.3,1.6-1.7c0.6-0.4,1.4-0.6,2.4-0.6
		c1.3,0,2.4,0.4,3.3,1.3c0.8,0.9,1.3,2,1.3,3.5c0,0.9,0,2,0,3.1C140.8,10.6,140.8,11.6,140.7,12.6z M133,12.3c0,1.2,0.3,2.1,0.8,2.8
		s1.3,1,2.4,1c1,0,1.8-0.3,2.4-1c0.5-0.7,0.8-1.6,0.9-2.8c0-0.9,0-1.9,0-2.9c0-1.1,0-2,0-2.9c0-1.2-0.3-2.1-0.9-2.8
		c-0.5-0.7-1.3-1-2.4-1c-1.1,0-1.8,0.3-2.4,1c-0.5,0.7-0.8,1.6-0.8,2.8c0,0.8,0,1.8,0,2.9C132.9,10.5,132.9,11.4,133,12.3z"/>
	<path class="st0" d="M147.6,17.4c-1.3,0-2.3-0.4-3.1-1.1c-0.9-0.8-1.4-1.7-1.5-2.9h1.3c0.2,0.8,0.6,1.5,1.2,2
		c0.6,0.5,1.3,0.8,2.2,0.8c0.6,0,1.2-0.1,1.8-0.4c0.5-0.3,0.9-0.7,1.3-1.3c0.3-0.6,0.5-1.3,0.5-2c0-0.8-0.2-1.4-0.5-2
		c-0.3-0.6-0.7-1-1.3-1.3c-0.5-0.3-1.1-0.4-1.7-0.4c-1.3,0-2.3,0.5-3,1.4h-1.2l0.8-8.4h7.2V3h-6l-0.6,5.7c0.3-0.3,0.7-0.5,1.2-0.8
		c0.5-0.2,1.1-0.3,1.8-0.3c0.9,0,1.7,0.2,2.4,0.6c0.7,0.4,1.3,1,1.7,1.7c0.4,0.7,0.6,1.6,0.6,2.5c0,1-0.2,1.9-0.6,2.6
		c-0.4,0.8-1,1.3-1.7,1.8C149.5,17.2,148.6,17.4,147.6,17.4z"/>
	<path class="st0" d="M164,12.6c-0.1,1.4-0.5,2.6-1.3,3.5c-0.8,0.9-1.9,1.3-3.3,1.3c-1.3,0-2.4-0.4-3.2-1.3c-0.8-0.9-1.3-2-1.3-3.5
		c0-0.9,0-2,0-3.1c0-1.2,0-2.2,0-3.1c0-1,0.2-1.8,0.6-2.5c0.4-0.7,0.9-1.3,1.6-1.7c0.6-0.4,1.4-0.6,2.4-0.6c1.3,0,2.4,0.4,3.3,1.3
		c0.8,0.9,1.3,2,1.3,3.5c0,0.9,0,2,0,3.1C164.1,10.6,164.1,11.6,164,12.6z M156.3,12.3c0,1.2,0.3,2.1,0.8,2.8s1.3,1,2.4,1
		c1,0,1.8-0.3,2.4-1c0.5-0.7,0.8-1.6,0.9-2.8c0-0.9,0-1.9,0-2.9c0-1.1,0-2,0-2.9c0-1.2-0.3-2.1-0.9-2.8c-0.5-0.7-1.3-1-2.4-1
		c-1.1,0-1.8,0.3-2.4,1c-0.5,0.7-0.8,1.6-0.8,2.8c0,0.8,0,1.8,0,2.9C156.2,10.5,156.3,11.4,156.3,12.3z"/>
	<path class="st0" d="M172.7,1.8l-4,7h0c0.3-0.2,0.7-0.5,1.2-0.6c0.5-0.2,1-0.2,1.6-0.2c0.8,0,1.6,0.2,2.3,0.6
		c0.7,0.4,1.2,0.9,1.6,1.7s0.6,1.5,0.6,2.5c0,0.9-0.2,1.8-0.6,2.5c-0.4,0.7-1,1.3-1.8,1.7c-0.8,0.4-1.6,0.6-2.5,0.6
		c-0.9,0-1.8-0.2-2.5-0.6c-0.8-0.4-1.3-1-1.7-1.7c-0.4-0.7-0.6-1.6-0.6-2.5c0-0.9,0.2-1.7,0.5-2.5c0.3-0.9,0.9-1.9,1.6-3.2l2.8-5
		H172.7z M167.6,12.6c0,1.1,0.3,2,1,2.6c0.6,0.6,1.5,1,2.5,1c1,0,1.8-0.3,2.5-1c0.7-0.6,1-1.5,1-2.6c0-1.1-0.3-2-0.9-2.6
		c-0.6-0.6-1.4-1-2.4-1c-1.1,0-1.9,0.3-2.6,0.9C168,10.6,167.6,11.5,167.6,12.6z"/>
	<path class="st0" d="M182.7,17.4c-0.8,0-1.6-0.2-2.3-0.6c-0.7-0.4-1.3-0.9-1.7-1.6c-0.4-0.7-0.7-1.5-0.7-2.4h1.4
		c0.1,1,0.4,1.8,1.1,2.4c0.6,0.6,1.4,0.9,2.3,0.9c1,0,1.8-0.3,2.5-0.8c0.6-0.6,0.9-1.4,0.9-2.4c0-1.2-0.4-2-1.1-2.5
		c-0.7-0.5-1.7-0.8-2.8-0.8h-0.9V8.5h0.9c0.6,0,1.1-0.1,1.6-0.4c0.5-0.2,0.9-0.6,1.3-1c0.3-0.5,0.5-1,0.5-1.6c0-0.9-0.3-1.6-0.8-2.1
		c-0.5-0.5-1.2-0.8-2.1-0.8c-0.9,0-1.6,0.3-2.1,0.8c-0.5,0.5-0.9,1.2-1,1.9h-1.4c0.1-0.7,0.3-1.4,0.7-2c0.4-0.6,0.9-1.1,1.6-1.4
		c0.6-0.3,1.4-0.5,2.2-0.5c0.8,0,1.6,0.2,2.2,0.5c0.6,0.3,1.1,0.8,1.5,1.4c0.4,0.6,0.5,1.3,0.5,2c0,1.8-0.8,3-2.4,3.6v0.1
		c0.9,0.2,1.6,0.6,2.1,1.3c0.5,0.7,0.8,1.5,0.8,2.5c0,0.8-0.2,1.6-0.6,2.3c-0.4,0.7-1,1.2-1.7,1.6C184.5,17.2,183.7,17.4,182.7,17.4
		z"/>
	<path class="st0" d="M195.2,9.6l-0.6,2.3h11c-0.1,1.4-0.3,2.7-0.4,3.8c-0.2,1.1-0.5,1.8-1,2.2c-0.6,0.4-1.5,0.6-2.7,0.7
		c-1.2,0-2.5,0-3.8-0.1l-0.3-1.3c1.3,0.1,2.6,0.2,3.8,0.1c1,0,1.6-0.2,2-0.4c0.4-0.3,0.6-0.7,0.8-1.4c0.1-0.8,0.2-1.6,0.3-2.4h-11.2
		l1-3.5h-4.3V8.4h18.9v1.2H195.2z M205.4,6.4h-12.7V0.9h12.7V6.4z M204.1,5.3V2H194v3.3H204.1z"/>
	<path class="st0" d="M218.6,9.8v1.1h-7.8V9.8H218.6z"/>
	<path class="st0" d="M227.2,17.1h-1.3V3.3h0l-3.3,2.6V4.5l3.5-2.7h1.2V17.1z"/>
</g>
</svg>
