<svg xmlns="http://www.w3.org/2000/svg" viewBox="0 0 122.03 18.83"><defs><style>.cls-1{fill:#387ce8;}</style></defs><g id="图层_2" data-name="图层 2"><g id="图层_1-2" data-name="图层 1"><path class="cls-1" d="M27.75,8.43v9.82H27V7.51a23.64,23.64,0,0,1-3.5,6.79l-.44-.7a21.57,21.57,0,0,0,3.85-7.67h-3.3v-.7H27V1.38h.73V5.23H30.7v.7H27.75V8.08l.3-.28c1,1,1.95,1.94,2.83,2.91l-.48.51C29.56,10.26,28.67,9.32,27.75,8.43Zm7.58-2.5A22.81,22.81,0,0,0,37,10.18a18.75,18.75,0,0,0,3,4.23l-.46.66a18.71,18.71,0,0,1-3-4.43,22.65,22.65,0,0,1-1.36-3.41v11h-.72V7.31A21.28,21.28,0,0,1,33,10.91a21.09,21.09,0,0,1-3,4.29l-.48-.57a22.22,22.22,0,0,0,3-4.18,21.49,21.49,0,0,0,1.84-4.52H31.47v-.7h3V1.36h.72V5.23H39.4v.7Z"/><path class="cls-1" d="M40.12,7.49l.37-.61L43.6,8.5l-.35.66C41.63,8.28,40.58,7.72,40.12,7.49Zm2.61,3.81.68.18c-.58,2.21-1.24,4.39-2,6.55l-.67-.22C41.55,15.38,42.22,13.21,42.73,11.3ZM40.8,2.74l.35-.6c1,.52,2.07,1.09,3.09,1.69l-.33.62C42.89,3.86,41.85,3.29,40.8,2.74ZM45.53,12h.66q0,.66-.06,1.38a6.52,6.52,0,0,1-.6,2.66,7.07,7.07,0,0,1-1.68,2.25l-.53-.44a7.51,7.51,0,0,0,1.6-2.06,6.77,6.77,0,0,0,.57-2.47C45.52,12.85,45.53,12.41,45.53,12ZM55.2,8.74V11H50.66v7H50V11H45.25v-.55H50V8.74H44.39V8.17H50V6.46H45.34V5.91H50V4.49h.68V5.91H55.2V8.17h1.7v.57ZM53.11,3.55V4.9h-.67V3.55H48.29V4.86h-.67V3.55H44.4V2.94h3.22V1.29h.67V2.94h4.15V1.29h.67V2.94h3.6v.61Zm-4.8,9.16.57.19a18.9,18.9,0,0,1-1.61,3.57l-.55-.26A16.72,16.72,0,0,0,48.31,12.71Zm6.21-4.54V6.46H50.66V8.17Zm0,.57H50.66v1.73h3.86Zm-2.88,4.2.53-.23c.59,1.18,1.12,2.3,1.6,3.37l-.57.24C52.67,15.14,52.15,14,51.64,12.94Zm3-1h.66v6.2h-.66Z"/><path class="cls-1" d="M57.91,8.52h6.62v4.05H59.22v4.06q2-.46,5.28-1.49l.11.67q-2.93.87-6.15,1.76L58.13,17a.78.78,0,0,0,.4-.62V11.92h5.32V9.15H57.91Zm3.9-2.67h2.41V2.43h.61V6.48H58.17V2.41h.62V5.85h2.36V1.33h.66Zm4.82-3.27h4.73V16a1.14,1.14,0,0,0,.2.79.79.79,0,0,0,.59.24,1.56,1.56,0,0,0,.31,0,.79.79,0,0,0,.63-.23,2.54,2.54,0,0,0,.29-1c.08-.91.12-1.63.15-2.17l.57.16A21.8,21.8,0,0,1,74,15.92a2.46,2.46,0,0,1-.42,1.3,1.45,1.45,0,0,1-1.09.44h-.36a1.45,1.45,0,0,1-1-.38A1.72,1.72,0,0,1,70.66,16V3.26H67.33V8.67a25.85,25.85,0,0,1-.44,5.39,10.28,10.28,0,0,1-2.25,4.23l-.55-.5a9.68,9.68,0,0,0,2.14-3.95,25.61,25.61,0,0,0,.4-5.15Z"/><path class="cls-1" d="M83.57,15.88l4.73-5.67a15.45,15.45,0,0,0,1.57-2.13,4.12,4.12,0,0,0,.51-2,2.43,2.43,0,0,0-.79-1.95,2.88,2.88,0,0,0-2-.66,3.24,3.24,0,0,0-2.17.73,3.74,3.74,0,0,0-1.18,2h-.81A4.16,4.16,0,0,1,85,3.72a4.07,4.07,0,0,1,2.67-.94,3.77,3.77,0,0,1,2.58.86,3.09,3.09,0,0,1,1,2.45,4.29,4.29,0,0,1-.31,1.6,6.78,6.78,0,0,1-.76,1.38c-.29.41-.69.92-1.21,1.55l-.37.44-4,4.78v0h6.82v.68H83.57Z"/><path class="cls-1" d="M98.33,16.82A6.12,6.12,0,0,1,95,15.93a5.83,5.83,0,0,1-2.25-2.48A8,8,0,0,1,92,9.81a8,8,0,0,1,.79-3.66A5.91,5.91,0,0,1,95,3.66a6.63,6.63,0,0,1,6.6,0,5.91,5.91,0,0,1,2.25,2.49,8.07,8.07,0,0,1,.81,3.66,8,8,0,0,1-.81,3.64,5.83,5.83,0,0,1-2.25,2.48A6.16,6.16,0,0,1,98.33,16.82Zm-5.5-7a7.48,7.48,0,0,0,.68,3.24,5.23,5.23,0,0,0,4.82,3,5.36,5.36,0,0,0,2.91-.81,5.52,5.52,0,0,0,2-2.24,7.53,7.53,0,0,0,.7-3.26,7.41,7.41,0,0,0-.7-3.24,5.47,5.47,0,0,0-2-2.22,5.29,5.29,0,0,0-2.89-.79,5.17,5.17,0,0,0-2.87.79,5.29,5.29,0,0,0-1.95,2.24A7.51,7.51,0,0,0,92.83,9.81Z"/><path class="cls-1" d="M105.38,15.88l4.72-5.67a15.45,15.45,0,0,0,1.57-2.13,4.12,4.12,0,0,0,.51-2,2.43,2.43,0,0,0-.79-1.95,2.88,2.88,0,0,0-2-.66,3.24,3.24,0,0,0-2.17.73,3.74,3.74,0,0,0-1.18,2h-.81a4.22,4.22,0,0,1,1.48-2.46,4,4,0,0,1,2.66-.94,3.77,3.77,0,0,1,2.58.86,3.09,3.09,0,0,1,1,2.45,4.29,4.29,0,0,1-.31,1.6,6.78,6.78,0,0,1-.75,1.38c-.3.41-.7.92-1.22,1.55l-.37.44-4,4.78v0h6.83v.68h-7.82Z"/><path class="cls-1" d="M117.79,16.82a4,4,0,0,1-2.72-1,4.21,4.21,0,0,1-1.36-2.5h.77a3.73,3.73,0,0,0,1.2,2,3.39,3.39,0,0,0,5.08-1,3.91,3.91,0,0,0,.47-1.95,4,4,0,0,0-.44-2,3,3,0,0,0-1.21-1.27,3.34,3.34,0,0,0-1.73-.43,3.69,3.69,0,0,0-1.69.39,3,3,0,0,0-1.24,1.12h-.69l.68-7.3h6.16v.68h-5.48l-.54,5.61a3.22,3.22,0,0,1,1.22-.85A3.86,3.86,0,0,1,118,8.13a4,4,0,0,1,2.08.54,3.76,3.76,0,0,1,1.45,1.51A4.5,4.5,0,0,1,122,12.4a4.79,4.79,0,0,1-.56,2.36,3.72,3.72,0,0,1-1.5,1.52A4.43,4.43,0,0,1,117.79,16.82Z"/><path class="cls-1" d="M14.17,1.24a9,9,0,0,1,3.39,3.38,9.43,9.43,0,0,1,1.24,4.8,9.32,9.32,0,0,1-1.24,4.79,9,9,0,0,1-3.39,3.38,9.47,9.47,0,0,1-4.79,1.24A9.43,9.43,0,0,1,4.6,17.59,9.09,9.09,0,0,1,1.22,14.2,9.55,9.55,0,0,1,0,9.42a9.62,9.62,0,0,1,1.22-4.8A9,9,0,0,1,4.6,1.24,9.34,9.34,0,0,1,9.38,0,9.37,9.37,0,0,1,14.17,1.24Zm-.61,15.31a7.77,7.77,0,0,0,3-3A8.21,8.21,0,0,0,17.6,9.42a8.27,8.27,0,0,0-1.08-4.18,7.66,7.66,0,0,0-3-3A8.27,8.27,0,0,0,9.38,1.2,8.21,8.21,0,0,0,5.2,2.28a7.77,7.77,0,0,0-2.95,3A8.27,8.27,0,0,0,1.17,9.42,8.21,8.21,0,0,0,2.25,13.6a7.88,7.88,0,0,0,3,3,8.21,8.21,0,0,0,4.18,1.07A8.26,8.26,0,0,0,13.56,16.55ZM7.11,6.41a4.33,4.33,0,0,0-1,3,4.29,4.29,0,0,0,1,3,3.31,3.31,0,0,0,2.54,1.12,3.08,3.08,0,0,0,1.47-.37,2.46,2.46,0,0,0,1.05-1.11l1,.62a3.25,3.25,0,0,1-1.43,1.58,4.3,4.3,0,0,1-2.12.53A4.69,4.69,0,0,1,7.2,14.1a4.87,4.87,0,0,1-1.79-1.89,5.72,5.72,0,0,1-.66-2.79,5.85,5.85,0,0,1,.66-2.8A4.8,4.8,0,0,1,7.2,4.73a4.69,4.69,0,0,1,2.45-.68,4.3,4.3,0,0,1,2.12.53A3.23,3.23,0,0,1,13.2,6.15l-1,.63a2.49,2.49,0,0,0-1.05-1.12A3.08,3.08,0,0,0,9.65,5.3,3.3,3.3,0,0,0,7.11,6.41Z"/></g></g></svg>