<svg xmlns="http://www.w3.org/2000/svg" viewBox="0 0 38.21 27.2"><defs><style>.cls-1{fill:#387ce8;}</style></defs><g id="图层_2" data-name="图层 2"><g id="图层_1-2" data-name="图层 1"><path class="cls-1" d="M19.1,15.35,1.31.06A1.27,1.27,0,0,1,1.59,0h35a2,2,0,0,1,.28.06ZM38.21,2.18v23a1.42,1.42,0,0,1-.08.4l-12.63-13L38.11,1.69A1.64,1.64,0,0,1,38.21,2.18ZM.09,1.69,12.71,12.53.08,25.57a1.77,1.77,0,0,1-.08-.4v-23a1.58,1.58,0,0,1,.1-.49ZM24.27,14,37,27.12a1.29,1.29,0,0,1-.39.08h-35a1.17,1.17,0,0,1-.38-.08L13.94,14l4.65,4a.76.76,0,0,0,1,0l4.66-4Z"/></g></g></svg>