<svg xmlns="http://www.w3.org/2000/svg" viewBox="0 0 432.63 35.1"><defs><style>.cls-1{fill:#fff;}.cls-2{opacity:0.7;}.cls-3{opacity:0.4;}</style></defs><g id="图层_2" data-name="图层 2"><g id="图层_1-2" data-name="图层 1"><path class="cls-1" d="M317.9,3.42Q314.81,0,309.06,0c-.25,0-.48,0-.72,0V0h-5.92a6.23,6.23,0,0,0-6.22,6.22V21.51h-.56a4.33,4.33,0,0,1-3-.75c-.52-.5-.77-1.57-.77-3.21V2.73A2.73,2.73,0,0,0,289.17,0h-4.72a2.77,2.77,0,0,0-2.78,2.78v20q0,5.74,3.13,9t8.69,3.27h9.84a3.05,3.05,0,0,0,2.82-1.89,3.17,3.17,0,0,0,.29-1.3V13.21c0-2.09.7-3.14,2.1-3.14s2.27,1,2.27,3.14V32a3.08,3.08,0,0,0,3.08,3.09H318a3,3,0,0,0,3-3V13.21Q321,6.84,317.9,3.42Z"/><polygon class="cls-1" points="382.54 6.06 372.56 6.06 382.61 17.55 372.56 29.04 382.54 29.04 392.58 17.55 382.54 6.06"/><g class="cls-2"><polygon class="cls-1" points="402.56 6.06 392.58 6.06 402.63 17.55 392.58 29.04 402.56 29.04 412.61 17.55 402.56 6.06"/></g><g class="cls-3"><polygon class="cls-1" points="422.59 6.06 412.61 6.06 422.65 17.55 412.61 29.04 422.59 29.04 432.63 17.55 422.59 6.06"/></g><polygon class="cls-1" points="180 6.06 170.02 6.06 180.06 17.55 170.02 29.04 180 29.04 190.04 17.55 180 6.06"/><g class="cls-2"><polygon class="cls-1" points="200.02 6.06 190.04 6.06 200.09 17.55 190.04 29.04 200.02 29.04 210.06 17.55 200.02 6.06"/></g><g class="cls-3"><polygon class="cls-1" points="220.04 6.06 210.06 6.06 220.11 17.55 210.06 29.04 220.04 29.04 230.09 17.55 220.04 6.06"/></g><path class="cls-1" d="M0,32.16V13.33A10.7,10.7,0,0,1,3,5.44a10.63,10.63,0,0,1,7.91-3c3.25,0,5.75,1,7.48,2.89S21,10,21,13.63V32.16H12.35V16c0-1.77-.64-2.65-1.91-2.65S8.66,14.26,8.66,16V32.16Z"/><path class="cls-1" d="M36.73,2.46A15.24,15.24,0,0,1,49.91,10a15,15,0,0,1,0,15.1,15.31,15.31,0,0,1-20.79,5.52,15,15,0,0,1-5.57-5.52,14.93,14.93,0,0,1,0-15.1A15.24,15.24,0,0,1,36.73,2.46Zm0,22.94q3.21,0,5.46-3.34a13.89,13.89,0,0,0,2.26-8c0-3.11-.76,2.82-2.28.57s-3.34-3.37-5.44-3.37-3.92,1.12-5.44,3.37S29,11,29,14.06a14,14,0,0,0,2.25,8Q33.53,25.41,36.73,25.4Z"/><path class="cls-1" d="M61,11V32.16H52.41v-29h11c3.4,0,6.07.89,8,2.68a9,9,0,0,1,2.93,7c0,3-.65,7.39-8.19,7.39l12.39,12H62.28V15.37H63c1.82,0,2.74-.78,2.74-2.34,0-1.37-1.06-2-3.18-2Z"/><path class="cls-1" d="M75.24,3.15H83.9V14.92a3.92,3.92,0,0,0,.65,2.72,3.68,3.68,0,0,0,2.52.63h.48V32.16H85.24a9.72,9.72,0,0,1-7.35-2.76,10.58,10.58,0,0,1-2.65-7.63Z"/><path class="cls-1" d="M96.9,8.51V32.16H88.29V8.51Z"/><path class="cls-1" d="M97.47,32.16V13.33a10.7,10.7,0,0,1,3-7.89,10.64,10.64,0,0,1,7.92-3c3.24,0,5.74,1,7.48,2.89s2.61,4.69,2.61,8.28V32.16h-8.61V13.63c0-1.76-.64-2.65-1.92-2.65s-1.78.89-1.78,2.65V32.16Z"/><rect class="cls-1" x="88.29" y="3.15" width="8.61" height="4.98"/></g></g></svg>