<svg xmlns="http://www.w3.org/2000/svg" viewBox="0 0 213.74 54.48"><defs><style>.cls-1{fill:#387ce8;}</style></defs><g id="图层_2" data-name="图层 2"><g id="图层_1-2" data-name="图层 1"><path class="cls-1" d="M0,53.61v-34Q0,10.76,5.34,5.38T19.62,0q8.79,0,13.51,5.22t4.7,15V53.61H22.29V24.5c0-3.2-1.15-4.79-3.45-4.79-2.15,0-3.22,1.59-3.22,4.79V53.61Z"/><path class="cls-1" d="M66.28,0A27.5,27.5,0,0,1,90.07,13.62a27,27,0,0,1,0,27.24,27.61,27.61,0,0,1-37.52,10,27.08,27.08,0,0,1-10-10,27,27,0,0,1,0-27.24A27.5,27.5,0,0,1,66.28,0Zm0,41.41q5.79,0,9.87-6a25.2,25.2,0,0,0,4.07-14.45c0-5.61-1.37,5.09-4.12,1s-6-6.08-9.82-6.08-7.07,2-9.82,6.08-4.11-6.64-4.11-1a25.13,25.13,0,0,0,4.07,14.45Q60.49,41.41,66.28,41.41Z"/><path class="cls-1" d="M110.12,15.39V53.61H94.58V1.26h19.93q9.19,0,14.49,4.82a16.26,16.26,0,0,1,5.3,12.6C134.3,24,133.12,32,119.5,32l22.36,21.58H112.39V23.31h1.26q4.95,0,4.95-4.24,0-3.67-5.73-3.68Z"/><path class="cls-1" d="M135.79,1.26h15.62V22.5q0,3.77,1.18,4.9c.78.76,2.3,1.14,4.55,1.14H158V53.61h-4.16q-8.47,0-13.26-5t-4.79-13.78Z"/><path class="cls-1" d="M174.88,10.93V53.61H159.34V10.93Z"/><path class="cls-1" d="M175.91,53.61v-34q0-8.86,5.34-14.24T195.53,0q8.79,0,13.5,5.22t4.71,15V53.61H198.2V20.17q0-4.79-3.45-4.78-3.23,0-3.22,4.78V53.61Z"/><rect class="cls-1" x="159.34" y="1.26" width="15.54" height="8.99"/></g></g></svg>