<svg xmlns="http://www.w3.org/2000/svg" viewBox="0 0 28.89 28.41"><defs><style>.cls-1{fill:#387ce8;}</style></defs><g id="图层_2" data-name="图层 2"><g id="图层_1-2" data-name="图层 1"><path class="cls-1" d="M22.21,28.41a16,16,0,0,1-4.64-.78,25.58,25.58,0,0,1-11-7.28C1.86,15.16-.38,10,.05,5.4A4.87,4.87,0,0,1,2.26,1.65,6.68,6.68,0,0,1,6.25,0C7.48,0,7.9.46,9.17,2.3c2,2.7,2.09,4,2,4.79a3.15,3.15,0,0,1-1.45,2.3,5.12,5.12,0,0,0-.43.36c-.76,1-1.69,2.32,2.3,6.44,3.4,3.27,5.24,3.67,6,3.61a1.16,1.16,0,0,0,.93-.48l0,0c1.27-1.78,1.69-2.22,2.91-2.41s1.78.19,4.29,1.77C28,20.08,29.09,21,28.86,22.53a7.36,7.36,0,0,1-2.74,4.87,7,7,0,0,1-3.91,1Z"/></g></g></svg>