<svg xmlns="http://www.w3.org/2000/svg" viewBox="0 0 1155.76 207.79"><defs><style>.cls-1{opacity:0.3;}.cls-2{fill:#fff;}.cls-3{fill:#dee7ff;}.cls-4{fill:#1776ff;}.cls-5{fill:#4c4c4c;}</style></defs><g id="图层_2" data-name="图层 2"><g id="图层_1-2" data-name="图层 1"><g class="cls-1"><path class="cls-2" d="M371.9.48H8.26A7.78,7.78,0,0,0,.48,8.26v106.1a7.78,7.78,0,0,0,7.78,7.79H170.07l20,34.66,20-34.66H371.9a7.78,7.78,0,0,0,7.78-7.79V8.26A7.78,7.78,0,0,0,371.9.48Z"/><path class="cls-3" d="M190.08,157.76l-20.29-35.14H8.26A8.27,8.27,0,0,1,0,114.36V8.26A8.28,8.28,0,0,1,8.26,0H371.9a8.28,8.28,0,0,1,8.26,8.26v106.1a8.27,8.27,0,0,1-8.26,8.26H210.37ZM8.26,1A7.32,7.32,0,0,0,1,8.26v106.1a7.32,7.32,0,0,0,7.31,7.31H170.34l19.74,34.18,19.74-34.18H371.9a7.32,7.32,0,0,0,7.31-7.31V8.26A7.32,7.32,0,0,0,371.9,1Z"/><rect class="cls-4" x="624.74" y="68.52" width="38.89" height="20.23" rx="5.18"/><path class="cls-5" d="M531.22,79.12v6.19h-1.61V79.12h-7.72V77.6h7.72V70.39h-6.44V68.9h14.51v1.49h-6.46V77.6h7.72v1.52ZM524,72.2l1.34-.64q1.42,2.19,2.53,4.19l-1.32.8C525.69,74.88,524.84,73.44,524,72.2Zm11.52-.64,1.34.64a46.45,46.45,0,0,1-2.7,4.38l-1.28-.71A35.54,35.54,0,0,0,535.54,71.56Z"/><path class="cls-5" d="M554.51,84.06H543.1v1.19h-1.53V72.6h5.19c.39-.95.69-1.72.89-2.32H540.4V68.92h16.85v1.36h-7.92c-.3.81-.61,1.59-.92,2.32H556V85.25h-1.53Zm-8.88-1.34v-8.8H543.1v8.8ZM550.54,76V73.92h-3.46V76Zm0,3.32V77.23h-3.46v2.13Zm0,3.36V80.53h-3.46v2.19Zm4,0v-8.8H552v8.8Z"/><path class="cls-5" d="M558.63,73.86h3.66v7.48c.67-.56,1.33-1.16,2-1.79l.66,1.42a41.94,41.94,0,0,1-3.81,3.23L560.23,83a2.42,2.42,0,0,0,.42-.72,3.14,3.14,0,0,0,.13-.89V75.28h-2.15Zm1.07-4.79,1.23-.87c.91.92,1.83,1.94,2.78,3.08l-1.19,1A39.94,39.94,0,0,0,559.7,69.07Zm11.09,12.61a18.33,18.33,0,0,0,5,2l-.77,1.48a21.75,21.75,0,0,1-5.52-2.52,20.87,20.87,0,0,1-5.64,2.69L563.07,84a21.91,21.91,0,0,0,5.23-2.33,14.36,14.36,0,0,1-2.93-3.74l1.23-.79a14.67,14.67,0,0,0,2.94,3.63,12,12,0,0,0,2.91-3.72h-8V75.7h9.7v1.39A15.69,15.69,0,0,1,570.79,81.68Zm-4.67-13h7l0,3.19a1.28,1.28,0,0,0,.22.87,1.2,1.2,0,0,0,.84.24c.52,0,1.12,0,1.77-.07l-.3,1.41q-.8.06-1.89.06A2.43,2.43,0,0,1,572,74a1.91,1.91,0,0,1-.49-1.49l0-2.38h-4c0,.34,0,.68,0,1a5,5,0,0,1-.68,2.24,6.74,6.74,0,0,1-2.1,1.78l-1-1.1a5.51,5.51,0,0,0,1.85-1.45,3.52,3.52,0,0,0,.52-1.89C566.15,70.06,566.15,69.41,566.12,68.73Z"/><path class="cls-5" d="M577.08,74h4v8a30.71,30.71,0,0,0,2.59-2.17l.66,1.46q-2.12,1.83-4.45,3.59l-1-1.34a2.61,2.61,0,0,0,.54-.59,1.69,1.69,0,0,0,.16-.81V75.43h-2.46Zm1.4-4.82,1.21-.94c1.12,1,2.14,2,3.06,2.92l-1.16,1.1Q580.41,71,578.48,69.14Zm10.86,6.44v9.67h-1.61V75.58h-4.81V74.05h4.81V67.89h1.61v6.16h4.95v1.53Z"/><path class="cls-5" d="M599.67,68h1.46v7.5a18.59,18.59,0,0,1-.72,5.93,8.54,8.54,0,0,1-1,2,12.16,12.16,0,0,1-1.66,2l-1.31-.89a9.08,9.08,0,0,0,2.84-4.31c.11-.49.2-1,.28-1.64a25.52,25.52,0,0,0,.15-3.08Zm-3.21,1.7h1.28V80.21h-1.28ZM608,74.41V85.27H606.6V74.41h-2.36v8.26h-1.4v-9.6h3.76v-2.7h-4.47V69h10.48v1.38H608v2.7h3.87v7.5a2,2,0,0,1-.45,1.45,2.12,2.12,0,0,1-1.36.49c-.33,0-.78,0-1.36,0l-.27-1.36a11.53,11.53,0,0,0,1.16.07,1.11,1.11,0,0,0,.66-.15,1,1,0,0,0,.21-.7V74.41Z"/><path class="cls-2" d="M643.67,80.43v.94h-5.26a23.82,23.82,0,0,1,4.88,3.08l-.72.81a24.17,24.17,0,0,0-5.18-3.37,6.9,6.9,0,0,1-4,3,14.27,14.27,0,0,1-1.41.38,3,3,0,0,0-.61-.94c2.29-.48,3.86-1.29,4.73-2.43a3.84,3.84,0,0,0,.32-.5H631.2v-.94h5.63a16.41,16.41,0,0,0,.59-4.49c0-.16,0-.34,0-.54h1.13a22.57,22.57,0,0,1-.57,5Zm-11.13-5.77v1.92h-1.07V73.65h5.32V72h1.15v1.67h5.4v2.93h-1.11V74.66Zm-.34,3.67.62-.73a10.19,10.19,0,0,1,2.28,1.61l-.66.81A9.54,9.54,0,0,0,632.2,78.33ZM636.44,77l-.69.77a8.48,8.48,0,0,0-2-1.61l-.1-.06.66-.68A9,9,0,0,1,636.44,77Z"/><path class="cls-2" d="M654.54,79.32l.2,1c-1.88.66-4.71,1.65-8.49,2.94l-.39-1.09C648,81.55,650.89,80.6,654.54,79.32Zm2.66-6.27v.61c-.06,5.19-.19,8.37-.37,9.54a3.17,3.17,0,0,1-.38,1.25,1.52,1.52,0,0,1-1.1.68h-.11a16.21,16.21,0,0,1-2.33,0,1.91,1.91,0,0,0-.35-1c.7,0,1.46.07,2.29.07a.74.74,0,0,0,.59-.23c.27-.3.46-1.68.55-4.15,0-1.26.09-3.16.12-5.69h-10v-1Zm-9.47,3,.72-.72a34,34,0,0,1,3.86,2.92l-.77.84A34.66,34.66,0,0,0,647.73,76Z"/><path d="M527.28,124.44v3.24h-.89v-3c-1.72.4-3.21.72-4.48,1l-.25-.93,1.28-.22v-10h-1.07v-.85h6.39v.85h-1v9c.39-.08.76-.18,1.13-.28l.12.85Zm-.89-7.32v-2.6H523.8v2.6Zm0,3.37V117.9H523.8v2.59Zm0,3.26v-2.46H523.8v3C524.61,124.14,525.47,124,526.39,123.75Zm4.21-1.09.88.41a28.67,28.67,0,0,1-2.73,4.64l-.81-.54A24,24,0,0,0,530.6,122.66Zm4.89-1.37H529.2V113.8h6.29Zm-1-.92V114.7h-4.4v5.67Zm-1.42,2.7.83-.43q1.51,2.35,2.65,4.43l-.83.54C535.12,126.36,534.24,124.84,533.12,123.07Z"/><path d="M545.79,118.47h6.78v.79H538v-.79h6.76v-1.42h-5.1v-.76h5.1v-1.41h-5.9v-.77h5.9v-1.47h1v1.47h5.88v.77h-5.88v1.41h5.1v.76h-5.1Zm-.26,5.79q2.6.94,6.51,2.57l-.4.88c-2-.87-4.21-1.77-6.55-2.68q-1.27,1.86-6.49,2.7l-.43-.89a15.33,15.33,0,0,0,4.87-1.32,3,3,0,0,0,1.72-2.16,7.41,7.41,0,0,0,.08-1.22h1c0,.51-.07,1-.1,1.32S545.59,124.05,545.53,124.26Zm-5.39-3.58h10.33v4.25h-1v-3.46H541.1V125h-1Z"/><path d="M556.13,118.05a.75.75,0,0,1,.59.24.88.88,0,0,1,.21.58.82.82,0,0,1-.21.55.82.82,0,0,1-1.14,0,.79.79,0,0,1-.21-.55.88.88,0,0,1,.19-.58A.69.69,0,0,1,556.13,118.05Zm0,6.62a.78.78,0,0,1,.59.23.84.84,0,0,1,.21.57.85.85,0,0,1-.21.56.78.78,0,0,1-.57.24.75.75,0,0,1-.57-.24.81.81,0,0,1-.21-.56.84.84,0,0,1,.19-.57A.69.69,0,0,1,556.13,124.67Z"/><path d="M566,117.74v10h-.62v-10h-2v-.62h2v-4.48H566v4.48h1.81v.62Zm3,.88.54.21a21.94,21.94,0,0,1-1.82,4.24l-.52-.31A22,22,0,0,0,569,118.62Zm3.09-2.63H576c0,1-.1,3.9-.23,8.83a2.78,2.78,0,0,1-.57,1.81,2.08,2.08,0,0,1-1.62.57c-.34,0-.94,0-1.79-.06l-.08-.66a15.74,15.74,0,0,0,1.73.09,1.73,1.73,0,0,0,1.27-.41,2.43,2.43,0,0,0,.43-1.44c.1-3.09.16-5.78.19-8.09h-3.3c0,.2,0,.56,0,1.06a19,19,0,0,1-1,5.74,11,11,0,0,1-3,4.26l-.49-.44a10.6,10.6,0,0,0,2.86-4,18.7,18.7,0,0,0,1-5.76c0-.17,0-.48,0-.91h-3V116h3q0-2.2.06-3.3h.64C572.13,113.79,572.1,114.89,572.07,116Zm4.1,3,.54-.23c.59,1.24,1.16,2.49,1.7,3.76l-.52.29C577.17,121.09,576.6,119.82,576.17,119Z"/><path d="M585.43,124.54c.49-.08.86-.14,1.12-.2l.08.58q-3.55.67-7.37,1.17l-.13-.62c.47,0,1-.12,1.49-.2V113.7h4.81Zm-.63-7.08v-3.17h-3.58v3.17Zm0,3.61v-3h-3.58v3Zm0,3.57v-3h-3.58v3.53C582.67,125,583.87,124.8,584.8,124.64Zm4.5-8.47h3.78q-.21,6.67-.28,8.92a2.3,2.3,0,0,1-.48,1.57,2,2,0,0,1-1.48.51c-.42,0-1,0-1.67-.07l-.13-.67a14,14,0,0,0,1.65.1,1.56,1.56,0,0,0,1.13-.34,2,2,0,0,0,.36-1.19c.09-2.46.18-5.18.24-8.19h-3.14a24.79,24.79,0,0,1-.85,6.44,11.63,11.63,0,0,1-2.68,4.44l-.5-.44a10.93,10.93,0,0,0,2.59-4.23,24.19,24.19,0,0,0,.82-6.21h-2.09v-.64h2.11c0-.79,0-2,.05-3.51h.63Q589.33,113.82,589.3,116.17Z"/><path d="M595,118.07h2.81v7.58a25.5,25.5,0,0,0,2.08-2.08l.32.58a32.93,32.93,0,0,1-2.92,2.76l-.39-.49a1.79,1.79,0,0,0,.21-.39,2.58,2.58,0,0,0,.06-.49v-6.85H595Zm1.08-4.55.52-.39c.74.77,1.53,1.64,2.37,2.6l-.5.44C597.67,115.19,596.87,114.31,596.12,113.52Zm8.94,11.22a18.17,18.17,0,0,0,4.79,2.27l-.33.62a18,18,0,0,1-5-2.47,19.68,19.68,0,0,1-5.18,2.6l-.34-.59a20.8,20.8,0,0,0,5-2.43,12,12,0,0,1-2.88-3.9l.56-.29a11.09,11.09,0,0,0,2.86,3.78,10.42,10.42,0,0,0,2.91-4H600v-.59h8.13v.61a11.17,11.17,0,0,1-3.09,4.33Zm-3.22-11.17h5.44l0,3a1.11,1.11,0,0,0,.25.85,1.33,1.33,0,0,0,.83.28c.5,0,1,0,1.52,0l-.13.64a15.2,15.2,0,0,1-1.55,0,1.94,1.94,0,0,1-1.25-.41,1.57,1.57,0,0,1-.32-1.16v-2.58h-4.13v1.43a3.83,3.83,0,0,1-.54,1.92,5.16,5.16,0,0,1-1.75,1.44l-.44-.48a4.92,4.92,0,0,0,1.62-1.29,3,3,0,0,0,.47-1.72Z"/><path d="M611.4,118.05h3.17v7.62c.78-.59,1.64-1.31,2.6-2.16l.31.59Q615.8,125.6,614,127l-.44-.56a1,1,0,0,0,.29-.39,1.57,1.57,0,0,0,.07-.54v-6.85H611.4Zm1.29-4.53.49-.44c1.05,1,1.94,1.85,2.67,2.62l-.48.45C614.43,115.21,613.53,114.33,612.69,113.52Zm9,5.61v8.53H621v-8.53h-4.48v-.64H621v-5.85h.67v5.85h4.56v.64Z"/><path d="M631.08,112.71h.63v6.16a18.88,18.88,0,0,1-.47,4.95,7.37,7.37,0,0,1-.91,2,14.63,14.63,0,0,1-1.62,1.89l-.54-.4a8.43,8.43,0,0,0,2.45-3.6,10,10,0,0,0,.34-1.93,28.61,28.61,0,0,0,.12-2.89Zm-2.81,1.55h.58v8.94h-.58Zm9.41,3.63v9.77h-.62v-9.77h-2.8v7.43h-.6v-8h3.4v-2.86h-4.2v-.59H642v.59h-4.32v2.86h3.48v6.39a1.57,1.57,0,0,1-.34,1.14,1.82,1.82,0,0,1-1.15.38c-.29,0-.69,0-1.19,0l-.11-.61c.44,0,.82.05,1.13.05a1.65,1.65,0,0,0,.83-.21,1.22,1.22,0,0,0,.21-.79v-5.73Z"/><path d="M652.5,121.66v3.52a1.38,1.38,0,0,0,.31,1,1.67,1.67,0,0,0,1.06.36,10.54,10.54,0,0,0,1.38,0,2.86,2.86,0,0,0,1.21-.33,1.33,1.33,0,0,0,.5-.91c0-.3.1-.76.17-1.37l.6.18c-.06.61-.13,1.1-.2,1.47a1.61,1.61,0,0,1-.67,1.14,3.45,3.45,0,0,1-1.53.41,14.06,14.06,0,0,1-1.59,0,2.26,2.26,0,0,1-1.45-.49,1.92,1.92,0,0,1-.44-1.42v-3.6h-3.09c0,.36,0,.71,0,1a5.15,5.15,0,0,1-1.39,3.16,8.24,8.24,0,0,1-3.61,1.86l-.31-.59a8.48,8.48,0,0,0,3.35-1.67,4.32,4.32,0,0,0,1.29-2.76c0-.2,0-.55.06-1h-4.49v-.6h13.74v.6Zm-1.49-7h6v2.9h-.65v-2.29H644.62v2.35H644v-3h6.3c-.27-.7-.54-1.33-.8-1.88l.67-.14C650.5,113.34,650.78,114,651,114.63Zm-5.33,3.19h9.58v.61h-9.58Z"/><path d="M669.48,123.74a1.38,1.38,0,0,1,.06.16,8.91,8.91,0,0,0,.94,1.88c.48.68.93,1,1.35,1a.85.85,0,0,0,.44-.18,1.49,1.49,0,0,0,.4-.68,16.3,16.3,0,0,0,.52-2.19l.59.21a18,18,0,0,1-.56,2.22c-.29.88-.75,1.32-1.37,1.32a2,2,0,0,1-1.57-.86,6.73,6.73,0,0,1-1.13-1.93c0-.11-.09-.22-.14-.34a20.14,20.14,0,0,1-3.36,3l-.4-.49a19.42,19.42,0,0,0,3.51-3.22,17.36,17.36,0,0,1-.65-2.67,40,40,0,0,1-.54-4.51h-6.21v2.88h4.23q0,2-.12,4.08A2.34,2.34,0,0,1,665,125a2.19,2.19,0,0,1-1.47.48,12.84,12.84,0,0,1-1.32-.07l-.07-.64a7,7,0,0,0,1.3.09,1.8,1.8,0,0,0,1.09-.32,1.66,1.66,0,0,0,.33-1.17c0-1.15.08-2.29.11-3.43h-3.59v.31a16.45,16.45,0,0,1-.4,4,13,13,0,0,1-1.48,3.37l-.58-.38a10.92,10.92,0,0,0,1.43-3.15,16.94,16.94,0,0,0,.37-3.88v-4.34h6.83c0-.71-.08-1.79-.13-3.24h.66c0,1.06.08,2.11.13,3.15v.09h5.28v.6h-5.25a34,34,0,0,0,.46,4.12,22,22,0,0,0,.57,2.44,22.56,22.56,0,0,0,2.6-4.83l.57.25a22.84,22.84,0,0,1-2.78,5.08A2.3,2.3,0,0,1,669.48,123.74Zm.06-10.28.4-.48c.52.41,1.27,1,2.24,1.88l-.38.48A25.31,25.31,0,0,0,669.54,113.46Z"/><path d="M682.34,122v5.76h-.67V122h-7v-.64h7v-7h-5.94v-.63h12.43v.63h-5.82v7h7V122Zm-5.61-5.83.57-.3q1.17,1.93,2.23,3.88l-.56.34C678.16,118.57,677.42,117.26,676.73,116.14Zm10-.28.58.29q-1,1.92-2.28,3.93l-.55-.31C685.28,118.52,686,117.22,686.73,115.86Z"/><path d="M703.08,126.52H692.29v1.16h-.65V116.94h4.46c.28-.6.64-1.46,1.08-2.57h-6.8v-.59H705v.59h-7.08c-.37,1-.72,1.83-1.06,2.57h6.9v10.74h-.64Zm-8-.59v-8.4h-2.83v8.4Zm4.48-6v-2.42h-3.86V120Zm0,3v-2.43h-3.86v2.43Zm0,3v-2.49h-3.86v2.49Zm3.48,0v-8.4h-2.86v8.4Z"/><path d="M706,118.07h2.81v7.58a23.93,23.93,0,0,0,2.07-2.08l.33.58a34.38,34.38,0,0,1-2.92,2.76l-.4-.49a1.47,1.47,0,0,0,.22-.39,2.58,2.58,0,0,0,.06-.49v-6.85H706Zm1.08-4.55.52-.39c.74.77,1.53,1.64,2.37,2.6l-.51.44C708.58,115.19,707.79,114.31,707,113.52ZM716,124.74a18,18,0,0,0,4.79,2.27l-.33.62a18,18,0,0,1-5-2.47,19.68,19.68,0,0,1-5.18,2.6l-.35-.59a20.89,20.89,0,0,0,5-2.43,11.73,11.73,0,0,1-2.88-3.9l.55-.29a11.22,11.22,0,0,0,2.86,3.78,10.21,10.21,0,0,0,2.91-4H711v-.59h8.12v.61a11.07,11.07,0,0,1-3.09,4.33Zm-3.22-11.17h5.44l0,3a1.15,1.15,0,0,0,.24.85,1.34,1.34,0,0,0,.84.28c.5,0,1,0,1.52,0l-.14.64a15.15,15.15,0,0,1-1.55,0,1.91,1.91,0,0,1-1.24-.41,1.57,1.57,0,0,1-.33-1.16l0-2.58h-4.14v1.43a3.93,3.93,0,0,1-.53,1.92,5.26,5.26,0,0,1-1.75,1.44l-.44-.48a4.76,4.76,0,0,0,1.61-1.29,3,3,0,0,0,.48-1.72Z"/><path d="M722.32,118.05h3.17v7.62c.77-.59,1.64-1.31,2.6-2.16l.31.59q-1.68,1.5-3.48,2.91l-.44-.56a1,1,0,0,0,.29-.39,1.86,1.86,0,0,0,.07-.54v-6.85h-2.52Zm1.29-4.53.49-.44c1,1,1.94,1.85,2.67,2.62l-.48.45C725.34,115.21,724.45,114.33,723.61,113.52Zm9,5.61v8.53H732v-8.53h-4.48v-.64H732v-5.85h.67v5.85h4.56v.64Z"/><path d="M741.58,116.22v11.47h-.66V117.51a22.89,22.89,0,0,1-2.28,3.47l-.36-.58a25.39,25.39,0,0,0,4-7.71l.64.21A33.76,33.76,0,0,1,741.58,116.22Zm6.88,9.86h4.25v.65h-9.12v-.65h4.21v-5.63h-4.75v-.63h4.75v-4.94c-1.27.12-2.58.21-3.92.26l-.11-.65a65.33,65.33,0,0,0,8.38-.77l.18.62c-1.14.19-2.43.35-3.87.49v5h4.67v.63h-4.67Z"/><path d="M763.05,118.16a23.25,23.25,0,0,0,6.52,1.69l-.2.64a24.91,24.91,0,0,1-6.73-1.83l-.28-.14-.05,0a29.13,29.13,0,0,1-7.39,2.27l-.23-.6a28.87,28.87,0,0,0,7-2.06,13.61,13.61,0,0,1-3.3-2.63,21,21,0,0,1-2.47,2.12l-.44-.47a16.17,16.17,0,0,0,4.43-4.58l.63.21a10.23,10.23,0,0,1-1,1.47h7.85v.56A16.24,16.24,0,0,1,763.05,118.16Zm-1.74,3.67h6.07c-.08,1.12-.16,2.24-.23,3.36a2.29,2.29,0,0,1-.69,1.64,3.75,3.75,0,0,1-2,.5c-.5,0-1.22,0-2.16-.08l-.05-.64q1.37.11,2.16.09a2.67,2.67,0,0,0,1.52-.35,1.75,1.75,0,0,0,.54-1.22c.07-.67.13-1.57.2-2.72H761.2v0a6.27,6.27,0,0,1-1.9,3.35,10.49,10.49,0,0,1-3.85,1.94l-.31-.6a10.27,10.27,0,0,0,3.59-1.73,5.63,5.63,0,0,0,1.82-3h-4.66v-.58h4.77a13.06,13.06,0,0,0,.16-1.77l.66,0A14.06,14.06,0,0,1,761.31,121.83Zm1-4a16.44,16.44,0,0,0,4.12-3H759a2.61,2.61,0,0,1-.23.24A13.14,13.14,0,0,0,762.34,117.82Z"/><path d="M771.19,127.79a1.84,1.84,0,0,0,.85-1.54l-.08,0a.55.55,0,0,1-.4-.18.53.53,0,0,1-.16-.39.56.56,0,0,1,.15-.41.5.5,0,0,1,.41-.16.49.49,0,0,1,.42.18,1,1,0,0,1,.18.6,2.85,2.85,0,0,1-.25,1.23,2.37,2.37,0,0,1-.85.93Z"/><path d="M788.74,115.78H793v.64h-3.24v4.44h4v.62h-4v6.15h-.65v-6.15h-5a7.83,7.83,0,0,1-1,3.53,10.36,10.36,0,0,1-2.9,2.78l-.49-.49a9.93,9.93,0,0,0,2.76-2.56,6.93,6.93,0,0,0,1-3.26h-4.26v-.62h4.29c0-.25,0-.5,0-.75v-3.69H780v-.64h4.29c-.6-1-1.2-2-1.8-2.8l.59-.24c.72,1,1.37,2,2,3h3a27.28,27.28,0,0,0,1.85-3.11l.62.25A25.28,25.28,0,0,1,788.74,115.78Zm.36,5.08v-4.44h-5v3.64c0,.27,0,.54,0,.8Z"/><path d="M798.39,119.16v8.52h-.62v-9.5a20.15,20.15,0,0,1-2.36,5.21l-.39-.58a18.66,18.66,0,0,0,2.66-6.18h-2.35V116h2.44v-3.4h.62V116h2.07v.59h-2.07v2.25l.29-.22a23.28,23.28,0,0,1,1.93,2.25l-.42.46C799.55,120.52,799,119.78,798.39,119.16Zm7.84,4.84.07.08a10.79,10.79,0,0,0,3.64,2.58l-.34.59a11.65,11.65,0,0,1-3.78-2.79,10.84,10.84,0,0,1-1.94-3.91H802v6.18c1-.56,2-1.13,2.89-1.72l.2.57a34.62,34.62,0,0,1-3.67,2.13l-.29-.51a1,1,0,0,0,.18-.26,1.25,1.25,0,0,0,.05-.36V113.64h7.17v6.91h-4a10.35,10.35,0,0,0,1.39,3,33.06,33.06,0,0,0,3.07-2.14l.38.44A20.23,20.23,0,0,1,806.23,124Zm1.65-7.14v-2.62H802v2.62Zm0,3.1v-2.51H802V120Z"/><path d="M814.26,121.09v4.82A1.75,1.75,0,0,1,814,127a1.42,1.42,0,0,1-1.12.39c-.3,0-.68,0-1.14-.05l-.08-.63,1.08.06a1.05,1.05,0,0,0,.75-.2,1.12,1.12,0,0,0,.2-.76v-4.52l-2.14.79-.2-.62c.69-.23,1.46-.51,2.34-.83v-3.93h-2.1v-.62h2.1v-3.43h.62v3.43H816v.62h-1.73v3.7l1.65-.74.13.59C815.55,120.53,815,120.8,814.26,121.09Zm3.23-1.52h3.93V117.3h.6v2.27h4.09v.57H822v2.39h3.09v5.16h-.61v-1h-5.44v1h-.62v-5.16h3v-2.39h-3.94a20.34,20.34,0,0,1-.4,3.76,13.56,13.56,0,0,1-1.56,3.71l-.53-.37a12.75,12.75,0,0,0,1.49-3.52,22,22,0,0,0,.41-4.66v-5.44h8.32v3.6h-7.72v2.35Zm7.11-2.91v-2.48h-7.11v2.48Zm-.1,9.42v-3h-5.44v3Z"/><path d="M834.73,121.19a14.56,14.56,0,0,1-.81,1.63h6.69v3.11a1.69,1.69,0,0,1-.39,1.17,1.65,1.65,0,0,1-1.2.45c-.3,0-.68,0-1.14,0l-.11-.59a10,10,0,0,0,1.11,0,1.18,1.18,0,0,0,.81-.26,1.21,1.21,0,0,0,.28-.85v-2.49h-3.1v3.81h-.61v-3.81h-3v3.83h-.61v-3.83h-3v4.24h-.64v-4.78h4.3a16,16,0,0,0,.82-1.63h-6.38v-.54h14.17v.54Zm.35-5.17v3.78h-.63V116h-5.71v2.24h-.62V115.5h6.33v-1.41h-5.54v-.5h11.68v.5h-5.51v1.41h6.31v2.65h-.62V116Zm-5.16,1.23h3.35v.44h-3.35Zm0,1.57h3.35v.44h-3.35Zm6.34,0h3.35v.44h-3.35Zm0-1.57h3.33v.44h-3.33Z"/><path d="M843.29,125.05c2.29-1.28,4.38-2.55,6.26-3.83l.25.59q-2.67,1.81-6.15,3.84Zm7.69-6v6.57a1.93,1.93,0,0,1-.45,1.41,2,2,0,0,1-1.47.44c-.29,0-.81,0-1.55,0l-.08-.67c.32,0,.81,0,1.49.07a1.69,1.69,0,0,0,1.09-.29,1.47,1.47,0,0,0,.31-1v-9h-6.78V116h6.78v-3.32H851V116h6.6v.62H851v1a14.89,14.89,0,0,0,1.74,3.53,43.74,43.74,0,0,0,3.52-3.07l.47.47c-1.16,1.09-2.37,2.12-3.61,3.09a14.87,14.87,0,0,0,4.72,3.84l-.37.61a15.86,15.86,0,0,1-4.35-3.45A14.19,14.19,0,0,1,851,119.08Zm-6.31-.59.42-.49q1.44,1.09,2.91,2.31l-.42.5C846.45,119.88,845.48,119.1,844.67,118.49Zm8.25-4.95.46-.38a25.79,25.79,0,0,1,2.29,2l-.48.39C854.64,115,853.88,114.32,852.92,113.54Z"/><path d="M867.37,115.39h6.54V116h-9.35c0,1.21-.08,2.12-.11,2.73,0,.24,0,.41,0,.52h7.33c-.14,2.93-.23,4.74-.27,5.44a2.72,2.72,0,0,1-.8,1.91,3.18,3.18,0,0,1-2,.56c-1,0-1.71,0-2.26-.08l-.08-.67c.81.07,1.54.11,2.21.11a2.56,2.56,0,0,0,1.61-.41,2.18,2.18,0,0,0,.63-1.55c.07-1.23.15-2.79.24-4.69h-6.7a11.88,11.88,0,0,1-1.27,4.46,12.16,12.16,0,0,1-3.19,3.45l-.49-.52a11.17,11.17,0,0,0,3.22-3.53,12.77,12.77,0,0,0,1.13-4.77c.06-.88.11-1.86.14-3h-4.46v-.62h7.24c-.43-1.15-.77-2-1-2.55l.65-.17C866.73,113.68,867.08,114.58,867.37,115.39Z"/><path d="M878.41,120.81v5A1.69,1.69,0,0,1,878,127a1.59,1.59,0,0,1-1.1.43l-1.12,0-.09-.65c.36,0,.72,0,1.08,0a.94.94,0,0,0,.72-.25,1,1,0,0,0,.26-.78v-4.66c-.95.42-1.69.75-2.2,1l-.23-.6,2.43-1v-3.64h-2.12v-.61h2.12v-3.44h.63v3.44h1.83v.61h-1.83v3.38l1.71-.8.16.57C879.66,120.22,879,120.52,878.41,120.81Zm3.64,2.4a4.93,4.93,0,0,0,1,2,3.5,3.5,0,0,0,1.86,1.09v-5.25h-4.62v-.55H890v.55h-4.55v2.24h3.81v.56h-3.81v2.53l.44,0c.83,0,2.26,0,4.3,0l-.1.57c-1.46,0-2.94,0-4.44-.05a4.41,4.41,0,0,1-2.7-1,4.23,4.23,0,0,1-1.16-1.85,9.73,9.73,0,0,1-.37,1,9.16,9.16,0,0,1-1.88,2.54l-.46-.39a9.17,9.17,0,0,0,1.78-2.39,8.58,8.58,0,0,0,.73-3l.61.08C882.16,122.53,882.1,122.94,882.05,123.21Zm6.59-4.36h-7.13v-5.36h7.13Zm-.62-2.94v-1.86h-5.87v1.86Zm0,2.38v-1.86h-5.87v1.86Z"/><path d="M894.73,116.51v11.18h-.66v-10a19.86,19.86,0,0,1-2.09,3.2l-.34-.62a22.33,22.33,0,0,0,2.22-3.5,28,28,0,0,0,1.68-4.15l.64.18A33.6,33.6,0,0,1,894.73,116.51Zm8.87,5.07h2.89v.62H895.82v-.62h2.93v-4.76h-2.16v-.62h2.16v-3.48h.65v3.48H903v-3.48h.64v3.48h2.27v.62H903.6Zm-4.15,1.9.52.36a26.65,26.65,0,0,1-3.51,3.74l-.49-.49A25.35,25.35,0,0,0,899.45,123.48Zm3.51-1.9v-4.76H899.4v4.76Zm-.59,2.26.46-.41c.92.9,2,2.1,3.39,3.58l-.48.47C904.88,126.48,903.76,125.26,902.37,123.84Z"/><path d="M909.24,125.83v1.6h-.63v-12h1.65a26.61,26.61,0,0,0,1.09-2.81l.65.15c-.27.8-.62,1.68-1,2.66h2.94v11.79h-.64v-1.44Zm0-5.46h4v-4.26h-4Zm0,4.84h4V121h-4Zm7.51-9.78h4.73q-.18,7.92-.21,9.22a2.92,2.92,0,0,1-.62,2,2.47,2.47,0,0,1-1.85.67c-.73,0-1.43,0-2.12-.09l-.08-.69c.88.07,1.57.11,2.07.11a2,2,0,0,0,1.47-.49,2.4,2.4,0,0,0,.49-1.6q.11-4.35.2-8.51h-4.36a23.07,23.07,0,0,1-1.54,2.74l-.55-.33a20.73,20.73,0,0,0,2.69-5.81l.62.18C917.46,113.58,917.15,114.44,916.75,115.43Zm-1.15,4,.51-.33c.62.82,1.4,1.88,2.35,3.19l-.54.39C917.29,121.76,916.52,120.68,915.6,119.46Z"/><path d="M934.72,122.35a8.42,8.42,0,0,1-2.68,2.92c1.53.46,3.35,1,5.48,1.75l-.22.59q-2.76-.94-5.93-1.93l0,0a21.93,21.93,0,0,1-7.32,2l-.2-.59a23.87,23.87,0,0,0,6.69-1.65q-2.19-.68-4.23-1.23c.51-.56,1-1.19,1.55-1.86h-4.45v-.57h4.87c.58-.8,1-1.46,1.38-2h-4.79v-3.59h3.76v-2h-4.76v-.57h13.88v.57H933v2h3.76v3.59h-6.32c-.42.66-.87,1.32-1.36,2h9.1v.57Zm-6.11-3.12v-2.47h-3.16v2.47Zm5.34,3.12h-5.33c-.54.71-1,1.24-1.27,1.58,1,.28,2.3.65,3.9,1.12A7.93,7.93,0,0,0,934,122.35Zm-1.6-6.16v-2h-3.1v2Zm0,3v-2.47h-3.1v2.47Zm3.78,0v-2.47H933v2.47Z"/><path d="M939,125.05c2.29-1.28,4.37-2.55,6.26-3.83l.25.59q-2.67,1.81-6.15,3.84Zm7.68-6v6.57a2,2,0,0,1-.44,1.41,2,2,0,0,1-1.47.44c-.29,0-.81,0-1.55,0l-.08-.67c.31,0,.81,0,1.48.07a1.72,1.72,0,0,0,1.1-.29,1.52,1.52,0,0,0,.31-1v-9h-6.78V116H946v-3.32h.65V116h6.61v.62h-6.61v1a14.89,14.89,0,0,0,1.75,3.53,43.74,43.74,0,0,0,3.52-3.07l.47.47q-1.75,1.64-3.61,3.09a14.76,14.76,0,0,0,4.72,3.84l-.38.61a16,16,0,0,1-4.34-3.45A14.52,14.52,0,0,1,946.65,119.08Zm-6.31-.59.43-.49q1.44,1.09,2.91,2.31l-.43.5C942.13,119.88,941.16,119.1,940.34,118.49Zm8.26-4.95.45-.38a25.79,25.79,0,0,1,2.29,2l-.47.39C950.31,115,949.56,114.32,948.6,113.54Z"/><path d="M957.65,124.41a5,5,0,0,0,1.89,1.49,6.54,6.54,0,0,0,2.57.52c2.39.06,4.86.06,7.44,0l-.12.68c-2.89,0-5.33,0-7.32,0a6,6,0,0,1-4.79-2.08c-.71.71-1.44,1.48-2.21,2.32l-.4-.54c.73-.78,1.49-1.57,2.3-2.35v-5.48h-2.22v-.64h2.86Zm-1.9-11,.54-.36c.73.9,1.46,1.81,2.17,2.71l-.52.38Q957,114.84,955.75,113.46Zm10.77,7.29v4.75h-.63v-4.75h-3.63a7.76,7.76,0,0,1-.61,2.56,8.77,8.77,0,0,1-1.68,2.27l-.52-.42a6.22,6.22,0,0,0,2.15-4.41h-2.68v-.62h2.73c0-.31,0-.61,0-.92V116.4h-2.32v-.61h2.32v-3.05h.64v3.05h3.58v-3.07h.63v3.07h2.32v.61h-2.32v3.73h2.75v.62Zm-.63-.62V116.4h-3.58v2.79c0,.32,0,.63,0,.94Z"/><path d="M973.82,119.31v8.32h-.63v-7.5a27.34,27.34,0,0,1-2.34,2.46l-.36-.55a21.6,21.6,0,0,0,4.28-5.31l.54.36A23.88,23.88,0,0,1,973.82,119.31Zm.89-6.69.55.38a19.42,19.42,0,0,1-4.07,4.36l-.37-.55A17.1,17.1,0,0,0,974.71,112.62Zm7.58,6.69v5.92a2.18,2.18,0,0,1-.49,1.61,2.06,2.06,0,0,1-1.52.49,12.11,12.11,0,0,1-1.86-.06l-.09-.66a16.26,16.26,0,0,0,1.82.09,1.56,1.56,0,0,0,1.14-.36,1.76,1.76,0,0,0,.33-1.2v-5.83H976v-.62h9.36v.62ZM977,114h7.48v.6H977Z"/><path d="M986.85,118.07h2.81v7.58a25.5,25.5,0,0,0,2.08-2.08l.32.58a32.93,32.93,0,0,1-2.92,2.76l-.39-.49A1.79,1.79,0,0,0,989,126a2.58,2.58,0,0,0,.06-.49v-6.85h-2.17Zm1.08-4.55.52-.39c.74.77,1.53,1.64,2.37,2.6l-.5.44C989.48,115.19,988.68,114.31,987.93,113.52Zm8.94,11.22a18.17,18.17,0,0,0,4.79,2.27l-.33.62a18,18,0,0,1-5-2.47,19.68,19.68,0,0,1-5.18,2.6l-.34-.59a20.8,20.8,0,0,0,5-2.43,12,12,0,0,1-2.88-3.9l.56-.29a11,11,0,0,0,2.86,3.78,10.42,10.42,0,0,0,2.91-4h-7.41v-.59H1000v.61a11.17,11.17,0,0,1-3.09,4.33Zm-3.22-11.17h5.44l0,3a1.15,1.15,0,0,0,.24.85,1.37,1.37,0,0,0,.84.28c.5,0,1,0,1.52,0l-.13.64a15.25,15.25,0,0,1-1.55,0,1.94,1.94,0,0,1-1.25-.41,1.57,1.57,0,0,1-.32-1.16v-2.58h-4.13v1.43a3.94,3.94,0,0,1-.54,1.92A5.16,5.16,0,0,1,992,119l-.44-.48a4.92,4.92,0,0,0,1.62-1.29,3,3,0,0,0,.47-1.72Z"/><path d="M1003.21,118.05h3.17v7.62c.78-.59,1.64-1.31,2.6-2.16l.31.59q-1.68,1.5-3.48,2.91l-.44-.56a1,1,0,0,0,.29-.39,1.57,1.57,0,0,0,.07-.54v-6.85h-2.52Zm1.29-4.53.49-.44c1,1,1.94,1.85,2.67,2.62l-.48.45C1006.24,115.21,1005.34,114.33,1004.5,113.52Zm9,5.61v8.53h-.67v-8.53h-4.48v-.64h4.48v-5.85h.67v5.85h4.56v.64Z"/><path d="M1024.66,121.83v5.86H1024v-5.86h-2.64v4.57h-.63v-5.15H1024V119h-4.43v-.57H1024v-2.54h-2.56q-.37.84-.9,1.77l-.54-.26a14.72,14.72,0,0,0,1.65-4l.59.14q-.3,1.08-.57,1.8H1024v-2.63h.62v2.63h3.44v.57h-3.44v2.54h4V119h-4v2.25H1028v3.63a1.48,1.48,0,0,1-.33,1,1.44,1.44,0,0,1-1,.38q-.66,0-1.05,0l-.13-.58,1,0a.84.84,0,0,0,.64-.22.86.86,0,0,0,.19-.63v-3Zm5.2-7.29h.61v9.25h-.61Zm2.85-1.74h.62v12.61a2.39,2.39,0,0,1-.41,1.53,2.06,2.06,0,0,1-1.44.49c-.5,0-1,0-1.45-.06l-.15-.66c.72.05,1.21.07,1.47.07a1.54,1.54,0,0,0,1.08-.33,1.79,1.79,0,0,0,.28-1.13Z"/><path d="M1038.57,116.3v11.34h-.64v-10a24.32,24.32,0,0,1-2.17,3.46l-.39-.57a27.41,27.41,0,0,0,3.92-7.84l.62.22C1039.47,114.15,1039,115.29,1038.57,116.3Zm4.38-.83h7.34v.62h-5.61v3.27h4.69v.6h-4.69v3.3h5.14v.62h-5.14v3.8H1044V116.09h-1.37a23.83,23.83,0,0,1-2.36,3.81l-.5-.43a23.27,23.27,0,0,0,3.58-6.83l.62.18C1043.71,113.66,1043.37,114.54,1043,115.47Z"/><path d="M1053.63,127.45a1.59,1.59,0,0,1-1.19-.49,1.63,1.63,0,0,1-.49-1.2,1.59,1.59,0,0,1,.49-1.19,1.57,1.57,0,0,1,1.19-.51,1.62,1.62,0,0,1,1.21.51,1.59,1.59,0,0,1,.49,1.19,1.67,1.67,0,0,1-1.7,1.69Zm0-.48a1.15,1.15,0,0,0,1.21-1.21,1.18,1.18,0,0,0-.35-.89,1.17,1.17,0,0,0-.86-.32,1.15,1.15,0,0,0-.85.33,1.21,1.21,0,0,0,.85,2.09Z"/><path d="M1064.62,116.12a12.41,12.41,0,0,1,.8,3.22,37.86,37.86,0,0,1,.21,4.28,6.7,6.7,0,0,1-.45,2.88,2,2,0,0,1-1.8.88c-.58,0-1,0-1.21,0l-.11-.65c.32,0,.73,0,1.22,0a1.41,1.41,0,0,0,1.34-.64,5.54,5.54,0,0,0,.39-2.49c0-1.49,0-2.71-.14-3.66a14.21,14.21,0,0,1-3.16,3.63l-.34-.55a12.83,12.83,0,0,0,3.38-4,13.49,13.49,0,0,0-.62-2.41,21.31,21.31,0,0,1-2.42,1.92l-.34-.52a18.86,18.86,0,0,0,2.5-2,9,9,0,0,0-1.9-2.58l.46-.41a9.21,9.21,0,0,1,1.91,2.54,25.86,25.86,0,0,0,2-2.36l.45.38A22.23,22.23,0,0,1,1064.62,116.12Zm10.35,10q-4.6.49-8.58.69l-.13-.62c1.34-.06,2.87-.15,4.61-.28v-4.4h-3.54v-5.75h3.54v-3.17h.63v3.17H1075v5.75h-3.53v4.35l3.21-.31c-.29-.64-.66-1.42-1.12-2.32l.54-.23q1.24,2.53,2,4.27l-.55.26C1075.35,127,1075.14,126.55,1075,126.17Zm-4.1-5.18V116.4h-2.93V121Zm3.56,0V116.4h-2.93V121Z"/><path d="M1086.18,126h6v.62h-14.5V126h7.73a76.87,76.87,0,0,0,3.48-8l.67.28C1088.39,121.22,1087.26,123.79,1086.18,126Zm-.33-9.95h5.56v.62H1078.5V116h6.65a34.43,34.43,0,0,0-1.36-3.19l.64-.23C1085,114,1085.51,115.11,1085.85,116Zm-5.56,2.39.64-.27q1.62,3.65,2.62,6l-.64.28Q1081.51,121,1080.29,118.43Z"/><path d="M1098.06,114.31h6.68v.59l-2.76,2.69h4v6.64h-.65v-6h-9.09v6h-.65v-6.64h5.56c1.22-1.22,2.12-2.11,2.71-2.68h-6.24a20.61,20.61,0,0,1-3.81,3.43l-.43-.5a18,18,0,0,0,5.17-5.27l.65.22C1098.78,113.34,1098.42,113.85,1098.06,114.31Zm2.56,9q3,1.56,6.83,3.76l-.29.6q-4.26-2.44-6.8-3.79-1.27,2.54-6.57,3.88l-.28-.63a12.16,12.16,0,0,0,5.43-2.5,4.51,4.51,0,0,0,1.06-1.55,6.4,6.4,0,0,0,.38-1.8q0-.61.06-1.86h.64c0,.51,0,1.16-.08,1.94A6.62,6.62,0,0,1,1100.62,123.28Z"/><path d="M1116.79,118.57h7v.56h-14.51v-.56h6.9V117h-5.23v-.54h5.23V114.8h-6.05v-.54h6.05v-1.62h.65v1.62h6.06v.54h-6.06v1.62h5.26V117h-5.26Zm-.28,5.71q2.82,1.13,6.72,2.84l-.26.57q-3.88-1.69-6.75-2.87c-.82,1.3-3,2.27-6.55,2.89l-.25-.59a16.14,16.14,0,0,0,4.9-1.45,3.33,3.33,0,0,0,1.78-2.29c0-.35.07-.77.1-1.26h.66l-.12,1.31A4.33,4.33,0,0,1,1116.51,124.28Zm-5.1-3.5h10.12V125h-.64v-3.65h-8.84V125h-.64Z"/><path d="M1131.22,119h2.62v.55h-8.45V119h2.66c-.23-.67-.57-1.54-1-2.63l.56-.18c.35.8.71,1.74,1.08,2.81h1.94c.41-1,.79-1.94,1.13-2.93l.6.18C1131.93,117.26,1131.56,118.18,1131.22,119Zm-1-4.19h3.16v.56H1126v-.56h3.64a18,18,0,0,0-.67-2l.62-.15Q1129.88,113.55,1130.24,114.76Zm1.91,11.48h-4.87v1.14h-.62v-5.82h6.11v5.69h-.62Zm0-.56v-3.54h-4.87v3.54Zm2.68-11.9h5v.59l-1,2.42c-.44,1-.76,1.78-1,2.37a5.34,5.34,0,0,1,2.14,4,2.7,2.7,0,0,1-.52,1.8,2.43,2.43,0,0,1-1.74.58,9.19,9.19,0,0,1-1.4-.08l0-.64a8.36,8.36,0,0,0,1.36.1,1.72,1.72,0,0,0,1.37-.47,2.09,2.09,0,0,0,.36-1.33,5,5,0,0,0-2.22-3.79c.88-2.16,1.55-3.79,2-4.92h-3.66v13.32h-.64Z"/><path d="M1146.33,112.93l.61.3a17.14,17.14,0,0,1-2.32,3.77,16.14,16.14,0,0,1-3.3,3l-.38-.57A14.89,14.89,0,0,0,1146.33,112.93Zm.45,7.1q-.06.45-.15,1.44a7.53,7.53,0,0,1-1.36,3.56,10.56,10.56,0,0,1-3.38,2.63l-.46-.51a10.14,10.14,0,0,0,3.22-2.45,6.8,6.8,0,0,0,1.31-3.28c0-.34.1-.8.16-1.39h-2.74v-.61h9.26c-.1,2.06-.18,3.91-.24,5.54a2.26,2.26,0,0,1-.66,1.67,2.58,2.58,0,0,1-1.81.56c-.73,0-1.35,0-1.86-.07l-.13-.65c.68,0,1.32.08,1.92.08a2.17,2.17,0,0,0,1.39-.41,1.73,1.73,0,0,0,.49-1.27c.12-2.33.2-3.94.23-4.84Zm3-7,.61-.24a13,13,0,0,0,2.19,3.77,11.6,11.6,0,0,0,3.23,2.72l-.4.62a13.67,13.67,0,0,1-3.37-2.91A14.6,14.6,0,0,1,1149.73,113Z"/><path d="M521.71,142.07h2.81v7.58a25.5,25.5,0,0,0,2.08-2.08l.32.58a32.93,32.93,0,0,1-2.92,2.76l-.39-.49a1.79,1.79,0,0,0,.21-.39,2.58,2.58,0,0,0,.06-.49v-6.85h-2.17Zm1.08-4.55.52-.39c.74.77,1.53,1.64,2.37,2.6l-.5.44C524.34,139.19,523.54,138.31,522.79,137.52Zm8.94,11.22a18.17,18.17,0,0,0,4.79,2.27l-.33.62a18,18,0,0,1-5-2.47,19.68,19.68,0,0,1-5.18,2.6l-.34-.59a20.8,20.8,0,0,0,5-2.43,12,12,0,0,1-2.88-3.9l.56-.29a11,11,0,0,0,2.86,3.78,10.42,10.42,0,0,0,2.91-4h-7.41v-.59h8.13v.61a11.17,11.17,0,0,1-3.09,4.33Zm-3.22-11.17H534l0,3a1.11,1.11,0,0,0,.25.85,1.31,1.31,0,0,0,.83.28c.5,0,1,0,1.52,0l-.13.64a15.2,15.2,0,0,1-1.55,0,1.94,1.94,0,0,1-1.25-.41,1.57,1.57,0,0,1-.32-1.16v-2.58h-4.13v1.43a3.83,3.83,0,0,1-.54,1.92,5.16,5.16,0,0,1-1.75,1.44l-.44-.48A4.92,4.92,0,0,0,528,141.2a3,3,0,0,0,.47-1.72Z"/><path d="M538.07,142.05h3.17v7.62c.78-.59,1.64-1.31,2.6-2.16l.31.59q-1.68,1.5-3.48,2.91l-.44-.56a1,1,0,0,0,.29-.39,1.57,1.57,0,0,0,.07-.54v-6.85h-2.52Zm1.29-4.53.49-.44c1,1,1.94,1.85,2.67,2.62l-.48.45C541.1,139.21,540.2,138.33,539.36,137.52Zm9,5.61v8.53h-.67v-8.53h-4.48v-.64h4.48v-5.85h.67v5.85h4.56v.64Z"/><path d="M556.27,147.61q1.47-.48,2.19-.69l.13.62q-2.57.92-5.21,1.57l-.18-.67c1.06-.27,1.87-.49,2.43-.65v-8.88h-2.17v-.62h4.87v.62h-2.06Zm7-.35c1.93,1.49,3.55,2.74,4.84,3.78l-.39.52c-1.79-1.46-3.35-2.69-4.68-3.71a5.65,5.65,0,0,1-1.58,2.09,13,13,0,0,1-3.07,1.79l-.33-.58a9.4,9.4,0,0,0,3.81-2.51,5.59,5.59,0,0,0,1.06-3.37c0-.74,0-1.55.05-2.42h.6c0,.75,0,1.57,0,2.44A7.56,7.56,0,0,1,563.23,147.26Zm.28-8.94c-.26,1.05-.49,1.9-.68,2.55h4V148h-.63v-6.52h-6V148h-.62v-7.15h2.52a25.36,25.36,0,0,0,.7-2.55H558.9v-.6H568v.6Z"/><path d="M580.62,150.22h-9.27v1.42h-.65V137.75h10.59v13.89h-.67Zm0-8.6v-3.25h-9.27v3.25Zm0,3.93v-3.32h-9.27v3.32Zm0,4v-3.45h-9.27v3.45Z"/><path d="M585.41,151.79a1.82,1.82,0,0,0,.85-1.54l-.08,0a.54.54,0,0,1-.39-.18.54.54,0,0,1-.17-.39.56.56,0,0,1,.15-.41.51.51,0,0,1,.41-.16.48.48,0,0,1,.42.18,1,1,0,0,1,.18.6,3,3,0,0,1-.24,1.23,2.45,2.45,0,0,1-.85.93Z"/><path d="M597.34,149.26h-2.06v1.31h-.59V143.7a15.94,15.94,0,0,1-1.34,2.27l-.38-.49a18,18,0,0,0,2.76-6.76h-2.28v-.56h5.19v.56h-2.28a19.42,19.42,0,0,1-1.18,3.9h2.74v7.44h-.58Zm0-.57v-5.48h-2.06v5.48Zm9.07-1.05h-2.78v3.22H603v-3.22h-2.87a7.44,7.44,0,0,1-1.49,4.07l-.56-.36a7,7,0,0,0,1.25-2.48,17.85,17.85,0,0,0,.27-3.6V141c-.26.3-.59.65-1,1l-.41-.41a16.89,16.89,0,0,0,3.64-5.07l.63.18c-.24.51-.51,1-.79,1.47H606v.54l-1.64,2.13H607v9a1.73,1.73,0,0,1-.36,1.21,1.47,1.47,0,0,1-1.08.34h-1l-.1-.61c.48,0,.81,0,1,0a1.24,1.24,0,0,0,.74-.22,1.27,1.27,0,0,0,.21-.81Zm-5-8.84a19.37,19.37,0,0,1-1.62,2.11h3.92l1.59-2.11Zm1.66,8.28v-2.51h-2.79v.75c0,.5,0,1.09,0,1.76Zm0-5.59h-2.79V144H603Zm3.39,2.52v-2.52h-2.78V144Zm0,3.07v-2.51h-2.78v2.51Z"/><path d="M611.9,140.56v11.1h-.62v-9.74a19.7,19.7,0,0,1-1.95,3.19l-.36-.58a22.31,22.31,0,0,0,2.14-3.74,29.61,29.61,0,0,0,1.52-4.13l.61.19C612.82,138.19,612.38,139.43,611.9,140.56Zm7.17,4.84a11.56,11.56,0,0,0,1.83,2.32,14.73,14.73,0,0,0,3,2.19l-.38.57a14.08,14.08,0,0,1-3.09-2.35,11.06,11.06,0,0,1-1.76-2.37v5.92H618v-5.87a12.41,12.41,0,0,1-1.81,2.37,17,17,0,0,1-3.14,2.43l-.36-.55a16.63,16.63,0,0,0,3.09-2.32,13.13,13.13,0,0,0,1.88-2.34h-4.46v-.6H618v-2.37h-3.53v-4.79h7.78v4.79H618.7v2.37h5v.6Zm2.6-3.58v-3.58h-6.52v3.58Z"/><path d="M628.42,145v5a1.46,1.46,0,0,1-.36,1.07,1.49,1.49,0,0,1-1.1.36c-.37,0-.74,0-1.12,0l-.13-.66c.56,0,.94.07,1.14.07a1.6,1.6,0,0,0,.74-.21,1,1,0,0,0,.21-.69v-4.64l-2.29.9-.2-.63c.64-.23,1.46-.56,2.49-1v-3.89h-2.22v-.59h2.22v-3.4h.62v3.4h1.72v.59h-1.72v3.65l1.65-.72.15.58Zm9.82-1a9,9,0,0,1-2.19,4.51l0,0q2,1.19,3.91,2.41l-.33.59q-2.37-1.53-4.07-2.52a14.62,14.62,0,0,1-5.25,2.66l-.26-.59a14.17,14.17,0,0,0,4.9-2.41c-1.23-.73-2.31-1.35-3.25-1.85.54-1.07,1-2,1.29-2.83h-2.45v-.59h2.7q.52-1.35.93-2.76l.64.16c-.26.82-.56,1.69-.89,2.6h6.22V144ZM636,139h3.57v2.61h-.61v-2h-7.25v2.16H631V139h4.22a22.28,22.28,0,0,0-1.16-2.14l.62-.18A21.2,21.2,0,0,1,636,139Zm1.64,5h-3.94q-.52,1.28-1.14,2.58c.67.35,1.65.9,2.92,1.64a.68.68,0,0,0,.12-.12A8.32,8.32,0,0,0,637.59,144Z"/><path d="M646.19,148.9h-3.34v1.67h-.63V138.06h4.57V150.3h-.6Zm0-5.69v-4.56h-3.34v4.56Zm0,5.1V143.8h-3.34v4.51Zm7.57-7.47v8.3a1.84,1.84,0,0,1-2.08,2.19,11.79,11.79,0,0,1-2.09-.08l-.08-.67a17.35,17.35,0,0,0,2,.1,2,2,0,0,0,1.23-.36,1.88,1.88,0,0,0,.36-1.29v-8.19h-5.44v-.6h5.44v-3.4h.64v3.4H656v.6Zm-5.36,2.4.52-.32c1,1.42,1.7,2.55,2.22,3.38l-.52.34C650,145.66,649.27,144.53,648.4,143.24Z"/><path d="M665.16,147.93a18.87,18.87,0,0,0,6.77,3l-.31.67a19,19,0,0,1-7-3.17,14.79,14.79,0,0,1-3,1.85,29.68,29.68,0,0,1-4,1.45l-.27-.63a19.71,19.71,0,0,0,6.81-3.11,13.65,13.65,0,0,1-2.94-4l.57-.29a12.76,12.76,0,0,0,2.88,3.89,12.25,12.25,0,0,0,2.78-4l.59.28A11.9,11.9,0,0,1,665.16,147.93Zm.3-8.79h6.13v.64H657.66v-.64h7.06a23,23,0,0,0-1.13-2.37l.67-.21Q664.8,137.63,665.46,139.14Zm-3,1.68.48.46a30.54,30.54,0,0,1-4.63,3.71l-.41-.54A27.14,27.14,0,0,0,662.43,140.82Zm3.89.51.43-.49c.79.55,1.58,1.1,2.35,1.67s1.67,1.23,2.27,1.71l-.41.56C669.5,143.65,668,142.5,666.32,141.33Z"/><path d="M676.46,140.5v11.13h-.66v-9.91a21.7,21.7,0,0,1-2.26,3.34l-.35-.62a25.42,25.42,0,0,0,4.11-7.77l.66.23A31.84,31.84,0,0,1,676.46,140.5Zm9.08.63v8a2.63,2.63,0,0,1-.41,1.63,2.05,2.05,0,0,1-1.68.61c-.78,0-1.47,0-2.06-.05l-.1-.69,2,.09a1.75,1.75,0,0,0,1.23-.36,1.93,1.93,0,0,0,.34-1.33v-7.93H678v-.63h6.85v-3.66h.67v3.66h2.52v.63Zm-6.6,2.31.52-.34q1.29,1.59,2.76,3.71l-.54.37C680.53,145.58,679.61,144.33,678.94,143.44Z"/><path d="M698.87,139.78h4.25v.64h-3.24v4.44h4v.62h-4v6.15h-.65v-6.15h-5a7.59,7.59,0,0,1-1,3.53,10.17,10.17,0,0,1-2.89,2.78l-.49-.49a9.93,9.93,0,0,0,2.76-2.56,6.93,6.93,0,0,0,1-3.26H689.3v-.62h4.3c0-.25,0-.5,0-.75v-3.69h-3.5v-.64h4.28c-.6-1-1.19-2-1.79-2.8l.58-.24c.72,1,1.38,2,2,3h3a27.28,27.28,0,0,0,1.85-3.11l.62.25A25.28,25.28,0,0,1,698.87,139.78Zm.36,5.08v-4.44h-5v3.64c0,.27,0,.54,0,.8Z"/><path d="M708.52,143.16v8.52h-.62v-9.5a20.15,20.15,0,0,1-2.36,5.21l-.39-.58a18.66,18.66,0,0,0,2.66-6.18h-2.35V140h2.44v-3.4h.62V140h2.07v.59h-2.07v2.25l.29-.22a24.77,24.77,0,0,1,1.93,2.25l-.43.46C709.68,144.52,709.08,143.78,708.52,143.16Zm7.84,4.84.07.08a10.79,10.79,0,0,0,3.64,2.58l-.34.59a11.65,11.65,0,0,1-3.78-2.79,10.68,10.68,0,0,1-1.94-3.91H712.1v6.18c1-.56,2-1.13,2.89-1.72l.2.57a34.62,34.62,0,0,1-3.67,2.13l-.29-.51a1,1,0,0,0,.18-.26,1.25,1.25,0,0,0,.05-.36V137.64h7.17v6.91h-4a10.35,10.35,0,0,0,1.39,3,34.45,34.45,0,0,0,3.07-2.14l.38.44A20.23,20.23,0,0,1,716.36,148Zm1.65-7.14v-2.62H712.1v2.62Zm0,3.1v-2.51H712.1V144Z"/><path d="M724.39,145.09v4.82a1.75,1.75,0,0,1-.31,1.13,1.42,1.42,0,0,1-1.12.39c-.3,0-.68,0-1.14-.05l-.08-.63,1.08.06a1.05,1.05,0,0,0,.75-.2,1.12,1.12,0,0,0,.19-.76v-4.52c-.61.23-1.32.5-2.14.79l-.19-.62c.68-.23,1.46-.51,2.33-.83v-3.93h-2.09v-.62h2.09v-3.43h.63v3.43h1.73v.62h-1.73v3.7l1.65-.74.13.59C725.68,144.53,725.08,144.8,724.39,145.09Zm3.23-1.52h3.92V141.3h.61v2.27h4.09v.57h-4.09v2.39h3.09v5.16h-.61v-1h-5.44v1h-.62v-5.16h3v-2.39h-3.93a20.34,20.34,0,0,1-.4,3.76,13.3,13.3,0,0,1-1.57,3.71l-.52-.37a12.75,12.75,0,0,0,1.49-3.52,22,22,0,0,0,.41-4.66v-5.44h8.32v3.6h-7.72v2.35Zm7.11-2.91v-2.48h-7.11v2.48Zm-.1,9.42v-3h-5.44v3Z"/><path d="M746.5,148.16a18.85,18.85,0,0,0,5.6,2.72l-.32.65a18.89,18.89,0,0,1-5.82-2.94,22.79,22.79,0,0,1-6.08,3.07l-.35-.6a21.77,21.77,0,0,0,5.9-2.91v0a13,13,0,0,1-3.52-5.2l.59-.24a11.92,11.92,0,0,0,3.39,5l.09.08a.49.49,0,0,0,.13-.12,12.26,12.26,0,0,0,3.5-5.11h-9.3a21.63,21.63,0,0,1-.51,5.24,11.45,11.45,0,0,1-1.94,3.89l-.54-.44a11.1,11.1,0,0,0,1.85-3.64,20.69,20.69,0,0,0,.49-5v-4.43a80.36,80.36,0,0,0,11.08-.67l.29.63a83,83,0,0,1-10.72.67v3.17h10v.62a13.61,13.61,0,0,1-3.66,5.51Z"/><path d="M754.94,139.29h2.83v.54l-1,2.86-.56-.15,1-2.7h-2.46a19.34,19.34,0,0,1-1.57,3.49l-.42-.46a23.36,23.36,0,0,0,2.24-6.18l.62.13C755.42,137.65,755.2,138.47,754.94,139.29Zm-.1,3h.61v7.57a27.36,27.36,0,0,0,2-2l.28.54a37.92,37.92,0,0,1-2.77,2.76l-.4-.47a2.26,2.26,0,0,0,.26-.41,3.15,3.15,0,0,0,.06-.55Zm7.73,6.2c1.89,1,3.5,1.82,4.82,2.6l-.27.54q-2.31-1.38-4.79-2.65a4.57,4.57,0,0,1-1.67,1.62,11,11,0,0,1-2.94,1.11l-.23-.56a10.07,10.07,0,0,0,3.2-1.29,3.6,3.6,0,0,0,1.39-1.8,6.63,6.63,0,0,0,.28-1.86H763a6.89,6.89,0,0,1-.29,2A1.39,1.39,0,0,1,762.57,148.46Zm.33-10.35h3.6v3.06h-3.6v1.63h4.76v.54h-10v-.54h4.64v-1.63h-3.56v-3.06h3.56v-1.5h.62Zm-4,6.75h7.45V149h-.62v-3.63h-6.23V149h-.6Zm3.4-4.23v-2h-3v2Zm3.63,0v-2h-3v2Z"/><path d="M772.07,148.41a5,5,0,0,0,1.9,1.49,6.46,6.46,0,0,0,2.56.52q3.59.09,7.44,0l-.12.68c-2.88,0-5.32,0-7.32,0a6,6,0,0,1-4.79-2.08c-.71.71-1.44,1.48-2.2,2.32l-.41-.54c.73-.78,1.5-1.57,2.3-2.35v-5.48h-2.22v-.64h2.86Zm-1.9-10.95.54-.36,2.18,2.71-.53.38Q771.37,138.84,770.17,137.46ZM781,144.75v4.75h-.64v-4.75h-3.63a7.76,7.76,0,0,1-.61,2.56,8.77,8.77,0,0,1-1.68,2.27l-.52-.42a7.52,7.52,0,0,0,1.55-2,7.39,7.39,0,0,0,.61-2.38h-2.69v-.62h2.73c0-.31,0-.61,0-.92V140.4h-2.32v-.61h2.32v-3h.64v3h3.58v-3.07H781v3.07h2.32v.61H781v3.73h2.74v.62Zm-.64-.62V140.4h-3.58v2.79c0,.32,0,.63,0,.94Z"/><path d="M788.25,143.31v8.32h-.64v-7.5a27.34,27.34,0,0,1-2.34,2.46l-.36-.55a21.37,21.37,0,0,0,4.28-5.31l.54.36A23.78,23.78,0,0,1,788.25,143.31Zm.88-6.69.55.38a19.19,19.19,0,0,1-4.07,4.36l-.37-.55A17.1,17.1,0,0,0,789.13,136.62Zm7.58,6.69v5.92a2.18,2.18,0,0,1-.49,1.61,2.06,2.06,0,0,1-1.52.49,12.11,12.11,0,0,1-1.86-.06l-.08-.66a16,16,0,0,0,1.81.09,1.54,1.54,0,0,0,1.14-.36,1.76,1.76,0,0,0,.33-1.2v-5.83h-5.67v-.62h9.37v.62ZM791.4,138h7.49v.6H791.4Z"/><path d="M801.21,141.76h2.42v7.29c.53-.59,1-1.18,1.48-1.77l.26.59c-.77,1-1.49,1.84-2.18,2.56l-.42-.5a1.34,1.34,0,0,0,.26-.79v-6.8h-1.82Zm.86-4.61.5-.35c.6.74,1.28,1.63,2,2.65l-.51.38C803.52,139,802.84,138.12,802.07,137.15Zm4.87,1v5.58a23.24,23.24,0,0,1-.35,4.64,11.19,11.19,0,0,1-1.4,3.32l-.54-.35a10.85,10.85,0,0,0,1.35-3.15,22.41,22.41,0,0,0,.33-4.48v-6.11h8.73v11.8a2.23,2.23,0,0,1-.44,1.57,2.06,2.06,0,0,1-1.41.42c-.25,0-.74,0-1.49-.06l-.13-.62c.61,0,1.11.06,1.49.06a1.51,1.51,0,0,0,1.06-.29,1.59,1.59,0,0,0,.31-1.13v-11.2ZM811,143h2.66v.54h-5.88V143h2.64v-2h-2.32v-.54h2.32v-1.72H811v1.72h2.33V141H811Zm1.81,6h-4.23v-3.66h4.23Zm-.57-.52v-2.62h-3.09v2.62Z"/><path d="M824.34,142.44h-2.75v.69l.21-.33c1.05.56,2,1.06,2.75,1.52l-.26.48c-.93-.56-1.83-1.07-2.7-1.52v2H821v-2.52a6.63,6.63,0,0,1-1.27,1.27,12.79,12.79,0,0,1-2.32,1.47l-.3-.5a10.9,10.9,0,0,0,3.6-2.57h-2.48v-2.73H821v-1.19h-3.46V138H821v-1.4h.59V138H825v.51h-3.43v1.19h2.75Zm.65,8.13h6.82v.53H817.18v-.53h2.88v-2.91h.63v2.91h3.66v-4.09h-6.16v-.54h12.67v.54H825v1.72h5v.5h-5ZM821,142v-1.76h-2.24V142Zm2.8,0v-1.76h-2.21V142Zm5,1a11.9,11.9,0,0,0,3.11,1.88l-.31.57a13.13,13.13,0,0,1-3.22-2,11.62,11.62,0,0,1-3.22,2l-.33-.5a11.88,11.88,0,0,0,3.12-1.87,8,8,0,0,1-1.67-2.79,12.93,12.93,0,0,1-1,1.52l-.43-.39a17.88,17.88,0,0,0,1.41-2.23,16.89,16.89,0,0,0,1-2.4l.6.13c-.2.62-.43,1.22-.68,1.8h4.64v.52h-1.19a8.13,8.13,0,0,1-1.65,3.71Zm-.44-.41.07-.06a7,7,0,0,0,1.52-3.37h-3.09c-.07.14-.14.29-.22.43A7.17,7.17,0,0,0,828.31,142.52Z"/><path d="M837.19,144.35v7.34h-.6v-8.48a18.17,18.17,0,0,1-3.22,5.33L833,148a17,17,0,0,0,3.44-5.86h-3.16v-.6h3.34v-3.11l-2.83.23-.12-.59a52.09,52.09,0,0,0,6-.65l.17.59c-.56.09-1.44.21-2.65.36v3.17h3v.6h-3V144l.25-.22c1.13,1.18,2,2.06,2.51,2.65l-.42.47Q838.08,145.3,837.19,144.35Zm3.94-5.93h5.62v12.64h-.63v-1.49h-4.37v1.58h-.62Zm5,10.53V139h-4.37V149Z"/><path d="M851.94,140.32v11.34h-.64v-10a23.88,23.88,0,0,1-2.14,3.39l-.38-.61a21.21,21.21,0,0,0,2.21-3.59,24.9,24.9,0,0,0,1.63-4.12l.64.21A35.83,35.83,0,0,1,851.94,140.32Zm5.42.8h6.08v.59h-6.09a16.34,16.34,0,0,1-1.11,5.59,13.4,13.4,0,0,1-3.19,4.36l-.51-.47a12.65,12.65,0,0,0,3.06-4.12,15.18,15.18,0,0,0,1.09-5.36h-3.41v-.59h3.43c0-.13,0-.26,0-.39,0-1.77,0-3.11,0-4h.63q0,1,0,4.05A3.47,3.47,0,0,0,857.36,141.12Zm1.18,1.4h.64v6.54a1.69,1.69,0,0,0,.23,1.05,1.38,1.38,0,0,0,.91.34q.58,0,1.26,0a1.57,1.57,0,0,0,1-.33,1.85,1.85,0,0,0,.39-1c.07-.67.13-1.26.18-1.78l.59.21c-.05.58-.11,1.16-.18,1.76a2.22,2.22,0,0,1-.56,1.29,2.15,2.15,0,0,1-1.39.46h-1.32a1.81,1.81,0,0,1-1.34-.49,2.19,2.19,0,0,1-.38-1.45Zm1-5,.54-.26q1.11,1.7,1.59,2.52l-.57.31C860.65,139.22,860.13,138.36,859.55,137.49Z"/><path d="M867.74,140.64v11h-.66v-9.91a26.54,26.54,0,0,1-2.56,3.47l-.38-.61a23,23,0,0,0,2.63-3.64,25.94,25.94,0,0,0,2-4.28l.64.24A27.87,27.87,0,0,1,867.74,140.64Zm5.11,4v4a1.6,1.6,0,0,0,.43,1.27,2,2,0,0,0,1.34.46,7.12,7.12,0,0,0,1.6,0,3.11,3.11,0,0,0,1.39-.36,1.9,1.9,0,0,0,.52-1.21q.14-.86.21-2l.64.2c-.05.71-.13,1.39-.23,2.06a2.31,2.31,0,0,1-.72,1.5,3.78,3.78,0,0,1-1.78.46,9.76,9.76,0,0,1-1.71,0,2.79,2.79,0,0,1-1.77-.64,2.19,2.19,0,0,1-.57-1.68v-3.6a37,37,0,0,1-3.11,2l-.36-.57c1.12-.65,2.28-1.4,3.47-2.26V136.8h.65v7a31.4,31.4,0,0,0,5-4.88l.53.45A34,34,0,0,1,872.85,144.63Z"/><path d="M883.05,151.45a1.61,1.61,0,0,1-1.19-.49,1.63,1.63,0,0,1-.49-1.2,1.71,1.71,0,0,1,1.68-1.7,1.62,1.62,0,0,1,1.21.51,1.59,1.59,0,0,1,.49,1.19,1.67,1.67,0,0,1-1.7,1.69Zm0-.48a1.23,1.23,0,0,0,.87-.32,1.21,1.21,0,0,0,.34-.89,1.18,1.18,0,0,0-.34-.89,1.21,1.21,0,0,0-.87-.32,1.15,1.15,0,0,0-.85.33,1.32,1.32,0,0,0,0,1.77A1.22,1.22,0,0,0,883.05,151Z"/><path d="M532.4,179.77l0,0a7.2,7.2,0,0,0,.91,1.8c.42.56.81.83,1.18.82a.65.65,0,0,0,.42-.18,1.69,1.69,0,0,0,.35-.62,18.27,18.27,0,0,0,.45-2.11l.89.34a17.1,17.1,0,0,1-.56,2.27c-.3.91-.81,1.37-1.52,1.39a2.21,2.21,0,0,1-1.65-.83,7,7,0,0,1-1.21-2,19.1,19.1,0,0,1-3.2,2.81l-.64-.74a17.38,17.38,0,0,0,3.48-3.07,17,17,0,0,1-.64-2.62,36.54,36.54,0,0,1-.52-4.42h-5.85v2.59h4.17c0,1.41-.07,2.81-.12,4.2a2.46,2.46,0,0,1-.5,1.61,2.34,2.34,0,0,1-1.51.5c-.43,0-.89,0-1.35,0l-.17-1a6.82,6.82,0,0,0,1.31.06,1.53,1.53,0,0,0,1-.28,1.46,1.46,0,0,0,.32-1c0-.51.05-1.57.11-3.19h-3.22a18.32,18.32,0,0,1-.39,4.17,12.52,12.52,0,0,1-1.47,3.43l-.85-.57A11.45,11.45,0,0,0,523,180a18.7,18.7,0,0,0,.36-4V171.7h6.78c-.05-1-.09-2-.1-3.06h1c0,1,.09,2,.12,3v.07h5.13v.9h-5.08a28.19,28.19,0,0,0,.44,4.07c.11.62.26,1.29.46,2a20.36,20.36,0,0,0,2.38-4.59l.87.41a24.78,24.78,0,0,1-2.78,5.1Zm-.18-10.2.57-.65c.75.55,1.49,1.13,2.21,1.71l-.52.71C533.76,170.73,533,170.14,532.22,169.57Z"/><path d="M539.63,178.43l.82.25a16.85,16.85,0,0,1-1.78,3.4l-.82-.35A15.34,15.34,0,0,0,539.63,178.43Zm3.14-7.62h2.92v.84H538v-.84h3.71c-.27-.79-.54-1.47-.79-2l1-.16C542.13,169.07,542.41,169.8,542.77,170.81Zm2,6.54h-2.31v4.3a1.89,1.89,0,0,1-.37,1.29,1.81,1.81,0,0,1-1.21.44c-.35,0-.74,0-1.16,0l-.15-.88a8.5,8.5,0,0,0,1.05.06,1.28,1.28,0,0,0,.72-.21,1.22,1.22,0,0,0,.21-.8v-4.17H539v-4.08h5.69Zm-.88-.82v-2.46h-3.91v2.46Zm-.62,2.1.75-.26a24.7,24.7,0,0,1,1.26,2.27l-.77.32C544,180.07,543.62,179.29,543.23,178.63Zm4.93-5.59h4.3v.86h-4.31c0,.55-.07,1-.1,1.51,0,.14,0,.34,0,.6a15.32,15.32,0,0,1-1,4.22,14.61,14.61,0,0,1-2.21,3.5l-.82-.59a12.24,12.24,0,0,0,2.44-4,18.86,18.86,0,0,0,.8-5.27h-1.72V173h1.74c0-.35,0-.6,0-.74,0-.9,0-2.13,0-3.68h.94c0,1,0,2.21-.05,3.68C548.18,172.55,548.17,172.8,548.16,173Zm.61,1.5h.9v6.78a1.21,1.21,0,0,0,.21.82.74.74,0,0,0,.62.23h.41a.79.79,0,0,0,.63-.23,1.74,1.74,0,0,0,.32-.91c.06-.64.11-1.24.14-1.82l.82.28c-.07.73-.13,1.36-.2,1.89a2.32,2.32,0,0,1-.52,1.3,1.6,1.6,0,0,1-1.18.39h-.59a1.49,1.49,0,0,1-1.19-.43,2,2,0,0,1-.37-1.35Zm.49-4.74.73-.39c.56.72,1.12,1.49,1.69,2.32l-.76.46C550.44,171.45,549.89,170.65,549.26,169.8Z"/><path d="M556.19,174.05a.75.75,0,0,1,.59.24.88.88,0,0,1,.21.58.82.82,0,0,1-.21.55.82.82,0,0,1-1.14,0,.75.75,0,0,1-.22-.55.89.89,0,0,1,.2-.58A.69.69,0,0,1,556.19,174.05Zm0,6.62a.78.78,0,0,1,.59.23.84.84,0,0,1,.21.57.85.85,0,0,1-.21.56.78.78,0,0,1-.57.24.75.75,0,0,1-.57-.24.78.78,0,0,1-.22-.56.84.84,0,0,1,.2-.57A.69.69,0,0,1,556.19,180.67Z"/><path d="M563.75,174.07h2.81v7.58a25.5,25.5,0,0,0,2.08-2.08l.32.58a32.93,32.93,0,0,1-2.92,2.76l-.39-.49a1.79,1.79,0,0,0,.21-.39,2.58,2.58,0,0,0,.06-.49v-6.85h-2.17Zm1.08-4.55.52-.39c.74.77,1.53,1.64,2.37,2.6l-.5.44C566.38,171.19,565.58,170.31,564.83,169.52Zm8.94,11.22a18.17,18.17,0,0,0,4.79,2.27l-.33.62a18,18,0,0,1-5-2.47,19.68,19.68,0,0,1-5.18,2.6l-.34-.59a20.8,20.8,0,0,0,5-2.43,12,12,0,0,1-2.88-3.9l.56-.29a11,11,0,0,0,2.86,3.78,10.42,10.42,0,0,0,2.91-4h-7.41v-.59h8.13v.61a11.17,11.17,0,0,1-3.09,4.33Zm-3.22-11.17H576l0,3a1.11,1.11,0,0,0,.25.85,1.31,1.31,0,0,0,.83.28c.5,0,1,0,1.52,0l-.13.64a15.2,15.2,0,0,1-1.55,0,1.94,1.94,0,0,1-1.25-.41,1.57,1.57,0,0,1-.32-1.16v-2.58h-4.13v1.43a3.83,3.83,0,0,1-.54,1.92A5.16,5.16,0,0,1,568.9,175l-.44-.48a4.92,4.92,0,0,0,1.62-1.29,3,3,0,0,0,.47-1.72Z"/><path d="M580.11,174.05h3.17v7.62c.78-.59,1.64-1.31,2.6-2.16l.31.59q-1.68,1.5-3.48,2.91l-.44-.56a1,1,0,0,0,.29-.39,1.57,1.57,0,0,0,.07-.54v-6.85h-2.52Zm1.29-4.53.49-.44c1.05,1,1.94,1.85,2.67,2.62l-.48.45C583.14,171.21,582.24,170.33,581.4,169.52Zm9,5.61v8.53h-.67v-8.53h-4.48v-.64h4.48v-5.85h.67v5.85H595v.64Z"/><path d="M599.26,172.3v11.34h-.64v-10a25.25,25.25,0,0,1-2.17,3.46l-.4-.57a27.17,27.17,0,0,0,3.93-7.84l.62.22C600.16,170.15,599.71,171.29,599.26,172.3Zm4.38-.83H611v.62h-5.61v3.27h4.69v.6h-4.69v3.3h5.13v.62h-5.13v3.8h-.66V172.09h-1.37A23.8,23.8,0,0,1,601,175.9l-.51-.43a23,23,0,0,0,3.58-6.83l.62.18C604.4,169.66,604.05,170.54,603.64,171.47Z"/><path d="M617.47,182.47h-4v1.19h-.62v-6.88h5.28v6.88h-.62Zm0-.61v-4.49h-4v4.49Zm6.34-7.29h-9.27v-5h9.27Zm-.66-.6v-3.76h-7.94V174Zm1.79,8.5H620.8v1.19h-.62v-6.88h5.38v6.88h-.62Zm0-.61v-4.49H620.8v4.49Z"/><path d="M631.69,178.09a14.63,14.63,0,0,1-3.71,3.25l-.34-.51a15.32,15.32,0,0,0,3.92-3.41,5.92,5.92,0,0,0-.69-1.75,23.22,23.22,0,0,1-2.74,1.75l-.31-.53a19.85,19.85,0,0,0,2.73-1.7,8.68,8.68,0,0,0-1.9-1.78l.42-.39a8.19,8.19,0,0,1,1.95,1.8,21.13,21.13,0,0,0,1.83-1.77l.44.41a17.32,17.32,0,0,1-1.94,1.83,7,7,0,0,1,.88,2.22,15.61,15.61,0,0,1,.24,3,3.67,3.67,0,0,1-.57,2.29,2.49,2.49,0,0,1-1.88.71l-1.26,0-.09-.64c.65.05,1.08.07,1.29.07a1.8,1.8,0,0,0,1.45-.51,3,3,0,0,0,.44-1.91A16.36,16.36,0,0,0,631.69,178.09Zm6.21-7v1.47h-.64v-1.47h-4.43v1.49h-.65v-1.49h-4.4v-.62h4.4v-1.81h.65v1.81h4.43v-1.83h.64v1.83h4.32v.62Zm-.41,5.56a8.53,8.53,0,0,0,1.47,3.48,10.3,10.3,0,0,0,3.35,2.91l-.39.57a10.68,10.68,0,0,1-3.45-3.12,8.93,8.93,0,0,1-1.27-2.66,8.23,8.23,0,0,1-1.16,2.76,11.4,11.4,0,0,1-3.29,3.12l-.42-.51a10.31,10.31,0,0,0,3.23-3,7.6,7.6,0,0,0,1.2-3.51h-3.42v-.59h3.45c0-1,0-2.07,0-3.1h.65c0,1.43,0,2.47,0,3.1H642v.59Zm1.18-3.11.41-.39c.65.51,1.33,1.09,2,1.73l-.37.45C640,174.61,639.27,174,638.67,173.54Z"/><path d="M646.21,175.42v8.22h-.62v-7.37a20.13,20.13,0,0,1-2.1,2.34l-.32-.54a22.72,22.72,0,0,0,3.94-5.29l.54.32A22.82,22.82,0,0,1,646.21,175.42Zm.85-6.76.52.36a18.44,18.44,0,0,1-3.66,4.44l-.39-.55A17,17,0,0,0,647.06,168.66Zm8.61,10.52v2.37a2.15,2.15,0,0,1-.42,1.47,2.18,2.18,0,0,1-1.44.48c-.38,0-1,0-1.75,0l0-.62c.61,0,1.16,0,1.67,0a1.69,1.69,0,0,0,1.07-.31,1.56,1.56,0,0,0,.28-1.11v-2.29H647.6v-.55H655v-1.77H648.2v-.57h9.4v.57h-1.93v1.77h2.42v.55Zm-6.73.93.36-.45c.93.55,1.85,1.15,2.76,1.79l-.39.51C650.79,181.35,649.88,180.74,648.94,180.11Zm7.71-5.41H649v-5.16h7.63Zm-.62-2.84v-1.78h-6.39v1.78Zm0,2.29v-1.77h-6.39v1.77Z"/><path d="M666.59,177.19a13,13,0,0,1-.8,1.63h6.69v3.11a1.65,1.65,0,0,1-.4,1.17,1.63,1.63,0,0,1-1.19.45c-.3,0-.68,0-1.14,0l-.12-.59a10.23,10.23,0,0,0,1.12,0,1.19,1.19,0,0,0,.81-.26,1.21,1.21,0,0,0,.28-.85v-2.49h-3.11v3.81h-.6v-3.81h-3v3.83h-.61v-3.83h-3v4.24h-.64v-4.78h4.3a16.36,16.36,0,0,0,.81-1.63h-6.37v-.54h14.17v.54ZM667,172v3.78h-.63V172h-5.71v2.24H660V171.5h6.33v-1.41h-5.54v-.5h11.68v.5H667v1.41h6.31v2.65h-.62V172Zm-5.16,1.23h3.35v.44h-3.35Zm0,1.57h3.35v.44h-3.35Zm6.34,0h3.35v.44h-3.35Zm0-1.57h3.33v.44h-3.33Z"/><path d="M675.16,181.05c2.29-1.28,4.38-2.55,6.26-3.83l.25.59q-2.67,1.81-6.15,3.84Zm7.68-6v6.57a1.92,1.92,0,0,1-.44,1.41,2,2,0,0,1-1.47.44c-.29,0-.81,0-1.55,0l-.08-.67c.31,0,.81.05,1.48.07a1.7,1.7,0,0,0,1.1-.29,1.47,1.47,0,0,0,.31-1v-9h-6.78V172h6.78v-3.32h.65V172h6.61v.62h-6.61v1a14.89,14.89,0,0,0,1.75,3.53,43.74,43.74,0,0,0,3.52-3.07l.47.47c-1.16,1.09-2.37,2.12-3.61,3.09a14.76,14.76,0,0,0,4.72,3.84l-.37.61a15.86,15.86,0,0,1-4.35-3.45A14.52,14.52,0,0,1,682.84,175.08Zm-6.3-.59L677,174q1.44,1.09,2.91,2.31l-.43.5C678.32,175.88,677.35,175.1,676.54,174.49Zm8.25-5,.46-.38a25.64,25.64,0,0,1,2.28,2l-.47.39C686.5,171,685.75,170.32,684.79,169.54Z"/><path d="M699.24,171.39h6.54V172h-9.35c0,1.21-.08,2.12-.11,2.73a4.39,4.39,0,0,0,0,.52h7.34c-.14,2.93-.23,4.74-.28,5.44a2.64,2.64,0,0,1-.8,1.91,3.12,3.12,0,0,1-2,.56c-1,0-1.71,0-2.26-.08l-.08-.67c.81.07,1.54.11,2.21.11a2.6,2.6,0,0,0,1.61-.41,2.13,2.13,0,0,0,.62-1.55c.08-1.23.16-2.79.25-4.69h-6.7a11.7,11.7,0,0,1-1.28,4.46,12,12,0,0,1-3.18,3.45l-.49-.52a11.17,11.17,0,0,0,3.22-3.53,12.59,12.59,0,0,0,1.12-4.77c.07-.88.12-1.86.15-3H691.3v-.62h7.24c-.44-1.15-.77-2-1-2.55l.65-.17C698.59,169.68,699,170.58,699.24,171.39Z"/><path d="M711,176.35v7.34h-.6v-8.48a18.17,18.17,0,0,1-3.22,5.33l-.39-.52a17.11,17.11,0,0,0,3.43-5.86H707v-.6h3.34v-3.11l-2.83.23-.11-.59a52.58,52.58,0,0,0,6-.65l.16.59c-.55.09-1.44.21-2.65.36v3.17h3v.6h-3V176l.25-.22c1.13,1.18,2,2.06,2.52,2.65l-.43.47Q711.86,177.3,711,176.35Zm3.94-5.93h5.62v12.64h-.63v-1.49h-4.37v1.58h-.62Zm5,10.53V171h-4.37V181Z"/><path d="M726.56,169.69c1.17,1.36,2.12,2.55,2.88,3.56l-.46.49c-1-1.35-1.9-2.51-2.68-3.47a18.31,18.31,0,0,1-3.34,4.91l-.37-.56a16.61,16.61,0,0,0,3.71-5.93l.62.1Zm0,11.67,1.36,1.53-.41.46q-2.06-2.37-3.65-3.94l.41-.42c.48.45,1.1,1.09,1.85,1.91a26.68,26.68,0,0,0,2.21-3.88h-5v-.57H729V177A34.17,34.17,0,0,1,726.56,181.36Zm-1.13-8.06.49-.25a20.93,20.93,0,0,1,1.23,2.21l-.51.26C726.37,175,726,174.25,725.43,173.3Zm8,6.29q1.92,1.47,4.07,3.47l-.4.49c-1.39-1.29-2.68-2.42-3.85-3.39a5.08,5.08,0,0,1-.69,1.15,11.74,11.74,0,0,1-3.25,2.38l-.41-.5a9.51,9.51,0,0,0,3.43-2.64,4.23,4.23,0,0,0,.61-1.73c.07-.57.11-1.19.13-1.83v-2.4h.6V177a14.25,14.25,0,0,1-.13,2A4.46,4.46,0,0,1,733.38,179.59Zm.26-9.33c-.25,1-.47,1.72-.66,2.32h3.45v7.47h-.6v-6.9h-5v6.93h-.6v-7.5h2.12c.25-.74.48-1.52.69-2.32h-3.57v-.57h7.93v.57Z"/><path d="M749.91,178.87v2.55a2,2,0,0,1-.49,1.52,2.35,2.35,0,0,1-1.52.43,16.89,16.89,0,0,1-1.84-.08l-.09-.64c.74,0,1.33.08,1.79.08a2.17,2.17,0,0,0,1.17-.31,1.44,1.44,0,0,0,.33-1.1v-2.45H738.51v-.57h10.75v-1.37h.65v1.37h3.34v.57Zm1-5.59h-9.87v.84a1.61,1.61,0,0,0,.34,1.16,2,2,0,0,0,1.21.36q3.5.06,7.27,0a4,4,0,0,0,1.5-.27,1.29,1.29,0,0,0,.64-.8,11.68,11.68,0,0,0,.31-1.4l.62.19c-.08.45-.19.93-.32,1.46a1.94,1.94,0,0,1-.85,1.08,4.39,4.39,0,0,1-1.82.32c-2.5.06-5,.06-7.48,0a2.46,2.46,0,0,1-1.59-.47,2.1,2.1,0,0,1-.49-1.55v-4.63h10.53Zm-.64-.59v-2.55h-9.23v2.55Zm-8.78,7.15.43-.48c1.1.73,2.07,1.41,2.91,2l-.44.51C743.49,181.2,742.53,180.51,741.51,179.84Z"/><path d="M756,181.83v1.6h-.64v-12H757a24.79,24.79,0,0,0,1.1-2.81l.65.15c-.27.8-.62,1.68-1,2.66h2.94v11.79h-.64v-1.44Zm0-5.46h4v-4.26h-4Zm0,4.84h4V177h-4Zm7.5-9.78h4.74q-.18,7.92-.21,9.22a2.92,2.92,0,0,1-.62,2,2.47,2.47,0,0,1-1.85.67c-.73,0-1.44,0-2.12-.09l-.08-.69c.88.07,1.57.11,2.07.11a2,2,0,0,0,1.47-.49,2.4,2.4,0,0,0,.49-1.6c.07-2.9.13-5.74.2-8.51h-4.37a23.08,23.08,0,0,1-1.53,2.74l-.56-.33a20.48,20.48,0,0,0,2.7-5.81l.62.18C764.25,169.58,763.94,170.44,763.53,171.43Zm-1.14,4,.51-.33c.62.82,1.4,1.88,2.35,3.19l-.54.39C764.08,177.76,763.3,176.68,762.39,175.46Z"/><path d="M770.21,175.42h14.71v.67H770.21Z"/><path d="M790.42,181.7q1.62-.25,3.12-.54l.09.6q-3.28.65-7.29,1.12l-.12-.64,3.58-.46v-3.19h-3V178h3v-2h.62v2h2.88v.58h-2.88Zm2.08-6.77q-2.36.21-5.69.38l-.11-.51a1.55,1.55,0,0,0,.52-.42,37.83,37.83,0,0,0,2.3-3.84h-2.94v-.61h7.08v.61h-3.45q-1.05,2-2.48,4.15c1.49-.08,3-.18,4.46-.31-.32-.53-.77-1.26-1.36-2.19l.51-.28c.89,1.42,1.64,2.65,2.24,3.71l-.53.33Zm5,4.61a15.13,15.13,0,0,0,3.63,3.53l-.41.59a17.69,17.69,0,0,1-3.61-3.56,17.25,17.25,0,0,1-4,3.69l-.43-.52a16.2,16.2,0,0,0,4-3.71c-.1-.15-.19-.3-.26-.43a14.58,14.58,0,0,1-1.72-5.15,13.79,13.79,0,0,1-.73,1.23l-.48-.46a18.68,18.68,0,0,0,2.53-6.11l.66.13a22.36,22.36,0,0,1-.93,3h5.08v.6h-1.34a15.89,15.89,0,0,1-1.7,6.62C797.71,179.21,797.59,179.41,797.5,179.54Zm-.38-.55.2-.33a15.38,15.38,0,0,0,1.64-6.33h-3.39c-.15.35-.27.61-.36.77a15.19,15.19,0,0,0,1.77,5.62C797,178.83,797.09,178.92,797.12,179Z"/><path d="M806.83,179.36c.76.67,1.51,1.33,2.27,2l-.43.52c-.67-.61-1.4-1.26-2.19-1.94A12.12,12.12,0,0,1,805,181.8a24,24,0,0,1-1.83,1.71l-.47-.49a15.05,15.05,0,0,0,3.28-3.53c-1-.86-1.8-1.52-2.4-2,.39-1.37.77-3,1.13-4.82h-2v-.59h2.11c.22-1.3.38-2.44.49-3.42l.65.05c-.12,1-.28,2.15-.49,3.37h3.06v.57A17.29,17.29,0,0,1,806.83,179.36Zm-.53-.42a16.12,16.12,0,0,0,1.57-6.26h-2.53c-.31,1.63-.66,3.16-1.06,4.59Zm7.26-2.45v4.82a2.38,2.38,0,0,1-.41,1.52,2,2,0,0,1-1.41.49,8.79,8.79,0,0,1-1.56-.07l-.1-.65a14.49,14.49,0,0,0,1.53.1,1.61,1.61,0,0,0,1-.35,1.94,1.94,0,0,0,.28-1.16v-4.7h-4.27v-.63h4.27v-2.17q2-1.89,3-3.11h-6.36V170h7.19v.57l-1.48,1.62c-.67.71-1.24,1.29-1.72,1.75v1.94h3.92v.63Z"/><path d="M818.48,174h2.77v7.66c.78-.57,1.54-1.19,2.28-1.84l.32.52q-1.49,1.27-3.18,2.61l-.38-.52a1.62,1.62,0,0,0,.25-.31,1.34,1.34,0,0,0,.08-.46v-7h-2.14Zm.89-4.48.5-.42c1.13,1.16,1.94,2,2.43,2.56l-.51.46C821,171.16,820.17,170.3,819.37,169.49Zm8.91,8.4v5.84h-.64v-5.84h-4.78v-.62h4.78v-6.83h-4.1v-.62h9.06v.62h-4.32v6.83h5v.62Zm-4.59-5.52.54-.3c.72,1.16,1.37,2.27,2,3.35l-.56.3C825,174.58,824.35,173.47,823.69,172.37Zm8.07-.28.59.26c-.65,1.18-1.34,2.31-2.06,3.38l-.54-.27A38,38,0,0,0,831.76,172.09Z"/><path d="M834.54,183.79a1.82,1.82,0,0,0,.85-1.54l-.08,0a.55.55,0,0,1-.4-.18.53.53,0,0,1-.16-.39.56.56,0,0,1,.15-.41.51.51,0,0,1,.41-.16.49.49,0,0,1,.42.18,1,1,0,0,1,.18.6,3,3,0,0,1-.24,1.23,2.45,2.45,0,0,1-.85.93Z"/><path d="M852.09,171.78h4.25v.64H853.1v4.44h4v.62h-4v6.15h-.65v-6.15h-5a7.83,7.83,0,0,1-1,3.53,10.36,10.36,0,0,1-2.9,2.78l-.49-.49a9.93,9.93,0,0,0,2.76-2.56,6.93,6.93,0,0,0,.95-3.26h-4.26v-.62h4.3c0-.25,0-.5,0-.75v-3.69h-3.5v-.64h4.29c-.6-1-1.2-2-1.8-2.8l.59-.24c.72,1,1.37,2,2,3h3a27.28,27.28,0,0,0,1.85-3.11l.62.25A25.28,25.28,0,0,1,852.09,171.78Zm.36,5.08v-4.44h-5v3.64c0,.27,0,.54,0,.8Z"/><path d="M868.35,179.74a1.26,1.26,0,0,1,.07.16,8.45,8.45,0,0,0,.93,1.88c.48.68.93,1,1.36,1a.93.93,0,0,0,.44-.18,1.58,1.58,0,0,0,.39-.68,16.3,16.3,0,0,0,.52-2.19l.59.21a20,20,0,0,1-.55,2.22q-.45,1.32-1.38,1.32a2,2,0,0,1-1.57-.86,6.5,6.5,0,0,1-1.12-1.93l-.15-.34a20.47,20.47,0,0,1-3.35,3l-.41-.49a19.42,19.42,0,0,0,3.51-3.22A17.36,17.36,0,0,1,867,177a40,40,0,0,1-.54-4.51h-6.21v2.88h4.23c0,1.36-.07,2.72-.11,4.08a2.39,2.39,0,0,1-.49,1.57,2.23,2.23,0,0,1-1.47.48,13.21,13.21,0,0,1-1.33-.07l-.06-.64a6.88,6.88,0,0,0,1.29.09,1.8,1.8,0,0,0,1.09-.32,1.66,1.66,0,0,0,.33-1.17l.12-3.43h-3.6v.31a17,17,0,0,1-.39,4,13.07,13.07,0,0,1-1.49,3.37l-.57-.38a11.15,11.15,0,0,0,1.42-3.15,16.88,16.88,0,0,0,.38-3.88v-4.34h6.83c0-.71-.09-1.79-.13-3.24h.65c0,1.06.09,2.11.13,3.15v.09h5.28v.6h-5.25a34,34,0,0,0,.46,4.12c.19,1,.38,1.79.57,2.44a22.13,22.13,0,0,0,2.6-4.83l.57.25a22.84,22.84,0,0,1-2.77,5.08Zm.07-10.28.39-.48c.52.41,1.27,1,2.24,1.88l-.38.48A23.8,23.8,0,0,0,868.42,169.46Z"/><path d="M877.75,179.71c1.32-.36,2.23-.62,2.73-.77l.15.62q-2.89.88-6.26,1.62l-.2-.66,2.93-.67v-8.5h-2.52v-.63h5.49v.63h-2.32Zm5.69-7.51h4.64c-.12,3.93-.21,6.74-.26,8.45a2.68,2.68,0,0,1-.59,1.87,2.4,2.4,0,0,1-1.76.57c-.64,0-1.26,0-1.88-.05l-.13-.67c.62.06,1.24.1,1.87.1a1.84,1.84,0,0,0,1.39-.44,2.24,2.24,0,0,0,.46-1.48q.09-2.45.21-7.73h-4c0,.16,0,.31,0,.46a19.63,19.63,0,0,1-1.08,6.11,11,11,0,0,1-3.22,4.29l-.52-.44a10.94,10.94,0,0,0,3.12-4,18,18,0,0,0,1-5.93c0-.15,0-.29,0-.45H880.3v-.62h2.49c0-1.17.06-2.35.08-3.53h.65C883.5,169.85,883.47,171,883.44,172.2Z"/><path d="M898.66,171.09h5.51v.62H892.22v4.12a18.75,18.75,0,0,1-.42,4.22,12.25,12.25,0,0,1-1.63,3.71l-.58-.41a10.85,10.85,0,0,0,1.52-3.33,17.1,17.1,0,0,0,.44-4.17v-4.76h6.38c-.47-1-.85-1.79-1.15-2.37l.64-.19A22.64,22.64,0,0,1,898.66,171.09Zm1.54,11h4.23v.62H892.57v-.62h6.94q1.82-4.23,3.11-8.25l.62.21Q901.82,178.37,900.2,182.09Zm-6.77-7.71.61-.18c.86,2.21,1.59,4.17,2.21,5.86l-.61.22C894.84,178.05,894.11,176.09,893.43,174.38Zm3.73-.87.6-.13c.6,2.06,1.13,3.92,1.57,5.57l-.62.18C898.31,177.58,897.79,175.7,897.16,173.51Z"/><path d="M918.71,178.58h-4.87v4.57h-.66v-4.57h-4.8a11.32,11.32,0,0,1-.52,2.81,10.28,10.28,0,0,1-1.26,2.35l-.61-.37a9.44,9.44,0,0,0,1.46-3,19.43,19.43,0,0,0,.36-4.24v-6.4h11.55v11.81a2.06,2.06,0,0,1-.42,1.44,2.15,2.15,0,0,1-1.44.46c-.63,0-1.19,0-1.68,0l-.12-.65,1.65.06a1.56,1.56,0,0,0,1.07-.29,1.52,1.52,0,0,0,.29-1.05Zm-5.53-.64v-3.45h-4.72v1.65q0,.63,0,1.8Zm0-4.07v-3.51h-4.72v3.51Zm5.53,0v-3.51h-4.87v3.51Zm0,4.07v-3.45h-4.87v3.45Z"/><path d="M929.65,176v5.18a2.41,2.41,0,0,1-.46,1.65,2.34,2.34,0,0,1-1.72.54c-.85,0-1.55,0-2.1-.07l-.15-.7a20.88,20.88,0,0,0,2.11.1,1.77,1.77,0,0,0,1.27-.36,1.82,1.82,0,0,0,.34-1.28V176h-7.37v-.67h7.37v-4.75h-6v-.66H935v.66h-5.39v4.75h6.7V176Z"/><path d="M946.26,180.8a12.42,12.42,0,0,0,4.53-3.53h-6.38c-.16.12-.42.29-.77.51a29.52,29.52,0,0,1-4.25,2.12l-.31-.57a28.37,28.37,0,0,0,4.12-2,15.37,15.37,0,0,0,3-2.3l.6.26a14,14,0,0,1-1.58,1.41h6.4v.57a13,13,0,0,1-4.93,4,31.8,31.8,0,0,1-8.26,2.45l-.19-.59a33.22,33.22,0,0,0,7.42-2.09c-.67-.57-1.51-1.24-2.52-2l.47-.42C944.69,179.49,945.58,180.21,946.26,180.8Zm-1.18-6.7.17-.07a16.12,16.12,0,0,0,4.7-3.09H943a24.68,24.68,0,0,1-3.92,2.39l-.34-.52a25.78,25.78,0,0,0,3.38-2,14.56,14.56,0,0,0,2.53-2.26l.64.25a14.77,14.77,0,0,1-1.59,1.55h7.11v.54a15.22,15.22,0,0,1-5,3.52,33.27,33.27,0,0,1-7.4,2.32l-.23-.59a37.18,37.18,0,0,0,6.23-1.8c-1-.78-1.8-1.42-2.45-1.9l.44-.42C943.51,172.83,944.38,173.52,945.08,174.1Z"/><path d="M961.1,169.52a18.73,18.73,0,0,0,7.15,6.08l-.4.62a21.24,21.24,0,0,1-4-2.73,17.65,17.65,0,0,1-3.08-3.41,22.25,22.25,0,0,1-7.07,6.34l-.43-.59a23.28,23.28,0,0,0,4.53-3.33,16.22,16.22,0,0,0,3.07-3.91l.67.2C961.38,169,961.24,169.28,961.1,169.52Zm-.72,4.79h.69v9.38h-.69Z"/><path d="M969.43,182q2.28-.48,5.28-1.36l.09.58c-1.52.49-3.26.95-5.21,1.4Zm3.72-8q.74-1.12,1.23-2l.56.28a66.1,66.1,0,0,1-4,5.87q2.06-.19,3.45-.36l0,.59-4.47.46-.13-.54a2.24,2.24,0,0,0,.66-.53c.54-.68,1.19-1.59,2-2.73l.28-.42-3.19.15-.12-.53a1.49,1.49,0,0,0,.53-.45,38,38,0,0,0,2.87-5.09l.61.25c-.37.76-.85,1.65-1.42,2.66s-1.14,1.87-1.59,2.54Zm6.69,6.23.15.31c.68,1.53,1.4,2.29,2.15,2.29a.8.8,0,0,0,.53-.2,2.13,2.13,0,0,0,.44-.73,19.12,19.12,0,0,0,.55-2.11l.56.25a16.25,16.25,0,0,1-.54,2.1c-.32.91-.82,1.36-1.52,1.36-1,0-1.92-.9-2.76-2.71a1.29,1.29,0,0,1-.1-.22,23.49,23.49,0,0,1-4.4,2.2l-.29-.56a25.39,25.39,0,0,0,4.46-2.21,19.44,19.44,0,0,1-.9-3.48l-3.07.49-.1-.59,3.07-.49-.06-.47q-.1-.74-.21-2.13l-2.59.31-.08-.58,2.62-.33c-.08-1.07-.13-2.4-.17-4h.66c0,1.37.07,2.68.14,3.92l5.12-.64.07.61-5.14.63c.05.69.11,1.36.2,2,0,.14,0,.33.08.56l5.23-.84.08.61-5.23.81a17.41,17.41,0,0,0,.82,3.22,19.48,19.48,0,0,0,3.06-2.61l.44.42A20.38,20.38,0,0,1,979.84,180.21Zm.15-11,.52-.26c.47.7.92,1.45,1.36,2.25l-.54.3C981,170.88,980.53,170.12,980,169.26Z"/><path d="M992.57,182.09h7.65v.66H985.56v-.66h6.31V168.67h.7v5.25h6.18v.64h-6.18Z"/><path d="M1005.2,176.35v7.34h-.61v-8.48a18,18,0,0,1-3.22,5.33L1001,180a17,17,0,0,0,3.43-5.86h-3.15v-.6h3.33v-3.11l-2.82.23-.12-.59a52.09,52.09,0,0,0,6-.65l.17.59c-.56.09-1.44.21-2.65.36v3.17h3v.6h-3V176l.24-.22c1.14,1.18,2,2.06,2.52,2.65l-.42.47C1006.56,177.83,1005.79,177,1005.2,176.35Zm3.94-5.93h5.62v12.64h-.64v-1.49h-4.36v1.58h-.62Zm5,10.53V171h-4.36V181Z"/><path d="M1016.88,182q2.29-.48,5.28-1.36l.1.58c-1.53.49-3.27.95-5.22,1.4Zm3.73-8c.49-.75.89-1.42,1.22-2l.56.28a64,64,0,0,1-4,5.87c1.37-.13,2.53-.25,3.45-.36l0,.59-4.46.46-.14-.54a2.24,2.24,0,0,0,.66-.53c.54-.68,1.2-1.59,2-2.73l.28-.42-3.19.15-.11-.53a1.46,1.46,0,0,0,.52-.45,39.12,39.12,0,0,0,2.88-5.09l.6.25c-.37.76-.84,1.65-1.42,2.66s-1.14,1.87-1.59,2.54Zm6.68,6.23c.06.11.1.21.15.31.68,1.53,1.4,2.29,2.16,2.29a.78.78,0,0,0,.52-.2,2.13,2.13,0,0,0,.44-.73,18.92,18.92,0,0,0,.56-2.11l.55.25a16.25,16.25,0,0,1-.54,2.1c-.31.91-.82,1.36-1.52,1.36-1,0-1.92-.9-2.76-2.71,0-.09-.08-.16-.1-.22a23.49,23.49,0,0,1-4.4,2.2l-.29-.56a25.39,25.39,0,0,0,4.46-2.21,19.44,19.44,0,0,1-.9-3.48l-3.07.49-.1-.59,3.08-.49c0-.15,0-.31-.07-.47q-.11-.74-.21-2.13l-2.58.31-.09-.58,2.62-.33c-.08-1.07-.13-2.4-.16-4h.65c0,1.37.07,2.68.15,3.92L1031,172l.07.61-5.13.63c0,.69.1,1.36.19,2,0,.14,0,.33.08.56l5.23-.84.08.61-5.22.81a16.66,16.66,0,0,0,.81,3.22,19,19,0,0,0,3.06-2.61l.44.42A19.54,19.54,0,0,1,1027.29,180.21Zm.15-11,.52-.26c.47.7.92,1.45,1.36,2.25l-.54.3C1028.43,170.88,1028,170.12,1027.44,169.26Z"/><path d="M1039.43,170.7v13h-.7v-13h-6.34v-.64H1047v.64Zm.79,4.13.39-.52c1.89,1.14,3.58,2.23,5.08,3.29l-.4.57Q1042.91,176.49,1040.22,174.83Z"/><path d="M1047.91,174l.29-.57c1.19.51,2.27,1,3.24,1.51l-.32.57C1049.94,175,1048.86,174.46,1047.91,174Zm.89,9.24q1.08-2.67,2-5.71l.62.2c-.61,2-1.29,3.9-2,5.77Zm.15-13.37.33-.57c.82.41,1.81.94,3,1.6l-.32.57C1051,170.94,1050,170.41,1049,169.9Zm12,12.6h-6.8v1.16h-.66v-6.34h3.71v-3h-4.9v-.61h4.9v-3.18l-4.08.16-.09-.6c3.17-.07,6.06-.27,8.7-.59l.15.59q-1.92.24-4,.39v3.23h5v.61h-5v3h3.74v6.34h-.65Zm0-.6v-4h-6.8v4Z"/><path d="M1070.55,181c-1.88.27-3.72.48-5.54.62l-.18-.54a2.5,2.5,0,0,0,.46-.46,41.41,41.41,0,0,0,2.22-5.57h-3.06v-.62h7.16v.62h-3.43a53,53,0,0,1-2.37,5.88q2.1-.15,4.53-.51l-1.41-3.38.56-.2q.77,1.77,1.94,4.66l-.57.26C1070.73,181.42,1070.62,181.16,1070.55,181Zm-5.22-10.77H1071v.58h-5.63Zm9.14,1.91h3.86q-.18,6.72-.28,9.07a2.2,2.2,0,0,1-.49,1.45,2,2,0,0,1-1.42.48,8.84,8.84,0,0,1-1.62-.07l-.11-.67a10.5,10.5,0,0,0,1.58.1,1.55,1.55,0,0,0,1.08-.33,1.64,1.64,0,0,0,.36-1.08q.16-4.31.23-8.33h-3.2c0,.16,0,.32,0,.47a23.79,23.79,0,0,1-.79,6.07,12.7,12.7,0,0,1-2.46,4.43l-.56-.4a11.58,11.58,0,0,0,2.42-4.25,23,23,0,0,0,.75-5.91c0-.13,0-.27,0-.41h-2.21v-.62h2.22v-.07c0-.8,0-1.95,0-3.43h.63q0,.68,0,3.45Z"/><path d="M1082.83,183.45a1.63,1.63,0,0,1-1.2-.49,1.67,1.67,0,0,1-.49-1.2,1.63,1.63,0,0,1,.49-1.19,1.68,1.68,0,0,1,2.41,0,1.63,1.63,0,0,1,.49,1.19,1.67,1.67,0,0,1-.49,1.2A1.64,1.64,0,0,1,1082.83,183.45Zm0-.48a1.23,1.23,0,0,0,.86-.32,1.21,1.21,0,0,0,.35-.89,1.15,1.15,0,0,0-1.21-1.21,1.13,1.13,0,0,0-.85.33,1.21,1.21,0,0,0,.85,2.09Z"/><path d="M1100,177.66v3.52a1.37,1.37,0,0,0,.32,1,1.65,1.65,0,0,0,1.06.36,10.39,10.39,0,0,0,1.37,0,2.81,2.81,0,0,0,1.21-.33,1.37,1.37,0,0,0,.51-.91c0-.3.1-.76.16-1.37l.61.18c-.07.61-.14,1.1-.2,1.47a1.65,1.65,0,0,1-.67,1.14,3.55,3.55,0,0,1-1.54.41,13.88,13.88,0,0,1-1.58,0,2.29,2.29,0,0,1-1.46-.49,2,2,0,0,1-.44-1.42v-3.6h-3.09a8.46,8.46,0,0,1,0,1,5.09,5.09,0,0,1-1.39,3.16,8.19,8.19,0,0,1-3.61,1.86l-.31-.59a8.41,8.41,0,0,0,3.35-1.67,4.32,4.32,0,0,0,1.29-2.76c0-.2,0-.55.07-1h-4.5v-.6h13.75v.6Zm-1.48-7h6v2.9h-.65v-2.29h-11.7v2.35h-.64v-3h6.31c-.27-.7-.54-1.33-.8-1.88l.67-.14C1098,169.34,1098.3,170,1098.53,170.63Zm-5.33,3.19h9.58v.61h-9.58Z"/><path d="M1117,179.74a.59.59,0,0,1,.07.16,8.45,8.45,0,0,0,.93,1.88c.48.68.93,1,1.36,1a.93.93,0,0,0,.44-.18,1.58,1.58,0,0,0,.39-.68,14.88,14.88,0,0,0,.52-2.19l.59.21a18,18,0,0,1-.55,2.22c-.3.88-.75,1.32-1.38,1.32a2,2,0,0,1-1.57-.86,6.5,6.5,0,0,1-1.12-1.93l-.15-.34a20.47,20.47,0,0,1-3.35,3l-.41-.49a19.42,19.42,0,0,0,3.51-3.22,17.36,17.36,0,0,1-.65-2.67,40,40,0,0,1-.54-4.51h-6.21v2.88h4.23c0,1.36-.07,2.72-.11,4.08a2.39,2.39,0,0,1-.49,1.57,2.19,2.19,0,0,1-1.47.48,13.21,13.21,0,0,1-1.33-.07l-.06-.64a6.88,6.88,0,0,0,1.29.09,1.86,1.86,0,0,0,1.1-.32,1.72,1.72,0,0,0,.32-1.17c.05-1.15.08-2.29.12-3.43h-3.6v.31a17,17,0,0,1-.39,4,13.07,13.07,0,0,1-1.49,3.37l-.57-.38a10.88,10.88,0,0,0,1.42-3.15,16.88,16.88,0,0,0,.38-3.88v-4.34h6.83c0-.71-.09-1.79-.13-3.24h.65c0,1.06.09,2.11.13,3.15v.09H1121v.6h-5.24a32.23,32.23,0,0,0,.45,4.12,24.16,24.16,0,0,0,.58,2.44,22.56,22.56,0,0,0,2.59-4.83l.58.25a23.25,23.25,0,0,1-2.78,5.08Zm.07-10.28.39-.48c.52.41,1.27,1,2.24,1.88l-.37.48A25.31,25.31,0,0,0,1117.06,169.46Z"/><path d="M1124.06,181.83v1.6h-.64v-12h1.65a26.83,26.83,0,0,0,1.1-2.81l.65.15c-.27.8-.62,1.68-1,2.66h3v11.79h-.64v-1.44Zm0-5.46h4v-4.26h-4Zm0,4.84h4V177h-4Zm7.5-9.78h4.74q-.18,7.92-.21,9.22a2.92,2.92,0,0,1-.62,2,2.49,2.49,0,0,1-1.85.67c-.73,0-1.44,0-2.12-.09l-.09-.69c.89.07,1.58.11,2.08.11a2,2,0,0,0,1.47-.49,2.46,2.46,0,0,0,.49-1.6c.07-2.9.13-5.74.2-8.51h-4.37a23.08,23.08,0,0,1-1.53,2.74l-.56-.33a20.48,20.48,0,0,0,2.7-5.81l.62.18C1132.28,169.58,1132,170.44,1131.56,171.43Zm-1.14,4,.5-.33c.62.82,1.41,1.88,2.36,3.19l-.54.39C1132.1,177.76,1131.33,176.68,1130.42,175.46Z"/><path d="M1138.07,182.45h14.55V183h-14.55Zm7.84-12h6v3h-.64V171h-11.82v2.44h-.65v-3h6.42c-.25-.7-.47-1.28-.65-1.75l.65-.15C1145.36,169,1145.6,169.59,1145.91,170.47Zm4.37,10.18h-9.87v-5.54h9.87Zm-9.61-7.81H1150v.52h-9.31Zm9,4.79v-2H1141v2Zm0,2.48v-2H1141v2Z"/><path d="M524.93,196.35v11.33h-.62v-10.1a24,24,0,0,1-2.32,3.49l-.36-.57a21.84,21.84,0,0,0,2.37-3.71,30.17,30.17,0,0,0,1.68-4.08l.62.19A28.46,28.46,0,0,1,524.93,196.35Zm7.23,9.5,2.35,1.37-.33.56c-1.88-1.12-4-2.34-6.49-3.67l.35-.55c1.19.65,2.37,1.31,3.53,2a46.85,46.85,0,0,0,3-3.6h-6.47v-.55c.32-.88.61-1.72.86-2.52h-2.92v-.59h3.09q.44-1.51.72-2.55h-2.93v-.6H530c.22-.9.4-1.7.54-2.42l.66.08q-.26,1.08-.54,2.34h5.08v.6h-5.23q-.16.63-.72,2.55h6.69v.59h-6.87c-.28.87-.56,1.7-.83,2.48h6.62v.59Q533.66,204.23,532.16,205.85Z"/><path d="M538,198l.34-.54c1,.57,2,1.13,2.84,1.69l-.34.55C539.76,199,538.81,198.44,538,198Zm.39,9.19c.83-1.86,1.58-3.71,2.27-5.58l.59.27q-1,2.84-2.26,5.58Zm.37-13.37.33-.53c.79.45,1.69,1,2.71,1.7l-.31.54C540.62,195,539.71,194.38,538.77,193.82Zm12.33,6.94h1.81v.59h-1.83s0,1.15-.11,3.39h1.55v.58H551v.09a2.68,2.68,0,0,1-.51,1.63,2,2,0,0,1-1.53.51c-.54,0-1.14,0-1.82-.07l-.11-.57c.65,0,1.26.06,1.81.06a1.58,1.58,0,0,0,1.16-.36,1.91,1.91,0,0,0,.38-1.22v-.07h-7.42l.47-4h-1.75v-.59h1.82l.47-4h7.31C551.19,198.1,551.14,199.43,551.1,200.76Zm-6.44-6.42h7.83v.57h-8.14a22.74,22.74,0,0,1-2.19,3l-.48-.42a18.18,18.18,0,0,0,3.13-4.86l.62.16A15.09,15.09,0,0,1,544.66,194.34Zm5.8,7H544l-.4,3.39h6.75C550.38,204,550.42,202.83,550.46,201.35Zm0-.59c0-1.13.08-2.27.11-3.41h-6.11l-.41,3.41Zm-4.56,1.67.37-.39c.34.26,1,.79,2.06,1.6l-.39.44Q546.84,203.12,545.92,202.43Zm.28-4,.37-.39c.55.43,1.21,1,2,1.63l-.37.39Z"/><path d="M557.78,201v4.85a1.82,1.82,0,0,1-.31,1.2,1.61,1.61,0,0,1-1.11.37,6.68,6.68,0,0,1-1.27-.06l-.09-.64a8,8,0,0,0,1.21.1,1.2,1.2,0,0,0,.74-.25,1.27,1.27,0,0,0,.21-.83v-4.5c-.61.21-1.45.5-2.53.85l-.18-.62c.61-.18,1.51-.47,2.71-.86v-3.91h-2.4v-.6h2.4v-3.39h.62v3.39h2.05v.6h-2.05v3.68c.81-.32,1.45-.58,1.93-.79l.17.58C559.28,200.38,558.58,200.65,557.78,201Zm3.6-1.23v8h-.62V193.62H568c-.07,1.43-.11,2.2-.12,2.32a1.93,1.93,0,0,1-.55,1.33,2.88,2.88,0,0,1-1.61.42,13.92,13.92,0,0,1-1.83-.1l-.09-.57c.72.07,1.32.1,1.81.1a2.31,2.31,0,0,0,1.26-.3,1.3,1.3,0,0,0,.41-.94c0-.74.07-1.31.1-1.69h-6v5h6.78v.58a11.22,11.22,0,0,1-2.4,4.71,14.19,14.19,0,0,0,3.53,2.39l-.33.59a14.33,14.33,0,0,1-3.63-2.5,15.5,15.5,0,0,1-3.35,2.51l-.37-.54a15.32,15.32,0,0,0,3.28-2.42,10.94,10.94,0,0,1-2.35-4.33l.54-.23a10.82,10.82,0,0,0,2.25,4.09,10.29,10.29,0,0,0,2.2-4.27Z"/><path d="M573.12,203.61q1.47-.48,2.19-.69l.13.62q-2.57.92-5.21,1.57l-.19-.67c1.06-.27,1.87-.49,2.44-.65v-8.88h-2.17v-.62h4.87v.62h-2.06Zm7-.35c1.93,1.49,3.54,2.74,4.84,3.78l-.39.52c-1.79-1.46-3.35-2.69-4.68-3.71a5.65,5.65,0,0,1-1.58,2.09,13,13,0,0,1-3.08,1.79l-.32-.58a9.29,9.29,0,0,0,3.8-2.51,5.53,5.53,0,0,0,1.07-3.37c0-.74,0-1.55,0-2.42h.6c0,.75,0,1.57,0,2.44A8,8,0,0,1,580.08,203.26Zm.28-8.94q-.39,1.58-.69,2.55h4V204h-.64v-6.52h-6V204h-.62v-7.15H579c.22-.66.46-1.51.7-2.55h-3.94v-.6h9.07v.6Z"/><path d="M597.46,206.22H588.2v1.42h-.66V193.75h10.59v13.89h-.67Zm0-8.6v-3.25H588.2v3.25Zm0,3.93v-3.32H588.2v3.32Zm0,4v-3.45H588.2v3.45Z"/><path d="M612.79,204.1h-8v3.51h-.65V199a23.41,23.41,0,0,1-3,2.91l-.37-.57a19.81,19.81,0,0,0,5.1-5.9h-4.63v-.61h4.94a22.55,22.55,0,0,0,1-2.27l.67.16a21.2,21.2,0,0,1-.92,2.11h8.63v.61h-8.92a20.5,20.5,0,0,1-1.47,2.32h8.33v7.84A2,2,0,0,1,613,207a2,2,0,0,1-1.39.46,16.14,16.14,0,0,1-1.73-.08l-.11-.61a14.69,14.69,0,0,0,1.68.09,1.52,1.52,0,0,0,1-.3,1.5,1.5,0,0,0,.28-1Zm0-3.43v-2.29h-8v2.29Zm0,2.87v-2.3h-8v2.3Z"/><path d="M621.53,203.18l2.39,2.62-.45.49c-.7-.81-1.47-1.66-2.3-2.57a15.53,15.53,0,0,1-3.86,3.74l-.37-.55a14.72,14.72,0,0,0,3.81-3.66l-2.28-2.41.44-.42c.68.7,1.4,1.46,2.18,2.29a13.9,13.9,0,0,0,1.29-2.91l.57.26A13.27,13.27,0,0,1,621.53,203.18Zm-2-6.29.53.31a21.74,21.74,0,0,1-2.64,3.43l-.42-.41A22.16,22.16,0,0,0,619.55,196.89Zm1.91-1.62h3.14v.59h-7.39v-.59h3.62c-.3-1-.54-1.81-.74-2.47l.62-.13C621,193.56,621.25,194.42,621.46,195.27Zm6.72,8.29a14.79,14.79,0,0,0,3.58,3.45l-.39.59a16.24,16.24,0,0,1-3.56-3.5,17.66,17.66,0,0,1-3.85,3.63l-.44-.51a16.7,16.7,0,0,0,3.89-3.68l-.18-.29a14,14,0,0,1-1.71-4.91,14,14,0,0,1-.84,1.51l-.19-.25-.43.41c-.55-.7-1.32-1.62-2.3-2.78l.46-.34c.81.93,1.5,1.74,2.07,2.44a17.32,17.32,0,0,0,1.52-3.18,24.66,24.66,0,0,0,1-3.53l.62.13a28.35,28.35,0,0,1-.84,3h4.95v.6h-1.34a16.22,16.22,0,0,1-1.63,6.54C628.42,203.18,628.28,203.41,628.18,203.56Zm-.39-.59a3.38,3.38,0,0,0,.24-.41,14.71,14.71,0,0,0,1.57-6.23h-3.2c-.16.43-.32.79-.46,1.1a14.3,14.3,0,0,0,1.77,5.41Z"/><path d="M636.15,200.81v5a1.69,1.69,0,0,1-.38,1.16,1.59,1.59,0,0,1-1.09.43l-1.13,0-.08-.65c.36,0,.72.05,1.08.05a1,1,0,0,0,.72-.25,1.06,1.06,0,0,0,.26-.78v-4.66c-1,.42-1.7.75-2.21,1l-.23-.6,2.44-1v-3.64H633.4v-.61h2.13v-3.44h.62v3.44H638v.61h-1.83v3.38l1.71-.8.17.57C637.41,200.22,636.78,200.52,636.15,200.81Zm3.64,2.4a4.93,4.93,0,0,0,1,2,3.5,3.5,0,0,0,1.86,1.09v-5.25H638v-.55h9.79v.55h-4.54v2.24H647v.56h-3.8v2.53l.44,0c.82,0,2.26,0,4.29,0l-.09.57c-1.46,0-3,0-4.45,0a4.41,4.41,0,0,1-2.7-1,4.32,4.32,0,0,1-1.16-1.85,7.77,7.77,0,0,1-.37,1,9,9,0,0,1-1.88,2.54l-.46-.39a9,9,0,0,0,1.78-2.39,8.8,8.8,0,0,0,.74-3l.6.08C639.91,202.53,639.85,202.94,639.79,203.21Zm6.59-4.36h-7.13v-5.36h7.13Zm-.62-2.94v-1.86h-5.87v1.86Zm0,2.38v-1.86h-5.87v1.86Z"/><path d="M660.33,200.11v7.55h-.67v-7.55h-5.35a9.8,9.8,0,0,1-.86,4.33,10.24,10.24,0,0,1-3.17,3.35l-.49-.5a9.94,9.94,0,0,0,3-3,9,9,0,0,0,.9-4.17H649.3v-.64h4.36v-4.64c-1,.1-2.12.19-3.46.28l-.1-.64a55.38,55.38,0,0,0,7.45-.82l.16.62c-.92.17-2.06.33-3.4.49v4.71h5.35V192.8h.67v6.67H664v.64Z"/><path d="M664.15,194h12.92v.67q-2.91,2.25-5.69,4.17v6.36a1.77,1.77,0,0,1-2.08,2.11c-.62,0-1.28,0-2,0l-.1-.71a18,18,0,0,0,2,.08,1.69,1.69,0,0,0,1.2-.32,1.87,1.87,0,0,0,.32-1.23v-6.57q2.88-2,5.35-3.87H664.15Z"/><path d="M678.47,198l.3-.57c1.18.51,2.26,1,3.23,1.51l-.31.57C680.5,199,679.43,198.46,678.47,198Zm.9,9.24q1.08-2.67,2-5.71l.63.2c-.62,2-1.29,3.9-2,5.77Zm.15-13.37.32-.57c.82.41,1.81.94,3,1.6l-.33.57C681.57,194.94,680.57,194.41,679.52,193.9Zm12,12.6h-6.8v1.16H684v-6.34h3.71v-3h-4.9v-.61h4.9v-3.18l-4.09.16-.08-.6q4.74-.11,8.7-.59l.14.59q-1.9.24-4,.39v3.23h5v.61h-5v3h3.75v6.34h-.66Zm0-.6v-4h-6.8v4Z"/><path d="M701.12,205q-2.82.41-5.55.62l-.18-.54a2.23,2.23,0,0,0,.46-.46,40.1,40.1,0,0,0,2.23-5.57H695v-.62h7.16v.62h-3.43a53,53,0,0,1-2.37,5.88c1.4-.1,2.91-.27,4.52-.51-.47-1.12-.93-2.25-1.4-3.38l.55-.2q.76,1.77,2,4.66l-.57.26C701.29,205.42,701.19,205.16,701.12,205Zm-5.22-10.77h5.62v.58H695.9Zm9.14,1.91h3.86c-.12,4.48-.22,7.5-.28,9.07a2.25,2.25,0,0,1-.49,1.45,2,2,0,0,1-1.42.48,8.75,8.75,0,0,1-1.62-.07l-.12-.67a10.73,10.73,0,0,0,1.59.1,1.55,1.55,0,0,0,1.08-.33,1.76,1.76,0,0,0,.36-1.08c.1-2.87.18-5.65.22-8.33H705a3.62,3.62,0,0,1,0,.47,23.41,23.41,0,0,1-.78,6.07,12.56,12.56,0,0,1-2.47,4.43l-.55-.4a11.58,11.58,0,0,0,2.42-4.25,24,24,0,0,0,.75-5.91c0-.13,0-.27,0-.41h-2.2v-.62h2.22v-.07c0-.8,0-1.95,0-3.43h.64q0,.68,0,3.45Z"/><path d="M712.38,205.83v1.6h-.64v-12h1.65a24.6,24.6,0,0,0,1.09-2.81l.66.15c-.27.8-.62,1.68-1,2.66H717v11.79h-.63v-1.44Zm0-5.46h4v-4.26h-4Zm0,4.84h4V201h-4Zm7.5-9.78h4.74q-.18,7.92-.21,9.22a2.93,2.93,0,0,1-.63,2,2.45,2.45,0,0,1-1.84.67q-1.1,0-2.13-.09l-.08-.69c.88.07,1.57.11,2.08.11a2,2,0,0,0,1.47-.49,2.46,2.46,0,0,0,.49-1.6c.06-2.9.13-5.74.19-8.51H719.6a21.75,21.75,0,0,1-1.54,2.74l-.55-.33a20.73,20.73,0,0,0,2.69-5.81l.63.18C720.6,193.58,720.28,194.44,719.88,195.43Zm-1.15,4,.51-.33c.62.82,1.41,1.88,2.35,3.19l-.54.39C720.42,201.76,719.65,200.68,718.73,199.46Z"/><path d="M729.69,200.31v7.37h-.61v-7.39a17.11,17.11,0,0,1-2.32,2.35l-.26-.63a16.41,16.41,0,0,0,2.44-2.51,13.82,13.82,0,0,0,1.66-2.9h-3.76V196h2.47c-.26-1.24-.52-2.31-.78-3.2l.62-.15c.32,1.25.59,2.36.82,3.35h1.32v.56a15.38,15.38,0,0,1-1.6,2.92v.66l.36-.26c.7.63,1.36,1.27,2,1.93l-.46.4C731,201.58,730.35,200.94,729.69,200.31Zm6.5-4.55.63,0c0,.95-.05,1.89-.07,2.83a10.8,10.8,0,0,1-1.24,5.19,12,12,0,0,1-4.09,3.84l-.42-.49a11.91,11.91,0,0,0,3.94-3.62,9.83,9.83,0,0,0,1.19-4.92Q736.16,197.79,736.19,195.76Zm-3.13-2.11h6.88v8.94h-.64v-8.33h-5.62v8.32h-.62Zm3.62,7.68h.61v4.06a1.16,1.16,0,0,0,.29.83,1.27,1.27,0,0,0,.89.36,4,4,0,0,0,.85,0,2.34,2.34,0,0,0,1-.28,1.24,1.24,0,0,0,.39-.8q.17-1.26.18-1.5l.57.23c0,.44-.1.94-.19,1.47a1.72,1.72,0,0,1-.54,1.11,2.79,2.79,0,0,1-1.32.36,5.26,5.26,0,0,1-.9,0,2,2,0,0,1-1.3-.48,1.84,1.84,0,0,1-.49-1.27Z"/><path d="M749.49,200.58h.62a12,12,0,0,1-.26,2.16,5,5,0,0,1-2,3,14.08,14.08,0,0,1-4.86,2l-.31-.59a14.48,14.48,0,0,0,4.66-1.8,4.48,4.48,0,0,0,1.91-2.66A12.22,12.22,0,0,0,749.49,200.58Zm3.46-4.7h3.58v3h-.64v-2.42H743.8v2.41h-.65v-3h9a36.56,36.56,0,0,0,2.47-3l.63.26C754.53,194,753.77,195,753,195.88Zm-8.53-2.7.62-.26c.69.83,1.27,1.54,1.75,2.14l-.55.31C745.67,194.65,745.06,193.92,744.42,193.18Zm.87,5.54h9.15v5.43h-.64v-4.86h-7.86v4.89h-.65Zm3.48-5.9.6-.18c.65,1.06,1.1,1.82,1.36,2.3l-.61.27C749.78,194.53,749.32,193.74,748.77,192.82Zm1.44,9.87h.62v2.47a1.5,1.5,0,0,0,.31,1.08,1.6,1.6,0,0,0,1.06.36c.76,0,1.54,0,2.32,0a2.48,2.48,0,0,0,1.23-.31,1.66,1.66,0,0,0,.5-1c.08-.46.14-.92.18-1.39l.61.21c-.06.49-.12,1-.2,1.41a2.12,2.12,0,0,1-.65,1.24,3.19,3.19,0,0,1-1.59.43c-.84,0-1.68,0-2.53,0a2.27,2.27,0,0,1-1.42-.49,2,2,0,0,1-.44-1.44Z"/><path d="M763,203.18l2.39,2.62-.44.49c-.71-.81-1.48-1.66-2.31-2.57a15.36,15.36,0,0,1-3.86,3.74l-.37-.55a14.72,14.72,0,0,0,3.81-3.66l-2.28-2.41.45-.42c.67.7,1.4,1.46,2.17,2.29a13.9,13.9,0,0,0,1.29-2.91l.57.26A13.27,13.27,0,0,1,763,203.18Zm-2-6.29.53.31a22.31,22.31,0,0,1-2.63,3.43l-.43-.41A22.16,22.16,0,0,0,761,196.89Zm1.92-1.62H766v.59h-7.38v-.59h3.61c-.3-1-.54-1.81-.74-2.47l.62-.13C762.42,193.56,762.67,194.42,762.89,195.27Zm6.71,8.29a15,15,0,0,0,3.58,3.45l-.39.59a16.24,16.24,0,0,1-3.56-3.5,17.82,17.82,0,0,1-3.84,3.63l-.44-.51a16.83,16.83,0,0,0,3.88-3.68l-.17-.29a13.85,13.85,0,0,1-1.72-4.91,16,16,0,0,1-.83,1.51l-.2-.25-.43.41c-.55-.7-1.32-1.62-2.3-2.78l.46-.34c.82.93,1.51,1.74,2.07,2.44a17.32,17.32,0,0,0,1.52-3.18,23.43,23.43,0,0,0,1-3.53l.62.13a28.35,28.35,0,0,1-.84,3h5v.6h-1.34a16.21,16.21,0,0,1-1.64,6.54C769.84,203.18,769.7,203.41,769.6,203.56Zm-.39-.59c.09-.13.17-.27.25-.41a15,15,0,0,0,1.57-6.23h-3.21c-.16.43-.31.79-.46,1.1a14.3,14.3,0,0,0,1.77,5.41Z"/><path d="M782.81,202.38a11.92,11.92,0,0,0,2.42,2,18.85,18.85,0,0,0,4.18,1.91l-.32.59a20.22,20.22,0,0,1-4.29-2.06,12.46,12.46,0,0,1-2.43-2.21v5.05h-.66v-5a13,13,0,0,1-2.53,2.22A22.35,22.35,0,0,1,775,207l-.35-.57a25,25,0,0,0,4.14-2,14.07,14.07,0,0,0,2.5-2.06H775v-.6h6.71v-2h-5.08v-6.23h10.84v6.23h-5.1v2h6.8v.6Zm-1.1-5.95v-2.29h-4.46v2.29Zm0,2.8V197h-4.46v2.26Zm5.12-2.8v-2.29h-4.46v2.29Zm0,2.8V197h-4.46v2.26Z"/><path d="M794.52,200.35v7.34h-.61v-8.48a18,18,0,0,1-3.22,5.33l-.39-.52a17.11,17.11,0,0,0,3.43-5.86h-3.15v-.6h3.33v-3.11l-2.83.23-.11-.59a52.09,52.09,0,0,0,6-.65l.16.59q-.82.14-2.64.36v3.17h3v.6h-3V200l.24-.22c1.13,1.18,2,2.06,2.52,2.65l-.43.47Zm3.94-5.93h5.62v12.64h-.64v-1.49h-4.36v1.58h-.62Zm5,10.53V195h-4.36V205Z"/><path d="M809.1,201.14v4.74a1.64,1.64,0,0,1-.33,1.11,1.51,1.51,0,0,1-1.09.44c-.32,0-.71,0-1.16-.05l0-.65c.4,0,.75.06,1.07.06a.9.9,0,0,0,.7-.24,1.2,1.2,0,0,0,.21-.77v-4.4l-2.09.77-.18-.62,2.27-.8v-4h-2v-.59h2v-3.41h.64v3.41h1.68v.59H809.1v3.79l1.62-.65.14.59Zm3.86-5.38h4c-.25-.74-.57-1.64-1-2.69l.59-.14c.32.85.66,1.8,1,2.83h3v.57h-3.57v2.77h3.3v.57h-3.3v2.74h3.3V203h-3.3v2.93h3.84v.57h-8.09v1.22h-.64V197.2a18,18,0,0,1-1.51,2.19l-.39-.52a17.54,17.54,0,0,0,1.85-2.85,26.09,26.09,0,0,0,1.4-3.4l.63.17C813.75,194,813.35,194.94,813,195.76Zm3.48,3.34v-2.77h-3.61v2.77Zm0,3.31v-2.74h-3.61v2.74Zm0,3.49V203h-3.61v2.93Z"/><path d="M831.46,195.25h5.46v.67H825.24v3.37a19.06,19.06,0,0,1-.48,4.73,11.08,11.08,0,0,1-1.8,3.56l-.6-.43a9.26,9.26,0,0,0,1.73-3.33,18.44,18.44,0,0,0,.46-4.54v-4h6.19a21,21,0,0,0-1.14-2.51l.65-.2A28.4,28.4,0,0,1,831.46,195.25Z"/><path d="M843,203.18l2.39,2.62-.44.49c-.71-.81-1.48-1.66-2.31-2.57a15.36,15.36,0,0,1-3.86,3.74l-.37-.55a14.72,14.72,0,0,0,3.81-3.66L840,200.84l.44-.42c.68.7,1.41,1.46,2.18,2.29a13.9,13.9,0,0,0,1.29-2.91l.57.26A13.27,13.27,0,0,1,843,203.18Zm-2-6.29.53.31a21.74,21.74,0,0,1-2.64,3.43l-.42-.41A22.16,22.16,0,0,0,841.06,196.89Zm1.91-1.62h3.14v.59h-7.38v-.59h3.61c-.3-1-.54-1.81-.74-2.47l.62-.13C842.51,193.56,842.76,194.42,843,195.27Zm6.72,8.29a15,15,0,0,0,3.58,3.45l-.39.59a16.24,16.24,0,0,1-3.56-3.5,17.82,17.82,0,0,1-3.84,3.63l-.45-.51a16.7,16.7,0,0,0,3.89-3.68l-.18-.29a14,14,0,0,1-1.71-4.91,14,14,0,0,1-.84,1.51l-.19-.25-.43.41c-.55-.7-1.32-1.62-2.3-2.78l.46-.34c.81.93,1.51,1.74,2.07,2.44a17.32,17.32,0,0,0,1.52-3.18,24.66,24.66,0,0,0,1-3.53l.62.13a28.35,28.35,0,0,1-.84,3h5v.6h-1.34a16.37,16.37,0,0,1-1.64,6.54C849.93,203.18,849.79,203.41,849.69,203.56Zm-.39-.59a3.38,3.38,0,0,0,.24-.41,14.71,14.71,0,0,0,1.57-6.23h-3.2c-.16.43-.32.79-.46,1.1a14.3,14.3,0,0,0,1.77,5.41Z"/><path d="M862.9,202.38a11.65,11.65,0,0,0,2.42,2,18.85,18.85,0,0,0,4.18,1.91l-.33.59a20.36,20.36,0,0,1-4.28-2.06,12.46,12.46,0,0,1-2.43-2.21v5.05h-.66v-5a13.29,13.29,0,0,1-2.53,2.22,22.35,22.35,0,0,1-4.18,2.16l-.35-.57a25,25,0,0,0,4.14-2,14.44,14.44,0,0,0,2.5-2.06h-6.29v-.6h6.71v-2h-5.08v-6.23h10.84v6.23h-5.1v2h6.8v.6Zm-1.1-5.95v-2.29h-4.46v2.29Zm0,2.8V197h-4.46v2.26Zm5.12-2.8v-2.29h-4.46v2.29Zm0,2.8V197h-4.46v2.26Z"/><path d="M873.56,207.45a1.63,1.63,0,0,1-1.2-.49,1.67,1.67,0,0,1-.49-1.2,1.63,1.63,0,0,1,.49-1.19,1.68,1.68,0,0,1,2.41,0,1.63,1.63,0,0,1,.49,1.19,1.67,1.67,0,0,1-.49,1.2A1.64,1.64,0,0,1,873.56,207.45Zm0-.48a1.23,1.23,0,0,0,.86-.32,1.21,1.21,0,0,0,.35-.89,1.18,1.18,0,0,0-.35-.89,1.17,1.17,0,0,0-.86-.32,1.13,1.13,0,0,0-.85.33,1.21,1.21,0,0,0,.85,2.09Z"/><path d="M531.89,15.05l-2.52,4.11a25.73,25.73,0,0,0-7-3.8l-.12,0,2.36-3.72a25.09,25.09,0,0,1,7,3.26Zm-2,6.79,3.64,2.79q-3.4,7.71-6.12,12.71l-4.19-2.79A113.13,113.13,0,0,0,529.84,21.84Zm3.84-16.79-2.91,3.84a26.35,26.35,0,0,0-6.36-4.23,4.67,4.67,0,0,1-.5-.23L526.62,1a29,29,0,0,1,7,4C533.62,5,533.65,5.05,533.68,5.05Zm25.11,20H551a23.82,23.82,0,0,0,7.41,6.75c.41.23.82.45,1.24.66a16.51,16.51,0,0,0-3.26,3.68.46.46,0,0,1-.08.16,26.41,26.41,0,0,1-8-8.42V37.5h-4.65V28.31a25.84,25.84,0,0,1-9.15,8.1,19.53,19.53,0,0,0-3-3.6,22,22,0,0,0,8.88-6.71c.29-.36.56-.72.82-1.09h-7.45V20.83h9.93v-4h4.65v4h10.46ZM537.9,6.1v4h-4.07V2.18h25V9h-4.22V6.1h-3v5.81c0,.62.12,1,.35,1.05a3.29,3.29,0,0,0,.51,0h2c.39,0,.63-.25.74-.74a14.74,14.74,0,0,0,.23-2.29,9.56,9.56,0,0,0,3.72,1.55c-.26,2.54-.86,4.11-1.82,4.73a4.62,4.62,0,0,1-2.36.51h-3.26c-2,0-3.31-.47-3.88-1.4a7.4,7.4,0,0,1-.58-3.37V6.1h-2.13C545,9.69,544.24,12.31,543,14c-1.47,1.91-4.05,3.32-7.72,4.22A9.74,9.74,0,0,0,533,14.7q5-1,6.51-3.41a11,11,0,0,0,1.24-5.19Z"/><path d="M574.47,23.5l.93,4.27q-5.89,2.48-13.06,5.23l-1.55-4.85c1.21-.36,3-.91,5.23-1.66V14.66h-4.54V10H566V1.1h4.77V10h4.34v4.69h-4.34V24.78Zm2.36-8V1.79h4.69V15.52q0,10.28-1.86,16.08A24.11,24.11,0,0,1,577,37.34a19.47,19.47,0,0,0-4.57-2.6q3.79-5.34,4.34-14.26C576.8,19.08,576.83,17.42,576.83,15.48Zm7.56,16.86V3.89h4.46V32.34Zm7.49-30.82h4.8V37.15h-4.8Z"/><path d="M636.39,10.17H620.54v4.18h12.52V27.77c0,2-.53,3.4-1.59,4.07a4.11,4.11,0,0,1-.51.27c-1.26.51-3.62.77-7.05.77a15.1,15.1,0,0,0-1.59-4.65c1.32.05,3,.08,5,.08.54,0,.83-.23.85-.62V19h-7.59V37.69h-4.93V19h-6.94V32.88h-4.76V14.35h11.7V10.17H600.19V5.59h15.38V.44h5V5.59h15.78Z"/><path d="M660.87,19.35l-2.68,2.87a27.37,27.37,0,0,0-3.41-2.83,17,17,0,0,1-5.93,3.88,10.37,10.37,0,0,0-2.17-2.79l-.39-.31a14.37,14.37,0,0,0,5.23-3,34.54,34.54,0,0,0-3.48-1.9,25,25,0,0,1-6.52,8.45,16.82,16.82,0,0,0-3.21-2.91l-.47-.31Q644.23,16,646.45,6h-6.67V2.11h27.33q-.36,2.16-1.32,6.62h8.06s-.06.61-.19,1.75q-.7,8-1.9,9.88a3.89,3.89,0,0,1-.39.47,4.74,4.74,0,0,1-3.14,1.43,41,41,0,0,1-5,0,10.07,10.07,0,0,0-1.32-4.19c1.17.11,2.6.16,4.31.16a2.29,2.29,0,0,0,1.31-.35q.93-.86,1.4-5.31h-4c0,.08-.16.6-.39,1.55l-4.38-.58q.89-3.18,1.7-7.6H651.06c-.23,1.09-.4,1.82-.51,2.21h6.05l.66-.08,2.4.7A23.43,23.43,0,0,1,657,16.37,38.48,38.48,0,0,1,660.87,19.35Zm9.88,13.15H675v4H638.85v-4h4.22V23.58h27.68Zm-23.33-5.28V32.5h3.33V27.22Zm7.63-15.7h-5.5c-.34,1-.79,2.1-1.36,3.34l2.36-2.25c.73.34,1.8.9,3.22,1.71A14.51,14.51,0,0,0,655.05,11.52Zm3.41,15.7h-3.41V32.5h3.41Zm7.76,0H662.8V32.5h3.42Z"/><path d="M686.7,15.79l-2.64,3.91q-1.54-1.08-7.4-4.26L679.22,12q6.31,3.14,6.86,3.45C686.31,15.56,686.52,15.69,686.7,15.79Zm-5,21.4-4-3.18a98.29,98.29,0,0,0,7.51-12.52l3.49,3.18Q685.19,31.57,681.74,37.19Zm32.4-34.31V7.49h-2.9V31.64c0,2.28-.53,3.81-1.59,4.62a10.17,10.17,0,0,1-.93.5q-2,.78-8,.81h-1.32a17.54,17.54,0,0,0-1.82-5c1.71.11,4.25.16,7.64.16.75,0,1.17-.29,1.28-.78a3.19,3.19,0,0,0,0-.42V7.49H688.36V5.4L685.65,9q-1.59-1.2-7.21-4.53l2.68-3.37a70.6,70.6,0,0,1,7.24,4V2.88Zm-11,23.45h-8.87V29H690V11.68h13.1Zm-4.34-10.42h-4.53v6.24h4.53Z"/><path d="M746.83,26.91h-4.76V25.32h-5.35V27H732V14.66h-5.43V30.6h24.77v4.57H726.56v2.48h-4.88v-23h-5.62V10.09h5.62V1.76h4.88v8.33H732V.9h4.73v9.19h5.35V1.29h4.76v8.8h5.86v4.57h-5.86Zm-10.11-6h5.35V14.66h-5.35Z"/><path d="M760.53,12.88l4.19-.31c1.19-1.65,2.06-3,2.6-3.87l4.07,2.79a69.61,69.61,0,0,1-8.53,10l6.74-.9c0,.93,0,2.28.16,4Q758,26.53,756.23,27.26l-.31.16a25.94,25.94,0,0,0-1.59-4.54,7.26,7.26,0,0,0,3.22-2.05,4.1,4.1,0,0,1,.39-.35,39.4,39.4,0,0,0,3.49-3.72c-3.23.33-5.19.68-5.86,1a39.42,39.42,0,0,0-1.51-4.53,6.07,6.07,0,0,0,2.48-2.13.83.83,0,0,0,.12-.16,34.33,34.33,0,0,0,4-6.36q1.13-2.2,1.9-4.14l4.69,2A60.72,60.72,0,0,1,760.53,12.88Zm-5.35,23-.73-4.69q6.19-.82,15.39-2.48l.35,4.22c-2.05.44-5.13,1-9.27,1.82C758.23,35.3,756.32,35.67,755.18,35.91ZM779,32.22h5.85a1.74,1.74,0,0,0,1.82-1.08,19.93,19.93,0,0,0,.66-5.12,13.41,13.41,0,0,0,4.42,1.9c-.29,3.7-1,6.11-2.06,7.25-.93,1-2.43,1.43-4.49,1.43H778.4q-4.18,0-5.54-1.62c-.75-1-1.12-2.54-1.12-4.73V15.48h12.94V7.42H771.19V2.73h18.3V21.87h-4.81v-2h-8V30.25c0,1,.22,1.57.66,1.78A5.07,5.07,0,0,0,779,32.22Z"/><path d="M809,22.18l-2.75,3.73a38.12,38.12,0,0,0-2.4-4.38V37.65h-4.57V23.35A37.9,37.9,0,0,1,795,31.22a25.55,25.55,0,0,0-2.17-4.5,34.86,34.86,0,0,0,5.7-10.19c0-.16.1-.3.15-.43h-5.34V11.68h6V7.22c-2.25.34-3.74.54-4.46.62a14.55,14.55,0,0,0-1.28-3.64A53.64,53.64,0,0,0,806.33.94L809,4.78a36.83,36.83,0,0,1-5.12,1.47v5.43h5.23V16.1h-5.23v.31c1.24,1.21,2.88,3,4.92,5.46C808.88,22,809,22.11,809,22.18Zm21.48,4.62-4.65.81v10h-4.65V28.46l-12,2.06-.74-4.5,12.76-2.17V.59h4.65V23l3.91-.66ZM819,19.08l-3.21,3a31.16,31.16,0,0,0-5.93-5.82l-.35-.27,3-2.71a34.88,34.88,0,0,1,6.13,5.35ZM820.17,8.7l-3.3,2.9a26.6,26.6,0,0,0-5.19-5.39,8.53,8.53,0,0,1-.7-.54L814,3A29.48,29.48,0,0,1,820.17,8.7Z"/><path d="M845.15,17.46l.58,4.3-4.23,1.16v9.5c0,1.86-.4,3.11-1.2,3.76a3.27,3.27,0,0,1-.58.39c-1.11.56-3.11.85-6,.85a18.81,18.81,0,0,0-1.35-4.3c1,0,2.26,0,3.68,0,.49-.1.75-.36.77-.77V24.2l-3.87,1-1.2-4.5q1.39-.27,5.07-1.16v-7h-4.57V8.11h4.57V.59h4.69V8.11h3.88v4.38H841.5v5.86Zm19.57-2.33,3,1.28a29.22,29.22,0,0,1-7.37,13.18,27.88,27.88,0,0,0,9.19,4,16.1,16.1,0,0,0-2.95,3.92.53.53,0,0,1-.07.15,29,29,0,0,1-9.89-5,38.38,38.38,0,0,1-10.46,4.88,15,15,0,0,0-2.45-4.22l-.07-.08a30.81,30.81,0,0,0,9.49-3.88,33.26,33.26,0,0,1-5.66-9.45l1.2-.35h-2V15.36h7.79V10.59h-8.53V6.21h8.53V.55h4.69V6.21H868v4.38H859.1v4.77h4.77Zm-3,4.46h-9.65a22.93,22.93,0,0,0,4.69,7A22.89,22.89,0,0,0,861.74,19.59Z"/><path d="M906.8,9.78H885.55c-.36.83-.89,1.87-1.59,3.14h18.38V32.53c0,1.94-.43,3.25-1.28,3.92-.26.15-.52.3-.78.43q-1.59.76-6.39.77h-.66a18.18,18.18,0,0,0-1.4-4.57c1.35.07,3,.11,5,.11.57-.13.87-.38.9-.77V30H883.42v7.6h-4.69V20.36A30.53,30.53,0,0,1,873.5,25a20.58,20.58,0,0,0-3.1-3.61,30.49,30.49,0,0,0,9.88-11.59h-8.72V5.36h10.7A45.39,45.39,0,0,0,883.81.55l4.88,1.09c-.38,1.24-.81,2.48-1.27,3.72H906.8Zm-9.07,9.81V17.07H883.42v2.52ZM883.42,26.1h14.31V23.54H883.42Z"/><path d="M921,2.11,924.25,4q-2.89,9-3.6,10.73c0,.05,0,.11-.08.16a12.25,12.25,0,0,1,3,8.1q0,3.84-1.83,5.16a5.39,5.39,0,0,1-2.32.93c-.39.05-1.31.07-2.75.07a9.43,9.43,0,0,0-1.05-4.22c.52,0,1.14,0,1.86,0a2.5,2.5,0,0,0,1.12-.35,2.71,2.71,0,0,0,.74-2.21,10.81,10.81,0,0,0-3-7c.68-2,1.5-5,2.49-8.91h-3.53V37.65H911V2.3h9.34Zm21,19,3.68,2.64a68,68,0,0,1-5.35,4.61,15.22,15.22,0,0,0,6.2,5.23,14.27,14.27,0,0,0-3,3.8,2.07,2.07,0,0,1-.08.2q-6.86-3.65-9.84-13.57c-.31-1-.6-2.07-.86-3.18h-2.86V31l5.73-1,.35,4.14c-1.76.42-4.42,1-8,1.79-2.43.51-4.17.89-5.2,1.12l-1.55-4.57c.13,0,1.51-.24,4.15-.62V2.34h18.41V20.79h-6.94A29.68,29.68,0,0,0,938.4,25,42.42,42.42,0,0,0,942,21.06ZM939.14,6.41h-9.22V9.55h9.22Zm-9.22,7v3.34h9.22V13.38Z"/><path d="M956.1,6.68l5.19,1.55a37.22,37.22,0,0,1-7.64,10.62,23,23,0,0,1-1.82,1.59A24.31,24.31,0,0,0,948,17.11a25.72,25.72,0,0,0,6.7-7.64A24.24,24.24,0,0,0,956.1,6.68Zm14.61,17.13,4.46-2.13a75,75,0,0,1,8.45,12.06c.31.59.59,1.15.85,1.66l-4.73,2.48c-.18-.46-.71-1.51-1.59-3.14q-14.53.73-27.36,1.24l-.55-5q4.23-.07,5.82-.15a84.34,84.34,0,0,0,6.47-15.24c.08-.28.16-.55.23-.81l5.66,1.39a145.19,145.19,0,0,1-7,14.5q4.68-.12,14-.42Q972.57,26.11,970.71,23.81ZM959.58,2.18h15.59a34.28,34.28,0,0,0,7.29,11.05A26.4,26.4,0,0,0,985.67,16a17.4,17.4,0,0,0-4.14,3.18l-.28.27A41.4,41.4,0,0,1,972,7.07a1.5,1.5,0,0,0-.15-.31H959.58Z"/><path d="M1021.2,3V31.64c0,2.15-.46,3.61-1.36,4.38a3.46,3.46,0,0,1-.85.58q-1.86,1-7.41.94h-.27a16.42,16.42,0,0,0-1.55-5.12,52.87,52.87,0,0,0,5.58.08c.65-.06,1-.35,1-.9V7.45H988.63V3Zm-8.84,7.32v4.11H989V10.28Zm-2.06,20.47H995.65v2.87H991V17.34h19.26Zm-4.65-9.38h-10v5.31h10Z"/><path d="M146.46,48.14,142,53.2a8.78,8.78,0,0,0-5.68-3,7.6,7.6,0,0,0-.9,0q-6.69,0-8.6,8.49a32.9,32.9,0,0,0-.68,5.85A12.67,12.67,0,0,1,133,60.12a9,9,0,0,1,1.92-.23q7.86,0,10.79,6.19a16.94,16.94,0,0,1,1.41,7.2q0,7.36-5.06,11.42a13.67,13.67,0,0,1-19.63-3.21q-4-5.79-4-15.52,0-13.72,7.25-19.52a14.48,14.48,0,0,1,9.23-3.15A15.85,15.85,0,0,1,146.46,48.14Zm-12.88,33a5.12,5.12,0,0,0,4.95-3.48,11.38,11.38,0,0,0,.79-4.39q0-6.59-4.84-7.31a6.43,6.43,0,0,0-1.24-.12q-4.05.06-7,4.5,1,9.51,6.07,10.69A6.57,6.57,0,0,0,133.58,81.15Z"/><path d="M178,45.21Q172.89,53,162.94,60.57a79.33,79.33,0,0,1-8.21,5.4,20,20,0,0,0-4.22-5.4,3.66,3.66,0,0,0-.28-.28,63.29,63.29,0,0,0,18.06-14.4A46.73,46.73,0,0,0,174,38.07h7.31a60.89,60.89,0,0,0,17.83,17.55,56.83,56.83,0,0,0,7.32,3.93,33.1,33.1,0,0,0-4.73,6.25,75.65,75.65,0,0,1-18.22-13.95A50.36,50.36,0,0,1,178,45.21Zm-3.6,12.26h7.2V91.73h-7.2Z"/><path d="M255.35,40.66V83c0,3.23-.75,5.4-2.25,6.53a12.19,12.19,0,0,1-1.35.73q-2.92,1.29-11.25,1.35H239a25.57,25.57,0,0,0-2.87-7.2l2.42.11q1.29.06,2.58.06h5.12c1.09,0,1.69-.4,1.8-1.18a2.5,2.5,0,0,0,.06-.51V74.52H223.46q-2.7,11.25-9.73,17.21a20.39,20.39,0,0,0-4.44-4.33c-.34-.27-.62-.47-.85-.62q8.33-7.09,9.34-21.26.16-2.59.17-5.91v-19ZM224.59,67.88H248.1v-7H225Q224.86,64.74,224.59,67.88ZM248.1,47.35H225v7H248.1Z"/><path d="M104.64,183.67l4.84-5.76c.56-.7,1-1.19,1.15-1.46a7.7,7.7,0,0,0,.69-1.23,3.92,3.92,0,0,0,.27-1.41,2.33,2.33,0,0,0-.76-1.89,2.86,2.86,0,0,0-1.91-.63,3.08,3.08,0,0,0-2.09.69,3.15,3.15,0,0,0-1.09,1.83h-1.31a4.18,4.18,0,0,1,1.56-2.65,4.54,4.54,0,0,1,2.93-1,4.33,4.33,0,0,1,2.85.94,3.34,3.34,0,0,1,1.11,2.71,4.43,4.43,0,0,1-.33,1.66,8.5,8.5,0,0,1-.78,1.45l-1.25,1.54-.53.62-3.81,4.57v0h6.91v1.11h-8.45Z"/><path d="M121.87,185.05a6.41,6.41,0,0,1-5.93-3.57,8.93,8.93,0,0,1,0-7.73,6.56,6.56,0,0,1,2.42-2.65,6.63,6.63,0,0,1,3.51-.94,6.91,6.91,0,0,1,3.56.94,6.46,6.46,0,0,1,2.41,2.63,8.32,8.32,0,0,1,.88,3.89,8.22,8.22,0,0,1-.88,3.86,6.56,6.56,0,0,1-2.41,2.64A6.9,6.9,0,0,1,121.87,185.05Zm-5.46-7.43a7.36,7.36,0,0,0,.68,3.24,5.17,5.17,0,0,0,4.78,3,5.32,5.32,0,0,0,2.89-.8,5.56,5.56,0,0,0,1.93-2.24,7.21,7.21,0,0,0,.71-3.24,7.07,7.07,0,0,0-.71-3.22,5.47,5.47,0,0,0-2-2.21,5.16,5.16,0,0,0-2.87-.8,5.09,5.09,0,0,0-2.85.8,5.61,5.61,0,0,0-1.93,2.23A7.24,7.24,0,0,0,116.41,177.62Z"/><path d="M130.93,183.67l4.84-5.76c.56-.7.94-1.19,1.15-1.46a8.59,8.59,0,0,0,.68-1.23,3.92,3.92,0,0,0,.27-1.41,2.33,2.33,0,0,0-.76-1.89,2.84,2.84,0,0,0-1.91-.63,3.1,3.1,0,0,0-2.09.69,3.21,3.21,0,0,0-1.09,1.83h-1.31a4.27,4.27,0,0,1,1.56-2.65,4.54,4.54,0,0,1,2.93-1,4.29,4.29,0,0,1,2.85.94,3.34,3.34,0,0,1,1.11,2.71,4.43,4.43,0,0,1-.33,1.66,7.3,7.3,0,0,1-.78,1.45c-.2.25-.61.77-1.25,1.54l-.53.62-3.8,4.57v0h6.91v1.11h-8.45Z"/><path d="M149,180.84h1.52V182H149v2.83h-1.25V182h-6.26v-1.09l6.16-10.42H149Zm-1.25,0v-8.45h0l-4.84,8.45Z"/><path d="M153.8,182.91a.94.94,0,0,1,.7.29,1,1,0,0,1,.29.7.94.94,0,0,1-.29.68.93.93,0,0,1-.68.3,1,1,0,0,1-.69-.3,1,1,0,0,1,.67-1.67Z"/><path d="M163,184.78h-1.23V171.84h0l-3.08,2.46V173l3.25-2.53H163Z"/><path d="M174.81,185.05a6.41,6.41,0,0,1-5.93-3.57,8.93,8.93,0,0,1,0-7.73,6.43,6.43,0,0,1,5.93-3.59,6.85,6.85,0,0,1,3.55.94,6.42,6.42,0,0,1,2.42,2.63,8.32,8.32,0,0,1,.88,3.89,8.22,8.22,0,0,1-.88,3.86,6.51,6.51,0,0,1-2.42,2.64A6.84,6.84,0,0,1,174.81,185.05Zm-5.46-7.43a7.36,7.36,0,0,0,.68,3.24,5.17,5.17,0,0,0,4.78,3,5.34,5.34,0,0,0,2.89-.8,5.63,5.63,0,0,0,1.93-2.24,7.21,7.21,0,0,0,.7-3.24,7.06,7.06,0,0,0-.7-3.22,5.47,5.47,0,0,0-1.95-2.21,5.16,5.16,0,0,0-2.87-.8,5.09,5.09,0,0,0-2.85.8,5.54,5.54,0,0,0-1.93,2.23A7.24,7.24,0,0,0,169.35,177.62Z"/><path d="M182.42,179V178h15.32V179Z"/><path d="M199,183.67l4.84-5.76c.56-.7.94-1.19,1.15-1.46a8.59,8.59,0,0,0,.68-1.23,3.93,3.93,0,0,0,.28-1.41,2.34,2.34,0,0,0-.77-1.89,2.84,2.84,0,0,0-1.91-.63,3.1,3.1,0,0,0-2.09.69,3.21,3.21,0,0,0-1.09,1.83h-1.31a4.27,4.27,0,0,1,1.56-2.65,4.56,4.56,0,0,1,2.93-1,4.29,4.29,0,0,1,2.85.94,3.34,3.34,0,0,1,1.11,2.71,4.43,4.43,0,0,1-.33,1.66,7.3,7.3,0,0,1-.78,1.45c-.19.25-.61.77-1.25,1.54l-.52.62-3.81,4.57v0h6.91v1.11H199Z"/><path d="M216.22,185.05a6.41,6.41,0,0,1-5.93-3.57,8.93,8.93,0,0,1,0-7.73,6.49,6.49,0,0,1,2.42-2.65,6.58,6.58,0,0,1,3.51-.94,6.87,6.87,0,0,1,3.55.94,6.42,6.42,0,0,1,2.42,2.63,8.32,8.32,0,0,1,.88,3.89,8.22,8.22,0,0,1-.88,3.86,6.51,6.51,0,0,1-2.42,2.64A6.87,6.87,0,0,1,216.22,185.05Zm-5.46-7.43a7.22,7.22,0,0,0,.68,3.24,5.12,5.12,0,0,0,1.93,2.2,5.18,5.18,0,0,0,2.85.8,5.34,5.34,0,0,0,2.89-.8,5.63,5.63,0,0,0,1.93-2.24,7.21,7.21,0,0,0,.7-3.24,7.06,7.06,0,0,0-.7-3.22,5.47,5.47,0,0,0-1.95-2.21,5.18,5.18,0,0,0-2.87-.8,5.09,5.09,0,0,0-2.85.8,5.54,5.54,0,0,0-1.93,2.23A7.1,7.1,0,0,0,210.76,177.62Z"/><path d="M225.27,183.67l4.84-5.76c.56-.7.95-1.19,1.15-1.46a7.7,7.7,0,0,0,.69-1.23,3.92,3.92,0,0,0,.27-1.41,2.33,2.33,0,0,0-.76-1.89,2.86,2.86,0,0,0-1.91-.63,3.08,3.08,0,0,0-2.09.69,3.15,3.15,0,0,0-1.09,1.83h-1.31a4.18,4.18,0,0,1,1.56-2.65,4.54,4.54,0,0,1,2.93-1,4.33,4.33,0,0,1,2.85.94,3.34,3.34,0,0,1,1.11,2.71,4.43,4.43,0,0,1-.33,1.66,8.5,8.5,0,0,1-.78,1.45l-1.25,1.54-.53.62-3.81,4.57v0h6.91v1.11h-8.45Z"/><path d="M240.1,185.05a4.2,4.2,0,0,1-2.92-1.05,4.3,4.3,0,0,1-1.45-2.73H237a3.45,3.45,0,0,0,1.11,1.91,3,3,0,0,0,2.07.74,3.49,3.49,0,0,0,1.66-.41A3.1,3.1,0,0,0,243,182.3a3.94,3.94,0,0,0,.43-1.87,3.71,3.71,0,0,0-.45-1.88,2.75,2.75,0,0,0-1.17-1.17,3.24,3.24,0,0,0-1.6-.39,3.39,3.39,0,0,0-2.85,1.29h-1.11l.72-7.84h6.77v1.11h-5.66l-.52,5.31a3.24,3.24,0,0,1,1.15-.71,4.59,4.59,0,0,1,1.66-.29,4.22,4.22,0,0,1,2.2.57,4.07,4.07,0,0,1,1.58,1.58,4.67,4.67,0,0,1,.59,2.34,5.05,5.05,0,0,1-.59,2.48,4.06,4.06,0,0,1-1.62,1.64A4.9,4.9,0,0,1,240.1,185.05Z"/><path d="M248.14,182.91a1,1,0,0,1,.71.29,1,1,0,0,1,.29.7.94.94,0,0,1-.29.68,1,1,0,0,1-.69.3.91.91,0,0,1-.68-.3,1,1,0,0,1,0-1.38A.92.92,0,0,1,248.14,182.91Z"/><path d="M258.25,185.05a6.41,6.41,0,0,1-5.93-3.57,8.93,8.93,0,0,1,0-7.73,6.49,6.49,0,0,1,2.42-2.65,6.58,6.58,0,0,1,3.51-.94,6.87,6.87,0,0,1,3.55.94,6.42,6.42,0,0,1,2.42,2.63,8.32,8.32,0,0,1,.88,3.89,8.22,8.22,0,0,1-.88,3.86,6.51,6.51,0,0,1-2.42,2.64A6.87,6.87,0,0,1,258.25,185.05Zm-5.46-7.43a7.22,7.22,0,0,0,.68,3.24,5.12,5.12,0,0,0,1.93,2.2,5.18,5.18,0,0,0,2.85.8,5.34,5.34,0,0,0,2.89-.8,5.63,5.63,0,0,0,1.93-2.24,7.21,7.21,0,0,0,.7-3.24,7.06,7.06,0,0,0-.7-3.22,5.47,5.47,0,0,0-1.95-2.21,5.18,5.18,0,0,0-2.87-.8,5.09,5.09,0,0,0-2.85.8,5.54,5.54,0,0,0-1.93,2.23A7.1,7.1,0,0,0,252.79,177.62Z"/><path d="M274.43,180.84H276V182h-1.52v2.83h-1.25V182h-6.27v-1.09l6.17-10.42h1.35Zm-1.25,0v-8.45h0l-4.84,8.45Z"/></g></g></g></svg>