<svg xmlns="http://www.w3.org/2000/svg" viewBox="0 0 1145.05 185.25"><defs><style>.cls-1{opacity:0.3;}.cls-2{fill:#ff6d00;}.cls-3{fill:#4c4c4c;}.cls-4{fill:#fff;}.cls-5{fill:#dee7ff;}</style></defs><g id="图层_2" data-name="图层 2"><g id="图层_1-2" data-name="图层 1"><g class="cls-1"><rect class="cls-2" x="739.41" y="62.27" width="38.89" height="20.23" rx="5.18"/><path d="M529.34,20q-1.32-1.23-3.48-3t-3.59-2.86l2.82-3.61q4.8,3.73,7.14,5.71Zm2.14,3.45q-.48,1.35-2.26,6.93c-1.19,3.71-1.87,5.93-2,6.64l-4.56-1.35q.51-1.18,2.3-6.72c1.19-3.7,1.88-6,2.06-6.81ZM532.87,7l-2.74,3.61c-.87-.77-2-1.74-3.43-2.92S524.16,5.61,523.34,5l2.78-3.65q2.63,1.83,6.75,5.2v-4h25v8.1h-4.41V7H537.24v3.65h-4.37ZM550.41,23.3a27.62,27.62,0,0,0,4,4.19,36.77,36.77,0,0,0,5.22,3.59L557,35.49a38.46,38.46,0,0,1-9.56-9.93V37.43h-4.53V26a37.51,37.51,0,0,1-9.56,9.45l-2.66-4.05a43.15,43.15,0,0,0,5.18-3.73,31,31,0,0,0,4.22-4.41h-7V18.93h9.84V15h4.53v4h10.44V23.3Zm-17.5-8.89a36.38,36.38,0,0,0,4.5-2.8,34,34,0,0,0,4.07-3.35l2.9,3.29a78.09,78.09,0,0,1-9,6.63Zm15.72-6.23c1.35.84,3,1.91,4.9,3.19s3.37,2.28,4.35,3L555.26,18q-1.56-1.23-4.27-3.1c-1.81-1.24-3.41-2.31-4.78-3.21Z"/><path d="M573.63,29q-1.54.43-5.45,1.68c-2.61.84-4.69,1.52-6.26,2.05l-1.07-4.88c.82-.19,2.32-.63,4.49-1.31V14.73h-3.57V10h3.57V1h4.72v9h3.1v4.73h-3.1V25.05q1.71-.48,3.06-1Zm1.63-27.59h4.57V14.77a83.3,83.3,0,0,1-.48,9.88,28.17,28.17,0,0,1-1.63,6.83,26.56,26.56,0,0,1-3.29,5.91l-4.17-3A29.27,29.27,0,0,0,573.61,29a17.35,17.35,0,0,0,1.33-5.24,87.44,87.44,0,0,0,.32-8.84Zm12.66,33.26h-4.6V3.18h4.6Zm3.74,2.23V1.35h4.52V36.88Z"/><path d="M635.75,9.57H620.59V13.5h12.66V27.71a8,8,0,0,1-.61,3.49,3.37,3.37,0,0,1-1.95,1.71,11.76,11.76,0,0,1-3.75.47,22.73,22.73,0,0,1-3.25-.24l-1-4.88a30.15,30.15,0,0,0,3.77.28,3.07,3.07,0,0,0,1.27-.2,1,1,0,0,0,.51-.67,7.11,7.11,0,0,0,.12-1.55v-8h-7.78V37.31h-4.8V18.14H608V33.22h-4.8V13.5h12.62V9.57H600.63V5h15c-.42-1.22-.93-2.54-1.51-4l5.12-.95a21,21,0,0,1,.86,2.16q.52,1.53.93,2.76h14.68Z"/><path d="M674.54,20.12H668a34.29,34.29,0,0,1-2.33,4.55A20.13,20.13,0,0,1,663,28.22l1.66.72Q671.36,31.84,674,33l-2.7,4.48q-7.26-3.49-12.7-5.83a38.7,38.7,0,0,1-7.4,3.27,95.26,95.26,0,0,1-10.62,2.76l-1.43-5A64,64,0,0,0,653,29.25q-5.4-2.25-9.72-3.89c1.16-1.64,2.33-3.38,3.49-5.24h-7.5V15.56h10.2a50,50,0,0,0,2.7-5.44l5.16,1.23q-1,2-2.1,4.21h19.29Zm-29.22-11v3.89h-4.8V4.56h14.17c-.16-.47-.32-.89-.48-1.27s-.29-.68-.39-1l-.44-1.07,5.08-.91c.4.87.95,2.27,1.67,4.2h13.41v8.5h-4.72V9.17Zm17.19,11h-9.84a33.1,33.1,0,0,1-2.11,3.18c2.67,1,5.19,2,7.54,2.94A17,17,0,0,0,662.51,20.12Z"/><path d="M689.66,31.44q-2.34.63-7.22,1.82l-4.37,1.12-1-4.61c.68-.1,2.21-.44,4.56-1V19.33h-3.33V14.85h3.33v-7h-3.77V3.37H689.9V7.86h-3.61v7h3.29v4.48h-3.29v8.3c1.66-.4,2.79-.69,3.37-.88Zm16.39-3.26q6.15,3.74,8.54,5.28l-2.5,3.93q-3.06-2.18-8.82-5.75l2.19-3.46h-7.62l2.38,3.54q-4.61,3.21-9.41,6l-2.34-4.21a60.81,60.81,0,0,0,8.77-5.32h-6.67V23.94h2.62V8.77h-1.94V4.53h1.94V.91H698V4.53h7.5V.91h4.68V4.53h2.54V8.77h-2.54V23.94h3.38v4.24Zm-.59-17V8.77H698v2.42Zm0,3.89H698v2.5h7.5Zm0,6.31H698v2.55h7.5Z"/><path d="M749.48,28.82c-2.49.87-4.41,1.51-5.76,1.9l7.7,2.78-1.7,4q-2.67-1.11-7.63-3t-9-3.33l.2,3.33c-3.09.69-5.61,1.33-7.54,1.91-.79.21-2.21.65-4.25,1.31l-1.7-4.13a4.5,4.5,0,0,0,1-1.09,2.12,2.12,0,0,0,.26-1.05V13.77c-.82.45-2.11,1.08-3.85,1.87l-2-4.45Q726.58,6.82,732.21,0h3.73q5.47,6.56,16.67,11l-1.74,4.44q-2.24-.92-4.57-2.14V26l1.59-.64ZM730.27,8a60.3,60.3,0,0,1-5.2,3.55h7.34c-.29-.9-.68-2-1.15-3.17l4.36-.88a37,37,0,0,1,1.27,4.05h6.36a50.59,50.59,0,0,1-5.2-3.49,33.42,33.42,0,0,1-3.93-3.46A34.8,34.8,0,0,1,730.27,8Zm11.31,9.5V15.16h-15.8V17.5Zm0,3.18h-15.8v2.26h15.8Zm-15.8,11.43,5.64-1.63c-.59-.21-1.17-.4-1.75-.59l-.75-.28,1.31-3h-4.45Zm18.93-5.52H732l1.87.64q5.24,1.86,4.52,1.59Q741.63,27.78,744.71,26.59Z"/><path d="M760.63,36.88h-4.52V19.05h15V36.88H766.7V35.05h-6.07Zm-1-35h26.63V16H759.6Zm7.1,28.73V23.5h-6.07v7.1Zm-2.22-19.13h16.95V6.35H764.48Zm9.81,25.41V19.05h15.48V36.88h-4.45V35.05h-6.47v1.83Zm4.56-13.38v7.1h6.47V23.5Z"/><path d="M827.91,37.59a50.52,50.52,0,0,1-13.1-5.91,45.6,45.6,0,0,1-5.73,2.87q-3.24,1.38-7.8,2.92l-2-4.48q-.94,1.11-3,3.21l-3.18-4.6a38.43,38.43,0,0,0,7.15-8.54,43.38,43.38,0,0,0,4.56-10.64h-9.09V8.3a30.64,30.64,0,0,0,1-3.32c.39-1.41.67-2.6.86-3.55l4.72.83c-.24.93-.5,1.93-.77,3s-.54,2-.78,2.7h5.08c.45-2.15.82-4.54,1.11-7.19l4.89.36c-.27,2.09-.61,4.37-1,6.83h11.24c-2-1.43-4-2.85-6.08-4.25L818.82.24c2.33,1.53,4.61,3.11,6.83,4.72l-2.34,3h6.07v4.44H809.93l-.83,3.18h16.75V20a34.35,34.35,0,0,1-6.75,8.53,44.93,44.93,0,0,0,10.84,4.13Zm-17.14-9.13a30.41,30.41,0,0,1-4.53-5.6,48.75,48.75,0,0,1-6.83,10A64.92,64.92,0,0,0,810.77,28.46Zm9.6-8.38H810a26.07,26.07,0,0,0,5.08,5.72A21.37,21.37,0,0,0,820.37,20.08Z"/><path d="M847.16,25.29v7.14l6-2,.43,4q-5.55,1.71-8,2.58a14.59,14.59,0,0,0-2.11.88l-1.66-3.65a2.35,2.35,0,0,0,.71-.72,1.6,1.6,0,0,0,.16-.75V25.29h-2.94a28.81,28.81,0,0,1-1.25,5.95,45.45,45.45,0,0,1-2.6,6.11l-4.21-2.14a33.15,33.15,0,0,0,2.56-5.8,26.9,26.9,0,0,0,1.1-5.87c.18-2.2.27-5.29.27-9.29V1.87h30.89V12.19h-26.4v4.44c0,1.27,0,2.89-.08,4.84h6.31V19.05h-5.12V15.4h5.12V13h4.29V15.4h5.83V13h4.33V15.4h5.79v3.65h-5.79v2.42h7.3v3.82H864l2.3,2.42c-1.25.92-2.78,2-4.61,3.17a34.71,34.71,0,0,0,7.11,2l-1.87,4.16a32.09,32.09,0,0,1-10.48-4.38,21.62,21.62,0,0,1-6.74-7.4ZM862.09,8.57V5.76h-22V8.57Zm-5.6,10.48h-5.83v2.42h5.83Zm6.67,6.24h-8.65a16.33,16.33,0,0,0,3.57,3.57Q860.66,27.23,863.16,25.29Z"/><path d="M906.94,9H886.1c-.63,1.14-1.2,2.09-1.7,2.86h18.81V32.19a5.92,5.92,0,0,1-1.05,3.91,4.49,4.49,0,0,1-3.55,1.21c-1.83,0-3.64-.08-5.44-.24l-.87-4.36a35.15,35.15,0,0,0,4.52.32,1.59,1.59,0,0,0,1.33-.46,3,3,0,0,0,.34-1.69v-.95h-16.4v7.3h-4.68V20.44a56.09,56.09,0,0,1-4.76,4.17l-2.27-4.8A45.19,45.19,0,0,0,880.51,9h-8.42V4.49H883a40.07,40.07,0,0,0,1.62-4l5.13.59c-.48,1.22-1,2.36-1.43,3.42h18.61Zm-24.85,9.92h16.4V16.08h-16.4Zm0,4v2.9h16.4V22.9Z"/><path d="M922.86,6.11l-2.58,8.34A17.86,17.86,0,0,1,923,23.86q0,3.6-1.21,5a5,5,0,0,1-3.91,1.39,11.49,11.49,0,0,1-1.63-.12l-.87-4.33a7.16,7.16,0,0,0,1.78.2,1.27,1.27,0,0,0,1.23-.66,5.47,5.47,0,0,0,.36-2.4,11.31,11.31,0,0,0-.67-3.55,16.35,16.35,0,0,0-2-4l2.38-9.21H915v31h-4.25V2h12.07Zm23.66,26.4-2.66,4.05a24.94,24.94,0,0,1-8-6.41,28.08,28.08,0,0,1-4.55-9.51h-2.58V31.2l5-2.18.67,4.48q-4.49,1.71-7.26,3l-1,.51a6.36,6.36,0,0,0-.92.44l-2-4.09a2,2,0,0,0,1-.75,3.19,3.19,0,0,0,.2-1.31V2.06h19V20.64h-7.78a27.84,27.84,0,0,0,2,4.41,54.05,54.05,0,0,0,5.32-4l2.46,3.41c-1.78,1.3-3.6,2.52-5.48,3.65A19.78,19.78,0,0,0,946.52,32.51ZM939,9.29V6.19H928.73v3.1Zm0,4.21H928.73v3H939Z"/><path d="M964.46,2.74a48.32,48.32,0,0,1-13.14,19.09L948,18.06a38.13,38.13,0,0,0,11.9-16.79Zm8.37,18.1c1.35,1.9,2.9,4.23,4.65,7S980.73,33,982,35.17l-4.2,2.5L975.73,34l-6.23.63-5.66.56q-2.83.27-5.69.59l-5.2.52-1.43-4.88a5.54,5.54,0,0,0,1.63-.56,4.58,4.58,0,0,0,1.23-1.07,61,61,0,0,0,4.58-7,100.23,100.23,0,0,0,4.63-9l4.72,1.87Q966.36,19.82,964,24c-1.58,2.78-3.11,5.2-4.56,7.27l13.73-1.51c-1.74-2.8-3.16-4.95-4.24-6.43Zm-.19-20a39.4,39.4,0,0,0,5,9.71,29.85,29.85,0,0,0,7.5,6.85l-3.1,4a39.52,39.52,0,0,1-8.29-8.11,40.77,40.77,0,0,1-5.52-11Z"/><path d="M988,9.65h26.16v4.6H988Zm33.34,22.14a6.37,6.37,0,0,1-1.11,4.19,4.67,4.67,0,0,1-3.65,1.33q-3.42,0-6.35-.28l-1-4.72c1.67.21,3.43.35,5.28.4a1.51,1.51,0,0,0,1.43-.68,4.54,4.54,0,0,0,.4-2.22v-23H989.62V2.06h31.68Zm-10.4.08H990.58V17h20.32ZM995.58,21.59v5.64h10.32V21.59Z"/><path class="cls-3" d="M531,72.64v6.42h-1.19V72.64h-7.9V71.52h7.9V63.87h-6.65V62.78h14.45v1.09H531v7.65h7.9v1.12Zm-6.84-6.82,1-.49q1.59,2.49,2.57,4.32l-1,.59C526,68.77,525.12,67.29,524.17,65.82Zm11.56-.49,1,.49q-1.38,2.5-2.68,4.46l-1-.55A43,43,0,0,0,535.73,65.33Z"/><path class="cls-3" d="M554.79,77.74H542.85V79h-1.13V66.48h5.18c.42-1,.78-1.86,1.05-2.64H540.4v-1h16.87v1H549.2q-.53,1.41-1.08,2.64h7.82V79h-1.15Zm-9-1V67.46h-2.91v9.28Zm5-6.82V67.46h-4v2.46Zm0,3.38V70.83h-4V73.3Zm0,3.44V74.21h-4v2.53Zm4,0V67.46h-2.91v9.28Z"/><path class="cls-3" d="M558.64,67.76h3.46v8.11q1.18-1,2.19-2.1l.51,1A38.87,38.87,0,0,1,561.21,78l-.68-.87a1.67,1.67,0,0,0,.34-.6,2.66,2.66,0,0,0,.1-.72v-7h-2.33Zm1.18-5,.9-.66c.85.87,1.77,1.88,2.76,3l-.89.78C561.61,64.69,560.68,63.65,559.82,62.74Zm10.69,12.79a19.29,19.29,0,0,0,5.29,2.32l-.57,1.1a21.77,21.77,0,0,1-5.67-2.69,21.92,21.92,0,0,1-5.8,2.84l-.6-1a23.31,23.31,0,0,0,5.5-2.57,14.37,14.37,0,0,1-3.12-4.12l.92-.57a13.64,13.64,0,0,0,3.12,4,11.63,11.63,0,0,0,3.14-4.16h-8.3v-1H574v1.06A13.61,13.61,0,0,1,570.51,75.53Zm-4.2-12.94h6.63l0,3.32a1.16,1.16,0,0,0,.24.93,1.3,1.3,0,0,0,.91.28c.83,0,1.41,0,1.76,0l-.21,1.06c-.37,0-1,0-1.85,0a2.22,2.22,0,0,1-1.53-.45,1.79,1.79,0,0,1-.46-1.44l0-2.66h-4.38c0,.44,0,.88,0,1.32a4.6,4.6,0,0,1-.64,2.25,7,7,0,0,1-2.06,1.72l-.78-.83a5.81,5.81,0,0,0,1.86-1.48,3.4,3.4,0,0,0,.52-1.92Q566.36,63.67,566.31,62.59Z"/><path class="cls-3" d="M577.1,67.8h3.83v8.43c1-.75,1.89-1.53,2.8-2.35l.51,1.06c-1.64,1.43-3,2.58-4.23,3.48l-.78-1a2.46,2.46,0,0,0,.44-.51,2.18,2.18,0,0,0,.11-.74V68.9H577.1Zm1.45-5,.89-.72q1.47,1.37,3.06,3l-.85.81Q579.92,64.07,578.55,62.76Zm10.64,6.48V79H588V69.24h-5V68.11h5V61.64h1.19v6.47h5.1v1.13Z"/><path class="cls-3" d="M599.78,61.7h1.1V69a20.19,20.19,0,0,1-.64,5.84,8.63,8.63,0,0,1-1,2.15,13.91,13.91,0,0,1-1.78,2.08l-.94-.68a9.47,9.47,0,0,0,2.81-4.25,10.75,10.75,0,0,0,.36-1.93,31.36,31.36,0,0,0,.13-3.21Zm-3.23,1.76h1V73.88h-1Zm11.24,4.46V79h-1.07V67.92H603.9v8.44h-1V66.92h3.86v-3H602v-1h10.52v1h-4.76v3h3.93v7.44a2,2,0,0,1-.41,1.39,2.09,2.09,0,0,1-1.34.46c-.33,0-.79,0-1.38,0l-.19-1a9.65,9.65,0,0,0,1.23.08,1.41,1.41,0,0,0,.81-.21,1.11,1.11,0,0,0,.23-.79V67.92Z"/><path class="cls-3" d="M621.94,79.08V61.59H623V79.08Z"/><path class="cls-3" d="M636.22,70.67V79h-1.06V71a19.85,19.85,0,0,1-2.43,2.42l-.49-1.06A20.06,20.06,0,0,0,635,69.58a15.66,15.66,0,0,0,1.85-3.12h-4.08v-1h2.7q-.48-2.22-.87-3.57l1.06-.21c.31,1.07.62,2.33.92,3.78H638v1a17.17,17.17,0,0,1-1.78,3.21v.87l.64-.49c.76.72,1.48,1.46,2.16,2.21l-.78.7C637.68,72.22,637,71.47,636.22,70.67Zm7.12-5.36h1.1c0,1.12-.05,2.24-.08,3.36a12.73,12.73,0,0,1-1.45,5.93A13.74,13.74,0,0,1,638.19,79l-.76-.89a13,13,0,0,0,4.5-4,10.84,10.84,0,0,0,1.34-5.46C643.32,66.93,643.34,65.8,643.34,65.31Zm-3.57-2.64H648v10.4h-1.12V63.74h-6v9.39h-1.08ZM644,71.79h1v4.46a1.16,1.16,0,0,0,.32.88,1.76,1.76,0,0,0,1,.34,2.08,2.08,0,0,0,.61,0,1.83,1.83,0,0,0,1-.3,1.32,1.32,0,0,0,.44-.83c.13-.87.22-1.48.24-1.83l1,.43c-.11.87-.19,1.48-.24,1.82a2.05,2.05,0,0,1-.68,1.28,3.14,3.14,0,0,1-1.63.45h-.73a2.67,2.67,0,0,1-1.7-.53,1.94,1.94,0,0,1-.63-1.58Z"/><path class="cls-3" d="M658.74,70.79h1.11a13.46,13.46,0,0,1-.36,2.62,5.89,5.89,0,0,1-2.34,3.46,16.76,16.76,0,0,1-5.65,2.19L651,78a16.87,16.87,0,0,0,5.31-1.89,4.9,4.9,0,0,0,2.16-2.93A13.19,13.19,0,0,0,658.74,70.79Zm4.55-5.54h3.85v3.69H666v-2.7H652.67v2.68h-1.13V65.25h10.35a28.7,28.7,0,0,0,2.65-3.45l1.13.39C664.88,63.31,664.08,64.33,663.29,65.25Zm-10.37-2.94,1.1-.38c.75.92,1.39,1.74,1.9,2.47l-1,.49Q654.08,63.7,652.92,62.31Zm1,6.25h10.82v6.36h-1.11V69.5h-8.58V75h-1.13Zm4-6.67,1.09-.3c.75,1.27,1.26,2.16,1.55,2.68l-1.06.45C659,63.64,658.42,62.7,657.91,61.89Zm1.7,11.35h1.09v2.82a1.49,1.49,0,0,0,.32,1.07,1.67,1.67,0,0,0,1.08.34,16.49,16.49,0,0,0,2.63,0,2.61,2.61,0,0,0,1.24-.3,1.66,1.66,0,0,0,.53-1c.08-.42.15-1,.23-1.66l1,.38c-.09.59-.19,1.18-.29,1.76a2.3,2.3,0,0,1-.79,1.41,3.24,3.24,0,0,1-1.78.45,22.76,22.76,0,0,1-3.09,0,2.45,2.45,0,0,1-1.68-.56,2.18,2.18,0,0,1-.53-1.65Z"/><path class="cls-3" d="M669.14,67.76h3.46v8.11q1.18-1,2.19-2.1l.51,1A38.87,38.87,0,0,1,671.71,78l-.68-.87a1.67,1.67,0,0,0,.34-.6,2.66,2.66,0,0,0,.1-.72v-7h-2.33Zm1.18-5,.9-.66c.85.87,1.77,1.88,2.76,3l-.89.78C672.11,64.69,671.18,63.65,670.32,62.74ZM681,75.53a19.29,19.29,0,0,0,5.29,2.32l-.57,1.1a21.77,21.77,0,0,1-5.67-2.69,21.92,21.92,0,0,1-5.8,2.84l-.6-1a23.31,23.31,0,0,0,5.5-2.57A14.37,14.37,0,0,1,676,71.41l.92-.57a13.64,13.64,0,0,0,3.12,4,11.63,11.63,0,0,0,3.14-4.16h-8.3v-1h9.54v1.06A13.61,13.61,0,0,1,681,75.53Zm-4.2-12.94h6.63l0,3.32a1.16,1.16,0,0,0,.24.93,1.3,1.3,0,0,0,.91.28c.83,0,1.41,0,1.76,0l-.21,1.06c-.37,0-1,0-1.85,0a2.22,2.22,0,0,1-1.53-.45,1.79,1.79,0,0,1-.46-1.44l0-2.66h-4.38c0,.44,0,.88,0,1.32a4.6,4.6,0,0,1-.64,2.25,7,7,0,0,1-2.06,1.72l-.78-.83a5.81,5.81,0,0,0,1.86-1.48,3.4,3.4,0,0,0,.52-1.92Q676.86,63.67,676.81,62.59Z"/><path class="cls-3" d="M687.6,67.8h3.83v8.43c1-.75,1.89-1.53,2.8-2.35l.51,1.06c-1.64,1.43-3,2.58-4.23,3.48l-.78-1a2.46,2.46,0,0,0,.44-.51,2.18,2.18,0,0,0,.11-.74V68.9H687.6Zm1.45-5,.89-.72q1.47,1.37,3.06,3l-.85.81C691,64.65,690,63.63,689.05,62.76Zm10.64,6.48V79H698.5V69.24h-5V68.11h5V61.64h1.19v6.47h5.1v1.13Z"/><path class="cls-3" d="M710.29,61.7h1.09V69a20.19,20.19,0,0,1-.64,5.84,8.63,8.63,0,0,1-1,2.15,13.34,13.34,0,0,1-1.78,2.08L707,78.4a9.47,9.47,0,0,0,2.81-4.25,10.75,10.75,0,0,0,.36-1.93,31,31,0,0,0,.14-3.21Zm-3.23,1.76h1V73.88h-1Zm11.23,4.46V79h-1.07V67.92H714.4v8.44h-1V66.92h3.86v-3h-4.69v-1h10.52v1h-4.76v3h3.93v7.44a2,2,0,0,1-.41,1.39,2.09,2.09,0,0,1-1.34.46c-.33,0-.79,0-1.38,0l-.19-1a9.65,9.65,0,0,0,1.23.08,1.38,1.38,0,0,0,.81-.21,1.11,1.11,0,0,0,.23-.79V67.92Z"/><path class="cls-4" d="M755.71,65.75v6.69a12.7,12.7,0,0,0,3.37,2.3,4,4,0,0,0-.79.91,12.6,12.6,0,0,1-2.58-1.81V79H754.6V72.79a16.24,16.24,0,0,1-2.17-2.86q-1.51,6.52-6,9a3.19,3.19,0,0,0-.81-.79s-.05,0-.05,0a10.53,10.53,0,0,0,4.31-4.29,16.58,16.58,0,0,0-2.78-2.06,10.43,10.43,0,0,1-1,1.12,4.93,4.93,0,0,0-.89-.69,12.62,12.62,0,0,0,3.25-5.68c.08-.28.16-.55.23-.83l1.06.22c-.19.68-.41,1.35-.65,2h2.74l.2-.07.7.27c0,.09-.08.5-.21,1.22l.57-.21a12,12,0,0,0,1.48,2.12V65.75ZM751.55,69h-2.84a18.58,18.58,0,0,1-1.07,2,16.05,16.05,0,0,1,2.72,1.91A17.67,17.67,0,0,0,751.55,69Z"/><path class="cls-4" d="M770.55,68.72H763a13.73,13.73,0,0,1-2.54,2.76,5.41,5.41,0,0,0-.89-.78,11.81,11.81,0,0,0,3.37-4c.18-.35.35-.7.5-1l1.09.32a13.09,13.09,0,0,1-.88,1.7h8v.52a43,43,0,0,1-.47,6.51,1.53,1.53,0,0,1-.24.54,1.29,1.29,0,0,1-.92.49,11.86,11.86,0,0,1-1.7,0,2.62,2.62,0,0,0-.27-1,10.11,10.11,0,0,0,1.45.06.6.6,0,0,0,.49-.2c.26-.35.45-2.26.55-5.74Zm-5.79,9h5.54a1.51,1.51,0,0,0,1.23-.38,3.63,3.63,0,0,0,.36-1.44,2.82,2.82,0,0,0,1,.39,3.37,3.37,0,0,1-.67,2,2.92,2.92,0,0,1-2,.49h-5.49a4.12,4.12,0,0,1-2.46-.49,2,2,0,0,1-.49-1.51v-6.5h5.91v4.29h-4.84v2.21c0,.43.13.7.38.82A3.94,3.94,0,0,0,764.76,77.71Zm2-6.51h-3.78v2.34h3.78Z"/><path d="M527.2,116.27v3.35h-.6v-3.2c-1.56.37-3.12.69-4.69,1l-.15-.63,1.31-.23V106.28h-1.13v-.57h6.36v.57h-1.1v9.38l1.25-.31.08.59Zm-.6-7.13v-2.86h-2.94v2.86Zm0,3.4V109.7h-2.94v2.84Zm0,3.27v-2.73h-2.94v3.35C524.2,116.32,525.18,116.12,526.6,115.81Zm4.18-1.19.59.26a26.23,26.23,0,0,1-2.78,4.74l-.54-.38A23.46,23.46,0,0,0,530.78,114.62Zm4.64-1.59h-6.06v-7.21h6.06Zm-.62-.6v-6H530v6Zm-1.47,2.46.56-.29q1.43,2.2,2.68,4.56l-.56.33Q534.86,117.33,533.33,114.89Z"/><path d="M545.66,110.5h7v.55H538.11v-.55H545v-1.62h-5.23v-.54H545v-1.62h-6v-.54h6v-1.62h.65v1.62h6.07v.54h-6.07v1.62h5.27v.54h-5.27Zm-.27,5.7q2.8,1.13,6.71,2.85l-.26.57c-2.59-1.14-4.84-2.09-6.75-2.88q-1.23,2-6.55,2.89l-.25-.58a16.27,16.27,0,0,0,4.91-1.46A3.36,3.36,0,0,0,545,115.3c0-.35.06-.76.1-1.26h.65l-.12,1.31A4.85,4.85,0,0,1,545.39,116.2Zm-5.1-3.5H550.4v4.21h-.63v-3.65h-8.85V117h-.63Z"/><path d="M556.18,110.19a.57.57,0,0,1,.42.16.59.59,0,0,1,0,.83.57.57,0,0,1-.42.17.52.52,0,0,1-.39-.17.58.58,0,0,1-.18-.42.56.56,0,0,1,.16-.41A.51.51,0,0,1,556.18,110.19Zm0,6.85a.57.57,0,0,1,.42.16.57.57,0,0,1,.17.42.62.62,0,0,1-.17.41.57.57,0,0,1-.42.17.52.52,0,0,1-.39-.17.55.55,0,0,1-.18-.41.57.57,0,0,1,.16-.42A.49.49,0,0,1,556.18,117Z"/><path d="M568.33,106.23H575v.59l-2.76,2.7h4v6.63h-.66v-6h-9.09v6h-.65v-6.63h5.56c1.22-1.22,2.12-2.12,2.71-2.68h-6.24a21,21,0,0,1-3.81,3.43l-.43-.51a18.15,18.15,0,0,0,2.91-2.42,18.54,18.54,0,0,0,2.26-2.84l.65.21C569.05,105.27,568.69,105.77,568.33,106.23Zm2.56,9c2,1,4.26,2.28,6.84,3.75l-.3.61q-4.26-2.46-6.8-3.79-1.27,2.53-6.57,3.87l-.28-.62a12.16,12.16,0,0,0,5.43-2.5,4.71,4.71,0,0,0,1.06-1.55,6.2,6.2,0,0,0,.38-1.8q0-.63.06-1.86h.64c0,.51,0,1.16-.08,1.94A6.31,6.31,0,0,1,570.89,115.21Z"/><path d="M587.06,110.5h7v.55H579.51v-.55h6.9v-1.62h-5.23v-.54h5.23v-1.62h-6v-.54h6v-1.62h.65v1.62h6.07v.54h-6.07v1.62h5.27v.54h-5.27Zm-.27,5.7q2.81,1.13,6.71,2.85l-.26.57c-2.59-1.14-4.84-2.09-6.75-2.88q-1.23,2-6.55,2.89l-.25-.58a16.27,16.27,0,0,0,4.91-1.46,3.36,3.36,0,0,0,1.78-2.29c0-.35.06-.76.1-1.26h.65c0,.11,0,.55-.11,1.31A4.91,4.91,0,0,1,586.79,116.2Zm-5.1-3.5H591.8v4.21h-.63v-3.65h-8.85V117h-.63Z"/><path d="M595.64,110h2.81v7.59a29.06,29.06,0,0,0,2.07-2.08l.33.57a30.42,30.42,0,0,1-2.93,2.76l-.39-.49a1.22,1.22,0,0,0,.21-.39,2,2,0,0,0,.07-.49v-6.85h-2.17Zm1.07-4.54.53-.4c.74.78,1.53,1.65,2.37,2.6l-.51.45C598.26,107.11,597.47,106.23,596.71,105.45Zm8.95,11.21a17.49,17.49,0,0,0,4.78,2.27l-.32.62a18,18,0,0,1-5-2.47,19.31,19.31,0,0,1-5.19,2.6l-.34-.59a20.26,20.26,0,0,0,5-2.43,11.8,11.8,0,0,1-2.87-3.89l.55-.29a11.07,11.07,0,0,0,2.86,3.77,10.25,10.25,0,0,0,2.91-4h-7.4v-.59h8.12v.6a11.1,11.1,0,0,1-3.09,4.33Zm-3.23-11.16h5.45l0,3a1.12,1.12,0,0,0,.25.85,1.22,1.22,0,0,0,.83.28c.5,0,1,0,1.52,0l-.13.64c-.42,0-.94,0-1.55,0a1.86,1.86,0,0,1-1.24-.41,1.54,1.54,0,0,1-.33-1.16l0-2.58h-4.14v1.44a3.79,3.79,0,0,1-.54,1.91,5.16,5.16,0,0,1-1.75,1.44l-.44-.47a5,5,0,0,0,1.62-1.3,2.94,2.94,0,0,0,.47-1.71Z"/><path d="M612,110h3.17v7.62c.77-.59,1.64-1.31,2.6-2.16l.31.59q-1.7,1.52-3.48,2.91l-.45-.55a1,1,0,0,0,.3-.4,1.91,1.91,0,0,0,.06-.54V110.6H612Zm1.29-4.52.49-.44c1,1,1.93,1.85,2.66,2.61l-.47.46C615,107.13,614.13,106.25,613.29,105.45Zm9,5.6v8.53h-.67v-8.53h-4.48v-.63h4.48v-5.86h.67v5.86h4.56v.63Z"/><path d="M637.28,107.7h4.25v.64h-3.24v4.45h4v.62h-4v6.14h-.66v-6.14h-5a7.63,7.63,0,0,1-1,3.53,10.3,10.3,0,0,1-2.89,2.78l-.49-.49a10.09,10.09,0,0,0,2.76-2.57,6.89,6.89,0,0,0,1-3.25h-4.27v-.62H632c0-.25,0-.5,0-.76v-3.69h-3.5v-.64h4.28c-.6-1-1.2-2-1.79-2.79l.58-.25c.72,1,1.38,2,2,3h3a27.19,27.19,0,0,0,1.85-3.1l.62.24A24.43,24.43,0,0,1,637.28,107.7Zm.35,5.09v-4.45h-5V112c0,.27,0,.53,0,.8Z"/><path d="M654.68,118.16h2.66v.61h-14.8v-.61h2.66V105.53h9.48Zm-.69-8.3v-3.73h-8.12v3.73Zm0,4.17v-3.58h-8.12V114Zm0,4.13v-3.54h-8.12v3.54Z"/><path d="M661.88,115.92v3.73h-.6V116l-3.06.46-.1-.64c1.16-.15,2.21-.31,3.16-.46v-2.88h-2.53V112c.5-1.32,1-2.77,1.45-4.35h-1.91V107h2.07c.23-.84.45-1.65.64-2.43l.57.1c-.24,1-.44,1.74-.62,2.33h2.63v.57h-2.79q-.69,2.3-1.44,4.35h1.93v-3h.6v3h1.61v.57h-1.61v2.8l1.82-.33.08.57Zm9.88-8.87H673v.57h-4.4v2h3.57v8.31a1.57,1.57,0,0,1-.35,1.14,1.5,1.5,0,0,1-1.09.36c-.38,0-.73,0-1,0l-.11-.59,1,.07a1.12,1.12,0,0,0,.77-.22,1.19,1.19,0,0,0,.2-.8v-1.86h-3v3.3H668v-3.3h-2.9v3.6h-.6v-10H668v-2h-3.78v-.57H668v-2.49h.6v2.49h2.52c-.36-.74-.72-1.43-1.08-2.06l.59-.16C671,105.5,671.36,106.24,671.76,107.05ZM668,110.17h-2.9v2.34H668Zm0,5.21v-2.32h-2.9v2.32Zm3.55-2.87v-2.34h-3v2.34Zm0,2.87v-2.32h-3v2.32Z"/><path d="M680.37,116.46c.49-.07.86-.14,1.13-.19l.08.57q-3.57.69-7.37,1.18l-.14-.62c.47-.06,1-.12,1.49-.2V105.63h4.81Zm-.62-7.07v-3.17h-3.58v3.17Zm0,3.61v-3h-3.58v3Zm0,3.56v-3h-3.58v3.53C677.62,116.91,678.81,116.73,679.75,116.56Zm4.49-8.46H688c-.13,4.44-.23,7.42-.28,8.92a2.32,2.32,0,0,1-.48,1.57,2,2,0,0,1-1.48.5c-.42,0-1,0-1.67-.06l-.13-.67c.59.06,1.14.1,1.65.1a1.56,1.56,0,0,0,1.13-.35,2,2,0,0,0,.36-1.19q.15-3.67.24-8.19h-3.14a24.72,24.72,0,0,1-.85,6.44,11.74,11.74,0,0,1-2.68,4.45l-.5-.44a11,11,0,0,0,2.6-4.24,24.2,24.2,0,0,0,.81-6.21h-2.09v-.63h2.11c0-.8,0-2,0-3.52h.64C684.28,105.36,684.26,106.53,684.24,108.1Z"/><path d="M690.28,111.54l2.87,1.21-.24.59c-1-.47-2-.88-2.91-1.24Zm10-4.79v1.43h-.64v-1.43h-4.56v1.46h-.62v-1.46h-4.33v-.55h4.33v-1.62h.62v1.62h4.56v-1.64h.64v1.64h4.31v.55Zm-7.55,7.9.55.24c-.63,1.61-1.29,3.13-2,4.58l-.59-.28Q691.72,117.17,692.73,114.65Zm-1.34-6.31c1.32.6,2.27,1,2.86,1.34l-.26.59c-.79-.43-1.75-.89-2.9-1.41Zm8.55,4.07a18.08,18.08,0,0,0,4.85,1.31l-.18.6a18.63,18.63,0,0,1-5.1-1.47l-.19-.1a23.72,23.72,0,0,1-5.35,1.8l-.2-.57a21.3,21.3,0,0,0,4.91-1.57,10.54,10.54,0,0,1-2.36-1.85,13.12,13.12,0,0,1-1.63,1.47l-.41-.47a11.45,11.45,0,0,0,3.27-3.66l.6.16a9.07,9.07,0,0,1-.7,1.13h5.64v.56A12.1,12.1,0,0,1,699.94,112.41Zm2.38,6.24h-6.16v1h-.62v-4.77h7.4v4.77h-.62Zm0-.54V115.4h-6.16v2.71Zm-3-6a11.42,11.42,0,0,0,3-2.37h-5.23l-.34.39A9.43,9.43,0,0,0,699.3,112.1Z"/><path d="M708.4,116.2l2.1-.78.16.59q-2.6,1-5.12,1.79l-.19-.63c1-.31,1.84-.56,2.43-.77v-6.82h-2V109h2v-4.36h.62V109h2v.59h-2Zm7.29-6.6v6.77h-.62v-6.58l-2.87.94v5.7a2.07,2.07,0,0,0,.42,1.54,2.69,2.69,0,0,0,1.57.42,29.18,29.18,0,0,0,3.24,0,3,3,0,0,0,1.48-.39,1.74,1.74,0,0,0,.58-1.13c.09-.53.17-1,.22-1.49l.61.17c-.07.57-.15,1.1-.25,1.6a2.12,2.12,0,0,1-.76,1.41,3.39,3.39,0,0,1-1.77.44q-1.77.07-3.48,0a3.22,3.22,0,0,1-1.93-.56,2.63,2.63,0,0,1-.55-1.91v-5.61l-1.48.48-.16-.61,1.64-.52v-4.1h.62v3.9l2.87-.91v-4.53h.62V109l3.7-1.17c-.06,2.21-.11,3.9-.17,5.08a2.29,2.29,0,0,1-.4,1.4,1.58,1.58,0,0,1-1.16.44c-.52,0-.91,0-1.2,0l-.08-.62c.39,0,.76,0,1.11,0a1.11,1.11,0,0,0,.8-.24,1.77,1.77,0,0,0,.33-1.08c0-.9.09-2.29.13-4.17Z"/><path d="M730,116.46l.18.08c1.56.67,3.29,1.44,5.2,2.33l-.28.65c-1.72-.83-3.43-1.61-5.11-2.35l-.58-.26a20.63,20.63,0,0,1-7.42,2.71l-.26-.64a28.06,28.06,0,0,0,4.12-1.08,13.1,13.1,0,0,0,2.84-1.31q-2.73-1.17-4.56-1.88a28.86,28.86,0,0,0,1.65-2.74h-4.38v-.61h4.71c.44-.83.89-1.82,1.36-2.94l.67.23c-.38.91-.81,1.81-1.28,2.71H736V112h-3.12a12.51,12.51,0,0,1-1.29,2.7A8.39,8.39,0,0,1,730,116.46Zm-.41-9.61H735v2.75h-.66v-2.14H723.1v2.24h-.65v-2.85h6.39c-.32-.72-.66-1.43-1-2.14l.64-.19C728.84,105.29,729.21,106.07,729.54,106.85Zm-.28,9.32a7.73,7.73,0,0,0,1.59-1.59,10.42,10.42,0,0,0,1.34-2.61h-5.7c-.48.88-1,1.71-1.47,2.48C726.34,114.94,727.76,115.52,729.26,116.17Z"/><path d="M740.38,116.71c.65-.14,1.3-.31,2-.49l.09.6a45.24,45.24,0,0,1-4.82,1.08l-.16-.62,2.3-.44v-5.17h-1.93v-.58h1.93v-4.45h-2.07v-.59h4.59v.59h-1.9v4.45h1.79v.58h-1.79Zm5.41-.08.43.44a26.23,26.23,0,0,1-3.6,2.51l-.36-.5A21,21,0,0,0,745.79,116.63Zm4.47-1.47h2v.58h-9.86v-.58h2v-7.87h-1.51v-.57h1.51v-2.11H745v2.11h4.64v-2.11h.64v2.11h1.5v.57h-1.5Zm-.64-5.63v-2.24H745v2.24Zm0,2.85v-2.31H745v2.31Zm0,2.78v-2.24H745v2.24Zm-1.32,2,.37-.47c1,.62,2.08,1.4,3.38,2.35l-.35.52C750.61,118.74,749.47,117.93,748.3,117.15Z"/><path d="M765.25,114.36h-8.2a9.54,9.54,0,0,1-.79,2.81,11.86,11.86,0,0,1-1.76,2.48l-.56-.49a9,9,0,0,0,2.09-3.28,16.14,16.14,0,0,0,.51-4.61v-5.69h9.38V117a2.56,2.56,0,0,1-.5,1.74,2.45,2.45,0,0,1-1.64.57,17.41,17.41,0,0,1-1.78-.08l-.08-.69a17.31,17.31,0,0,0,1.75.11,1.76,1.76,0,0,0,1.24-.39,2,2,0,0,0,.34-1.32Zm0-.61V110.3h-8.06v1c0,.92,0,1.74-.08,2.45Zm0-4v-3.5h-8.06v3.5Z"/><path d="M771,107.21h3.12v.53l-1.09,2.9-.56-.16,1-2.71h-2.69a20.79,20.79,0,0,1-1.71,3.5l-.47-.44a19.53,19.53,0,0,0,2.45-6.13l.64.11Q771.37,106.1,771,107.21Zm0,3.12h.62v7.44c.6-.49,1.31-1.14,2.12-1.94l.27.57c-1.19,1.11-2.17,2-2.93,2.56l-.41-.49a1.21,1.21,0,0,0,.33-.91Zm10.1,3v6.23h-.64v-6.23h-3.27a10.27,10.27,0,0,1-.72,3.56,9.63,9.63,0,0,1-2.12,2.83l-.49-.43a9,9,0,0,0,2-2.63,9.21,9.21,0,0,0,.68-3.33h-2.57v-.59h2.58c0-.25,0-.51,0-.77v-3.46h-1.8v-.59h2.63c-.35-.87-.82-1.89-1.4-3.06l.57-.18q.74,1.43,1.47,3.24h1.47a36.78,36.78,0,0,0,1.9-3.32l.55.23c-.55,1.08-1.14,2.11-1.76,3.09H783v.59h-2v4.23h2.48v.59Zm-.64-.59v-4.23h-3.23V112c0,.25,0,.5,0,.75Z"/><path d="M785,117.51l4.2-5a14.71,14.71,0,0,0,1.39-1.9,3.57,3.57,0,0,0,.46-1.77,2.19,2.19,0,0,0-.7-1.73,2.6,2.6,0,0,0-1.74-.59,2.83,2.83,0,0,0-1.92.66,3.19,3.19,0,0,0-1,1.75h-.72a3.69,3.69,0,0,1,1.31-2.19,3.58,3.58,0,0,1,2.37-.84,3.34,3.34,0,0,1,2.29.77,2.75,2.75,0,0,1,.88,2.17,3.79,3.79,0,0,1-.28,1.43,6,6,0,0,1-.67,1.22c-.26.36-.62.82-1.08,1.37l-.32.4-3.54,4.25v0h6.07v.6H785Z"/><path d="M800.46,114.57a4.23,4.23,0,0,1-1,2.73,3.5,3.5,0,0,1-5,0,4.27,4.27,0,0,1-.95-2.75c0-.73,0-1.55,0-2.45s0-1.72,0-2.44a4.19,4.19,0,0,1,1-2.74,3.47,3.47,0,0,1,5,0,4.28,4.28,0,0,1,1,2.76c0,.72,0,1.53,0,2.44S800.48,113.83,800.46,114.57Zm-6.21-.21a4.37,4.37,0,0,0,.7,2.43,2.39,2.39,0,0,0,2.08.93,2.36,2.36,0,0,0,2.06-.93,4.37,4.37,0,0,0,.7-2.43c0-.68,0-1.43,0-2.26s0-1.59,0-2.24a4.43,4.43,0,0,0-.7-2.44,2.36,2.36,0,0,0-2.06-.93,2.39,2.39,0,0,0-2.08.93,4.43,4.43,0,0,0-.7,2.44c0,.67,0,1.41,0,2.24S794.23,113.68,794.25,114.36Z"/><path d="M802.29,117.51l4.2-5a14.71,14.71,0,0,0,1.39-1.9,3.67,3.67,0,0,0,.45-1.77,2.16,2.16,0,0,0-.7-1.73,2.57,2.57,0,0,0-1.73-.59,2.86,2.86,0,0,0-1.93.66,3.31,3.31,0,0,0-1.05,1.75h-.71a3.68,3.68,0,0,1,1.3-2.19,3.62,3.62,0,0,1,2.37-.84,3.34,3.34,0,0,1,2.29.77,2.72,2.72,0,0,1,.88,2.17,4,4,0,0,1-.27,1.43,6,6,0,0,1-.67,1.22c-.27.36-.62.82-1.08,1.37l-.33.4-3.53,4.25v0h6.06v.6h-6.94Z"/><path d="M814.29,118.34a3.91,3.91,0,0,1-1.8-.42,3.28,3.28,0,0,1-1.3-1.21,3.72,3.72,0,0,1-.54-1.86h.72a3.07,3.07,0,0,0,.94,2.12,2.93,2.93,0,0,0,2,.75,3.11,3.11,0,0,0,2.14-.73,2.88,2.88,0,0,0-.08-4.16,3.84,3.84,0,0,0-2.3-.66h-.84v-.63h.84a3.28,3.28,0,0,0,1.37-.29,2.79,2.79,0,0,0,1.06-.87,2.63,2.63,0,0,0-.31-3.22,2.63,2.63,0,0,0-1.9-.67,2.47,2.47,0,0,0-1.78.67,3.06,3.06,0,0,0-.91,1.75h-.72a3.52,3.52,0,0,1,1.14-2.2,3.34,3.34,0,0,1,2.32-.84,3.49,3.49,0,0,1,1.67.38,2.87,2.87,0,0,1,1.18,1.06,3.06,3.06,0,0,1,.42,1.6,2.84,2.84,0,0,1-2.07,2.9v0a3.21,3.21,0,0,1,1.81,1,3.14,3.14,0,0,1,.65,2.06,3.66,3.66,0,0,1-.45,1.79,3.15,3.15,0,0,1-1.31,1.19A4.56,4.56,0,0,1,814.29,118.34Z"/><path d="M823.65,106.53H833.7v.62h-5.39v3.36h5v.63h-5v4h6.14v.62h-6.14v4h-.67v-4h-8v-.62h2.83v-4.58h5.2v-3.36h-4.35c-.26.41-.42.65-.46.7a22.47,22.47,0,0,1-2.3,2.78l-.45-.52a18.15,18.15,0,0,0,3.83-5.58l.65.18C824.25,105.41,823.94,106,823.65,106.53Zm4,8.56v-4h-4.56v4Z"/><path d="M837.17,117.75v1.61h-.64v-12h1.65a26.83,26.83,0,0,0,1.1-2.81l.65.14q-.4,1.2-1,2.67h3v11.78h-.64v-1.44Zm0-5.45h4V108h-4Zm0,4.83h4v-4.21h-4Zm7.5-9.77h4.74l-.21,9.22a3,3,0,0,1-.62,2,2.53,2.53,0,0,1-1.85.67,20.78,20.78,0,0,1-2.12-.1l-.09-.69c.89.08,1.58.12,2.08.12a2,2,0,0,0,1.47-.49,2.42,2.42,0,0,0,.49-1.6c.07-2.9.13-5.74.2-8.52h-4.37a24.08,24.08,0,0,1-1.53,2.75l-.56-.33a20.41,20.41,0,0,0,2.7-5.82l.62.18C845.39,105.5,845.07,106.37,844.67,107.36Zm-1.14,4,.5-.33c.62.82,1.41,1.88,2.36,3.19l-.54.39C845.21,113.68,844.44,112.6,843.53,111.38Z"/><path d="M854.48,112.23v7.37h-.6v-7.39a18.39,18.39,0,0,1-2.32,2.36l-.26-.64a16.75,16.75,0,0,0,2.43-2.5,14.19,14.19,0,0,0,1.67-2.91h-3.76V108h2.47c-.26-1.24-.53-2.31-.79-3.21l.62-.14c.32,1.24.59,2.36.82,3.35h1.32v.55a14.91,14.91,0,0,1-1.6,2.93v.65l.36-.26c.7.63,1.36,1.28,2,1.93l-.46.41C855.77,113.5,855.15,112.86,854.48,112.23Zm6.51-4.54h.62c0,1,0,1.89-.07,2.83a10.7,10.7,0,0,1-1.24,5.2,12,12,0,0,1-4.08,3.84l-.43-.49a11.83,11.83,0,0,0,3.94-3.63,9.77,9.77,0,0,0,1.19-4.92C860.94,110,861,109,861,107.69Zm-3.14-2.11h6.88v8.94h-.64v-8.34h-5.62v8.32h-.62Zm3.63,7.68h.6v4a1.17,1.17,0,0,0,.3.84,1.33,1.33,0,0,0,.88.36,4,4,0,0,0,.85,0,2.45,2.45,0,0,0,1-.28,1.29,1.29,0,0,0,.4-.8c.11-.84.17-1.34.18-1.51l.57.23c-.05.45-.11.94-.2,1.47a1.64,1.64,0,0,1-.54,1.12,2.89,2.89,0,0,1-1.32.35,4.37,4.37,0,0,1-.9,0,2,2,0,0,1-1.29-.47,1.78,1.78,0,0,1-.49-1.28Z"/><path d="M874.28,112.51h.62a12,12,0,0,1-.26,2.16,5,5,0,0,1-2,3,13.9,13.9,0,0,1-4.85,2l-.32-.58a14.39,14.39,0,0,0,4.66-1.8,4.55,4.55,0,0,0,1.92-2.67A12.28,12.28,0,0,0,874.28,112.51Zm3.47-4.71h3.58v3h-.64v-2.42h-12.1v2.4h-.65v-3h9a30.43,30.43,0,0,0,2.47-3l.64.26C879.32,106,878.56,106.89,877.75,107.8Zm-8.54-2.7.62-.26c.69.83,1.27,1.54,1.75,2.14l-.55.31C870.46,106.58,869.86,105.85,869.21,105.1Zm.87,5.54h9.15v5.43h-.63v-4.85h-7.87v4.88h-.65Zm3.48-5.9.61-.18q1,1.59,1.35,2.31l-.6.26C874.57,106.46,874.12,105.66,873.56,104.74Zm1.44,9.88h.62v2.46a1.47,1.47,0,0,0,.31,1.08,1.6,1.6,0,0,0,1.06.36,22.63,22.63,0,0,0,2.33,0,2.37,2.37,0,0,0,1.22-.31,1.69,1.69,0,0,0,.51-1c.07-.46.13-.93.18-1.39l.6.21c-.05.49-.12,1-.19,1.4a2.15,2.15,0,0,1-.66,1.25,3.06,3.06,0,0,1-1.58.42,21.52,21.52,0,0,1-2.54,0,2.24,2.24,0,0,1-1.42-.49,2,2,0,0,1-.44-1.44Z"/><path d="M887.5,115.45l.44.46a32.36,32.36,0,0,1-4.17,3l-.39-.53A26.45,26.45,0,0,0,887.5,115.45Zm4-8.94q-1,.75-2.4,1.8c-1,.72-1.94,1.29-2.69,1.73,1.42,0,3.3-.09,5.63-.25,1.09-.68,2.06-1.32,2.91-1.91l.48.46c-1.41,1-2.85,1.87-4.33,2.75s-3.23,1.8-4.92,2.63q3.86,0,8.71-.35l-2-1.79.44-.41q2.49,2.27,3.78,3.51l-.43.43c-.4-.41-.83-.81-1.27-1.21l-4.27.23v3.58a1.79,1.79,0,0,1-.39,1.27,2.09,2.09,0,0,1-1.34.44,9.76,9.76,0,0,1-1.57,0l-.16-.65a9.48,9.48,0,0,0,1.6.06,1.27,1.27,0,0,0,.91-.27,1.29,1.29,0,0,0,.28-.9v-3.45q-3.24.14-6,.18l-.1-.57a6.32,6.32,0,0,0,1.2-.38,59.92,59.92,0,0,0,5.39-3q-2.78.17-6.15.24l-.09-.54a4.53,4.53,0,0,0,1-.34,43.86,43.86,0,0,0,4.69-3.22c-2.25.12-4.37.19-6.36.23l-.08-.61q6.78-.11,12.87-.68l.16.6C895.41,106.24,893.56,106.38,891.5,106.51Zm1.77,9.48.39-.49q2.07,1.34,4.12,2.81l-.39.52C896.15,117.92,894.77,117,893.27,116Z"/><path d="M903.07,109.88c.16-.25.51-.84,1.06-1.75l.54.29a63.18,63.18,0,0,1-3.76,5.62c1.19-.1,2.29-.25,3.32-.42l0,.62c-1.19.2-2.63.38-4.33.54l-.17-.57a1.84,1.84,0,0,0,.74-.64c.62-.83,1.34-1.86,2.17-3.09-.76.07-1.81.14-3.14.21l-.16-.52a1.61,1.61,0,0,0,.64-.62c.45-.71,1-1.53,1.48-2.45s1-1.86,1.25-2.5l.62.23a51.08,51.08,0,0,1-3,5.23Zm-3.66,7.83q2.48-.45,5.21-1.2l.08.59q-2.54.74-5.13,1.23Zm13.09-5.54-2,.14v5a1.47,1.47,0,0,0,.18.85,1.25,1.25,0,0,0,.74.34,4.5,4.5,0,0,0,1.16,0,1.23,1.23,0,0,0,.68-.31,1.64,1.64,0,0,0,.28-.79c0-.29.09-.78.16-1.47l.58.2c-.09.84-.14,1.33-.17,1.49a2.07,2.07,0,0,1-.42,1.06,1.65,1.65,0,0,1-1,.42,8.53,8.53,0,0,1-1.43,0,1.82,1.82,0,0,1-1.1-.47,1.93,1.93,0,0,1-.31-1.24v-5.07l-2.06.1c0,.41,0,.69,0,.83a6.69,6.69,0,0,1-3.73,6.34l-.39-.5a8.47,8.47,0,0,0,2.7-2.49,7.17,7.17,0,0,0,.8-3.35c0-.27,0-.54,0-.8l-2.48.08-.17-.54a1.91,1.91,0,0,0,.74-.5,35.57,35.57,0,0,0,3-3.88h-3.64v-.58h4.56c-.23-.57-.6-1.38-1.1-2.42l.64-.17c.24.5.63,1.37,1.16,2.59h4v.58H909a45.42,45.42,0,0,1-3.36,4.3q2.19,0,6.39-.32l-2-2.37.45-.33q1.61,1.78,3.24,3.81l-.46.39Q913,112.74,912.5,112.17Z"/><path d="M916.59,105.56h.67V117c1-.72,2.45-1.8,4.21-3.22l.32.67q-3.06,2.42-5.09,3.74l-.41-.51a3.38,3.38,0,0,0,.23-.39,2,2,0,0,0,.07-.49Zm9.64,8.7q2.38,2.64,3.69,4.25l-.5.5q-1.73-2.07-3.52-4.13c-.11.18-.22.36-.34.54a13.86,13.86,0,0,1-5.1,4.08l-.39-.58A13.7,13.7,0,0,0,925,115a10.91,10.91,0,0,0,1.77-5.49c.12-1.21.2-2.69.24-4.43l.69,0c-.05,1.49-.14,2.94-.26,4.34A12.87,12.87,0,0,1,926.23,114.26Zm-5.9-9.17.59-.25q1.23,2.1,2.35,4.45l-.6.31Q921.56,107.23,920.33,105.09Z"/><path d="M941.09,115.94a18.18,18.18,0,0,0,5.21,2.83l-.34.65a19.39,19.39,0,0,1-5.38-3,21.23,21.23,0,0,1-5.75,3.27l-.34-.6a20.16,20.16,0,0,0,5.57-3.11c-.37-.35-.64-.61-.82-.8a14.4,14.4,0,0,1-3-5,16.47,16.47,0,0,1-1.16,4.58,15.28,15.28,0,0,1-3.14,4.42l-.49-.47a14.37,14.37,0,0,0,3-4.22,16.17,16.17,0,0,0,1.21-5.16c0-.27.07-1.26.18-3h-3.12v-.62h10.49v.62l-2,3.86h3.32v.61A13.77,13.77,0,0,1,941.09,115.94Zm-.52-.44a12.1,12.1,0,0,0,3.22-4.76h-3.34v-.59l2-3.89h-5.95c-.06.84-.1,1.62-.15,2.33a14.21,14.21,0,0,0,3.4,6.12A7,7,0,0,0,940.57,115.5Z"/><path d="M947.84,117.89q2.28-.48,5.28-1.36l.09.57q-2.28.74-5.21,1.41Zm3.72-8q.74-1.12,1.23-2l.56.28a65.93,65.93,0,0,1-4,5.86q2.05-.2,3.45-.36l0,.59c-1.17.13-2.66.29-4.47.46l-.13-.54a2.2,2.2,0,0,0,.66-.52c.54-.69,1.19-1.6,2-2.73l.28-.43c-1,.06-2,.11-3.19.15l-.12-.52a1.52,1.52,0,0,0,.53-.46,37.84,37.84,0,0,0,2.87-5.08l.61.24c-.37.77-.85,1.65-1.42,2.67s-1.14,1.87-1.59,2.53Zm6.69,6.23.15.31c.68,1.52,1.4,2.29,2.15,2.29a.85.85,0,0,0,.53-.2,2.19,2.19,0,0,0,.44-.74,18.89,18.89,0,0,0,.55-2.1l.56.24a16.44,16.44,0,0,1-.54,2.11c-.32.9-.82,1.36-1.52,1.36-1,0-1.92-.91-2.76-2.72a1.25,1.25,0,0,1-.1-.21,24.08,24.08,0,0,1-4.4,2.19l-.29-.56a25.36,25.36,0,0,0,4.46-2.2,19.66,19.66,0,0,1-.9-3.48l-3.07.49-.1-.59,3.07-.49-.06-.48c-.07-.49-.14-1.19-.21-2.12l-2.59.31-.08-.59,2.62-.33c-.08-1.06-.13-2.39-.17-4l.66,0c0,1.37.07,2.68.14,3.92l5.12-.63.07.6-5.14.64c0,.68.11,1.36.2,2,0,.15,0,.33.08.56l5.23-.83.08.6-5.23.82a17.62,17.62,0,0,0,.82,3.22,20.08,20.08,0,0,0,3.06-2.62l.44.43A20.9,20.9,0,0,1,958.25,116.14Zm.15-11,.52-.27c.47.7.92,1.45,1.36,2.26l-.54.29C959.39,106.81,958.94,106.05,958.4,105.19Z"/><path d="M971,118h7.65v.65H964V118h6.31V104.6h.7v5.24h6.18v.64H971Z"/><path d="M980.25,117.89q2.29-.48,5.28-1.36l.1.57q-2.28.74-5.21,1.41Zm3.73-8q.74-1.12,1.23-2l.55.28a65.86,65.86,0,0,1-4,5.86c1.37-.13,2.52-.25,3.44-.36l0,.59c-1.16.13-2.65.29-4.46.46l-.13-.54a2,2,0,0,0,.65-.52c.55-.69,1.2-1.6,2-2.73.13-.2.23-.34.28-.43-1,.06-2,.11-3.19.15l-.11-.52a1.41,1.41,0,0,0,.52-.46,39,39,0,0,0,2.88-5.08l.6.24c-.37.77-.84,1.65-1.42,2.67s-1.14,1.87-1.58,2.53Zm6.69,6.23c.05.11.1.21.14.31.69,1.52,1.41,2.29,2.16,2.29a.83.83,0,0,0,.52-.2,2,2,0,0,0,.44-.74,16.77,16.77,0,0,0,.56-2.1l.55.24a18.45,18.45,0,0,1-.53,2.11c-.32.9-.83,1.36-1.52,1.36-1,0-1.93-.91-2.77-2.72,0-.08-.07-.16-.09-.21a24.4,24.4,0,0,1-4.4,2.19l-.3-.56a25.12,25.12,0,0,0,4.47-2.2,18.84,18.84,0,0,1-.9-3.48l-3.08.49-.09-.59,3.07-.49c0-.15,0-.31-.07-.48-.06-.49-.13-1.19-.21-2.12l-2.58.31L986,109l2.61-.33c-.07-1.06-.13-2.39-.16-4l.65,0c0,1.37.07,2.68.15,3.92l5.12-.63.06.6-5.13.64c0,.68.11,1.36.2,2a3.73,3.73,0,0,0,.08.56l5.23-.83.08.6-5.23.82a16.84,16.84,0,0,0,.82,3.22,19.52,19.52,0,0,0,3-2.62l.44.43A20.35,20.35,0,0,1,990.67,116.14Zm.14-11,.52-.27a25.49,25.49,0,0,1,1.36,2.26l-.54.29C991.8,106.81,991.36,106.05,990.81,105.19Z"/><path d="M1002.81,106.62v13h-.7v-13h-6.34V106h14.56v.63Zm.78,4.14.4-.52c1.88,1.13,3.58,2.22,5.08,3.28l-.41.57Q1006.28,112.41,1003.59,110.76Z"/><path d="M1012.84,117.75v1.61h-.64v-12h1.65a26.83,26.83,0,0,0,1.1-2.81l.65.14q-.4,1.2-1.05,2.67h3v11.78h-.64v-1.44Zm0-5.45h4V108h-4Zm0,4.83h4v-4.21h-4Zm7.5-9.77h4.74l-.21,9.22a3,3,0,0,1-.62,2,2.53,2.53,0,0,1-1.85.67,20.78,20.78,0,0,1-2.12-.1l-.09-.69c.89.08,1.58.12,2.08.12a2,2,0,0,0,1.47-.49,2.48,2.48,0,0,0,.49-1.6c.07-2.9.13-5.74.2-8.52h-4.37a24.08,24.08,0,0,1-1.53,2.75l-.56-.33a20.41,20.41,0,0,0,2.7-5.82l.62.18C1021.06,105.5,1020.74,106.37,1020.34,107.36Zm-1.14,4,.5-.33c.62.82,1.41,1.88,2.36,3.19l-.54.39C1020.88,113.68,1020.11,112.6,1019.2,111.38Z"/><path d="M1026.85,118.38h14.55v.55h-14.55Zm7.84-12h6v3H1040V107h-11.82v2.43h-.65v-3H1034c-.25-.7-.47-1.28-.65-1.75l.65-.15C1034.14,104.88,1034.38,105.51,1034.69,106.4Zm4.37,10.18h-9.87V111h9.87Zm-9.61-7.81h9.31v.52h-9.31Zm9,4.78v-2h-8.6v2Zm0,2.49v-2h-8.6v2Z"/><path d="M1045.09,108.28V119.6h-.62V109.5a24.14,24.14,0,0,1-2.32,3.5l-.36-.57a22.24,22.24,0,0,0,2.37-3.71,29.77,29.77,0,0,0,1.68-4.09l.62.2A29.82,29.82,0,0,1,1045.09,108.28Zm7.22,9.49,2.36,1.37-.33.56c-1.88-1.11-4-2.33-6.49-3.66l.35-.56,3.53,2a44.77,44.77,0,0,0,3-3.59h-6.47v-.56c.32-.88.61-1.72.86-2.51h-2.92v-.59h3.09l.72-2.55h-2.93V107h3.07c.22-.89.4-1.7.54-2.42l.66.09c-.17.72-.35,1.49-.54,2.33h5.08v.61h-5.23q-.17.61-.72,2.55h6.69v.59h-6.87c-.28.87-.56,1.7-.83,2.48h6.62v.59C1054.4,115.38,1053.32,116.69,1052.31,117.77Z"/><path d="M1061.84,113.67v5.93h-.62v-5.67q-1.29.54-2.88,1.14l-.18-.62c.57-.21,1.59-.62,3.06-1.21v-4.18h-1.75a25.42,25.42,0,0,1-.73,2.52l-.54-.18a23.2,23.2,0,0,0,1.17-5.22l.56.1c-.1.75-.21,1.48-.34,2.18h1.63v-3.78h.62v3.78h1.82v.6h-1.82V113c.76-.3,1.43-.58,2-.83l.17.59Q1063,113.21,1061.84,113.67Zm8.06-5.69a19.08,19.08,0,0,1-1.55,6.46,14,14,0,0,1-3.78,4.75l-.46-.47a13.77,13.77,0,0,0,3.71-4.61,18.53,18.53,0,0,0,1.54-6.13h-1.67a15.44,15.44,0,0,1-1.44,4.56,13.52,13.52,0,0,1-2.87,3.68l-.44-.46a12,12,0,0,0,2.77-3.46,14.45,14.45,0,0,0,1.43-4.32h-1.69a18.2,18.2,0,0,1-1.76,3l-.49-.39a20.05,20.05,0,0,0,2.91-6l.6.18a23.72,23.72,0,0,1-1,2.62h6.39l-.36,9a3.57,3.57,0,0,1-.57,2,2.23,2.23,0,0,1-1.7.62,14.58,14.58,0,0,1-1.73-.1l-.12-.63c.69.07,1.27.11,1.75.11a1.66,1.66,0,0,0,1.29-.44,2.74,2.74,0,0,0,.46-1.68q.13-3.3.34-8.34Z"/><path d="M1077,112.3a15.58,15.58,0,0,1-2.68,4.67l-.36-.57a14.77,14.77,0,0,0,2.92-5.28h-2.79v-.59H1077v-5.92h.62v5.92h2.6v.59h-2.6v1.19l.32-.23c.58.64,1.32,1.52,2.23,2.67l-.46.39c-.59-.76-1.29-1.61-2.09-2.53v7H1077Zm-2.52-5.82.49-.17a29.22,29.22,0,0,1,1.06,2.8l-.52.21C1075.2,108.41,1074.86,107.46,1074.48,106.48Zm5.16-.18.53.19a30.17,30.17,0,0,1-1.23,2.83l-.47-.24C1078.87,108.26,1079.26,107.33,1079.64,106.3Zm6.79,8.5v4.8h-.62v-4.72l-5.23.82-.1-.64,5.33-.82V104.6h.62v9.54l2.27-.34.08.64Zm-5.17-4.34.39-.42c.71.58,1.56,1.32,2.54,2.22l-.38.46C1083,111.93,1082.11,111.17,1081.26,110.46Zm.59-3.77.39-.43c.77.69,1.59,1.46,2.49,2.33l-.4.47C1083.71,108.42,1082.89,107.63,1081.85,106.69Z"/><path d="M1092,119.37a1.62,1.62,0,0,1-1.19-.49,1.59,1.59,0,0,1-.49-1.19,1.56,1.56,0,0,1,.49-1.19,1.67,1.67,0,0,1,2.4,0,1.56,1.56,0,0,1,.49,1.19,1.59,1.59,0,0,1-.49,1.19A1.62,1.62,0,0,1,1092,119.37Zm0-.47a1.24,1.24,0,0,0,.87-.33,1.18,1.18,0,0,0,.34-.88,1.12,1.12,0,0,0-1.21-1.21,1.16,1.16,0,0,0-.85.33,1.21,1.21,0,0,0,.85,2.09Z"/><path d="M1105.35,106.92h8.47v.62h-8.76a22.46,22.46,0,0,1-2.44,3.69v8.37H1102V112a18.93,18.93,0,0,1-2.6,2.49l-.37-.58a22.48,22.48,0,0,0,3-2.94,22.77,22.77,0,0,0,2.32-3.43h-4.65v-.62h5a21.58,21.58,0,0,0,1-2.39l.67.15A19.77,19.77,0,0,1,1105.35,106.92Zm3.55,10.93h4.94v.64h-10.37v-.64h4.78v-5h-4.06v-.62h4.06V109h.65v3.24h4.15v.62h-4.15Z"/><path d="M1118.35,116.35a5.14,5.14,0,0,0,1.91,1.45,7.63,7.63,0,0,0,2.81.56c1.86,0,4.23,0,7.11,0l-.11.67q-4.1,0-7.08-.05a8.55,8.55,0,0,1-2.88-.52,5.42,5.42,0,0,1-2.07-1.5c-.68.66-1.42,1.45-2.23,2.35l-.39-.59c.68-.73,1.44-1.51,2.29-2.33v-5.54h-2.22v-.63h2.86Zm-2-11,.56-.36c.89,1.12,1.58,2,2.07,2.72l-.54.36C1117.81,107.26,1117.12,106.35,1116.32,105.38Zm11.47,2.85a12.21,12.21,0,0,1-2.33,4.78q2,1.78,3.61,3.29l-.44.52c-1-1-2.24-2.09-3.61-3.32a18.24,18.24,0,0,1-4.94,3.47l-.41-.59a17.41,17.41,0,0,0,4.84-3.32c-1.6-1.39-2.74-2.37-3.42-2.92l.43-.46q1.37,1.08,3.41,2.89a11.43,11.43,0,0,0,2.18-4.34H1120v-.63h5c-.62-1.16-1.16-2.15-1.62-2.95l.62-.22c.33.59.9,1.65,1.72,3.17h4v.63Z"/><path d="M1137.91,105.45a18.71,18.71,0,0,0,7.14,6.08l-.39.62a22.31,22.31,0,0,1-4-2.73,17.64,17.64,0,0,1-3.07-3.42,22.18,22.18,0,0,1-7.08,6.34l-.42-.58a23.34,23.34,0,0,0,4.52-3.34,16.42,16.42,0,0,0,3.08-3.9l.67.19C1138.19,105,1138.05,105.21,1137.91,105.45Zm-.72,4.79h.69v9.38h-.69Z"/><path d="M524.75,143.21a5.8,5.8,0,0,0,4.73,2c2.29.06,4.65.07,7.06,0l-.13.65c-2.21,0-4.53,0-7-.05a8.47,8.47,0,0,1-2.95-.52,5.83,5.83,0,0,1-2.09-1.52c-.76.71-1.52,1.49-2.27,2.34l-.41-.59c.68-.68,1.47-1.46,2.39-2.34v-5.49h-2.27v-.64h2.92Zm-2-11,.53-.34c.76.87,1.5,1.77,2.22,2.69L525,135C524.13,133.89,523.4,133,522.77,132.23Zm11,3.06v6.13a2.48,2.48,0,0,1-.49,1.71,2.28,2.28,0,0,1-1.61.56,17.62,17.62,0,0,1-1.88-.08l-.07-.67c.66.06,1.26.09,1.82.09a1.73,1.73,0,0,0,1.24-.36,1.92,1.92,0,0,0,.34-1.32v-6.06H526.5v-.62h6.57v-3.13h.65v3.13h2.62v.62Zm-6.37,2,.49-.35c.86,1,1.73,2,2.62,3.16l-.53.41C529.17,139.44,528.31,138.37,527.35,137.25Z"/><path d="M540.87,139.16v7.36h-.62v-8.06a17.86,17.86,0,0,1-2.45,4.8l-.39-.49a18,18,0,0,0,2.81-5.85h-2.45v-.59h2.48v-3c-.82.09-1.54.16-2.16.2l-.08-.57a41.86,41.86,0,0,0,4.86-.61l.13.57-2.13.35v3.1h2.26v.59h-2.26v2l.28-.25c.83.93,1.5,1.72,2,2.37l-.43.44C542.16,140.68,541.54,139.91,540.87,139.16Zm7,6h4.38v.57h-9.6v-.57h4.58v-2.68H544v-.57h3.32v-2.58h-3.81v-.57h8.22v.57h-3.77v2.58h3.28v.57h-3.28Zm3.13-8.37h-6.93v-4.36h6.93Zm-.63-.57V133h-5.67v3.23Z"/><path d="M566.06,140.84h-5.31v5.71h-.69v-5.71h-5.31V142h-.65v-7.24h6v-3.35h.69v3.35h6V142h-.67Zm-6-.63V135.4h-5.31v4.81Zm6,0V135.4h-5.31v4.81Z"/><path d="M569.1,146.6a1.8,1.8,0,0,0,.85-1.54l-.08,0a.54.54,0,0,1-.39-.18.54.54,0,0,1-.16-.4.56.56,0,0,1,.14-.4.53.53,0,0,1,.41-.17.5.5,0,0,1,.43.18,1.05,1.05,0,0,1,.18.61,3,3,0,0,1-.25,1.22,2.47,2.47,0,0,1-.85.94Z"/><path d="M587.1,142.33c.11.34.23.67.37,1a7,7,0,0,0,.85,1.52,1.71,1.71,0,0,0,1.28.78.87.87,0,0,0,.54-.19,2.24,2.24,0,0,0,.42-.77,13.88,13.88,0,0,0,.48-1.95l.58.23a18.32,18.32,0,0,1-.52,2.06c-.3.87-.81,1.31-1.5,1.31a2.12,2.12,0,0,1-1.59-.82,6.24,6.24,0,0,1-1.06-1.71,8.13,8.13,0,0,1-.39-1,21.59,21.59,0,0,1-3.81,2.42l-.36-.55a19.77,19.77,0,0,0,4-2.51,21.73,21.73,0,0,1-.77-4.47c0-.17-.05-.41-.07-.74h-4.26v3.33c.81-.18,1.77-.42,2.87-.71l.12.6-3,.77v3.46a2,2,0,0,1-.41,1.36,1.81,1.81,0,0,1-1.28.46,13.91,13.91,0,0,1-1.58-.08l-.08-.66a11,11,0,0,0,1.47.1,1.34,1.34,0,0,0,.94-.28,1.45,1.45,0,0,0,.28-1V141q-1.43.33-3.48.75l-.16-.64c.89-.16,2.11-.41,3.64-.75v-3.48H577v-.6h3.61v-2.77c-1.21.16-2.16.26-2.86.31l-.08-.6a36.07,36.07,0,0,0,6-.87l.15.58c-.72.16-1.56.32-2.5.49v2.86h4.23q-.12-2-.15-4.86H586c0,1.78,0,3.4.13,4.86h5.45v.6h-5.41c0,.13,0,.34,0,.62a19.84,19.84,0,0,0,.69,4.14,18.09,18.09,0,0,0,3-3.39l.52.4A19.83,19.83,0,0,1,587.1,142.33Zm.42-9.51.44-.41c1,.85,1.79,1.61,2.42,2.27l-.46.44A26.34,26.34,0,0,0,587.52,132.82Z"/><path d="M596.1,143.18a4.69,4.69,0,0,0,1.85,1.46,7,7,0,0,0,2.55.52c2.16.06,4.63.07,7.42,0l-.13.67c-2.88,0-5.3,0-7.26,0a7.77,7.77,0,0,1-2.76-.54,5.27,5.27,0,0,1-2-1.49c-.53.52-1.26,1.29-2.21,2.29l-.39-.57c.86-.9,1.61-1.66,2.27-2.28v-5.49h-2.21v-.65h2.86Zm-1.94-10.9.52-.36c.73.89,1.45,1.8,2.17,2.73l-.54.38C595.66,134.14,594.94,133.23,594.16,132.28Zm9.13,1.24a20.4,20.4,0,0,1-2.35,4.32,20.83,20.83,0,0,1-3.38,3.67l-.43-.52a18.6,18.6,0,0,0,5.46-7.47h-4.87v-.62h9.58v.62Zm-1.24,2.78h.66V144h-.66Zm1.62,1.13.47-.39c1.57,1.56,2.77,2.8,3.58,3.71l-.47.45Q605.87,139.64,603.67,137.43Z"/><path d="M611.06,136.54v10h-.62v-10h-2v-.62h2v-4.47h.62v4.47h1.81v.62Zm3,.89.54.21a22.77,22.77,0,0,1-1.82,4.23l-.52-.31A21.58,21.58,0,0,0,614,137.43Zm3.09-2.63h3.95c0,.95-.11,3.9-.23,8.82a2.79,2.79,0,0,1-.57,1.82,2.11,2.11,0,0,1-1.62.57c-.35,0-.94,0-1.8-.07l-.08-.65c.55.05,1.13.08,1.74.08a1.75,1.75,0,0,0,1.27-.41,2.39,2.39,0,0,0,.43-1.44c.09-3.08.16-5.78.19-8.09h-3.3c0,.21,0,.57,0,1.07a19,19,0,0,1-1,5.73,10.94,10.94,0,0,1-3,4.27l-.49-.44a10.55,10.55,0,0,0,2.86-4,18.63,18.63,0,0,0,1-5.75c0-.18,0-.48,0-.92h-3v-.63h3c0-1.47,0-2.58.06-3.3h.64C617.17,132.6,617.14,133.7,617.11,134.8Zm4.1,3,.54-.23c.59,1.24,1.15,2.5,1.7,3.76l-.53.3C622.21,139.9,621.63,138.62,621.21,137.77Z"/><path d="M630.46,143.34c.49-.07.87-.14,1.13-.19l.08.57q-3.55.69-7.37,1.18l-.13-.62,1.49-.2V132.51h4.8Zm-.62-7.07V133.1h-3.58v3.17Zm0,3.61v-3h-3.58v3Zm0,3.56v-3h-3.58V144C627.71,143.79,628.9,143.61,629.84,143.44Zm4.5-8.46h3.77c-.13,4.44-.22,7.42-.28,8.92a2.32,2.32,0,0,1-.47,1.57,2,2,0,0,1-1.49.51c-.41,0-1,0-1.66-.07l-.13-.67a13.75,13.75,0,0,0,1.65.1,1.58,1.58,0,0,0,1.12-.34,1.89,1.89,0,0,0,.36-1.2q.15-3.68.25-8.19h-3.14a25.16,25.16,0,0,1-.85,6.44,11.67,11.67,0,0,1-2.68,4.45l-.51-.44a10.87,10.87,0,0,0,2.6-4.24,24.06,24.06,0,0,0,.82-6.21h-2.09V135h2.1c0-.8,0-2,0-3.52h.64C634.38,132.24,634.36,133.41,634.34,135Z"/><path d="M641.71,133.15v13.27h-.65V132.54H653.4v11.57a1.79,1.79,0,0,1-2.09,2.14,16.76,16.76,0,0,1-1.86-.08l-.09-.65c.53,0,1.13.08,1.8.08a1.31,1.31,0,0,0,1.59-1.57V133.15Zm1.43,2.35h8.17v.57h-8.17Zm7.07,7.6h-6v-4.72h6Zm-.63-.57V139h-4.73v3.58Z"/><path d="M668.69,141.46v2.87h-.62v-.76h-4.74v.8a2.07,2.07,0,0,1-.43,1.43,2.24,2.24,0,0,1-1.57.5,11.67,11.67,0,0,1-1.7-.05l-.06-.62a14.54,14.54,0,0,0,1.61.1,1.87,1.87,0,0,0,1.21-.33,1.56,1.56,0,0,0,.28-1.07v-.76H656.8v-.52h5.87v-1.59h-7.09V141h7.09v-1.57H657v-.52h5.69v-1.38h-5.08v-2.64h5.08v-1.38h-6.91v-.54h6.91v-1.48h.66v1.48h6.79v.54h-6.79v1.38h5v2.64h-5v1.38h5.36V141h1.71v.5Zm-6-4.46v-1.66h-4.46V137Zm5.08,0v-1.66h-4.42V137Zm.32,4v-1.57h-4.74V141Zm0,2.09v-1.59h-4.74v1.59Z"/><path d="M676.07,144.06H674v1.31h-.59v-6.86a15.56,15.56,0,0,1-1.34,2.27l-.37-.49a18,18,0,0,0,2.76-6.77h-2.29V133h5.2v.55h-2.29a18.69,18.69,0,0,1-1.17,3.91h2.74v7.43h-.59Zm0-.57V138H674v5.47Zm9.07-1h-2.77v3.22h-.61v-3.22h-2.88a7.47,7.47,0,0,1-1.48,4.07l-.56-.36a6.9,6.9,0,0,0,1.24-2.49,16.83,16.83,0,0,0,.28-3.59v-4.24a11.61,11.61,0,0,1-1,1l-.4-.41a16.9,16.9,0,0,0,3.64-5.06l.62.18q-.36.76-.78,1.47h4.31v.54l-1.63,2.12h2.65v9a1.75,1.75,0,0,1-.36,1.21,1.47,1.47,0,0,1-1.08.34l-1,0-.1-.6,1,0a1.15,1.15,0,0,0,.73-.21,1.32,1.32,0,0,0,.21-.82Zm-5-8.85a19.58,19.58,0,0,1-1.61,2.11h3.92L684,133.6Zm1.67,8.29v-2.52H679v.75c0,.51,0,1.09,0,1.77Zm0-5.59H679v2.52h2.79Zm3.38,2.52V136.3h-2.77v2.52Zm0,3.07v-2.52h-2.77v2.52Z"/><path d="M690.63,135.37v11.1H690v-9.75a18.58,18.58,0,0,1-1.94,3.19l-.36-.57a22.31,22.31,0,0,0,2.14-3.74,31.6,31.6,0,0,0,1.52-4.14l.6.2A37.79,37.79,0,0,1,690.63,135.37Zm7.18,4.84a11.85,11.85,0,0,0,1.83,2.32,15.75,15.75,0,0,0,3,2.19l-.37.57a13.62,13.62,0,0,1-3.09-2.35,12,12,0,0,1-1.77-2.37v5.91h-.65v-5.86A13.13,13.13,0,0,1,695,143a16.58,16.58,0,0,1-3.13,2.43l-.36-.56a16.86,16.86,0,0,0,3.09-2.32,13.92,13.92,0,0,0,1.88-2.33H692v-.61h4.81v-2.37h-3.53v-4.79H701v4.79h-3.6v2.37h5v.61Zm2.6-3.58v-3.58h-6.52v3.58Z"/><path d="M703.35,136.87h2.81v7.59a29.14,29.14,0,0,0,2.08-2.08l.32.57a30.25,30.25,0,0,1-2.92,2.76l-.39-.49a1.59,1.59,0,0,0,.21-.39,2.49,2.49,0,0,0,.06-.49v-6.85h-2.17Zm1.08-4.54.52-.39c.74.77,1.53,1.64,2.37,2.6l-.5.44C706,134,705.18,133.11,704.43,132.33Zm8.94,11.21a17.56,17.56,0,0,0,4.79,2.27l-.33.62a18,18,0,0,1-5-2.46,19.68,19.68,0,0,1-5.18,2.59l-.34-.58a20.79,20.79,0,0,0,5-2.44,12,12,0,0,1-2.88-3.89l.56-.29a10.83,10.83,0,0,0,2.86,3.77,10.38,10.38,0,0,0,2.91-3.95h-7.41v-.59h8.13v.6a11,11,0,0,1-3.09,4.33Zm-3.22-11.16h5.44l0,3a1.13,1.13,0,0,0,.24.85,1.25,1.25,0,0,0,.84.28c.5,0,1,0,1.52,0l-.13.64a13,13,0,0,1-1.55,0,1.89,1.89,0,0,1-1.25-.41,1.54,1.54,0,0,1-.32-1.16V133h-4.13v1.44a3.9,3.9,0,0,1-.54,1.91,5.16,5.16,0,0,1-1.75,1.44l-.44-.47a5.19,5.19,0,0,0,1.62-1.29,3,3,0,0,0,.47-1.72Z"/><path d="M719.71,136.86h3.17v7.61c.78-.59,1.64-1.3,2.6-2.16l.31.59q-1.68,1.51-3.48,2.91l-.44-.55a1,1,0,0,0,.29-.4,1.54,1.54,0,0,0,.07-.53v-6.85h-2.52Zm1.29-4.53.49-.44q1.57,1.47,2.67,2.61l-.48.46C722.74,134,721.84,133.13,721,132.33Zm9,5.6v8.54h-.67v-8.54h-4.48v-.63h4.48v-5.85H730v5.85h4.56v.63Z"/><path d="M736.17,138.1a23.24,23.24,0,0,0,3.46-2.85l.4.46a28.21,28.21,0,0,1-3.44,2.88Zm7.4,4.87q4,1.64,6.8,3l-.26.58c-2.15-1-4.42-2-6.83-3a4.92,4.92,0,0,1-2.22,1.8,19.64,19.64,0,0,1-4.35,1.21l-.2-.63a14,14,0,0,0,5.14-1.63,4,4,0,0,0,1.07-1.06,3,3,0,0,0,.46-1.21q0-.41.12-1.29l.65.05c0,.63-.09,1.08-.13,1.37A4.58,4.58,0,0,1,743.57,143Zm-6.93-10.28.25-.54c1.24.49,2.27.94,3.07,1.34l-.26.57C738.63,133.53,737.61,133.07,736.64,132.69Zm1.8,6.55h10.2v4.42H748v-3.85h-8.92v3.86h-.64Zm7-4.7a4.42,4.42,0,0,0,1.62,2,12.45,12.45,0,0,0,3.65,1.4l-.25.59a12.19,12.19,0,0,1-3.82-1.55,4.67,4.67,0,0,1-1.41-1.57,3.72,3.72,0,0,1-1.36,1.63,13.74,13.74,0,0,1-3.43,1.49l-.29-.56a12,12,0,0,0,3.45-1.48,3,3,0,0,0,1.21-1.72c.06-.42.1-.82.13-1.19h-2.26a21.94,21.94,0,0,1-1.53,2l-.49-.41a13.81,13.81,0,0,0,2.45-3.74l.6.18c-.25.53-.48,1-.7,1.39h7v.55a19.57,19.57,0,0,1-1.26,2l-.56-.23c.4-.57.78-1.15,1.13-1.75h-3.79A8.46,8.46,0,0,1,745.45,134.54Z"/><path d="M751.91,136.66l.31-.56c1.27.61,2.23,1.12,2.9,1.52l-.31.59C753.92,137.68,753,137.16,751.91,136.66Zm.48,9.38c.57-1.51,1.19-3.39,1.84-5.64l.59.2c-.44,1.57-1.06,3.46-1.83,5.69Zm.28-13.48L753,132c.76.4,1.64.93,2.63,1.58l-.33.56C754.58,133.67,753.7,133.13,752.67,132.56Zm9.05,2.61h3.79v5.76h-3v3.85a1.63,1.63,0,0,1-.35,1.18,1.78,1.78,0,0,1-1.19.39c-.45,0-.9,0-1.36,0l-.08-.6a11.91,11.91,0,0,0,1.31.06,1.25,1.25,0,0,0,.85-.23,1.18,1.18,0,0,0,.23-.83v-3.77h-3.16v-5.76h2.29c.3-.8.53-1.5.71-2.09h-4.58v4.63a24.68,24.68,0,0,1-.41,4.95,14.86,14.86,0,0,1-1.54,3.82l-.55-.37a13.89,13.89,0,0,0,1.49-3.62,22.73,22.73,0,0,0,.39-4.77v-5.23h9.92v.59h-4C762.18,133.94,761.94,134.64,761.72,135.17ZM759.58,142l.52.26a18.41,18.41,0,0,1-2.35,3.35l-.48-.36A15.69,15.69,0,0,0,759.58,142Zm-.18-4.25h5.51v-2.06H759.4Zm0,2.58h5.51v-2H759.4Zm4.48,1.94.5-.27c.91,1.23,1.65,2.27,2.23,3.13l-.49.35Z"/><path d="M770.67,138.23v8.22h-.62v-7.37a21.76,21.76,0,0,1-2.09,2.34l-.33-.54a22.49,22.49,0,0,0,3.94-5.3l.54.33A22.82,22.82,0,0,1,770.67,138.23Zm.85-6.77.53.36a18.11,18.11,0,0,1-3.67,4.45l-.39-.56A16.6,16.6,0,0,0,771.52,131.46ZM780.14,142v2.37a2.19,2.19,0,0,1-.43,1.47,2.14,2.14,0,0,1-1.44.47l-1.75,0,0-.62c.6,0,1.16,0,1.66,0a1.77,1.77,0,0,0,1.08-.31,1.6,1.6,0,0,0,.28-1.11V142h-7.44v-.56h7.44v-1.76h-6.83v-.58h9.4v.58h-1.93v1.76h2.42V142Zm-6.74.93.36-.46q1.41.84,2.76,1.8l-.39.51C775.26,144.16,774.35,143.54,773.4,142.92Zm7.72-5.41h-7.64v-5.17h7.64Zm-.62-2.84v-1.79h-6.39v1.79Zm0,2.28v-1.76h-6.39V137Z"/><path d="M788.62,144.44l3.73-.49.08.6q-4.6.67-8.45,1.08l-.11-.65,4.12-.48v-3.2h-3.53v-.6H788v-2.08h.63v2.08H792v.6h-3.39Zm2.55-6.95c-2.19.17-4.39.31-6.62.44l-.13-.6a1.37,1.37,0,0,0,.5-.28,29.73,29.73,0,0,0,2.71-3.84H784.2v-.62h8.23v.62h-4a41.84,41.84,0,0,1-2.84,4c1.47-.06,3.22-.16,5.26-.31-.5-.74-1-1.46-1.52-2.14l.51-.3,2.63,3.71-.51.36Zm2.49-4.23h.64v9.36h-.64Zm3.22-1.7h.65v12.55a2.2,2.2,0,0,1-.44,1.57,1.91,1.91,0,0,1-1.47.48c-.47,0-1,0-1.62,0l-.08-.69,1.57.08a1.42,1.42,0,0,0,1.08-.33,1.68,1.68,0,0,0,.31-1.16Z"/><path d="M811.67,142.9h-8v3.52H803v-8.58a24.07,24.07,0,0,1-3,2.91l-.37-.58a19.66,19.66,0,0,0,5.09-5.9h-4.62v-.6H805a20.48,20.48,0,0,0,1-2.27l.67.16a22,22,0,0,1-.91,2.11h8.63v.6h-8.93a17.36,17.36,0,0,1-1.47,2.32h8.34v7.85a2.06,2.06,0,0,1-.41,1.39,2.14,2.14,0,0,1-1.39.46,16,16,0,0,1-1.73-.08l-.12-.61c.53.05,1.09.08,1.69.08a1.58,1.58,0,0,0,1-.29,1.56,1.56,0,0,0,.27-1Zm0-3.43v-2.29h-8v2.29Zm0,2.88V140h-8v2.31Z"/><path d="M820.42,142c.63.68,1.42,1.56,2.38,2.61l-.44.49c-.71-.8-1.47-1.66-2.3-2.56a15.7,15.7,0,0,1-3.86,3.74l-.38-.56a14.25,14.25,0,0,0,3.81-3.66c-.47-.5-1.22-1.3-2.27-2.4l.44-.42c.68.69,1.4,1.46,2.18,2.28a13.9,13.9,0,0,0,1.29-2.91l.57.27A13.46,13.46,0,0,1,820.42,142Zm-2-6.29.52.31a21.56,21.56,0,0,1-2.63,3.43l-.42-.41A23.4,23.4,0,0,0,818.44,135.7Zm1.91-1.62h3.14v.59H816.1v-.59h3.61l-.73-2.47.62-.13C819.88,132.36,820.13,133.23,820.35,134.08Zm6.72,8.28a14.43,14.43,0,0,0,3.58,3.45l-.39.59a16.08,16.08,0,0,1-3.57-3.5,17.36,17.36,0,0,1-3.84,3.63l-.44-.5a16.9,16.9,0,0,0,3.89-3.68,1.92,1.92,0,0,1-.18-.3,13.72,13.72,0,0,1-1.71-4.9,16.78,16.78,0,0,1-.84,1.5l-.19-.24-.43.41c-.56-.7-1.32-1.63-2.3-2.78l.45-.34c.82.92,1.51,1.73,2.08,2.43A17.89,17.89,0,0,0,824.7,135a24.63,24.63,0,0,0,1-3.53l.62.13a27.24,27.24,0,0,1-.83,3h5v.6h-1.34a16.31,16.31,0,0,1-1.63,6.54C827.3,142,827.17,142.21,827.07,142.36Zm-.39-.58c.08-.14.17-.27.24-.41a14.9,14.9,0,0,0,1.57-6.23h-3.2c-.17.42-.32.79-.46,1.09a13.9,13.9,0,0,0,1.77,5.41A1,1,0,0,1,826.68,141.78Z"/><path d="M835.13,139.86v4.81a1.59,1.59,0,0,1-.34,1.13,1.54,1.54,0,0,1-1.08.42,6.24,6.24,0,0,1-1.29-.1l-.06-.65a4.41,4.41,0,0,0,1.17.1,1.46,1.46,0,0,0,.75-.25,1.14,1.14,0,0,0,.22-.77v-4.46l-2.31.8-.18-.62,2.49-.83v-4h-2.18v-.59h2.18v-3.43h.63v3.43h2v.59h-2v3.73l1.82-.7.18.55C836.25,139.43,835.58,139.7,835.13,139.86Zm5.22-.28c1,.79,1.88,1.42,2.48,1.9l-.37.54c-.7-.57-1.44-1.15-2.23-1.75a15.84,15.84,0,0,1-.49,1.75,13.05,13.05,0,0,1-3,4.48l-.52-.46a12.85,12.85,0,0,0,2.88-4.26,10.4,10.4,0,0,0,.52-1.92c-.61-.45-1.3-1-2.06-1.48l.33-.49q1.1.74,1.86,1.29a28.89,28.89,0,0,0,.28-3.35c0-.21,0-.42,0-.62h-2.37v-.61h2.4c0-1.09,0-2.14,0-3.14h.64c0,1.46,0,2.51-.07,3.14h3.79c0,.48,0,.88,0,1.19,0,1.57,0,3.14-.08,4.69a27.39,27.39,0,0,0,.18,3.35,3.39,3.39,0,0,0,.26,1c.16.37.36.57.59.58s.52-.31.68-.92a18.27,18.27,0,0,0,.31-2.12l.51.16c-.11.93-.21,1.64-.31,2.14a2.84,2.84,0,0,1-.47,1.05,1,1,0,0,1-.74.36q-.64,0-1-.84a3.32,3.32,0,0,1-.39-1.35c-.11-.95-.17-2.23-.19-3.84s0-3.32.08-4.87h-3.16c0,.19,0,.38,0,.57A30.94,30.94,0,0,1,840.35,139.58Z"/><path d="M851.2,138.11v8.32h-.63v-7.5a27.47,27.47,0,0,1-2.34,2.47l-.36-.56a21.6,21.6,0,0,0,4.28-5.31l.54.36A21.49,21.49,0,0,1,851.2,138.11Zm.89-6.68.55.38a19.63,19.63,0,0,1-4.07,4.36l-.37-.56A17.07,17.07,0,0,0,852.09,131.43Zm7.58,6.68V144a2.23,2.23,0,0,1-.49,1.62,2.11,2.11,0,0,1-1.52.49,12,12,0,0,1-1.86-.07l-.09-.65c.53.05,1.13.08,1.82.08a1.56,1.56,0,0,0,1.14-.36A1.75,1.75,0,0,0,859,144v-5.84h-5.67v-.62h9.36v.62Zm-5.31-5.31h7.48v.61h-7.48Z"/><path d="M865.34,146.25a1.67,1.67,0,0,1-1.68-1.68,1.71,1.71,0,0,1,1.68-1.7,1.62,1.62,0,0,1,1.21.51,1.56,1.56,0,0,1,.49,1.19,1.59,1.59,0,0,1-.49,1.19A1.64,1.64,0,0,1,865.34,146.25Zm0-.47a1.24,1.24,0,0,0,.87-.33,1.18,1.18,0,0,0,.34-.88,1.12,1.12,0,0,0-1.21-1.21,1.15,1.15,0,0,0-.85.33,1.31,1.31,0,0,0,0,1.76A1.21,1.21,0,0,0,865.34,145.78Z"/><path d="M532.21,175.24a.91.91,0,0,1,.06.16,8.45,8.45,0,0,0,.93,1.88c.48.67.93,1,1.36,1a.93.93,0,0,0,.44-.18,1.56,1.56,0,0,0,.39-.69,15.32,15.32,0,0,0,.53-2.19l.58.22a18,18,0,0,1-.55,2.22c-.3.88-.75,1.32-1.37,1.32a2.06,2.06,0,0,1-1.57-.86,6.51,6.51,0,0,1-1.13-1.93c0-.11-.09-.23-.15-.35a19.64,19.64,0,0,1-3.35,3l-.41-.49a19.46,19.46,0,0,0,3.52-3.22,16.16,16.16,0,0,1-.66-2.66,40.23,40.23,0,0,1-.54-4.51h-6.21v2.88h4.24l-.12,4.08a2.39,2.39,0,0,1-.49,1.57,2.19,2.19,0,0,1-1.47.47,13,13,0,0,1-1.32-.06l-.07-.64a6.22,6.22,0,0,0,1.29.08,1.78,1.78,0,0,0,1.1-.31,1.74,1.74,0,0,0,.32-1.17c.05-1.15.08-2.29.12-3.44h-3.6v.31a17.06,17.06,0,0,1-.39,4,13.23,13.23,0,0,1-1.49,3.37l-.57-.38a10.88,10.88,0,0,0,1.42-3.15,16.88,16.88,0,0,0,.38-3.88v-4.35h6.83c0-.7-.09-1.78-.13-3.23h.65c.05,1.06.09,2.11.13,3.15v.08h5.28V168H531a34.14,34.14,0,0,0,.45,4.12,23.25,23.25,0,0,0,.58,2.43,22.67,22.67,0,0,0,2.6-4.82l.57.25a23.49,23.49,0,0,1-2.78,5.08Zm.06-10.28.39-.48c.53.4,1.27,1,2.24,1.88l-.37.47A27.07,27.07,0,0,0,532.27,165Z"/><path d="M539.8,174.06l.54.18a16.65,16.65,0,0,1-1.89,3.32l-.54-.3A15.71,15.71,0,0,0,539.8,174.06Zm2.77-7.6h3.13V167h-7.65v-.57h3.85c-.27-.73-.54-1.47-.84-2.22l.62-.13C541.87,164.56,542.16,165.35,542.57,166.46Zm2,6.36h-2.35v4.33a1.82,1.82,0,0,1-.36,1.26,1.65,1.65,0,0,1-1.19.41c-.38,0-.75,0-1.1,0l-.06-.61a6.25,6.25,0,0,0,1,.07,1.18,1.18,0,0,0,.82-.23,1.34,1.34,0,0,0,.24-.92v-4.26h-2.5v-3.94h5.47Zm-.6-.57v-2.8h-4.27v2.8Zm-.73,2,.49-.23c.44.64.92,1.35,1.42,2.14l-.49.28C544.21,175.6,543.73,174.87,543.29,174.21Zm4.72-5.56h4.4v.59H548c0,.85-.08,1.33-.08,1.44a5.57,5.57,0,0,0,0,.65,15.52,15.52,0,0,1-1,4.35,13.77,13.77,0,0,1-2.29,3.53l-.5-.41a12.31,12.31,0,0,0,2.48-4,19.42,19.42,0,0,0,.8-5.52h-1.86v-.59h1.88c0-.25,0-.5,0-.75,0-1.83,0-3.09,0-3.78h.63c0,1.17,0,2.43-.05,3.79C548,168.16,548,168.41,548,168.65Zm.91,1.09h.61v7.11a1.59,1.59,0,0,0,.24,1,1,1,0,0,0,.76.25H551a1,1,0,0,0,.77-.27,1.72,1.72,0,0,0,.34-1c.05-.56.09-1.13.13-1.69l.57.14c0,.27-.08.85-.16,1.73a2.18,2.18,0,0,1-.46,1.31,1.55,1.55,0,0,1-1.17.41h-.53a1.49,1.49,0,0,1-1.16-.41,2,2,0,0,1-.36-1.34Zm.38-4.46.49-.31c.73.91,1.32,1.69,1.78,2.34l-.51.33C550.54,166.88,550,166.1,549.3,165.28Z"/><path d="M556.16,169.76a.61.61,0,0,1,.42.16.63.63,0,0,1,.16.41.64.64,0,0,1-.16.43.57.57,0,0,1-.42.16.54.54,0,0,1-.4-.16.58.58,0,0,1-.18-.43.57.57,0,0,1,.17-.41A.53.53,0,0,1,556.16,169.76Zm0,6.85a.57.57,0,0,1,.42.16.57.57,0,0,1,.16.43.63.63,0,0,1-.16.41.61.61,0,0,1-.42.16.59.59,0,0,1-.41-1A.48.48,0,0,1,556.16,176.61Z"/><path d="M572.31,173.16v3.51a1.45,1.45,0,0,0,.31,1.05,1.7,1.7,0,0,0,1.07.36,10.39,10.39,0,0,0,1.37,0,3,3,0,0,0,1.21-.33,1.4,1.4,0,0,0,.51-.91c0-.31.1-.76.16-1.38l.6.18c-.06.61-.13,1.11-.19,1.48a1.65,1.65,0,0,1-.67,1.14,3.55,3.55,0,0,1-1.54.41,13.88,13.88,0,0,1-1.58,0,2.35,2.35,0,0,1-1.46-.49,2,2,0,0,1-.44-1.42v-3.6h-3.09a8.56,8.56,0,0,1-.05,1,5,5,0,0,1-1.39,3.15,8.09,8.09,0,0,1-3.61,1.87l-.31-.59a8.41,8.41,0,0,0,3.35-1.67,4.37,4.37,0,0,0,1.29-2.76c0-.21,0-.55.07-1h-4.5v-.6h13.75v.6Zm-1.48-7h6V169h-.65v-2.29h-11.7v2.35h-.64v-3h6.31c-.27-.71-.54-1.33-.8-1.88l.67-.14C570.32,164.84,570.6,165.51,570.83,166.13Zm-5.33,3.19h9.58v.6H565.5Z"/><path d="M589.29,175.24a.48.48,0,0,1,.07.16,8.45,8.45,0,0,0,.93,1.88c.48.67.93,1,1.36,1a.93.93,0,0,0,.44-.18,1.56,1.56,0,0,0,.39-.69,14.26,14.26,0,0,0,.52-2.19l.59.22a18,18,0,0,1-.55,2.22c-.3.88-.75,1.32-1.38,1.32a2.07,2.07,0,0,1-1.57-.86,6.5,6.5,0,0,1-1.12-1.93l-.15-.35a20,20,0,0,1-3.35,3l-.41-.49a19.06,19.06,0,0,0,3.51-3.22,17.23,17.23,0,0,1-.65-2.66,40.23,40.23,0,0,1-.54-4.51h-6.21v2.88h4.23c0,1.36-.07,2.72-.11,4.08a2.39,2.39,0,0,1-.49,1.57,2.19,2.19,0,0,1-1.47.47c-.49,0-.93,0-1.33-.06l-.06-.64a6.13,6.13,0,0,0,1.29.08,1.8,1.8,0,0,0,1.1-.31,1.74,1.74,0,0,0,.32-1.17c.05-1.15.08-2.29.12-3.44h-3.6v.31a17.06,17.06,0,0,1-.39,4,13.23,13.23,0,0,1-1.49,3.37l-.57-.38a10.88,10.88,0,0,0,1.42-3.15,16.88,16.88,0,0,0,.38-3.88v-4.35h6.83c-.05-.7-.09-1.78-.13-3.23h.65c0,1.06.09,2.11.13,3.15v.08h5.28V168H588a32.23,32.23,0,0,0,.45,4.12,23.25,23.25,0,0,0,.58,2.43,22.23,22.23,0,0,0,2.59-4.82l.58.25a23.49,23.49,0,0,1-2.78,5.08Zm.07-10.28.39-.48c.52.4,1.27,1,2.24,1.88l-.37.47A27.07,27.07,0,0,0,589.36,165Z"/><path d="M595,165.48h12.91v.67c-1.94,1.5-3.83,2.89-5.69,4.17v6.35a2.34,2.34,0,0,1-.45,1.62,2.25,2.25,0,0,1-1.62.49c-.62,0-1.29,0-2-.05l-.1-.7c.53.05,1.18.08,2,.08a1.73,1.73,0,0,0,1.19-.32,1.81,1.81,0,0,0,.33-1.23V170c1.91-1.33,3.7-2.62,5.34-3.87H595Z"/><path d="M618.05,176l.18.08c1.56.66,3.29,1.44,5.2,2.32l-.28.65c-1.72-.83-3.43-1.61-5.11-2.35l-.58-.26a20.37,20.37,0,0,1-7.42,2.71l-.26-.64a29.46,29.46,0,0,0,4.12-1.07,13.59,13.59,0,0,0,2.84-1.31c-1.82-.79-3.34-1.41-4.56-1.88a27,27,0,0,0,1.65-2.75h-4.37v-.6h4.7c.44-.84.89-1.82,1.36-2.94l.67.22c-.38.91-.81,1.81-1.28,2.72h9.22v.6H621a12.29,12.29,0,0,1-1.29,2.7A8.21,8.21,0,0,1,618.05,176Zm-.41-9.61h5.5v2.74h-.66V167H611.2v2.24h-.65v-2.84h6.39c-.32-.72-.66-1.44-1-2.14l.64-.2C616.94,164.86,617.31,165.64,617.64,166.43Zm-.27,9.31a7.88,7.88,0,0,0,1.58-1.58,10.5,10.5,0,0,0,1.34-2.62h-5.7q-.72,1.32-1.47,2.49C614.45,174.52,615.86,175.09,617.37,175.74Z"/><path d="M628.49,176.28c.64-.14,1.29-.3,2-.49l.09.61c-1.64.45-3.25.81-4.82,1.08l-.16-.63,2.3-.44v-5.16h-1.92v-.59h1.92v-4.45h-2.07v-.59h4.59v.59h-1.89v4.45h1.78v.59h-1.78Zm5.41-.08.42.44a27.23,27.23,0,0,1-3.6,2.52l-.35-.51A21.26,21.26,0,0,0,633.9,176.2Zm4.46-1.47h2v.59h-9.86v-.59h2v-7.86H631v-.57h1.51v-2.11h.62v2.11h4.64v-2.11h.64v2.11h1.5v.57h-1.5Zm-.64-5.62v-2.24h-4.64v2.24Zm0,2.84v-2.3h-4.64V172Zm0,2.78v-2.24h-4.64v2.24Zm-1.32,2,.37-.47c1,.62,2.08,1.41,3.39,2.35l-.36.53C638.71,178.31,637.57,177.51,636.4,176.72Z"/><path d="M653.35,173.93h-8.2a9.46,9.46,0,0,1-.79,2.81,11.86,11.86,0,0,1-1.76,2.48l-.56-.49a9,9,0,0,0,2.09-3.28,16.14,16.14,0,0,0,.51-4.61v-5.69H654v11.43a2.55,2.55,0,0,1-.5,1.73,2.35,2.35,0,0,1-1.64.57,17.41,17.41,0,0,1-1.78-.08l-.08-.69c.76.08,1.34.12,1.75.12a1.77,1.77,0,0,0,1.24-.4,2,2,0,0,0,.34-1.32Zm0-.61v-3.44h-8.06v1c0,.93,0,1.75-.08,2.45Zm0-4v-3.5h-8.06v3.5Z"/><path d="M659.08,166.79h3.12v.52l-1.09,2.91-.56-.17,1-2.71h-2.69a20.44,20.44,0,0,1-1.7,3.5l-.48-.44a19.53,19.53,0,0,0,2.45-6.13l.64.11C659.58,165.24,659.34,166,659.08,166.79Zm0,3.12h.62v7.43c.6-.49,1.31-1.13,2.12-1.94l.27.57c-1.19,1.11-2.17,2-2.93,2.57l-.41-.49a1.25,1.25,0,0,0,.33-.92Zm10.1,3v6.23h-.64v-6.23h-3.27a10.34,10.34,0,0,1-.72,3.57,9.6,9.6,0,0,1-2.12,2.82l-.49-.42a7.39,7.39,0,0,0,2.7-6H662v-.59h2.58c0-.25,0-.5,0-.76v-3.47h-1.8v-.59h2.63c-.35-.87-.81-1.89-1.4-3.05l.57-.18c.49.94,1,2,1.47,3.23h1.47a36.78,36.78,0,0,0,1.9-3.32l.55.23c-.55,1.08-1.14,2.11-1.76,3.09h2.86v.59h-2v4.23h2.48v.59Zm-.64-.59v-4.23h-3.23v3.48c0,.25,0,.5,0,.75Z"/><path d="M673.05,177.08l4.2-5a14.71,14.71,0,0,0,1.39-1.9,3.53,3.53,0,0,0,.46-1.76,2.15,2.15,0,0,0-.7-1.73,2.54,2.54,0,0,0-1.73-.59,2.89,2.89,0,0,0-1.93.65,3.29,3.29,0,0,0-1,1.75H673a3.69,3.69,0,0,1,1.31-2.19,3.57,3.57,0,0,1,2.37-.83,3.33,3.33,0,0,1,2.29.76,2.77,2.77,0,0,1,.88,2.18,3.74,3.74,0,0,1-.28,1.42,6.35,6.35,0,0,1-.67,1.23c-.26.36-.62.81-1.08,1.37l-.32.39-3.54,4.25v0H680v.61h-7Z"/><path d="M688.56,174.14a4.23,4.23,0,0,1-.95,2.73,3.48,3.48,0,0,1-5,0,4.25,4.25,0,0,1-1-2.75c0-.73,0-1.54,0-2.45s0-1.71,0-2.43a4.2,4.2,0,0,1,1-2.75,3.49,3.49,0,0,1,5,0,4.28,4.28,0,0,1,.95,2.76c0,.72,0,1.54,0,2.44S688.58,173.4,688.56,174.14Zm-6.21-.21a4.37,4.37,0,0,0,.7,2.43,2.39,2.39,0,0,0,2.08.93,2.35,2.35,0,0,0,2.06-.93,4.37,4.37,0,0,0,.7-2.43c0-.68,0-1.43,0-2.26s0-1.58,0-2.24a4.37,4.37,0,0,0-.7-2.43,2.35,2.35,0,0,0-2.06-.93,2.39,2.39,0,0,0-2.08.93,4.37,4.37,0,0,0-.7,2.43c0,.67,0,1.41,0,2.24S682.33,173.25,682.35,173.93Z"/><path d="M690.39,177.08l4.2-5a14.71,14.71,0,0,0,1.39-1.9,3.64,3.64,0,0,0,.46-1.76,2.15,2.15,0,0,0-.71-1.73,2.51,2.51,0,0,0-1.73-.59,2.91,2.91,0,0,0-1.93.65,3.28,3.28,0,0,0-1,1.75h-.72a3.68,3.68,0,0,1,1.3-2.19,3.61,3.61,0,0,1,2.37-.83,3.33,3.33,0,0,1,2.29.76,2.75,2.75,0,0,1,.89,2.18,3.94,3.94,0,0,1-.28,1.42,6.35,6.35,0,0,1-.67,1.23c-.26.36-.62.81-1.08,1.37l-.33.39-3.53,4.25v0h6.06v.61h-6.94Z"/><path d="M702.39,177.92a3.8,3.8,0,0,1-1.8-.43,3.21,3.21,0,0,1-1.3-1.21,3.69,3.69,0,0,1-.54-1.86h.72a3.05,3.05,0,0,0,.94,2.12,3,3,0,0,0,2,.75,3.11,3.11,0,0,0,2.14-.73,2.86,2.86,0,0,0-.08-4.15,3.77,3.77,0,0,0-2.3-.67h-.84v-.62h.84a3.29,3.29,0,0,0,1.37-.3,2.68,2.68,0,0,0,1.06-.86,2.43,2.43,0,0,0,.41-1.38,2.38,2.38,0,0,0-.72-1.84,2.59,2.59,0,0,0-1.9-.67,2.43,2.43,0,0,0-1.78.67,3,3,0,0,0-.91,1.75H699a3.55,3.55,0,0,1,1.14-2.21,3.34,3.34,0,0,1,2.32-.83,3.49,3.49,0,0,1,1.67.37,2.94,2.94,0,0,1,1.18,1.06,3.09,3.09,0,0,1,.42,1.61,2.84,2.84,0,0,1-2.07,2.89v0a3.22,3.22,0,0,1,1.81,1.05,3.12,3.12,0,0,1,.65,2.06,3.65,3.65,0,0,1-.45,1.78,3.09,3.09,0,0,1-1.31,1.19A4.43,4.43,0,0,1,702.39,177.92Z"/><path d="M711.75,166.1h10v.62h-5.39v3.37h5v.62h-5v3.95h6.14v.63h-6.14v4h-.67v-4h-8v-.63h2.83v-4.57h5.2v-3.37h-4.35c-.26.41-.42.65-.46.7a21.62,21.62,0,0,1-2.3,2.78l-.44-.52a18.13,18.13,0,0,0,3.82-5.57l.65.18C712.35,165,712,165.59,711.75,166.1Zm4,8.56v-3.95h-4.56v3.95Z"/><path d="M725.27,177.33v1.6h-.64V167h1.65a26.83,26.83,0,0,0,1.1-2.81l.65.15c-.27.79-.62,1.68-1,2.66h2.94v11.79h-.64v-1.44Zm0-5.46h4V167.6h-4Zm0,4.84h4v-4.22h-4Zm7.5-9.78h4.74q-.18,7.92-.21,9.22a2.92,2.92,0,0,1-.62,2,2.47,2.47,0,0,1-1.85.67,20.78,20.78,0,0,1-2.12-.1l-.09-.68c.89.07,1.58.11,2.08.11a2,2,0,0,0,1.47-.49,2.42,2.42,0,0,0,.49-1.6c.07-2.9.13-5.74.2-8.52h-4.37A23.25,23.25,0,0,1,731,170.3l-.56-.33a20.41,20.41,0,0,0,2.7-5.82l.62.18C733.49,165.08,733.17,165.94,732.77,166.93Zm-1.14,4,.5-.32c.62.81,1.41,1.88,2.36,3.18l-.54.4C733.32,173.26,732.54,172.17,731.63,171Z"/><path d="M742.58,171.8v7.37H742v-7.38a19,19,0,0,1-2.32,2.35l-.26-.64a15.84,15.84,0,0,0,2.43-2.5,13.68,13.68,0,0,0,1.67-2.91h-3.76v-.57h2.47c-.26-1.24-.53-2.31-.79-3.2l.62-.15c.32,1.24.59,2.36.82,3.35h1.33v.56a15.45,15.45,0,0,1-1.61,2.92v.66l.36-.26q1,.94,2,1.92l-.46.41C743.88,173.08,743.25,172.44,742.58,171.8Zm6.51-4.54.62,0c0,.94,0,1.89-.07,2.82a10.7,10.7,0,0,1-1.24,5.2,11.9,11.9,0,0,1-4.08,3.84l-.43-.49a11.83,11.83,0,0,0,3.94-3.63A9.77,9.77,0,0,0,749,170.1C749,169.56,749.07,168.61,749.09,167.26ZM746,165.15h6.88v8.94h-.64v-8.33h-5.62v8.32H746Zm3.63,7.68h.6v4.06a1.14,1.14,0,0,0,.3.83,1.24,1.24,0,0,0,.88.36,4,4,0,0,0,.85,0,2.45,2.45,0,0,0,1-.28,1.29,1.29,0,0,0,.4-.8q.16-1.26.18-1.5l.57.23c0,.44-.11.93-.2,1.47a1.63,1.63,0,0,1-.54,1.11,3,3,0,0,1-1.32.36,4.43,4.43,0,0,1-.9,0,2,2,0,0,1-1.29-.47,1.76,1.76,0,0,1-.49-1.27Z"/><path d="M762.38,172.08H763a12,12,0,0,1-.26,2.16,5,5,0,0,1-2,3,14.3,14.3,0,0,1-4.85,2l-.31-.59a14.41,14.41,0,0,0,4.65-1.8,4.49,4.49,0,0,0,1.92-2.66A12.28,12.28,0,0,0,762.38,172.08Zm3.47-4.71h3.58v3h-.64V168h-12.1v2.41H756v-3h9a30.43,30.43,0,0,0,2.47-3l.64.27C767.42,165.53,766.66,166.46,765.85,167.37Zm-8.54-2.69.63-.26c.68.82,1.27,1.54,1.74,2.14l-.55.31C758.56,166.15,758,165.42,757.31,164.68Zm.87,5.54h9.15v5.42h-.63v-4.85h-7.87v4.89h-.65Zm3.48-5.9.61-.18c.64,1.06,1.09,1.82,1.35,2.3l-.6.26C762.67,166,762.22,165.23,761.66,164.32Zm1.44,9.87h.62v2.47a1.55,1.55,0,0,0,.31,1.08,1.72,1.72,0,0,0,1.06.36c.77,0,1.54,0,2.33,0a2.58,2.58,0,0,0,1.22-.31,1.72,1.72,0,0,0,.51-1c.07-.46.13-.92.18-1.39l.6.21c0,.49-.12,1-.19,1.41a2.07,2.07,0,0,1-.66,1.24,3,3,0,0,1-1.58.42,21.52,21.52,0,0,1-2.54,0,2.18,2.18,0,0,1-1.42-.49,2,2,0,0,1-.44-1.43Z"/><path d="M777.82,171.62V179h-.64v-7.42h-3a14.56,14.56,0,0,1-.57,4.25,10.48,10.48,0,0,1-2,3.27l-.52-.42a10.42,10.42,0,0,0,1.91-3.06,13.54,13.54,0,0,0,.54-4h-2.4V171h2.4v-5h-1.78v-.61h7.71V166h-1.7v5h2.24v.6Zm-.64-.6v-5h-2.95v5Zm8.24,2.43.51.41a19.27,19.27,0,0,1-6.55,5.28l-.41-.54a21.85,21.85,0,0,0,3.62-2.29A18.68,18.68,0,0,0,785.42,173.45Zm-1.08-9,.48.46a23.53,23.53,0,0,1-4.87,3.94l-.41-.51a22.71,22.71,0,0,0,2.55-1.76A25.33,25.33,0,0,0,784.34,164.46Zm.4,4.68.45.41a25.86,25.86,0,0,1-2.33,2.19,19.28,19.28,0,0,1-2.77,1.89l-.4-.52a18.83,18.83,0,0,0,2.73-1.85A23.86,23.86,0,0,0,784.74,169.14Z"/><path d="M800.69,170.94H794.2c-.1.1-.25.23-.42.41a6,6,0,0,1,2,2.38,34.31,34.31,0,0,0,4.69-2.25l.37.45a27.17,27.17,0,0,1-2.86,1.48A7.55,7.55,0,0,0,799.6,176a9.25,9.25,0,0,0,2.5,1.83l-.39.54a10.32,10.32,0,0,1-2.59-2,8.42,8.42,0,0,1-1.63-2.72l-1.47.59a6.83,6.83,0,0,1,.37,2.31,2.82,2.82,0,0,1-.55,1.93,2.32,2.32,0,0,1-1.77.62c-.38,0-.94,0-1.68-.07l-.06-.59a16.11,16.11,0,0,0,1.63.08,1.89,1.89,0,0,0,1.39-.45,2.35,2.35,0,0,0,.42-1.56,6.19,6.19,0,0,0-.24-1.76,20,20,0,0,1-7.77,4.12l-.29-.54a19.43,19.43,0,0,0,7.88-4.12,5.9,5.9,0,0,0-.7-1.19,20.09,20.09,0,0,1-6.77,3.31l-.28-.52a19.43,19.43,0,0,0,6.73-3.19,8.34,8.34,0,0,0-1-.89,18.46,18.46,0,0,1-5.5,2.17l-.24-.56a24.52,24.52,0,0,0,3.84-1.24,9.94,9.94,0,0,0,1.94-1.14h-4.23v-2.77c-.4.27-.85.53-1.34.81l-.39-.49a17.56,17.56,0,0,0,5.34-4.4l.61.23c-.3.39-.66.81-1.08,1.27h6.52v.51l-2.16,1.72h4.07Zm-5-3.12c.2-.17.91-.73,2.14-1.7h-6.08a17.91,17.91,0,0,1-2.11,1.7Zm-.81.52h-5.12v2.07h4.12A5.88,5.88,0,0,0,794.88,168.34Zm5.19,2.07v-2.07h-4.54a6.59,6.59,0,0,1-.9,2.07Z"/><path d="M806.36,171c0-.46,0-.78,0-1v-.87c0-.42,0-.85,0-1.29H804v-.6h2.43v-3.06H807c0,1,0,2,0,3.06h2.2v.6H807c0,.43,0,.85,0,1.28v.78q0,.75,0,1.08h2.52v.61h-2.55c-.06.5-.11,1-.17,1.48.84,1,1.73,2,2.68,3.21l-.44.45q-1.17-1.47-2.37-2.94a10.17,10.17,0,0,1-.93,2.67,17.22,17.22,0,0,1-1.78,2.48l-.46-.47a13.77,13.77,0,0,0,2.06-3.09,12.62,12.62,0,0,0,.8-3.79h-2.71V171Zm7-3.71H814c0,.64,0,1.56-.05,2.75a11.62,11.62,0,0,1-1.23,5.31,12.21,12.21,0,0,1-4,3.89l-.39-.53a11.27,11.27,0,0,0,3.85-3.66,10.46,10.46,0,0,0,1.16-5C813.32,168.82,813.33,167.9,813.34,167.26Zm-3.09-2.13H817v9h-.62v-8.32h-5.53v8.3h-.64Zm3.53,7.69h.59v4.05a1.3,1.3,0,0,0,.25.88,1.32,1.32,0,0,0,.83.31,3.94,3.94,0,0,0,1,0,2.21,2.21,0,0,0,.91-.26,1.34,1.34,0,0,0,.41-.83l.18-1.51.57.2c-.06.61-.13,1.12-.2,1.52a1.73,1.73,0,0,1-.52,1.08,2.81,2.81,0,0,1-1.29.39,7.1,7.1,0,0,1-1.13,0,1.85,1.85,0,0,1-1.19-.47,1.74,1.74,0,0,1-.38-1.26Z"/><path d="M819.31,172l.3-.55c.54.25,1.58.76,3.1,1.53l-.28.59C821.15,172.84,820.11,172.32,819.31,172Zm10.27-5.25v1.69h-.66V166.7h-4.46v1.72h-.65V166.7h-4.43v-.58h4.43v-2h.65v2h4.46v-2h.66v2H834v.58Zm-6.53,7.55.51.4c-.89,1.36-1.92,2.84-3.07,4.44l-.54-.42Q821.93,176,823.05,174.25Zm-2.51-5.18.33-.53c1.06.55,2.09,1.13,3.08,1.73l-.31.55C822.28,170,821.25,169.44,820.54,169.07Zm5.28.9v6.51a1.5,1.5,0,0,0,.42,1.19,2.54,2.54,0,0,0,1.41.38,29.82,29.82,0,0,0,3,0,4.1,4.1,0,0,0,1.73-.33,1.47,1.47,0,0,0,.64-1.05,9.2,9.2,0,0,0,.2-1.37l.63.18c-.06.52-.14,1-.23,1.46a2,2,0,0,1-.83,1.3,5.27,5.27,0,0,1-2.09.43q-1.58,0-3.12,0a3.24,3.24,0,0,1-1.83-.52,2,2,0,0,1-.58-1.62v-7.18h6.92c0,1.09-.05,2.18-.08,3.25a2.59,2.59,0,0,1-.56,1.69,2.39,2.39,0,0,1-1.63.5c-.57,0-1.19,0-1.87-.06l-.1-.64c.69.06,1.31.08,1.85.08a1.82,1.82,0,0,0,1.24-.36,1.67,1.67,0,0,0,.41-1.24c0-.86.06-1.73.08-2.6Z"/><path d="M836.81,175.69c.4.36.82.76,1.24,1.2s.74.81,1.2,1.37l-.43.36a18.55,18.55,0,0,0-2.39-2.57Z"/><path d="M846.49,165.13h.68v11.48c1-.72,2.45-1.79,4.21-3.22l.31.67q-3.06,2.41-5.08,3.74l-.41-.51a3.38,3.38,0,0,0,.23-.39,2.49,2.49,0,0,0,.06-.49Zm9.65,8.7c1.59,1.77,2.82,3.18,3.69,4.25l-.5.51q-1.73-2.09-3.52-4.14c-.11.19-.22.37-.34.54a13.88,13.88,0,0,1-5.1,4.09l-.39-.59a13.88,13.88,0,0,0,4.93-3.87,11.09,11.09,0,0,0,1.77-5.5c.12-1.21.2-2.68.24-4.43l.69,0c-.06,1.49-.14,2.94-.26,4.35A13.06,13.06,0,0,1,856.14,173.83Zm-5.9-9.17.59-.24c.81,1.39,1.6,2.87,2.35,4.44l-.61.31Q851.46,166.8,850.24,164.66Z"/><path d="M871,175.51a17.82,17.82,0,0,0,5.21,2.83l-.34.66a19.39,19.39,0,0,1-5.38-3,21,21,0,0,1-5.75,3.26l-.35-.6a19.83,19.83,0,0,0,5.58-3.11c-.37-.34-.65-.61-.82-.8a14.25,14.25,0,0,1-3-5.05,16.82,16.82,0,0,1-1.16,4.58,15.46,15.46,0,0,1-3.14,4.43l-.49-.48a14.52,14.52,0,0,0,3-4.21,16.44,16.44,0,0,0,1.21-5.17q0-.41.18-3h-3.13v-.62h10.5v.62l-2,3.86h3.32v.6A13.7,13.7,0,0,1,871,175.51Zm-.53-.44a12,12,0,0,0,3.22-4.75h-3.33v-.59l2-3.89h-6c-.06.84-.11,1.61-.15,2.32a14.14,14.14,0,0,0,3.4,6.13A8.71,8.71,0,0,0,870.47,175.07Z"/><path d="M880.35,175.78l2.09-.79.17.59c-1.74.69-3.44,1.29-5.12,1.8l-.2-.64c1-.31,1.85-.56,2.44-.77v-6.81h-2v-.59h2V164.2h.62v4.37h1.94v.59h-1.94Zm7.29-6.61v6.77H887v-6.57l-2.88.93V176a2,2,0,0,0,.43,1.54,2.73,2.73,0,0,0,1.57.43c1.07.05,2.15.05,3.23,0a3.15,3.15,0,0,0,1.49-.4,1.76,1.76,0,0,0,.57-1.12c.1-.54.18-1,.23-1.49l.6.16c-.06.57-.14,1.1-.24,1.6a2.1,2.1,0,0,1-.77,1.41,3.29,3.29,0,0,1-1.76.44c-1.18.05-2.34.05-3.49,0a3.12,3.12,0,0,1-1.92-.56,2.59,2.59,0,0,1-.56-1.91v-5.6l-1.47.47-.16-.6,1.63-.53v-4.1h.62v3.91l2.88-.92V164.2h.62v4.34l3.69-1.18c-.05,2.21-.11,3.9-.16,5.08a2.32,2.32,0,0,1-.41,1.41,1.64,1.64,0,0,1-1.16.44c-.51,0-.91,0-1.19,0l-.08-.62a10.78,10.78,0,0,0,1.11.05,1.13,1.13,0,0,0,.8-.24,1.84,1.84,0,0,0,.32-1.08c.05-.89.09-2.28.14-4.17Z"/><path d="M895.66,166.61h3.42v.55H895.4a20.31,20.31,0,0,1-1.67,2.91l-.45-.44a21,21,0,0,0,1.53-2.63,16.2,16.2,0,0,0,1.06-2.85l.63.14A21.18,21.18,0,0,1,895.66,166.61Zm.84,6.53v4.38c.59-.43,1.34-1.05,2.23-1.84l.33.5c-.95.84-2,1.68-3.07,2.5l-.39-.45a2.5,2.5,0,0,0,.21-.35,1.16,1.16,0,0,0,.06-.34v-4.4h-2.33v-.55h2.33V170h-1.38v-.57h3.87V170H896.5v2.55h2.37v.55Zm7.42-.86a9.26,9.26,0,0,0,1.38,3.41,9.08,9.08,0,0,0,2.88,2.77l-.39.6a10.14,10.14,0,0,1-3-3,9.42,9.42,0,0,1-1.19-2.76,8.85,8.85,0,0,1-1.31,2.92,11.25,11.25,0,0,1-3.28,3l-.4-.53a10.86,10.86,0,0,0,3.14-2.83,8.32,8.32,0,0,0,1.41-3.53h-4v-.59h4.05c0-.11,0-.27,0-.49s0-1.12.08-3h-2.53a18.11,18.11,0,0,1-.9,2.25l-.55-.24a17.13,17.13,0,0,0,1.53-4.87l.59.13a21,21,0,0,1-.49,2.14h2.39c0-.89,0-2,0-3.43h.64c0,.5,0,1.64,0,3.43h3.44v.59H904c0,.62,0,1.16,0,1.62s-.05,1.22-.08,1.83v0H908v.59Z"/><path d="M909.9,171.12c.82.34,1.78.74,2.87,1.21l-.24.59c-1-.47-2-.89-2.91-1.25Zm10-4.79v1.42h-.64v-1.42H914.7v1.45h-.62v-1.45h-4.33v-.56h4.33v-1.62h.62v1.62h4.56v-1.63h.64v1.63h4.31v.56Zm-7.55,7.89.55.25q-.95,2.4-2,4.57l-.59-.27Q911.35,176.74,912.35,174.22ZM911,167.91c1.32.6,2.27,1.05,2.86,1.34l-.26.59c-.79-.42-1.75-.89-2.9-1.4Zm8.55,4.07a17.71,17.71,0,0,0,4.85,1.31l-.18.61a18.6,18.6,0,0,1-5.1-1.48l-.19-.09a23.25,23.25,0,0,1-5.35,1.79l-.2-.57A21.3,21.3,0,0,0,918.3,172a10.49,10.49,0,0,1-2.36-1.84,14.92,14.92,0,0,1-1.63,1.47l-.41-.48a11.45,11.45,0,0,0,3.27-3.66l.6.17a9.06,9.06,0,0,1-.7,1.12h5.64v.56A11.91,11.91,0,0,1,919.56,172Zm2.38,6.25h-6.16v1h-.62v-4.77h7.4v4.77h-.62Zm0-.54V175h-6.16v2.72Zm-3-6a11.42,11.42,0,0,0,3-2.37h-5.23l-.34.4A9.6,9.6,0,0,0,918.92,171.67Z"/><path d="M928,175.78l2.1-.79.16.59q-2.6,1-5.12,1.8l-.19-.64c1-.31,1.84-.56,2.43-.77v-6.81h-2v-.59h2V164.2H928v4.37h2v.59h-2Zm7.29-6.61v6.77h-.62v-6.57l-2.87.93V176a2.07,2.07,0,0,0,.42,1.54,2.75,2.75,0,0,0,1.57.43q1.62.08,3.24,0a3.1,3.1,0,0,0,1.48-.4,1.72,1.72,0,0,0,.58-1.12c.09-.54.17-1,.22-1.49l.61.16c-.07.57-.15,1.1-.25,1.6a2.09,2.09,0,0,1-.76,1.41,3.3,3.3,0,0,1-1.77.44q-1.77.08-3.48,0a3.16,3.16,0,0,1-1.93-.56,2.59,2.59,0,0,1-.55-1.91v-5.6l-1.48.47-.16-.6,1.64-.53v-4.1h.62v3.91l2.87-.92V164.2h.62v4.34l3.7-1.18c-.06,2.21-.11,3.9-.17,5.08a2.32,2.32,0,0,1-.4,1.41,1.66,1.66,0,0,1-1.16.44c-.52,0-.91,0-1.2,0l-.08-.62a10.78,10.78,0,0,0,1.11.05,1.11,1.11,0,0,0,.8-.24,1.77,1.77,0,0,0,.33-1.08c0-.89.09-2.28.13-4.17Z"/><path d="M945,173.24v5.93h-.62V173.5c-.86.36-1.82.74-2.88,1.15l-.18-.62,3.06-1.21v-4.19h-1.75a25.42,25.42,0,0,1-.73,2.52l-.55-.18a22.67,22.67,0,0,0,1.18-5.21l.56.09c-.1.76-.21,1.48-.35,2.18h1.64v-3.78H945V168h1.81v.6H945v3.93c.76-.31,1.43-.59,2-.84l.17.59Q946.11,172.79,945,173.24Zm8.06-5.69a19.08,19.08,0,0,1-1.55,6.46,14.16,14.16,0,0,1-3.78,4.76l-.46-.48a13.89,13.89,0,0,0,3.71-4.61,18.53,18.53,0,0,0,1.54-6.13h-1.67a15.35,15.35,0,0,1-1.44,4.56,13.56,13.56,0,0,1-2.87,3.68l-.44-.46a11.88,11.88,0,0,0,2.77-3.46,14.35,14.35,0,0,0,1.43-4.32h-1.69a18.2,18.2,0,0,1-1.76,3l-.49-.39a19.94,19.94,0,0,0,2.91-6l.6.18a23,23,0,0,1-1,2.62h6.39q-.13,3-.36,9a3.54,3.54,0,0,1-.57,2,2.23,2.23,0,0,1-1.7.63,17,17,0,0,1-1.73-.1l-.12-.64a15.26,15.26,0,0,0,1.75.11,1.62,1.62,0,0,0,1.29-.44,2.76,2.76,0,0,0,.46-1.68q.13-3.3.34-8.34Z"/><path d="M960.13,171.87a15.43,15.43,0,0,1-2.67,4.67l-.37-.57a14.64,14.64,0,0,0,2.93-5.28h-2.79v-.59h2.9v-5.91h.63v5.91h2.6v.59h-2.6v1.2l.32-.23c.58.63,1.32,1.52,2.23,2.66l-.46.39c-.59-.76-1.29-1.6-2.09-2.53v7h-.63Zm-2.51-5.82.49-.16c.31.69.67,1.63,1.06,2.79l-.52.21C958.34,168,958,167,957.62,166.05Zm5.16-.18.53.2a30,30,0,0,1-1.23,2.82l-.47-.24A29.17,29.17,0,0,0,962.78,165.87Zm6.79,8.5v4.8H969v-4.72l-5.24.82-.09-.64,5.33-.82v-9.64h.62v9.55l2.27-.35.08.64ZM964.4,170l.39-.43c.71.58,1.56,1.32,2.54,2.23l-.38.45Q965.68,171.11,964.4,170Zm.59-3.78.39-.42c.76.68,1.59,1.46,2.49,2.32l-.4.47C966.85,168,966,167.2,965,166.26Z"/><path d="M980.82,172h7.06v.56H973.15V172h7v-1.9h-5.46v-.55h5.46v-1.21h.64v1.21h5.52v.55h-5.52Zm-3.25-5.79c.25.53.51,1.14.8,1.85l-.56.21c-.22-.61-.51-1.29-.87-2.06h-1a16.64,16.64,0,0,1-2.24,2.57l-.46-.41a14.84,14.84,0,0,0,3.22-4.26l.61.18c-.27.51-.53,1-.79,1.4h4.45v.52Zm6.65,8.78v2.06a2.12,2.12,0,0,1-.46,1.47,2.36,2.36,0,0,1-1.55.52,10.44,10.44,0,0,1-1.74,0l-.06-.62c.78,0,1.32.07,1.62.07a2,2,0,0,0,1.21-.36,1.62,1.62,0,0,0,.32-1.13v-2h-9.8v-.55h9.8v-1.28h.66v1.28h3.09V175ZM976,176l.39-.47c.57.33,1.54.93,2.91,1.79l-.39.51Q977.4,176.74,976,176Zm8.42-9.74c.32.63.62,1.24.88,1.81l-.56.22c-.39-.9-.71-1.57-1-2h-1.54A14.39,14.39,0,0,1,981,168l-.51-.34a13.62,13.62,0,0,0,2.26-3.48l.6.15c-.17.35-.41.82-.72,1.4h5.18v.54Z"/><path d="M991.05,179a1.65,1.65,0,0,1-1.19-.49,1.63,1.63,0,0,1-.49-1.2,1.71,1.71,0,0,1,1.68-1.7,1.62,1.62,0,0,1,1.21.51,1.58,1.58,0,0,1,.49,1.19,1.63,1.63,0,0,1-.49,1.2A1.68,1.68,0,0,1,991.05,179Zm0-.48a1.28,1.28,0,0,0,.87-.32,1.35,1.35,0,0,0,0-1.79,1.25,1.25,0,0,0-.87-.31,1.15,1.15,0,0,0-.85.33,1.18,1.18,0,0,0-.34.88,1.21,1.21,0,0,0,.34.89A1.27,1.27,0,0,0,991.05,178.47Z"/><path class="cls-4" d="M371.9.67H8.26A7.78,7.78,0,0,0,.48,8.45V114.56a7.78,7.78,0,0,0,7.78,7.78H170.07l20,34.66,20-34.66H371.9a7.78,7.78,0,0,0,7.78-7.78V8.45A7.78,7.78,0,0,0,371.9.67Z"/><path class="cls-5" d="M190.08,158l-20.29-35.14H8.26A8.27,8.27,0,0,1,0,114.56V8.45A8.28,8.28,0,0,1,8.26.19H371.9a8.28,8.28,0,0,1,8.26,8.26V114.56a8.27,8.27,0,0,1-8.26,8.25H210.37ZM8.26,1.15A7.31,7.31,0,0,0,1,8.45V114.56a7.32,7.32,0,0,0,7.31,7.3H170.34l19.74,34.19,19.74-34.19H371.9a7.32,7.32,0,0,0,7.31-7.3V8.45a7.31,7.31,0,0,0-7.31-7.3Z"/><path d="M106,184.25l5-6a16.81,16.81,0,0,0,1.66-2.26,4.29,4.29,0,0,0,.55-2.11,2.58,2.58,0,0,0-.84-2.07,3.07,3.07,0,0,0-2.07-.7,3.43,3.43,0,0,0-2.3.78,3.94,3.94,0,0,0-1.25,2.09h-.86a4.52,4.52,0,0,1,1.56-2.62,4.34,4.34,0,0,1,2.83-1,4,4,0,0,1,2.73.91,3.26,3.26,0,0,1,1.06,2.6,4.63,4.63,0,0,1-.33,1.7A7.84,7.84,0,0,1,113,177c-.32.43-.75,1-1.29,1.64l-.39.47-4.22,5.07v0h7.24V185H106Z"/><path d="M123.11,185.25a6.56,6.56,0,0,1-3.49-.94,6.23,6.23,0,0,1-2.38-2.64,8.47,8.47,0,0,1-.84-3.86,8.56,8.56,0,0,1,.84-3.88,6.29,6.29,0,0,1,2.38-2.64,7.05,7.05,0,0,1,7,0,6.22,6.22,0,0,1,2.38,2.64,9.14,9.14,0,0,1,0,7.74,6.16,6.16,0,0,1-2.38,2.64A6.58,6.58,0,0,1,123.11,185.25Zm-5.83-7.44a7.9,7.9,0,0,0,.72,3.44,5.55,5.55,0,0,0,5.11,3.22,5.73,5.73,0,0,0,3.09-.86,5.82,5.82,0,0,0,2.06-2.38,7.81,7.81,0,0,0,.74-3.46,7.64,7.64,0,0,0-.74-3.43,5.71,5.71,0,0,0-2.08-2.36,5.63,5.63,0,0,0-3.07-.84,5.48,5.48,0,0,0-3,.84,5.55,5.55,0,0,0-2.07,2.38A7.88,7.88,0,0,0,117.28,177.81Z"/><path d="M132.05,184.25l5-6a16.81,16.81,0,0,0,1.66-2.26,4.29,4.29,0,0,0,.55-2.11,2.58,2.58,0,0,0-.84-2.07,3.07,3.07,0,0,0-2.07-.7,3.43,3.43,0,0,0-2.3.78,3.94,3.94,0,0,0-1.25,2.09H132a4.52,4.52,0,0,1,1.56-2.62,4.34,4.34,0,0,1,2.83-1,4,4,0,0,1,2.73.91,3.26,3.26,0,0,1,1.06,2.6,4.63,4.63,0,0,1-.33,1.7A7.84,7.84,0,0,1,139,177c-.32.43-.75,1-1.29,1.64l-.39.47-4.22,5.07v0h7.24V185h-8.29Z"/><path d="M146.72,185.25a4.54,4.54,0,0,1-2.14-.51,4,4,0,0,1-1.56-1.45,4.39,4.39,0,0,1-.65-2.22h.86a3.69,3.69,0,0,0,1.13,2.54,3.48,3.48,0,0,0,2.42.89,3.77,3.77,0,0,0,2.56-.87,3.05,3.05,0,0,0,1-2.38,3,3,0,0,0-1.11-2.58,4.57,4.57,0,0,0-2.75-.8h-1v-.74h1a4,4,0,0,0,1.64-.35,3.36,3.36,0,0,0,1.27-1,3.17,3.17,0,0,0-.37-3.84,3.14,3.14,0,0,0-2.27-.8,3,3,0,0,0-2.13.8,3.68,3.68,0,0,0-1.09,2.09h-.86a4.25,4.25,0,0,1,1.37-2.64,4,4,0,0,1,2.77-1,4.15,4.15,0,0,1,2,.45,3.43,3.43,0,0,1,1.41,1.26,3.71,3.71,0,0,1,.5,1.92,3.38,3.38,0,0,1-2.47,3.45v0a3.51,3.51,0,0,1,2.94,3.71,4.19,4.19,0,0,1-.55,2.12,3.61,3.61,0,0,1-1.56,1.43A5.34,5.34,0,0,1,146.72,185.25Z"/><path d="M154.33,183.67a.66.66,0,0,1,.49.19.64.64,0,0,1,.22.51.71.71,0,0,1-.22.49.68.68,0,0,1-.49.21.7.7,0,0,1-.49-.21.67.67,0,0,1-.19-.49.66.66,0,0,1,.19-.51A.67.67,0,0,1,154.33,183.67Z"/><path d="M164.21,185.25a6.59,6.59,0,0,1-3.5-.94,6.29,6.29,0,0,1-2.38-2.64,8.47,8.47,0,0,1-.84-3.86,8.56,8.56,0,0,1,.84-3.88,6.35,6.35,0,0,1,2.38-2.64,7.07,7.07,0,0,1,7,0,6.29,6.29,0,0,1,2.38,2.64,9.14,9.14,0,0,1,0,7.74,6.23,6.23,0,0,1-2.38,2.64A6.63,6.63,0,0,1,164.21,185.25Zm-5.84-7.44a7.9,7.9,0,0,0,.72,3.44,5.55,5.55,0,0,0,5.12,3.22,5.69,5.69,0,0,0,3.08-.86,5.77,5.77,0,0,0,2.07-2.38,7.94,7.94,0,0,0,.74-3.46,7.78,7.78,0,0,0-.74-3.43,5.8,5.8,0,0,0-2.09-2.36,5.62,5.62,0,0,0-3.06-.84,5.52,5.52,0,0,0-3.05.84,5.68,5.68,0,0,0-2.07,2.38A7.88,7.88,0,0,0,158.37,177.81Z"/><path d="M176.17,185l3.9-6.77h0a3.77,3.77,0,0,1-1.33.76,5,5,0,0,1-1.69.32,4.15,4.15,0,0,1-2.13-.57,4,4,0,0,1-1.52-1.56,4.61,4.61,0,0,1-.57-2.32,4.69,4.69,0,0,1,.59-2.35A4.17,4.17,0,0,1,175,170.9a4.74,4.74,0,0,1,2.28-.54,4.45,4.45,0,0,1,2.28.56,4.09,4.09,0,0,1,1.56,1.58,4.87,4.87,0,0,1,.57,2.38,6.43,6.43,0,0,1-.39,2.31,23.27,23.27,0,0,1-1.19,2.42l-.23.41L177.08,185Zm-2.52-10.22a4.2,4.2,0,0,0,.45,2,3.33,3.33,0,0,0,3,1.77,4,4,0,0,0,1.88-.45,3.19,3.19,0,0,0,1.34-1.26,3.73,3.73,0,0,0,.51-2,4.15,4.15,0,0,0-.47-2,3.2,3.2,0,0,0-1.29-1.29,3.6,3.6,0,0,0-1.83-.45,3.75,3.75,0,0,0-1.83.43,3.21,3.21,0,0,0-1.31,1.27A3.62,3.62,0,0,0,173.65,174.75Z"/><path d="M182.49,179v-.68h15.18V179Z"/><path d="M198.78,184.25l5-6a18.76,18.76,0,0,0,1.66-2.26,4.39,4.39,0,0,0,.54-2.11,2.58,2.58,0,0,0-.84-2.07,3,3,0,0,0-2.06-.7,3.44,3.44,0,0,0-2.31.78,4,4,0,0,0-1.25,2.09h-.85a4.42,4.42,0,0,1,1.56-2.62,4.32,4.32,0,0,1,2.83-1,4,4,0,0,1,2.73.91,3.28,3.28,0,0,1,1.05,2.6,4.63,4.63,0,0,1-.33,1.7,7.3,7.3,0,0,1-.8,1.46c-.31.43-.74,1-1.29,1.64l-.39.47-4.21,5.07v0h7.24V185h-8.3Z"/><path d="M215.9,185.25a6.59,6.59,0,0,1-3.5-.94,6.29,6.29,0,0,1-2.38-2.64,8.47,8.47,0,0,1-.84-3.86,8.56,8.56,0,0,1,.84-3.88,6.35,6.35,0,0,1,2.38-2.64,7.07,7.07,0,0,1,7,0,6.29,6.29,0,0,1,2.38,2.64,9.14,9.14,0,0,1,0,7.74,6.23,6.23,0,0,1-2.38,2.64A6.63,6.63,0,0,1,215.9,185.25Zm-5.84-7.44a7.9,7.9,0,0,0,.72,3.44,5.55,5.55,0,0,0,5.12,3.22,5.69,5.69,0,0,0,3.08-.86,5.77,5.77,0,0,0,2.07-2.38,7.94,7.94,0,0,0,.74-3.46,7.78,7.78,0,0,0-.74-3.43A5.8,5.8,0,0,0,219,172a5.6,5.6,0,0,0-3.06-.84,5.52,5.52,0,0,0-3.05.84,5.68,5.68,0,0,0-2.07,2.38A7.88,7.88,0,0,0,210.06,177.81Z"/><path d="M224.83,184.25l5-6a18.76,18.76,0,0,0,1.66-2.26,4.39,4.39,0,0,0,.54-2.11,2.58,2.58,0,0,0-.84-2.07,3,3,0,0,0-2.06-.7,3.45,3.45,0,0,0-2.31.78,4,4,0,0,0-1.25,2.09h-.85a4.42,4.42,0,0,1,1.56-2.62,4.32,4.32,0,0,1,2.83-1,4,4,0,0,1,2.73.91,3.28,3.28,0,0,1,1,2.6,4.63,4.63,0,0,1-.33,1.7,7.3,7.3,0,0,1-.8,1.46c-.31.43-.74,1-1.29,1.64l-.39.47-4.21,5.07v0h7.24V185h-8.3Z"/><path d="M239.51,185.25a4.58,4.58,0,0,1-2.15-.51,4,4,0,0,1-1.56-1.45,4.38,4.38,0,0,1-.64-2.22H236a3.74,3.74,0,0,0,1.14,2.54,3.46,3.46,0,0,0,2.42.89,3.72,3.72,0,0,0,2.55-.87,3,3,0,0,0,1-2.38,3,3,0,0,0-1.12-2.58,4.53,4.53,0,0,0-2.75-.8h-1v-.74h1a4,4,0,0,0,1.64-.35,3.28,3.28,0,0,0,1.27-1,3.13,3.13,0,0,0-.37-3.84,3.12,3.12,0,0,0-2.26-.8,2.93,2.93,0,0,0-2.13.8,3.62,3.62,0,0,0-1.09,2.09h-.86a4.24,4.24,0,0,1,1.36-2.64,4,4,0,0,1,2.77-1,4.12,4.12,0,0,1,2,.45,3.37,3.37,0,0,1,1.41,1.26,3.63,3.63,0,0,1,.51,1.92,3.38,3.38,0,0,1-2.48,3.45v0a3.51,3.51,0,0,1,2.95,3.71,4.29,4.29,0,0,1-.55,2.12,3.73,3.73,0,0,1-1.56,1.43A5.34,5.34,0,0,1,239.51,185.25Z"/><path d="M247.12,183.67a.65.65,0,0,1,.48.19.61.61,0,0,1,.22.51.67.67,0,0,1-.22.49.67.67,0,0,1-1,0,.68.68,0,0,1-.2-.49.66.66,0,0,1,.2-.51A.66.66,0,0,1,247.12,183.67Z"/><path d="M255.76,185H255V171.53h0l-3.32,2.63v-.86l3.42-2.67h.72Z"/><path d="M267.65,185.25a6.59,6.59,0,0,1-3.5-.94,6.23,6.23,0,0,1-2.38-2.64,8.47,8.47,0,0,1-.84-3.86,8.56,8.56,0,0,1,.84-3.88,6.29,6.29,0,0,1,2.38-2.64,7.07,7.07,0,0,1,7,0,6.29,6.29,0,0,1,2.38,2.64,9.14,9.14,0,0,1,0,7.74,6.23,6.23,0,0,1-2.38,2.64A6.63,6.63,0,0,1,267.65,185.25Zm-5.84-7.44a7.9,7.9,0,0,0,.72,3.44,5.55,5.55,0,0,0,5.12,3.22,5.69,5.69,0,0,0,3.08-.86,5.77,5.77,0,0,0,2.07-2.38,7.94,7.94,0,0,0,.74-3.46,7.78,7.78,0,0,0-.74-3.43,5.8,5.8,0,0,0-2.09-2.36,5.62,5.62,0,0,0-3.06-.84,5.52,5.52,0,0,0-3,.84,5.68,5.68,0,0,0-2.07,2.38A7.88,7.88,0,0,0,261.81,177.81Z"/><path d="M118,82.52V77.63q13.62-12.19,17.05-19.35a13.47,13.47,0,0,0,1.4-5.57c0-3.44-1.31-5.62-3.93-6.52A7.59,7.59,0,0,0,130,45.8c-2.59,0-5.19,1.5-7.82,4.38l-4.61-4.61q4.89-5.18,10.18-6.19a20.65,20.65,0,0,1,3.38-.28q7.37,0,11,5.07a13.7,13.7,0,0,1,2.36,8q-.06,9.78-14.17,23.62a69,69,0,0,1,6.92-.45h9.28v7.14Z"/><path d="M178,41q-5.11,7.81-15.08,15.35a75.22,75.22,0,0,1-8.21,5.4,20.34,20.34,0,0,0-4.22-5.4l-.28-.28a63,63,0,0,0,18.06-14.4A46.17,46.17,0,0,0,174,33.87h7.32a60.77,60.77,0,0,0,17.83,17.55,57.4,57.4,0,0,0,7.31,3.94,33.74,33.74,0,0,0-4.73,6.24,75.65,75.65,0,0,1-18.22-14A49.68,49.68,0,0,1,178,41Zm-3.6,12.26h7.2V87.53h-7.2Z"/><path d="M255.35,36.46v42.3c0,3.22-.75,5.4-2.25,6.52a10.73,10.73,0,0,1-1.35.73q-2.92,1.29-11.24,1.35H239a25.57,25.57,0,0,0-2.87-7.2l2.42.11q1.29.06,2.58.06h5.12c1.09,0,1.69-.39,1.8-1.18a2.5,2.5,0,0,0,.06-.51V70.32H223.46q-2.7,11.25-9.73,17.21a20.38,20.38,0,0,0-4.44-4.33c-.34-.26-.62-.47-.84-.62q8.33-7.08,9.33-21.26c.12-1.72.17-3.69.17-5.91V36.46ZM224.59,63.68H248.1v-7H225Q224.88,60.54,224.59,63.68ZM248.1,43.15H225v7H248.1Z"/></g></g></g></svg>