<svg xmlns="http://www.w3.org/2000/svg" viewBox="0 0 1145.05 185.11"><defs><style>.cls-1{opacity:0.3;}.cls-2{fill:#ff6d00;}.cls-3{fill:#4c4c4c;}.cls-4{fill:#fff;}.cls-5{fill:#dee7ff;}</style></defs><g id="图层_2" data-name="图层 2"><g id="图层_1-2" data-name="图层 1"><g class="cls-1"><rect class="cls-2" x="739.41" y="62.14" width="38.89" height="20.23" rx="5.18"/><path d="M531.89,14.73l-2.52,4.11a25.46,25.46,0,0,0-7-3.8.31.31,0,0,0-.12,0l2.36-3.72a25.09,25.09,0,0,1,7,3.26Zm-2,6.78,3.64,2.79Q530.08,32,527.36,37l-4.19-2.79A113.3,113.3,0,0,0,529.84,21.51Zm3.84-16.78-2.91,3.84a26.35,26.35,0,0,0-6.36-4.23c-.18-.08-.35-.15-.5-.23L526.62.66a28.35,28.35,0,0,1,7,4S533.65,4.73,533.68,4.73Zm25.11,20H551a23.82,23.82,0,0,0,7.41,6.75c.41.23.82.45,1.24.66a16.51,16.51,0,0,0-3.26,3.68c0,.08,0,.13-.08.15a26.36,26.36,0,0,1-8-8.41v9.65h-4.65V28a26,26,0,0,1-9.15,8.1,19.27,19.27,0,0,0-3-3.61,21.89,21.89,0,0,0,8.88-6.7c.29-.36.56-.73.82-1.09h-7.45V20.51h9.93v-4h4.65v4h10.46ZM537.9,5.78v4h-4.07V1.86h25V8.72h-4.22V5.78h-3v5.81c0,.62.12,1,.35,1.05a3.29,3.29,0,0,0,.51,0h2c.39,0,.63-.25.74-.74a14.74,14.74,0,0,0,.23-2.29,9.71,9.71,0,0,0,3.72,1.55c-.26,2.54-.86,4.11-1.82,4.73a4.62,4.62,0,0,1-2.36.51h-3.26c-2,0-3.31-.47-3.88-1.4a7.4,7.4,0,0,1-.58-3.37V5.78h-2.13C545,9.37,544.24,12,543,13.64c-1.47,1.92-4.05,3.32-7.72,4.23A9.65,9.65,0,0,0,533,14.38c3.33-.7,5.5-1.83,6.51-3.41a11,11,0,0,0,1.24-5.19Z"/><path d="M574.47,23.18l.93,4.26q-5.89,2.49-13.06,5.24l-1.55-4.85c1.21-.36,3-.91,5.23-1.66V14.34h-4.54V9.65H566V.78h4.77V9.65h4.34v4.69h-4.34V24.46Zm2.36-8V1.47h4.69V15.2c0,6.84-.62,12.21-1.86,16.08A24.3,24.3,0,0,1,577,37a19.47,19.47,0,0,0-4.57-2.6q3.79-5.34,4.34-14.26C576.8,18.76,576.83,17.09,576.83,15.16ZM584.39,32V3.57h4.46V32ZM591.88,1.2h4.8V36.83h-4.8Z"/><path d="M636.39,9.85H620.54V14h12.52V27.44c0,2-.53,3.4-1.59,4.07a3.15,3.15,0,0,1-.51.28c-1.26.51-3.62.77-7.05.77a14.93,14.93,0,0,0-1.59-4.65c1.32.05,3,.08,5,.08.54,0,.83-.24.85-.62V18.64h-7.59V37.37h-4.93V18.64h-6.94V32.56h-4.76V14h11.7V9.85H600.19V5.27h15.38V.12h5V5.27h15.78Z"/><path d="M674.59,19.42H668a25.09,25.09,0,0,1-4.92,9.19,72.21,72.21,0,0,1,9.92,4.8l-3.8,3.84A64.55,64.55,0,0,0,659.12,32q-5.65,3.75-16.24,5.31a14.23,14.23,0,0,0-2.4-3.92c-.13-.15-.24-.28-.31-.38q8.79-.9,13.64-3.18-.59-.2-1.74-.66c-1.53-.54-2.65-.93-3.38-1.16L648,29.3,643,28q1.86-3,4.8-8.53h-8.56V15h10.81q1.59-3.06,2.79-5.89l5,1.05c-.57,1.26-1.35,2.88-2.36,4.84h19.11ZM644.93,8.14v5h-4.8V3.8h14.15V.27h5V3.8h14.57v9.3h-5v-5Zm17.56,11.28h-9.22c-.26.49-.64,1.21-1.13,2.17-.64,1.22-1.11,2.11-1.39,2.68q3.11.84,7.6,2.52A16.64,16.64,0,0,0,662.49,19.42Z"/><path d="M689.64,25.39l.55,4.23q-8.54,2.6-12.68,3.83l-.81-4.53q1.08-.24,4.65-1.2V18.26h-3.8V13.92h3.8v-7h-4V2.52H690V6.94h-4.38v7h3.72v4.34h-3.72v8.25C686.09,26.41,687.42,26,689.64,25.39Zm24.42,2.83h-6.47a61.9,61.9,0,0,1,7,6.43l-3.76,2.72a40.94,40.94,0,0,0-6.59-6.67,3.89,3.89,0,0,1-.47-.39l3.18-2.09h-9.88l3.14,1.9a27.45,27.45,0,0,1-8.3,7.21,3,3,0,0,1-.39.23,14.61,14.61,0,0,0-2.94-3.29,24.39,24.39,0,0,0,7.17-5.74,3.74,3.74,0,0,0,.27-.31h-5.7V24h4V9.61h-3.18V5.43h3.18V.27h4.53V5.43h6.86V.27h4.65V5.43h3.34V9.61H710.3V24h3.76ZM705.65,9.61h-6.86v2.33h6.86Zm-6.86,5.93v2.33h6.86V15.54Zm0,6V24h6.86V21.51Z"/><path d="M747.53,24.38,751,26.94a77.38,77.38,0,0,1-7.17,4.3,34.5,34.5,0,0,0,8.8,2,14.78,14.78,0,0,0-2.75,4,.46.46,0,0,1-.08.16q-11.36-1.78-16.55-8.84-.54-.78-1-1.59h-5v5l4-.35c2-.2,3.52-.35,4.5-.42l0,4.1L719,36.94l-.66-4.34,4.11-.31V13.18c-2,1.06-3.44,1.77-4.26,2.13a15.42,15.42,0,0,0-2.72-3.91,43.62,43.62,0,0,0,12.76-7.8A24.16,24.16,0,0,0,731.56.15h4.73a38,38,0,0,0,13.84,9.66c1,.44,2.07.82,3.1,1.16a19.18,19.18,0,0,0-2.94,4.23q-1-.43-4.27-2.1V25.58C746.62,25.14,747.12,24.74,747.53,24.38ZM728.19,11.43V9.54A52.2,52.2,0,0,1,722.88,13h22.87q-3.45-2-5.62-3.53v2Zm-1,4.89v2h14.07v-2Zm0,5v2.17h14.07V21.36Zm2.68-13h8.8a34.87,34.87,0,0,1-4.5-4.07A41.56,41.56,0,0,1,729.86,8.33Zm14.3,18.57h-7a15.7,15.7,0,0,0,2.9,2.48Q742.19,28.23,744.16,26.9Z"/><path d="M756,37.33V19.46h15.12V37.13h-4.73V35.35H760.5v2ZM766.43,24H760.5v6.83h5.93ZM784.76,1.82V16.16H761.5V1.82ZM780,11.71V6.32H766.08v5.39Zm-5.42,7.75h15.58V37.17h-4.77V35.35h-6.28v2h-4.53Zm4.53,11.36h6.28V24h-6.28Z"/><path d="M823.54,16.2l3.3,1.55a27.16,27.16,0,0,1-7.37,11.75,35.36,35.36,0,0,0,11.13,3.64,15.75,15.75,0,0,0-2.91,4.27,35.9,35.9,0,0,1-12.25-4.85,41.45,41.45,0,0,1-11.63,4.85,15.52,15.52,0,0,0-2.44-4.15,35.33,35.33,0,0,0,10.23-3.84A26.13,26.13,0,0,1,807.3,24a31.9,31.9,0,0,1-11.09,10.28,14.25,14.25,0,0,0-2.83-3.3,6.8,6.8,0,0,0-.62-.5q9.42-5,13.57-16.56.15-.42.27-.81h-5.15c-2.41,0-3.8.31-4.19.93a30.6,30.6,0,0,0-1.55-4.3,3.66,3.66,0,0,0,1.7-1.63A25.13,25.13,0,0,0,800,1.94c.08-.29.14-.56.2-.82l5,.82a36.48,36.48,0,0,1-2.79,6.7h5.5A80.39,80.39,0,0,0,809.39,0l5.27.85q-.46,3.76-1.31,7.79h15.93v4.5h-17.1c-.28.93-.64,2-1.08,3.26h11.59ZM820.13,21h-9.77a25.44,25.44,0,0,0,5,5.82A23.2,23.2,0,0,0,820.13,21Zm6.63-15.12L823,8.33a66.08,66.08,0,0,0-4.61-5.73L822,.43C824.45,3.09,826,4.9,826.76,5.85Z"/><path d="M864.26,25.93l2.83,1.9A46,46,0,0,1,861.93,31a20.85,20.85,0,0,0,7,2.52,12.94,12.94,0,0,0-2.71,3.76.24.24,0,0,0,0,.12,20.39,20.39,0,0,1-10.55-6l.16,3.22L841,36.79l-.62-4.31c1.27-.13,2.61-.28,4-.46V25.93H840.3V22h6.09V19.26h-5V15.35h5V12.71h-5.82v1q0,16.29-4.8,23.77a17.47,17.47,0,0,0-4.07-2.37l-.12,0q4-6.32,4.23-19.46V2h30.58V12.71H861v2.64h5.74v3.91H861V22h7.48v3.95Zm-23.69-20V8.72h21V5.93Zm8.14,20v5.55q2.88-.39,6.28-.9a20.65,20.65,0,0,1-2.79-4.65Zm2-13.22v2.64h5.93V12.71Zm0,6.55V22h5.93V19.26Zm12.21,6.67h-6.24a15.24,15.24,0,0,0,2.17,2.72A42.1,42.1,0,0,0,862.9,25.93Z"/><path d="M906.8,9.46H885.55c-.36.83-.89,1.87-1.59,3.14h18.38V32.21c0,1.94-.43,3.25-1.28,3.92q-.39.23-.78.42-1.59.78-6.39.78h-.66a18.37,18.37,0,0,0-1.4-4.58c1.35.08,3,.12,5,.12.57-.13.87-.39.9-.77V29.69H883.42v7.6h-4.69V20a30,30,0,0,1-5.23,4.61,20.56,20.56,0,0,0-3.1-3.6,30.56,30.56,0,0,0,9.88-11.59h-8.72V5h10.7A45.39,45.39,0,0,0,883.81.23l4.88,1.09c-.38,1.24-.81,2.48-1.27,3.72H906.8Zm-9.07,9.8V16.75H883.42v2.51Zm-14.31,6.52h14.31V23.22H883.42Z"/><path d="M921,1.78l3.21,1.86q-2.89,9-3.6,10.74l-.08.16a12.25,12.25,0,0,1,3,8.1q0,3.84-1.83,5.15a5.27,5.27,0,0,1-2.32.93,25.62,25.62,0,0,1-2.75.08,9.36,9.36,0,0,0-1.05-4.22q.78,0,1.86,0a2.37,2.37,0,0,0,1.12-.34,2.71,2.71,0,0,0,.74-2.21,10.81,10.81,0,0,0-3-7c.68-2,1.5-5,2.49-8.92h-3.53V37.33H911V2h9.34Zm21,19,3.68,2.63A68.12,68.12,0,0,1,940.34,28a15.29,15.29,0,0,0,6.2,5.23,14.11,14.11,0,0,0-3,3.8,1.21,1.21,0,0,1-.08.19q-6.86-3.65-9.84-13.56c-.31-1-.6-2.07-.86-3.18h-2.86V30.7q.5-.07,5.73-1.05L936,33.8c-1.76.41-4.42,1-8,1.78l-5.2,1.13-1.55-4.58,4.15-.62V2h18.41V20.47h-6.94a29.59,29.59,0,0,0,1.51,4.18A41.28,41.28,0,0,0,942,20.74ZM939.14,6.09h-9.22V9.23h9.22Zm-9.22,7V16.4h9.22V13.06Z"/><path d="M956.1,6.36l5.19,1.55a37.22,37.22,0,0,1-7.64,10.62c-.62.59-1.22,1.12-1.82,1.59A25,25,0,0,0,948,16.78a25.56,25.56,0,0,0,6.7-7.63A24.24,24.24,0,0,0,956.1,6.36Zm14.61,17.13,4.46-2.13a75.43,75.43,0,0,1,8.45,12l.85,1.67-4.73,2.48c-.18-.46-.71-1.51-1.59-3.14q-14.53.73-27.36,1.24l-.55-5c2.82-.05,4.76-.1,5.82-.16a84.24,84.24,0,0,0,6.47-15.23c.08-.28.16-.55.23-.81l5.66,1.39a145.19,145.19,0,0,1-7,14.5q4.68-.12,14-.43C973.51,27.17,972,25,970.71,23.49ZM959.58,1.86h15.59a34.28,34.28,0,0,0,7.29,11.05,28.27,28.27,0,0,0,3.21,2.79,17.4,17.4,0,0,0-4.14,3.18l-.28.27A41.45,41.45,0,0,1,972,6.74a2.26,2.26,0,0,0-.15-.31H959.58Z"/><path d="M1021.2,2.64V31.32c0,2.15-.46,3.61-1.36,4.38a3.76,3.76,0,0,1-.85.58q-1.86,1-7.41.93h-.27a16.36,16.36,0,0,0-1.55-5.11,50.19,50.19,0,0,0,5.58.07c.65-.05,1-.35,1-.89V7.13H988.63V2.64ZM1012.36,10v4.11H989V10Zm-2.06,20.47H995.65V33.3H991V17h19.26Zm-4.65-9.38h-10v5.31h10Z"/><path class="cls-3" d="M531,72.5v6.42h-1.19V72.5h-7.9V71.38h7.9V63.74h-6.65v-1.1h14.45v1.1H531v7.64h7.9V72.5Zm-6.84-6.82,1-.49q1.59,2.49,2.57,4.33l-1,.58C526,68.63,525.12,67.15,524.17,65.68Zm11.56-.49,1,.49c-.92,1.68-1.81,3.16-2.68,4.46l-1-.55A42,42,0,0,0,535.73,65.19Z"/><path class="cls-3" d="M554.79,77.6H542.85v1.27h-1.13V66.34h5.18c.42-1,.78-1.86,1.05-2.64H540.4v-1h16.87v1H549.2q-.53,1.41-1.08,2.64h7.82V78.87h-1.15Zm-9-1V67.32h-2.91V76.6Zm5-6.82V67.32h-4v2.46Zm0,3.38V70.69h-4v2.47Zm0,3.44V74.07h-4V76.6Zm4,0V67.32h-2.91V76.6Z"/><path class="cls-3" d="M558.64,67.63h3.46v8.1q1.18-1,2.19-2.1l.51,1a38.87,38.87,0,0,1-3.59,3.23l-.68-.87a1.67,1.67,0,0,0,.34-.6,2.66,2.66,0,0,0,.1-.72v-7h-2.33Zm1.18-5,.9-.66c.85.87,1.77,1.88,2.76,3l-.89.78C561.61,64.55,560.68,63.51,559.82,62.6Zm10.69,12.79a19,19,0,0,0,5.29,2.32l-.57,1.1a21.78,21.78,0,0,1-5.67-2.68,22.23,22.23,0,0,1-5.8,2.83l-.6-1a23.31,23.31,0,0,0,5.5-2.57,14.37,14.37,0,0,1-3.12-4.12l.92-.56a13.72,13.72,0,0,0,3.12,4,11.59,11.59,0,0,0,3.14-4.15h-8.3v-1H574v1A13.52,13.52,0,0,1,570.51,75.39Zm-4.2-12.94h6.63l0,3.33a1.15,1.15,0,0,0,.24.92,1.3,1.3,0,0,0,.91.28c.83,0,1.41,0,1.76,0l-.21,1c-.37,0-1,0-1.85,0a2.22,2.22,0,0,1-1.53-.45,1.78,1.78,0,0,1-.46-1.44l0-2.66h-4.38c0,.44,0,.88,0,1.32a4.6,4.6,0,0,1-.64,2.25,6.8,6.8,0,0,1-2.06,1.72l-.78-.83a5.67,5.67,0,0,0,1.86-1.48,3.38,3.38,0,0,0,.52-1.92Q566.36,63.53,566.31,62.45Z"/><path class="cls-3" d="M577.1,67.66h3.83v8.43c1-.74,1.89-1.52,2.8-2.34l.51,1q-2.46,2.15-4.23,3.48l-.78-1a2.22,2.22,0,0,0,.44-.51,2.18,2.18,0,0,0,.11-.74V68.76H577.1Zm1.45-5,.89-.72q1.47,1.37,3.06,3l-.85.81Q579.92,63.93,578.55,62.62Zm10.64,6.48v9.77H588V69.1h-5V68h5V61.51h1.19V68h5.1V69.1Z"/><path class="cls-3" d="M599.78,61.56h1.1v7.31a20.14,20.14,0,0,1-.64,5.84,8.47,8.47,0,0,1-1,2.15,13.91,13.91,0,0,1-1.78,2.08l-.94-.68A9.47,9.47,0,0,0,599.29,74a10.75,10.75,0,0,0,.36-1.93,31.36,31.36,0,0,0,.13-3.21Zm-3.23,1.76h1V73.75h-1Zm11.24,4.46V78.87h-1.07V67.78H603.9v8.44h-1V66.78h3.86v-3H602v-1h10.52v1h-4.76v3h3.93v7.44a2.07,2.07,0,0,1-.41,1.4,2.15,2.15,0,0,1-1.34.45c-.33,0-.79,0-1.38,0l-.19-1a9.65,9.65,0,0,0,1.23.08,1.41,1.41,0,0,0,.81-.21,1.1,1.1,0,0,0,.23-.79V67.78Z"/><path class="cls-3" d="M621.94,78.94V61.45H623V78.94Z"/><path class="cls-3" d="M636.22,70.54v8.34h-1.06V70.82a19.85,19.85,0,0,1-2.43,2.42l-.49-1.06A20.06,20.06,0,0,0,635,69.44a15.11,15.11,0,0,0,1.85-3.12h-4.08v-1h2.7q-.48-2.22-.87-3.57l1.06-.2c.31,1.07.62,2.33.92,3.77H638v1a17.83,17.83,0,0,1-1.78,3.21v.87l.64-.5c.76.72,1.48,1.46,2.16,2.21l-.78.7A29.35,29.35,0,0,0,636.22,70.54Zm7.12-5.37h1.1c0,1.12-.05,2.24-.08,3.36a12.73,12.73,0,0,1-1.45,5.93,13.74,13.74,0,0,1-4.72,4.42l-.76-.88a13.08,13.08,0,0,0,4.5-4,10.84,10.84,0,0,0,1.34-5.46C643.32,66.79,643.34,65.66,643.34,65.17Zm-3.57-2.64H648v10.4h-1.12V63.6h-6V73h-1.08ZM644,71.65h1v4.46a1.2,1.2,0,0,0,.32.89,1.84,1.84,0,0,0,1,.33,2.08,2.08,0,0,0,.61,0,1.83,1.83,0,0,0,1-.3,1.32,1.32,0,0,0,.44-.83c.13-.87.22-1.48.24-1.83l1,.43c-.11.87-.19,1.48-.24,1.82a2.05,2.05,0,0,1-.68,1.28,3.23,3.23,0,0,1-1.63.46h-.73a2.79,2.79,0,0,1-1.7-.53,2,2,0,0,1-.63-1.59Z"/><path class="cls-3" d="M658.74,70.65h1.11a13.36,13.36,0,0,1-.36,2.62,5.89,5.89,0,0,1-2.34,3.46,16.76,16.76,0,0,1-5.65,2.19l-.53-1A16.87,16.87,0,0,0,656.28,76a4.9,4.9,0,0,0,2.16-2.93A13.08,13.08,0,0,0,658.74,70.65Zm4.55-5.54h3.85V68.8H666V66.1H652.67v2.68h-1.13V65.11h10.35a28.7,28.7,0,0,0,2.65-3.45l1.13.39C664.88,63.17,664.08,64.2,663.29,65.11Zm-10.37-2.94,1.1-.38c.75.92,1.39,1.74,1.9,2.47l-1,.49Q654.08,63.57,652.92,62.17Zm1,6.25h10.82v6.37h-1.11V69.36h-8.58v5.5h-1.13Zm4-6.67,1.09-.3c.75,1.27,1.26,2.17,1.55,2.68l-1.06.45C659,63.5,658.42,62.56,657.91,61.75Zm1.7,11.35h1.09v2.82A1.53,1.53,0,0,0,661,77a1.74,1.74,0,0,0,1.08.33,16.49,16.49,0,0,0,2.63,0A2.61,2.61,0,0,0,666,77a1.66,1.66,0,0,0,.53-1c.08-.42.15-1,.23-1.66l1,.38c-.09.59-.19,1.18-.29,1.76a2.28,2.28,0,0,1-.79,1.41,3.31,3.31,0,0,1-1.77.46,26.72,26.72,0,0,1-3.1,0,2.5,2.5,0,0,1-1.68-.57,2.17,2.17,0,0,1-.53-1.64Z"/><path class="cls-3" d="M669.14,67.63h3.46v8.1q1.18-1,2.19-2.1l.51,1a38.87,38.87,0,0,1-3.59,3.23L671,77a1.67,1.67,0,0,0,.34-.6,2.66,2.66,0,0,0,.1-.72v-7h-2.33Zm1.18-5,.9-.66c.85.87,1.77,1.88,2.76,3l-.89.78C672.11,64.55,671.18,63.51,670.32,62.6ZM681,75.39a19,19,0,0,0,5.29,2.32l-.57,1.1a21.78,21.78,0,0,1-5.67-2.68,22.23,22.23,0,0,1-5.8,2.83l-.6-1a23.31,23.31,0,0,0,5.5-2.57A14.37,14.37,0,0,1,676,71.27l.92-.56a13.72,13.72,0,0,0,3.12,4,11.59,11.59,0,0,0,3.14-4.15h-8.3v-1h9.54v1A13.52,13.52,0,0,1,681,75.39Zm-4.2-12.94h6.63l0,3.33a1.15,1.15,0,0,0,.24.92,1.3,1.3,0,0,0,.91.28c.83,0,1.41,0,1.76,0l-.21,1c-.37,0-1,0-1.85,0a2.22,2.22,0,0,1-1.53-.45,1.78,1.78,0,0,1-.46-1.44l0-2.66h-4.38c0,.44,0,.88,0,1.32a4.6,4.6,0,0,1-.64,2.25,6.8,6.8,0,0,1-2.06,1.72l-.78-.83a5.67,5.67,0,0,0,1.86-1.48,3.38,3.38,0,0,0,.52-1.92Q676.86,63.53,676.81,62.45Z"/><path class="cls-3" d="M687.6,67.66h3.83v8.43c1-.74,1.89-1.52,2.8-2.34l.51,1q-2.46,2.15-4.23,3.48l-.78-1a2.22,2.22,0,0,0,.44-.51,2.18,2.18,0,0,0,.11-.74V68.76H687.6Zm1.45-5,.89-.72q1.47,1.37,3.06,3l-.85.81C691,64.51,690,63.49,689.05,62.62Zm10.64,6.48v9.77H698.5V69.1h-5V68h5V61.51h1.19V68h5.1V69.1Z"/><path class="cls-3" d="M710.29,61.56h1.09v7.31a20.14,20.14,0,0,1-.64,5.84,8.47,8.47,0,0,1-1,2.15,13.34,13.34,0,0,1-1.78,2.08l-.94-.68A9.47,9.47,0,0,0,709.79,74a10.75,10.75,0,0,0,.36-1.93,31,31,0,0,0,.14-3.21Zm-3.23,1.76h1V73.75h-1Zm11.23,4.46V78.87h-1.07V67.78H714.4v8.44h-1V66.78h3.86v-3h-4.69v-1h10.52v1h-4.76v3h3.93v7.44a2.07,2.07,0,0,1-.41,1.4,2.15,2.15,0,0,1-1.34.45c-.33,0-.79,0-1.38,0l-.19-1a9.65,9.65,0,0,0,1.23.08,1.38,1.38,0,0,0,.81-.21,1.1,1.1,0,0,0,.23-.79V67.78Z"/><path class="cls-4" d="M755.71,65.61V72.3a12.7,12.7,0,0,0,3.37,2.3,4,4,0,0,0-.79.91,12.54,12.54,0,0,1-2.58-1.8v5.16H754.6V72.65a16.24,16.24,0,0,1-2.17-2.86q-1.51,6.52-6,9a3.19,3.19,0,0,0-.81-.79s-.05,0-.05,0a10.53,10.53,0,0,0,4.31-4.29,16.58,16.58,0,0,0-2.78-2.06,10.43,10.43,0,0,1-1,1.12,5.43,5.43,0,0,0-.89-.69,12.57,12.57,0,0,0,3.25-5.68c.08-.28.16-.55.23-.83l1.06.22c-.19.68-.41,1.36-.65,2h2.74l.2-.07.7.27c0,.09-.08.5-.21,1.22l.57-.21a11.6,11.6,0,0,0,1.48,2.12V65.61Zm-4.16,3.21h-2.84a18.58,18.58,0,0,1-1.07,2,16.05,16.05,0,0,1,2.72,1.91A17.67,17.67,0,0,0,751.55,68.82Z"/><path class="cls-4" d="M770.55,68.58H763a13.22,13.22,0,0,1-2.54,2.76,5.41,5.41,0,0,0-.89-.78,11.81,11.81,0,0,0,3.37-4c.18-.35.35-.69.5-1l1.09.32a12.48,12.48,0,0,1-.88,1.7h8v.52a43,43,0,0,1-.47,6.51,1.53,1.53,0,0,1-.24.54,1.29,1.29,0,0,1-.92.49,9.5,9.5,0,0,1-1.7,0,2.67,2.67,0,0,0-.27-1,10.11,10.11,0,0,0,1.45.06.6.6,0,0,0,.49-.2c.26-.35.45-2.26.55-5.73Zm-5.79,9h5.54a1.5,1.5,0,0,0,1.23-.39,3.58,3.58,0,0,0,.36-1.44,2.82,2.82,0,0,0,1,.39,3.37,3.37,0,0,1-.67,2,2.91,2.91,0,0,1-2,.5h-5.49a4.1,4.1,0,0,1-2.46-.5,2,2,0,0,1-.49-1.51v-6.5h5.91v4.29h-4.84v2.21a.84.84,0,0,0,.38.83A4.18,4.18,0,0,0,764.76,77.58Zm2-6.52h-3.78v2.35h3.78Z"/><path d="M527.2,116.13v3.35h-.6v-3.2c-1.56.37-3.12.69-4.69,1l-.15-.62,1.31-.23V106.14h-1.13v-.57h6.36v.57h-1.1v9.38c.42-.09.83-.2,1.25-.31l.08.59C527.94,116,527.5,116.06,527.2,116.13Zm-.6-7.13v-2.86h-2.94V109Zm0,3.4v-2.84h-2.94v2.84Zm0,3.27v-2.73h-2.94v3.35C524.2,116.18,525.18,116,526.6,115.67Zm4.18-1.19.59.26a26.23,26.23,0,0,1-2.78,4.74l-.54-.38A23.46,23.46,0,0,0,530.78,114.48Zm4.64-1.59h-6.06v-7.21h6.06Zm-.62-.6v-6H530v6Zm-1.47,2.47.56-.3q1.43,2.21,2.68,4.56l-.56.33Q534.86,117.19,533.33,114.76Z"/><path d="M545.66,110.36h7v.56H538.11v-.56H545v-1.62h-5.23v-.54H545v-1.62h-6V106h6v-1.61h.65V106h6.07v.54h-6.07v1.62h5.27v.54h-5.27Zm-.27,5.7c1.87.76,4.11,1.7,6.71,2.85l-.26.57q-3.89-1.7-6.75-2.88-1.23,2-6.55,2.9l-.25-.59a16.27,16.27,0,0,0,4.91-1.46,3.36,3.36,0,0,0,1.78-2.29c0-.34.06-.76.1-1.25h.65l-.12,1.3A4.63,4.63,0,0,1,545.39,116.06Zm-5.1-3.49H550.4v4.2h-.63v-3.65h-8.85v3.7h-.63Z"/><path d="M556.18,110.05a.57.57,0,0,1,.42.16.64.64,0,0,1,.17.41.67.67,0,0,1-.17.43.61.61,0,0,1-.42.16.55.55,0,0,1-.39-.16.6.6,0,0,1-.18-.43.56.56,0,0,1,.16-.41A.51.51,0,0,1,556.18,110.05Zm0,6.85a.57.57,0,0,1,.42.16.58.58,0,0,1,.17.43.62.62,0,0,1-.17.4.57.57,0,0,1-.42.17.52.52,0,0,1-.39-.17.55.55,0,0,1-.18-.4.57.57,0,0,1,.16-.43A.49.49,0,0,1,556.18,116.9Z"/><path d="M568.33,106.09H575v.59l-2.76,2.7h4V116h-.66v-6h-9.09v6h-.65v-6.63h5.56c1.22-1.22,2.12-2.12,2.71-2.68h-6.24a21,21,0,0,1-3.81,3.43l-.43-.51a18.64,18.64,0,0,0,2.91-2.41,19.11,19.11,0,0,0,2.26-2.85l.65.21C569.05,105.13,568.69,105.64,568.33,106.09Zm2.56,9c2,1,4.26,2.28,6.84,3.76l-.3.6c-2.84-1.63-5.11-2.9-6.8-3.79q-1.27,2.53-6.57,3.87l-.28-.62a12.16,12.16,0,0,0,5.43-2.5,4.61,4.61,0,0,0,1.06-1.55,6.2,6.2,0,0,0,.38-1.8c0-.41,0-1,.06-1.86h.64c0,.51,0,1.16-.08,1.94A6.31,6.31,0,0,1,570.89,115.07Z"/><path d="M587.06,110.36h7v.56H579.51v-.56h6.9v-1.62h-5.23v-.54h5.23v-1.62h-6V106h6v-1.61h.65V106h6.07v.54h-6.07v1.62h5.27v.54h-5.27Zm-.27,5.7c1.87.76,4.11,1.7,6.71,2.85l-.26.57q-3.88-1.7-6.75-2.88-1.23,2-6.55,2.9l-.25-.59a16.27,16.27,0,0,0,4.91-1.46,3.36,3.36,0,0,0,1.78-2.29c0-.34.06-.76.1-1.25h.65c0,.1,0,.54-.11,1.3A4.68,4.68,0,0,1,586.79,116.06Zm-5.1-3.49H591.8v4.2h-.63v-3.65h-8.85v3.7h-.63Z"/><path d="M595.64,109.85h2.81v7.59a27.12,27.12,0,0,0,2.07-2.08l.33.57a31.75,31.75,0,0,1-2.93,2.77l-.39-.5a1.12,1.12,0,0,0,.21-.39,2,2,0,0,0,.07-.49v-6.85h-2.17Zm1.07-4.54.53-.39c.74.77,1.53,1.64,2.37,2.6l-.51.44C598.26,107,597.47,106.09,596.71,105.31Zm8.95,11.21a17.49,17.49,0,0,0,4.78,2.27l-.32.62a18,18,0,0,1-5-2.46,19.6,19.6,0,0,1-5.19,2.59l-.34-.58a20.25,20.25,0,0,0,5-2.44,11.8,11.8,0,0,1-2.87-3.89l.55-.29a11.07,11.07,0,0,0,2.86,3.77,10.18,10.18,0,0,0,2.91-4h-7.4v-.59h8.12v.6a11,11,0,0,1-3.09,4.33Zm-3.23-11.16h5.45l0,3a1.11,1.11,0,0,0,.25.84,1.22,1.22,0,0,0,.83.28c.5,0,1,0,1.52,0l-.13.64a13,13,0,0,1-1.55,0,1.86,1.86,0,0,1-1.24-.4,1.58,1.58,0,0,1-.33-1.17l0-2.58h-4.14v1.44a3.79,3.79,0,0,1-.54,1.91,5.05,5.05,0,0,1-1.75,1.44l-.44-.47A5.07,5.07,0,0,0,602,109a3,3,0,0,0,.47-1.72Z"/><path d="M612,109.84h3.17v7.61c.77-.59,1.64-1.3,2.6-2.16l.31.59q-1.7,1.52-3.48,2.91l-.45-.55a1,1,0,0,0,.3-.4,1.88,1.88,0,0,0,.06-.53v-6.85H612Zm1.29-4.53.49-.44c1,1,1.93,1.85,2.66,2.61l-.47.46C615,107,614.13,106.12,613.29,105.31Zm9,5.61v8.53h-.67v-8.53h-4.48v-.64h4.48v-5.85h.67v5.85h4.56v.64Z"/><path d="M637.28,107.56h4.25v.64h-3.24v4.45h4v.62h-4v6.14h-.66v-6.14h-5a7.63,7.63,0,0,1-1,3.53,10.3,10.3,0,0,1-2.89,2.78l-.49-.49a10.09,10.09,0,0,0,2.76-2.57,6.89,6.89,0,0,0,1-3.25h-4.27v-.62H632c0-.25,0-.5,0-.75v-3.7h-3.5v-.64h4.28c-.6-1-1.2-2-1.79-2.79l.58-.25c.72,1,1.38,2,2,3h3a27.19,27.19,0,0,0,1.85-3.1l.62.24A23.63,23.63,0,0,1,637.28,107.56Zm.35,5.09V108.2h-5v3.65c0,.27,0,.54,0,.8Z"/><path d="M654.68,118h2.66v.61h-14.8V118h2.66V105.39h9.48Zm-.69-8.3V106h-8.12v3.72Zm0,4.17v-3.58h-8.12v3.58Zm0,4.13v-3.54h-8.12V118Z"/><path d="M661.88,115.79v3.72h-.6V115.9l-3.06.46-.1-.64c1.16-.15,2.21-.3,3.16-.46v-2.87h-2.53v-.58c.5-1.31,1-2.76,1.45-4.34h-1.91v-.58h2.07c.23-.83.45-1.65.64-2.43l.57.1c-.24,1-.44,1.75-.62,2.33h2.63v.58h-2.79c-.46,1.52-.94,3-1.44,4.34h1.93v-3h.6v3h1.61v.58h-1.61v2.79l1.82-.33.08.58Zm9.88-8.88H673v.57h-4.4v2h3.57v8.31a1.57,1.57,0,0,1-.35,1.14,1.5,1.5,0,0,1-1.09.36c-.38,0-.73,0-1,0l-.11-.59c.21,0,.55,0,1,.07a1.18,1.18,0,0,0,.77-.21,1.23,1.23,0,0,0,.2-.8V115.8h-3v3.3H668v-3.3h-2.9v3.6h-.6v-10H668v-2h-3.78v-.57H668v-2.48h.6v2.48h2.52c-.36-.74-.72-1.43-1.08-2.06l.59-.16C671,105.36,671.36,106.1,671.76,106.91ZM668,110h-2.9v2.34H668Zm0,5.22v-2.32h-2.9v2.32Zm3.55-2.88V110h-3v2.34Zm0,2.88v-2.32h-3v2.32Z"/><path d="M680.37,116.33l1.13-.2.08.57q-3.57.69-7.37,1.18l-.14-.62c.47-.06,1-.12,1.49-.2V105.49h4.81Zm-.62-7.08v-3.17h-3.58v3.17Zm0,3.61v-3h-3.58v3Zm0,3.56v-3h-3.58V117C677.62,116.77,678.81,116.59,679.75,116.42Zm4.49-8.46H688c-.13,4.44-.23,7.42-.28,8.92a2.32,2.32,0,0,1-.48,1.57,2,2,0,0,1-1.48.51c-.42,0-1,0-1.67-.07l-.13-.67a14,14,0,0,0,1.65.1,1.61,1.61,0,0,0,1.13-.34,2,2,0,0,0,.36-1.2q.15-3.68.24-8.19h-3.14a24.72,24.72,0,0,1-.85,6.44,11.67,11.67,0,0,1-2.68,4.45l-.5-.44a11,11,0,0,0,2.6-4.24,24.13,24.13,0,0,0,.81-6.21h-2.09V108h2.11c0-.8,0-2,0-3.52h.64C684.28,105.22,684.26,106.39,684.24,108Z"/><path d="M690.28,111.41c.82.33,1.78.74,2.87,1.21l-.24.58c-1-.47-2-.88-2.91-1.24Zm10-4.79V108h-.64v-1.42h-4.56v1.45h-.62v-1.45h-4.33v-.56h4.33v-1.62h.62v1.62h4.56v-1.63h.64v1.63h4.31v.56Zm-7.55,7.89.55.25q-.94,2.4-2,4.57l-.59-.28Q691.72,117,692.73,114.51Zm-1.34-6.31c1.32.6,2.27,1,2.86,1.34l-.26.59c-.79-.42-1.75-.89-2.9-1.41Zm8.55,4.07a17.71,17.71,0,0,0,4.85,1.31l-.18.6a18.28,18.28,0,0,1-5.1-1.47l-.19-.09a24.25,24.25,0,0,1-5.35,1.79l-.2-.57a21.3,21.3,0,0,0,4.91-1.57,10.54,10.54,0,0,1-2.36-1.85,14.06,14.06,0,0,1-1.63,1.48l-.41-.48a11.45,11.45,0,0,0,3.27-3.66l.6.16a8.4,8.4,0,0,1-.7,1.13h5.64v.56A12.1,12.1,0,0,1,699.94,112.27Zm2.38,6.24h-6.16v1h-.62v-4.77h7.4v4.77h-.62Zm0-.53v-2.72h-6.16V118Zm-3-6a11.42,11.42,0,0,0,3-2.37h-5.23l-.34.39A9.43,9.43,0,0,0,699.3,112Z"/><path d="M708.4,116.06l2.1-.78.16.59q-2.6,1-5.12,1.8l-.19-.64c1-.31,1.84-.56,2.43-.77v-6.82h-2v-.58h2v-4.37h.62v4.37h2v.58h-2Zm7.29-6.6v6.77h-.62v-6.57l-2.87.93v5.7a2.07,2.07,0,0,0,.42,1.54,2.69,2.69,0,0,0,1.57.42,29.18,29.18,0,0,0,3.24,0,3,3,0,0,0,1.48-.39,1.74,1.74,0,0,0,.58-1.13c.09-.53.17-1,.22-1.48l.61.16c-.07.57-.15,1.1-.25,1.6a2.09,2.09,0,0,1-.76,1.41,3.3,3.3,0,0,1-1.77.44q-1.77.08-3.48,0a3.22,3.22,0,0,1-1.93-.56,2.61,2.61,0,0,1-.55-1.91v-5.61l-1.48.48-.16-.61,1.64-.52V106h.62v3.9l2.87-.91v-4.53h.62v4.33l3.7-1.17c-.06,2.21-.11,3.9-.17,5.08a2.29,2.29,0,0,1-.4,1.4,1.62,1.62,0,0,1-1.16.45c-.52,0-.91,0-1.2,0l-.08-.62a10.78,10.78,0,0,0,1.11,0,1.11,1.11,0,0,0,.8-.24,1.77,1.77,0,0,0,.33-1.08c0-.9.09-2.28.13-4.17Z"/><path d="M730,116.33l.18.08q2.34,1,5.2,2.32l-.28.65c-1.72-.83-3.43-1.61-5.11-2.35l-.58-.26a20.63,20.63,0,0,1-7.42,2.71l-.26-.64a28.06,28.06,0,0,0,4.12-1.08,13.62,13.62,0,0,0,2.84-1.3q-2.73-1.18-4.56-1.88a30.29,30.29,0,0,0,1.65-2.75h-4.38v-.6h4.71c.44-.84.89-1.82,1.36-3l.67.23c-.38.91-.81,1.81-1.28,2.72H736v.6h-3.12a12.51,12.51,0,0,1-1.29,2.7A8.69,8.69,0,0,1,730,116.33Zm-.41-9.62H735v2.75h-.66v-2.14H723.1v2.24h-.65v-2.85h6.39c-.32-.71-.66-1.43-1-2.14l.64-.19C728.84,105.15,729.21,105.93,729.54,106.71Zm-.28,9.32a7.93,7.93,0,0,0,1.59-1.58,10.5,10.5,0,0,0,1.34-2.62h-5.7c-.48.88-1,1.71-1.47,2.48C726.34,114.8,727.76,115.38,729.26,116Z"/><path d="M740.38,116.57c.65-.14,1.3-.3,2-.49l.09.6a45.24,45.24,0,0,1-4.82,1.08l-.16-.62,2.3-.44v-5.16h-1.93V111h1.93V106.5h-2.07v-.59h4.59v.59h-1.9V111h1.79v.59h-1.79Zm5.41-.08.43.44a27.23,27.23,0,0,1-3.6,2.52l-.36-.51A21,21,0,0,0,745.79,116.49Zm4.47-1.47h2v.59h-9.86V115h2v-7.86h-1.51v-.58h1.51v-2.1H745v2.1h4.64v-2.1h.64v2.1h1.5v.58h-1.5Zm-.64-5.63v-2.23H745v2.23Zm0,2.85v-2.31H745v2.31Zm0,2.78v-2.24H745V115Zm-1.32,2,.37-.47c1,.62,2.08,1.4,3.38,2.35l-.35.52C750.61,118.6,749.47,117.8,748.3,117Z"/><path d="M765.25,114.22h-8.2a9.54,9.54,0,0,1-.79,2.81,11.86,11.86,0,0,1-1.76,2.48l-.56-.49a9,9,0,0,0,2.09-3.28,16.14,16.14,0,0,0,.51-4.61v-5.69h9.38v11.42a2.56,2.56,0,0,1-.5,1.74,2.35,2.35,0,0,1-1.64.57,17.41,17.41,0,0,1-1.78-.08l-.08-.69a17.31,17.31,0,0,0,1.75.11,1.76,1.76,0,0,0,1.24-.39,2,2,0,0,0,.34-1.32Zm0-.61v-3.45h-8.06v1c0,.93,0,1.74-.08,2.45Zm0-4v-3.5h-8.06v3.5Z"/><path d="M771,107.07h3.12v.53L773,110.51l-.56-.17,1-2.71h-2.69a20.79,20.79,0,0,1-1.71,3.5l-.47-.44a19.53,19.53,0,0,0,2.45-6.13l.64.11Q771.37,106,771,107.07Zm0,3.13h.62v7.43c.6-.49,1.31-1.14,2.12-1.94l.27.57c-1.19,1.11-2.17,2-2.93,2.57l-.41-.5a1.21,1.21,0,0,0,.33-.91Zm10.1,3v6.23h-.64v-6.23h-3.27a10.22,10.22,0,0,1-.72,3.56,9.63,9.63,0,0,1-2.12,2.83l-.49-.42a7.51,7.51,0,0,0,2.7-6h-2.57v-.59h2.58c0-.25,0-.5,0-.77v-3.46h-1.8v-.59h2.63c-.35-.87-.82-1.89-1.4-3.06l.57-.18q.74,1.42,1.47,3.24h1.47a36.78,36.78,0,0,0,1.9-3.32l.55.23c-.55,1.08-1.14,2.11-1.76,3.09H783v.59h-2v4.23h2.48v.59Zm-.64-.59v-4.23h-3.23v3.48c0,.25,0,.5,0,.75Z"/><path d="M785,117.37l4.2-5a14.71,14.71,0,0,0,1.39-1.9,3.56,3.56,0,0,0,.46-1.76,2.2,2.2,0,0,0-.7-1.74,2.6,2.6,0,0,0-1.74-.59,2.83,2.83,0,0,0-1.92.66,3.19,3.19,0,0,0-1,1.75h-.72a3.69,3.69,0,0,1,1.31-2.19,3.58,3.58,0,0,1,2.37-.84,3.34,3.34,0,0,1,2.29.77,2.76,2.76,0,0,1,.88,2.18,3.74,3.74,0,0,1-.28,1.42,6,6,0,0,1-.67,1.22q-.39.54-1.08,1.38l-.32.39-3.54,4.25v0h6.07V118H785Z"/><path d="M800.46,114.43a4.23,4.23,0,0,1-1,2.73,3.5,3.5,0,0,1-5,0,4.25,4.25,0,0,1-.95-2.75c0-.73,0-1.54,0-2.45s0-1.71,0-2.43a4.2,4.2,0,0,1,1-2.75,3.47,3.47,0,0,1,5,0,4.28,4.28,0,0,1,1,2.76c0,.72,0,1.53,0,2.44S800.48,113.69,800.46,114.43Zm-6.21-.21a4.37,4.37,0,0,0,.7,2.43,2.39,2.39,0,0,0,2.08.93,2.36,2.36,0,0,0,2.06-.93,4.37,4.37,0,0,0,.7-2.43c0-.68,0-1.43,0-2.26s0-1.58,0-2.24a4.37,4.37,0,0,0-.7-2.43,2.36,2.36,0,0,0-2.06-.94,2.4,2.4,0,0,0-2.08.94,4.37,4.37,0,0,0-.7,2.43c0,.67,0,1.41,0,2.24S794.23,113.54,794.25,114.22Z"/><path d="M802.29,117.37l4.2-5a14.71,14.71,0,0,0,1.39-1.9,3.66,3.66,0,0,0,.45-1.76,2.17,2.17,0,0,0-.7-1.74,2.57,2.57,0,0,0-1.73-.59A2.86,2.86,0,0,0,804,107a3.31,3.31,0,0,0-1.05,1.75h-.71a3.68,3.68,0,0,1,1.3-2.19,3.62,3.62,0,0,1,2.37-.84,3.34,3.34,0,0,1,2.29.77,2.73,2.73,0,0,1,.88,2.18,3.93,3.93,0,0,1-.27,1.42,6,6,0,0,1-.67,1.22c-.27.36-.62.82-1.08,1.38l-.33.39-3.53,4.25v0h6.06V118h-6.94Z"/><path d="M814.29,118.2a3.91,3.91,0,0,1-1.8-.42,3.28,3.28,0,0,1-1.3-1.21,3.69,3.69,0,0,1-.54-1.86h.72a3.07,3.07,0,0,0,.94,2.12,2.93,2.93,0,0,0,2,.75,3.11,3.11,0,0,0,2.14-.73,2.53,2.53,0,0,0,.85-2,2.48,2.48,0,0,0-.93-2.15,3.77,3.77,0,0,0-2.3-.67h-.84v-.62h.84a3.29,3.29,0,0,0,1.37-.3,2.68,2.68,0,0,0,1.06-.86,2.46,2.46,0,0,0,.41-1.38,2.38,2.38,0,0,0-.72-1.84,2.6,2.6,0,0,0-1.9-.68,2.44,2.44,0,0,0-1.78.68,3,3,0,0,0-.91,1.74h-.72a3.52,3.52,0,0,1,1.14-2.2,3.34,3.34,0,0,1,2.32-.84,3.49,3.49,0,0,1,1.67.38,2.87,2.87,0,0,1,1.18,1.06,3.06,3.06,0,0,1,.42,1.6,2.84,2.84,0,0,1-2.07,2.9v0a3.17,3.17,0,0,1,1.81,1,3.11,3.11,0,0,1,.65,2,3.66,3.66,0,0,1-.45,1.79,3.09,3.09,0,0,1-1.31,1.19A4.56,4.56,0,0,1,814.29,118.2Z"/><path d="M823.65,106.39H833.7V107h-5.39v3.37h5V111h-5v4h6.14v.62h-6.14v4h-.67v-4h-8V115h2.83v-4.57h5.2V107h-4.35c-.26.41-.42.65-.46.7a22.47,22.47,0,0,1-2.3,2.78l-.45-.52a18,18,0,0,0,3.83-5.58l.65.18C824.25,105.27,823.94,105.88,823.65,106.39Zm4,8.56v-4h-4.56v4Z"/><path d="M837.17,117.62v1.6h-.64v-12h1.65a26.83,26.83,0,0,0,1.1-2.81l.65.15c-.27.79-.62,1.68-1,2.66h3v11.78h-.64v-1.43Zm0-5.46h4v-4.27h-4Zm0,4.84h4v-4.22h-4Zm7.5-9.78h4.74q-.18,7.92-.21,9.22a3,3,0,0,1-.62,2,2.49,2.49,0,0,1-1.85.67,20.78,20.78,0,0,1-2.12-.1l-.09-.69c.89.08,1.58.12,2.08.12a2,2,0,0,0,1.47-.49,2.42,2.42,0,0,0,.49-1.6c.07-2.9.13-5.74.2-8.52h-4.37a23.25,23.25,0,0,1-1.53,2.75l-.56-.33a20.41,20.41,0,0,0,2.7-5.82l.62.18C845.39,105.36,845.07,106.23,844.67,107.22Zm-1.14,4,.5-.32c.62.81,1.41,1.87,2.36,3.18l-.54.39C845.21,113.55,844.44,112.46,843.53,111.24Z"/><path d="M854.48,112.09v7.37h-.6v-7.38a19,19,0,0,1-2.32,2.35l-.26-.64a16.28,16.28,0,0,0,2.43-2.5,13.93,13.93,0,0,0,1.67-2.91h-3.76v-.57h2.47c-.26-1.24-.53-2.31-.79-3.2l.62-.15c.32,1.24.59,2.36.82,3.35h1.32v.56a15.13,15.13,0,0,1-1.6,2.92v.65l.36-.26c.7.64,1.36,1.28,2,1.93l-.46.41C855.77,113.37,855.15,112.72,854.48,112.09Zm6.51-4.54h.62c0,1,0,1.9-.07,2.83a10.7,10.7,0,0,1-1.24,5.2,12,12,0,0,1-4.08,3.84l-.43-.49a11.83,11.83,0,0,0,3.94-3.63,9.77,9.77,0,0,0,1.19-4.92C860.94,109.85,861,108.9,861,107.55Zm-3.14-2.11h6.88v8.94h-.64V106h-5.62v8.32h-.62Zm3.63,7.68h.6v4a1.17,1.17,0,0,0,.3.84,1.33,1.33,0,0,0,.88.36,4,4,0,0,0,.85,0,2.45,2.45,0,0,0,1-.28,1.29,1.29,0,0,0,.4-.8q.16-1.26.18-1.5l.57.22c-.05.45-.11.94-.2,1.48a1.63,1.63,0,0,1-.54,1.11,3,3,0,0,1-1.32.36,5.29,5.29,0,0,1-.9,0,2,2,0,0,1-1.29-.47,1.78,1.78,0,0,1-.49-1.28Z"/><path d="M874.28,112.37h.62a12,12,0,0,1-.26,2.16,5,5,0,0,1-2,3,14.09,14.09,0,0,1-4.85,2l-.32-.59a14.39,14.39,0,0,0,4.66-1.8,4.56,4.56,0,0,0,1.92-2.66A12.53,12.53,0,0,0,874.28,112.37Zm3.47-4.71h3.58v3h-.64v-2.42h-12.1v2.4h-.65v-3h9a30.43,30.43,0,0,0,2.47-3l.64.26C879.32,105.82,878.56,106.75,877.75,107.66ZM869.21,105l.62-.27c.69.83,1.27,1.55,1.75,2.14l-.55.32C870.46,106.44,869.86,105.71,869.21,105Zm.87,5.54h9.15v5.42h-.63v-4.85h-7.87V116h-.65Zm3.48-5.9.61-.18c.64,1,1.09,1.82,1.35,2.3l-.6.26C874.57,106.32,874.12,105.52,873.56,104.61Zm1.44,9.87h.62V117a1.46,1.46,0,0,0,.31,1.07,1.6,1.6,0,0,0,1.06.36,22.63,22.63,0,0,0,2.33,0,2.37,2.37,0,0,0,1.22-.31,1.66,1.66,0,0,0,.51-1c.07-.46.13-.92.18-1.39l.6.21c-.05.49-.12,1-.19,1.41a2.15,2.15,0,0,1-.66,1.24,3.06,3.06,0,0,1-1.58.42,21.52,21.52,0,0,1-2.54,0,2.18,2.18,0,0,1-1.42-.49A2,2,0,0,1,875,117Z"/><path d="M887.5,115.31l.44.46a32.36,32.36,0,0,1-4.17,3l-.39-.52A27.15,27.15,0,0,0,887.5,115.31Zm4-8.94q-1,.75-2.4,1.8c-1,.72-1.94,1.3-2.69,1.73,1.42,0,3.3-.09,5.63-.24q1.63-1,2.91-1.92l.48.46q-2.11,1.44-4.33,2.75c-1.6.92-3.23,1.8-4.92,2.63,2.57,0,5.47-.13,8.71-.34l-2-1.8.44-.41c1.66,1.51,2.92,2.69,3.78,3.51l-.43.43c-.4-.4-.83-.81-1.27-1.21l-4.27.23v3.58a1.79,1.79,0,0,1-.39,1.27,2.09,2.09,0,0,1-1.34.44,9.76,9.76,0,0,1-1.57,0l-.16-.65a9.48,9.48,0,0,0,1.6.07,1.27,1.27,0,0,0,.91-.28,1.29,1.29,0,0,0,.28-.9V114q-3.24.14-6,.18l-.1-.57a6.32,6.32,0,0,0,1.2-.38,59.92,59.92,0,0,0,5.39-3q-2.78.16-6.15.24l-.09-.54a4.53,4.53,0,0,0,1-.34,43.86,43.86,0,0,0,4.69-3.22q-3.37.18-6.36.23L884,106q6.78-.11,12.87-.68l.16.6C895.41,106.1,893.56,106.24,891.5,106.37Zm1.77,9.48.39-.49q2.07,1.33,4.12,2.81l-.39.53C896.15,117.78,894.77,116.83,893.27,115.85Z"/><path d="M903.07,109.74c.16-.25.51-.84,1.06-1.75l.54.29a63.35,63.35,0,0,1-3.76,5.63c1.19-.11,2.29-.25,3.32-.43l0,.62c-1.19.2-2.63.38-4.33.54l-.17-.57a1.84,1.84,0,0,0,.74-.64c.62-.83,1.34-1.86,2.17-3.09-.76.07-1.81.14-3.14.22l-.16-.53a1.61,1.61,0,0,0,.64-.62c.45-.71,1-1.52,1.48-2.45s1-1.86,1.25-2.5l.62.23a50,50,0,0,1-3,5.23C901.12,109.88,902,109.83,903.07,109.74Zm-3.66,7.83c1.65-.3,3.39-.69,5.21-1.2l.08.59q-2.54.74-5.13,1.23ZM912.5,112l-2,.14v5a1.45,1.45,0,0,0,.18.85,1.25,1.25,0,0,0,.74.34,3.76,3.76,0,0,0,1.16,0,1.23,1.23,0,0,0,.68-.31,1.63,1.63,0,0,0,.28-.78c0-.3.09-.79.16-1.48l.58.2c-.09.84-.14,1.34-.17,1.49a2,2,0,0,1-.42,1.06,1.72,1.72,0,0,1-1,.43,11.36,11.36,0,0,1-1.43,0,1.88,1.88,0,0,1-1.1-.48,1.93,1.93,0,0,1-.31-1.24v-5.07l-2.06.1c0,.41,0,.69,0,.83A6.72,6.72,0,0,1,904,119.5l-.39-.51a8.36,8.36,0,0,0,2.7-2.49,7.17,7.17,0,0,0,.8-3.35c0-.27,0-.53,0-.8-.83,0-1.66.06-2.48.08l-.17-.53a2.06,2.06,0,0,0,.74-.51,36.49,36.49,0,0,0,3-3.87h-3.64v-.59h4.56c-.23-.57-.6-1.38-1.1-2.42l.64-.17c.24.51.63,1.37,1.16,2.59h4v.59H909a45.12,45.12,0,0,1-3.36,4.29q2.19,0,6.39-.32l-2-2.37.45-.33q1.61,1.78,3.24,3.81l-.46.39Q913,112.6,912.5,112Z"/><path d="M916.59,105.42h.67V116.9c1-.72,2.45-1.8,4.21-3.22l.32.67q-3.06,2.41-5.09,3.74l-.41-.51a3.38,3.38,0,0,0,.23-.39,2,2,0,0,0,.07-.49Zm9.64,8.7q2.38,2.64,3.69,4.25l-.5.51q-1.73-2.09-3.52-4.14c-.11.18-.22.36-.34.54a14,14,0,0,1-5.1,4.09l-.39-.59A13.7,13.7,0,0,0,925,114.9a10.91,10.91,0,0,0,1.77-5.49c.12-1.21.2-2.68.24-4.43l.69,0c-.05,1.49-.14,2.94-.26,4.35A12.86,12.86,0,0,1,926.23,114.12Zm-5.9-9.17.59-.25q1.23,2.1,2.35,4.45l-.6.31Q921.56,107.09,920.33,105Z"/><path d="M941.09,115.8a18,18,0,0,0,5.21,2.83l-.34.65a19.14,19.14,0,0,1-5.38-3,20.72,20.72,0,0,1-5.75,3.27l-.34-.6a19.91,19.91,0,0,0,5.57-3.11c-.37-.35-.64-.61-.82-.8a14.4,14.4,0,0,1-3-5,16.47,16.47,0,0,1-1.16,4.58A15.46,15.46,0,0,1,931.9,119l-.49-.48a14.46,14.46,0,0,0,3-4.21,16.3,16.3,0,0,0,1.21-5.17q0-.41.18-3h-3.12v-.63h10.49v.63l-2,3.85h3.32v.61A13.77,13.77,0,0,1,941.09,115.8Zm-.52-.44a12.1,12.1,0,0,0,3.22-4.76h-3.34V110l2-3.89h-5.95c-.06.83-.1,1.61-.15,2.32a14.24,14.24,0,0,0,3.4,6.13A7.76,7.76,0,0,0,940.57,115.36Z"/><path d="M947.84,117.75q2.28-.48,5.28-1.36l.09.57q-2.28.74-5.21,1.41Zm3.72-8q.74-1.12,1.23-2l.56.28a67.6,67.6,0,0,1-4,5.87q2.05-.19,3.45-.36l0,.58c-1.17.14-2.66.29-4.47.46l-.13-.54a2.2,2.2,0,0,0,.66-.52c.54-.69,1.19-1.6,2-2.73l.28-.42c-1,.05-2,.1-3.19.14l-.12-.52a1.52,1.52,0,0,0,.53-.46,37.84,37.84,0,0,0,2.87-5.08l.61.24c-.37.77-.85,1.65-1.42,2.67s-1.14,1.87-1.59,2.53Zm6.69,6.23.15.31c.68,1.52,1.4,2.29,2.15,2.29a.85.85,0,0,0,.53-.2,2.23,2.23,0,0,0,.44-.73,19.73,19.73,0,0,0,.55-2.11l.56.24a16.44,16.44,0,0,1-.54,2.11c-.32.9-.82,1.36-1.52,1.36-1,0-1.92-.91-2.76-2.72a1,1,0,0,1-.1-.21,24.08,24.08,0,0,1-4.4,2.19L953,118a26.1,26.1,0,0,0,4.46-2.21,19.66,19.66,0,0,1-.9-3.48l-3.07.49-.1-.59,3.07-.49-.06-.47q-.1-.74-.21-2.13l-2.59.31-.08-.59,2.62-.32c-.08-1.07-.13-2.4-.17-4l.66,0c0,1.37.07,2.68.14,3.92l5.12-.63.07.6-5.14.64c0,.69.11,1.36.2,2,0,.14,0,.32.08.55l5.23-.83.08.6-5.23.82a17.41,17.41,0,0,0,.82,3.22,20.08,20.08,0,0,0,3.06-2.62l.44.43A20.38,20.38,0,0,1,958.25,116Zm.15-11,.52-.26c.47.69.92,1.45,1.36,2.25l-.54.3C959.39,106.67,958.94,105.91,958.4,105.05Z"/><path d="M971,117.88h7.65v.65H964v-.65h6.31V104.46h.7v5.25h6.18v.63H971Z"/><path d="M980.25,117.75q2.29-.48,5.28-1.36l.1.57q-2.28.74-5.21,1.41Zm3.73-8q.74-1.12,1.23-2l.55.28a67.52,67.52,0,0,1-4,5.87c1.37-.13,2.52-.25,3.44-.36l0,.58c-1.16.14-2.65.29-4.46.46l-.13-.54a2,2,0,0,0,.65-.52c.55-.69,1.2-1.6,2-2.73l.28-.42c-1,.05-2,.1-3.19.14l-.11-.52a1.41,1.41,0,0,0,.52-.46,39,39,0,0,0,2.88-5.08l.6.24c-.37.77-.84,1.65-1.42,2.67s-1.14,1.87-1.58,2.53Zm6.69,6.23c.05.11.1.21.14.31.69,1.52,1.41,2.29,2.16,2.29a.83.83,0,0,0,.52-.2,2.07,2.07,0,0,0,.44-.73,17.45,17.45,0,0,0,.56-2.11l.55.24a18.45,18.45,0,0,1-.53,2.11c-.32.9-.83,1.36-1.52,1.36-1,0-1.93-.91-2.77-2.72a1.65,1.65,0,0,1-.09-.21,24.4,24.4,0,0,1-4.4,2.19l-.3-.55a25.84,25.84,0,0,0,4.47-2.21,18.84,18.84,0,0,1-.9-3.48l-3.08.49-.09-.59,3.07-.49c0-.15,0-.31-.07-.47q-.09-.74-.21-2.13l-2.58.31-.08-.59,2.61-.32c-.07-1.07-.13-2.4-.16-4l.65,0c0,1.37.07,2.68.15,3.92l5.12-.63.06.6-5.13.64c0,.69.11,1.36.2,2a3.81,3.81,0,0,0,.08.55l5.23-.83.08.6-5.23.82a16.65,16.65,0,0,0,.82,3.22,19.52,19.52,0,0,0,3-2.62l.44.43A19.86,19.86,0,0,1,990.67,116Zm.14-11,.52-.26a25.29,25.29,0,0,1,1.36,2.25l-.54.3C991.8,106.67,991.36,105.91,990.81,105.05Z"/><path d="M1002.81,106.49v13h-.7v-13h-6.34v-.64h14.56v.64Zm.78,4.13.4-.52c1.88,1.13,3.58,2.23,5.08,3.28l-.41.58Q1006.28,112.27,1003.59,110.62Z"/><path d="M1012.84,117.62v1.6h-.64v-12h1.65a26.83,26.83,0,0,0,1.1-2.81l.65.15c-.27.79-.62,1.68-1.05,2.66h3v11.78h-.64v-1.43Zm0-5.46h4v-4.27h-4Zm0,4.84h4v-4.22h-4Zm7.5-9.78h4.74q-.18,7.92-.21,9.22a3,3,0,0,1-.62,2,2.49,2.49,0,0,1-1.85.67,20.78,20.78,0,0,1-2.12-.1l-.09-.69c.89.08,1.58.12,2.08.12a2,2,0,0,0,1.47-.49,2.48,2.48,0,0,0,.49-1.6c.07-2.9.13-5.74.2-8.52h-4.37a23.25,23.25,0,0,1-1.53,2.75l-.56-.33a20.41,20.41,0,0,0,2.7-5.82l.62.18C1021.06,105.36,1020.74,106.23,1020.34,107.22Zm-1.14,4,.5-.32c.62.81,1.41,1.87,2.36,3.18l-.54.39C1020.88,113.55,1020.11,112.46,1019.2,111.24Z"/><path d="M1026.85,118.24h14.55v.55h-14.55Zm7.84-12h6v3H1040v-2.43h-11.82v2.43h-.65v-3H1034c-.25-.7-.47-1.28-.65-1.75l.65-.15C1034.14,104.74,1034.38,105.37,1034.69,106.26Zm4.37,10.18h-9.87V110.9h9.87Zm-9.61-7.81h9.31v.52h-9.31Zm9,4.79v-2h-8.6v2Zm0,2.48v-2h-8.6v2Z"/><path d="M1045.09,108.14v11.32h-.62v-10.1a24.14,24.14,0,0,1-2.32,3.5l-.36-.57a22.24,22.24,0,0,0,2.37-3.71,29.77,29.77,0,0,0,1.68-4.09l.62.2A29.82,29.82,0,0,1,1045.09,108.14Zm7.22,9.49,2.36,1.38-.33.55c-1.88-1.11-4-2.33-6.49-3.66l.35-.56c1.19.66,2.37,1.31,3.53,2a46.85,46.85,0,0,0,3-3.6h-6.47v-.56c.32-.88.61-1.72.86-2.51h-2.92v-.59h3.09q.43-1.51.72-2.55h-2.93v-.61h3.07c.22-.89.4-1.7.54-2.41l.66.08c-.17.72-.35,1.5-.54,2.33h5.08v.61h-5.23q-.17.61-.72,2.55h6.69v.59h-6.87c-.28.87-.56,1.7-.83,2.48h6.62v.59A50.44,50.44,0,0,1,1052.31,117.63Z"/><path d="M1061.84,113.53v5.93h-.62v-5.67c-.86.36-1.82.74-2.88,1.15l-.18-.63c.57-.21,1.59-.62,3.06-1.2v-4.19h-1.75a25.42,25.42,0,0,1-.73,2.52l-.54-.18a23.2,23.2,0,0,0,1.17-5.22l.56.1c-.1.75-.21,1.48-.34,2.18h1.63v-3.78h.62v3.78h1.82v.6h-1.82v3.92c.76-.3,1.43-.58,2-.83l.17.59Q1063,113.08,1061.84,113.53Zm8.06-5.69a19.08,19.08,0,0,1-1.55,6.46,14,14,0,0,1-3.78,4.75l-.46-.47a13.77,13.77,0,0,0,3.71-4.61,18.53,18.53,0,0,0,1.54-6.13h-1.67a15.44,15.44,0,0,1-1.44,4.56,13.37,13.37,0,0,1-2.87,3.68l-.44-.46a12,12,0,0,0,2.77-3.46,14.45,14.45,0,0,0,1.43-4.32h-1.69a18.2,18.2,0,0,1-1.76,3l-.49-.39a19.94,19.94,0,0,0,2.91-6l.6.18a23.72,23.72,0,0,1-1,2.62h6.39l-.36,9a3.54,3.54,0,0,1-.57,2,2.19,2.19,0,0,1-1.7.62,17,17,0,0,1-1.73-.09l-.12-.64c.69.07,1.27.11,1.75.11a1.62,1.62,0,0,0,1.29-.44,2.72,2.72,0,0,0,.46-1.68q.13-3.3.34-8.34Z"/><path d="M1077,112.16a15.46,15.46,0,0,1-2.68,4.67l-.36-.57a14.77,14.77,0,0,0,2.92-5.28h-2.79v-.59H1077v-5.91h.62v5.91h2.6V111h-2.6v1.19l.32-.23c.58.64,1.32,1.52,2.23,2.67l-.46.39c-.59-.76-1.29-1.61-2.09-2.53v7H1077Zm-2.52-5.82.49-.17A29.22,29.22,0,0,1,1076,109l-.52.21C1075.2,108.27,1074.86,107.32,1074.48,106.34Zm5.16-.18.53.19a29.07,29.07,0,0,1-1.23,2.83l-.47-.24C1078.87,108.12,1079.26,107.19,1079.64,106.16Zm6.79,8.5v4.8h-.62v-4.72l-5.23.82-.1-.64,5.33-.82v-9.64h.62V114l2.27-.34.08.64Zm-5.17-4.33.39-.43c.71.58,1.56,1.32,2.54,2.22l-.38.46Q1082.54,111.4,1081.26,110.33Zm.59-3.78.39-.42c.77.68,1.59,1.46,2.49,2.32l-.4.47C1083.71,108.28,1082.89,107.49,1081.85,106.55Z"/><path d="M1092,119.23a1.62,1.62,0,0,1-1.19-.49,1.59,1.59,0,0,1-.49-1.19,1.56,1.56,0,0,1,.49-1.19,1.67,1.67,0,0,1,2.4,0,1.56,1.56,0,0,1,.49,1.19,1.59,1.59,0,0,1-.49,1.19A1.62,1.62,0,0,1,1092,119.23Zm0-.47a1.24,1.24,0,0,0,.87-.33,1.18,1.18,0,0,0,.34-.88,1.21,1.21,0,0,0-.34-.9,1.25,1.25,0,0,0-.87-.31,1.16,1.16,0,0,0-.85.33,1.21,1.21,0,0,0,.85,2.09Z"/><path d="M1105.35,106.78h8.47v.62h-8.76a22.46,22.46,0,0,1-2.44,3.69v8.37H1102v-7.6a18.93,18.93,0,0,1-2.6,2.49l-.37-.57a23.2,23.2,0,0,0,3-3,22.27,22.27,0,0,0,2.32-3.43h-4.65v-.62h5a20.81,20.81,0,0,0,1-2.39l.67.15A19,19,0,0,1,1105.35,106.78Zm3.55,10.93h4.94v.64h-10.37v-.64h4.78v-5h-4.06v-.62h4.06v-3.23h.65v3.23h4.15v.62h-4.15Z"/><path d="M1118.35,116.21a5.28,5.28,0,0,0,1.91,1.46,7.84,7.84,0,0,0,2.81.55q2.79.09,7.11,0l-.11.68q-4.1,0-7.08,0a8.8,8.8,0,0,1-2.88-.53,5.42,5.42,0,0,1-2.07-1.5c-.68.66-1.42,1.45-2.23,2.35l-.39-.59c.68-.73,1.44-1.51,2.29-2.33v-5.54h-2.22v-.62h2.86Zm-2-11,.56-.36c.89,1.13,1.58,2,2.07,2.72l-.54.36C1117.81,107.12,1117.12,106.21,1116.32,105.24Zm11.47,2.85a12.25,12.25,0,0,1-2.33,4.79c1.34,1.18,2.54,2.28,3.61,3.28l-.44.52q-1.56-1.49-3.61-3.31a18.23,18.23,0,0,1-4.94,3.46l-.41-.59a17.61,17.61,0,0,0,4.84-3.31c-1.6-1.4-2.74-2.37-3.42-2.93l.43-.46c.91.72,2,1.69,3.41,2.89a11.43,11.43,0,0,0,2.18-4.34H1120v-.62h5c-.62-1.17-1.16-2.16-1.62-3l.62-.22c.33.59.9,1.65,1.72,3.18h4v.62Z"/><path d="M1137.91,105.31a18.71,18.71,0,0,0,7.14,6.08l-.39.62a22.31,22.31,0,0,1-4-2.73,17.35,17.35,0,0,1-3.07-3.42,22.32,22.32,0,0,1-7.08,6.35l-.42-.59a22.93,22.93,0,0,0,4.52-3.34,16.42,16.42,0,0,0,3.08-3.9l.67.19C1138.19,104.82,1138.05,105.07,1137.91,105.31Zm-.72,4.79h.69v9.38h-.69Z"/><path d="M524.75,143.08a5.86,5.86,0,0,0,4.73,2c2.29.05,4.65.06,7.06,0l-.13.65c-2.21,0-4.53,0-7-.05a8.47,8.47,0,0,1-2.95-.52,5.83,5.83,0,0,1-2.09-1.52c-.76.71-1.52,1.49-2.27,2.34l-.41-.59c.68-.68,1.47-1.46,2.39-2.34v-5.49h-2.27v-.64h2.92Zm-2-11,.53-.34q1.14,1.31,2.22,2.7l-.54.37C524.13,133.75,523.4,132.84,522.77,132.09Zm11,3.06v6.13a2.48,2.48,0,0,1-.49,1.71,2.28,2.28,0,0,1-1.61.56,17.62,17.62,0,0,1-1.88-.08l-.07-.67c.66.06,1.26.1,1.82.1a1.73,1.73,0,0,0,1.24-.36,2,2,0,0,0,.34-1.33v-6.06H526.5v-.62h6.57v-3.12h.65v3.12h2.62v.62Zm-6.37,2,.49-.34c.86.95,1.73,2,2.62,3.15l-.53.41C529.17,139.3,528.31,138.23,527.35,137.11Z"/><path d="M540.87,139v7.36h-.62v-8.06a17.86,17.86,0,0,1-2.45,4.8l-.39-.49a18,18,0,0,0,2.81-5.85h-2.45v-.59h2.48v-3c-.82.09-1.54.16-2.16.2l-.08-.57a41.86,41.86,0,0,0,4.86-.61l.13.58-2.13.34v3.1h2.26v.59h-2.26v2l.28-.25c.83.93,1.5,1.72,2,2.37l-.43.45C542.16,140.54,541.54,139.77,540.87,139Zm7,6h4.38v.58h-9.6V145h4.58v-2.68H544v-.57h3.32v-2.58h-3.81v-.57h8.22v.57h-3.77v2.58h3.28v.57h-3.28Zm3.13-8.36h-6.93v-4.37h6.93Zm-.63-.58v-3.23h-5.67v3.23Z"/><path d="M566.06,140.71h-5.31v5.7h-.69v-5.7h-5.31v1.17h-.65v-7.24h6v-3.35h.69v3.35h6v7.23h-.67Zm-6-.64v-4.81h-5.31v4.81Zm6,0v-4.81h-5.31v4.81Z"/><path d="M569.1,146.46a1.8,1.8,0,0,0,.85-1.54l-.08,0a.54.54,0,0,1-.39-.18.53.53,0,0,1-.16-.39.58.58,0,0,1,.14-.41.53.53,0,0,1,.41-.17.5.5,0,0,1,.43.18,1.08,1.08,0,0,1,.18.61,2.92,2.92,0,0,1-.25,1.22,2.33,2.33,0,0,1-.85.94Z"/><path d="M587.1,142.19c.11.34.23.67.37,1a7,7,0,0,0,.85,1.52,1.71,1.71,0,0,0,1.28.78.87.87,0,0,0,.54-.19,2.15,2.15,0,0,0,.42-.77,13.88,13.88,0,0,0,.48-1.95l.58.23a17.77,17.77,0,0,1-.52,2.06c-.3.87-.81,1.31-1.5,1.31a2.12,2.12,0,0,1-1.59-.82,6.24,6.24,0,0,1-1.06-1.71,8.13,8.13,0,0,1-.39-1,21.59,21.59,0,0,1-3.81,2.42l-.36-.55a19.74,19.74,0,0,0,4-2.5,21.83,21.83,0,0,1-.77-4.48c0-.17-.05-.41-.07-.74h-4.26v3.34c.81-.19,1.77-.43,2.87-.72l.12.6-3,.77v3.47a2,2,0,0,1-.41,1.35,1.77,1.77,0,0,1-1.28.46A13.91,13.91,0,0,1,578,146l-.08-.66a11,11,0,0,0,1.47.1,1.34,1.34,0,0,0,.94-.28,1.45,1.45,0,0,0,.28-1V140.9q-1.43.33-3.48.75L577,141c.89-.17,2.11-.42,3.64-.76v-3.48H577v-.6h3.61v-2.76c-1.21.15-2.16.25-2.86.31l-.08-.61a36.07,36.07,0,0,0,6-.87l.15.58c-.72.16-1.56.32-2.5.49v2.86h4.23q-.12-2-.15-4.86H586c0,1.78,0,3.4.13,4.86h5.45v.6h-5.41c0,.13,0,.34,0,.62a19.84,19.84,0,0,0,.69,4.14,18,18,0,0,0,3-3.38l.52.39A19.83,19.83,0,0,1,587.1,142.19Zm.42-9.51.44-.41c1,.85,1.79,1.61,2.42,2.27l-.46.44A26.34,26.34,0,0,0,587.52,132.68Z"/><path d="M596.1,143A4.6,4.6,0,0,0,598,144.5a7,7,0,0,0,2.55.52q3.24.09,7.42,0l-.13.67q-4.32,0-7.26-.05a7.56,7.56,0,0,1-2.76-.54,5.27,5.27,0,0,1-2-1.49c-.53.52-1.26,1.29-2.21,2.29l-.39-.57c.86-.9,1.61-1.65,2.27-2.27v-5.5h-2.21v-.65h2.86Zm-1.94-10.9.52-.36c.73.89,1.45,1.8,2.17,2.73l-.54.38C595.66,134,594.94,133.09,594.16,132.14Zm9.13,1.24a20.4,20.4,0,0,1-2.35,4.32,21.24,21.24,0,0,1-3.38,3.68l-.43-.53a18.6,18.6,0,0,0,5.46-7.47h-4.87v-.62h9.58v.62Zm-1.24,2.78h.66v7.72h-.66Zm1.62,1.13.47-.39c1.57,1.57,2.77,2.8,3.58,3.71l-.47.45Q605.87,139.5,603.67,137.29Z"/><path d="M611.06,136.41v10h-.62v-10h-2v-.62h2v-4.48h.62v4.48h1.81v.62Zm3,.88.54.21a22.48,22.48,0,0,1-1.82,4.23l-.52-.31A21.58,21.58,0,0,0,614,137.29Zm3.09-2.63h3.95q0,1.44-.23,8.82a2.79,2.79,0,0,1-.57,1.82,2.11,2.11,0,0,1-1.62.57c-.35,0-.94,0-1.8-.07l-.08-.65a16.13,16.13,0,0,0,1.74.08,1.7,1.7,0,0,0,1.27-.41,2.37,2.37,0,0,0,.43-1.43c.09-3.09.16-5.78.19-8.1h-3.3c0,.21,0,.57,0,1.07a19,19,0,0,1-1,5.73,10.94,10.94,0,0,1-3,4.27l-.49-.44a10.55,10.55,0,0,0,2.86-4,18.57,18.57,0,0,0,1-5.75c0-.17,0-.48,0-.92h-3v-.63h3q0-2.21.06-3.3h.64C617.17,132.46,617.14,133.56,617.11,134.66Zm4.1,3,.54-.23c.59,1.25,1.15,2.5,1.7,3.76l-.53.3C622.21,139.76,621.63,138.48,621.21,137.63Z"/><path d="M630.46,143.21l1.13-.2.08.57q-3.55.69-7.37,1.18l-.13-.62,1.49-.2V132.37h4.8Zm-.62-7.08V133h-3.58v3.17Zm0,3.61v-3h-3.58v3Zm0,3.56v-3h-3.58v3.53C627.71,143.65,628.9,143.47,629.84,143.3Zm4.5-8.46h3.77c-.13,4.44-.22,7.42-.28,8.92a2.32,2.32,0,0,1-.47,1.57,2,2,0,0,1-1.49.51c-.41,0-1,0-1.66-.07l-.13-.67a13.75,13.75,0,0,0,1.65.1,1.58,1.58,0,0,0,1.12-.34,1.89,1.89,0,0,0,.36-1.2q.15-3.67.25-8.19h-3.14a25.32,25.32,0,0,1-.85,6.45,11.63,11.63,0,0,1-2.68,4.44l-.51-.44a10.91,10.91,0,0,0,2.6-4.23,24.21,24.21,0,0,0,.82-6.22h-2.09v-.63h2.1c0-.8,0-2,0-3.52h.64C634.38,132.1,634.36,133.27,634.34,134.84Z"/><path d="M641.71,133v13.27h-.65V132.4H653.4V144a2.38,2.38,0,0,1-.47,1.64,2.43,2.43,0,0,1-1.62.51,16.52,16.52,0,0,1-1.86-.09l-.09-.65c.53.05,1.13.08,1.8.08a1.31,1.31,0,0,0,1.59-1.57V133Zm1.43,2.35h8.17v.57h-8.17Zm7.07,7.6h-6v-4.72h6Zm-.63-.57v-3.58h-4.73v3.58Z"/><path d="M668.69,141.33v2.86h-.62v-.76h-4.74v.81a2.06,2.06,0,0,1-.43,1.42,2.24,2.24,0,0,1-1.57.5,11.74,11.74,0,0,1-1.7,0l-.06-.63a14.54,14.54,0,0,0,1.61.1,2,2,0,0,0,1.21-.32,1.61,1.61,0,0,0,.28-1.08v-.76H656.8v-.52h5.87v-1.58h-7.09v-.51h7.09v-1.57H657v-.52h5.69v-1.38h-5.08v-2.64h5.08v-1.38h-6.91v-.54h6.91v-1.48h.66v1.48h6.79v.54h-6.79v1.38h5v2.64h-5v1.38h5.36v2.09h1.71v.51Zm-6-4.47V135.2h-4.46v1.66Zm5.08,0V135.2h-4.42v1.66Zm.32,4v-1.57h-4.74v1.57Zm0,2.09v-1.58h-4.74v1.58Z"/><path d="M676.07,143.92H674v1.31h-.59v-6.86a15.56,15.56,0,0,1-1.34,2.27l-.37-.49a17.93,17.93,0,0,0,2.76-6.77h-2.29v-.55h5.2v.55h-2.29a18.69,18.69,0,0,1-1.17,3.91h2.74v7.44h-.59Zm0-.57v-5.47H674v5.47Zm9.07-1h-2.77v3.22h-.61v-3.22h-2.88a7.47,7.47,0,0,1-1.48,4.07l-.56-.36a6.9,6.9,0,0,0,1.24-2.49,16.83,16.83,0,0,0,.28-3.59V135.7a11.61,11.61,0,0,1-1,1l-.4-.4a17.07,17.07,0,0,0,3.64-5.07l.62.18q-.36.76-.78,1.47h4.31v.54l-1.63,2.12h2.65v9a1.75,1.75,0,0,1-.36,1.21,1.47,1.47,0,0,1-1.08.34h-1l-.1-.61,1,0a1.15,1.15,0,0,0,.73-.21,1.3,1.3,0,0,0,.21-.82Zm-5-8.85a18.64,18.64,0,0,1-1.61,2.11h3.92l1.58-2.11Zm1.67,8.29v-2.52H679V140c0,.5,0,1.09,0,1.76Zm0-5.59H679v2.52h2.79Zm3.38,2.52v-2.52h-2.77v2.52Zm0,3.07v-2.52h-2.77v2.52Z"/><path d="M690.63,135.23v11.1H690v-9.74a18.88,18.88,0,0,1-1.94,3.18l-.36-.57a22.31,22.31,0,0,0,2.14-3.74,31.6,31.6,0,0,0,1.52-4.14l.6.2A37.79,37.79,0,0,1,690.63,135.23Zm7.18,4.84a11.85,11.85,0,0,0,1.83,2.32,15.33,15.33,0,0,0,3,2.19l-.37.57a13.62,13.62,0,0,1-3.09-2.35,11.43,11.43,0,0,1-1.77-2.37v5.91h-.65v-5.86a12.46,12.46,0,0,1-1.82,2.37,16.58,16.58,0,0,1-3.13,2.43l-.36-.55a17.81,17.81,0,0,0,3.09-2.32,14.4,14.4,0,0,0,1.88-2.34H692v-.61h4.81v-2.37h-3.53V132.3H701v4.79h-3.6v2.37h5v.61Zm2.6-3.58v-3.58h-6.52v3.58Z"/><path d="M703.35,136.73h2.81v7.59a27.2,27.2,0,0,0,2.08-2.08l.33.57a33.08,33.08,0,0,1-2.93,2.77l-.39-.5a1.2,1.2,0,0,0,.21-.39,2.61,2.61,0,0,0,.07-.49v-6.85h-2.18Zm1.08-4.54.52-.39c.74.77,1.53,1.64,2.37,2.6l-.5.44C706,133.86,705.18,133,704.43,132.19Zm8.94,11.21a17.56,17.56,0,0,0,4.79,2.27l-.33.62a18,18,0,0,1-5-2.46,20,20,0,0,1-5.18,2.6l-.34-.59a20.43,20.43,0,0,0,5-2.44,12,12,0,0,1-2.88-3.89l.56-.29a11,11,0,0,0,2.86,3.77,10.31,10.31,0,0,0,2.91-4h-7.41v-.59h8.13v.6a11.13,11.13,0,0,1-3.09,4.34Zm-3.22-11.16h5.44l0,3a1.11,1.11,0,0,0,.25.85,1.28,1.28,0,0,0,.83.27c.5,0,1,0,1.52,0L718,137a15.2,15.2,0,0,1-1.55,0,1.94,1.94,0,0,1-1.25-.41,1.57,1.57,0,0,1-.32-1.16v-2.59h-4.13v1.44a3.79,3.79,0,0,1-.54,1.91,4.94,4.94,0,0,1-1.75,1.44l-.44-.47a5.19,5.19,0,0,0,1.62-1.29,3,3,0,0,0,.47-1.72Z"/><path d="M719.71,136.72h3.17v7.61c.78-.58,1.64-1.3,2.6-2.15l.31.58q-1.68,1.52-3.48,2.91l-.44-.55a1,1,0,0,0,.29-.39,1.61,1.61,0,0,0,.07-.54v-6.85h-2.52Zm1.29-4.53.49-.44q1.57,1.47,2.67,2.61l-.48.46C722.74,133.87,721.84,133,721,132.19Zm9,5.61v8.53h-.67V137.8h-4.48v-.64h4.48v-5.85H730v5.85h4.56v.64Z"/><path d="M736.17,138a23.16,23.16,0,0,0,3.46-2.84l.4.45a28.21,28.21,0,0,1-3.44,2.88Zm7.4,4.87q4,1.63,6.8,3l-.26.58c-2.15-1-4.42-2-6.83-3a4.92,4.92,0,0,1-2.22,1.8,19.64,19.64,0,0,1-4.35,1.21l-.2-.62a14.18,14.18,0,0,0,5.14-1.64,4,4,0,0,0,1.07-1.06,3,3,0,0,0,.46-1.21q0-.4.12-1.29l.65.05c0,.63-.09,1.09-.13,1.37A4.58,4.58,0,0,1,743.57,142.83Zm-6.93-10.28.25-.54c1.24.49,2.27.94,3.07,1.34l-.26.57C738.63,133.39,737.61,132.93,736.64,132.55Zm1.8,6.55h10.2v4.42H748v-3.84h-8.92v3.85h-.64Zm7-4.7a4.42,4.42,0,0,0,1.62,2,12.45,12.45,0,0,0,3.65,1.4l-.25.59a12,12,0,0,1-3.82-1.55,4.67,4.67,0,0,1-1.41-1.57,3.67,3.67,0,0,1-1.36,1.63,13.38,13.38,0,0,1-3.43,1.49l-.29-.55a12.22,12.22,0,0,0,3.45-1.49,3,3,0,0,0,1.21-1.72c.06-.42.1-.82.13-1.19h-2.26a21.94,21.94,0,0,1-1.53,2l-.49-.41a13.81,13.81,0,0,0,2.45-3.74l.6.18c-.25.53-.48,1-.7,1.39h7v.55a19.57,19.57,0,0,1-1.26,2l-.56-.23c.4-.57.78-1.15,1.13-1.75h-3.79A8.46,8.46,0,0,1,745.45,134.4Z"/><path d="M751.91,136.52l.31-.56c1.27.62,2.23,1.12,2.9,1.53l-.31.58C753.92,137.54,753,137,751.91,136.52Zm.48,9.38c.57-1.51,1.19-3.39,1.84-5.64l.59.2c-.44,1.57-1.06,3.46-1.83,5.69Zm.28-13.48.34-.54c.76.4,1.64.93,2.63,1.58l-.33.56C754.58,133.53,753.7,133,752.67,132.42Zm9.05,2.61h3.79v5.76h-3v3.85a1.63,1.63,0,0,1-.35,1.18,1.78,1.78,0,0,1-1.19.39c-.45,0-.9,0-1.36-.05l-.08-.6a11.91,11.91,0,0,0,1.31.06,1.31,1.31,0,0,0,.85-.22,1.21,1.21,0,0,0,.23-.84v-3.77h-3.16V135h2.29c.3-.8.53-1.5.71-2.09h-4.58v4.63a24.68,24.68,0,0,1-.41,5,14.86,14.86,0,0,1-1.54,3.82l-.55-.37a14,14,0,0,0,1.49-3.61,22.9,22.9,0,0,0,.39-4.78v-5.23h9.92v.59h-4C762.18,133.8,761.94,134.5,761.72,135Zm-2.14,6.87.52.26a18.41,18.41,0,0,1-2.35,3.35l-.48-.36A15.69,15.69,0,0,0,759.58,141.9Zm-.18-4.25h5.51v-2.06H759.4Zm0,2.58h5.51v-2H759.4Zm4.48,2,.5-.28c.91,1.23,1.65,2.28,2.23,3.14l-.49.34C765,143.75,764.24,142.68,763.88,142.18Z"/><path d="M770.67,138.09v8.22h-.62v-7.37a21.76,21.76,0,0,1-2.09,2.34l-.33-.54a22.29,22.29,0,0,0,3.94-5.3l.54.33A22.82,22.82,0,0,1,770.67,138.09Zm.85-6.77.53.36a18.11,18.11,0,0,1-3.67,4.45l-.39-.56A16.44,16.44,0,0,0,771.52,131.32Zm8.62,10.53v2.37a2.19,2.19,0,0,1-.43,1.47,2.14,2.14,0,0,1-1.44.47l-1.75,0,0-.62c.6,0,1.16.05,1.66.05a1.77,1.77,0,0,0,1.08-.31,1.6,1.6,0,0,0,.28-1.11v-2.29h-7.44v-.56h7.44v-1.76h-6.83V139h9.39v.57h-1.92v1.76h2.42v.56Zm-6.74.93.36-.46q1.41.84,2.76,1.8l-.39.51C775.26,144,774.35,143.4,773.4,142.78Zm7.72-5.41h-7.64v-5.16h7.64Zm-.62-2.84v-1.78h-6.39v1.78Zm0,2.29v-1.77h-6.39v1.77Z"/><path d="M788.62,144.3l3.73-.49.08.61q-4.6.66-8.45,1.07l-.11-.65,4.12-.47v-3.21h-3.53v-.6H788v-2.08h.63v2.08H792v.6h-3.39Zm2.55-7c-2.19.17-4.39.32-6.62.45l-.13-.61a1.24,1.24,0,0,0,.5-.28,29.73,29.73,0,0,0,2.71-3.84H784.2v-.62h8.23v.62h-4a41.84,41.84,0,0,1-2.84,4c1.47-.06,3.22-.16,5.26-.31-.5-.74-1-1.46-1.52-2.14l.51-.3,2.63,3.71-.51.36Zm2.49-4.23h.64v9.37h-.64Zm3.22-1.7h.65V144a2.2,2.2,0,0,1-.44,1.57,1.91,1.91,0,0,1-1.47.48c-.47,0-1,0-1.62-.05l-.08-.69c.93.06,1.45.08,1.57.08a1.47,1.47,0,0,0,1.08-.32,1.71,1.71,0,0,0,.31-1.16Z"/><path d="M811.67,142.76h-8v3.52H803V137.7a24.07,24.07,0,0,1-3,2.91l-.37-.57a19.69,19.69,0,0,0,5.09-5.91h-4.62v-.6H805a20.48,20.48,0,0,0,1-2.27l.67.16a21,21,0,0,1-.91,2.11h8.63v.6h-8.93a18.13,18.13,0,0,1-1.47,2.33h8.34v7.84a2.06,2.06,0,0,1-.41,1.39,2.08,2.08,0,0,1-1.39.46,16,16,0,0,1-1.73-.08l-.12-.61a15.09,15.09,0,0,0,1.69.08,1.58,1.58,0,0,0,1-.29,1.54,1.54,0,0,0,.27-1Zm0-3.43V137h-8v2.29Zm0,2.88V139.9h-8v2.31Z"/><path d="M820.42,141.85l2.38,2.61-.44.5c-.71-.81-1.47-1.67-2.3-2.57a15.53,15.53,0,0,1-3.86,3.74l-.38-.55a14.56,14.56,0,0,0,3.81-3.66c-.47-.51-1.22-1.31-2.27-2.41l.44-.42c.68.69,1.4,1.46,2.18,2.29a13.9,13.9,0,0,0,1.29-2.91l.57.26A13.46,13.46,0,0,1,820.42,141.85Zm-2-6.29.52.31a21.56,21.56,0,0,1-2.63,3.43l-.42-.41A23.4,23.4,0,0,0,818.44,135.56Zm1.91-1.62h3.14v.59H816.1v-.59h3.61l-.73-2.47.62-.13C819.88,132.22,820.13,133.09,820.35,133.94Zm6.72,8.29a14.58,14.58,0,0,0,3.58,3.44l-.39.59a15.87,15.87,0,0,1-3.57-3.5,17.36,17.36,0,0,1-3.84,3.63l-.44-.5a16.9,16.9,0,0,0,3.89-3.68,2.65,2.65,0,0,1-.18-.29,13.84,13.84,0,0,1-1.71-4.91,16.78,16.78,0,0,1-.84,1.5l-.19-.24-.43.41c-.56-.7-1.32-1.63-2.3-2.78l.45-.34c.82.92,1.51,1.73,2.08,2.43a17.89,17.89,0,0,0,1.52-3.17,24.63,24.63,0,0,0,1-3.53l.62.13a27.24,27.24,0,0,1-.83,3h5v.6h-1.34a16.31,16.31,0,0,1-1.63,6.54Zm-.39-.59c.08-.13.17-.27.24-.41a14.85,14.85,0,0,0,1.57-6.23h-3.2c-.17.43-.32.79-.46,1.1a14,14,0,0,0,1.77,5.41A.57.57,0,0,1,826.68,141.64Z"/><path d="M835.13,139.72v4.81a1.59,1.59,0,0,1-.34,1.13,1.54,1.54,0,0,1-1.08.42,6.24,6.24,0,0,1-1.29-.1l-.06-.65a4.41,4.41,0,0,0,1.17.1,1.38,1.38,0,0,0,.75-.25,1.13,1.13,0,0,0,.22-.76V140l-2.31.8-.18-.62,2.49-.83v-4h-2.18v-.58h2.18v-3.44h.63v3.44h2v.58h-2v3.73l1.82-.7.18.55C836.25,139.29,835.58,139.56,835.13,139.72Zm5.22-.27c1,.78,1.88,1.41,2.48,1.89l-.37.54c-.7-.56-1.44-1.15-2.23-1.75a15.84,15.84,0,0,1-.49,1.75,13.05,13.05,0,0,1-3,4.48l-.52-.46a12.85,12.85,0,0,0,2.88-4.26,10.4,10.4,0,0,0,.52-1.92c-.61-.45-1.3-.95-2.06-1.48l.33-.49q1.1.74,1.86,1.29a28.7,28.7,0,0,0,.28-3.35c0-.21,0-.42,0-.62h-2.37v-.61h2.4c0-1.09,0-2.13,0-3.14h.64c0,1.46,0,2.51-.07,3.14h3.79c0,.48,0,.88,0,1.19,0,1.57,0,3.14-.08,4.7a27.63,27.63,0,0,0,.18,3.35,3.55,3.55,0,0,0,.26,1c.16.37.36.56.59.57s.52-.31.68-.92a18.27,18.27,0,0,0,.31-2.12l.51.16c-.11.93-.21,1.64-.31,2.14a2.84,2.84,0,0,1-.47,1.05,1,1,0,0,1-.74.36q-.64,0-1-.84a3.32,3.32,0,0,1-.39-1.35c-.11-.95-.17-2.23-.19-3.84s0-3.32.08-4.87h-3.16c0,.19,0,.38,0,.57A31.32,31.32,0,0,1,840.35,139.45Z"/><path d="M851.2,138v8.31h-.63v-7.5a26.19,26.19,0,0,1-2.34,2.47l-.36-.55a21.84,21.84,0,0,0,4.28-5.32l.54.36A22.77,22.77,0,0,1,851.2,138Zm.89-6.69.55.38a19.63,19.63,0,0,1-4.07,4.36l-.37-.56A17.07,17.07,0,0,0,852.09,131.29Zm7.58,6.69v5.91a2.23,2.23,0,0,1-.49,1.62,2.06,2.06,0,0,1-1.52.49,13.52,13.52,0,0,1-1.86-.06l-.09-.66a16.46,16.46,0,0,0,1.82.08,1.56,1.56,0,0,0,1.14-.36,1.73,1.73,0,0,0,.33-1.19V138h-5.67v-.63h9.36V138Zm-5.31-5.32h7.48v.61h-7.48Z"/><path d="M865.34,146.12a1.69,1.69,0,0,1-1.68-1.69,1.71,1.71,0,0,1,1.68-1.7,1.62,1.62,0,0,1,1.21.51,1.56,1.56,0,0,1,.49,1.19,1.59,1.59,0,0,1-.49,1.19A1.65,1.65,0,0,1,865.34,146.12Zm0-.48a1.24,1.24,0,0,0,.87-.33,1.18,1.18,0,0,0,.34-.88,1.21,1.21,0,0,0-.34-.9,1.25,1.25,0,0,0-.87-.31,1.15,1.15,0,0,0-.85.33,1.31,1.31,0,0,0,0,1.76A1.21,1.21,0,0,0,865.34,145.64Z"/><path d="M532.21,175.1a1.38,1.38,0,0,1,.06.16,8.45,8.45,0,0,0,.93,1.88c.48.68.93,1,1.36,1a.93.93,0,0,0,.44-.18,1.56,1.56,0,0,0,.39-.69,15.32,15.32,0,0,0,.53-2.19l.58.22a18,18,0,0,1-.55,2.22c-.3.88-.75,1.32-1.37,1.32A2,2,0,0,1,533,178a6.51,6.51,0,0,1-1.13-1.93c0-.11-.09-.22-.15-.34a20.06,20.06,0,0,1-3.35,3l-.41-.49a19.83,19.83,0,0,0,3.52-3.22,16.28,16.28,0,0,1-.66-2.67,40,40,0,0,1-.54-4.51h-6.21v2.88h4.24l-.12,4.08a2.39,2.39,0,0,1-.49,1.57,2.19,2.19,0,0,1-1.47.48,12.84,12.84,0,0,1-1.32-.07l-.07-.64a6.22,6.22,0,0,0,1.29.08,1.78,1.78,0,0,0,1.1-.31,1.72,1.72,0,0,0,.32-1.17c.05-1.15.08-2.29.12-3.43h-3.6v.31a17,17,0,0,1-.39,4A13.07,13.07,0,0,1,522.2,179l-.57-.38a10.88,10.88,0,0,0,1.42-3.15,16.88,16.88,0,0,0,.38-3.88v-4.34h6.83c0-.71-.09-1.79-.13-3.24h.65c.05,1.06.09,2.11.13,3.15v.09h5.28v.6H531a34.14,34.14,0,0,0,.45,4.12,23.25,23.25,0,0,0,.58,2.43,22.67,22.67,0,0,0,2.6-4.82l.57.25a23.25,23.25,0,0,1-2.78,5.08Zm.06-10.28.39-.48c.53.41,1.27,1,2.24,1.88l-.37.48A25.31,25.31,0,0,0,532.27,164.82Z"/><path d="M539.8,173.92l.54.18a16.65,16.65,0,0,1-1.89,3.32l-.54-.3A15.71,15.71,0,0,0,539.8,173.92Zm2.77-7.6h3.13v.57h-7.65v-.57h3.85c-.27-.73-.54-1.47-.84-2.22l.62-.13C541.87,164.42,542.16,165.21,542.57,166.32Zm2,6.36h-2.35V177a1.82,1.82,0,0,1-.36,1.26,1.61,1.61,0,0,1-1.19.41c-.38,0-.75,0-1.1-.05l-.06-.61a6.25,6.25,0,0,0,1,.07,1.18,1.18,0,0,0,.82-.23,1.32,1.32,0,0,0,.24-.92v-4.26h-2.5v-3.94h5.47Zm-.6-.57v-2.8h-4.27v2.8Zm-.73,2,.49-.23c.44.64.92,1.36,1.42,2.14l-.49.28C544.21,175.46,543.73,174.73,543.29,174.07Zm4.72-5.56h4.4v.59H548c0,.85-.08,1.33-.08,1.44a5.74,5.74,0,0,0,0,.65,15.52,15.52,0,0,1-1,4.35,13.77,13.77,0,0,1-2.29,3.53l-.5-.41a12.31,12.31,0,0,0,2.48-4,19.36,19.36,0,0,0,.8-5.52h-1.86v-.59h1.88c0-.25,0-.5,0-.75,0-1.83,0-3.09,0-3.78h.63c0,1.17,0,2.43-.05,3.8C548,168,548,168.27,548,168.51Zm.91,1.1h.61v7.11a1.58,1.58,0,0,0,.24,1,1,1,0,0,0,.76.25H551a1.07,1.07,0,0,0,.77-.26,1.75,1.75,0,0,0,.34-1c.05-.57.09-1.14.13-1.7l.57.14c0,.28-.08.85-.16,1.74a2.14,2.14,0,0,1-.46,1.3,1.52,1.52,0,0,1-1.17.41h-.53a1.45,1.45,0,0,1-1.16-.41,2,2,0,0,1-.36-1.34Zm.38-4.47.49-.31c.73.91,1.32,1.69,1.78,2.34l-.51.33C550.54,166.75,550,166,549.3,165.14Z"/><path d="M556.16,169.62a.57.57,0,0,1,.42.17.6.6,0,0,1,.16.4.64.64,0,0,1-.16.43.57.57,0,0,1-.42.16.54.54,0,0,1-.4-.16.58.58,0,0,1-.18-.43.53.53,0,0,1,.17-.4A.51.51,0,0,1,556.16,169.62Zm0,6.85a.57.57,0,0,1,.42.16.57.57,0,0,1,.16.43.63.63,0,0,1-.16.41.57.57,0,0,1-.42.16.54.54,0,0,1-.4-.16.57.57,0,0,1-.18-.41.58.58,0,0,1,.17-.43A.48.48,0,0,1,556.16,176.47Z"/><path d="M572.31,173v3.52a1.42,1.42,0,0,0,.31,1,1.7,1.7,0,0,0,1.07.36,10.39,10.39,0,0,0,1.37,0,2.81,2.81,0,0,0,1.21-.33,1.4,1.4,0,0,0,.51-.91c0-.31.1-.76.16-1.37l.6.18c-.06.61-.13,1.1-.19,1.47a1.65,1.65,0,0,1-.67,1.14,3.55,3.55,0,0,1-1.54.41,13.88,13.88,0,0,1-1.58,0,2.29,2.29,0,0,1-1.46-.49,2,2,0,0,1-.44-1.42V173h-3.09a8.56,8.56,0,0,1-.05,1,5.09,5.09,0,0,1-1.39,3.16,8.19,8.19,0,0,1-3.61,1.86l-.31-.59a8.41,8.41,0,0,0,3.35-1.67,4.32,4.32,0,0,0,1.29-2.76c0-.21,0-.55.07-1h-4.5v-.6h13.75v.6Zm-1.48-7h6v2.9h-.65V166.6h-11.7V169h-.64v-3h6.31c-.27-.7-.54-1.33-.8-1.88L570,164C570.32,164.7,570.6,165.37,570.83,166Zm-5.33,3.19h9.58v.61H565.5Z"/><path d="M589.29,175.1a.59.59,0,0,1,.07.16,8.45,8.45,0,0,0,.93,1.88c.48.68.93,1,1.36,1a.93.93,0,0,0,.44-.18,1.56,1.56,0,0,0,.39-.69,14.26,14.26,0,0,0,.52-2.19l.59.22a18,18,0,0,1-.55,2.22c-.3.88-.75,1.32-1.38,1.32a2,2,0,0,1-1.57-.86A6.5,6.5,0,0,1,589,176l-.15-.34a20.47,20.47,0,0,1-3.35,3l-.41-.49a19.42,19.42,0,0,0,3.51-3.22,17.36,17.36,0,0,1-.65-2.67,40,40,0,0,1-.54-4.51h-6.21v2.88h4.23c0,1.36-.07,2.72-.11,4.08a2.39,2.39,0,0,1-.49,1.57,2.19,2.19,0,0,1-1.47.48,13.21,13.21,0,0,1-1.33-.07l-.06-.64a6.13,6.13,0,0,0,1.29.08,1.8,1.8,0,0,0,1.1-.31,1.72,1.72,0,0,0,.32-1.17c.05-1.15.08-2.29.12-3.43h-3.6v.31a17,17,0,0,1-.39,4,13.07,13.07,0,0,1-1.49,3.37l-.57-.38a10.88,10.88,0,0,0,1.42-3.15,16.88,16.88,0,0,0,.38-3.88v-4.34h6.83c-.05-.71-.09-1.79-.13-3.24h.65c0,1.06.09,2.11.13,3.15v.09h5.28v.6H588a32.23,32.23,0,0,0,.45,4.12,23.25,23.25,0,0,0,.58,2.43,22.23,22.23,0,0,0,2.59-4.82l.58.25a23.25,23.25,0,0,1-2.78,5.08Zm.07-10.28.39-.48c.52.41,1.27,1,2.24,1.88l-.37.48A25.31,25.31,0,0,0,589.36,164.82Z"/><path d="M595,165.34h12.91V166c-1.94,1.5-3.83,2.89-5.69,4.17v6.36a2.33,2.33,0,0,1-.45,1.61,2.25,2.25,0,0,1-1.62.49c-.62,0-1.29,0-2,0l-.1-.7a18.22,18.22,0,0,0,2,.08,1.68,1.68,0,0,0,1.19-.32,1.81,1.81,0,0,0,.33-1.23v-6.57c1.91-1.33,3.7-2.62,5.34-3.87H595Z"/><path d="M618.05,175.9l.18.08c1.56.66,3.29,1.44,5.2,2.32l-.28.66c-1.72-.83-3.43-1.62-5.11-2.36l-.58-.26a20.37,20.37,0,0,1-7.42,2.71l-.26-.63a30.83,30.83,0,0,0,4.12-1.08,13.59,13.59,0,0,0,2.84-1.31c-1.82-.79-3.34-1.41-4.56-1.88a27,27,0,0,0,1.65-2.75h-4.37v-.6h4.7c.44-.84.89-1.82,1.36-2.94l.67.23c-.38.9-.81,1.8-1.28,2.71h9.22v.6H621a12.07,12.07,0,0,1-1.29,2.7A8.21,8.21,0,0,1,618.05,175.9Zm-.41-9.61h5.5V169h-.66v-2.14H611.2v2.24h-.65v-2.84h6.39c-.32-.72-.66-1.44-1-2.14l.64-.2C616.94,164.72,617.31,165.5,617.64,166.29Zm-.27,9.31A7.88,7.88,0,0,0,619,174a10.5,10.5,0,0,0,1.34-2.62h-5.7c-.48.89-1,1.71-1.47,2.49C614.45,174.38,615.86,175,617.37,175.6Z"/><path d="M628.49,176.14c.64-.14,1.29-.3,2-.49l.09.61a45.24,45.24,0,0,1-4.82,1.08l-.16-.62,2.3-.45v-5.16h-1.92v-.59h1.92v-4.44h-2.07v-.59h4.59v.59h-1.89v4.44h1.78v.59h-1.78Zm5.41-.08.42.44a27.23,27.23,0,0,1-3.6,2.52l-.35-.51A21.26,21.26,0,0,0,633.9,176.06Zm4.46-1.47h2v.59h-9.86v-.59h2v-7.86H631v-.57h1.51v-2.11h.62v2.11h4.64v-2.11h.64v2.11h1.5v.57h-1.5Zm-.64-5.62v-2.24h-4.64V169Zm0,2.84v-2.3h-4.64v2.3Zm0,2.78v-2.24h-4.64v2.24Zm-1.32,2,.37-.47c1,.62,2.08,1.41,3.39,2.35l-.36.53C638.71,178.17,637.57,177.37,636.4,176.58Z"/><path d="M653.35,173.79h-8.2a9.46,9.46,0,0,1-.79,2.81,11.86,11.86,0,0,1-1.76,2.48l-.56-.49a9,9,0,0,0,2.09-3.28,16.14,16.14,0,0,0,.51-4.61V165H654v11.43a2.55,2.55,0,0,1-.5,1.73,2.35,2.35,0,0,1-1.64.57,17.41,17.41,0,0,1-1.78-.08L650,178c.76.08,1.34.12,1.75.12a1.76,1.76,0,0,0,1.24-.39,2,2,0,0,0,.34-1.33Zm0-.61v-3.44h-8.06v1c0,.93,0,1.75-.08,2.45Zm0-4.05v-3.5h-8.06v3.5Z"/><path d="M659.08,166.65h3.12v.52l-1.09,2.91-.56-.16,1-2.72h-2.69a20.44,20.44,0,0,1-1.7,3.5l-.48-.44a19.43,19.43,0,0,0,2.45-6.13l.64.11C659.58,165.11,659.34,165.91,659.08,166.65Zm0,3.12h.62v7.44c.6-.49,1.31-1.14,2.12-2l.27.57c-1.19,1.11-2.17,2-2.93,2.57l-.41-.49a1.23,1.23,0,0,0,.33-.92Zm10.1,3V179h-.64v-6.23h-3.27a10.34,10.34,0,0,1-.72,3.57,9.6,9.6,0,0,1-2.12,2.82l-.49-.42a7.39,7.39,0,0,0,2.7-6H662v-.58h2.58c0-.26,0-.51,0-.77v-3.47h-1.8v-.59h2.63c-.35-.87-.81-1.89-1.4-3.05l.57-.18c.49,1,1,2,1.47,3.23h1.47a36.65,36.65,0,0,0,1.9-3.31l.55.22c-.55,1.08-1.14,2.11-1.76,3.09h2.86v.59h-2v4.24h2.48v.58Zm-.64-.58v-4.24h-3.23v3.48c0,.25,0,.5,0,.76Z"/><path d="M673.05,176.94l4.2-5a14.71,14.71,0,0,0,1.39-1.9,3.53,3.53,0,0,0,.46-1.76,2.15,2.15,0,0,0-.7-1.73,2.54,2.54,0,0,0-1.73-.59,2.89,2.89,0,0,0-1.93.65,3.29,3.29,0,0,0-1,1.75H673a3.75,3.75,0,0,1,1.31-2.19,3.57,3.57,0,0,1,2.37-.83,3.29,3.29,0,0,1,2.29.77,2.74,2.74,0,0,1,.88,2.17,3.74,3.74,0,0,1-.28,1.42,6.35,6.35,0,0,1-.67,1.23c-.26.36-.62.81-1.08,1.37l-.32.39-3.54,4.25v0H680v.61h-7Z"/><path d="M688.56,174a4.23,4.23,0,0,1-.95,2.73,3.48,3.48,0,0,1-5,0,4.24,4.24,0,0,1-1-2.74q0-1.1,0-2.46t0-2.43a4.22,4.22,0,0,1,1-2.75,3.49,3.49,0,0,1,5,0,4.29,4.29,0,0,1,.95,2.77c0,.71,0,1.53,0,2.43S688.58,173.26,688.56,174Zm-6.21-.21a4.35,4.35,0,0,0,.7,2.43,2.38,2.38,0,0,0,2.08.94,2.33,2.33,0,0,0,2.06-.94,4.35,4.35,0,0,0,.7-2.43c0-.68,0-1.43,0-2.26s0-1.58,0-2.24a4.37,4.37,0,0,0-.7-2.43,2.35,2.35,0,0,0-2.06-.93,2.39,2.39,0,0,0-2.08.93,4.37,4.37,0,0,0-.7,2.43c0,.67,0,1.42,0,2.24S682.33,173.11,682.35,173.79Z"/><path d="M690.39,176.94l4.2-5A14.71,14.71,0,0,0,696,170a3.64,3.64,0,0,0,.46-1.76,2.15,2.15,0,0,0-.71-1.73,2.51,2.51,0,0,0-1.73-.59,2.91,2.91,0,0,0-1.93.65,3.28,3.28,0,0,0-1,1.75h-.72a3.74,3.74,0,0,1,1.3-2.19,3.61,3.61,0,0,1,2.37-.83,3.29,3.29,0,0,1,2.29.77,2.71,2.71,0,0,1,.89,2.17,3.94,3.94,0,0,1-.28,1.42,6.35,6.35,0,0,1-.67,1.23c-.26.36-.62.81-1.08,1.37l-.33.39-3.53,4.25v0h6.06v.61h-6.94Z"/><path d="M702.39,177.78a3.8,3.8,0,0,1-1.8-.43,3.21,3.21,0,0,1-1.3-1.21,3.69,3.69,0,0,1-.54-1.86h.72a3.08,3.08,0,0,0,.94,2.13,3,3,0,0,0,2,.75,3.11,3.11,0,0,0,2.14-.74,2.86,2.86,0,0,0-.08-4.15,3.77,3.77,0,0,0-2.3-.67h-.84V171h.84a3.29,3.29,0,0,0,1.37-.3,2.68,2.68,0,0,0,1.06-.86,2.63,2.63,0,0,0-.31-3.22,2.59,2.59,0,0,0-1.9-.67,2.43,2.43,0,0,0-1.78.67,3,3,0,0,0-.91,1.75H699a3.55,3.55,0,0,1,1.14-2.21,3.34,3.34,0,0,1,2.32-.83,3.49,3.49,0,0,1,1.67.37,2.89,2.89,0,0,1,1.18,1.07,3,3,0,0,1,.42,1.6,2.83,2.83,0,0,1-2.07,2.89v0a3.28,3.28,0,0,1,1.81,1,3.12,3.12,0,0,1,.65,2.06,3.62,3.62,0,0,1-.45,1.78,3.09,3.09,0,0,1-1.31,1.19A4.43,4.43,0,0,1,702.39,177.78Z"/><path d="M711.75,166h10v.62h-5.39V170h5v.62h-5v4h6.14v.62h-6.14v3.95h-.67v-3.95h-8v-.62h2.83V170h5.2v-3.37h-4.35a7.23,7.23,0,0,1-.46.7,21,21,0,0,1-2.3,2.78l-.44-.52A18.13,18.13,0,0,0,712,164l.66.18C712.35,164.84,712,165.45,711.75,166Zm4,8.57v-4h-4.56v4Z"/><path d="M725.27,177.19v1.6h-.64V166.84h1.65a26.83,26.83,0,0,0,1.1-2.81l.65.15c-.27.79-.62,1.68-1,2.66h2.94v11.79h-.64v-1.44Zm0-5.46h4v-4.27h-4Zm0,4.84h4v-4.22h-4Zm7.5-9.78h4.74q-.18,7.92-.21,9.22a2.92,2.92,0,0,1-.62,2,2.47,2.47,0,0,1-1.85.67,20.78,20.78,0,0,1-2.12-.1l-.09-.68c.89.07,1.58.11,2.08.11a2,2,0,0,0,1.47-.49,2.4,2.4,0,0,0,.49-1.6c.07-2.9.13-5.74.2-8.51h-4.37a23.08,23.08,0,0,1-1.53,2.74l-.56-.33a20.48,20.48,0,0,0,2.7-5.81l.62.18C733.49,164.94,733.17,165.8,732.77,166.79Zm-1.14,4,.5-.33c.62.82,1.41,1.88,2.36,3.19l-.54.39C733.32,173.12,732.54,172,731.63,170.82Z"/><path d="M742.58,171.67V179H742v-7.39a18.33,18.33,0,0,1-2.32,2.35l-.26-.63a16.33,16.33,0,0,0,2.43-2.51,13.86,13.86,0,0,0,1.67-2.9h-3.76v-.58h2.47c-.26-1.24-.53-2.31-.79-3.2L742,164c.32,1.24.59,2.36.82,3.35h1.33v.56a15.45,15.45,0,0,1-1.61,2.92v.66l.36-.26q1,.94,2,1.92l-.46.41C743.88,172.94,743.25,172.3,742.58,171.67Zm6.51-4.55.62,0c0,1,0,1.89-.07,2.82a10.7,10.7,0,0,1-1.24,5.2,11.9,11.9,0,0,1-4.08,3.84l-.43-.49a11.63,11.63,0,0,0,3.94-3.63A9.77,9.77,0,0,0,749,170C749,169.42,749.07,168.47,749.09,167.12ZM746,165h6.88V174h-.64v-8.33h-5.62v8.32H746Zm3.63,7.68h.6v4.06a1.13,1.13,0,0,0,.3.83,1.24,1.24,0,0,0,.88.36,4,4,0,0,0,.85,0,2.29,2.29,0,0,0,1-.28,1.29,1.29,0,0,0,.4-.8q.16-1.26.18-1.5l.57.23c0,.44-.11.93-.2,1.47a1.63,1.63,0,0,1-.54,1.11,2.87,2.87,0,0,1-1.32.36,5.21,5.21,0,0,1-.9,0,2,2,0,0,1-1.29-.48,1.76,1.76,0,0,1-.49-1.27Z"/><path d="M762.38,171.94H763a12,12,0,0,1-.26,2.16,5,5,0,0,1-2,3,14.1,14.1,0,0,1-4.85,2l-.31-.59a14.41,14.41,0,0,0,4.65-1.8,4.49,4.49,0,0,0,1.92-2.66A12.28,12.28,0,0,0,762.38,171.94Zm3.47-4.7h3.58v3h-.64v-2.42h-12.1v2.41H756v-3h9a32.89,32.89,0,0,0,2.47-3l.64.26C767.42,165.39,766.66,166.32,765.85,167.24Zm-8.54-2.7.63-.26c.68.83,1.27,1.54,1.74,2.14l-.55.31C758.56,166,758,165.28,757.31,164.54Zm.87,5.54h9.15v5.43h-.63v-4.86h-7.87v4.89h-.65Zm3.48-5.9.61-.18c.64,1.06,1.09,1.82,1.35,2.3l-.6.27C762.67,165.89,762.22,165.09,761.66,164.18Zm1.44,9.87h.62v2.47a1.55,1.55,0,0,0,.31,1.08,1.72,1.72,0,0,0,1.06.36c.77,0,1.54,0,2.33,0a2.58,2.58,0,0,0,1.22-.31,1.72,1.72,0,0,0,.51-1c.07-.46.13-.92.18-1.39l.6.21c0,.49-.12,1-.19,1.41a2.07,2.07,0,0,1-.66,1.24,3.11,3.11,0,0,1-1.58.43c-.84,0-1.69,0-2.54,0a2.3,2.3,0,0,1-1.42-.49,2.05,2.05,0,0,1-.44-1.44Z"/><path d="M777.82,171.49v7.42h-.64v-7.42h-3a14.54,14.54,0,0,1-.57,4.24,10.48,10.48,0,0,1-2,3.27l-.52-.42a10.42,10.42,0,0,0,1.91-3.06,13.52,13.52,0,0,0,.54-4h-2.4v-.61h2.4v-5h-1.78v-.61h7.71v.61h-1.7v5h2.24v.61Zm-.64-.61v-5h-2.95v5Zm8.24,2.44.51.4a19.27,19.27,0,0,1-6.55,5.28l-.41-.54a21.83,21.83,0,0,0,3.62-2.28A19.63,19.63,0,0,0,785.42,173.32Zm-1.08-9,.48.45a23.21,23.21,0,0,1-4.87,3.94l-.41-.5a24.21,24.21,0,0,0,2.55-1.77A25.23,25.23,0,0,0,784.34,164.33Zm.4,4.67.45.41a25.86,25.86,0,0,1-2.33,2.19,20.28,20.28,0,0,1-2.77,1.9l-.4-.53a19.55,19.55,0,0,0,2.73-1.84A25.27,25.27,0,0,0,784.74,169Z"/><path d="M800.69,170.8H794.2c-.1.1-.25.23-.42.41a6,6,0,0,1,2,2.38,33.16,33.16,0,0,0,4.69-2.25l.37.46a29.41,29.41,0,0,1-2.86,1.47,7.55,7.55,0,0,0,1.59,2.55,9.25,9.25,0,0,0,2.5,1.83l-.39.54a10.32,10.32,0,0,1-2.59-2,8.38,8.38,0,0,1-1.63-2.71l-1.47.58a6.83,6.83,0,0,1,.37,2.31,2.82,2.82,0,0,1-.55,1.93,2.32,2.32,0,0,1-1.77.62c-.38,0-.94,0-1.68-.07l-.06-.59a16.3,16.3,0,0,0,1.63.09,1.89,1.89,0,0,0,1.39-.46,2.32,2.32,0,0,0,.42-1.55,6.26,6.26,0,0,0-.24-1.77,20,20,0,0,1-7.77,4.12l-.29-.54a19.43,19.43,0,0,0,7.88-4.12,6.19,6.19,0,0,0-.7-1.19,20.29,20.29,0,0,1-6.77,3.32l-.28-.53a19.42,19.42,0,0,0,6.73-3.18,7.61,7.61,0,0,0-1-.9,18.46,18.46,0,0,1-5.5,2.17l-.24-.56a24.52,24.52,0,0,0,3.84-1.24,9.94,9.94,0,0,0,1.94-1.14h-4.23V168c-.4.26-.85.53-1.34.8l-.39-.49a17.56,17.56,0,0,0,5.34-4.4l.61.23c-.3.39-.66.82-1.08,1.27h6.52V166l-2.16,1.72h4.07Zm-5-3.12c.2-.17.91-.73,2.14-1.7h-6.08a17.91,17.91,0,0,1-2.11,1.7Zm-.81.52h-5.12v2.08h4.12A6,6,0,0,0,794.88,168.2Zm5.19,2.08V168.2h-4.54a6.76,6.76,0,0,1-.9,2.08Z"/><path d="M806.36,170.83c0-.46,0-.78,0-1V169c0-.42,0-.85,0-1.29H804v-.6h2.43V164H807c0,1,0,2.05,0,3.06h2.2v.6H807c0,.43,0,.85,0,1.28v.78q0,.75,0,1.08h2.52v.61h-2.55c-.06.5-.11,1-.17,1.48.84,1,1.73,2,2.68,3.21l-.44.45q-1.17-1.47-2.37-2.94a10.17,10.17,0,0,1-.93,2.67,16.69,16.69,0,0,1-1.78,2.48l-.46-.47a13.34,13.34,0,0,0,2.06-3.09,12.62,12.62,0,0,0,.8-3.79h-2.71v-.61Zm7-3.71H814c0,.64,0,1.56-.05,2.75a11.62,11.62,0,0,1-1.23,5.31,12.12,12.12,0,0,1-4,3.89l-.39-.52a11.38,11.38,0,0,0,3.85-3.67,10.46,10.46,0,0,0,1.16-5C813.32,168.68,813.33,167.76,813.34,167.12ZM810.25,165H817v8.94h-.62v-8.32h-5.53v8.3h-.64Zm3.53,7.68h.59v4a1.3,1.3,0,0,0,.25.88,1.32,1.32,0,0,0,.83.31,3.94,3.94,0,0,0,1,0,2.21,2.21,0,0,0,.91-.26,1.34,1.34,0,0,0,.41-.83l.18-1.5.57.19c-.06.61-.13,1.12-.2,1.52a1.73,1.73,0,0,1-.52,1.08,2.81,2.81,0,0,1-1.29.39,5.34,5.34,0,0,1-1.13,0,1.85,1.85,0,0,1-1.19-.47,1.74,1.74,0,0,1-.38-1.26Z"/><path d="M819.31,171.81l.3-.55c.54.25,1.58.76,3.1,1.53l-.28.59C821.15,172.71,820.11,172.18,819.31,171.81Zm10.27-5.24v1.68h-.66v-1.68h-4.46v1.71h-.65v-1.71h-4.43V166h4.43v-2h.65v2h4.46v-2h.66v2H834v.59Zm-6.53,7.55.51.39c-.89,1.36-1.92,2.84-3.07,4.45l-.54-.43Q821.93,175.86,823.05,174.12Zm-2.51-5.18.33-.54c1.06.55,2.09,1.13,3.08,1.73l-.31.55C822.28,169.89,821.25,169.31,820.54,168.94Zm5.28.89v6.51a1.48,1.48,0,0,0,.42,1.19,2.46,2.46,0,0,0,1.41.38,29.82,29.82,0,0,0,3,0,3.94,3.94,0,0,0,1.73-.33,1.44,1.44,0,0,0,.64-1,9.54,9.54,0,0,0,.2-1.38l.63.18c-.06.53-.14,1-.23,1.46a2,2,0,0,1-.83,1.3,5.27,5.27,0,0,1-2.09.43q-1.58,0-3.12,0a3.16,3.16,0,0,1-1.83-.52,2,2,0,0,1-.58-1.62v-7.18h6.92c0,1.09-.05,2.18-.08,3.26a2.59,2.59,0,0,1-.56,1.68,2.39,2.39,0,0,1-1.63.51c-.57,0-1.19,0-1.87-.07l-.1-.64c.69.06,1.31.09,1.85.09a1.82,1.82,0,0,0,1.24-.36,1.7,1.7,0,0,0,.41-1.25c0-.86.06-1.72.08-2.6Z"/><path d="M836.81,175.55c.4.36.82.76,1.24,1.2s.74.82,1.2,1.37l-.43.36a19.13,19.13,0,0,0-2.39-2.57Z"/><path d="M846.49,165h.68v11.47c1-.72,2.45-1.79,4.21-3.22l.31.67q-3.06,2.42-5.08,3.74l-.41-.5a4.34,4.34,0,0,0,.23-.4,2.41,2.41,0,0,0,.06-.49Zm9.65,8.69c1.59,1.77,2.82,3.18,3.69,4.25l-.5.51c-1.15-1.39-2.32-2.76-3.52-4.14-.11.19-.22.37-.34.54a13.88,13.88,0,0,1-5.1,4.09l-.39-.59a13.88,13.88,0,0,0,4.93-3.87,11.09,11.09,0,0,0,1.77-5.5c.12-1.2.2-2.68.24-4.43l.69,0c-.06,1.49-.14,2.94-.26,4.35A13.06,13.06,0,0,1,856.14,173.69Zm-5.9-9.17.59-.24c.81,1.39,1.6,2.87,2.35,4.44l-.61.31Q851.46,166.66,850.24,164.52Z"/><path d="M871,175.38a18,18,0,0,0,5.21,2.82l-.34.66a19.39,19.39,0,0,1-5.38-3,21,21,0,0,1-5.75,3.26l-.35-.6a20.07,20.07,0,0,0,5.58-3.1c-.37-.35-.65-.62-.82-.81a14.25,14.25,0,0,1-3-5A16.73,16.73,0,0,1,865,174.1a15.32,15.32,0,0,1-3.14,4.43l-.49-.47a14.69,14.69,0,0,0,3-4.22,16.44,16.44,0,0,0,1.21-5.17q0-.4.18-3h-3.13v-.62h10.5v.62l-2,3.86h3.32v.6A13.73,13.73,0,0,1,871,175.38Zm-.53-.45a12,12,0,0,0,3.22-4.75h-3.33v-.59l2-3.89h-6c-.06.84-.11,1.61-.15,2.32a14.14,14.14,0,0,0,3.4,6.13A8.71,8.71,0,0,0,870.47,174.93Z"/><path d="M880.35,175.64l2.09-.79.17.59c-1.74.69-3.44,1.29-5.12,1.8l-.2-.64c1-.3,1.85-.56,2.44-.77V169h-2v-.59h2v-4.37h.62v4.37h1.94V169h-1.94Zm7.29-6.61v6.77H887v-6.57l-2.88.93v5.71a2,2,0,0,0,.43,1.53,2.73,2.73,0,0,0,1.57.43c1.07,0,2.15,0,3.23,0a3.15,3.15,0,0,0,1.49-.4,1.76,1.76,0,0,0,.57-1.12c.1-.54.18-1,.23-1.49l.6.16c-.06.57-.14,1.1-.24,1.6a2.1,2.1,0,0,1-.77,1.41,3.29,3.29,0,0,1-1.76.44,33.85,33.85,0,0,1-3.49,0,3.2,3.2,0,0,1-1.92-.55,2.64,2.64,0,0,1-.56-1.92v-5.6l-1.47.47-.16-.6,1.63-.53v-4.1h.62v3.91l2.88-.92v-4.53h.62v4.34l3.69-1.18c-.05,2.21-.11,3.91-.16,5.08a2.29,2.29,0,0,1-.41,1.41,1.6,1.6,0,0,1-1.16.44c-.51,0-.91,0-1.19,0l-.08-.62c.39,0,.76,0,1.11,0a1.13,1.13,0,0,0,.8-.24,1.84,1.84,0,0,0,.32-1.08c.05-.89.09-2.28.14-4.17Z"/><path d="M895.66,166.47h3.42V167H895.4a20.31,20.31,0,0,1-1.67,2.91l-.45-.44a21,21,0,0,0,1.53-2.63,16.09,16.09,0,0,0,1.06-2.84l.63.13A21.18,21.18,0,0,1,895.66,166.47Zm.84,6.53v4.39c.59-.44,1.34-1.06,2.23-1.85l.33.5c-.95.84-2,1.68-3.07,2.51l-.39-.46a2.39,2.39,0,0,0,.21-.34,1.28,1.28,0,0,0,.06-.35V173h-2.33v-.55h2.33V169.9h-1.38v-.57h3.87v.57H896.5v2.55h2.37V173Zm7.42-.86a9.26,9.26,0,0,0,1.38,3.41,9.08,9.08,0,0,0,2.88,2.77l-.39.6a10,10,0,0,1-3-3,9.42,9.42,0,0,1-1.19-2.76,8.85,8.85,0,0,1-1.31,2.92,11.28,11.28,0,0,1-3.28,3l-.4-.54a10.86,10.86,0,0,0,3.14-2.83,8.27,8.27,0,0,0,1.41-3.53h-4v-.59h4.05c0-.11,0-.27,0-.49s0-1.12.08-3h-2.53a19,19,0,0,1-.9,2.26l-.55-.25a17,17,0,0,0,1.53-4.87l.59.13a21,21,0,0,1-.49,2.14h2.39c0-.89,0-2,0-3.43h.64c0,.5,0,1.64,0,3.43h3.44v.59H904c0,.62,0,1.16,0,1.62,0,.61-.05,1.22-.08,1.83v0H908v.59Z"/><path d="M909.9,171c.82.34,1.78.74,2.87,1.21l-.24.59c-1-.47-2-.89-2.91-1.25Zm10-4.79v1.42h-.64v-1.42H914.7v1.45h-.62v-1.45h-4.33v-.56h4.33V164h.62v1.61h4.56V164h.64v1.63h4.31v.56Zm-7.55,7.89.55.25q-.95,2.4-2,4.58l-.59-.28Q911.35,176.61,912.35,174.08Zm-1.34-6.3c1.32.59,2.27,1,2.86,1.34l-.26.58c-.79-.42-1.75-.89-2.9-1.4Zm8.55,4.06a17.71,17.71,0,0,0,4.85,1.31l-.18.61a19,19,0,0,1-5.1-1.47l-.19-.1a23.72,23.72,0,0,1-5.35,1.8l-.2-.58a21.3,21.3,0,0,0,4.91-1.57,10.49,10.49,0,0,1-2.36-1.84,14.92,14.92,0,0,1-1.63,1.47l-.41-.47a11.37,11.37,0,0,0,3.27-3.67l.6.17a9.06,9.06,0,0,1-.7,1.12h5.64v.56A11.73,11.73,0,0,1,919.56,171.84Zm2.38,6.25h-6.16v1h-.62v-4.77h7.4v4.77h-.62Zm0-.54v-2.71h-6.16v2.71Zm-3-6a11.42,11.42,0,0,0,3-2.37h-5.23c-.11.13-.22.27-.34.4A9.6,9.6,0,0,0,918.92,171.53Z"/><path d="M928,175.64l2.1-.79.16.59q-2.6,1-5.12,1.8l-.19-.64c1-.3,1.84-.56,2.43-.77V169h-2v-.59h2v-4.37H928v4.37h2V169h-2Zm7.29-6.61v6.77h-.62v-6.57l-2.87.93v5.71a2.06,2.06,0,0,0,.42,1.53,2.75,2.75,0,0,0,1.57.43q1.62.07,3.24,0a3.1,3.1,0,0,0,1.48-.4,1.72,1.72,0,0,0,.58-1.12c.09-.54.17-1,.22-1.49l.61.16c-.07.57-.15,1.1-.25,1.6a2.09,2.09,0,0,1-.76,1.41,3.3,3.3,0,0,1-1.77.44,33.66,33.66,0,0,1-3.48,0,3.23,3.23,0,0,1-1.93-.55,2.64,2.64,0,0,1-.55-1.92v-5.6l-1.48.47-.16-.6,1.64-.53v-4.1h.62v3.91l2.87-.92v-4.53h.62v4.34l3.7-1.18c-.06,2.21-.11,3.91-.17,5.08a2.3,2.3,0,0,1-.4,1.41,1.62,1.62,0,0,1-1.16.44c-.52,0-.91,0-1.2,0l-.08-.62c.39,0,.76,0,1.11,0a1.11,1.11,0,0,0,.8-.24,1.77,1.77,0,0,0,.33-1.08c0-.89.09-2.28.13-4.17Z"/><path d="M945,173.1V179h-.62v-5.67c-.86.35-1.82.74-2.88,1.14l-.18-.62,3.06-1.21v-4.19h-1.75a25.42,25.42,0,0,1-.73,2.52l-.55-.18a22.67,22.67,0,0,0,1.18-5.21l.56.1c-.1.75-.21,1.47-.35,2.17h1.64v-3.78H945v3.78h1.81v.6H945v3.93c.76-.31,1.43-.59,2-.84l.17.59Q946.11,172.65,945,173.1Zm8.06-5.68a19.07,19.07,0,0,1-1.55,6.45,14.07,14.07,0,0,1-3.78,4.76l-.46-.48a13.89,13.89,0,0,0,3.71-4.61,18.54,18.54,0,0,0,1.54-6.12h-1.67a15.44,15.44,0,0,1-1.44,4.56,13.67,13.67,0,0,1-2.87,3.67l-.44-.45a12.05,12.05,0,0,0,2.77-3.47,14.29,14.29,0,0,0,1.43-4.31h-1.69a18.61,18.61,0,0,1-1.76,3l-.49-.4a20,20,0,0,0,2.91-6l.6.18a23.57,23.57,0,0,1-1,2.61h6.39c-.09,2-.21,5-.36,9a3.6,3.6,0,0,1-.57,2,2.23,2.23,0,0,1-1.7.62,17,17,0,0,1-1.73-.1l-.12-.64a15.55,15.55,0,0,0,1.75.12,1.63,1.63,0,0,0,1.29-.45,2.76,2.76,0,0,0,.46-1.68q.13-3.3.34-8.33Z"/><path d="M960.13,171.73a15.6,15.6,0,0,1-2.67,4.68l-.37-.58a14.64,14.64,0,0,0,2.93-5.28h-2.79V170h2.9v-5.91h.63V170h2.6v.59h-2.6v1.2l.32-.23c.58.63,1.32,1.52,2.23,2.66l-.46.39c-.59-.76-1.29-1.6-2.09-2.53v7h-.63Zm-2.51-5.82.49-.16c.31.7.67,1.63,1.06,2.79l-.52.22C958.34,167.84,958,166.89,957.62,165.91Zm5.16-.18.53.2c-.37,1-.78,1.92-1.23,2.83l-.47-.25A29.17,29.17,0,0,0,962.78,165.73Zm6.79,8.5V179H969v-4.73l-5.24.82-.09-.64,5.33-.81V164h.62v9.55l2.27-.35.08.64Zm-5.17-4.33.39-.43c.71.58,1.56,1.32,2.54,2.23l-.38.46C966.1,171.36,965.25,170.61,964.4,169.9Zm.59-3.78.39-.42c.76.69,1.59,1.46,2.49,2.32l-.4.47C966.85,167.85,966,167.06,965,166.12Z"/><path d="M980.82,171.86h7.06v.56H973.15v-.56h7V170h-5.46v-.55h5.46V168.2h.64v1.21h5.52V170h-5.52Zm-3.25-5.78c.25.52.51,1.13.8,1.84l-.56.21c-.22-.61-.51-1.29-.87-2h-1a17,17,0,0,1-2.24,2.56l-.46-.41a14.84,14.84,0,0,0,3.22-4.26l.61.18c-.27.51-.53,1-.79,1.4h4.45v.53Zm6.65,8.77v2.06a2.09,2.09,0,0,1-.46,1.47,2.41,2.41,0,0,1-1.55.53,11.84,11.84,0,0,1-1.74,0l-.06-.62c.78,0,1.32.07,1.62.07a2,2,0,0,0,1.21-.36,1.62,1.62,0,0,0,.32-1.13v-2h-9.8v-.55h9.8V173h.66v1.28h3.09v.55Zm-8.19,1,.39-.47q.86.51,2.91,1.8l-.39.5C977.91,177,976.94,176.34,976,175.83Zm8.42-9.74c.32.63.62,1.24.88,1.82l-.56.21c-.39-.9-.71-1.57-1-2h-1.54a14.39,14.39,0,0,1-1.32,1.73l-.51-.34A13.45,13.45,0,0,0,982.7,164l.6.15c-.17.36-.41.82-.72,1.4h5.18v.54Z"/><path d="M991.05,178.81a1.65,1.65,0,0,1-1.19-.49,1.63,1.63,0,0,1-.49-1.2,1.71,1.71,0,0,1,1.68-1.7,1.62,1.62,0,0,1,1.21.51,1.58,1.58,0,0,1,.49,1.19,1.63,1.63,0,0,1-.49,1.2A1.68,1.68,0,0,1,991.05,178.81Zm0-.48a1.28,1.28,0,0,0,.87-.32,1.35,1.35,0,0,0,0-1.79,1.25,1.25,0,0,0-.87-.31,1.15,1.15,0,0,0-.85.33,1.18,1.18,0,0,0-.34.88,1.21,1.21,0,0,0,.34.89A1.27,1.27,0,0,0,991.05,178.33Z"/><path class="cls-4" d="M371.9.53H8.26A7.78,7.78,0,0,0,.48,8.31V114.42a7.78,7.78,0,0,0,7.78,7.78H170.07l20,34.66,20-34.66H371.9a7.78,7.78,0,0,0,7.78-7.78V8.31A7.78,7.78,0,0,0,371.9.53Z"/><path class="cls-5" d="M190.08,157.81l-20.29-35.13H8.26A8.28,8.28,0,0,1,0,114.42V8.31A8.28,8.28,0,0,1,8.26.05H371.9a8.28,8.28,0,0,1,8.26,8.26V114.42a8.28,8.28,0,0,1-8.26,8.26H210.37ZM8.26,1A7.32,7.32,0,0,0,1,8.31V114.42a7.31,7.31,0,0,0,7.31,7.3H170.34l19.74,34.19,19.74-34.19H371.9a7.31,7.31,0,0,0,7.31-7.3V8.31A7.32,7.32,0,0,0,371.9,1Z"/><path d="M106,184.11l5-6a16.81,16.81,0,0,0,1.66-2.26,4.29,4.29,0,0,0,.55-2.11,2.58,2.58,0,0,0-.84-2.07,3.07,3.07,0,0,0-2.07-.7,3.43,3.43,0,0,0-2.3.78,3.94,3.94,0,0,0-1.25,2.09h-.86a4.52,4.52,0,0,1,1.56-2.62,4.34,4.34,0,0,1,2.83-1,3.92,3.92,0,0,1,2.73.92,3.22,3.22,0,0,1,1.06,2.59,4.63,4.63,0,0,1-.33,1.7,7.84,7.84,0,0,1-.8,1.46c-.32.43-.75,1-1.29,1.64l-.39.47-4.22,5.07v0h7.24v.72H106Z"/><path d="M123.11,185.11a6.56,6.56,0,0,1-3.49-.94,6.2,6.2,0,0,1-2.38-2.63,9.36,9.36,0,0,1,0-7.75,6.2,6.2,0,0,1,2.38-2.63,7,7,0,0,1,7,0,6.14,6.14,0,0,1,2.38,2.63,9.16,9.16,0,0,1,0,7.75,6.14,6.14,0,0,1-2.38,2.63A6.58,6.58,0,0,1,123.11,185.11Zm-5.83-7.44a7.87,7.87,0,0,0,.72,3.44,5.55,5.55,0,0,0,5.11,3.22,5.73,5.73,0,0,0,3.09-.86,5.82,5.82,0,0,0,2.06-2.38,7.81,7.81,0,0,0,.74-3.46,7.64,7.64,0,0,0-.74-3.43,5.71,5.71,0,0,0-2.08-2.36,5.63,5.63,0,0,0-3.07-.84,5.48,5.48,0,0,0-3,.84,5.55,5.55,0,0,0-2.07,2.38A7.88,7.88,0,0,0,117.28,177.67Z"/><path d="M132.05,184.11l5-6a16.81,16.81,0,0,0,1.66-2.26,4.29,4.29,0,0,0,.55-2.11,2.58,2.58,0,0,0-.84-2.07,3.07,3.07,0,0,0-2.07-.7,3.43,3.43,0,0,0-2.3.78,3.94,3.94,0,0,0-1.25,2.09H132a4.52,4.52,0,0,1,1.56-2.62,4.34,4.34,0,0,1,2.83-1,3.92,3.92,0,0,1,2.73.92,3.22,3.22,0,0,1,1.06,2.59,4.63,4.63,0,0,1-.33,1.7,7.84,7.84,0,0,1-.8,1.46c-.32.43-.75,1-1.29,1.64l-.39.47-4.22,5.07v0h7.24v.72h-8.29Z"/><path d="M146.72,185.11a4.54,4.54,0,0,1-2.14-.51,3.92,3.92,0,0,1-1.56-1.44,4.46,4.46,0,0,1-.65-2.23h.86a3.67,3.67,0,0,0,1.13,2.54,3.49,3.49,0,0,0,2.42.9,3.77,3.77,0,0,0,2.56-.88,3,3,0,0,0,1-2.38,3,3,0,0,0-1.11-2.58,4.57,4.57,0,0,0-2.75-.8h-1V177h1a4,4,0,0,0,1.64-.35,3.36,3.36,0,0,0,1.27-1,3.17,3.17,0,0,0-.37-3.84,3.14,3.14,0,0,0-2.27-.8,3,3,0,0,0-2.13.8,3.68,3.68,0,0,0-1.09,2.09h-.86a4.25,4.25,0,0,1,1.37-2.64,4,4,0,0,1,2.77-1,4.15,4.15,0,0,1,2,.45,3.38,3.38,0,0,1,1.41,1.27,3.68,3.68,0,0,1,.5,1.91,3.37,3.37,0,0,1-2.47,3.45v0a3.87,3.87,0,0,1,2.16,1.25,3.78,3.78,0,0,1,.78,2.46,4.23,4.23,0,0,1-.55,2.13,3.65,3.65,0,0,1-1.56,1.42A5.34,5.34,0,0,1,146.72,185.11Z"/><path d="M154.33,183.53a.66.66,0,0,1,.49.19.64.64,0,0,1,.22.51.71.71,0,0,1-.22.49.68.68,0,0,1-.49.21.7.7,0,0,1-.49-.21.67.67,0,0,1-.19-.49.66.66,0,0,1,.19-.51A.67.67,0,0,1,154.33,183.53Z"/><path d="M164.21,185.11a6.59,6.59,0,0,1-3.5-.94,6.26,6.26,0,0,1-2.38-2.63,9.36,9.36,0,0,1,0-7.75,6.26,6.26,0,0,1,2.38-2.63,7,7,0,0,1,7,0,6.2,6.2,0,0,1,2.38,2.63,9.16,9.16,0,0,1,0,7.75,6.2,6.2,0,0,1-2.38,2.63A6.63,6.63,0,0,1,164.21,185.11Zm-5.84-7.44a7.87,7.87,0,0,0,.72,3.44,5.55,5.55,0,0,0,5.12,3.22,5.69,5.69,0,0,0,3.08-.86,5.77,5.77,0,0,0,2.07-2.38,7.94,7.94,0,0,0,.74-3.46,7.78,7.78,0,0,0-.74-3.43,5.8,5.8,0,0,0-2.09-2.36,5.62,5.62,0,0,0-3.06-.84,5.52,5.52,0,0,0-3.05.84,5.68,5.68,0,0,0-2.07,2.38A7.88,7.88,0,0,0,158.37,177.67Z"/><path d="M176.17,184.83l3.9-6.77h0a3.77,3.77,0,0,1-1.33.76,5,5,0,0,1-1.69.32,4.15,4.15,0,0,1-2.13-.57,3.87,3.87,0,0,1-1.52-1.56,4.59,4.59,0,0,1-.57-2.32,4.67,4.67,0,0,1,.59-2.34,4.13,4.13,0,0,1,1.62-1.59,4.74,4.74,0,0,1,2.28-.54,4.45,4.45,0,0,1,2.28.56,4.11,4.11,0,0,1,1.56,1.59,4.82,4.82,0,0,1,.57,2.38,6.41,6.41,0,0,1-.39,2.3,23.27,23.27,0,0,1-1.19,2.42l-.23.41-2.82,5Zm-2.52-10.22a4.2,4.2,0,0,0,.45,2,3.33,3.33,0,0,0,3,1.77A4,4,0,0,0,179,178a3.27,3.27,0,0,0,1.34-1.27,3.73,3.73,0,0,0,.51-2,4.15,4.15,0,0,0-.47-2,3.2,3.2,0,0,0-1.29-1.29,3.6,3.6,0,0,0-1.83-.45,3.75,3.75,0,0,0-1.83.43,3.21,3.21,0,0,0-1.31,1.27A3.62,3.62,0,0,0,173.65,174.61Z"/><path d="M182.49,178.88v-.68h15.18v.68Z"/><path d="M198.78,184.11l5-6a18.76,18.76,0,0,0,1.66-2.26,4.39,4.39,0,0,0,.54-2.11,2.58,2.58,0,0,0-.84-2.07,3,3,0,0,0-2.06-.7,3.44,3.44,0,0,0-2.31.78,4,4,0,0,0-1.25,2.09h-.85a4.42,4.42,0,0,1,1.56-2.62,4.32,4.32,0,0,1,2.83-1,3.92,3.92,0,0,1,2.73.92,3.25,3.25,0,0,1,1.05,2.59,4.63,4.63,0,0,1-.33,1.7,7.3,7.3,0,0,1-.8,1.46c-.31.43-.74,1-1.29,1.64l-.39.47-4.21,5.07v0h7.24v.72h-8.3Z"/><path d="M215.9,185.11a6.59,6.59,0,0,1-3.5-.94,6.26,6.26,0,0,1-2.38-2.63,9.36,9.36,0,0,1,0-7.75,6.26,6.26,0,0,1,2.38-2.63,7,7,0,0,1,7,0,6.2,6.2,0,0,1,2.38,2.63,9.16,9.16,0,0,1,0,7.75,6.2,6.2,0,0,1-2.38,2.63A6.63,6.63,0,0,1,215.9,185.11Zm-5.84-7.44a7.87,7.87,0,0,0,.72,3.44,5.55,5.55,0,0,0,5.12,3.22,5.69,5.69,0,0,0,3.08-.86,5.77,5.77,0,0,0,2.07-2.38,7.94,7.94,0,0,0,.74-3.46,7.78,7.78,0,0,0-.74-3.43,5.8,5.8,0,0,0-2.09-2.36,5.6,5.6,0,0,0-3.06-.84,5.52,5.52,0,0,0-3.05.84,5.68,5.68,0,0,0-2.07,2.38A7.88,7.88,0,0,0,210.06,177.67Z"/><path d="M224.83,184.11l5-6a18.76,18.76,0,0,0,1.66-2.26,4.39,4.39,0,0,0,.54-2.11,2.58,2.58,0,0,0-.84-2.07,3,3,0,0,0-2.06-.7,3.45,3.45,0,0,0-2.31.78,4,4,0,0,0-1.25,2.09h-.85a4.42,4.42,0,0,1,1.56-2.62,4.32,4.32,0,0,1,2.83-1,3.92,3.92,0,0,1,2.73.92,3.25,3.25,0,0,1,1,2.59,4.63,4.63,0,0,1-.33,1.7,7.3,7.3,0,0,1-.8,1.46c-.31.43-.74,1-1.29,1.64l-.39.47-4.21,5.07v0h7.24v.72h-8.3Z"/><path d="M239.51,185.11a4.58,4.58,0,0,1-2.15-.51,3.92,3.92,0,0,1-1.56-1.44,4.45,4.45,0,0,1-.64-2.23H236a3.71,3.71,0,0,0,1.14,2.54,3.47,3.47,0,0,0,2.42.9,3.73,3.73,0,0,0,2.55-.88,3,3,0,0,0,1-2.38,3,3,0,0,0-1.12-2.58,4.53,4.53,0,0,0-2.75-.8h-1V177h1a4,4,0,0,0,1.64-.35,3.28,3.28,0,0,0,1.27-1,3.13,3.13,0,0,0-.37-3.84,3.12,3.12,0,0,0-2.26-.8,2.93,2.93,0,0,0-2.13.8,3.62,3.62,0,0,0-1.09,2.09h-.86a4.24,4.24,0,0,1,1.36-2.64,4,4,0,0,1,2.77-1,4.12,4.12,0,0,1,2,.45,3.32,3.32,0,0,1,1.41,1.27,3.59,3.59,0,0,1,.51,1.91A3.38,3.38,0,0,1,241,177.3v0a3.51,3.51,0,0,1,2.95,3.71,4.33,4.33,0,0,1-.55,2.13,3.77,3.77,0,0,1-1.56,1.42A5.34,5.34,0,0,1,239.51,185.11Z"/><path d="M247.12,183.53a.65.65,0,0,1,.48.19.61.61,0,0,1,.22.51.67.67,0,0,1-.22.49.67.67,0,0,1-1,0,.68.68,0,0,1-.2-.49.66.66,0,0,1,.2-.51A.66.66,0,0,1,247.12,183.53Z"/><path d="M255.76,184.83H255V171.39h0L251.62,174v-.85l3.42-2.68h.72Z"/><path d="M267.65,185.11a6.59,6.59,0,0,1-3.5-.94,6.2,6.2,0,0,1-2.38-2.63,9.36,9.36,0,0,1,0-7.75,6.2,6.2,0,0,1,2.38-2.63,7,7,0,0,1,7,0,6.2,6.2,0,0,1,2.38,2.63,9.16,9.16,0,0,1,0,7.75,6.2,6.2,0,0,1-2.38,2.63A6.63,6.63,0,0,1,267.65,185.11Zm-5.84-7.44a7.87,7.87,0,0,0,.72,3.44,5.55,5.55,0,0,0,5.12,3.22,5.69,5.69,0,0,0,3.08-.86,5.77,5.77,0,0,0,2.07-2.38,7.94,7.94,0,0,0,.74-3.46,7.78,7.78,0,0,0-.74-3.43,5.8,5.8,0,0,0-2.09-2.36,5.62,5.62,0,0,0-3.06-.84,5.52,5.52,0,0,0-3,.84,5.68,5.68,0,0,0-2.07,2.38A7.88,7.88,0,0,0,261.81,177.67Z"/><path d="M118,82.39v-4.9q13.62-12.19,17.05-19.35a13.47,13.47,0,0,0,1.4-5.56q0-5.17-3.93-6.53a7.59,7.59,0,0,0-2.48-.39q-3.88.06-7.82,4.38l-4.61-4.61q4.89-5.18,10.18-6.18a19.59,19.59,0,0,1,3.38-.29q7.37,0,11,5.07a13.7,13.7,0,0,1,2.36,8q-.06,9.78-14.17,23.62a69,69,0,0,1,6.92-.45h9.28v7.15Z"/><path d="M178,40.88q-5.11,7.82-15.08,15.35a75.22,75.22,0,0,1-8.21,5.4,20.34,20.34,0,0,0-4.22-5.4l-.28-.28a63,63,0,0,0,18.06-14.4A45.78,45.78,0,0,0,174,33.73h7.32a60.53,60.53,0,0,0,17.83,17.55,57.4,57.4,0,0,0,7.31,3.94,33.74,33.74,0,0,0-4.73,6.24,75.15,75.15,0,0,1-18.22-14A49.68,49.68,0,0,1,178,40.88Zm-3.6,12.26h7.2V87.39h-7.2Z"/><path d="M255.35,36.32v42.3c0,3.22-.75,5.4-2.25,6.52a10.73,10.73,0,0,1-1.35.73c-1.95.87-5.7,1.31-11.24,1.35H239a25.57,25.57,0,0,0-2.87-7.2l2.42.12c.86,0,1.72,0,2.58,0h5.12c1.09,0,1.69-.39,1.8-1.18a2.43,2.43,0,0,0,.06-.51V70.18H223.46q-2.7,11.25-9.73,17.21a20.38,20.38,0,0,0-4.44-4.33c-.34-.26-.62-.47-.84-.62q8.33-7.08,9.33-21.26c.12-1.72.17-3.69.17-5.9v-19ZM224.59,63.54H248.1v-7H225Q224.88,60.4,224.59,63.54ZM248.1,43H225v7H248.1Z"/></g></g></g></svg>