<svg xmlns="http://www.w3.org/2000/svg" viewBox="0 0 210.84 78.03"><defs><style>.cls-1{fill:#353535;}.cls-2{fill:#b7b7b7;}</style></defs><g id="图层_2" data-name="图层 2"><g id="图层_1-2" data-name="图层 1"><path class="cls-1" d="M29.19,68.23H49.55v6.2H2.27v-6.2H22.08V41.32h-17V34.87H46.66v6.45H29.19Z"/><path class="cls-1" d="M63.59,29.69l6,1.88a88.13,88.13,0,0,1-5,10.81V78H58.41V52q-.72.87-3.25,3.76a32.26,32.26,0,0,0-3.1-6.15,3.22,3.22,0,0,0-.31-.45A48.79,48.79,0,0,0,62,33.6,41.58,41.58,0,0,0,63.59,29.69ZM100.86,43.8H86.08v5.49H99.59v5.59H86.08v5.89h14.17V66.5H86.08V78H79.79V43.8h-2A54.76,54.76,0,0,1,71,53.91a25.59,25.59,0,0,0-4.47-4.11,1.38,1.38,0,0,1-.25-.21q5.83-5.94,9.75-16c.47-1.22.89-2.42,1.27-3.61l6,1.53A61.74,61.74,0,0,1,80.7,38h20.16Z"/><path class="cls-1" d="M113.52,56.6l7.72-1.27a31.65,31.65,0,0,0-.2,5.44q-14,2.68-16.15,3.8l-.25.11a35.08,35.08,0,0,0-2-5.79,9.25,9.25,0,0,0,4-2.8,4.55,4.55,0,0,1,.4-.45,57.44,57.44,0,0,0,4.12-4.93q-5.6.66-6.91,1.32a48.31,48.31,0,0,0-1.93-5.74c.88-.3,1.91-1.32,3.1-3a52.88,52.88,0,0,0,4.87-9.3q1-2.54,1.73-4.67L117.84,32a78.25,78.25,0,0,1-7.77,13.61l4.88-.35a44.46,44.46,0,0,0,3.14-5.34l5.39,3.51A84.38,84.38,0,0,1,113.52,56.6Zm7.06,8.84.66,5.38q-1.67.51-17.21,4.82l-1.17-6.19Q106.37,68.84,120.58,65.44ZM152,50.51l-3.61,5a78.39,78.39,0,0,0-12.14-6.66,54.32,54.32,0,0,1-12.84,6.45A20.24,20.24,0,0,0,119.77,50a42.24,42.24,0,0,0,16.91-9.34,30.34,30.34,0,0,0,2.84-3h-16.3V32h20.37l1.11-.25,4.37,2.28a35.29,35.29,0,0,1-8,11A79.31,79.31,0,0,1,152,50.51ZM139.27,61.63v9.55h12.14v5.73H120.58V71.18H133V61.63h-9.34V56h25.14v5.64Z"/><path class="cls-1" d="M166.46,62l.46,4.57-5.74,1.38-7.11,1.62-1-4.77Q157.21,64.06,166.46,62Zm12.95-11.47V46.09a64.32,64.32,0,0,1-5.18,4.06,34.86,34.86,0,0,0-3.51-5q-.25,3.39-.76,8.27h4s0,.78-.1,2.24q-.7,15-2.08,18.38a5.71,5.71,0,0,1-.76,1.37,5.87,5.87,0,0,1-4,2,52,52,0,0,1-6.35,0,10.19,10.19,0,0,0-1.52-4.92c1.89.17,3.7.25,5.43.25a2.74,2.74,0,0,0,1.83-.66q1.42-1.68,2-13.86H155q1-7.77,1.37-18.23l5.28.3q-.19,4.42-1,13.15h4.06q.87-7.2,1.37-17H154.37V31.36h17.17q-.36,7-.87,13.82a40.54,40.54,0,0,0,12.55-12,35.64,35.64,0,0,0,2.53-4.37l5.34,1.88c-.17.38-.63,1.21-1.37,2.49A51.51,51.51,0,0,0,201.34,43c.58.34,1.12.65,1.63.92a26.11,26.11,0,0,0-2.84,6.14,47.27,47.27,0,0,1-4.73-3.5v4Zm16.6,3,5.64,1.17q-3.85,10.72-6.3,15.85h6.2v5.18h-27V70.57h15.59a91,91,0,0,0,5.69-16.41A5.33,5.33,0,0,0,196,53.55Zm-12.39,12.7-5,1.37a75.06,75.06,0,0,0-2.69-12.24l4.68-1.27A73.55,73.55,0,0,1,183.62,66.25Zm-3.4-20.92H194A77.89,77.89,0,0,1,186.67,38,61.4,61.4,0,0,1,180.22,45.33ZM191.7,65.44l-4.93.76a111.7,111.7,0,0,0-1.93-12.29l4.67-.66A91.73,91.73,0,0,1,191.7,65.44Z"/><path class="cls-2" d="M12.38.26,16.7,14.33l4-14h2.06l-5.3,17.57H15.74L11.42,4.25,7.3,17.86H5.62L0,.29H2.26l4.32,14,4-14.07Z"/><path class="cls-2" d="M24.17,4.27A7.62,7.62,0,0,1,27,1.1,7.74,7.74,0,0,1,31.08,0a7.57,7.57,0,0,1,4.07,1.12A7.66,7.66,0,0,1,38,4.28a10.47,10.47,0,0,1,1,4.77,10.4,10.4,0,0,1-1,4.79A7.8,7.8,0,0,1,35.14,17a7.51,7.51,0,0,1-4.06,1.12A7.74,7.74,0,0,1,27,17a7.62,7.62,0,0,1-2.84-3.17,10.6,10.6,0,0,1-1-4.8A10.54,10.54,0,0,1,24.17,4.27Zm1.91,8.47a5.55,5.55,0,0,0,2,2.51,5.15,5.15,0,0,0,3,.9,5.1,5.1,0,0,0,3-.9,5.68,5.68,0,0,0,2-2.51,9.1,9.1,0,0,0,.7-3.69,9.18,9.18,0,0,0-.7-3.72,5.65,5.65,0,0,0-2-2.5,5.53,5.53,0,0,0-6,0,5.65,5.65,0,0,0-2,2.5,9.18,9.18,0,0,0-.7,3.72A9.27,9.27,0,0,0,26.08,12.74Z"/><path class="cls-2" d="M55.06,17.86H52.44l-5.09-7.2H43.87v7.2H41.74V.29h5.4a7.44,7.44,0,0,1,3.2.65,5,5,0,0,1,2.18,1.83A4.85,4.85,0,0,1,53.3,5.5a4.67,4.67,0,0,1-1,3,5.47,5.47,0,0,1-2.71,1.82ZM43.87,2.16V8.78h3A4.71,4.71,0,0,0,50,7.88,3,3,0,0,0,51.05,5.5,3.06,3.06,0,0,0,50,3.08a4.66,4.66,0,0,0-3.11-.92Z"/><path class="cls-2" d="M62.93,7.78l7.73,10.08H67.92l-6.48-8.5-2.76,2.9v5.6H56.54V.29h2.14V9.62L67.27.29h2.79Z"/><path class="cls-2" d="M87,9.72H79.27V16h8.91v1.9h-11V.26H87.91v1.9H79.27V7.82H87Z"/><path class="cls-2" d="M104.09.29,97.87,9l6.38,8.91h-2.61l-5.09-7.18-5,7.18H89L95.42,9,89.21.29h2.64l4.89,7,4.88-7Z"/><path class="cls-2" d="M111.43.29a7.08,7.08,0,0,1,3.18.69,5.4,5.4,0,0,1,2.2,1.94,5.16,5.16,0,0,1,.79,2.82,5.2,5.2,0,0,1-.78,2.82,5.3,5.3,0,0,1-2.18,1.92,7.35,7.35,0,0,1-3.21.68h-3.26v6.7H106V.29Zm-.26,9a4.37,4.37,0,0,0,3.09-1,3.3,3.3,0,0,0,1.08-2.55,3.36,3.36,0,0,0-1.08-2.57,4.37,4.37,0,0,0-3.09-1h-3V9.29Z"/><path class="cls-2" d="M129.55,9.72h-7.73V16h8.91v1.9h-11V.26h10.77v1.9h-8.64V7.82h7.73Z"/><path class="cls-2" d="M146.71,17.86h-2.62L139,10.66h-3.48v7.2h-2.14V.29h5.4A7.48,7.48,0,0,1,142,.94a5.11,5.11,0,0,1,2.18,1.83A4.85,4.85,0,0,1,145,5.5a4.67,4.67,0,0,1-1,3,5.39,5.39,0,0,1-2.71,1.82ZM135.53,2.16V8.78h3a4.68,4.68,0,0,0,3.1-.9A2.93,2.93,0,0,0,142.7,5.5a3,3,0,0,0-1.07-2.42,4.63,4.63,0,0,0-3.1-.92Z"/><path class="cls-2" d="M150.33,17.86H148.2V.29h2.13Z"/><path class="cls-2" d="M163.77,9.72h-7.72V16H165v1.9h-11V.26h10.78v1.9h-8.64V7.82h7.72Z"/><path class="cls-2" d="M169.41.29,179.18,14V.29h2V17.86h-1.8L169.63,4.08V17.86h-2V.29Z"/><path class="cls-2" d="M196.05,13.49l1.73,1a5.73,5.73,0,0,1-2.3,2.66,6.73,6.73,0,0,1-3.6,1A7.44,7.44,0,0,1,187.82,17a8.12,8.12,0,0,1-2.88-3.22,10.2,10.2,0,0,1-1.05-4.7,10.27,10.27,0,0,1,1.05-4.71,8.07,8.07,0,0,1,2.88-3.2A7.52,7.52,0,0,1,191.88,0a6.73,6.73,0,0,1,3.6,1,5.73,5.73,0,0,1,2.3,2.66l-1.73,1A4.44,4.44,0,0,0,191.83,2a5.11,5.11,0,0,0-3,.89,5.73,5.73,0,0,0-2,2.49,9.15,9.15,0,0,0-.71,3.7,9.23,9.23,0,0,0,.71,3.71,5.7,5.7,0,0,0,2,2.5,5.11,5.11,0,0,0,3,.89A4.44,4.44,0,0,0,196.05,13.49Z"/><path class="cls-2" d="M209.66,9.72h-7.73V16h8.91v1.9h-11V.26h10.77v1.9h-8.64V7.82h7.73Z"/></g></g></svg>