<svg xmlns="http://www.w3.org/2000/svg" viewBox="0 0 368.83 104.36"><defs><style>.cls-1{fill:#5187f1;}.cls-2{fill:#353535;}</style></defs><g id="图层_2" data-name="图层 2"><g id="图层_1-2" data-name="图层 1"><path class="cls-1" d="M27.27,35.07A11.64,11.64,0,0,1,22.07,39a18.66,18.66,0,0,1-6.83,1.25,18.79,18.79,0,0,1-9.57-2.47,12,12,0,0,1-5.67-7l6.13-3.48a10.09,10.09,0,0,0,3.65,4.52,9.94,9.94,0,0,0,5.72,1.61,7.45,7.45,0,0,0,4.29-1.09,3.62,3.62,0,0,0,1.58-3.17,3.79,3.79,0,0,0-1.06-2.76,7.57,7.57,0,0,0-2.66-1.71c-1-.42-2.5-.9-4.34-1.46a46.1,46.1,0,0,1-6-2.16,10.52,10.52,0,0,1-4-3.19,8.89,8.89,0,0,1-1.67-5.62A10.1,10.1,0,0,1,3.56,6,11.82,11.82,0,0,1,8.71,2.11,18.43,18.43,0,0,1,15.6.83a15.67,15.67,0,0,1,8.63,2.29,10.32,10.32,0,0,1,4.63,6.19l-6.14,3.48A8.29,8.29,0,0,0,19.92,9a7.68,7.68,0,0,0-4.68-1.38A6.81,6.81,0,0,0,11.1,8.76a3.65,3.65,0,0,0-1.58,3.1,3.2,3.2,0,0,0,1,2.41A7.15,7.15,0,0,0,13,15.83c1,.4,2.4.86,4.13,1.38a47.33,47.33,0,0,1,6.19,2.21,11.28,11.28,0,0,1,4.18,3.33,9.11,9.11,0,0,1,1.75,5.8A10.4,10.4,0,0,1,27.27,35.07Z"/><path class="cls-1" d="M48.62,23.4,59.49,39.57H50.8L43.73,28.86l-4,4.47v6.24H32.45V0h7.23V24.54l10.24-11.9h8.37Z"/><path class="cls-1" d="M78.34,13.55A10.86,10.86,0,0,1,82.65,18a13.81,13.81,0,0,1,1.54,6.63A19.68,19.68,0,0,1,83.88,28H66a7.39,7.39,0,0,0,2.18,4.55,6.2,6.2,0,0,0,4.27,1.53,6.6,6.6,0,0,0,3.25-.8,5.43,5.43,0,0,0,2.21-2.42L83.2,34A8.32,8.32,0,0,1,79,38.58a14.62,14.62,0,0,1-6.89,1.62,14.47,14.47,0,0,1-6.76-1.62,12.24,12.24,0,0,1-5-4.83A15,15,0,0,1,58.45,26a14.56,14.56,0,0,1,1.9-7.64,12.52,12.52,0,0,1,5-4.79A14.18,14.18,0,0,1,72,12,12.63,12.63,0,0,1,78.34,13.55ZM68.12,19.19a6.84,6.84,0,0,0-2,3.79H76.8a5.77,5.77,0,0,0-1.58-3.82,4.8,4.8,0,0,0-3.46-1.32A5.26,5.26,0,0,0,68.12,19.19Z"/><path class="cls-1" d="M106.39,38Q103.74,40.2,99,40.2A10.44,10.44,0,0,1,92,37.88c-1.78-1.54-2.68-4.3-2.68-8.29V18.72H84.5V12.64h4.78V4.37h7.23v8.27h8.11v6.08H96.51v9.67a7.37,7.37,0,0,0,.94,4.11,3.34,3.34,0,0,0,3,1.4,6,6,0,0,0,3.43-1.09Z"/><path class="cls-1" d="M125,30.84l5.51,3.22a9.33,9.33,0,0,1-4.11,4.58A12.92,12.92,0,0,1,120,40.2a14.23,14.23,0,0,1-6.71-1.64,12.81,12.81,0,0,1-5-4.84,14.52,14.52,0,0,1-1.92-7.62,14.65,14.65,0,0,1,1.92-7.67,12.78,12.78,0,0,1,5-4.83A14.23,14.23,0,0,1,120,12a12.92,12.92,0,0,1,6.39,1.56,9.33,9.33,0,0,1,4.11,4.58L125,21.32a5.6,5.6,0,0,0-5-3,5.48,5.48,0,0,0-4.5,2.11,8.81,8.81,0,0,0-1.69,5.69,8.79,8.79,0,0,0,1.71,5.67A5.49,5.49,0,0,0,120,33.9,5.65,5.65,0,0,0,125,30.84Z"/><path class="cls-1" d="M155.19,14.9q2.63,2.94,2.63,8.55V39.57h-7.23V25.79q0-7.38-4.89-7.38a5.07,5.07,0,0,0-4.18,2,8.89,8.89,0,0,0-1.59,5.64V39.57H132.7V0h7.23V16.22Q142.52,12,148.15,12A9,9,0,0,1,155.19,14.9Z"/><path class="cls-1" d="M188.86,1.51a22.29,22.29,0,0,1,10.06,2.23,17,17,0,0,1,7.1,6.53,19.38,19.38,0,0,1,2.6,10.22A19.48,19.48,0,0,1,206,30.73,17.11,17.11,0,0,1,199,37.31a22,22,0,0,1-10.09,2.26H176.17V1.51ZM188,33.12q6.14,0,9.41-3.27t3.28-9.36q0-6-3.31-9.28T188,7.9h-4.27V33.12Z"/><path class="cls-1" d="M230.1,12.43a5.48,5.48,0,0,1,2.08,1.19l-2.81,5.57a5.21,5.21,0,0,0-3.07-.94,5.29,5.29,0,0,0-4.5,2.34A10.88,10.88,0,0,0,220.11,27V39.57h-7.22V12.64h6.34c.17,2.08.33,3.5.47,4.26a9,9,0,0,1,3.12-3.69A7.87,7.87,0,0,1,227.19,12,8.88,8.88,0,0,1,230.1,12.43Z"/><path class="cls-1" d="M251.73,15.05q3.08,3.11,3.07,8.82v15.7h-6.09c0-.28-.07-.73-.13-1.38a13.86,13.86,0,0,0-.23-1.69,7.52,7.52,0,0,1-3.09,2.79,10.7,10.7,0,0,1-4.61.91,12.88,12.88,0,0,1-5.12-1,8.44,8.44,0,0,1-3.66-2.89,7.48,7.48,0,0,1-1.36-4.5,7.52,7.52,0,0,1,1.54-4.7,9.89,9.89,0,0,1,4.13-3.1,14.8,14.8,0,0,1,5.72-1.09,18.91,18.91,0,0,1,5.77.94q-.15-6-5.09-6a6.06,6.06,0,0,0-5.77,3.53l-5.15-3a10.86,10.86,0,0,1,4.47-4.76A13.91,13.91,0,0,1,243.2,12Q248.66,12,251.73,15.05Zm-4.06,13.6a20,20,0,0,0-4.52-.62,7.19,7.19,0,0,0-4,.91,2.88,2.88,0,0,0-1.41,2.57,2.75,2.75,0,0,0,1.12,2.34,4.69,4.69,0,0,0,2.89.83,6.69,6.69,0,0,0,4.11-1.32,4.36,4.36,0,0,0,1.76-3.67Z"/><path class="cls-1" d="M280,12.64l5.61,16.79,5.31-16.79h7l-9.83,26.88h-5.15l-6.14-16.38-5.87,16.38h-5.2L255.53,12.64H263l5.67,17,5.31-17Z"/><path class="cls-1" d="M300.69,7.88a4.35,4.35,0,0,1-1.28-3.1,4.37,4.37,0,0,1,1.25-3.12,4.06,4.06,0,0,1,3-1.3,4.18,4.18,0,0,1,3.07,1.33,4.33,4.33,0,0,1,0,6.19,4.17,4.17,0,0,1-3.07,1.32A4,4,0,0,1,300.69,7.88Zm6.68,31.69h-7.23V12.64h7.23Z"/><path class="cls-1" d="M335.29,14.9c1.74,2,2.6,4.81,2.6,8.55V39.57h-7.22V25.79q0-7.38-4.89-7.38a5.09,5.09,0,0,0-4.19,2A8.88,8.88,0,0,0,320,26.05V39.57h-7.23V12.64h6.34c.17,2.11.33,3.55.47,4.31q2.6-5,8.63-5A9,9,0,0,1,335.29,14.9Z"/><path class="cls-1" d="M368.83,12.64V36.82q0,8.16-4.11,11.8a14.77,14.77,0,0,1-10.19,3.64,15.68,15.68,0,0,1-7.77-1.87,10.56,10.56,0,0,1-4.76-5.2L347.56,42q2,3.9,7,3.9,3.86,0,5.44-2.27c1-1.5,1.6-3.94,1.64-7.3a9,9,0,0,1-7.81,3.85,11.92,11.92,0,0,1-6.13-1.69,12.42,12.42,0,0,1-4.6-4.89,15.39,15.39,0,0,1-1.75-7.52,15.47,15.47,0,0,1,1.75-7.56,12.42,12.42,0,0,1,4.6-4.89A11.82,11.82,0,0,1,353.8,12a10,10,0,0,1,4.79,1.14,8.91,8.91,0,0,1,3.48,3.49,29.75,29.75,0,0,0,.42-3.95ZM359.73,32c1.25-1.32,1.88-3.29,1.88-5.93s-.63-4.53-1.88-5.79a6.16,6.16,0,0,0-4.57-1.9,5.77,5.77,0,0,0-4.61,2,8.42,8.42,0,0,0-1.74,5.66,8.88,8.88,0,0,0,1.74,5.78A5.67,5.67,0,0,0,355.16,34,6.05,6.05,0,0,0,359.73,32Z"/><path class="cls-2" d="M23.66,93.49q-2.09.36-6.24,1v8.94H11.7V95.36q-3.69.52-10,1.3l-.52-6c2.5-.24,6-.68,10.56-1.3V83.5H2.5V77.58q2-5.1,3.53-10.35H1.82V61.61H7.64l.26-1.14c.14-.52.31-1.17.5-1.95s.39-1.69.6-2.73l5.92.83-1.24,5h9.56v5.62H12.12q-1.83,5.88-3.38,10.4h3.64V69.88h5v7.75h5.93V83.5H17.42v5.1l6.29-1Zm17.84-3.2a33.54,33.54,0,0,0,8.68,8.35L46,104.1A37.5,37.5,0,0,1,34.63,89.8a39.4,39.4,0,0,1-11.44,14.45l-3.9-5a37,37,0,0,0,7.18-6.92,23,23,0,0,0,3.82-7.41A35.32,35.32,0,0,0,31.62,76c0-.72.05-2.34.05-4.83h5.82c0,2.36,0,3.9-.05,4.63a40.14,40.14,0,0,1-.26,4.31A26.39,26.39,0,0,0,41.5,90.29ZM21.06,74.51a70,70,0,0,0,7.49-18.93l5.66,1.09q-.57,2.34-1.66,5.88H49v5.87l-3.53,10.2-5.1-2.19,2.76-8H30.47A72.88,72.88,0,0,1,26,77.78Z"/><path class="cls-2" d="M68.12,57.56a86.4,86.4,0,0,1-4,11.44v34.84H57.93V80.54c-1.15,1.73-2.5,3.59-4.06,5.56l-2.44-8.21a55.17,55.17,0,0,0,5.85-10,77.33,77.33,0,0,0,4.5-12Zm32.29,24.9v6H88.14V104H81.48V88.5h-15v-6h15V72.32H74.72q-1.35,4.17-2.8,7.65l-6.35-2.24a99.55,99.55,0,0,0,3.62-9.33q1.68-5.07,2.73-9.75L78,60.05c-.35,1.67-.83,3.71-1.46,6.14h4.94V55.58h6.66V66.19H99.06v6.13H88.14V82.46Z"/><path class="cls-2" d="M148,81.79a55.62,55.62,0,0,1-9.2-5.77v27.66h-6.55V75.6h6A48.28,48.28,0,0,1,127,63.22a61.86,61.86,0,0,1-21,18.52l-3.75-6.14a59.52,59.52,0,0,0,13.47-9.07,40.41,40.41,0,0,0,8.74-11.47h4.89a45.64,45.64,0,0,0,9.17,11.83,53.68,53.68,0,0,0,13,8.55ZM115.18,75.7h6.55v5.78a39.61,39.61,0,0,1-.94,9.43,18.54,18.54,0,0,1-3.35,6.92,35.09,35.09,0,0,1-7,6.53l-4.32-5.2a45.61,45.61,0,0,0,5.72-5.49,13.22,13.22,0,0,0,2.6-4.86,25.55,25.55,0,0,0,.73-6.76Z"/><path class="cls-2" d="M153.61,96q2.13-.42,8.42-2T172,91.51l.52,6.35-7.59,1.92-5.48,1.4c-1.89.49-3.57.9-5,1.25Zm2.44-18.78a9,9,0,0,1-1.09.26l-1.25-5.92a4.85,4.85,0,0,0,1.07-.65,4.64,4.64,0,0,0,.8-1c.7-1,1.82-3.07,3.38-6.11s2.88-5.79,4-8.29l5.4,2.34c-1,2.15-2.3,4.58-3.79,7.31s-2.71,4.77-3.64,6.16l4.63-1.15q1.81-3.06,3.22-5.77l5.15,2.5q-2,3.9-5.38,9.41c-2.28,3.68-3.91,6.17-4.92,7.49l4.42-1.3c1.77-.49,2.93-.82,3.49-1l.05,6q-5.56,1-12.07,2.6l-3.17.83L154.6,84.7a5.31,5.31,0,0,0,3-2c.87-1.11,2.37-3.34,4.52-6.71l-3.38.68-1.14.26C157.32,77,156.81,77.09,156.05,77.26Zm17.06-19.18H200q0,2.81-.36,6.78c-.21,2.65-.45,4.92-.73,6.79a16.69,16.69,0,0,1-1.14,4.42,4.55,4.55,0,0,1-2.06,2.23,8.4,8.4,0,0,1-3.61.73c-2.15,0-4.08-.07-5.77-.21l-1.2-6a39.38,39.38,0,0,0,4.78.42,2.79,2.79,0,0,0,2.11-.68,5.65,5.65,0,0,0,1-2.8,40.52,40.52,0,0,0,.63-5.62h-8.74l-.26,1.61a21.67,21.67,0,0,1-3.09,8.35A26,26,0,0,1,174.3,81l-4-4.84a36,36,0,0,0,4.84-3.48,10.84,10.84,0,0,0,2.52-3.31A18.76,18.76,0,0,0,179,64.68l.1-.52h-6Zm6.76,45.65H174.2V81.58h24.7v22.15h-5.72v-2.29H179.87Zm13.31-8.16V87.35H179.87v8.22Z"/></g></g></svg>