<svg xmlns="http://www.w3.org/2000/svg" viewBox="0 0 368.83 104.46"><defs><style>.cls-1{fill:#5187f1;}.cls-2{fill:#353535;}</style></defs><g id="图层_2" data-name="图层 2"><g id="图层_1-2" data-name="图层 1"><path class="cls-1" d="M27.27,35.07A11.64,11.64,0,0,1,22.07,39a18.66,18.66,0,0,1-6.83,1.25,18.79,18.79,0,0,1-9.57-2.47,12,12,0,0,1-5.67-7l6.14-3.48a10,10,0,0,0,3.64,4.52,9.94,9.94,0,0,0,5.72,1.61,7.45,7.45,0,0,0,4.29-1.09,3.62,3.62,0,0,0,1.58-3.17,3.79,3.79,0,0,0-1.06-2.76,7.48,7.48,0,0,0-2.66-1.71c-1-.42-2.5-.9-4.34-1.46a46.1,46.1,0,0,1-6-2.16,10.52,10.52,0,0,1-4-3.19,8.89,8.89,0,0,1-1.67-5.62A10.1,10.1,0,0,1,3.56,6,11.82,11.82,0,0,1,8.71,2.11,18.43,18.43,0,0,1,15.6.83a15.67,15.67,0,0,1,8.63,2.29,10.32,10.32,0,0,1,4.63,6.19l-6.14,3.48A8.29,8.29,0,0,0,19.92,9a7.68,7.68,0,0,0-4.68-1.38A6.81,6.81,0,0,0,11.1,8.76a3.65,3.65,0,0,0-1.58,3.1,3.24,3.24,0,0,0,1,2.41A7.15,7.15,0,0,0,13,15.83c1,.4,2.4.86,4.13,1.38a47.33,47.33,0,0,1,6.19,2.21,11.28,11.28,0,0,1,4.18,3.33,9.05,9.05,0,0,1,1.75,5.8A10.4,10.4,0,0,1,27.27,35.07Z"/><path class="cls-1" d="M48.62,23.4,59.49,39.57H50.8L43.73,28.86l-4,4.47v6.24H32.45V0h7.23V24.54l10.24-11.9h8.37Z"/><path class="cls-1" d="M78.34,13.55A10.86,10.86,0,0,1,82.65,18a13.81,13.81,0,0,1,1.54,6.63A19.68,19.68,0,0,1,83.88,28H66a7.39,7.39,0,0,0,2.18,4.55,6.2,6.2,0,0,0,4.27,1.53,6.6,6.6,0,0,0,3.25-.8,5.43,5.43,0,0,0,2.21-2.42L83.2,34A8.32,8.32,0,0,1,79,38.58a14.62,14.62,0,0,1-6.89,1.62,14.47,14.47,0,0,1-6.76-1.62,12.24,12.24,0,0,1-5-4.83A15,15,0,0,1,58.45,26a14.56,14.56,0,0,1,1.9-7.64,12.52,12.52,0,0,1,5-4.79A14.18,14.18,0,0,1,72,12,12.63,12.63,0,0,1,78.34,13.55ZM68.12,19.19a6.84,6.84,0,0,0-2,3.79H76.8a5.72,5.72,0,0,0-1.58-3.82,4.8,4.8,0,0,0-3.46-1.32A5.26,5.26,0,0,0,68.12,19.19Z"/><path class="cls-1" d="M106.39,38Q103.74,40.2,99,40.2A10.44,10.44,0,0,1,92,37.88c-1.78-1.54-2.68-4.3-2.68-8.29V18.72H84.5V12.64h4.78V4.37h7.23v8.27h8.11v6.08H96.51v9.67a7.37,7.37,0,0,0,.94,4.11,3.34,3.34,0,0,0,3,1.4,6,6,0,0,0,3.44-1.09Z"/><path class="cls-1" d="M125,30.84l5.51,3.22a9.33,9.33,0,0,1-4.11,4.58A12.92,12.92,0,0,1,120,40.2a14.23,14.23,0,0,1-6.71-1.64,12.81,12.81,0,0,1-5-4.84,14.52,14.52,0,0,1-1.92-7.62,14.65,14.65,0,0,1,1.92-7.67,12.78,12.78,0,0,1,5-4.83A14.23,14.23,0,0,1,120,12a12.92,12.92,0,0,1,6.39,1.56,9.33,9.33,0,0,1,4.11,4.58L125,21.32a5.6,5.6,0,0,0-5-3,5.48,5.48,0,0,0-4.5,2.11,8.81,8.81,0,0,0-1.69,5.69,8.79,8.79,0,0,0,1.71,5.67A5.49,5.49,0,0,0,120,33.9,5.65,5.65,0,0,0,125,30.84Z"/><path class="cls-1" d="M155.19,14.9q2.63,2.94,2.63,8.55V39.57h-7.23V25.79q0-7.38-4.89-7.38a5.07,5.07,0,0,0-4.18,2,8.89,8.89,0,0,0-1.59,5.64V39.57H132.7V0h7.23V16.22Q142.52,12,148.15,12A9,9,0,0,1,155.19,14.9Z"/><path class="cls-1" d="M188.86,1.51a22.26,22.26,0,0,1,10.06,2.23,17,17,0,0,1,7.1,6.53,19.29,19.29,0,0,1,2.6,10.22A19.39,19.39,0,0,1,206,30.73,17.11,17.11,0,0,1,199,37.31a22,22,0,0,1-10.09,2.26H176.17V1.51ZM188,33.12q6.14,0,9.41-3.27t3.28-9.36q0-6-3.31-9.28T188,7.9h-4.27V33.12Z"/><path class="cls-1" d="M230.1,12.43a5.48,5.48,0,0,1,2.08,1.19l-2.81,5.57a5.21,5.21,0,0,0-3.07-.94,5.29,5.29,0,0,0-4.5,2.34A10.88,10.88,0,0,0,220.11,27V39.57h-7.22V12.64h6.34c.17,2.08.33,3.5.47,4.26a9,9,0,0,1,3.12-3.69A7.87,7.87,0,0,1,227.19,12,8.88,8.88,0,0,1,230.1,12.43Z"/><path class="cls-1" d="M251.73,15.05q3.08,3.11,3.07,8.82v15.7h-6.09c0-.28-.07-.73-.13-1.38a12.14,12.14,0,0,0-.23-1.69,7.52,7.52,0,0,1-3.09,2.79,10.7,10.7,0,0,1-4.61.91,12.88,12.88,0,0,1-5.12-1,8.44,8.44,0,0,1-3.66-2.89,7.48,7.48,0,0,1-1.36-4.5,7.52,7.52,0,0,1,1.54-4.7,9.89,9.89,0,0,1,4.13-3.1,14.8,14.8,0,0,1,5.72-1.09,18.91,18.91,0,0,1,5.77.94q-.15-6-5.09-6a6.06,6.06,0,0,0-5.77,3.53l-5.15-3a10.86,10.86,0,0,1,4.47-4.76A13.91,13.91,0,0,1,243.2,12Q248.66,12,251.73,15.05Zm-4.06,13.6a20,20,0,0,0-4.52-.62,7.19,7.19,0,0,0-4,.91,2.88,2.88,0,0,0-1.41,2.57,2.75,2.75,0,0,0,1.12,2.34,4.69,4.69,0,0,0,2.89.83,6.69,6.69,0,0,0,4.11-1.32,4.36,4.36,0,0,0,1.76-3.67Z"/><path class="cls-1" d="M280,12.64l5.61,16.79,5.31-16.79h7l-9.83,26.88h-5.15l-6.14-16.38-5.87,16.38h-5.2L255.53,12.64H263l5.67,17,5.31-17Z"/><path class="cls-1" d="M300.69,7.88a4.35,4.35,0,0,1-1.28-3.1,4.37,4.37,0,0,1,1.25-3.12,4.06,4.06,0,0,1,3-1.3,4.18,4.18,0,0,1,3.07,1.33,4.33,4.33,0,0,1,0,6.19,4.17,4.17,0,0,1-3.07,1.32A4,4,0,0,1,300.69,7.88Zm6.68,31.69h-7.23V12.64h7.23Z"/><path class="cls-1" d="M335.29,14.9c1.74,2,2.6,4.81,2.6,8.55V39.57h-7.22V25.79q0-7.38-4.89-7.38a5.09,5.09,0,0,0-4.19,2A8.88,8.88,0,0,0,320,26.05V39.57h-7.23V12.64h6.34c.17,2.11.33,3.55.47,4.31q2.6-5,8.63-5A9,9,0,0,1,335.29,14.9Z"/><path class="cls-1" d="M368.83,12.64V36.82q0,8.16-4.1,11.8a14.81,14.81,0,0,1-10.2,3.64,15.68,15.68,0,0,1-7.77-1.87,10.56,10.56,0,0,1-4.76-5.2L347.57,42q2,3.9,7,3.9,3.86,0,5.44-2.27c1-1.5,1.6-3.94,1.64-7.3a9,9,0,0,1-7.81,3.85,11.92,11.92,0,0,1-6.13-1.69,12.42,12.42,0,0,1-4.6-4.89,15.5,15.5,0,0,1-1.74-7.52,15.58,15.58,0,0,1,1.74-7.56,12.42,12.42,0,0,1,4.6-4.89A11.82,11.82,0,0,1,353.8,12a10,10,0,0,1,4.79,1.14,8.91,8.91,0,0,1,3.48,3.49,26.74,26.74,0,0,0,.42-3.95ZM359.73,32c1.25-1.32,1.88-3.29,1.88-5.93s-.63-4.53-1.88-5.79a6.14,6.14,0,0,0-4.57-1.9,5.77,5.77,0,0,0-4.61,2,8.42,8.42,0,0,0-1.74,5.66,8.88,8.88,0,0,0,1.74,5.78A5.67,5.67,0,0,0,355.16,34,6,6,0,0,0,359.73,32Z"/><path class="cls-2" d="M23.66,93.49q-2.09.36-6.24,1v8.94H11.7V95.36q-3.69.52-10,1.3l-.52-6c2.5-.24,6-.68,10.56-1.3V83.5H2.5V77.58q2-5.1,3.53-10.35H1.82V61.61H7.64l.26-1.14c.14-.52.31-1.17.5-1.95s.39-1.69.6-2.73l5.92.83-1.24,5h9.56v5.62H12.12q-1.83,5.88-3.38,10.4h3.64V69.88h5v7.75h5.93V83.5H17.42v5.1l6.29-1Zm17.84-3.2a33.54,33.54,0,0,0,8.68,8.35L46,104.1A37.5,37.5,0,0,1,34.63,89.8a39.4,39.4,0,0,1-11.44,14.45l-3.9-5a37,37,0,0,0,7.18-6.92,23,23,0,0,0,3.82-7.41A35.32,35.32,0,0,0,31.62,76c0-.72.05-2.34.05-4.83h5.82c0,2.36,0,3.9-.05,4.63a40.14,40.14,0,0,1-.26,4.31A26.39,26.39,0,0,0,41.5,90.29ZM21.06,74.51a70,70,0,0,0,7.49-18.93l5.67,1.09c-.39,1.56-.94,3.52-1.67,5.88H49v5.87l-3.53,10.2-5.1-2.19,2.76-8H30.47A72.88,72.88,0,0,1,26,77.78Z"/><path class="cls-2" d="M68.12,57.56a85,85,0,0,1-4,11.44v34.84H57.93V80.54c-1.15,1.73-2.5,3.59-4.06,5.56l-2.44-8.21a55.17,55.17,0,0,0,5.85-10,77.33,77.33,0,0,0,4.5-12Zm32.29,24.9v6H88.14V104H81.48V88.5h-15v-6h15V72.32H74.72q-1.35,4.17-2.8,7.65l-6.35-2.24a99.55,99.55,0,0,0,3.62-9.33q1.68-5.07,2.73-9.75L78,60.05c-.35,1.67-.83,3.71-1.46,6.14h4.94V55.58h6.66V66.19H99.06v6.13H88.14V82.46Z"/><path class="cls-2" d="M119.13,87.25q-1.5-1.52-4.11-3.85v20.23H109.2v-18q-2,2.19-4.37,4.37l-2.65-6.29a39.77,39.77,0,0,0,6.53-6.73,56.53,56.53,0,0,0,5-8h-10V62.86h6.34q-.51-1.56-2.18-6l5.72-1.56.62,1.66,2.08,5.93h3.8v6.08a63.83,63.83,0,0,1-4.21,7.86l1.61,1.3q3.9,3.12,5,4.05V57.24h25.64V87.61h-5.88V63.22H128.39v24.5h-5.88V82.93Zm32.24,4.26-.31,5.62a9.82,9.82,0,0,1-.7,3.69,3.47,3.47,0,0,1-2,1.77,13.82,13.82,0,0,1-3.9.67c-1.11.07-2,.11-2.55.11s-1.42,0-2.6-.11c-2.05-.1-3.5-.59-4.37-1.48s-1.3-2.43-1.3-4.65V93.18A29.52,29.52,0,0,1,128.62,99a55.47,55.47,0,0,1-7.51,5.51l-4-5.25a43.22,43.22,0,0,0,9-6.37,17.13,17.13,0,0,0,4.27-6.74A38.3,38.3,0,0,0,132,76.22c.1-2,.15-5.32.15-10h6.09l-.06,5-.1,5.31a41.9,41.9,0,0,1-.78,7.74h2.34V94.79a4.24,4.24,0,0,0,.31,2,1.71,1.71,0,0,0,1.3.57l1.35,0a10,10,0,0,0,2-.13,1.12,1.12,0,0,0,.78-.62,5.28,5.28,0,0,0,.28-1.8c0-1,0-2.53,0-4.68Z"/><path class="cls-2" d="M162.86,81.79a47.58,47.58,0,0,1-2.18,5.59c-1,2.23-2.05,4.29-3.12,6.16l-4.68-2.34A51.64,51.64,0,0,0,158,79.86Zm14.93,1.35a35,35,0,0,1-7.67,12.48,43.54,43.54,0,0,1-12.82,8.48l-3.64-5.26a80.87,80.87,0,0,0,8.45-4.44,24.48,24.48,0,0,0,5.33-4.4h-3.38V77.58h-10.5V72h2.8V59.69h5.36V72h2.91V55.74H170v6.13h5.51v5.57H170V72h6.29v5.62h-6.65v9.51a39.19,39.19,0,0,0,3.06-6.34Zm20.75,21.06q-2.19-2.19-9.68-8.84a20,20,0,0,1-4.7,4.71,43.51,43.51,0,0,1-7.46,4.23l-3.18-5.51a39.72,39.72,0,0,0,8.12-4.47A11.58,11.58,0,0,0,185.35,90a13.2,13.2,0,0,0,1-5.3V75.08h5.46v9.78a23.18,23.18,0,0,1-.52,5.14l3.43,2.76c1.32,1.11,2.64,2.2,4,3.28s2.55,2.08,3.66,3ZM184.76,67l.93-3.74h-8.94V57.61h24.59v5.67h-9.72l-.36,1.45L190.63,67H200V91.46h-5.56V72.74H183.51V91.46h-5.57V67Z"/><path class="cls-2" d="M213.2,81.06q-1.77-1.71-4.63-4.08t-4.68-3.72l3.8-4.73q1.92,1.35,4.81,3.61t4.55,3.72Zm3.33,3.85q-2.4,9.41-5.67,18.72l-6.29-1.77q3.23-8.62,6-18.67Zm23.4,9.51c.38.14.79.28,1.25.42s.93.31,1.45.52q7.55,2.49,10.19,3.64l-1.66,5.36c-1.94-.84-4.32-1.79-7.12-2.86s-5.14-1.93-7-2.55l1.61-4.53h-8.32l1.87,4.27a125.24,125.24,0,0,1-14.56,5.56l-2-5.3a115.37,115.37,0,0,0,13.63-4.53h-9.41V75.08h11.9V72.84h-8.42V70.92h-5.88V63.85l-3.32,4.57q-1.56-1.56-4-3.58c-1.59-1.36-2.93-2.43-4-3.23l3.48-4.78q1.56,1,3.77,2.75t4,3.33V60.26h13.63a28.33,28.33,0,0,0-1.51-3.85l6.45-1.3q.83,1.88,2,5.15h14.1V70.92h-5.88V65.36H223.34V68h22.83v4.88h-8.79v2.24h12V94.42Zm-8.17-11.64v-3h-6.18v3Zm0,4h-6.18v2.76h6.18Zm11.86-4v-3h-6.24v3Zm-6.24,6.81h6.24V86.83h-6.24Z"/><path class="cls-2" d="M271.13,83.5A77.69,77.69,0,0,1,266,92.42a67,67,0,0,1-6,7.93l-5.51-4.21a71.41,71.41,0,0,0,6-7.54,57.56,57.56,0,0,0,4.89-8.11Zm31.2-5.61H282.88V96.4a10,10,0,0,1-.81,4.45,4.49,4.49,0,0,1-2.62,2.23,15.8,15.8,0,0,1-5.15.65,48.33,48.33,0,0,1-5.51-.31l-1.35-6.5a43.92,43.92,0,0,0,6,.42,2.76,2.76,0,0,0,2.23-.68,4.77,4.77,0,0,0,.52-2.7V77.89H255.74V71.65h46.59ZM260.26,58.08H297.8v6.24H260.26ZM292.4,80.44q2.13,2.7,5.53,7.56t5.65,8.35l-5.67,4.05q-2-3.48-5.41-8.58T287,83.92Z"/></g></g></svg>