<svg xmlns="http://www.w3.org/2000/svg" viewBox="0 0 262.89 142.28"><g id="图层_2" data-name="图层 2"><g id="图层_1-2" data-name="图层 1"><path d="M26.79,40.66,22.71,44.2a56.75,56.75,0,0,0-5.1-6.73V64.26H9.86V40.6q-3,3-6.32,5.84L0,38.42a59.65,59.65,0,0,0,8.57-8.23,45.83,45.83,0,0,0,5.51-8.84H2V14H10.4Q9.18,7.49,7.55,1.77l8-1.23c1.09,4.36,2,8.84,2.86,13.47h4.49v6.87a84.33,84.33,0,0,1-5.24,9.92v2.86l3.33-2.45q2.79,2.86,5.85,6.6V3.26H59.84V42.09h-8V11.22H34.75V42.7h-8Zm18.84-2.17h4v14a2.74,2.74,0,0,0,.82,2.24,3.52,3.52,0,0,0,2.31.68h.41a4.69,4.69,0,0,0,2.31-.68,3.74,3.74,0,0,0,1.15-2.31q.69-4,1-7.21l6.93,3q-.75,5.45-1.15,7.62a8.94,8.94,0,0,1-3,5.17,13,13,0,0,1-6.18,1.9A14.4,14.4,0,0,1,51,63q-4.48-.4-6.53-2.45c-1.54-1.5-2.31-3.76-2.31-6.8V47.94Q37.41,56.45,25.3,64.67l-5.58-6.6q11.09-6.8,15.1-13.39T39.1,27q.27-9.26.27-11.9h7.89c0,3.94-.11,7.79-.2,11.56A62.1,62.1,0,0,1,45.63,38.49Z"/><path d="M87.79,42.09a54.27,54.27,0,0,0,4.42-8.36l6.19,3.53q-5.1,11-11.29,16.87T69.56,64.33l-3.67-7.14Q77,53.38,82.48,48.48a23.28,23.28,0,0,0,3.06-3.26h-5V30.87h7.21ZM72.56,33.18l6.52,2.25a114.39,114.39,0,0,1-6,14.89L66.64,47A75.5,75.5,0,0,0,72.56,33.18ZM88.94,21.49h7.89V28.7H66.91V21.49h3.74V5.58h7V21.49h4.21V.48h7.07v8h6.94V15.3H88.94Zm27,24.61q9.45,6.87,14.82,11.5l-5,6.52q-6.26-5.7-12.65-10.88c-.13.23-.27.46-.41.68q-4,5.79-14.89,11.16L93,58.14q9.51-3.68,13.12-8t3.6-12.44c.09-3.72.14-7.5.14-11.36h7.28q0,2.86-.14,11.29A37.43,37.43,0,0,1,115.94,46.1Zm1.16-36c-.46,2-.93,4-1.43,6H128v32h-7.21V23.26H106.15V48.14h-7v-32h8.23q1-3.94,1.36-6H97.58V2.86H130v7.27Z"/><path d="M132.74,25.77l4.69-6.46q7.41,3.75,11.83,6.26L144.7,32.5Q138.72,29.17,132.74,25.77ZM149.87,9.45l-4.55,6.67q-3-1.85-11.63-6.87l5-6.26Q144.9,6.32,149.87,9.45Zm-16,51Q138,49.1,141.37,36.52l7.55,3.19q-3.6,13.67-7,24.14ZM166.06,52,170,57.6a198.25,198.25,0,0,1-18.84,7.07l-3.67-6.6A145.15,145.15,0,0,0,166.06,52Zm22.1-31.75v2.51H176.39v3.54h16.25V51.82H152.25V26.25H168.5V22.71H156.94V20.2h-7.07V6.26H168A37.16,37.16,0,0,0,165.78,1L175,0a37.11,37.11,0,0,1,2.38,6.26H195.3V20.2Zm-.55-3.68V13.06H157.42v3.46ZM168.5,36.38v-4h-8.56v4Zm0,9.45v-4h-8.56v4Zm6.4,11.7L178.84,52q9.66,2.71,17.54,5.78l-3.06,6.8Q185,60.93,174.9,57.53ZM185,36.38v-4h-8.64v4Zm0,9.45v-4h-8.64v4Z"/><path d="M213.66,34.34l7.48,4.15A136.92,136.92,0,0,1,206.52,59.3l-7.08-5A100.29,100.29,0,0,0,213.66,34.34Zm23-3.81v22q0,5.52-2.24,8t-7.35,2.79a62.75,62.75,0,0,1-9.31,0L215.9,54.4q5,.27,7.62.27a4.67,4.67,0,0,0,3.12-.88,5,5,0,0,0,.89-3.2V30.53h-27V22.17h61.75v8.36ZM207.06,4.35h48.82v8.43H207.06ZM240.65,39l7-4.49a235.34,235.34,0,0,1,14.89,18.64l-7.07,5.71A194.28,194.28,0,0,0,240.65,39Z"/><path d="M21.28,128.88v13.19h-8V130c-3.86.54-7.75,1-11.7,1.43L.54,123.71q8.58-.81,12.79-1.29v-7.48H2v-6.87q2.38-6.52,4.9-14.34H1.09V86.58H9q1.69-6.8,2.1-8.36l8.1,1c-.68,2.45-1.39,4.9-2.11,7.34H27.68v7.15H14.82q-1.56,4.68-4.69,13.94h4.56V97.4h6.59v10.27h5.44v7.27H21.28v6.53q3.75-.61,6.12-1l.28,7.34Q24.89,128.26,21.28,128.88ZM52.5,97.67q7.14,3.94,12.17,7l-4.29,6.8q-6.18-4-13.8-8.43a66.37,66.37,0,0,1-15.91,8.5l-4.15-7.14a58.47,58.47,0,0,0,13.8-6.66,36.74,36.74,0,0,0,8.44-8.3H30V81.89H58.68v7.42A91.54,91.54,0,0,1,52.5,97.67Zm-3.13,34.41H64.06v7.68H26.59v-7.68H40.87v-11H29.72v-7.68H61v7.68H49.37Z"/><path d="M83.84,113.85v28.29h-8v-29A73.47,73.47,0,0,1,69,127.45l-3.19-9.58a64.49,64.49,0,0,0,9-19.32H67.73V90.87h8.09V78.49h8V90.87h7.35v7.68H83.84v8.71l2.45-1.64q4.21,5,7.48,9.73l-5.71,4.83Q85.75,116.51,83.84,113.85ZM99.55,80.4l8,2a82.52,82.52,0,0,1-12.45,29.78l-6.39-5.71A70,70,0,0,0,99.55,80.4Zm20.61,57.25q-10.95,1.29-26.86,2.59l-3.54-7.69A16.25,16.25,0,0,0,95,126.71a167.32,167.32,0,0,0,10-23.53l8.57,2.92a259.56,259.56,0,0,1-12.17,25.57q7.14-.54,15.43-1.43c-1.76-3.62-3.56-7.28-5.37-11l7.35-2.72q6.45,12.18,10.94,22l-7.61,3.74Q120.71,138.88,120.16,137.65ZM110.7,80.81,118.52,79a56.19,56.19,0,0,0,12.86,25.91l-5.58,7.27a76,76,0,0,1-9.45-14.82A78.88,78.88,0,0,1,110.7,80.81Z"/><path d="M167.08,130.38h29v8.7H133.69v-8.7h23.73V78.56h9.66V97.74H190.6v8.57H167.08Z"/><path d="M237,122.83v7.62c0,3.58-.81,6.25-2.45,8s-4.17,2.65-7.75,2.92-7.23.12-10.68-.06l-1.9-8.91a83.16,83.16,0,0,0,8.71.47,5.29,5.29,0,0,0,3.73-1.22,6,6,0,0,0,1.16-4.08v-4.76H199.58v-8H227.8v-8.23H205.36v-8H227.8V90.46q-13.61.62-22,.82l-1.7-8.09q30.8-.42,51.61-2.79l2.45,8Q244.87,89.44,237,90v8.56h20.13v8H237v8.23h25.91v8Z"/></g></g></svg>