<svg xmlns="http://www.w3.org/2000/svg" viewBox="0 0 543.51 134.68"><defs><style>.cls-1{fill:#3a3a3a;}.cls-2{fill:#f7f7f7;}</style></defs><g id="图层_2" data-name="图层 2"><g id="图层_1-2" data-name="图层 1"><path class="cls-1" d="M168.23,67.57a115.24,115.24,0,0,1,4.41-11.27L181,59.09a97.5,97.5,0,0,0-4.61,11.61Zm4.6-31H184.3V25.78h9.06V27h17.93v8.13H193.36v1.47h15.72V56.05H172.83Zm8.92,30.61-.2-2.74c-.16-1.5-.31-3-.44-4.46L181,58.5l8.91-1.12.69,6.36.19,2.06c.13,1.73.2,3,.2,3.68l-8.92.68Zm17.14-19.05V44.69H183v3.43Zm-6.66,18.56L192,64.43l-.15-2.3c-.16-2-.28-3.32-.34-4l8.81-.78.25,2.64.34,3.09q.3,2.55.54,6.22l-9.06.64C192.43,69.48,192.36,68.38,192.23,66.68Zm8.53-7.78,8.67-2.8a79.54,79.54,0,0,1,4.06,11.07l-8.87,2.94Q203.11,65.26,200.76,58.9Z"/><path class="cls-1" d="M250,68.69H218.29v-17h9.94v7.59h5.69V49.78H216.38v-9h17.54V37.93H219.71V29h14.21V25.64h9.4V29h14.21v9H243.32v2.84h17.54v9H243.32v9.46h6.17V51.65h9.95V70.11H250Z"/><path class="cls-1" d="M288.34,68.25l-6,1.72a10.52,10.52,0,0,1-.34-1.33l-.59-2.1c-1.14.29-2.58.62-4.31,1a98.78,98.78,0,0,1-11.31,1.86l-1.47-9a1.61,1.61,0,0,0,1.27-.4,1.29,1.29,0,0,0,.27-.49,1.81,1.81,0,0,0,.12-.58V25.73h21.26v26.7h-13v6.66a20.06,20.06,0,0,0,4.26-.88l-1-2.69L285.1,53q1.27,3.09,2.6,6.81l.64,1.91v-36h20.13q0,27.53-.2,33.75a6.38,6.38,0,0,1-.76,3,6.53,6.53,0,0,1-2.08,2.4,4.9,4.9,0,0,1-2.89.93l-3.67.2-2.45-7.79v12h-8.08Zm-8.72-32.82V33.72h-5.44v1.71Zm0,9.8v-2.4h-5.44v2.4Zm19.67,10.85a2.61,2.61,0,0,0,.26-1.25l.2-21.26h-3.33V56.74a2.84,2.84,0,0,0,2.06.1A2.13,2.13,0,0,0,299.29,56.08Z"/><path class="cls-1" d="M311.51,52.18A17.34,17.34,0,0,0,315.87,51a20,20,0,0,0,4.4-2.42l-6.75.49-.79-7.59a12.76,12.76,0,0,0,1.42-.1,5.7,5.7,0,0,0,1.18-.25,2.77,2.77,0,0,0,.61-.58,2.49,2.49,0,0,0,.46-.74l1.28-2.35h-5.54V29.36h9.26c-.16-.88-.32-1.64-.46-2.28a4.92,4.92,0,0,0-.47-1.35l9.36-.88c.09.26.26.78.49,1.55a18.26,18.26,0,0,1,.53,2.52l.1.44h8.48v8.13h-7.84l4.11,2a50.58,50.58,0,0,1-3.55,7.49,23.14,23.14,0,0,1-4.63,6,33.27,33.27,0,0,1-5.6,4,29.17,29.17,0,0,1-4.61,2.13,10.7,10.7,0,0,1-2.37.64Zm.05,10.63A50.49,50.49,0,0,0,316.4,61a57.48,57.48,0,0,0,6.74-3.33,20.73,20.73,0,0,0,5.36-4.19,41.71,41.71,0,0,0,4.68-5.95,25.1,25.1,0,0,0,2.72-5.07l4.46,2.84V29.65h7.39V59.58h-7.39v-9.5a60.58,60.58,0,0,1-4.85,8.13q1.56,1.17,3.57,2.94c1.08,1,2,1.73,2.65,2.25l-6.27,7.25-1.76-1.86c-1.18-1.24-2.22-2.3-3.14-3.18l-1.13-1a31.38,31.38,0,0,1-7,3.82c-2.4.91-4.72,1.68-6.94,2.3Zm15.62-22.19c.65-1.14,1.19-2.18,1.62-3.13h-2.65l-1.81,3.28ZM343.2,62l1.17.05a6.53,6.53,0,0,0,2.11-.05,2.53,2.53,0,0,0,1.79-.86,2.75,2.75,0,0,0,.66-1.88V25.78h7.84V63.11a7.88,7.88,0,0,1-.74,3.38,6.8,6.8,0,0,1-2,2.52,4.19,4.19,0,0,1-2.64,1h-6.52Z"/><path class="cls-1" d="M373,35.82H359.85V25.39h43.94V35.82H383.85V69.28H373ZM389.86,51a37.38,37.38,0,0,0-5.07-7l8.91-5.2a52.89,52.89,0,0,1,5.56,7.45A69,69,0,0,1,403.94,55l-9.55,5A81.85,81.85,0,0,0,389.86,51Z"/><path class="cls-1" d="M421,67.81q-12.19.64-12.19.29l-.39-6.8c.94,0,2.81.06,5.6.09s5.12,0,7,0V59.78H410.35V54.73L411.87,51H409V44.69h5.49l.59-1.47h-7.59V35.43H417.8V34.06h-8.28V27.89h8.28V25.83h8.47v2.06h6.52v6.17h-6.52v1.37h7.6q-.19-7-.2-9.75H442v2.11l5.58-1.62a24.5,24.5,0,0,1,1.67,4.27l.49,1.81.44,1.71-5.73,1.47q-.54-1.66-1.23-4.11C442.7,30,442.29,29,442,28.23q0,3.78.15,7.2h8.71v7.79h-8.37l.24,2.74c0,1,.12,2.24.25,3.68a35.33,35.33,0,0,0,2.2-5l6.66,2.74q-.24.65-1,2.67t-2.25,4.83a34,34,0,0,1-3.46,5.34c.23.52.46.8.69.83,1,.13,2-.73,2.84-2.6l2.84,7.94q-2.94,3.53-6.07,3.72a7.94,7.94,0,0,1-2-.22,7.08,7.08,0,0,1-1.81-.76,8.74,8.74,0,0,1-2.5-2.4l-2.79,2.79-2.5-2.84-4.46.44v3.38H421Zm12.3-7.25c1-.69,1.81-1.37,2.6-2.06A91,91,0,0,1,434.41,47l-.2-3.82H422.7l-.54,1.47h11.17V51H420l-1,2.89h2V51.7h8.38v2.2h4v5.88h-4V60.9Z"/><path class="cls-1" d="M178.14,110.14a3.21,3.21,0,0,0,.55-.47l-1,.18v3.48h-4.47V110.4c-1.39.08-3.23.15-5.53.23l-.18-5.1a33.43,33.43,0,0,0,5.71-.09v-1.71h-5.42V98.45l1.42-4.29h-1.42V89h3.1l.76-2.29,4.15.64L175.24,89h4.18v5.19h-5.89l-.29.87h4.41v3.8a17.15,17.15,0,0,0,1.26-2.77A32.48,32.48,0,0,0,180,92.62a38.83,38.83,0,0,0,.75-5.62l4.53.08-.18,1.45h8.18v5.14l-1.36,7.86-3.48-.7a15.67,15.67,0,0,0,1.12,2.55,19.22,19.22,0,0,0,1.78,2.76c.87,1.12,1.44,1.83,1.72,2.14s.7.72,1.24,1.22l-3.8,4q-.47-.47-1.05-1.17c-.38-.48-1-1.43-1.91-2.86a22.62,22.62,0,0,1-1.48-2.61,21.29,21.29,0,0,1-1.49,3.41c-.52.9-1.22,2-2.1,3.32Zm-5-11.14V95.26L171.94,99Zm9.23,4.73a24.17,24.17,0,0,0,1.21-7.19c-.29,1.22-.54,2.19-.77,2.93s-.49,1.55-.82,2.46l-2.73-1.45v3.25h-1.65v1.19c.56-.1,1.25-.22,2.06-.38l.17,3.8A17.36,17.36,0,0,0,182.41,103.73Zm5.36-4.15,1.16-5.91h-4.67l-.14.66-.23,1,4.14,0c0,.27,0,.82-.09,1.64s-.13,1.7-.23,2.65Z"/><path class="cls-1" d="M199.2,103.5c-.27.35-.54.68-.79,1l-2.84-5.39A22.57,22.57,0,0,0,196.94,97c.36-.66.85-1.62,1.47-2.9a26.11,26.11,0,0,0,1.4-3.54c.44-1.37.78-2.52,1-3.45l4.93.55A52.16,52.16,0,0,1,204,94.1v3.34a43.88,43.88,0,0,0,1.6-4.64,18.52,18.52,0,0,0,.56-2.09c.15-.7.32-1.61.54-2.73l4.81.32c-.19,1.45-.34,2.44-.43,3h.9V87.11h5.8v4.15h4.78v5.57h-4.78V101h4.93v5.46h-4.93v7H212v-7h-7.37V101H212V96.83h-2.18a25.33,25.33,0,0,1-1.48,3.94L204,98.71v14.73H199.2Z"/><path class="cls-1" d="M225.38,102.89h5.69v-1.1c-1.32.07-3.49.11-6.53.11l-.11-3.65a61.67,61.67,0,0,0,6.29.06h.35v-.73h-5.86V94l1-2.17h-1.66V87.66h3.63l.43-.9,4.21.15-.32.75h5.3v4.18h-7.13l-1,2.17h1.34V92.16h4.23V94h2.18v3.57H235.3V98a19.33,19.33,0,0,0,2.18-.38l.05,1L238,96.6a14.45,14.45,0,0,0,.2-1.54c0-.5.07-1.27.09-2.29l.11-5q3.14,0,6.57-.16a28.61,28.61,0,0,0,4.66-.45l.78,4c-.44.09-1.71.23-3.8.4s-3.44.25-4.06.23l-.06,1.14h7.83v4.4h-1.59V102H243.8V97.23h-1.6l-.14,1.22c-.2,1.1-.36,1.93-.49,2.48s-.33,1.2-.58,2h7.85v10.38h-5.13v-.58H230.34v.58h-5Zm18.33,3.83V106H230.34v.73Zm0,3.39v-.61H230.34v.61Zm-3.42-7.22-3.89-1.42.15-.23-1.25.17v1.48Z"/><path class="cls-1" d="M252.53,88.13H264.3V113H259v-1.68h-1.4V113h-5Zm6.44,9V93.43h-1.4v3.66Zm0,8.93V102.4h-1.4V106Zm6.72,1.68a32.43,32.43,0,0,0,4.76.29,2.32,2.32,0,0,0,1.28-.66,1.94,1.94,0,0,0,.4-1.31v-1.33l-3.65,1.62a44.94,44.94,0,0,0-4.18-7.54L268.77,96c1.2,1.76,2.32,3.57,3.36,5.45V94.83h-7.28V89.52h7.28V87h5.6v2.52h1.13v5.31h-1.13v14.29a3.76,3.76,0,0,1-.51,1.87,4.19,4.19,0,0,1-1.35,1.48,3.15,3.15,0,0,1-1.8.57h-7.25Z"/><path class="cls-1" d="M280.69,108.54a39.39,39.39,0,0,0,4.22-2.68,25.89,25.89,0,0,0,3.46-3.17h-6.29V87h24.07v15.69h-5.22a32.92,32.92,0,0,1,3.42,3,27,27,0,0,1,2.9,3.48l-4.47,4.21a51.89,51.89,0,0,0-3.72-4.55,24.84,24.84,0,0,0-3.84-3.57l2.93-2.52h-7.31l3,2.23a31.19,31.19,0,0,1-4.19,4.44,45.28,45.28,0,0,1-5,4Zm19-12V93.17H288.52v3.37Z"/><path class="cls-1" d="M309.16,107.67q3.31-.32,5.89-.81c-1-.6-2.1-1.26-3.22-2l2.58-3.45h-3.22V96h8V94.42h-9.89V89h9.89V87h6v2h9.86v5.42h-9.86V96h7.68v5.36a14.9,14.9,0,0,1-3.79,5.28,42.43,42.43,0,0,0,6.17,1l-1.62,5.8a61.29,61.29,0,0,1-11.14-2.92,37.83,37.83,0,0,1-4.93,1.59q-2.55.65-6.26,1.39Zm17.11-6.26h-9.51a52.24,52.24,0,0,0,5.83,3A11.12,11.12,0,0,0,326.27,101.41Z"/><path class="cls-1" d="M337.35,108.08a4,4,0,0,0,.71.32,2.22,2.22,0,0,0,.74.14,1,1,0,0,0,.74-.34,1.12,1.12,0,0,0,.34-.76V105c-.82,0-1.58,0-2.3,0l-.11-5.56c.6,0,1.4.08,2.41.08V96.16h-2.3V90.94h2.3V87.2H345v3.74h1.88v3.45h5.31V93.23h-4.7V88.56h4.7V87h5.6v1.56h4.69v4.67h-4.69v1.16h5.86v4.67h-2.33v1h2v4.78h-2v4.41a4,4,0,0,1-.95,2.81,3.08,3.08,0,0,1-2.41,1.08h-4l-.7-2.82-2,1.45a21,21,0,0,0-1.8-2.55,27.21,27.21,0,0,0-1.91-2.23l3-2.15h-3.92v-.75c-.44.13-1,.28-1.65.43v6.09a2.83,2.83,0,0,1-.7,2,2.64,2.64,0,0,1-2.06.77h-3.83Zm9-9.25V96.16H345v2.93Zm9.89,1.22v-1H347v1Zm-.26,7.68a1.77,1.77,0,0,0,.26-1v-1.94h-3.91c.44.5.85,1,1.21,1.42s1.06,1.29,1.71,2.12A1.83,1.83,0,0,0,356,107.73Z"/><path class="cls-1" d="M364.44,94.94h6.32l1.51,7.72,2.23-7.72h6.56l2,7.63,1.56-7.63h6.44L386,112.37h-5.92l-2.44-8.87-2.43,8.87h-6.09Z"/><path class="cls-1" d="M392.22,89.06h6.5V93.2h-6.5Zm0,5.88h6.5v17.43h-6.5Z"/><path class="cls-1" d="M401.76,112.34h-.58V94.65l6.53,0,0,1.45a6.91,6.91,0,0,1,4.08-1.79,8.93,8.93,0,0,1,4.27.59,6.7,6.7,0,0,1,3,2.39,6.31,6.31,0,0,1,1.11,3.69v11.42h-6.79v-9.25a5.66,5.66,0,0,0-.64-3,1.91,1.91,0,0,0-1.83-.95,2.56,2.56,0,0,0-2.18,1.66,10.33,10.33,0,0,0-.77,4.46v7.07h-6.24Z"/><path class="cls-1" d="M423.92,110.21q-2.12-2.35-2.12-6.77t2.07-6.57c1.39-1.48,3.43-2.22,6.14-2.22a8.13,8.13,0,0,1,4.17,1.08V89.14h6.33v23.2h-6.07l0-1a7.71,7.71,0,0,1-2,1,8.57,8.57,0,0,1-2.43.32A7.74,7.74,0,0,1,423.92,110.21Zm8.91-3.86a5,5,0,0,0,0-5.43,2.59,2.59,0,0,0-2.16-1,2.68,2.68,0,0,0-2.17,1,4.19,4.19,0,0,0-.81,2.71,4.31,4.31,0,0,0,.79,2.66,2.55,2.55,0,0,0,2.11,1.06A2.74,2.74,0,0,0,432.83,106.35Z"/><path class="cls-1" d="M444.54,110.1a8.66,8.66,0,0,1-2.44-6.57q0-4.38,2.41-6.72t6.93-2.33c3,0,5.29.78,6.9,2.33a9,9,0,0,1,2.41,6.72,9.64,9.64,0,0,1-1.12,4.75,7.49,7.49,0,0,1-3.2,3.08,10.9,10.9,0,0,1-5,1.07Q447,112.43,444.54,110.1Zm6.9-2.75v0a2.81,2.81,0,0,0,2.25-1.09,4.14,4.14,0,0,0,.76-2.77,4.51,4.51,0,0,0-.79-2.86,2.81,2.81,0,0,0-2.31-1,2.6,2.6,0,0,0-2.13,1.09,4.34,4.34,0,0,0-.86,2.77,4.56,4.56,0,0,0,.79,2.68,2.61,2.61,0,0,0,2.14,1.18l.06-.24v.26Z"/><path class="cls-1" d="M461,94.94h6.32l1.51,7.72,2.23-7.72h6.55l2,7.63,1.57-7.63h6.44l-5.08,17.43h-5.91l-2.44-8.87-2.43,8.87h-6.09Z"/><path class="cls-1" d="M504.48,109v1.77a2.52,2.52,0,0,1-.75,1.83,2.49,2.49,0,0,1-1.8.75h-4.35l-1.16-3.86a25.83,25.83,0,0,1-5,3.66L488.27,109a27.23,27.23,0,0,0,2.65-1.7,30.55,30.55,0,0,0,2.71-2.16l-4.23.15-.41-4.9c.53,0,1.3-.06,2.32-.06a25.67,25.67,0,0,0,3.66-.19,2.46,2.46,0,0,0,1.77-1l.14-.18-6.38.18L490,94.77c.58,0,1,0,1.25,0a1.67,1.67,0,0,0,.69-.24,3.83,3.83,0,0,0,.78-.65l1-1.1-3.8-.06L489.4,88H492q6.8,0,11.25-.21a43.41,43.41,0,0,0,8.41-1.27l1.74,4.82c-2.68.4-4.89.7-6.61.9L509,93.55l-6,6.32,4.55-.14c-.34-.83-.73-1.69-1.16-2.58l4.47-1.74c.87,1.62,1.5,2.91,1.9,3.85s.82,2.1,1.26,3.45l.7,2-4.53,1.65a40.1,40.1,0,0,1,4.73,3.16l-3,3.89A40,40,0,0,0,504.48,109Zm-5.5-.25a.84.84,0,0,0,.71-.88v-3l-2.29.09,1.86,1.65c-.66.72-1.35,1.43-2.09,2.15A4.79,4.79,0,0,0,499,108.7Zm2.11-14.31,1.65-1.8q-1.33.09-2.73.12l-1.62,1.77Zm5,10.24-1.62.06V108Zm3.19-.15-2.49.12c1,.5,2,1,3,1.54Z"/><path class="cls-1" d="M516.75,103.06l1.33-.43a2.81,2.81,0,0,0,1-.57,2.68,2.68,0,0,0,.71-1l.55-1.25-3,.93-1.22-4.46a1.16,1.16,0,0,0,.61-.42,6.32,6.32,0,0,0,.5-.8l3.36-8.18,4,1.51-2.52,6,.78-.2,1.4-3.08,2.29,1v-3H532a8.18,8.18,0,0,0-.58-1.77l5.05-1.1a21.42,21.42,0,0,1,.92,2.87h5.28v4.7H540.9c.56,1.26,1,2.34,1.35,3.26s.76,2.21,1.26,3.87l-4.46,1.37-.58-1.83-11,.84-.32-4.7a3.48,3.48,0,0,0,1.16-.25,1.15,1.15,0,0,0,.46-.73l.38-1.83h-1.45l-3,6.76,1.86-.56,1.3,4.47-9.8,2.87Zm9.28,8.53a16.53,16.53,0,0,0,1.1-1.28c-1.34.6-3.08,1.25-5.24,2a28.37,28.37,0,0,1-4.16,1.17l-1.3-4.69a62.54,62.54,0,0,0,10.49-3.28l1.25,2.67a8.72,8.72,0,0,0,.26-1.66c0-.58.08-1.49.12-2.75v-2.12h4.7v2.47c0,1.68,0,3-.13,4a11.38,11.38,0,0,1-.67,3,9,9,0,0,1-1.7,2.78ZM536.76,96l-.56-1.34,2.24-.75h-4.61l-.38,2.41ZM535,113.08a2.8,2.8,0,0,1-.77-.9,2.18,2.18,0,0,1-.29-1v-9.62h4.59v7.33a.29.29,0,0,0,.27.21.24.24,0,0,0,.28-.21,3.56,3.56,0,0,0,.18-1.37,10.12,10.12,0,0,0-.18-1.82l3.94.9v4a2.86,2.86,0,0,1-.77,2,2.54,2.54,0,0,1-2,.82H536A1.64,1.64,0,0,1,535,113.08Z"/><rect class="cls-1" width="134.68" height="134.68" rx="21.78"/><path class="cls-2" d="M68.54,31.78V63.83h42.38V24.76Zm0,71.24,42.38,6.9v-39H68.54ZM23.76,63.82H59.58V33L23.76,38.88Zm0,32.21,35.82,5.83v-31H23.76Z"/></g></g></svg>