<svg xmlns="http://www.w3.org/2000/svg" viewBox="0 0 236.84 111.61"><defs><style>.cls-1{fill:#353535}.cls-2{fill:#b7b7b7}</style></defs><g id="图层_2" data-name="图层 2"><g id="图层_1-2" data-name="图层 1"><path d="m0 100.86.35-.62c1.22.54 2.41 1.12 3.56 1.74l-.33.68c-1.14-.66-2.33-1.24-3.58-1.8m.9 10.24c.9-2.06 1.71-4.17 2.42-6.35L4 105a59 59 0 0 1-2.4 6.38Zm.22-14.93.4-.61a39 39 0 0 1 3.45 2l-.39.66c-1.21-.79-2.36-1.48-3.46-2.05m10.47 2h4.6v.69H11v4.88h4.51v.7H11v5.43h5.59v.71H4.42v-.71h5.87v-5.43H5.94v-.7h4.35v-4.88H5.5v-.69h5.28a30 30 0 0 0-1.34-3.36l.72-.22a29 29 0 0 1 1.43 3.58M22.17 101a.62.62 0 0 1 .48.19.7.7 0 0 1 .18.45.74.74 0 0 1-.18.48.65.65 0 0 1-.48.18.6.6 0 0 1-.44-.18.66.66 0 0 1-.2-.48.6.6 0 0 1 .18-.45.58.58 0 0 1 .46-.19m0 7.69a.62.62 0 0 1 .66.66.72.72 0 0 1-.18.46.65.65 0 0 1-.48.18.6.6 0 0 1-.44-.18.66.66 0 0 1-.2-.46.65.65 0 0 1 .18-.48.56.56 0 0 1 .46-.21ZM40.35 98.75v12.77h-.74V100.2a24.7 24.7 0 0 1-2.55 3.85l-.4-.69a27.5 27.5 0 0 0 4.53-8.66l.68.22a35 35 0 0 1-1.52 3.83m7.7 7.6a23.2 23.2 0 0 0 5.48 4.34l-.46.68a24 24 0 0 1-5.52-4.46 23.1 23.1 0 0 1-6 4.63l-.44-.65a22.5 22.5 0 0 0 5.93-4.56 20 20 0 0 1-3.67-8.51l.68-.13a19.2 19.2 0 0 0 3.48 8.07 19.9 19.9 0 0 0 3.8-8.76h-8.87v-.71h9.64v.68a20.6 20.6 0 0 1-4.05 9.38M70.29 99.29H58v2.43q0 1.56-.09 3h3.91v-2.44h-3v-.6h3V99.5h.71v2.21h4.2v-2.15h.72v2.15h3.24v.6h-3.27v2.44h4.12v.64h-7.22a8.3 8.3 0 0 0 2.12 2.61 33 33 0 0 0 3.27-1.9l.44.53a29 29 0 0 1-3.15 1.81 14 14 0 0 0 4.74 2l-.32.68a14.4 14.4 0 0 1-5-2.28 9.5 9.5 0 0 1-2.85-3.5h-2.4v5.19c1-.38 2.21-.9 3.61-1.58l.22.59c-1.4.7-2.93 1.36-4.56 2l-.32-.57a.9.9 0 0 0 .28-.33 3 3 0 0 0 .07-.38v-4.9h-2.63a14.2 14.2 0 0 1-.69 3.28 15.7 15.7 0 0 1-1.45 2.81l-.59-.46a12.4 12.4 0 0 0 1.69-3.74 26.7 26.7 0 0 0 .46-5.59v-6h13Zm-.69-.63v-2.35H58v2.35Zm-2.9 6.09v-2.44h-4.2v2.44ZM82.47 101.71V109a2.63 2.63 0 0 1-.46 1.71 2.14 2.14 0 0 1-1.59.55c-.65 0-1.35 0-2.11-.08l-.13-.8a19 19 0 0 0 2 .11 1.64 1.64 0 0 0 1.17-.33 1.94 1.94 0 0 0 .35-1.16v-7.24h-8V101H90v.72ZM77.85 104l.64.37a29 29 0 0 1-4.18 5.61l-.58-.46a28 28 0 0 0 4.12-5.52m-2.18-7.88H88v.71H75.67Zm9.48 8.36.61-.42c1.39 1.68 2.77 3.41 4.12 5.19l-.6.47q-2.14-2.93-4.13-5.28ZM95.18 107.89a5.7 5.7 0 0 0 2.11 1.66 7.7 7.7 0 0 0 3.08.59c2.5.07 5.19.08 8.09 0l-.18.73q-4.09.06-8 0a9.2 9.2 0 0 1-3.21-.61 6 6 0 0 1-2.28-1.7c-.85.82-1.7 1.7-2.53 2.66l-.46-.65c1-1 1.82-1.86 2.63-2.62v-6.18h-2.51v-.68h3.26Zm-2.07-12.33.6-.4c.81.94 1.62 2 2.43 3l-.61.44c-.62-.83-1.43-1.85-2.42-3.04m11.68 6V109h-.71v-7.43h-4.53a15 15 0 0 1-.41 3.71 11.3 11.3 0 0 1-1.59 3.32l-.64-.46a10.5 10.5 0 0 0 1.55-3.14 15.8 15.8 0 0 0 .37-3.8v-4.94a58 58 0 0 0 8-.68l.2.68a60 60 0 0 1-7.5.68v4h8.52v.67ZM121.19 99.91h4.14v9a2.5 2.5 0 0 1-.49 1.71 2.43 2.43 0 0 1-1.69.57c-.62 0-1.23 0-1.82-.07l-.12-.76a14 14 0 0 0 1.77.11 1.88 1.88 0 0 0 1.27-.38 1.6 1.6 0 0 0 .39-1.23v-8.25h-3.47a17.6 17.6 0 0 1-.33 2.64q1.56 1.86 3.06 3.74l-.49.49-2.74-3.48a13.2 13.2 0 0 1-2.38 4.62l-.59-.41a11.9 11.9 0 0 0 2-3.57 14.1 14.1 0 0 0 .75-4.07h-3.92a15 15 0 0 1-.28 2.27l2.37 2.39-.44.55c-.88-.93-1.58-1.66-2.09-2.17-.08.29-.19.66-.35 1.1a12.7 12.7 0 0 1-2.2 3.58l-.57-.44a11.5 11.5 0 0 0 2.09-3.4 12.3 12.3 0 0 0 .75-3.88h-3.43v10.73h-.73V99.91h4.18v-3.23h-5.44V96h16.21v.7h-5.36c0 .98-.02 2.06-.05 3.21m-.68 0v-3.23h-3.93v3.23ZM133 96.86h11.27v.7h-6.05v3.78h5.56v.7h-5.56v4.43h6.9v.7h-6.9v4.44h-.75v-4.44h-9v-.7h3.18v-5.13h5.83v-3.78h-4.88c-.29.47-.46.73-.51.79a24.6 24.6 0 0 1-2.59 3.12l-.49-.59a20.3 20.3 0 0 0 4.29-6.25l.73.2a22 22 0 0 1-1.03 2.03m4.47 9.61V102h-5.12v4.43ZM146.88 100.61l.33-.61c1.32.64 2.38 1.2 3.19 1.69l-.35.64c-.91-.55-1.97-1.13-3.17-1.72m.22-4.74.39-.6c1.12.62 2.11 1.2 3 1.72l-.37.63c-.89-.52-1.88-1.1-3.02-1.75m0 15.1c.9-2.48 1.65-4.64 2.25-6.46l.65.24c-.63 2-1.37 4.16-2.24 6.51Zm5.65-9.3h3q-.1 2.56-.19 7.22a2.4 2.4 0 0 1-.42 1.53 1.75 1.75 0 0 1-1.26.49c-.16 0-.59 0-1.27-.07l-.13-.66h1.25a1.33 1.33 0 0 0 .88-.29 2 2 0 0 0 .29-1.15q0-1.31.19-6.48h-2.35a27.5 27.5 0 0 1-.5 5.17 13 13 0 0 1-1.69 4L150 111a12.2 12.2 0 0 0 1.61-3.74 29 29 0 0 0 .5-5.52V98.6h-1.41V98h2.9a22 22 0 0 0-.94-3.06l.7-.19c.32.89.65 2 1 3.25h2v.64h-3.54q-.03 1.98-.03 3.03Zm5.77-4.42h4.88v.66h-5.17a21 21 0 0 1-1.56 2.64l-.57-.38a18 18 0 0 0 2.64-5.51l.68.15c-.25.9-.55 1.72-.86 2.44Zm1.93 8.14v4.06a1.8 1.8 0 0 1-.42 1.33 2 2 0 0 1-1.31.41c-.47 0-.93 0-1.37-.06l-.13-.69c.64 0 1.11.07 1.41.07a1.3 1.3 0 0 0 .88-.26 1.26 1.26 0 0 0 .26-.9v-4h-3.3v-.64h3.3v-1.3c1.09-1.29 1.8-2.12 2.13-2.5h-4.35v-.64h5.15v.73c-.69.85-1.44 1.74-2.25 2.7v1.08h3v.64ZM168.65 107.7c.87-.29 1.71-.57 2.53-.82l.15.68c-1.35.45-3.33 1.08-6 1.89l-.22-.74 2.78-.81v-5.37h-2.29v-.66h2.29v-5h-2.49v-.66h5.6v.66h-2.37v5h2v.66h-2Zm9.35-5.87V109a1.42 1.42 0 0 0 .28 1 1.22 1.22 0 0 0 .88.31h.51a1.57 1.57 0 0 0 1-.27 2 2 0 0 0 .4-1c.08-.68.16-1.26.22-1.75l.62.17c-.07.7-.14 1.3-.22 1.81a2.26 2.26 0 0 1-.6 1.32 2.36 2.36 0 0 1-1.38.41h-.6a2 2 0 0 1-1.34-.48 1.87 1.87 0 0 1-.44-1.37v-7.27h-2.61c0 1 0 1.81-.05 2.37a10.6 10.6 0 0 1-.9 4.16 10.45 10.45 0 0 1-2.9 3.18l-.51-.55a10.2 10.2 0 0 0 2.77-3 9.35 9.35 0 0 0 .82-3.85c0-1.11.06-1.89.08-2.33h-2.57v-.67h10.14v.67Zm-5.55-5.63h8.07v.68h-8.07ZM185.47 109.46v1.8h-.72V97.85h1.85a26 26 0 0 0 1.23-3.15l.74.17c-.31.89-.7 1.88-1.18 3h3.3v13.23H190v-1.62Zm0-6.12H190v-4.79h-4.51Zm0 5.43H190V104h-4.51Zm8.42-11h5.31q-.19 8.88-.23 10.34a3.35 3.35 0 0 1-.7 2.26 2.77 2.77 0 0 1-2.07.75c-.82 0-1.62 0-2.39-.11l-.09-.77c1 .09 1.77.13 2.33.13a2.28 2.28 0 0 0 1.65-.55 2.76 2.76 0 0 0 .55-1.8c.07-3.25.15-6.44.22-9.55h-4.9a26 26 0 0 1-1.72 3.08l-.62-.37a23 23 0 0 0 3-6.53l.7.2c-.24.86-.59 1.84-1.04 2.95Zm-1.29 4.51.57-.37q1.05 1.38 2.64 3.58l-.6.44q-1.06-1.56-2.61-3.62ZM201.9 100.61l.33-.61c1.32.64 2.38 1.2 3.19 1.69l-.35.64c-.91-.55-1.97-1.13-3.17-1.72m.22-4.74.38-.6c1.13.62 2.12 1.2 3 1.72l-.37.63c-.88-.52-1.87-1.1-3.01-1.75m0 15.1c.9-2.48 1.65-4.64 2.25-6.46l.64.24c-.62 2-1.37 4.16-2.23 6.51Zm5.64-9.3h3q-.09 2.56-.18 7.22a2.4 2.4 0 0 1-.42 1.53 1.76 1.76 0 0 1-1.27.49c-.16 0-.58 0-1.26-.07l-.13-.66h1.25a1.33 1.33 0 0 0 .88-.29 2 2 0 0 0 .29-1.15c0-.87.09-3 .18-6.48h-2.34a28.3 28.3 0 0 1-.5 5.17 13 13 0 0 1-1.69 4L205 111a12.2 12.2 0 0 0 1.61-3.74 28.5 28.5 0 0 0 .49-5.52V98.6h-1.41V98h2.9a23.4 23.4 0 0 0-.94-3.06l.7-.19c.32.89.65 2 1 3.25h2v.64h-3.54c.01 1.36-.01 2.36-.01 3.03Zm5.78-4.42h4.88v.66h-5.17a24 24 0 0 1-1.56 2.64l-.57-.38a18 18 0 0 0 2.64-5.51l.68.15c-.25.9-.55 1.72-.86 2.44Zm1.93 8.14v4.06a1.8 1.8 0 0 1-.42 1.33 2 2 0 0 1-1.31.41c-.47 0-.93 0-1.37-.06l-.13-.69c.64 0 1.11.07 1.41.07a1.3 1.3 0 0 0 .88-.26 1.26 1.26 0 0 0 .26-.9v-4h-3.3v-.64h3.3v-1.3c1.09-1.29 1.8-2.12 2.13-2.5h-4.35v-.64h5.15v.73c-.69.85-1.45 1.74-2.25 2.7v1.08h3v.64ZM224.86 104.53q1.21 1.71 2.49 3.69l-.53.47c-1-1.46-1.73-2.61-2.31-3.43a21.5 21.5 0 0 1-3.9 5.43l-.5-.57a21.8 21.8 0 0 0 3.94-5.52c-1.24-1.74-2.29-3.16-3.13-4.23l.55-.39q1.25 1.53 2.91 3.87a24.4 24.4 0 0 0 1.71-6.18h-5.23V97h5.93v.66a25.5 25.5 0 0 1-1.93 6.87m7 2.29c.21.58.4 1.05.57 1.43.7 1.53 1.43 2.29 2.19 2.29a.82.82 0 0 0 .55-.21 2 2 0 0 0 .45-.85 22 22 0 0 0 .54-2.4l.66.31a24 24 0 0 1-.59 2.44 2.8 2.8 0 0 1-.62 1.12 1.43 1.43 0 0 1-1 .38c-1.06 0-2-.91-2.86-2.73-.17-.39-.34-.81-.49-1.25a23.6 23.6 0 0 1-4.3 3l-.45-.59a24.3 24.3 0 0 0 4.49-3.19 27.5 27.5 0 0 1-1.06-5.77l-2.85.36-.11-.69 2.9-.37v-.37a97 97 0 0 1-.22-5h.74c0 1.82.11 3.48.22 5v.33l5.79-.74.09.7-5.83.73a28 28 0 0 0 .94 5.32 20.3 20.3 0 0 0 3.32-4.42l.58.42a22.2 22.2 0 0 1-3.63 4.75Zm.14-10.74.45-.46c1.09.93 2 1.72 2.59 2.38l-.48.5c-.9-.92-1.76-1.73-2.56-2.42"/><path d="m12.55 48.22-3.6 5a30.8 30.8 0 0 0-8.08-5l3.35-4.52a29.5 29.5 0 0 1 8.33 4.52m-4.87 9.24 5 3Q10.15 69.4 7.1 77.37l-5.69-3a161 161 0 0 0 6.27-16.91m35.65-1v1.27h6.29v5.47h-6.29v8.64q0 3.6-1.43 4.77a4.6 4.6 0 0 1-.86.51q-1.93 1-7.21 1h-.61a23.8 23.8 0 0 0-1.62-5.62c2.36.1 4.07.12 5.12 0 .58-.07.88-.32.92-.76V63.2h-6.4v-5.48h6.4V53.3h1.83a28 28 0 0 0 1.82-2.64h-7.92v-2.54a29.7 29.7 0 0 0-5-2.84A16.2 16.2 0 0 0 30 42.79h-7.8c0 1.32-.12 3.22-.25 5.69h8.68s0 .84-.05 2.43Q30 69.86 28.9 73.82a5.5 5.5 0 0 1-.81 1.82 4.68 4.68 0 0 1-3.3 2.09 23.5 23.5 0 0 1-5.13.2 12.6 12.6 0 0 0-1.47-5.54q2.08.21 3.6.21a1.79 1.79 0 0 0 1.43-.81q1.26-1.79 1.72-17.58v-.1h-3.35Q20.23 70 14 77.52a2 2 0 0 1-.3.41 12.4 12.4 0 0 0-3.86-3.86l-.3-.15q5.37-6.09 6.55-19.55c.23-2.81.39-6.67.45-11.58h-3.8V37l-2 2.74a27.5 27.5 0 0 0-7.21-4.87 8 8 0 0 0-.81-.41l3.5-4.52a31.3 31.3 0 0 1 8.23 4.83L12.76 37h6.45v-7.41h5.94V37h5.94v3.6a46.4 46.4 0 0 0 2.84-11l5.94 1c-.3 1.79-.66 3.5-1.06 5.13h10.66v5.79H37c-.41 1.12-1 2.42-1.63 3.91h9.65l1.15-.43 3.55 2.64a55.4 55.4 0 0 1-6.39 8.81ZM73.61 66.35l-4.77 4.42a60 60 0 0 0-4.37-7.31 38.1 38.1 0 0 1-8.83 11.07 20.2 20.2 0 0 0-4.12-4.73 3 3 0 0 0-.35-.3 33.1 33.1 0 0 0 9.29-11.93q-2.94-4.27-8.33-11.33l4.22-3.5q2.53 3.09 6.75 8.58a63 63 0 0 0 2.84-10.82H52.33V35h15.34l1.07-.2 3.91 1.37a87 87 0 0 1-5.13 20.92q4.32 6.11 6.09 9.26M93 48.07l4.88 3a53.3 53.3 0 0 1-9.5 15.08c1.29 2.5 2.74 3.89 4.37 4.16.5.07.91-.34 1.22-1.22a30.8 30.8 0 0 0 1-6.65 17.3 17.3 0 0 0 4.62 3.4l.56.26Q98.4 78 93.47 78h-.41q-6.09-.7-9.65-7a40.8 40.8 0 0 1-7.51 5.23 23.7 23.7 0 0 0-4.9-4.6A38 38 0 0 0 81 65a77.6 77.6 0 0 1-2.8-16.1l-5.2.69-.76-5.68 5.64-.66q-.4-6.91-.56-13.41h6.45c.07 5.15.2 9.39.4 12.75l14.73-1.78.71 5.48-15 1.88a98 98 0 0 0 1.73 11.38A50 50 0 0 0 93 48.07m4.58-11.27-4.67 3.7a60.3 60.3 0 0 0-6.6-7.56l4.47-3.25a91 91 0 0 1 6.8 7.11M113 56.6l7.72-1.27a31 31 0 0 0-.21 5.44q-14 2.68-16.14 3.8a2 2 0 0 0-.26.11 35 35 0 0 0-2-5.79 9.25 9.25 0 0 0 4-2.8 5 5 0 0 1 .41-.45 58 58 0 0 0 4.11-4.93q-5.58.66-6.9 1.32a52 52 0 0 0-1.93-5.74c.88-.3 1.91-1.32 3.09-3a53 53 0 0 0 4.88-9.3q1-2.54 1.72-4.67L117.3 32a77.5 77.5 0 0 1-7.76 13.61l4.87-.35a46 46 0 0 0 3.15-5.34l5.38 3.51A85 85 0 0 1 113 56.6m7.06 8.84.66 5.38q-1.68.51-17.22 4.82l-1.17-6.19q3.5-.61 17.72-4.01Zm31.43-14.93-3.6 5a79 79 0 0 0-12.14-6.66 54.6 54.6 0 0 1-12.85 6.45 19.8 19.8 0 0 0-3.67-5.3 42.2 42.2 0 0 0 16.91-9.34 29 29 0 0 0 2.85-3h-16.3V32h20.36l1.12-.25 4.37 2.28a35.3 35.3 0 0 1-8 11 79 79 0 0 1 10.94 5.48Zm-12.76 11.12v9.55h12.14v5.73h-30.82v-5.73h12.44v-9.55h-9.35V56h25.14v5.64ZM165.92 62l.46 4.57-5.74 1.38-7.11 1.62-1-4.77q4.15-.74 13.39-2.8m13-11.47v-4.44a64 64 0 0 1-5.18 4.06 35.5 35.5 0 0 0-3.5-5c-.17 2.26-.43 5-.76 8.27h4s0 .78-.1 2.24q-.72 15-2.09 18.38a5.4 5.4 0 0 1-.76 1.37 5.87 5.87 0 0 1-4 2 52 52 0 0 1-6.35 0 10 10 0 0 0-1.52-4.92c1.9.17 3.71.25 5.43.25a2.74 2.74 0 0 0 1.83-.66q1.43-1.68 2-13.86H154.5q1-7.77 1.37-18.23l5.28.3q-.21 4.42-1 13.15h4.07q.85-7.2 1.37-17h-11.75v-5.08H171q-.36 7-.86 13.82a40.4 40.4 0 0 0 12.54-12 36 36 0 0 0 2.54-4.37l5.33 1.88c-.17.38-.63 1.21-1.37 2.49A51.6 51.6 0 0 0 200.81 43c.57.34 1.12.65 1.62.92a26 26 0 0 0-2.84 6.14 46 46 0 0 1-4.72-3.5v4Zm16.61 3 5.63 1.17q-3.86 10.72-6.29 15.85H201v5.18h-27v-5.16h15.59a91 91 0 0 0 5.68-16.41c.12-.23.17-.44.21-.61Zm-12.39 12.7-5 1.37a77 77 0 0 0-2.69-12.24l4.55-1.25a73.6 73.6 0 0 1 3.09 12.14Zm-3.41-20.92h13.77a78 78 0 0 1-7.37-7.31 59.7 59.7 0 0 1-6.45 7.33Zm11.48 20.11-4.93.76a109 109 0 0 0-1.93-12.29l4.68-.66a91 91 0 0 1 2.13 12.21Z" class="cls-1"/><path d="M9.06 10.58V8.66h5.86v6.84a5.6 5.6 0 0 1-2.38 1.88 8.6 8.6 0 0 1-3.62.74A8.4 8.4 0 0 1 4.56 17a8 8 0 0 1-3-3.22A10 10 0 0 1 .45 9a9.8 9.8 0 0 1 1.09-4.67A8 8 0 0 1 8.78 0a7.56 7.56 0 0 1 3.68.89 5.32 5.32 0 0 1 2.36 2.47l-1.72 1a4.4 4.4 0 0 0-1.73-1.74A5.34 5.34 0 0 0 8.68 2a5.5 5.5 0 0 0-3.11.89 5.9 5.9 0 0 0-2.11 2.45A8.55 8.55 0 0 0 2.7 9a8.4 8.4 0 0 0 .8 3.74 5.84 5.84 0 0 0 2.23 2.5 6.15 6.15 0 0 0 3.33.89 4.84 4.84 0 0 0 3.72-1.34v-4.21ZM24.16.29l7.06 17.57h-2.38l-1.94-5h-7.28l-1.84 5h-2.16L22.36.29Zm2 10.61-3-7.76-2.82 7.76ZM47.68.29h1.75v17.57h-2.09V4.46l-5.54 8.86h-1.27l-5.59-8.9v13.44h-2.07V.29h1.87l6.48 10.44ZM55.14 17.86H53V.29h2.13ZM60.52.29 70.29 14V.29h2v17.57H70.5L60.73 4.08v13.78h-2V.29ZM83.61 10.58V8.66h5.85v6.84a5.6 5.6 0 0 1-2.37 1.88 8.7 8.7 0 0 1-3.63.74A8.4 8.4 0 0 1 79.11 17a7.9 7.9 0 0 1-3-3.22A10 10 0 0 1 75 9a9.8 9.8 0 0 1 1.09-4.69 8 8 0 0 1 3-3.19A8.14 8.14 0 0 1 83.32 0 7.5 7.5 0 0 1 87 .89a5.4 5.4 0 0 1 2.37 2.47l-1.73 1a4.4 4.4 0 0 0-1.73-1.74A5.3 5.3 0 0 0 83.22 2a5.44 5.44 0 0 0-3.1.89A5.93 5.93 0 0 0 78 5.34 8.55 8.55 0 0 0 77.25 9a8.4 8.4 0 0 0 .75 3.76 5.9 5.9 0 0 0 2.23 2.5 6.16 6.16 0 0 0 3.34.89 4.87 4.87 0 0 0 3.72-1.34v-4.23ZM107.82 9.72h-7.73V16H109v1.9H98V.26h10.78v1.9h-8.65v5.66h7.73ZM124.91.29 118.69 9l6.39 8.91h-2.62l-5.09-7.18-5 7.18h-2.47L116.25 9 110 .29h2.64l4.9 7 4.87-7ZM132.25.29a7.1 7.1 0 0 1 3.18.69 5.4 5.4 0 0 1 2.2 1.94 5.1 5.1 0 0 1 .79 2.82 5.2 5.2 0 0 1-.78 2.82 5.3 5.3 0 0 1-2.18 1.92 7.3 7.3 0 0 1-3.21.68H129v6.7h-2.14V.29Zm-.26 9a4.4 4.4 0 0 0 3.1-1 3.3 3.3 0 0 0 1.08-2.55 3.36 3.36 0 0 0-1.08-2.57 4.4 4.4 0 0 0-3.1-1h-3v7.12ZM150.37 9.72h-7.72V16h8.9v1.9h-11V.26h10.78v1.9h-8.64v5.66h7.72ZM167.53 17.86h-2.61l-5.09-7.2h-3.48v7.2h-2.14V.29h5.4a7.5 7.5 0 0 1 3.21.65A5.1 5.1 0 0 1 165 2.77a4.85 4.85 0 0 1 .78 2.73 4.72 4.72 0 0 1-1 3 5.47 5.47 0 0 1-2.71 1.82Zm-11.18-15.7v6.62h3a4.7 4.7 0 0 0 3.11-.9 3 3 0 0 0 1.07-2.38 3.06 3.06 0 0 0-1.07-2.42 4.66 4.66 0 0 0-3.11-.92ZM171.16 17.86H169V.29h2.14ZM184.6 9.72h-7.73V16h8.9v1.9h-11V.26h10.78v1.9h-8.64v5.66h7.73ZM190.24.29 200 14V.29h2v17.57h-1.8l-9.75-13.78v13.78h-2V.29ZM216.88 13.49l1.72 1a5.73 5.73 0 0 1-2.3 2.66 6.73 6.73 0 0 1-3.6 1 7.44 7.44 0 0 1-4.06-1.15 8.1 8.1 0 0 1-2.88-3.22 10.2 10.2 0 0 1-1-4.7 10.3 10.3 0 0 1 1-4.71 8.07 8.07 0 0 1 2.88-3.2A7.5 7.5 0 0 1 212.7 0a6.73 6.73 0 0 1 3.6 1 5.73 5.73 0 0 1 2.3 2.66l-1.72 1A4.46 4.46 0 0 0 212.65 2a5.05 5.05 0 0 0-3 .89 5.7 5.7 0 0 0-2 2.49 9.15 9.15 0 0 0-.71 3.7 9.2 9.2 0 0 0 .71 3.71 5.65 5.65 0 0 0 2 2.5 5.05 5.05 0 0 0 3 .89 4.46 4.46 0 0 0 4.23-2.69M230.49 9.72h-7.73V16h8.9v1.9h-11V.26h10.74v1.9h-8.64v5.66h7.73Z" class="cls-2"/></g></g></svg>