<svg xmlns="http://www.w3.org/2000/svg" viewBox="0 0 384.85 291.04"><defs><style>.cls-1{fill:#fff;}.cls-2{fill:#dee7ff;}.cls-3{opacity:0.2;}.cls-4{fill:#5465cb;}.cls-5{fill:#4c4c4c;}.cls-6{opacity:0.1;}</style></defs><g id="图层_2" data-name="图层 2"><g id="图层_1-2" data-name="图层 1"><rect class="cls-1" x="0.48" y="0.48" width="383.9" height="290.08" rx="20.02"/><path class="cls-2" d="M364.36,291H20.5A20.53,20.53,0,0,1,0,270.54V20.5A20.52,20.52,0,0,1,20.5,0H364.36a20.51,20.51,0,0,1,20.49,20.5v250A20.52,20.52,0,0,1,364.36,291ZM20.5,1A19.57,19.57,0,0,0,1,20.5v250A19.56,19.56,0,0,0,20.5,290.08H364.36a19.56,19.56,0,0,0,19.54-19.54V20.5A19.57,19.57,0,0,0,364.36,1Z"/><g class="cls-3"><path class="cls-4" d="M40.05,260.52a8.38,8.38,0,0,1-3.13-3.45,12.23,12.23,0,0,1,0-10.18,8.41,8.41,0,0,1,3.13-3.46,8.53,8.53,0,0,1,4.58-1.25,8.63,8.63,0,0,1,4.63,1.25,8.41,8.41,0,0,1,3.13,3.46,12.23,12.23,0,0,1,0,10.18,8.38,8.38,0,0,1-3.13,3.45,8.71,8.71,0,0,1-4.63,1.23A8.61,8.61,0,0,1,40.05,260.52Zm-2.13-4a7.55,7.55,0,0,0,2.71,3.11,7.27,7.27,0,0,0,4,1.11,7.35,7.35,0,0,0,4.06-1.13,7.43,7.43,0,0,0,2.72-3.13,10.32,10.32,0,0,0,1-4.53,10.08,10.08,0,0,0-1-4.52,7.59,7.59,0,0,0-2.73-3.09,7.4,7.4,0,0,0-4-1.11,7.27,7.27,0,0,0-4,1.11,7.58,7.58,0,0,0-2.71,3.12,11.17,11.17,0,0,0,0,9.06Z"/><path class="cls-4" d="M58.83,261.09a5.17,5.17,0,0,1-2-1.89,6,6,0,0,1-.84-2.94h1.13a5,5,0,0,0,1.48,3.35,4.6,4.6,0,0,0,3.18,1.16,5,5,0,0,0,3.37-1.14,4.53,4.53,0,0,0-.12-6.51,6,6,0,0,0-3.63-1.07H60v-1h1.31a5.13,5.13,0,0,0,2.15-.46,4.11,4.11,0,0,0,1.67-1.36,3.67,3.67,0,0,0,.64-2.15,3.76,3.76,0,0,0-1.12-2.9,4.17,4.17,0,0,0-3-1.05,3.91,3.91,0,0,0-2.8,1.06A4.83,4.83,0,0,0,57.48,247H56.35a5.57,5.57,0,0,1,1.81-3.46,5.27,5.27,0,0,1,3.62-1.31,5.78,5.78,0,0,1,2.63.59,4.57,4.57,0,0,1,1.84,1.67,4.7,4.7,0,0,1,.66,2.51,4.44,4.44,0,0,1-3.25,4.54v0a5,5,0,0,1,2.84,1.64,4.91,4.91,0,0,1,1,3.23,5.42,5.42,0,0,1-.72,2.81,4.71,4.71,0,0,1-2,1.87,6.93,6.93,0,0,1-3.1.66A6.11,6.11,0,0,1,58.83,261.09Z"/></g><path class="cls-5" d="M35.66,112.33h5.89v.77h-5v3.73h4.57v.77H36.55v4.49h-.89Z"/><path class="cls-5" d="M42.83,115.08h.8v1.46h0a2.77,2.77,0,0,1,1-1.18,2.55,2.55,0,0,1,1.43-.42,1.9,1.9,0,0,1,.5.06l-.14.77a1.56,1.56,0,0,0-.46-.06,1.94,1.94,0,0,0-1.16.38,2.58,2.58,0,0,0-.83,1,3.52,3.52,0,0,0-.31,1.51v3.44h-.85Z"/><path class="cls-5" d="M47.06,116.67a3,3,0,0,1,1.18-1.27,3.27,3.27,0,0,1,1.75-.46,3.23,3.23,0,0,1,1.74.46,3,3,0,0,1,1.18,1.27,4.29,4.29,0,0,1,.41,1.91,4.23,4.23,0,0,1-.41,1.91,3.08,3.08,0,0,1-1.18,1.27,3.32,3.32,0,0,1-1.74.45,3.35,3.35,0,0,1-1.75-.45,3.08,3.08,0,0,1-1.18-1.27,4.11,4.11,0,0,1-.42-1.91A4.16,4.16,0,0,1,47.06,116.67Zm.77,3.4a2.35,2.35,0,0,0,.88,1,2.31,2.31,0,0,0,1.28.36,2.33,2.33,0,0,0,1.28-.36,2.4,2.4,0,0,0,.87-1,3.71,3.71,0,0,0,0-3,2.43,2.43,0,0,0-.87-1,2.34,2.34,0,0,0-1.28-.37,2.31,2.31,0,0,0-1.28.37,2.38,2.38,0,0,0-.88,1,3.71,3.71,0,0,0,0,3Z"/><path class="cls-5" d="M54.8,115.08h.82v1.23h0a2.74,2.74,0,0,1,1-1,2.78,2.78,0,0,1,1.43-.4,2.56,2.56,0,0,1,1.26.31,2.21,2.21,0,0,1,.88.86,2.61,2.61,0,0,1,.32,1.3v4.68h-.85v-4.41a2.1,2.1,0,0,0-.47-1.44,1.57,1.57,0,0,0-1.23-.53,2.24,2.24,0,0,0-1.15.32,2.59,2.59,0,0,0-.87.87,2.4,2.4,0,0,0-.32,1.21v4H54.8Z"/><path class="cls-5" d="M65.84,115.81h-2v4a2.94,2.94,0,0,0,.2,1.24.87.87,0,0,0,.85.39,2.58,2.58,0,0,0,.88-.15l.13.72a3.41,3.41,0,0,1-1.19.2c-1.14,0-1.7-.66-1.7-2v-4.41H61.55v-.73H63V112.9h.83v2.18h2Z"/><path class="cls-5" d="M72,117.45v.72H67v-.72Z"/><path class="cls-5" d="M78.37,121.83a3.77,3.77,0,0,1-1.68.38,3.21,3.21,0,0,1-1.72-.46,3.09,3.09,0,0,1-1.17-1.28,4.46,4.46,0,0,1,0-3.78A3.18,3.18,0,0,1,75,115.4a3.26,3.26,0,0,1,1.71-.46,3,3,0,0,1,1.62.44,2.87,2.87,0,0,1,1.1,1.25,4.51,4.51,0,0,1,.39,1.94v.29H74.27a2.86,2.86,0,0,0,.69,1.86,2.3,2.3,0,0,0,1.81.72,2.57,2.57,0,0,0,1.29-.31,2.71,2.71,0,0,0,.9-.81l.55.54A2.83,2.83,0,0,1,78.37,121.83Zm.55-3.7a2.5,2.5,0,0,0-.65-1.76,2.13,2.13,0,0,0-1.6-.66,2.23,2.23,0,0,0-1.67.68,2.67,2.67,0,0,0-.74,1.74Z"/><path class="cls-5" d="M81.18,115.08H82v1.23h0a2.83,2.83,0,0,1,1-1,2.78,2.78,0,0,1,1.43-.4,2.56,2.56,0,0,1,1.26.31,2.14,2.14,0,0,1,.88.86,2.51,2.51,0,0,1,.32,1.3v4.68h-.85v-4.41a2.09,2.09,0,0,0-.46-1.44,1.59,1.59,0,0,0-1.24-.53,2.24,2.24,0,0,0-1.15.32,2.56,2.56,0,0,0-.86.87,2.32,2.32,0,0,0-.33,1.21v4h-.85Z"/><path class="cls-5" d="M94,122.09v-1.34h0a2.58,2.58,0,0,1-1,1,2.76,2.76,0,0,1-1.48.43,3.14,3.14,0,0,1-1.61-.42,3,3,0,0,1-1.15-1.24,4.33,4.33,0,0,1-.42-2,4,4,0,0,1,.44-1.94,3.13,3.13,0,0,1,2.78-1.68,2.78,2.78,0,0,1,1.46.4,2.53,2.53,0,0,1,.94,1h0v-4.4h.85v10.16Zm-4.52-2a2.34,2.34,0,0,0,.84,1,2.23,2.23,0,0,0,1.22.35,2.27,2.27,0,0,0,1.24-.36,2.48,2.48,0,0,0,.89-1,3.17,3.17,0,0,0,.33-1.46,3.34,3.34,0,0,0-.34-1.57,2.4,2.4,0,0,0-.88-1,2.29,2.29,0,0,0-2.4,0,2.43,2.43,0,0,0-.88,1,3.28,3.28,0,0,0-.33,1.52A3.58,3.58,0,0,0,89.5,120.08Z"/><path class="cls-5" d="M106.86,121.17a4,4,0,0,1-1.29.8,4.42,4.42,0,0,1-1.66.31,4.28,4.28,0,0,1-2.25-.62,4.33,4.33,0,0,1-1.61-1.77,6.42,6.42,0,0,1,0-5.4,4.27,4.27,0,0,1,1.62-1.74,4.34,4.34,0,0,1,2.29-.61,4.62,4.62,0,0,1,1.91.41,3.71,3.71,0,0,1,1.41,1.07l-.59.58a3.78,3.78,0,0,0-1.21-.91,3.56,3.56,0,0,0-1.56-.34,3.32,3.32,0,0,0-1.81.51,3.4,3.4,0,0,0-1.28,1.46,5.12,5.12,0,0,0-.47,2.29,5.06,5.06,0,0,0,.47,2.24,3.61,3.61,0,0,0,1.31,1.49,3.34,3.34,0,0,0,1.83.53,3.3,3.3,0,0,0,1.83-.5,3.1,3.1,0,0,0,1.13-1.26l.69.36A3.34,3.34,0,0,1,106.86,121.17Z"/><path class="cls-5" d="M109,116.67a3,3,0,0,1,1.17-1.27,3.29,3.29,0,0,1,1.75-.46,3.23,3.23,0,0,1,1.74.46,3,3,0,0,1,1.18,1.27,4.16,4.16,0,0,1,.42,1.91,4.11,4.11,0,0,1-.42,1.91,3.08,3.08,0,0,1-1.18,1.27,3.32,3.32,0,0,1-1.74.45,3.38,3.38,0,0,1-1.75-.45,3.06,3.06,0,0,1-1.17-1.27,4.11,4.11,0,0,1-.42-1.91A4.16,4.16,0,0,1,109,116.67Zm.77,3.4a2.33,2.33,0,0,0,.87,1,2.36,2.36,0,0,0,1.28.36,2.31,2.31,0,0,0,1.28-.36,2.4,2.4,0,0,0,.87-1,3.71,3.71,0,0,0,0-3,2.43,2.43,0,0,0-.87-1,2.31,2.31,0,0,0-1.28-.37,2.32,2.32,0,0,0-2.15,1.39,3.61,3.61,0,0,0,0,3Z"/><path class="cls-5" d="M116.69,115.08h.8v1.46h0a2.82,2.82,0,0,1,1-1.18,2.58,2.58,0,0,1,1.44-.42,1.83,1.83,0,0,1,.49.06l-.13.77a1.68,1.68,0,0,0-.47-.06,2,2,0,0,0-1.16.38,2.58,2.58,0,0,0-.83,1,3.52,3.52,0,0,0-.31,1.51v3.44h-.85Z"/><path class="cls-5" d="M121.44,115.08h.79v1.46h0a2.77,2.77,0,0,1,1-1.18,2.53,2.53,0,0,1,1.43-.42,1.77,1.77,0,0,1,.49.06l-.13.77a1.63,1.63,0,0,0-.47-.06,2,2,0,0,0-1.16.38,2.66,2.66,0,0,0-.83,1,3.67,3.67,0,0,0-.3,1.51v3.44h-.85Z"/><path class="cls-5" d="M130.26,121.83a3.77,3.77,0,0,1-1.68.38,3.21,3.21,0,0,1-1.72-.46,3.09,3.09,0,0,1-1.17-1.28,4.56,4.56,0,0,1,0-3.78,3.18,3.18,0,0,1,1.17-1.29,3.26,3.26,0,0,1,1.71-.46,3,3,0,0,1,1.62.44,2.81,2.81,0,0,1,1.1,1.25,4.51,4.51,0,0,1,.39,1.94v.29h-5.51a2.8,2.8,0,0,0,.68,1.86,2.3,2.3,0,0,0,1.81.72,2.57,2.57,0,0,0,1.29-.31,2.71,2.71,0,0,0,.9-.81l.55.54A2.83,2.83,0,0,1,130.26,121.83Zm.56-3.7a2.56,2.56,0,0,0-.66-1.76,2.13,2.13,0,0,0-1.6-.66,2.23,2.23,0,0,0-1.67.68,2.72,2.72,0,0,0-.74,1.74Z"/><path class="cls-5" d="M133.05,111.93h.83v10.16h-.83Z"/><path class="cls-5" d="M139.8,115.24a2.18,2.18,0,0,1,.93.85,2.4,2.4,0,0,1,.34,1.3v4.7h-.81V121h0a2.89,2.89,0,0,1-1,.87,3.13,3.13,0,0,1-1.5.34,2.76,2.76,0,0,1-1.19-.26,2.11,2.11,0,0,1-.87-.75,2,2,0,0,1-.33-1.14,1.94,1.94,0,0,1,.79-1.64,3.19,3.19,0,0,1,2-.61,4.85,4.85,0,0,1,2.08.41v-.78a1.64,1.64,0,0,0-.49-1.26,1.75,1.75,0,0,0-1.26-.47,2.59,2.59,0,0,0-2.16,1.08l-.58-.54a3.57,3.57,0,0,1,2.75-1.31A2.84,2.84,0,0,1,139.8,115.24Zm-3.13,5.82a1.8,1.8,0,0,0,1.2.38,2.7,2.7,0,0,0,1.17-.25,2.36,2.36,0,0,0,.87-.67,1.41,1.41,0,0,0,.32-.89V119a3.25,3.25,0,0,0-.88-.33,4.93,4.93,0,0,0-1.17-.14,2.29,2.29,0,0,0-1.41.4,1.25,1.25,0,0,0-.55,1.09A1.32,1.32,0,0,0,136.67,121.06Z"/><path class="cls-5" d="M146.38,115.81h-2v4a2.94,2.94,0,0,0,.2,1.24.85.85,0,0,0,.85.39,2.49,2.49,0,0,0,.87-.15l.14.72a3.51,3.51,0,0,1-1.2.2c-1.13,0-1.7-.66-1.7-2v-4.41h-1.49v-.73h1.49V112.9h.84v2.18h2Z"/><path class="cls-5" d="M147.83,112.7a.56.56,0,0,1,.44-.19.59.59,0,0,1,.46.19.61.61,0,0,1,.18.45.62.62,0,0,1-.18.44.6.6,0,0,1-.44.18.61.61,0,0,1-.45-.18.62.62,0,0,1-.18-.44A.64.64,0,0,1,147.83,112.7Zm0,2.38h.84v7h-.84Z"/><path class="cls-5" d="M150.72,116.67a3,3,0,0,1,1.18-1.27,3.27,3.27,0,0,1,1.75-.46,3.23,3.23,0,0,1,1.74.46,3,3,0,0,1,1.18,1.27,4.16,4.16,0,0,1,.42,1.91,4.11,4.11,0,0,1-.42,1.91,3.08,3.08,0,0,1-1.18,1.27,3.32,3.32,0,0,1-1.74.45,3.35,3.35,0,0,1-1.75-.45,3.08,3.08,0,0,1-1.18-1.27,4.11,4.11,0,0,1-.42-1.91A4.16,4.16,0,0,1,150.72,116.67Zm.77,3.4a2.33,2.33,0,0,0,2.16,1.37,2.31,2.31,0,0,0,1.28-.36,2.4,2.4,0,0,0,.87-1,3.71,3.71,0,0,0,0-3,2.43,2.43,0,0,0-.87-1,2.31,2.31,0,0,0-1.28-.37,2.34,2.34,0,0,0-1.28.37,2.38,2.38,0,0,0-.88,1,3.71,3.71,0,0,0,0,3Z"/><path class="cls-5" d="M158.46,115.08h.83v1.23h0a2.83,2.83,0,0,1,1-1,2.78,2.78,0,0,1,1.43-.4,2.56,2.56,0,0,1,1.26.31,2.14,2.14,0,0,1,.88.86,2.61,2.61,0,0,1,.32,1.3v4.68h-.85v-4.41a2.09,2.09,0,0,0-.46-1.44,1.59,1.59,0,0,0-1.24-.53,2.24,2.24,0,0,0-1.15.32,2.47,2.47,0,0,0-.86.87,2.32,2.32,0,0,0-.33,1.21v4h-.85Z"/><path d="M69.13,134.72v1.76H36.31v-1.76H46.74l-1.1-2.09c-.36-.73-.84-1.63-1.43-2.7l1.83-.59q.3.56,2.16,4.17l.62,1.21h7.65q1.76-2.85,3.08-5.34l1.86.58c-1.29,2.25-2.23,3.83-2.81,4.76ZM39.35,162.64V140.43H51.86v18.41a3.77,3.77,0,0,1-.86,2.91,4.77,4.77,0,0,1-3.09.75c-.59,0-1.49-.05-2.71-.15l-.36-1.79a22.53,22.53,0,0,0,3.14.18,2.11,2.11,0,0,0,1.6-.48,2.62,2.62,0,0,0,.42-1.68v-4H41.21v8Zm10.65-16v-4.43H41.21v4.43Zm-8.79,1.76v4.46H50v-4.46Zm15.41-7.47h1.76V156.6H56.62Zm7.21-1.61h1.86v19a6.85,6.85,0,0,1-.34,2.44A2.33,2.33,0,0,1,64.14,162a6.63,6.63,0,0,1-2.54.44c-1.25,0-2.7-.06-4.36-.18l-.33-1.87a34.77,34.77,0,0,0,4.28.26,2.86,2.86,0,0,0,2.11-.59,3.37,3.37,0,0,0,.53-2.2Z"/><path d="M83.15,155.18l.18,1.83-4.24,1q-4.22,1-7,1.65l-.36-1.76q2.42-.51,5.92-1.39c.44-2.09.94-4.81,1.5-8.14s1-6.08,1.32-8.25l1.69.29q-1.57,10-2.79,15.7C80.52,155.8,81.78,155.49,83.15,155.18Zm-.07-19.11v1.8H72.17v-1.8h5q-.8-3.44-1.32-5.45l1.72-.4,1.43,5.85Zm-7.83,17.79q-1.47-9.77-2.16-13.1l1.53-.33q.51,2.23,1.14,6.11c.41,2.59.77,4.92,1.06,7ZM105,144.49H94.79c-.51,1.61-1,3-1.43,4.17h10.32v10.69a3.67,3.67,0,0,1-.66,2.54,3.16,3.16,0,0,1-2.3.68,13.46,13.46,0,0,1-2.2-.15l-.33-1.57a15.18,15.18,0,0,0,2.31.18,1.3,1.3,0,0,0,1.13-.42,2.87,2.87,0,0,0,.29-1.55v-8.75H97.71v9.92H96.1v-9.92H92v10.36H90.4V150.31H86.33v12.26H84.65V148.66h6.77a43.43,43.43,0,0,0,1.43-4.17H83.77v-1.65H105Zm-3.7-12.84h1.76v7.46h-18v-7.46h1.76v5.85h6.33v-8.05H95v8.05h6.29Z"/><path d="M115.46,129.6v7.5h5.24v1.79h-5.24V142c.78.8,1.7,1.82,2.75,3s1.88,2.22,2.49,3l-1.17,1.46c-1.1-1.49-2.46-3.19-4.07-5.12V163h-1.83V143.28a51.29,51.29,0,0,1-5.16,11l-1.13-1.65a46,46,0,0,0,3.51-6.57,47.75,47.75,0,0,0,2.56-7.19h-5.27V137.1h5.49v-7.5Zm7,33.15V132.31h16.29v30.33h-1.83V160H124.25v2.74ZM136.91,141v-6.85H124.25V141Zm0,1.79H124.25v6.81h12.66Zm-12.66,8.56v6.92h12.66v-6.92Z"/><path d="M160.77,148.55q3.18,9.07,15,12.45l-.88,1.93a27.87,27.87,0,0,1-9.55-4.84,19.49,19.49,0,0,1-5.78-7.49q-2.86,7.54-15.26,12.55l-1-1.9q7.22-2.82,10.63-6a13.18,13.18,0,0,0,4.19-6.68H143.68v-2h14.71v-.3l0-7.24H145.51v-1.9h16.17a96.92,96.92,0,0,0,6-7.95l1.79,1.1q-2.37,3.41-5.27,6.85h9.08V139H160.47l0,7.13v.41h14.82v2Zm-6.48-11.89q-2.26-3.33-4.68-6.29l1.64-1.1c1.37,1.66,2.94,3.74,4.72,6.26Z"/><path class="cls-4" d="M54.72,67.62h-.09l-8.25-2.79a.31.31,0,0,1-.19-.2l-1.11-4.47a.28.28,0,0,1,.55-.14l1.07,4.32,8,2.72,6.75-2.16,1.77-11.63L44.68,53a.28.28,0,0,1-.28-.25l-1.06-9.16a.26.26,0,0,1,.07-.22.27.27,0,0,1,.21-.09H65.91a.28.28,0,0,1,.28.28.29.29,0,0,1-.28.28h-22l1,8.6,18.64.22a.35.35,0,0,1,.21.1.32.32,0,0,1,.06.23L62,65.15a.3.3,0,0,1-.19.23l-7,2.23Z"/><path class="cls-4" d="M54.77,78.67h0l-.11,0-16.7-9.3a.27.27,0,0,1-.14-.22l-3.51-33a.29.29,0,0,1,.07-.22.3.3,0,0,1,.21-.1H75a.3.3,0,0,1,.21.1.25.25,0,0,1,.06.22L70.76,69.12a.31.31,0,0,1-.14.21l-15.71,9.3A.33.33,0,0,1,54.77,78.67ZM38.32,68.91l16.44,9.15,15.46-9.15,4.43-32.59H34.86Z"/><g class="cls-6"><path class="cls-4" d="M292.07,236.66a.86.86,0,0,1-.27,0l-24.52-8.3a.84.84,0,0,1-.54-.59l-3.31-13.29a.83.83,0,1,1,1.62-.4l3.2,12.84,23.83,8.07,20.06-6.4L317.4,194l-55.18-.65a.84.84,0,0,1-.82-.74l-3.15-27.24a.82.82,0,0,1,.21-.65.8.8,0,0,1,.62-.28h66.26a.84.84,0,1,1,0,1.67H260l3,25.58,55.4.65a.83.83,0,0,1,.63.3.86.86,0,0,1,.19.66l-5.48,36a.82.82,0,0,1-.58.67l-20.81,6.65A1.09,1.09,0,0,1,292.07,236.66Z"/><path class="cls-4" d="M292.23,269.48h-.11a.75.75,0,0,1-.33-.1l-49.64-27.65a.83.83,0,0,1-.43-.64L231.3,142.84a.8.8,0,0,1,.21-.64.82.82,0,0,1,.62-.28H352.29a.82.82,0,0,1,.63.29.83.83,0,0,1,.2.66L339.75,241.1a.81.81,0,0,1-.4.61l-46.7,27.65A.79.79,0,0,1,292.23,269.48Zm-48.89-29,48.86,27.22,45.95-27.21,13.18-96.89H233.06Z"/></g></g></g></svg>