<svg xmlns="http://www.w3.org/2000/svg" viewBox="0 0 384.85 291.04"><defs><style>.cls-1{fill:#fff;}.cls-2{fill:#dee7ff;}.cls-3{opacity:0.2;}.cls-4{fill:#5465cb;}.cls-5{fill:#4c4c4c;}.cls-6{opacity:0.1;}</style></defs><g id="图层_2" data-name="图层 2"><g id="图层_1-2" data-name="图层 1"><rect class="cls-1" x="0.48" y="0.48" width="383.9" height="290.08" rx="20.02"/><path class="cls-2" d="M364.36,291H20.5A20.53,20.53,0,0,1,0,270.54V20.5A20.52,20.52,0,0,1,20.5,0H364.36a20.51,20.51,0,0,1,20.49,20.5v250A20.52,20.52,0,0,1,364.36,291ZM20.5,1A19.57,19.57,0,0,0,1,20.5v250A19.56,19.56,0,0,0,20.5,290.08H364.36a19.56,19.56,0,0,0,19.54-19.54V20.5A19.57,19.57,0,0,0,364.36,1Z"/><g class="cls-3"><path class="cls-4" d="M40.05,260.52a8.29,8.29,0,0,1-3.12-3.45,12.13,12.13,0,0,1,0-10.18,8.32,8.32,0,0,1,3.12-3.46,9.11,9.11,0,0,1,9.21,0,8.41,8.41,0,0,1,3.13,3.46,12.23,12.23,0,0,1,0,10.18,8.38,8.38,0,0,1-3.13,3.45,9.24,9.24,0,0,1-9.21,0Zm-2.12-4a7.46,7.46,0,0,0,2.7,3.11,7.29,7.29,0,0,0,4,1.11,7.24,7.24,0,0,0,6.78-4.26,10.32,10.32,0,0,0,1-4.53,10.08,10.08,0,0,0-1-4.52,7.59,7.59,0,0,0-2.73-3.09,7.4,7.4,0,0,0-4-1.11,7.29,7.29,0,0,0-4,1.11,7.49,7.49,0,0,0-2.7,3.12,11.06,11.06,0,0,0,0,9.06Z"/><path class="cls-4" d="M63.25,261.39h-1V243.72h0l-4.36,3.46v-1.13l4.49-3.51h1Z"/></g><path class="cls-5" d="M37.33,121.66a4.26,4.26,0,0,1-1.61-1.77,5.82,5.82,0,0,1-.58-2.68,5.66,5.66,0,0,1,.61-2.72,4.33,4.33,0,0,1,1.65-1.74,4.55,4.55,0,0,1,2.35-.61,4.42,4.42,0,0,1,1.88.39,3.72,3.72,0,0,1,1.37,1l-.61.6a3.6,3.6,0,0,0-1.14-.89,3.5,3.5,0,0,0-1.54-.32,3.42,3.42,0,0,0-1.81.51,3.58,3.58,0,0,0-1.35,1.47,4.85,4.85,0,0,0-.51,2.28,4.93,4.93,0,0,0,.48,2.24,3.54,3.54,0,0,0,1.31,1.49,3.39,3.39,0,0,0,1.85.53,4.57,4.57,0,0,0,1.74-.34,2.18,2.18,0,0,0,1.09-.83V118H39.72v-.77h3.66v3.42a3.4,3.4,0,0,1-1.47,1.15,5.37,5.37,0,0,1-2.28.47A4.38,4.38,0,0,1,37.33,121.66Z"/><path class="cls-5" d="M44.86,115.08h.8v1.46h0a2.82,2.82,0,0,1,1-1.18,2.58,2.58,0,0,1,1.44-.42,1.83,1.83,0,0,1,.49.06l-.13.77a1.68,1.68,0,0,0-.47-.06,2,2,0,0,0-1.16.38,2.58,2.58,0,0,0-.83,1,3.52,3.52,0,0,0-.31,1.51v3.44h-.85Z"/><path class="cls-5" d="M53.14,115.24a2.18,2.18,0,0,1,.93.85,2.41,2.41,0,0,1,.35,1.3v4.7H53.6V121h0a3,3,0,0,1-1,.87,3.12,3.12,0,0,1-1.49.34,2.78,2.78,0,0,1-1.2-.26,2.11,2.11,0,0,1-.87-.75,2,2,0,0,1-.32-1.14,2,2,0,0,1,.78-1.64,3.19,3.19,0,0,1,2-.61,4.9,4.9,0,0,1,2.09.41v-.78a1.68,1.68,0,0,0-.49-1.26,1.78,1.78,0,0,0-1.27-.47,2.62,2.62,0,0,0-2.16,1.08l-.57-.54a3.32,3.32,0,0,1,1.15-.93,3.4,3.4,0,0,1,1.6-.38A2.8,2.8,0,0,1,53.14,115.24ZM50,121.06a1.82,1.82,0,0,0,1.2.38,2.7,2.7,0,0,0,1.17-.25,2.21,2.21,0,0,0,.87-.67,1.42,1.42,0,0,0,.33-.89V119a3.39,3.39,0,0,0-.88-.33,5,5,0,0,0-1.18-.14,2.29,2.29,0,0,0-1.41.4,1.26,1.26,0,0,0-.54,1.09A1.31,1.31,0,0,0,50,121.06Z"/><path class="cls-5" d="M56.26,115.08h.8v1.39h0a3,3,0,0,1,1.05-1.09,2.77,2.77,0,0,1,1.51-.44,3,3,0,0,1,2.71,1.68,4.38,4.38,0,0,1,.41,1.95,4.19,4.19,0,0,1-.44,2,3,3,0,0,1-1.18,1.24,3.16,3.16,0,0,1-1.6.42,2.54,2.54,0,0,1-1.43-.4,2.71,2.71,0,0,1-1-1h0V125h-.85Zm1.11,5a2.45,2.45,0,0,0,.86,1,2.33,2.33,0,0,0,2.47,0,2.48,2.48,0,0,0,.86-1,3.39,3.39,0,0,0,.32-1.51,3.44,3.44,0,0,0-.32-1.52,2.36,2.36,0,0,0-.86-1,2.25,2.25,0,0,0-1.21-.35,2.27,2.27,0,0,0-1.18.34,2.44,2.44,0,0,0-.91,1,3.21,3.21,0,0,0-.34,1.54A3.42,3.42,0,0,0,57.37,120.07Z"/><path class="cls-5" d="M65,111.93v4.36h0a2.87,2.87,0,0,1,1-1,2.78,2.78,0,0,1,1.43-.4,2.33,2.33,0,0,1,1.76.69,2.53,2.53,0,0,1,.67,1.84v4.62h-.83v-4.38a2.14,2.14,0,0,0-.46-1.47,1.57,1.57,0,0,0-1.23-.53,2.22,2.22,0,0,0-1.16.33,2.59,2.59,0,0,0-.87.87,2.26,2.26,0,0,0-.33,1.2v4h-.84V111.93Z"/><path class="cls-5" d="M71.91,112.7a.56.56,0,0,1,.44-.19.59.59,0,0,1,.46.19.61.61,0,0,1,.18.45.62.62,0,0,1-.18.44.61.61,0,0,1-.45.18.59.59,0,0,1-.44-.18.62.62,0,0,1-.18-.44A.6.6,0,0,1,71.91,112.7Zm0,2.38h.84v7H72Z"/><path class="cls-5" d="M79.18,115.28a3.58,3.58,0,0,1,1.1.83l-.56.53a2.8,2.8,0,0,0-.84-.66,2.4,2.4,0,0,0-1.14-.27,2.33,2.33,0,0,0-1.79.76,3,3,0,0,0-.69,2.09,3.53,3.53,0,0,0,.31,1.54,2.33,2.33,0,0,0,2.16,1.34,2.53,2.53,0,0,0,2.15-1.18l.59.49a3.27,3.27,0,0,1-1.11,1,3.24,3.24,0,0,1-1.67.42,3.36,3.36,0,0,1-1.72-.44,3.06,3.06,0,0,1-1.17-1.27,4.23,4.23,0,0,1-.42-1.94,4,4,0,0,1,.43-1.9A3.08,3.08,0,0,1,76,115.4a3.26,3.26,0,0,1,1.74-.46A3,3,0,0,1,79.18,115.28Z"/><path class="cls-5" d="M84.89,112.33h3.37a4.6,4.6,0,0,1,2.42.63,4.29,4.29,0,0,1,1.6,1.75,5.37,5.37,0,0,1,.57,2.49,5.31,5.31,0,0,1-.58,2.49,4.51,4.51,0,0,1-1.62,1.76,4.45,4.45,0,0,1-2.39.64H84.89Zm3.27,9a3.69,3.69,0,0,0,2-.52,3.52,3.52,0,0,0,1.33-1.45,5.23,5.23,0,0,0,0-4.31,3.43,3.43,0,0,0-1.33-1.44,3.88,3.88,0,0,0-2-.5H85.78v8.22Z"/><path class="cls-5" d="M99,121.83a3.77,3.77,0,0,1-1.68.38,3.24,3.24,0,0,1-1.73-.46,3,3,0,0,1-1.16-1.28,4.46,4.46,0,0,1,0-3.78,3.09,3.09,0,0,1,1.16-1.29,3.29,3.29,0,0,1,1.71-.46,3,3,0,0,1,1.62.44,2.81,2.81,0,0,1,1.1,1.25,4.51,4.51,0,0,1,.39,1.94v.29H94.87a2.8,2.8,0,0,0,.68,1.86,2.32,2.32,0,0,0,1.82.72,2.55,2.55,0,0,0,1.28-.31,2.65,2.65,0,0,0,.91-.81l.54.54A2.87,2.87,0,0,1,99,121.83Zm.55-3.7a2.56,2.56,0,0,0-.66-1.76,2.11,2.11,0,0,0-1.6-.66,2.25,2.25,0,0,0-1.67.68,2.72,2.72,0,0,0-.74,1.74Z"/><path class="cls-5" d="M102.62,121.11a2.61,2.61,0,0,0,1.32.33,2.06,2.06,0,0,0,1.16-.3,1,1,0,0,0,.46-.88,1,1,0,0,0-.45-.91,4.92,4.92,0,0,0-1.49-.51,4.07,4.07,0,0,1-1.66-.71,1.53,1.53,0,0,1-.58-1.27,1.61,1.61,0,0,1,.71-1.41,2.83,2.83,0,0,1,1.7-.51,3.19,3.19,0,0,1,1.45.33,2.77,2.77,0,0,1,1,.79l-.56.54a2.26,2.26,0,0,0-.81-.64,2.46,2.46,0,0,0-1.09-.25,1.82,1.82,0,0,0-1.07.3.93.93,0,0,0-.43.83.9.9,0,0,0,.25.67,1.7,1.7,0,0,0,.62.38,9.3,9.3,0,0,0,1,.28,4.23,4.23,0,0,1,1.69.74,1.59,1.59,0,0,1,.58,1.32,1.67,1.67,0,0,1-.75,1.47,3.08,3.08,0,0,1-1.8.51,3.46,3.46,0,0,1-1.67-.4,2.59,2.59,0,0,1-1.08-1l.58-.54A2.45,2.45,0,0,0,102.62,121.11Z"/><path class="cls-5" d="M108,112.7a.56.56,0,0,1,.44-.19.59.59,0,0,1,.46.19.61.61,0,0,1,.18.45.62.62,0,0,1-.18.44.61.61,0,0,1-.45.18.6.6,0,0,1-.44-.18.62.62,0,0,1-.18-.44A.64.64,0,0,1,108,112.7Zm0,2.38h.84v7h-.84Z"/><path class="cls-5" d="M110.84,123.86l.47-.63a3.06,3.06,0,0,0,2.41,1.08,2.34,2.34,0,0,0,1.77-.62,2.18,2.18,0,0,0,.59-1.6v-1.33h0a2.24,2.24,0,0,1-1,1,3,3,0,0,1-4.16-1.25,4.48,4.48,0,0,1,0-3.79,3.26,3.26,0,0,1,1.14-1.29,3,3,0,0,1,1.62-.46,2.61,2.61,0,0,1,1.47.43,2.47,2.47,0,0,1,1,1h0v-1.29h.8v7a2.85,2.85,0,0,1-.85,2.2,3.31,3.31,0,0,1-2.35.79A3.7,3.7,0,0,1,110.84,123.86Zm.85-3.83a2.3,2.3,0,0,0,.83,1,2.12,2.12,0,0,0,1.15.34,2.3,2.3,0,0,0,1.79-.75,2.82,2.82,0,0,0,.68-2,3.46,3.46,0,0,0-.33-1.57,2.45,2.45,0,0,0-.87-1,2.26,2.26,0,0,0-1.19-.34,2.13,2.13,0,0,0-1.21.36,2.46,2.46,0,0,0-.85,1,3.22,3.22,0,0,0-.31,1.45A3.42,3.42,0,0,0,111.69,120Z"/><path class="cls-5" d="M118.77,115.08h.82v1.23h0a2.79,2.79,0,0,1,1-1,2.84,2.84,0,0,1,1.44-.4,2.49,2.49,0,0,1,1.25.31,2.23,2.23,0,0,1,.89.86,2.61,2.61,0,0,1,.32,1.3v4.68h-.85v-4.41a2.1,2.1,0,0,0-.47-1.44,1.57,1.57,0,0,0-1.23-.53,2.24,2.24,0,0,0-1.15.32,2.59,2.59,0,0,0-.87.87,2.4,2.4,0,0,0-.32,1.21v4h-.85Z"/><path d="M53.84,148.7H69.28v1.83H53.84v12.26h-2V150.53H36.35V148.7H51.83V133.51H38v-1.83H67.67v1.83H53.84ZM41.21,136.22c1,1.24,2.08,2.72,3.32,4.43s2.31,3.26,3.23,4.65l-1.61,1.06c-.87-1.37-1.92-2.9-3.12-4.6s-2.32-3.18-3.32-4.48Zm16.65,9.08c.93-1.08,2.07-2.57,3.41-4.49s2.36-3.44,3.07-4.59l1.58,1.06c-.69,1.12-1.71,2.66-3.08,4.6s-2.5,3.44-3.4,4.51Z"/><path d="M104.41,133.51H89.34a30.15,30.15,0,0,1-1.83,4.91h14.67v24.29h-1.9v-2.45H76.45v2.42H74.59V138.42H85.27a28.56,28.56,0,0,0,1.91-4.91H72.5v-1.79h31.91Zm-22,6.7H76.45v18.37h5.93Zm1.87,4.94h8.27v-4.94H84.25Zm0,6.73h8.27v-5H84.25Zm8.27,1.72H84.25v5h8.27Zm1.87,5h5.89V140.21H94.39Z"/><path d="M120.62,155.58l-3.14,2.56-2.67,2.16a12.8,12.8,0,0,0-1.65,1.54L112,160.37a5.69,5.69,0,0,0,.79-1,1.62,1.62,0,0,0,.16-.8v-15h-5.27v-1.75h7.14V158l5-4.1Zm-4.31-17.86c-.74-.85-1.74-1.91-3-3.18s-2.33-2.26-3.13-3l1.28-1.31c.73.58,1.72,1.48,3,2.7s2.33,2.32,3.26,3.3ZM140,162.83a45.42,45.42,0,0,1-10.54-5.68,50,50,0,0,1-11.12,5.75l-1-1.72A46,46,0,0,0,128,156a22.08,22.08,0,0,1-6.26-9.12h-2v-1.75H137.6v1.79a21.25,21.25,0,0,1-6.66,9.15,39.37,39.37,0,0,0,10,4.94Zm-14.64-26.9a6.72,6.72,0,0,1-1.15,3.91,13.83,13.83,0,0,1-4.37,3.59l-1.32-1.5a18.89,18.89,0,0,0,3.15-2.18,5.23,5.23,0,0,0,1.44-2,7.4,7.4,0,0,0,.38-2.6v-3.73h11.68v6.88a1.92,1.92,0,0,0,.36,1.37,2.05,2.05,0,0,0,1.32.38h3.84l-.25,1.83h-3.77a4.41,4.41,0,0,1-2.65-.66,2.87,2.87,0,0,1-.79-2.37v-5.68h-7.87Zm-1.65,10.9a19.68,19.68,0,0,0,5.71,8,18.62,18.62,0,0,0,6.15-8Z"/><path d="M150.67,157.85q4.07-3,7.32-5.45l.73,1.86q-1.75,1.25-4.1,3t-4.06,3a14.47,14.47,0,0,0-1.54,1.46l-1.28-1.46a2.93,2.93,0,0,0,.77-.83,1.93,1.93,0,0,0,.18-.89V143.58h-5.45v-2h7.43Zm1.68-19.65q-1.4-1.68-4.35-5.09l-1.61-1.9,1.5-1.28,1.31,1.5c.69.8,1.45,1.68,2.29,2.63s1.64,1.88,2.4,2.78Zm14.09,4h10.14v2H166.44v18.66h-2V144.2H154.4v-2h10.06V129.56h2Z"/><path class="cls-4" d="M66,76.58a.3.3,0,0,1-.2-.08.29.29,0,0,1,0-.4l5.71-5.88L60.11,46.64,48.76,70.22l5.71,5.88a.27.27,0,0,1,0,.4.27.27,0,0,1-.39,0l-5.85-6a.29.29,0,0,1,0-.32L59.86,45.87a.3.3,0,0,1,.51,0L72.05,70.15a.29.29,0,0,1,0,.32l-5.84,6A.32.32,0,0,1,66,76.58Z"/><path class="cls-4" d="M72.33,76.58H47.81a.28.28,0,0,1,0-.56H72.33a.28.28,0,0,1,0,.56Z"/><path class="cls-4" d="M60.07,63.71h0a.28.28,0,0,1-.28-.28l0-17.44a.29.29,0,0,1,.28-.28h0a.28.28,0,0,1,.28.28l0,17.44A.27.27,0,0,1,60.07,63.71Z"/><path class="cls-4" d="M60.07,67.86a2.36,2.36,0,1,1,2.36-2.35A2.35,2.35,0,0,1,60.07,67.86Zm0-4.15a1.8,1.8,0,1,0,1.79,1.8A1.8,1.8,0,0,0,60.07,63.71Z"/><path class="cls-4" d="M83.59,40a1.53,1.53,0,1,1-1.52,1.53A1.53,1.53,0,0,1,83.59,40m0-.56a2.09,2.09,0,1,0,2.08,2.09,2.09,2.09,0,0,0-2.08-2.09Z"/><path class="cls-4" d="M63.18,44.51H57a.29.29,0,0,1-.28-.28V38.05a.29.29,0,0,1,.28-.28h6.18a.29.29,0,0,1,.28.28v6.18A.29.29,0,0,1,63.18,44.51ZM57.29,44H62.9V38.33H57.29Z"/><path class="cls-4" d="M83.59,65.74a.27.27,0,0,1-.28-.28C83.31,42,64,41.76,63.18,41.76h0a.29.29,0,0,1,0-.57H81.55a.29.29,0,0,1,0,.57H67.16c6,1.41,16.71,6.36,16.71,23.7A.28.28,0,0,1,83.59,65.74Z"/><path class="cls-4" d="M36.64,65.74a.27.27,0,0,1-.28-.28C36.36,48.12,47,43.17,53,41.76H38.64a.29.29,0,0,1,0-.57H57a.29.29,0,0,1,0,.57h0c-.82,0-20.08.28-20.08,23.7A.28.28,0,0,1,36.64,65.74Z"/><path class="cls-4" d="M36.64,40a1.53,1.53,0,1,1-1.53,1.53A1.53,1.53,0,0,1,36.64,40m0-.56a2.09,2.09,0,1,0,2.08,2.09,2.09,2.09,0,0,0-2.08-2.09Z"/><g class="cls-6"><path class="cls-4" d="M257.32,269.57a.94.94,0,0,1-.67-.28l-19.23-19.85a.91.91,0,0,1-.17-1l38.47-79.91a1,1,0,0,1,1.67,0l38.47,79.91a.91.91,0,0,1-.17,1l-19.23,19.85a.93.93,0,0,1-1.34-1.29l18.79-19.38L276.55,171,239.2,248.62,258,268a.92.92,0,0,1,0,1.31A.93.93,0,0,1,257.32,269.57Z"/><path class="cls-4" d="M316.78,269.57H236.07a.93.93,0,1,1,0-1.85h80.71a.93.93,0,1,1,0,1.85Z"/><path class="cls-4" d="M276.42,227.22h0a.93.93,0,0,1-.92-.93l.13-57.4a.93.93,0,0,1,.92-.93h0a.93.93,0,0,1,.92.93l-.13,57.41A.92.92,0,0,1,276.42,227.22Z"/><path class="cls-4" d="M276.42,240.87a7.75,7.75,0,1,1,7.75-7.75A7.75,7.75,0,0,1,276.42,240.87Zm0-13.65a5.9,5.9,0,1,0,5.9,5.9A5.9,5.9,0,0,0,276.42,227.22Z"/><path class="cls-4" d="M353.82,149a5,5,0,1,1-5,5,5,5,0,0,1,5-5m0-1.85a6.86,6.86,0,1,0,6.86,6.86,6.86,6.86,0,0,0-6.86-6.86Z"/><path class="cls-4" d="M286.65,164H266.33a.93.93,0,0,1-.93-.93V142.75a.92.92,0,0,1,.93-.92h20.32a.92.92,0,0,1,.93.92v20.33A.93.93,0,0,1,286.65,164Zm-19.4-1.85h18.48V143.68H267.25Z"/><path class="cls-4" d="M353.82,233.89a.92.92,0,0,1-.92-.92c0-31.9-11.44-55.5-33.06-68.24A73,73,0,0,0,286.65,155h0a.93.93,0,0,1-.06-1.85h60.52a.93.93,0,0,1,0,1.86H300a74,74,0,0,1,20.67,8.14c15.53,9.13,34,28.66,34,69.88A.93.93,0,0,1,353.82,233.89Z"/><path class="cls-4" d="M199.29,233.89a.93.93,0,0,1-.93-.92c0-22.75,5.9-53.35,34-69.88A73.63,73.63,0,0,1,253,155h-47.1a.93.93,0,0,1,0-1.86h60.5a.93.93,0,0,1,0,1.86h0a72.76,72.76,0,0,0-33.12,9.78c-21.59,12.74-33,36.34-33,68.24A.92.92,0,0,1,199.29,233.89Z"/><path class="cls-4" d="M199.29,149a5,5,0,1,1-5,5,5,5,0,0,1,5-5m0-1.85a6.86,6.86,0,1,0,6.86,6.86,6.86,6.86,0,0,0-6.86-6.86Z"/></g></g></g></svg>