<svg xmlns="http://www.w3.org/2000/svg" viewBox="0 0 384.85 291.04"><defs><style>.cls-1{fill:#fff;}.cls-2{fill:#dee7ff;}.cls-3{opacity:0.2;}.cls-4{fill:#5465cb;}.cls-5{fill:#4c4c4c;}.cls-6{opacity:0.1;}</style></defs><g id="图层_2" data-name="图层 2"><g id="图层_1-2" data-name="图层 1"><rect class="cls-1" x="0.48" y="0.48" width="383.9" height="290.08" rx="20.02"/><path class="cls-2" d="M364.36,291H20.5A20.53,20.53,0,0,1,0,270.54V20.5A20.52,20.52,0,0,1,20.5,0H364.36a20.51,20.51,0,0,1,20.49,20.5v250A20.52,20.52,0,0,1,364.36,291ZM20.5,1A19.57,19.57,0,0,0,1,20.5v250A19.56,19.56,0,0,0,20.5,290.08H364.36a19.56,19.56,0,0,0,19.54-19.54V20.5A19.57,19.57,0,0,0,364.36,1Z"/><g class="cls-3"><path class="cls-4" d="M40.05,260.52a8.38,8.38,0,0,1-3.13-3.45,12.23,12.23,0,0,1,0-10.18,8.41,8.41,0,0,1,3.13-3.46,8.53,8.53,0,0,1,4.58-1.25,8.63,8.63,0,0,1,4.63,1.25,8.41,8.41,0,0,1,3.13,3.46,12.23,12.23,0,0,1,0,10.18,8.38,8.38,0,0,1-3.13,3.45,8.71,8.71,0,0,1-4.63,1.23A8.61,8.61,0,0,1,40.05,260.52Zm-2.13-4a7.55,7.55,0,0,0,2.71,3.11,7.27,7.27,0,0,0,4,1.11,7.35,7.35,0,0,0,4.06-1.13,7.43,7.43,0,0,0,2.72-3.13,10.32,10.32,0,0,0,1-4.53,10.08,10.08,0,0,0-1-4.52,7.59,7.59,0,0,0-2.73-3.09,7.4,7.4,0,0,0-4-1.11,7.27,7.27,0,0,0-4,1.11,7.58,7.58,0,0,0-2.71,3.12,11.17,11.17,0,0,0,0,9.06Z"/><path class="cls-4" d="M56.37,260.44l6.59-7.9a20.39,20.39,0,0,0,2.18-3,5.48,5.48,0,0,0,.72-2.77,3.38,3.38,0,0,0-1.09-2.71,4.07,4.07,0,0,0-2.73-.93,4.43,4.43,0,0,0-3,1,5.12,5.12,0,0,0-1.66,2.73H56.25a5.89,5.89,0,0,1,2-3.44A5.66,5.66,0,0,1,62,242.18a5.24,5.24,0,0,1,3.59,1.21A4.26,4.26,0,0,1,67,246.8a5.88,5.88,0,0,1-.44,2.24,9.28,9.28,0,0,1-1,1.92c-.41.58-1,1.29-1.69,2.15-.1.13-.27.34-.51.61l-5.54,6.67v.05h9.51v.95H56.37Z"/></g><path class="cls-5" d="M36.33,122.09h-.87v-9.76h.87Z"/><path class="cls-5" d="M38.17,111.93H39v10.16h-.83Z"/><path class="cls-5" d="M40.82,111.93h.84v10.16h-.84Z"/><path class="cls-5" d="M44.56,121.92a2.17,2.17,0,0,1-.85-.85,2.52,2.52,0,0,1-.31-1.29v-4.7h.84v4.39a2.22,2.22,0,0,0,.42,1.47,1.57,1.57,0,0,0,1.25.5,2.15,2.15,0,0,0,1.08-.3,2.51,2.51,0,0,0,.85-.8,2,2,0,0,0,.32-1.08v-4.18H49v7h-.8v-1.16h0a2.92,2.92,0,0,1-2.42,1.28A2.43,2.43,0,0,1,44.56,121.92Z"/><path class="cls-5" d="M51.74,121.11a2.59,2.59,0,0,0,1.32.33,2.06,2.06,0,0,0,1.16-.3,1,1,0,0,0,.46-.88,1,1,0,0,0-.45-.91,4.92,4.92,0,0,0-1.49-.51,4.07,4.07,0,0,1-1.66-.71,1.53,1.53,0,0,1-.59-1.27,1.62,1.62,0,0,1,.72-1.41,2.83,2.83,0,0,1,1.7-.51,3.14,3.14,0,0,1,1.44.33,2.6,2.6,0,0,1,1,.79l-.55.54A2.35,2.35,0,0,0,54,116a2.49,2.49,0,0,0-1.09-.25,1.8,1.8,0,0,0-1.07.3.94.94,0,0,0-.44.83.9.9,0,0,0,.26.67,1.55,1.55,0,0,0,.62.38,9.67,9.67,0,0,0,1,.28,4.21,4.21,0,0,1,1.7.74,1.61,1.61,0,0,1,.58,1.32,1.67,1.67,0,0,1-.75,1.47,3.1,3.1,0,0,1-1.8.51,3.44,3.44,0,0,1-1.67-.4,2.68,2.68,0,0,1-1.09-1l.59-.54A2.45,2.45,0,0,0,51.74,121.11Z"/><path class="cls-5" d="M60.18,115.81h-2v4a2.94,2.94,0,0,0,.2,1.24.87.87,0,0,0,.85.39,2.54,2.54,0,0,0,.88-.15l.13.72a3.41,3.41,0,0,1-1.19.2c-1.14,0-1.7-.66-1.7-2v-4.41H55.89v-.73h1.49V112.9h.83v2.18h2Z"/><path class="cls-5" d="M61.45,115.08h.8v1.46h0a2.82,2.82,0,0,1,1-1.18,2.58,2.58,0,0,1,1.44-.42,1.77,1.77,0,0,1,.49.06l-.13.77a1.63,1.63,0,0,0-.47-.06,2,2,0,0,0-1.16.38,2.58,2.58,0,0,0-.83,1,3.67,3.67,0,0,0-.31,1.51v3.44h-.85Z"/><path class="cls-5" d="M69.73,115.24a2.18,2.18,0,0,1,.93.85,2.41,2.41,0,0,1,.35,1.3v4.7H70.2V121h0a3,3,0,0,1-1,.87,3.09,3.09,0,0,1-1.49.34,2.84,2.84,0,0,1-1.2-.26,2.11,2.11,0,0,1-.87-.75,2.08,2.08,0,0,1-.32-1.14,2,2,0,0,1,.78-1.64,3.19,3.19,0,0,1,2-.61,4.9,4.9,0,0,1,2.09.41v-.78a1.64,1.64,0,0,0-.49-1.26,1.77,1.77,0,0,0-1.26-.47,2.62,2.62,0,0,0-2.17,1.08l-.57-.54a3.27,3.27,0,0,1,1.16-.93,3.36,3.36,0,0,1,1.59-.38A2.8,2.8,0,0,1,69.73,115.24Zm-3.13,5.82a1.83,1.83,0,0,0,1.21.38,2.69,2.69,0,0,0,1.16-.25,2.21,2.21,0,0,0,.87-.67,1.42,1.42,0,0,0,.33-.89V119a3.39,3.39,0,0,0-.88-.33,5,5,0,0,0-1.18-.14,2.33,2.33,0,0,0-1.41.4,1.26,1.26,0,0,0-.54,1.09A1.34,1.34,0,0,0,66.6,121.06Z"/><path class="cls-5" d="M76.32,115.81h-2v4a2.94,2.94,0,0,0,.2,1.24.87.87,0,0,0,.85.39,2.54,2.54,0,0,0,.88-.15l.13.72a3.41,3.41,0,0,1-1.19.2c-1.14,0-1.7-.66-1.7-2v-4.41H72v-.73h1.49V112.9h.83v2.18h2Z"/><path class="cls-5" d="M77.77,112.7a.55.55,0,0,1,.44-.19.62.62,0,0,1,.63.64.6.6,0,0,1-.62.62.59.59,0,0,1-.44-.18.62.62,0,0,1-.18-.44A.6.6,0,0,1,77.77,112.7Zm0,2.38h.84v7h-.84Z"/><path class="cls-5" d="M80.66,116.67a3.06,3.06,0,0,1,1.17-1.27,3.56,3.56,0,0,1,3.5,0,3.06,3.06,0,0,1,1.17,1.27,4.16,4.16,0,0,1,.42,1.91,4.11,4.11,0,0,1-.42,1.91,3.12,3.12,0,0,1-1.17,1.27,3.63,3.63,0,0,1-3.5,0,3.12,3.12,0,0,1-1.17-1.27,4.11,4.11,0,0,1-.42-1.91A4.16,4.16,0,0,1,80.66,116.67Zm.77,3.4a2.35,2.35,0,0,0,.88,1,2.31,2.31,0,0,0,1.28.36,2.31,2.31,0,0,0,2.14-1.37,3.71,3.71,0,0,0,0-3,2.36,2.36,0,0,0-3.42-1,2.38,2.38,0,0,0-.88,1,3.71,3.71,0,0,0,0,3Z"/><path class="cls-5" d="M88.4,115.08h.82v1.23h0a2.79,2.79,0,0,1,1-1,2.84,2.84,0,0,1,1.44-.4,2.49,2.49,0,0,1,1.25.31,2.23,2.23,0,0,1,.89.86,2.61,2.61,0,0,1,.32,1.3v4.68h-.85v-4.41a2.1,2.1,0,0,0-.47-1.44,1.57,1.57,0,0,0-1.24-.53,2.21,2.21,0,0,0-1.14.32,2.59,2.59,0,0,0-.87.87,2.4,2.4,0,0,0-.32,1.21v4H88.4Z"/><path class="cls-5" d="M99.29,112.33h3.48a3.83,3.83,0,0,1,2.42.7,2.58,2.58,0,0,1,.9,2.17,2.65,2.65,0,0,1-.88,2.18,3.36,3.36,0,0,1-2.21.73h-2.82v4h-.89Zm3.6,5a2.41,2.41,0,0,0,1.67-.53,2.32,2.32,0,0,0,0-3.17,2.5,2.5,0,0,0-1.66-.53h-2.71v4.23Z"/><path class="cls-5" d="M110.87,115.24a2.18,2.18,0,0,1,.93.85,2.41,2.41,0,0,1,.35,1.3v4.7h-.81V121h0a3,3,0,0,1-1,.87,3.13,3.13,0,0,1-1.5.34,2.76,2.76,0,0,1-1.19-.26,2.05,2.05,0,0,1-1.2-1.89,2,2,0,0,1,.78-1.64,3.22,3.22,0,0,1,2-.61,4.85,4.85,0,0,1,2.08.41v-.78a1.64,1.64,0,0,0-.49-1.26,1.77,1.77,0,0,0-1.26-.47,2.62,2.62,0,0,0-2.17,1.08l-.57-.54a3.27,3.27,0,0,1,1.16-.93,3.39,3.39,0,0,1,1.59-.38A2.8,2.8,0,0,1,110.87,115.24Zm-3.12,5.82a1.78,1.78,0,0,0,1.2.38,2.77,2.77,0,0,0,1.17-.25,2.36,2.36,0,0,0,.87-.67,1.47,1.47,0,0,0,.32-.89V119a3.25,3.25,0,0,0-.88-.33,5,5,0,0,0-1.18-.14,2.28,2.28,0,0,0-1.4.4,1.25,1.25,0,0,0-.55,1.09A1.32,1.32,0,0,0,107.75,121.06Z"/><path class="cls-5" d="M114.17,112.7a.55.55,0,0,1,.44-.19.6.6,0,0,1,.46.19.61.61,0,0,1,.18.45.62.62,0,0,1-.18.44.61.61,0,0,1-.45.18.59.59,0,0,1-.44-.18.62.62,0,0,1-.18-.44A.6.6,0,0,1,114.17,112.7Zm0,2.38h.84v7h-.84Z"/><path class="cls-5" d="M117.08,115.08h.82v1.23h0a2.79,2.79,0,0,1,1-1,2.84,2.84,0,0,1,1.44-.4,2.56,2.56,0,0,1,1.26.31,2.21,2.21,0,0,1,.88.86,2.61,2.61,0,0,1,.32,1.3v4.68H122v-4.41a2.1,2.1,0,0,0-.47-1.44,1.57,1.57,0,0,0-1.23-.53,2.24,2.24,0,0,0-1.15.32,2.59,2.59,0,0,0-.87.87,2.4,2.4,0,0,0-.32,1.21v4h-.85Z"/><path class="cls-5" d="M128.12,115.81h-2v4a2.94,2.94,0,0,0,.2,1.24.86.86,0,0,0,.85.39,2.58,2.58,0,0,0,.88-.15l.13.72a3.41,3.41,0,0,1-1.19.2c-1.14,0-1.7-.66-1.7-2v-4.41h-1.49v-.73h1.49V112.9h.83v2.18h2Z"/><path class="cls-5" d="M129.57,112.7a.54.54,0,0,1,.43-.19.59.59,0,0,1,.46.19.61.61,0,0,1,.18.45.62.62,0,0,1-.18.44.6.6,0,0,1-.44.18.61.61,0,0,1-.45-.18.62.62,0,0,1-.18-.44A.61.61,0,0,1,129.57,112.7Zm0,2.38h.83v7h-.83Z"/><path class="cls-5" d="M132.48,115.08h.82v1.23h0a2.89,2.89,0,0,1,2.43-1.37,2.49,2.49,0,0,1,1.25.31,2.23,2.23,0,0,1,.89.86,2.6,2.6,0,0,1,.31,1.3v4.68h-.84v-4.41a2.1,2.1,0,0,0-.47-1.44,1.57,1.57,0,0,0-1.24-.53,2.21,2.21,0,0,0-1.14.32,2.59,2.59,0,0,0-.87.87,2.31,2.31,0,0,0-.32,1.21v4h-.85Z"/><path class="cls-5" d="M139.94,123.86l.48-.63a3.06,3.06,0,0,0,2.41,1.08,2.37,2.37,0,0,0,1.77-.62,2.22,2.22,0,0,0,.59-1.6v-1.33h0a2.3,2.3,0,0,1-1,1,3.09,3.09,0,0,1-3.06,0,3.06,3.06,0,0,1-1.11-1.22,4.2,4.2,0,0,1-.41-1.91,4.1,4.1,0,0,1,.42-1.88,3.26,3.26,0,0,1,1.14-1.29,3,3,0,0,1,1.62-.46,2.83,2.83,0,0,1,2.43,1.43h0v-1.29h.8v7a2.88,2.88,0,0,1-.85,2.2,3.31,3.31,0,0,1-2.35.79A3.73,3.73,0,0,1,139.94,123.86Zm.85-3.83a2.37,2.37,0,0,0,.83,1,2.15,2.15,0,0,0,1.15.34,2.32,2.32,0,0,0,1.8-.75,2.81,2.81,0,0,0,.67-2,3.6,3.6,0,0,0-.32-1.57,2.45,2.45,0,0,0-.87-1,2.29,2.29,0,0,0-1.2-.34,2.12,2.12,0,0,0-1.2.36,2.46,2.46,0,0,0-.85,1,3.22,3.22,0,0,0-.31,1.45A3.57,3.57,0,0,0,140.79,120Z"/><path d="M42.75,129.45v6.48h3.66v1.94H42.75v7l3.37-1.54.22,2c-1.37.63-2.57,1.17-3.59,1.61v12a3.19,3.19,0,0,1-.71,2.38,3.64,3.64,0,0,1-2.47.66,22.1,22.1,0,0,1-2.71-.15l-.33-1.9a15.65,15.65,0,0,0,2.63.22,1.93,1.93,0,0,0,1.39-.38,2,2,0,0,0,.37-1.38V147.71q-3.41,1.42-4.72,1.94l-.26-1.94c1.3-.51,3-1.19,5-2.05v-7.79H36.46v-1.94h4.46v-6.48Zm16,29h7v-5.38h-5v-1.68h5v-5.13H60.57v-1.75h7v18H65.8v-2.34H50v2.38H48.2V145.15a31.09,31.09,0,0,0,3.22-.93c1.17-.41,2.17-.8,3-1.19l.59,1.68a30.38,30.38,0,0,1-5,1.9v4.8h4.9v1.68H50v5.38h7V140.21H47.32v-1.79H57v-5q-5.79.54-8.89.66l-.15-1.76q3.81-.18,9.88-.75t10-1.19l.33,1.76q-3.77.58-9.33,1.09v5.24H69.35v1.79H58.78Z"/><path d="M72.25,133.77V132h32.56v1.79Zm4.2,25.07h24.12V137.1h1.9v25.69h-1.9v-2.12h-26V137.1h1.86Zm4.14-4.43V137.79H96.43v16.62Zm7.1-9.22v-5.68H82.38v5.68Zm0,1.61H82.38v5.92h5.31Zm1.72-1.61h5.27v-5.68H89.41Zm0,1.61v5.92h5.27V146.8Z"/><path d="M107.41,158.8c1.78-.39,3.86-.89,6.22-1.5s4.33-1.15,5.9-1.61l.14,1.9q-2.34.71-5.82,1.59c-2.31.6-4.34,1.1-6.07,1.49Zm.55-15.3-.4-1.86a7.18,7.18,0,0,0,.73-.31,1.34,1.34,0,0,0,.4-.39q1.32-2,3-5.23t2.86-6l1.72.73q-1.24,2.86-2.91,6a49.17,49.17,0,0,1-2.91,5l5.67-1c1.12-2,1.95-3.5,2.49-4.58l1.57.85q-1.64,3.28-4.08,7.37t-4.33,6.64l6.91-1.72.08,1.69q-3.7.91-6.48,1.53l-1.79.44-1.5.4-.48-2.05a5.66,5.66,0,0,0,1.06-.43,3,3,0,0,0,.7-.74q2.42-3.44,4.83-7.61l-5.6,1Zm23.09-13.21a27.21,27.21,0,0,0,4.27,6.44,26.47,26.47,0,0,0,5.8,5l-1,1.68a29.35,29.35,0,0,1-10-11,31.21,31.21,0,0,1-4,5.81,32.81,32.81,0,0,1-5.64,5.31L119.45,142a31.51,31.51,0,0,0,5.78-5.5,28.06,28.06,0,0,0,4-6.21ZM120.4,151v-1.79h19.69V151H128.6a78.9,78.9,0,0,1-5.34,8.82q7.32-.81,12.51-1.32c-1.27-2-2.3-3.59-3.11-4.76l1.47-.91q1,1.35,2.76,4c1.18,1.79,2.2,3.4,3.06,4.81l-1.54,1.06-1.72-2.81c-2.3.27-5.39.61-9.3,1l-3.77.4-3,.33-.4-1.64a2.62,2.62,0,0,0,1.2-.77,62.07,62.07,0,0,0,5.09-8.27Zm2.6-6.85v-1.71h13.4v1.71Z"/><path d="M143.6,133.77V132h32.57v1.79Zm4.21,25.07h24.12V137.1h1.9v25.69h-1.9v-2.12H146V137.1h1.86Zm4.14-4.43V137.79h15.84v16.62Zm7.1-9.22v-5.68h-5.31v5.68Zm0,1.61h-5.31v5.92h5.31Zm1.72-1.61H166v-5.68h-5.27Zm0,1.61v5.92H166V146.8Z"/><path class="cls-4" d="M85,76.58H37.16a2.9,2.9,0,0,1-2.89-2.89V40a2.9,2.9,0,0,1,2.89-2.89H85A2.9,2.9,0,0,1,87.9,40V73.69A2.9,2.9,0,0,1,85,76.58ZM37.16,37.71A2.34,2.34,0,0,0,34.83,40V73.69A2.34,2.34,0,0,0,37.16,76H85a2.33,2.33,0,0,0,2.33-2.33V40A2.33,2.33,0,0,0,85,37.71Z"/><path class="cls-4" d="M82.51,45.59H39.65a2.86,2.86,0,0,1,0-5.72H82.51a2.86,2.86,0,0,1,0,5.72ZM39.65,40.43a2.3,2.3,0,0,0,0,4.59H82.51a2.3,2.3,0,1,0,0-4.59Z"/><path class="cls-4" d="M61.08,45.59a.29.29,0,0,1-.28-.29V40.15a.29.29,0,0,1,.28-.28.28.28,0,0,1,.28.28V45.3A.28.28,0,0,1,61.08,45.59Z"/><path class="cls-4" d="M46.86,45.59a.29.29,0,0,1-.29-.29V40.15a.29.29,0,0,1,.57,0V45.3A.29.29,0,0,1,46.86,45.59Z"/><path class="cls-4" d="M75.31,45.59A.29.29,0,0,1,75,45.3V40.15a.29.29,0,0,1,.28-.28.28.28,0,0,1,.28.28V45.3A.28.28,0,0,1,75.31,45.59Z"/><path class="cls-4" d="M71.79,68.49A1.38,1.38,0,0,1,71,68.2L52.45,53.82a.27.27,0,0,1-.09-.12l-1.22-3.05a.28.28,0,0,1,0-.28.26.26,0,0,1,.26-.1l3.23.46a.31.31,0,0,1,.13.06L73.3,65.18a1.31,1.31,0,0,1,.52.91,1.33,1.33,0,0,1-.25,1l0,0-.67.86a1.35,1.35,0,0,1-.92.52ZM52.85,53.42,71.3,67.76a.79.79,0,0,0,.59.16.76.76,0,0,0,.54-.3l.65-.84,0,0A.82.82,0,0,0,73,65.62L54.51,51.28l-2.67-.39Z"/><g class="cls-6"><path class="cls-4" d="M362.08,269.55H207.14a9.38,9.38,0,0,1-9.37-9.36v-109a9.39,9.39,0,0,1,9.37-9.37H362.08a9.38,9.38,0,0,1,9.37,9.37v109A9.37,9.37,0,0,1,362.08,269.55ZM207.14,143.67a7.55,7.55,0,0,0-7.54,7.54v109a7.55,7.55,0,0,0,7.54,7.54H362.08a7.55,7.55,0,0,0,7.55-7.54v-109a7.55,7.55,0,0,0-7.55-7.54Z"/><path class="cls-4" d="M354,169.17H215.21a9.26,9.26,0,1,1,0-18.51H354a9.26,9.26,0,1,1,0,18.51Zm-138.8-16.69a7.44,7.44,0,0,0,0,14.87H354a7.44,7.44,0,1,0,0-14.87Z"/><path class="cls-4" d="M284.61,169.17a.91.91,0,0,1-.91-.91V151.57a.91.91,0,0,1,1.82,0v16.69A.91.91,0,0,1,284.61,169.17Z"/><path class="cls-4" d="M238.53,169.17a.91.91,0,0,1-.91-.91V151.57a.91.91,0,0,1,1.82,0v16.69A.91.91,0,0,1,238.53,169.17Z"/><path class="cls-4" d="M330.69,169.17a.91.91,0,0,1-.91-.91V151.57a.91.91,0,1,1,1.82,0v16.69A.91.91,0,0,1,330.69,169.17Z"/><path class="cls-4" d="M319.29,243.36a4.4,4.4,0,0,1-2.7-.93h0l-59.92-46.59a.9.9,0,0,1-.29-.38l-4-9.88a.92.92,0,0,1,.13-.9.93.93,0,0,1,.85-.34l10.45,1.51a.93.93,0,0,1,.43.19l59.93,46.58a4.46,4.46,0,0,1,1.68,3,4.4,4.4,0,0,1-.83,3.18l-.06.1-2.17,2.79a4.42,4.42,0,0,1-3,1.68A3.43,3.43,0,0,1,319.29,243.36Zm-1.6-2.38a2.63,2.63,0,0,0,3.68-.46l2.1-2.71.06-.08h0a2.58,2.58,0,0,0,.53-1.93,2.63,2.63,0,0,0-1-1.75l-59.74-46.44-8.65-1.25,3.28,8.18L317.68,241Z"/></g></g></g></svg>