<svg xmlns="http://www.w3.org/2000/svg" viewBox="0 0 276.2 78.18"><defs><style>.cls-1{fill:#353535;}.cls-2{fill:#b7b7b7;}</style></defs><g id="图层_2" data-name="图层 2"><g id="图层_1-2" data-name="图层 1"><path class="cls-1" d="M18.33,57.87l.76,5.18-8,2.79q-6.81,2.39-9.65,3.35L0,62.64l6.86-1.72v-20h-6V35H18.13v5.89H13V59.24Zm17.93-9.45V59q0,10.41-10.11,15.94a42,42,0,0,1-7.77,3.2,17.35,17.35,0,0,0-3.55-4.42,2.86,2.86,0,0,1-.36-.3Q27.37,70.21,29.55,63a14.56,14.56,0,0,0,.51-4V48.42ZM20.26,41h7.47C28.54,38.67,29,37.32,29.1,37H18.84V31.46h30V37H36.36c-.31.64-.76,1.54-1.37,2.69A13.29,13.29,0,0,0,34.23,41h12V65.23H39.91V46.39H26.36v19h-6.1ZM34.48,69.65,38.29,66a68.44,68.44,0,0,1,11.17,7.66l-4.11,4.22A66.64,66.64,0,0,0,34.48,69.65Z"/><path class="cls-1" d="M57,32.28H93.86V77.47H87.31V74.22H63.24v3.25H57Zm30.31,6H63.24v6H87.31Zm0,11.78H63.24v6.15H87.31ZM63.24,68.23H87.31V62.08H63.24Z"/><path class="cls-1" d="M118.56,30.25h17.73a32.29,32.29,0,0,0,9.34,15.84A25.65,25.65,0,0,0,151.06,50a22,22,0,0,0-4,5,7,7,0,0,0-.4.71,34.14,34.14,0,0,1-5.08-4v.46q-.81,17.62-2.49,21.79a6.36,6.36,0,0,1-.86,1.52,7.36,7.36,0,0,1-4.62,2.34,1.05,1.05,0,0,1-.26,0,74.77,74.77,0,0,1-7.56.1h0A12.31,12.31,0,0,0,123.85,72a.74.74,0,0,0-.11-.16q3.41.32,6.86.31a3.17,3.17,0,0,0,2.13-.71Q134.26,70,135,58.33c0-.95.08-2,.15-3H125q-3.2,14.93-13.66,21.53a25.93,25.93,0,0,1-2.28,1.32,24.9,24.9,0,0,0-4.67-4.57l-.21-.15Q114.51,69,117.75,57.57c.21-.75.39-1.51.56-2.29h-7.67v-3.2a40,40,0,0,1-3.91,4.06,46.09,46.09,0,0,0-5.18-4.57,31,31,0,0,0,9.75-13.2c.41-1,.76-2,1.07-2.95l6.5,1.63a50.22,50.22,0,0,1-6.25,12.44h26.92a43.79,43.79,0,0,1-8-13.46h-13Z"/><path class="cls-1" d="M200.29,65.13H182.52q5.58,5.85,19,6.76a22.46,22.46,0,0,0-3.76,5.78l-.15.31q-11.88-1.58-17.77-7.16a22.66,22.66,0,0,1-2.75-3.2q-3.71,6.09-14,8.89-3.19.85-7.11,1.52a17.74,17.74,0,0,0-2.95-5.59.93.93,0,0,1-.2-.25q12.45-1.62,16.66-5.43A13.52,13.52,0,0,0,171,65.13H154.13V59.34h19.15c.27-1.45.47-2.89.6-4.31h6.4c-.07,1.11-.23,2.55-.5,4.31h8.07a66.37,66.37,0,0,0-6-2.89l3.45-2.85a51.44,51.44,0,0,1,8.28,3.86l-2.24,1.88h9ZM173.83,54v-6.6a41.16,41.16,0,0,1-16.6,9.34,26.52,26.52,0,0,0-4.11-5.28,39.36,39.36,0,0,0,15.53-6.85h-14V38.93H164a31.64,31.64,0,0,0-4.47-6.2l5.34-2.28a26.12,26.12,0,0,1,5.48,7.26l-2.74,1.22h6.24v-9.4H180v9.4h6.24L183.58,38a44.86,44.86,0,0,0,5-7.87l6.65,1.93a87.22,87.22,0,0,1-5.63,6.86h10.36v5.69H185.11a39.23,39.23,0,0,0,16,6.34,20,20,0,0,0-3.75,5,.5.5,0,0,1-.11.2,37.6,37.6,0,0,1-17.31-9V54Z"/><path class="cls-2" d="M6.37.29A7.11,7.11,0,0,1,9.55,1a5.4,5.4,0,0,1,2.2,1.94,5.16,5.16,0,0,1,.79,2.82,5.2,5.2,0,0,1-.78,2.82,5.3,5.3,0,0,1-2.18,1.92,7.35,7.35,0,0,1-3.21.68H3.11v6.7H1V.29Zm-.26,9a4.37,4.37,0,0,0,3.09-1,3.3,3.3,0,0,0,1.08-2.55A3.36,3.36,0,0,0,9.2,3.17a4.37,4.37,0,0,0-3.09-1h-3V9.29Z"/><path class="cls-2" d="M28,17.86H25.33l-5.09-7.2H16.76v7.2H14.63V.29H20a7.44,7.44,0,0,1,3.2.65,5.13,5.13,0,0,1,2.19,1.83A4.93,4.93,0,0,1,26.2,5.5a4.67,4.67,0,0,1-1,3A5.47,5.47,0,0,1,22.5,10.3ZM16.76,2.16V8.78h3a4.71,4.71,0,0,0,3.11-.9A3,3,0,0,0,23.94,5.5a3.06,3.06,0,0,0-1.07-2.42,4.66,4.66,0,0,0-3.11-.92Z"/><path class="cls-2" d="M29.34,4.27A7.62,7.62,0,0,1,32.18,1.1,7.74,7.74,0,0,1,36.25,0a7.57,7.57,0,0,1,4.07,1.12,7.66,7.66,0,0,1,2.84,3.16,10.47,10.47,0,0,1,1,4.77,10.4,10.4,0,0,1-1,4.79A7.8,7.8,0,0,1,40.31,17a7.51,7.51,0,0,1-4.06,1.12A7.74,7.74,0,0,1,32.18,17a7.62,7.62,0,0,1-2.84-3.17,10.6,10.6,0,0,1-1-4.8A10.54,10.54,0,0,1,29.34,4.27Zm1.91,8.47a5.55,5.55,0,0,0,2,2.51,5.15,5.15,0,0,0,3,.9,5.1,5.1,0,0,0,3-.9,5.68,5.68,0,0,0,2-2.51,9.1,9.1,0,0,0,.7-3.69,9.18,9.18,0,0,0-.7-3.72,5.65,5.65,0,0,0-2-2.5,5.53,5.53,0,0,0-6,0,5.65,5.65,0,0,0-2,2.5,9.18,9.18,0,0,0-.7,3.72A9.27,9.27,0,0,0,31.25,12.74Z"/><path class="cls-2" d="M45.47,17.35A3.65,3.65,0,0,1,43.91,15l1.68-1a2.56,2.56,0,0,0,2.64,2.13,2.18,2.18,0,0,0,2-1,5.33,5.33,0,0,0,.61-2.81V.29H53V12.6a5.77,5.77,0,0,1-1.32,4.19,4.57,4.57,0,0,1-3.4,1.33A4.93,4.93,0,0,1,45.47,17.35Z"/><path class="cls-2" d="M66.23,9.72H58.5V16h8.9v1.9h-11V.26H67.14v1.9H58.5V7.82h7.73Z"/><path class="cls-2" d="M81.11,13.49l1.72,1a5.73,5.73,0,0,1-2.3,2.66,6.73,6.73,0,0,1-3.6,1A7.44,7.44,0,0,1,72.87,17,8.12,8.12,0,0,1,70,13.75a10.2,10.2,0,0,1-1-4.7,10.27,10.27,0,0,1,1-4.71,8.07,8.07,0,0,1,2.88-3.2A7.52,7.52,0,0,1,76.93,0a6.73,6.73,0,0,1,3.6,1,5.73,5.73,0,0,1,2.3,2.66l-1.72,1A4.46,4.46,0,0,0,76.88,2a5.05,5.05,0,0,0-3,.89,5.68,5.68,0,0,0-2,2.49,9.15,9.15,0,0,0-.71,3.7,9.23,9.23,0,0,0,.71,3.71,5.65,5.65,0,0,0,2,2.5,5.05,5.05,0,0,0,3,.89A4.46,4.46,0,0,0,81.11,13.49Z"/><path class="cls-2" d="M83.17.29H96.23V2.18H90.75V17.86H88.62V2.18H83.17Z"/><path class="cls-2" d="M114.44,13.49l1.73,1a5.79,5.79,0,0,1-2.3,2.66,6.75,6.75,0,0,1-3.6,1A7.42,7.42,0,0,1,106.21,17a8,8,0,0,1-2.88-3.22,10.07,10.07,0,0,1-1.06-4.7,10.15,10.15,0,0,1,1.06-4.71,7.92,7.92,0,0,1,2.88-3.2A7.49,7.49,0,0,1,110.27,0a6.75,6.75,0,0,1,3.6,1,5.79,5.79,0,0,1,2.3,2.66l-1.73,1A4.45,4.45,0,0,0,110.22,2a5.11,5.11,0,0,0-3,.89,5.73,5.73,0,0,0-2,2.49,9,9,0,0,0-.71,3.7,9.06,9.06,0,0,0,.71,3.71,5.7,5.7,0,0,0,2,2.5,5.11,5.11,0,0,0,3,.89A4.45,4.45,0,0,0,114.44,13.49Z"/><path class="cls-2" d="M118.18.29h2.14V15.94H129v1.92h-10.8Z"/><path class="cls-2" d="M137.79.29l7.06,17.57h-2.38l-1.94-5h-7.27l-1.85,5h-2.16L136,.29Zm2,10.61-3-7.76L134,10.9Z"/><path class="cls-2" d="M156.85,15.66a4.69,4.69,0,0,1-2,1.81,7.32,7.32,0,0,1-3.19.65,7.83,7.83,0,0,1-4.4-1.2,5.64,5.64,0,0,1-2.4-3.19l1.73-1a5.07,5.07,0,0,0,5.09,3.43,4.16,4.16,0,0,0,2.69-.77,2.57,2.57,0,0,0,1-2.13,2.62,2.62,0,0,0-.6-1.79,4.12,4.12,0,0,0-1.48-1.07,24.24,24.24,0,0,0-2.41-.84,22.18,22.18,0,0,1-2.75-1,4.51,4.51,0,0,1-1.76-1.37,3.73,3.73,0,0,1-.72-2.4,4.36,4.36,0,0,1,.77-2.6A4.78,4.78,0,0,1,148.46.56a8,8,0,0,1,3-.56,6.42,6.42,0,0,1,3.8,1,5,5,0,0,1,2,2.62l-1.73,1a4.8,4.8,0,0,0-1.53-2,4.2,4.2,0,0,0-2.58-.72,4.25,4.25,0,0,0-2.61.74,2.3,2.3,0,0,0-1,1.95,2.08,2.08,0,0,0,.54,1.49,3.87,3.87,0,0,0,1.36.91,22.68,22.68,0,0,0,2.23.75,21.83,21.83,0,0,1,2.91,1,5.07,5.07,0,0,1,1.89,1.51,4.17,4.17,0,0,1,.79,2.66A5.17,5.17,0,0,1,156.85,15.66Z"/><path class="cls-2" d="M170.53,15.66a4.69,4.69,0,0,1-2,1.81,7.32,7.32,0,0,1-3.19.65,7.83,7.83,0,0,1-4.4-1.2,5.64,5.64,0,0,1-2.4-3.19l1.73-1a5.07,5.07,0,0,0,5.09,3.43,4.16,4.16,0,0,0,2.69-.77,2.57,2.57,0,0,0,1-2.13,2.62,2.62,0,0,0-.6-1.79,4.12,4.12,0,0,0-1.48-1.07,24.24,24.24,0,0,0-2.41-.84,22.18,22.18,0,0,1-2.75-1A4.51,4.51,0,0,1,160,7.22a3.73,3.73,0,0,1-.72-2.4,4.36,4.36,0,0,1,.77-2.6A4.78,4.78,0,0,1,162.14.56a8,8,0,0,1,3-.56A6.42,6.42,0,0,1,169,1a5,5,0,0,1,2,2.62l-1.73,1a4.8,4.8,0,0,0-1.53-2,4.2,4.2,0,0,0-2.58-.72,4.25,4.25,0,0,0-2.61.74,2.3,2.3,0,0,0-1,1.95A2.08,2.08,0,0,0,162,6.12,3.87,3.87,0,0,0,163.4,7a22.68,22.68,0,0,0,2.23.75,21.83,21.83,0,0,1,2.91,1,5.07,5.07,0,0,1,1.89,1.51,4.17,4.17,0,0,1,.79,2.66A5.17,5.17,0,0,1,170.53,15.66Z"/><path class="cls-2" d="M175.47,17.86h-2.13V.29h2.13Z"/><path class="cls-2" d="M179.05.29h10.77V2.18h-8.64V8.11h7.73V10h-7.73v7.85h-2.13Z"/><path class="cls-2" d="M194.14,17.86H192V.29h2.13Z"/><path class="cls-2" d="M209,13.49l1.73,1a5.81,5.81,0,0,1-2.31,2.66,6.73,6.73,0,0,1-3.6,1,7.38,7.38,0,0,1-4-1.15,8,8,0,0,1-2.88-3.22,10.07,10.07,0,0,1-1.06-4.7,10.15,10.15,0,0,1,1.06-4.71,7.92,7.92,0,0,1,2.88-3.2,7.46,7.46,0,0,1,4-1.14,6.73,6.73,0,0,1,3.6,1,5.81,5.81,0,0,1,2.31,2.66l-1.73,1A4.45,4.45,0,0,0,204.77,2a5.05,5.05,0,0,0-3,.89,5.75,5.75,0,0,0-2,2.49,9.15,9.15,0,0,0-.7,3.7,9.23,9.23,0,0,0,.7,3.71,5.72,5.72,0,0,0,2,2.5,5.05,5.05,0,0,0,3,.89A4.45,4.45,0,0,0,209,13.49Z"/><path class="cls-2" d="M219.37.29l7,17.57h-2.37l-2-5h-7.27l-1.85,5h-2.16L217.57.29Zm2,10.61-3-7.76-2.83,7.76Z"/><path class="cls-2" d="M224.36.29h13V2.18h-5.47V17.86h-2.13V2.18h-5.45Z"/><path class="cls-2" d="M241.33,17.86h-2.14V.29h2.14Z"/><path class="cls-2" d="M245.05,4.27a7.56,7.56,0,0,1,2.84-3.17A7.71,7.71,0,0,1,252,0,7.57,7.57,0,0,1,256,1.12a7.73,7.73,0,0,1,2.84,3.16,10.47,10.47,0,0,1,1,4.77,10.53,10.53,0,0,1-1,4.79A7.82,7.82,0,0,1,256,17a7.48,7.48,0,0,1-4,1.12,7.71,7.71,0,0,1-4.07-1.1,7.56,7.56,0,0,1-2.84-3.17,10.6,10.6,0,0,1-1-4.8A10.54,10.54,0,0,1,245.05,4.27Zm1.9,8.47a5.68,5.68,0,0,0,2,2.51,5.21,5.21,0,0,0,3,.9,5.12,5.12,0,0,0,3-.9,5.68,5.68,0,0,0,2-2.51,9.27,9.27,0,0,0,.7-3.69,9.35,9.35,0,0,0-.7-3.72,5.65,5.65,0,0,0-2-2.5,5.53,5.53,0,0,0-6,0,5.65,5.65,0,0,0-2,2.5,9.18,9.18,0,0,0-.7,3.72A9.45,9.45,0,0,0,247,12.74Z"/><path class="cls-2" d="M264.41.29,274.18,14V.29h2V17.86h-1.8L264.63,4.08V17.86h-2V.29Z"/></g></g></svg>